<?xml version="1.0" encoding="UTF-8"?>
<svg id="Layer_2" data-name="Layer 2" xmlns="http://www.w3.org/2000/svg" viewBox="0 0 98.77 1140.1">
  <g id="Layer_1-2" data-name="Layer 1">
    <path d="M96.85,545.04c4.12-7.64,1.45-15.98-6.34-19.35-3.41-1.48-4.99-4.02-4.73-7.62.08-1.01.12-2.04,0-3.06-.42-3.72-1.33-7.32-5.12-8.97-3.45-1.5-6.07.54-8.5,2.72-.03.03-.2-.08-.56-.22-.49-26.57-5.16-256.51-10.3-508.54h-1.58c4.24,209.46,7.82,387.04,7.95,396.62l.05-.03c.44,32.42.91,64.83,1.35,97.26.15,11.68.24,23.33.37,35.01.03,2.91-.63,5.41-2.74,7.7-4.6,4.98-7.62,10.93-9.01,17.59-.56,2.64-2.6,2.28-4.21,2.45-3.48.39-7.01.12-10.51.68-5.27.86-9.55,2.89-12.57,7.64-2.91,4.58-6.88,8.4-10.58,12.39-3.09,3.33-6.72,4.78-11.17,4.65-1.93-.07-3.85.02-5.78.03-2.82.02-3.53,1.05-2.37,3.67,1.17,2.64,3.45,4,6.15,4.22,3.19.25,6.25.96,9.29,1.84,1.55.46,2.99.3,3.13-1.44.35-4.46,3.58-6.69,6.71-8.84,4.55-3.11,9.72-5.36,12.62-10.53.98-1.74,2.77.32,4.04-.12,3.99-1.4,3.36.71,2.82,3.28-.91,4.33-1.94,8.62-3.62,12.71-1.01,2.5-2.94,3.55-5.61,4.46-1.96.66-4.48,1.44-6.03,3.33-1.35,1.62-.66,4.19,1.76,4.83,3.8,1,7.74,1.57,11.64,2.03,1.71.2,2.4-1.4,2.13-2.82-.74-3.89,1.2-7.06,2.74-10.21,2.26-4.63,5.58-8.68,6.54-14.01.42-2.28,3.01-2.86,5.15-3.33,2.04-.46,2.96.68,3.94,2.31,1.32,2.2,3.02,4.02,6.02,1.82,1.76-1.28,1.67.63,1.84,1.57,1.05,5.64.32,11.3.05,16.95-1.5,32.15-4.48,20.26-6.49,52.38-2.75,44.02-5.73,88-8.52,132-1.74,27.37-3.21,54.76-5.04,82.13-1.82,27.37-4.19,54.69-6.49,82.03-2.15,25.53-5.12,50.94-9.17,76.22-4.39,27.34-9.23,54.63-17.96,81.05-3.45,10.41-5.96,21.12-5.27,32.31.19,3.06.81,5.83,2.01,8.26.68-.22,1.35-.42,2.03-.63-1-1.57-1.69-3.38-1.89-5.53-.83-8.57.2-17.03,2.45-25.24,6.08-22.35,12.89-44.49,16.52-67.47,3.24-20.58,6.47-41.14,9.02-61.82,2.06-16.64,3.57-33.35,4.9-50.06,1.84-23.17,3.63-46.31,5.24-69.5,1.45-21.02,2.6-42.07,3.89-63.11,1.44-23.42,2.84-46.84,4.34-70.24,1.4-22.05,2.94-44.1,4.41-66.15,1.5-22.61,1.71-31.63,4.51-42.48.52,1.24.55,1.02.51.72.03.15.08.35.15.65-.88,33.98-1.86,49.37-2.62,83.35-.64,28.78-1.33,57.55-2.59,86.31-1.1,25.24-2.1,50.49-3.45,75.71-1.23,23.2-2.97,46.36-4.31,69.55-1.54,26.48-3.94,52.87-7.06,79.19-2.91,24.52-7.4,48.81-9.66,73.42-.91,10.04-1.27,20.11.37,30.14.78,4.71,2.38,8.9,4.61,12.72.69-.25,1.39-.49,2.06-.74.03-.02.08-.05.14-.07-4.88-8.25-7.23-17.37-6.69-27.63.95-17.91,3.55-35.62,6.27-53.29,4.49-29.13,7.57-58.41,9.8-87.79,1.86-24.64,3.24-49.3,4.71-73.97,2.59-43.44,5.05-86.9,6.13-130.41.98-38.76,1.91-77.5,2.72-116.27.74-35.25,2.45-26.51,2.16-61.77-.02-2.13.63-2.89,2.64-2.67,2.21.81,1.71,2.16.73,3.6-.78-.63-1.57-1.3-1.77.41-.17,1.42.35,2.69,1.08,3.85,1.91,3.06,5.27,4.98,6.51,8.6.32.96,1.59.81,2.42.34,1.89-1.08,3.33-2.6,2.26-4.9-.52-1.13-.03-1.79.63-1.52,1.74.71,2.79-1.01,4.48-.86,1.86.17,4.75-4.41,4.24-6.25-.69-2.53-2.89-1.35-4.53-1.55-.3-.03-.61-.2-1.1-.39,1.33-3.18,4.11-6.17,1.06-9.78-2.55-3.04-2.42-6.54-.96-9.94,1.69-3.94,3.55-7.82,5.58-11.59ZM77.82,578.29c0-.51.14-.93.35-1.27.07.49.05.95-.35,1.27Z"/>
  </g>
</svg>