<?xml version="1.0" encoding="UTF-8"?>
<svg id="Layer_2" data-name="Layer 2" xmlns="http://www.w3.org/2000/svg" viewBox="0 0 69.87 282.35">
  <g id="Layer_1-2" data-name="Layer 1">
    <g>
      <path d="M66.38,154.08l.03-.03c-.37-.55-.85-.99-1.37-1.4,0,0,0,0-.01.01-.44-.74-.89-1.47-1.31-2.22-.16-.27-.42-.55.02-.86.87-.6.72-1.5.6-2.37-.05-.36-.22-.66-.09-1.08.46-1.63.25-2.11-1.13-3.11,2.25-2.47,3.13-5.16,2.73-8.64-.11-.96,0-2.02.44-2.89,2.46-4.78,3.5-9.86,3.59-15.2.06-3.6-.66-6.92-2.9-9.79-.59-.75-1.21-1.48-1.46-2.4-.24-.91-.73-1.58-1.35-2.27-2.28-2.55-5.98-3.32-8.86-1.54-1.13.7-1.94.52-3,0-1.31-.63-2.27-1.91-3.85-2.05-1.03-.09-2.12-.09-2.6-1.32-.07-.17-.36-.31-.57-.34-1.57-.17-2.08-1.19-2.19-2.59-.03-.37-.17-.74-.26-1.1-.04-.16-.1-.36-.14-.53-.18.11-.38.21-.57.31.16.63.34,1.28.48,1.86.17.68.65,1.44-.39,1.88-.07.03-.14.24-.11.3.45.77-.14,1.47-.12,2.21.04,1.18-.1,2.45,1.61,2.59.07,0,.11.17.2.22.58.34.59.94.7,1.5.57,2.83,1.39,5.62,1.83,8.49-.38.04-.41-.26-.57-.4-.15-.13-.31-.27-.48-.12-.08.07-.12.29-.07.41.3.73.65,1.45.24,2.27-.04.08.11.35.19.36.79.1.7.57.57,1.14-.08.34.11.7.43.87.53.28.4.57.19,1-.63,1.27-.34,2.9.64,3.95.13.14.28.25.28.46,0,1.58.88,3.13.07,4.84-1.45-1.27-3.19-.56-4.81-.48-1.76.08-3.5.62-5.24.96-1.96.39-3.91.78-5.87,1.19-.8.17-1.46.58-2.01,1.2-1.04,1.18-1.41,2.65-1.39,4.11.03,3.15-.47,6.26-.45,9.4,0,.4-.18.58-.45.83-1.19,1.11-2.46,2.14-3.47,3.43-.33.43-.57.42-1.01.12-.67-.46-1.41-.96-2.26-.82-1.43.25-2.06,1.12-1.71,2.79.23,1.09-.38,1.34-.97,1.79-.67.51-1.48.19-2.2.42-1.36.41-2.54,1.17-3.8,1.78-.65.32-1.2.5-1.89,0-.39-.28-1.23-.48-1.34.15-.13.71-.63.57-.99.77.26.35.68.08.92.31.01.26-.18.37-.34.41-1.93.53-3.85,1.17-5.9.77-.41-.08-.81-.23-1.22-.25-1.03-.04-1.55.5-1.34,1.24.55,1.91,1.55,3.58,2.54,5.27.53.89,1.34,1.15,2.2,1.06.47-.05.56.02.81.36.91,1.24,2.23,1.21,3.33.2.52-.48.6-1.24,1.14-1.58,1.45-.92,2.38-2.34,4.34-2.83,3.11-.78,6.17-1.97,9.03-3.55,1.21-.66,2.25-.18,3,.98.28.43-.48.83.02.93.7.15.69.85.98,1.2.77.95,1.52,1.74,2.75,1.94,1.37.23,3.18-.85,3.41-2.21.32-1.88.54-3.77.91-5.64.11-.52,0-1.12-.33-1.52-.85-1.03.22-1.59.55-2.27.34-.71,1.02-.14,1.52-.07.43.06.85.31,1.24.54.81.48,1.65.51,2.52.3,1.63-.4,3.15-1.07,4.7-1.68.55-.21,1.09-.8,1.55.28.18.42,1.07.52,1.68.44.58-.07.39-.65.51-1.01.15-.47.27-.95.38-1.43.18-.75.54-.99,1.19-.44.34.29.77.36,1.18.32.67-.06,1.15.3,1.42.76.33.57-.35.73-.69.96-.47.31-.02.46.04.69.08.27.08.5.49.38.99-.28,1.75-.17,2.53.28.19.11.44.27.62.23,1.07-.25.96.48.97,1.12.07,3.74.11,7.47.09,11.21-.02,3.91-.11,7.82-.24,11.73.28.06.57.12.84.22.02-.51.04-1,.07-1.51,1.39,1.35,2.1,1.2,2.87-.52.15-.34.26-.71.35-1.08.1-.39.26-.64.71-.76,1.49-.38,2.22-1.46,2.54-2.9.36-1.63,0-3.24-.08-4.86-.09-1.74-.23-3.47-.36-5.21-.04-.59.23-1.17.77-.86.69.39,1.34.09,1.98.24.24.05.32-.05.27-.28.61-.68.89-1.35,0-2.02-.01,0-.02,0-.03,0ZM36.69,139.14c.02-.83.33-1.48.27-2.2-.03-.35.56-.72,1.11-.63,1.13.19,2.26.38,3.74.63-1.8,1-3.41,1.58-5.11,2.2ZM48.28,120.21c-.19.14-.39.3-.61.19-.3-.14.09-.35,0-.56-.19-.45-.38-.9-.48-1.37-.09-.4-.6-1.18.55-.84.45.13.28-.43.58-.69.18.73.31,1.32.48,1.9.18.6-.06,1.02-.53,1.37ZM56.3,113.96c-.74,2.34-1.02,4.81-2.03,7.08-.26.58-.46,1.05-1.27.99-.66-.05-1.03.81-1.84.71-.6-.07-.91-.13-1.03-.84-.31-1.9-.72-3.79-1.14-5.67-.18-.83-.6-1.53-1.35-2.02-.69-.44-.92-1.05-.82-1.93.2-1.73-.51-3.35-.83-5.01-.32-1.7-.75-3.37-1.13-5.06.61.47,1.18.68,1.83.82,1.65.35,3.05,1.29,4.54,2.02.75.36.43,1.12.24,1.61-.53,1.4.11,2.29,1.06,3.17,1.22,1.12,2.39,2.3,3.59,3.44.23.21.27.4.17.69ZM57.41,153.32c0-.95.21-2.01-.15-2.82-.7-1.57.9-1.62,1.33-2.41.11-.21,1.6,1.15,1.63,1.62.04.72.08,1.44.01,2.16-.3,3.3-.5,6.64-2.82,9.58,0-2.82,0-5.47,0-8.13ZM60.52,166.58c0,.38,0,.76-.08,1.13-.11.52.1,1.37-.47,1.47-.61.11-1.1-.56-1.44-1.12-.66-1.09-1.04-2.18-.53-3.51.68-1.75,1.18-3.58,1.76-5.37.13-.42.32-.82.76-1.28,0,3.02,0,5.85,0,8.68ZM60.68,148.61c-.07-.26.03-.46.26-.55.29-.11.36.17.45.36.34.64.29,1.3.11,2.23-.48-.77-.66-1.4-.82-2.03ZM63.19,166.82c-.15.72-.43,1.37-.98,1.87-.3.27-.68.68-1.06.52-.47-.2-.05-.67-.02-1,.28-2.97-.03-5.95.07-8.92.04-1.28,0-2.57.44-3.81.24-.13.29.08.39.21,1.29,2.76.66,5.79,1.21,8.65.16.81.12,1.65-.05,2.47ZM66.31,155.27c-.25.24-.49-.06-.72-.14-2.37-.91-2.55-1.21-2.3-3.9,0-.02.06-.03.19-.11.46.57.66,1.38,1.29,1.84,0,0,0,0,0,.01.1.76.57,1.16,1.27,1.34.02.02.05.04.07.06.06.3.55.54.18.89Z"/>
      <path d="M46.89,115.84c-2.27-2.8-2.21-3.74-1.93-5.03.11-.52.22-1.01.05-1.91-.56-2.9-2.63-9.65-2.65-9.71L3.37.54l1.37-.54,39.01,98.7c.11.33,2.14,6.94,2.71,9.92.23,1.19.07,1.92-.06,2.5-.19.84-.31,1.4,1.63,3.79l-1.14.93Z"/>
      <path d="M54.55,282.35c-5.06-11.09-5.64-37.64-1.57-71.02,4.43-36.29,2.65-65.79,2.63-66.09l1.47-.09c.02.29,1.81,29.94-2.64,66.36-4.76,38.99-2.37,61.84,1.44,70.23l-1.34.61Z"/>
    </g>
  </g>
</svg>