<svg width="1438" height="335" viewBox="0 0 1438 335" fill="none" xmlns="http://www.w3.org/2000/svg">
<path d="M138.305 0.129639C138.376 -0.0840397 138.698 0.022687 138.877 0.0583496C139.341 0.272419 139.448 0.843581 139.627 1.30737C140.02 1.34305 140.485 1.45051 140.592 1.87866C140.842 2.73486 140.913 3.62696 141.056 4.48315C141.127 4.23341 141.199 4.01902 141.306 3.76929C141.591 3.76929 141.913 3.87689 141.984 4.198L141.806 4.37573C142.056 5.58882 141.699 6.87358 142.057 8.08667C143.057 9.97759 144.021 12.0475 143.843 14.2595C143.807 14.7945 143.485 15.2582 143.199 15.6863C142.663 16.4355 142.556 17.3628 142.234 18.1833C142.484 18.7542 143.235 19.4684 142.699 20.075C141.735 21.4664 141.199 23.1078 140.306 24.5349C138.341 27.6746 136.161 30.6355 134.196 33.7751C133.911 34.2032 133.375 34.3463 132.911 34.489C131.661 34.8458 130.517 35.4877 129.231 35.7732C127.159 36.2727 125.051 36.701 122.943 37.0935C121.479 37.3789 119.978 37.3795 118.514 37.5222C118.157 37.879 118.013 38.4497 117.549 38.7351C117.013 38.6637 116.584 38.2351 116.013 38.2351C115.941 39.4482 115.727 40.6617 115.513 41.8748C116.334 43.0165 116.798 44.4081 117.013 45.7996C117.298 47.5121 117.049 49.2247 117.228 50.9373H117.656C117.692 51.3297 117.728 51.6864 117.764 52.0789C117.407 52.2572 116.978 52.4005 116.585 52.5076C116.514 52.1508 116.442 51.7931 116.37 51.4363C116.442 51.3649 116.585 51.2224 116.656 51.1511C116.621 49.5813 116.691 48.0115 116.441 46.4773C116.227 45.3713 115.727 44.3361 115.155 43.3728C114.727 45.9417 114.119 48.4753 114.298 51.0798C114.476 56.6458 114.584 62.1765 114.798 67.7068C115.548 67.8138 116.441 67.7781 117.013 68.3845C117.584 69.0267 117.37 69.9189 117.299 70.7039C116.727 75.5561 116.156 80.3727 115.549 85.1892C115.406 85.9741 115.405 86.9372 114.727 87.4724C114.869 90.9333 115.013 94.4305 115.728 97.8201C116.085 100.175 116.192 102.708 115.191 104.956C114.798 105.848 113.798 106.383 113.619 107.382C113.619 108.273 113.655 109.201 113.548 110.129C113.262 112.662 113.226 115.231 113.012 117.764C112.94 118.728 112.94 119.727 112.94 120.69C113.226 121.975 114.155 123.081 114.084 124.436C114.12 125.15 113.726 125.756 113.512 126.398C113.547 126.683 113.869 126.791 114.048 127.005C114.727 127.576 114.619 128.54 114.905 129.289C115.405 129.895 116.12 130.288 116.763 130.752C117.739 131.467 118.769 132.14 119.875 132.616C120.015 132.557 120.157 132.497 120.3 132.431C124.6 130.731 130.2 125.831 137 127.631C144 129.531 146.9 135.131 156 134.631C157.725 134.556 159.535 134.354 161.401 134.086C161.385 133.87 161.42 133.649 161.526 133.427C162.277 131.751 163.063 130.038 163.17 128.182C163.098 125.792 162.241 123.544 161.669 121.26C161.347 119.941 160.883 118.621 160.812 117.229C160.74 116.159 161.526 115.374 162.026 114.517C162.312 114.018 161.955 113.483 161.776 113.054C160.74 111.092 160.918 108.809 160.704 106.633C160.311 100.353 159.561 94.0379 160.312 87.7585C160.419 85.2254 160.812 82.692 161.634 80.3015C160.491 79.802 159.168 79.6235 158.168 78.8386C158.311 78.4105 158.454 77.946 158.562 77.4822C159.312 73.0939 160.276 68.7055 160.74 64.2458C161.133 60.7494 161.312 57.1813 161.205 53.6492C161.134 52.222 161.133 50.7941 160.812 49.3669C160.597 48.2254 159.525 47.5116 158.668 46.8337C154.738 43.9795 150.987 40.9112 147.629 37.4148C146.772 36.5942 146.486 35.3807 146.308 34.239C145.95 31.9558 145.45 29.6726 145.093 27.3894C144.95 26.1407 144.807 24.8559 144.985 23.6072C145.164 22.5011 145.057 21.3949 144.843 20.2888C144.736 19.7536 145.307 19.4679 145.593 19.1111C145.343 18.4334 145.021 17.7556 144.914 17.0066C144.735 15.6865 144.95 14.3301 145.308 13.0457C145.7 11.6901 145.307 10.2987 145.45 8.94312C145.486 8.51499 146.2 8.19375 146.343 8.69312C146.557 9.47794 146.558 10.334 146.736 11.1189C146.951 9.65619 146.986 8.19339 147.165 6.76636C147.165 6.44542 147.415 6.2313 147.629 6.01733C147.772 6.05301 148.058 6.12423 148.201 6.15991C148.273 5.76745 148.344 5.26747 148.809 5.12476C149.415 4.98256 149.451 5.76754 149.559 6.15991C149.666 6.05283 149.88 5.80306 149.987 5.69604C150.844 6.01721 150.594 7.05185 150.701 7.76538C150.844 9.26375 150.595 10.7265 150.595 12.1892C151.023 11.7613 151.416 11.3334 151.987 11.155C152.38 11.0123 152.988 11.0478 153.167 11.5115C153.024 12.0109 152.381 12.0826 152.131 12.5105C151.666 13.331 151.202 14.1518 150.916 15.0437C150.666 15.8286 149.951 16.3286 149.63 17.0779C149.451 17.5416 149.309 18.0765 149.487 18.5759C149.88 19.7175 149.737 20.9309 150.022 22.1082C150.237 22.5719 150.559 22.9647 150.523 23.4998C150.452 24.463 151.059 25.2837 151.095 26.2468C151.166 27.4598 151.88 28.4236 152.166 29.5652C152.416 30.5998 153.238 31.2779 153.81 32.0984C154.203 32.5622 154.381 33.1687 154.774 33.6326C156.096 34.5245 157.311 35.5599 158.633 36.4519C159.383 36.5232 160.168 36.5946 160.704 37.2009C162.74 37.415 164.777 37.8434 166.706 38.5212C167.421 38.8067 168.171 38.2709 168.886 38.6277C169.636 39.0202 170.386 39.5556 170.672 40.4119C171.172 40.6258 171.815 40.4115 172.351 40.3044C172.886 40.1617 172.78 39.5553 172.887 39.1628C172.172 38.9488 171.315 38.8416 170.743 38.3064C170.35 37.9139 170.386 37.3429 170.386 36.8435C170.421 35.4166 169.636 34.1323 169.457 32.741C169.35 31.8847 169.993 31.2066 170.243 30.4216C170.279 29.7438 169.707 28.9945 170.136 28.3523C170.6 27.6388 170.851 26.854 171.029 26.0691C170.922 25.9621 170.778 25.8192 170.707 25.7478C170.921 25.0699 170.957 24.2845 171.422 23.7136C172.779 22.1796 174.887 21.538 176.888 21.3953C178.495 21.3953 180.032 21.894 181.461 22.6433C181.89 22.893 182.354 23.1786 182.497 23.7136C183.533 24.1062 183.926 25.2128 184.354 26.1404C184.89 27.4604 184.569 28.852 184.283 30.2078C183.855 31.8132 183.069 33.2759 182.068 34.6316C181.568 35.4165 180.889 36.1659 180.817 37.1648C180.746 38.2708 180.817 39.4485 181.246 40.4832C181.425 41.0183 182.068 40.9474 182.497 41.0544C182.89 41.1259 183.211 41.3395 183.497 41.5535C185.176 42.7308 186.891 43.9081 188.748 44.7644C189.927 45.2639 190.856 46.2629 191.356 47.4402C192.821 50.3302 192.75 53.6491 193.071 56.7888L193.179 56.6101C193.643 60.6419 193.643 64.7097 193.643 68.7771C194.036 72.452 194.357 76.1628 193.929 79.8376C193.822 80.5154 193.607 81.1935 193.535 81.907C193.428 82.6561 193.607 83.4411 193.429 84.1902C193.286 84.7253 192.821 85.1891 192.821 85.7957C192.714 86.8659 192.821 87.9363 192.821 89.0066C193.143 90.1483 192.678 91.2906 192.571 92.4324C192.214 93.5026 191.284 94.2874 190.284 94.7869C189.463 95.3575 188.499 95.5719 187.534 95.7146C187.463 95.5006 187.391 95.2509 187.355 95.0369C187.713 94.573 188.177 94.2156 188.427 93.6804C188.962 92.7885 188.998 91.7184 189.034 90.7195C189.106 90.327 188.713 90.0769 188.355 90.0769C188.034 91.1116 188.248 92.5748 187.177 93.2527C186.82 93.538 186.427 93.2885 186.427 92.8962C186.462 91.6475 186.748 90.434 186.748 89.1853C186.748 88.1864 187.284 87.3301 187.498 86.3669C187.891 85.6534 188.248 84.9038 188.427 84.1189C188.248 83.7622 188.07 83.3697 187.998 82.9773C187.962 82.2637 188.32 81.5854 188.105 80.8718C187.605 78.4457 187.462 75.9479 187.069 73.4861C186.998 71.2027 187.07 68.8836 186.498 66.6716C186.355 66.1008 186.212 65.5657 186.069 64.9949C185.462 66.2436 185.212 67.5992 184.497 68.8123C185.212 70.1681 186.177 71.7028 185.748 73.3083C185.641 74.0574 185.14 74.6282 184.783 75.2703C184.819 76.3406 185.605 77.1975 185.748 78.2322C185.891 79.6235 185.747 81.0504 185.497 82.406C185.354 83.3693 185.498 84.3685 185.712 85.3318C185.533 86.3308 185.89 87.2942 185.962 88.2576C186.248 89.7917 185.998 91.3259 186.212 92.8601C186.391 94.0018 186.069 95.1081 185.783 96.1785C185.462 97.106 185.605 98.0693 185.462 98.9968C185.283 100.174 185.605 101.316 185.712 102.458C186.212 105.562 186.676 108.737 186.141 111.877C185.891 112.84 186.605 113.661 186.712 114.589C186.891 115.373 186.498 116.266 186.962 116.979C187.533 117.8 187.069 118.799 187.141 119.726C187.248 122.83 187.14 125.935 186.783 129.039C186.669 129.824 186.581 130.631 186.457 131.432C188.875 131.743 191.149 132.394 193.2 133.531C196.1 135.631 196.6 139.131 199.4 141.231C204.9 144.931 214.701 142.231 221.9 142.231C232.1 141.831 231.2 147.331 233.6 150.731C235.1 153.331 238.2 155.631 241.9 157.631C247.7 160.831 255.4 164.131 262.5 165.931C279.3 170.431 293.6 163.431 308.2 160.831C329 157.931 350.5 166.931 362.4 175.031C365.6 177.231 368.8 179.631 373.8 180.931C380.1 182.631 387.8 181.931 394.3 183.231C400.4 184.731 405.8 186.931 412.9 186.731C419.2 186.831 426.2 186.831 431.2 189.031C438.7 192.231 440.4 197.331 446.9 200.631C454.9 203.73 467.3 198.131 477 199.031C487.4 199.431 499.1 202.231 508.8 204.631C521.1 207.931 522 205.431 532 202.931C542.5 201.031 549.2 204.73 561.1 202.131C565.6 201.531 570.5 201.131 575.3 201.131C585.1 201.331 594.9 202.431 602.4 199.131C608.3 196.831 611.601 192.431 619.4 191.431C623.9 190.831 629 191.531 633.6 192.031C647.099 193.531 661.6 192.731 674.6 190.731C680.9 189.631 688.2 188.831 694.3 190.931C698.8 192.331 702.4 194.831 706.7 195.531C713.6 196.531 722.1 194.131 729.4 196.031C734.6 197.131 738.8 199.431 744 199.931C760.3 200.431 764.9 198.431 782.5 203.131C794.3 206.531 808.1 206.431 819.6 209.831C832.5 214.631 839.5 214.631 854.5 216.331C862.8 217.431 871.2 219.331 879.8 219.031C885.9 218.931 890.8 216.831 895.9 215.831C903.1 214.131 911.6 216.731 918.5 217.631C928.9 219.031 932.9 209.931 946.7 208.831C954.2 208.131 960.2 211.331 966.7 212.731C973.602 214.331 1039.3 200.331 1054.2 205.831C1090.2 219.231 1103.5 210.031 1120.9 207.931C1138.3 205.831 1151 195.932 1160.3 193.931C1169.8 192.431 1183.3 197.831 1190.2 192.731C1193.3 190.731 1194 187.731 1198.5 186.231C1204.1 184.731 1211.6 186.931 1218.2 186.431C1223.6 186.331 1228.8 184.931 1233.8 184.931C1242.2 184.731 1246.2 189.231 1250.6 191.931C1254.9 194.931 1262.1 193.931 1267.7 192.731C1271.6 191.931 1276.1 191.331 1280.5 191.331C1285.5 191.131 1291.8 191.631 1294.9 190.531C1299 189.131 1300.6 185.531 1301.7 182.931C1303.7 179.031 1305.4 174.531 1312.3 172.031C1316.3 170.531 1321.6 169.831 1326.8 168.431C1331.8 167.131 1336.2 165.331 1341 163.931C1347.8 161.831 1356.3 161.331 1362.8 159.031C1370.5 156.331 1374.5 151.231 1385.8 151.631C1407.8 152.831 1413 162.131 1438 163.931V334.631H-2V119.431C0.9 118.931 4.1002 118.531 7.7002 118.331C28.2 116.631 29.8004 122.331 41.9004 126.631C43.1004 126.931 44.7001 127.131 46 127.131C51.3999 127.231 56.3997 124.131 61.5996 123.131C66.9995 121.831 70.5998 123.431 76.5996 124.231C78.5996 124.331 80.6002 124.331 82.7002 124.331C85.6856 124.211 89.1345 123.774 92.4082 123.673C92.3804 123.538 92.3633 123.401 92.3633 123.259C92.2919 122.153 92.3993 121.011 92.4707 119.905C92.8637 115.231 92.8281 110.486 94.1855 105.955C94.5785 104.849 94.3279 103.6 94.9707 102.565C95.1493 102.208 95.435 101.887 95.3994 101.495C95.2923 100.246 95.7569 99.033 96.1855 97.8914C96.5071 97.0707 96.293 96.2139 96.293 95.3933C96.1144 93.3953 96.3288 91.3615 96.043 89.3992C95.8644 88.2576 95.7926 87.116 95.7568 85.9744C92.3987 85.4749 89.0046 85.0822 85.6465 84.6541C85.0393 84.5827 84.3605 84.3684 84.0391 83.7976C83.7534 83.3696 83.8246 82.8345 83.8604 82.3708C84.3962 77.8396 84.9676 73.3435 85.4678 68.8123C83.4674 68.5982 81.4673 68.1342 79.6455 67.3494C78.5023 66.8499 77.4656 66.1365 76.6797 65.1375C76.5011 66.9926 77.2868 68.7408 77.6084 70.5603C78.0014 72.4513 78.0022 74.3783 78.1094 76.2693C78.2523 76.8401 77.5727 76.8406 77.1797 76.8406C77.3583 74.2003 76.9304 71.595 76.3945 69.0261C76.073 67.4921 75.7515 65.8512 76.2158 64.3171C75.9658 63.9247 75.7514 63.5318 75.5371 63.1394C75.1084 64.2098 74.7504 65.316 74.7861 66.4578C74.7862 67.207 75.1079 67.921 75.3223 68.6345C76.0009 70.6324 75.9653 72.809 75.3223 74.7712C75.1795 75.1993 75.1795 75.6988 74.751 75.9841C74.5009 75.8058 73.8224 75.77 74.1436 75.3064C75.0366 73.4155 75.1076 71.239 74.7861 69.1697C74.679 68.135 74.3576 67.0999 74.2861 66.0652C74.2504 64.6023 74.6792 63.1748 75.3223 61.8904C75.0722 60.6419 74.5011 59.5002 74.251 58.2517C73.9295 56.8959 73.6436 55.5041 73.6436 54.0769C73.6078 51.9362 73.5722 49.7596 73.8223 47.6189C73.9294 45.1928 73.7865 42.7667 73.8223 40.3406C73.5007 41.0185 73.1789 41.6965 72.6787 42.2673C72.3215 42.1603 72.0359 41.8746 71.9287 41.5535C72.2502 41.054 72.6435 40.6613 72.8936 40.1619C73.5364 38.9846 73.7859 37.6288 74.1074 36.3445C73.8931 36.1662 73.6071 36.059 73.5 35.8093C73.7857 35.3813 74.1792 35.0245 74.3936 34.5251C74.7508 33.7045 75.3583 33.0264 75.8584 32.2771C75.5726 30.8857 75.7866 29.4942 76.001 28.1384C76.1082 27.3535 76.5724 26.7109 76.9297 26.033C77.6799 24.6773 78.573 23.3929 79.5732 22.2156C80.3949 21.3593 81.4314 20.7171 82.4316 20.1462C84.2892 19.4327 86.3253 18.8979 88.29 19.3259C89.4689 19.6113 90.5053 20.2172 91.6484 20.5027C92.613 20.7524 93.6135 21.0025 94.3994 21.6804C95.3997 22.4297 96.1854 23.4648 97.1143 24.321C97.6501 23.8929 98.3652 23.5712 99.0439 23.8923C99.7226 24.1065 100.115 24.7493 100.437 25.3201C101.115 25.0347 101.866 25.0696 102.58 24.9626C103.545 24.3205 104.045 23.179 104.045 22.073C103.831 20.6102 103.116 19.2544 102.401 17.9343C101.544 16.3288 101.366 14.4014 101.83 12.6531C102.223 10.4055 103.616 8.22904 105.831 7.44409C107.331 7.01594 108.904 6.98068 110.476 7.01636C111.333 7.01637 112.154 7.40848 113.012 7.23022C113.869 6.94483 114.727 7.44419 115.405 7.90796C116.084 8.40747 116.192 9.29978 116.299 10.0847C116.37 10.5484 116.013 10.8697 115.62 11.0125C116.156 12.0471 116.441 13.1892 116.941 14.2595C117.406 14.9373 116.406 15.5432 116.835 16.1853C117.371 17.1486 118.192 17.9339 118.514 18.9685C118.514 19.789 117.478 19.6824 116.906 19.6824C116.871 20.3602 116.585 20.9671 116.12 21.4666C116.299 21.6805 116.442 21.8942 116.62 22.1082C116.513 22.4293 116.37 22.7509 116.263 23.072C116.656 23.7141 116.906 24.7125 116.156 25.2478C115.049 25.8186 113.655 25.1768 112.548 25.783C112.298 26.2467 112.155 26.7821 111.94 27.2458C114.227 27.1388 116.513 27.6383 118.692 28.2449C118.942 28.3162 119.121 28.4591 119.335 28.5662C120.192 28.3164 121.086 28.1023 121.872 28.5662C123.301 28.0311 124.873 27.8171 126.409 27.8171C126.838 27.8526 127.195 27.4959 127.588 27.4246C127.838 27.4603 128.124 27.5671 128.374 27.6384C128.695 27.1392 129.16 26.7821 129.767 26.6394C130.195 25.9615 130.803 25.3912 131.518 25.0701C132.196 24.963 132.447 24.2496 132.911 23.8572C133.84 23.0009 134.625 22.0011 135.482 21.1091C135.983 20.6453 136.019 19.8963 136.447 19.3611C137.162 18.3979 137.769 17.3991 138.412 16.4001C138.734 15.8293 139.484 15.579 139.663 14.9011C140.092 14.0806 139.913 13.1171 139.484 12.3679C138.913 11.4403 139.02 10.2986 138.627 9.29956C138.484 8.76438 138.091 8.33611 137.733 7.90796C138.055 7.4087 138.662 7.40846 139.162 7.58667C138.984 6.98044 138.805 6.4097 138.627 5.80347C138.27 4.66173 138.305 3.41252 138.162 2.23511C138.019 1.52156 138.233 0.843189 138.305 0.129639ZM173.101 98.3191C172.529 100.709 171.814 103.1 171.814 105.597C171.814 107.56 171.493 109.523 171.493 111.485C171.493 112.234 171.208 112.948 170.958 113.661C170.994 114.196 171.314 114.696 171.314 115.231C171.314 118.763 171.315 122.296 171.101 125.828C170.925 128.07 170.544 130.312 170.395 132.553C173.111 132.08 175.844 131.648 178.511 131.406C178.047 130.082 177.878 128.665 177.71 127.291C177.567 125.15 177.995 123.045 177.995 120.904C177.995 119.834 178.495 118.835 178.281 117.764C178.174 116.944 177.888 116.123 177.603 115.338C177.031 113.732 177.138 111.949 176.709 110.307C175.744 106.24 174.672 102.172 173.101 98.3191ZM104.438 108.452C103.903 108.951 103.33 109.38 102.759 109.772C102.973 112.091 101.616 114.089 101.366 116.337C101.116 117.907 100.972 119.513 100.687 121.083C100.364 122.503 101.354 123.749 101.546 125.11C102.455 125.509 103.302 125.983 104.1 126.531C104.592 126.824 105.076 127.16 105.556 127.521C105.599 127.251 105.654 126.983 105.725 126.719C104.867 124.329 104.438 121.76 104.438 119.227C104.26 115.659 104.224 112.055 104.438 108.452ZM113.512 57.1453C113.226 58.18 113.226 59.2863 113.19 60.3923C113.19 62.7113 113.083 65.066 112.69 67.3494C112.941 67.385 113.191 67.4568 113.477 67.4568C113.512 64.1029 113.512 60.713 113.512 57.3591H113.548L113.655 57.1453H113.512ZM99.8291 25.3552C99.4004 24.8915 98.6863 24.4634 98.0791 24.8914C97.6862 25.1411 98.0787 25.6049 98.2217 25.8904C98.7574 25.7477 99.2934 25.5692 99.8291 25.3552Z" fill="black"/>
</svg>
