<?xml version="1.0" encoding="UTF-8"?>
<svg id="Layer_1" xmlns="http://www.w3.org/2000/svg" version="1.1" viewBox="0 0 1440 217">
  <!-- Generator: Adobe Illustrator 30.1.0, SVG Export Plug-In . SVG Version: 2.1.1 Build 136)  -->
  <path d="M1440,217V46.3c-25-1.8-30.2-11.1-52.2-12.3-11.3-.4-15.3,4.7-23,7.4-6.5,2.3-15,2.8-21.8,4.9-4.8,1.4-9.2,3.2-14.2,4.5-5.2,1.4-10.5,2.1-14.5,3.6-6.9,2.5-8.6,7-10.6,10.9-1.1,2.6-2.7,6.2-6.8,7.6-3.1,1.1-9.4.6-14.4.8-4.4,0-8.9.6-12.8,1.4-5.6,1.2-12.8,2.2-17.1-.8-4.4-2.7-8.4-7.2-16.8-7-5,0-10.2,1.4-15.6,1.5-6.6.5-14.1-1.7-19.7-.2-4.5,1.5-5.2,4.5-8.3,6.5-6.9,5.1-20.4-.3-29.9,1.2-9.3,2-22,11.9-39.4,14-17.4,2.1-30.7,11.3-66.7-2.1-14.9-5.5-80.6,8.5-87.5,6.9-6.5-1.4-12.5-4.6-20-3.9-13.8,1.1-17.8,10.2-28.2,8.8-6.9-.9-15.4-3.5-22.6-1.8-5.1,1-10,3.1-16.1,3.2-8.6.3-17-1.6-25.3-2.7-15-1.7-22-1.7-34.9-6.5-11.5-3.4-25.3-3.3-37.1-6.7-17.6-4.7-22.2-2.7-38.5-3.2-5.2-.5-9.4-2.8-14.6-3.9-7.3-1.9-15.8.5-22.7-.5-4.3-.7-7.9-3.2-12.4-4.6-6.1-2.1-13.4-1.3-19.7-.2-13,2-27.5,2.8-41,1.3-4.6-.5-9.7-1.2-14.2-.6-7.8,1-11.1,5.4-17,7.7-7.5,3.3-17.3,2.2-27.1,2-4.8,0-9.7.4-14.2,1-11.9,2.6-18.6-1.1-29.1.8-10,2.5-10.9,5-23.2,1.7-9.7-2.4-21.4-5.2-31.8-5.6-9.7-.9-22.1,4.7-30.1,1.6-6.5-3.3-8.2-8.4-15.7-11.6-5-2.2-12-2.2-18.3-2.3-7.1.2-12.5-2-18.6-3.5-6.5-1.3-14.2-.6-20.5-2.3-5-1.3-8.2-3.7-11.4-5.9-11.9-8.1-33.4-17.1-54.2-14.2-14.6,2.6-28.9,9.6-45.7,5.1-7.1-1.8-14.8-5.1-20.6-8.3-3.7-2-6.8-4.3-8.3-6.9-2.4-3.4-1.5-8.9-11.7-8.5-7.2,0-17,2.7-22.5-1-2.8-2.1-3.3-5.6-6.2-7.7-10.1-5.6-25.6.6-37.2,1.1-9.1.5-12-5.1-19-7-6.8-1.8-12.4,3.1-16.7,4.8-7.6,3.5-11.5-3.1-16.2-5.9-1.6-1.1-3.4-1.9-5.5-2.4-4.6-1.1-10.9,0-15.9.2-2.1,0-4.1,0-6.1-.1-6-.8-9.6-2.4-15-1.1-5.2,1-10.2,4.1-15.6,4-1.3,0-2.9-.2-4.1-.5C31.8,4.7,30.2-1,9.7.7,6.1.9,2.9,1.3,0,1.8v215.2h1440Z"/>
</svg>