<?xml version="1.0" encoding="UTF-8"?>
<svg id="Layer_2" data-name="Layer 2" xmlns="http://www.w3.org/2000/svg" viewBox="0 0 1440 575.44">
  <g id="Layer_1-2" data-name="Layer 1">
    <path d="M1440,377.06V0H0v546.8c3.44.81,7.25,1.4,11.8,1.62,11.33.32,15.23-5.03,22.94-7.89,6.49-2.4,14.99-3.02,21.8-5.26,4.82-1.52,9.15-3.41,14.19-4.79,5.25-1.51,10.46-2.27,14.51-3.83,6.85-2.69,8.55-7.31,10.57-11.42,1.12-2.73,2.65-6.52,6.71-7.98,3.08-1.15,9.4-.72,14.39-.88,4.36-.1,8.86-.71,12.79-1.51,5.58-1.32,12.79-2.42,17.11.77,4.45,2.75,8.48,7.5,16.8,7.2,4.99-.03,10.19-1.47,15.63-1.7,6.6-.52,14.11,1.7,19.72.06,4.49-1.56,5.19-4.73,8.24-6.88,6.92-5.39,20.45.24,29.94-1.45,9.28-2.09,21.89-12.51,39.29-14.8,17.4-2.29,30.59-11.92,66.71,1.84,14.89,5.67,80.52-9.34,87.48-7.7,6.54,1.38,12.51,4.73,20.07,3.99,13.74-1.24,17.71-10.73,28.13-9.36,6.92.92,15.46,3.59,22.6,1.77,5.1-1.03,10.03-3.27,16.12-3.46,8.6-.36,17.01,1.59,25.33,2.71,15,1.68,22.02,1.6,34.9,6.58,11.47,3.51,25.31,3.32,37.09,6.77,17.59,4.82,22.2,2.7,38.5,3.15,5.24.51,9.43,2.9,14.6,3.95,7.32,1.9,15.81-.66,22.74.37,4.29.72,7.9,3.29,12.44,4.71,6.08,2.14,13.39,1.25,19.67.09,13.02-2.19,27.52-3.07,40.95-1.56,4.62.52,9.76,1.16,14.16.51,7.81-1.11,11.1-5.7,16.99-8.09,7.46-3.48,17.32-2.43,27.12-2.21,4.85.03,9.68-.45,14.2-1.17,11.85-2.74,18.65,1.05,29.06-1,9.98-2.64,10.84-5.26,23.15-1.92,9.76,2.42,21.47,5.31,31.79,5.71,9.73.84,22.09-5.06,30.06-1.85,6.55,3.38,8.22,8.76,15.75,11.97,4.97,2.31,12.05,2.25,18.32,2.24,7.09-.27,12.49,2.03,18.6,3.56,6.53,1.33,14.2.59,20.47,2.31,4.99,1.28,8.19,3.83,11.42,6.13,11.92,8.42,33.53,17.64,54.27,14.54,14.6-2.81,28.8-10.17,45.65-5.59,7.15,1.86,14.85,5.23,20.67,8.51,3.73,2.11,6.81,4.45,8.38,7.15,2.45,3.5,1.54,9.28,11.77,8.84,7.21-.06,17.02-2.92,22.5.95,2.84,2.16,3.33,5.82,6.27,7.97,10.14,5.77,25.63-.83,37.2-1.39,9.08-.59,12.02,5.2,19,7.18,6.8,1.81,12.4-3.28,16.68-5.07,7.55-3.74,11.5,3.16,16.22,6.06,1.65,1.13,3.42,2.01,5.48,2.47,4.61,1.09,10.9-.07,15.9-.32,2.1-.11,4.09-.09,6.14.12,5.97.76,9.63,2.43,15.03,1.08,5.18-1.03,10.14-4.3,15.6-4.26,1.35-.04,2.88.2,4.1.51,12.3,4.23,13.87,10.12,34.34,8.27,35.19-2.63,32.9-19.03,49.95-20.35v-177.68Z"/>
  </g>
</svg>