<?xml version="1.0" encoding="UTF-8"?>
<svg id="Layer_2" data-name="Layer 2" xmlns="http://www.w3.org/2000/svg" viewBox="0 0 1253.96 233.13">
  <defs>
    <style>
      .cls-1 {
        fill: #231f20;
      }
    </style>
  </defs>
  <g id="Layer_1-2" data-name="Layer 1">
    <g>
      <path class="cls-1" d="M37.04,143.25c-1.68,4.07-3.14,7.92-4.38,11.55-.89,2.48-1.86,5.05-2.92,7.7-.26.62-.62,1.42-1.06,2.39-.53,1.15-.88,1.99-1.06,2.52-.26.45-.58,1.15-.93,2.12-.35,1.06-.62,1.81-.8,2.26.18-.35-.44,1.06-1.86,4.25-.53,1.24-1.19,2.21-1.99,2.92-.26.26-.4.62-.4,1.06-.09,1.24-.09,2.26,0,3.06.18,2.04-.26,4.12-1.33,6.24h-.13.27c-.44,1.15-1.33,2.08-2.66,2.79v-.14l.53,1.06c.27.71.35,1.28.27,1.72-.18.89-.35,1.68-.53,2.39-1.33,4.16-2.26,7.57-2.79,10.22-.18.98-.58,2.04-1.19,3.19-1.15,1.95-1.68,2.79-1.59,2.52-.88,1.95-2.21,3.63-3.98,5.05-3.1,2.65-4.43,3.8-3.98,3.45-.53.35-1.06.61-1.59.8-.44.09-.8-.05-1.06-.4-.53-.97-1.11-2.43-1.73-4.38-.09-.62-.13-1.2-.13-1.73.26-2.39.71-4.29,1.33-5.71.44-1.33,1.15-3.41,2.12-6.24.71-2.03,1.15-3.54,1.33-4.51.09-.62.53-2.12,1.33-4.51,1.5-4.69,2.57-8.67,3.19-11.95.44-2.03,1.11-3.62,1.99-4.78.09-.18.13-.4.13-.66,0-.09-.05-.27-.13-.53-.18-.88-.13-1.86.13-2.92,1.77-6.81,2.87-11.2,3.32-13.14.35-1.59,1.15-2.87,2.39-3.85.18-.09.31-.22.4-.4.09-.62.13-1.01.13-1.2-.89-1.41-1.02-2.87-.4-4.38.18-2.03.97-4.03,2.39-5.97l-.27.26.27-.26c-.09-.8,0-1.55.26-2.26.88-1.94,1.55-3.98,1.99-6.1.35-1.51.53-2.7.53-3.58.18-2.04.53-3.94,1.06-5.71.35-1.15.88-3.05,1.59-5.71.71-2.47,1.28-4.38,1.73-5.71.27-1.06.66-1.95,1.19-2.66.35-.62.53-1.15.53-1.59,0-1.41.35-3.76,1.06-7.04,1.41-6.46,2.26-10.09,2.52-10.88.27-.97.84-3.9,1.73-8.76.18-1.24.53-3.19,1.06-5.84.44-2.48.8-4.43,1.06-5.84,0-.17.22-.93.66-2.26.18-.53.53-.97,1.06-1.33.88-.53,1.11-1.19.66-1.99-.62-1.15-.93-2.43-.93-3.85,0-.18.18-1.77.53-4.78.09-.26.18-1.06.27-2.39,0-.97-.53-1.51-1.59-1.6h-1.19c-.89.18-1.64.4-2.26.66-1.59.53-3.72.8-6.37.8-.62,0-1.19-.09-1.73-.27-1.06-.26-2.21-.62-3.45-1.06-.18-.09-.53-.27-1.06-.53-.44-.27-.8-.4-1.06-.4-2.57-.7-6.55-2.87-11.95-6.5-.8-.53-1.68-1.28-2.65-2.26-1.51-1.59-1.91-3.41-1.2-5.44.18-.62.44-1.15.8-1.59,1.51-1.68,3.23-2.97,5.18-3.85,4.34-2.03,8.81-3.54,13.41-4.51,1.33-.35,2.26-.62,2.79-.8.88-.27,2.26-.53,4.12-.8,1.24-.18,1.99-.35,2.26-.53,1.33-.53,3.85-1.02,7.57-1.46,3.19-.35,5.13-.62,5.84-.8,3.8-.89,8.1-1.06,12.88-.53.71,0,1.5.09,2.39.26.62.09,1.41.05,2.39-.13,2.21-.44,3.94-.7,5.18-.8,3.01-.35,5.53-.18,7.57.53,2.74.97,5.66.97,8.76,0,1.24-.35,2.21-.58,2.92-.66,2.65-.27,6.86-1.2,12.61-2.79,2.83-.71,5.58-.93,8.23-.66,3.19.35,4.96.58,5.31.66,1.51.18,2.12,1.06,1.86,2.66-.18.88-.27,1.28-.27,1.19-.98,3.72-2.21,7.83-3.72,12.35-.26.97-.84,1.72-1.73,2.26-3.01,1.95-5.84,3.37-8.5,4.25-.62.26-1.46.58-2.52.93-1.15.45-1.95.76-2.39.93-1.24.44-1.99.66-2.26.66-1.15.18-3.85.88-8.1,2.12-3.1.88-7.97,2.43-14.6,4.64-.98.27-2.44.8-4.38,1.6-2.04.71-3.54,1.24-4.51,1.59-.18,0-.45.09-.8.26-.35.18-.62.31-.8.4-1.33.44-2.21,1.41-2.65,2.92-.18.8-.27,1.37-.27,1.72-.35,2.83-.89,7.97-1.59,15.4-.62,6.73-1.99,13.24-4.12,19.52-.35.89-.62,1.42-.8,1.6-.71.97-1.15,2.26-1.33,3.85-.09.89-.4,1.81-.93,2.79-.27.35-.35.71-.27,1.06.09.89-.13,2.26-.66,4.12-1.95,6.11-3.05,9.87-3.32,11.28-.18,1.16-.84,2.08-1.99,2.79-1.95,1.24-2.92,1.91-2.92,1.99-.27.27-.35.62-.27,1.06.09.44.48,1.11,1.19,1.99.53.8.62,1.72.27,2.79-.44,1.41-.98,2.48-1.59,3.18v-.13c-.18.97-1.15,3.54-2.92,7.7ZM10.22,204.45l-.27.13c-.44-.53-.58-.8-.4-.8.27.45.44.71.53.8l.13-.13ZM15.27,176.17c-.35-.44-.71-.44-1.06,0-.09.18-.09.31,0,.4.27.45.58.49.93.14l.13-.53ZM14.87,189.45l-.4.4c0,.09-.05.27-.13.53.18-.44.31-.75.4-.93h.13ZM19.12,180.55c-.09-.53-.53-.75-1.33-.66-.44,0-.71.18-.8.53-.27.62-.09,1.06.53,1.33h.53c.8-.09,1.15-.49,1.06-1.2ZM28.54,151.61c-.27.26-.27.58,0,.93.18.35.48.45.93.27.35-.18.57-.45.66-.8,0-.35-.22-.66-.66-.93-.35,0-.66.18-.93.53ZM30.4,32.66c-.26-.35-.62-.53-1.06-.53-.35.09-.35.26,0,.53.27.18.62.13,1.06-.13.09,1.42.27,2.52.53,3.32h-.13c.09-.27-.05-1.33-.4-3.19ZM29.34,147.09l-.13.4.4.13c.27-.44.18-.62-.27-.53ZM29.6,128.64v.26l.4-.13-.4-.13ZM31.73,118.29c-.09-.17-.22-.26-.4-.26-.44-.09-.66.09-.66.53.09.53.35.75.8.66.44-.18.53-.49.27-.93ZM34.12,110.45c-.35-.35-.66-.31-.93.13-.18.18-.31.53-.4,1.06,0,.18.09.31.27.4.35.35.66.35.93,0,.09-.09.22-.48.4-1.19l-.27-.4ZM36.51,123.07l-.27-.26.27.13v.13ZM39.3,105.81c-.18.09-.27.22-.27.4-.09.45.09.71.53.8.44,0,.62-.26.53-.8-.09-.44-.35-.57-.8-.4ZM43.28,115.37c-.53.09-1.06.18-1.59.27l.13-.14c.18.18.53.66,1.06,1.46v1.2c.09.53.35.58.8.13.18-.17.18-.31,0-.4.35.35.09.05-.8-.93.09-.35.18-.93.27-1.72l.13.13ZM43.54,104.61l.27.13-.4-.13h.13ZM51.51,69.96h-.4c-.44-.09-.44-.17,0-.26,0,.09.04.18.13.26.62-.44.71-.44.26,0ZM75.41,46.73v.53c.18.09.31.05.4-.13v-.4h-.4Z"/>
      <path class="cls-1" d="M150.02,120.01c.44.35.75.84.93,1.46.35,1.24.44,2.39.27,3.45-.18,1.15-.8,2.12-1.86,2.92-.35.18-1.15.26-2.39.26-.98,0-1.42.49-1.33,1.46.18,1.16-.35,2.12-1.59,2.92-1.33.8-3.14,1.55-5.44,2.26-.35.18-2.61.84-6.77,1.99l-.53.26c-.98,0-2.74.22-5.31.66-2.21.35-3.98.58-5.31.66-.89,0-5.18.4-12.88,1.2-1.59.18-3.1,1.06-4.51,2.65-.18.27-.35.62-.53,1.06-.18.44-.27.84-.27,1.2-.09,1.59-.62,3.67-1.59,6.24-1.24,3.19-1.95,5.05-2.12,5.58-.18.89-.53,1.99-1.06,3.32.09-.26-.71.62-2.39,2.66-.97,1.24-1.19,2.52-.66,3.85l.13.53c.35.8.22,1.51-.4,2.12-.89.98-1.37,1.81-1.46,2.52-.09.62-.18.97-.27,1.06-.71,1.06-1.68,4.08-2.92,9.03-.71,3.1.48,5.58,3.58,7.44,1.68,1.06,3.67,1.77,5.97,2.12,1.77.35,4.16.66,7.17.93,2.3.18,4.65.18,7.04,0,1.15-.09,3.5-.35,7.04-.8,1.41-.18,2.26-.93,2.52-2.26.09-.27.18-.66.26-1.2-.09.26-.05-.09.13-1.06.09-.89.44-1.6,1.06-2.12.62-.45,1.55-1.15,2.79-2.12.62-.45,1.37-.66,2.26-.66,1.41-.09,2.43.35,3.05,1.32.8,1.16,1.64,2.48,2.52,3.98.8,1.33,1.64,2.88,2.52,4.65.53.97.75,2.12.66,3.45-.09,1.77-.49,3.89-1.19,6.37-.45,1.41-1.24,2.52-2.39,3.32-2.83,2.12-6.42,3.67-10.75,4.64-1.15.27-2.12.35-2.92.27-1.24-.09-2.35.18-3.32.8-.44.18-1.02.22-1.72.13-.62,0-2.21.05-4.78.13-5.13.09-9.07-.22-11.82-.93-3.19-.35-7.39-1.28-12.61-2.79-2.57-.8-4.78-1.64-6.64-2.52-1.15-.62-2.08-1.37-2.79-2.26-.35-.53-.57-.84-.66-.93-.8-1.41-2.34-3.45-4.65-6.11-3.01-3.36-3.98-7.21-2.92-11.55,1.86-7.35,3.9-13.54,6.11-18.58.62-1.41,1.77-4.12,3.45-8.1.35-.88.62-1.63.8-2.26.88-3.8,4.6-15.84,11.15-36.11.53-1.86,1.46-4.78,2.79-8.76,1.33-3.72,2.3-6.64,2.92-8.76.09-.09.97-3.32,2.66-9.69h.13l-.26.13c4.42-16.64,6.5-24.47,6.24-23.5,0-.09.05-.27.13-.53.35-1.68.18-3.23-.53-4.65-.35-.53-.31-1.06.13-1.59,1.77-2.3,2.61-3.41,2.52-3.32-.09.18.35-1.5,1.33-5.04,0-.09.18-1.28.53-3.58.18-1.06.53-2.17,1.06-3.32.27-.44.66-.88,1.2-1.33.53-.44,1.02-.8,1.46-1.06,2.3-1.15,5.58-2.43,9.82-3.85.97-.26,1.94-.17,2.92.27,1.41.62,2.52,1.46,3.32,2.52,1.24,1.68,1.99,3.23,2.26,4.65.09,1.06.8,1.64,2.12,1.72,1.24.09,2.04.14,2.39.14h8.23c13.28.09,19.78.13,19.52.13,1.59,0,4.16.31,7.7.93,1.15.18,2.83.66,5.04,1.46.44.18.97.49,1.59.93,2.74,1.86,3.54,4.43,2.39,7.7-.18.62-.58,1.42-1.2,2.39-.62,1.06-1.02,1.86-1.19,2.39-.18.53-.75,1.11-1.73,1.73-1.77,1.15-3.72,2.08-5.84,2.79-2.83,1.06-5.31,1.55-7.43,1.46-.8-.09-1.9-.13-3.32-.13-1.68,0-2.74-.05-3.19-.14-1.59,0-2.57-.13-2.92-.4.18.18-.4-.31-1.73-1.46-.71-.71-1.42-.75-2.12-.13-.88.71-1.77.84-2.65.4-.62-.44-1.37-.4-2.26.13-.97.53-1.9.76-2.79.66-4.34-.18-7.26-.48-8.76-.93-1.77-.35-3.54-.44-5.31-.26-.8.09-1.42.53-1.86,1.32-.35.62-.62,1.16-.8,1.6-1.77,5.22-2.92,8.58-3.45,10.09-.89,3.1-1.81,5.67-2.79,7.7-1.15,2.66-2.04,5.27-2.66,7.83-1.15,4.96-1.81,7.83-1.99,8.63-.35,2.12-.98,4.43-1.86,6.9-.26.98-.97,3.41-2.12,7.3-.18.44-.05.89.4,1.33s.88.62,1.33.53c.88-.17,1.28-.22,1.2-.13,1.33-.35,2.43-.66,3.32-.93,4.69-1.33,9.69-2.43,15-3.32,1.77-.26,3.89-.66,6.37-1.2,1.24-.35,2.17-1.11,2.79-2.26.35-.62.71-1.5,1.06-2.66.62-1.59,1.99-2.57,4.12-2.92.53-.09,1.11.05,1.73.4,1.06.53,1.72,1.46,1.99,2.79.09.18.18.97.27,2.39.09,1.15.18,2.12.27,2.92,0,.53-.13,1.06-.4,1.6.18-.27-.05.09-.66,1.06-.53.18-.89.31-1.06.4-.8.18-1.37.66-1.73,1.46l-.13.26c0,.09-.05.18-.13.27l-.13.53c-.27.53-.09,1.02.53,1.46.62.35,1.2.4,1.73.14.71-.35,1.11-.97,1.19-1.86,0,.09-.13-.84-.4-2.79.62.35.97.53,1.06.53ZM80.98,159.31v-.13c-.27.09-.45.13-.53.13l.13.4c.53-.09.66-.13.4-.13v-.26ZM84.04,163.43l.4.13c.09.71.13,1.11.13,1.2.09.18.22.26.4.26.53.09.75-.13.66-.66,0-.26-.09-.4-.27-.4-.09-.09-.44-.22-1.06-.4l-.27-.13ZM109.66,101.56l.4-.13-.4-.26v.4ZM137.14,125.85c.09.18-.09.22-.53.13v-.53c.27-.18.31,0,.13.53l.4-.13ZM139.93,54.96c-.8-.53-1.51-.53-2.12,0-.45.26-.45.58,0,.93.53.45,1.24.31,2.12-.4v-.53ZM138.07,128.64l-.26-.26v.4l.26-.13ZM141.92,118.42c-.53-.09-.71.09-.53.53.09.18.27.27.53.27l.27-.4-.27-.4ZM143.78,67.44c.18-.09.31-.27.4-.53,0-.44-.27-.62-.8-.53l-.26.4c0,.53.22.75.66.66ZM147.89,60.67l-.13-.4.27.26-.13.13ZM148.42,65.71c-.09,0-.09.14,0,.4.27-.09.44-.13.53-.13l-.13-.4-.4.13ZM156.13,66.51h.13-.13ZM160.11,59.21c-.62,1.15-.98,1.86-1.06,2.12-.09.09-.13.27-.13.53.09.26.18.45.27.53.44.18.8.05,1.06-.4.44-.88.35-1.77-.27-2.66l.13-.13ZM174.31,62.13c-.35-.26-.66-.26-.93,0-.09.18-.05.35.13.53.27.18.58.13.93-.13l-.13-.4Z"/>
      <path class="cls-1" d="M213.21,143.25c-1.68,4.07-3.14,7.92-4.38,11.55-.89,2.48-1.86,5.05-2.92,7.7-.26.62-.62,1.42-1.06,2.39-.53,1.15-.88,1.99-1.06,2.52-.26.45-.58,1.15-.93,2.12-.35,1.06-.62,1.81-.8,2.26.18-.35-.44,1.06-1.86,4.25-.53,1.24-1.19,2.21-1.99,2.92-.26.26-.4.62-.4,1.06-.09,1.24-.09,2.26,0,3.06.18,2.04-.26,4.12-1.33,6.24h-.13.27c-.44,1.15-1.33,2.08-2.66,2.79v-.14l.53,1.06c.27.71.35,1.28.27,1.72-.18.89-.35,1.68-.53,2.39-1.33,4.16-2.26,7.57-2.79,10.22-.18.98-.58,2.04-1.19,3.19-1.15,1.95-1.68,2.79-1.59,2.52-.88,1.95-2.21,3.63-3.98,5.05-3.1,2.65-4.43,3.8-3.98,3.45-.53.35-1.06.61-1.59.8-.44.09-.8-.05-1.06-.4-.53-.97-1.11-2.43-1.73-4.38-.09-.62-.13-1.2-.13-1.73.26-2.39.71-4.29,1.33-5.71.44-1.33,1.15-3.41,2.12-6.24.71-2.03,1.15-3.54,1.33-4.51.09-.62.53-2.12,1.33-4.51,1.5-4.69,2.57-8.67,3.19-11.95.44-2.03,1.11-3.62,1.99-4.78.09-.18.13-.4.13-.66,0-.09-.05-.27-.13-.53-.18-.88-.13-1.86.13-2.92,1.77-6.81,2.87-11.2,3.32-13.14.35-1.59,1.15-2.87,2.39-3.85.18-.09.31-.22.4-.4.09-.62.13-1.01.13-1.2-.89-1.41-1.02-2.87-.4-4.38.18-2.03.97-4.03,2.39-5.97l-.27.26.27-.26c-.09-.8,0-1.55.26-2.26.88-1.94,1.55-3.98,1.99-6.1.35-1.51.53-2.7.53-3.58.18-2.04.53-3.94,1.06-5.71.35-1.15.88-3.05,1.59-5.71.71-2.47,1.28-4.38,1.73-5.71.27-1.06.66-1.95,1.19-2.66.35-.62.53-1.15.53-1.59,0-1.41.35-3.76,1.06-7.04,1.41-6.46,2.26-10.09,2.52-10.88.27-.97.84-3.9,1.73-8.76.18-1.24.53-3.19,1.06-5.84.44-2.48.8-4.43,1.06-5.84,0-.17.22-.93.66-2.26.18-.53.53-.97,1.06-1.33.88-.53,1.11-1.19.66-1.99-.62-1.15-.93-2.43-.93-3.85,0-.18.18-1.77.53-4.78.09-.26.18-1.06.27-2.39,0-.97-.53-1.51-1.59-1.6h-1.19c-.89.18-1.64.4-2.26.66-1.59.53-3.72.8-6.37.8-.62,0-1.19-.09-1.73-.27-1.06-.26-2.21-.62-3.45-1.06-.18-.09-.53-.27-1.06-.53-.44-.27-.8-.4-1.06-.4-2.57-.7-6.55-2.87-11.95-6.5-.8-.53-1.68-1.28-2.65-2.26-1.51-1.59-1.91-3.41-1.2-5.44.18-.62.44-1.15.8-1.59,1.51-1.68,3.23-2.97,5.18-3.85,4.34-2.03,8.81-3.54,13.41-4.51,1.33-.35,2.26-.62,2.79-.8.88-.27,2.26-.53,4.12-.8,1.24-.18,1.99-.35,2.26-.53,1.33-.53,3.85-1.02,7.57-1.46,3.19-.35,5.13-.62,5.84-.8,3.8-.89,8.1-1.06,12.88-.53.71,0,1.5.09,2.39.26.62.09,1.41.05,2.39-.13,2.21-.44,3.94-.7,5.18-.8,3.01-.35,5.53-.18,7.57.53,2.74.97,5.66.97,8.76,0,1.24-.35,2.21-.58,2.92-.66,2.65-.27,6.86-1.2,12.61-2.79,2.83-.71,5.58-.93,8.23-.66,3.19.35,4.96.58,5.31.66,1.51.18,2.12,1.06,1.86,2.66-.18.88-.27,1.28-.27,1.19-.98,3.72-2.21,7.83-3.72,12.35-.26.97-.84,1.72-1.73,2.26-3.01,1.95-5.84,3.37-8.5,4.25-.62.26-1.46.58-2.52.93-1.15.45-1.95.76-2.39.93-1.24.44-1.99.66-2.26.66-1.15.18-3.85.88-8.1,2.12-3.1.88-7.97,2.43-14.6,4.64-.98.27-2.44.8-4.38,1.6-2.04.71-3.54,1.24-4.51,1.59-.18,0-.45.09-.8.26-.35.18-.62.31-.8.4-1.33.44-2.21,1.41-2.65,2.92-.18.8-.27,1.37-.27,1.72-.35,2.83-.89,7.97-1.59,15.4-.62,6.73-1.99,13.24-4.12,19.52-.35.89-.62,1.42-.8,1.6-.71.97-1.15,2.26-1.33,3.85-.09.89-.4,1.81-.93,2.79-.27.35-.35.71-.27,1.06.09.89-.13,2.26-.66,4.12-1.95,6.11-3.05,9.87-3.32,11.28-.18,1.16-.84,2.08-1.99,2.79-1.95,1.24-2.92,1.91-2.92,1.99-.27.27-.35.62-.27,1.06.09.44.48,1.11,1.19,1.99.53.8.62,1.72.27,2.79-.44,1.41-.98,2.48-1.59,3.18v-.13c-.18.97-1.15,3.54-2.92,7.7ZM186.39,204.45l-.27.13c-.44-.53-.58-.8-.4-.8.27.45.44.71.53.8l.13-.13ZM191.44,176.17c-.35-.44-.71-.44-1.06,0-.09.18-.09.31,0,.4.27.45.58.49.93.14l.13-.53ZM191.04,189.45l-.4.4c0,.09-.05.27-.13.53.18-.44.31-.75.4-.93h.13ZM195.29,180.55c-.09-.53-.53-.75-1.33-.66-.44,0-.71.18-.8.53-.27.62-.09,1.06.53,1.33h.53c.8-.09,1.15-.49,1.06-1.2ZM204.71,151.61c-.27.26-.27.58,0,.93.18.35.48.45.93.27.35-.18.57-.45.66-.8,0-.35-.22-.66-.66-.93-.35,0-.66.18-.93.53ZM206.57,32.66c-.26-.35-.62-.53-1.06-.53-.35.09-.35.26,0,.53.27.18.62.13,1.06-.13.09,1.42.27,2.52.53,3.32h-.13c.09-.27-.05-1.33-.4-3.19ZM205.51,147.09l-.13.4.4.13c.27-.44.18-.62-.27-.53ZM205.78,128.64v.26l.4-.13-.4-.13ZM207.9,118.29c-.09-.17-.22-.26-.4-.26-.44-.09-.66.09-.66.53.09.53.35.75.8.66.44-.18.53-.49.27-.93ZM210.29,110.45c-.35-.35-.66-.31-.93.13-.18.18-.31.53-.4,1.06,0,.18.09.31.27.4.35.35.66.35.93,0,.09-.09.22-.48.4-1.19l-.27-.4ZM212.68,123.07l-.27-.26.27.13v.13ZM215.47,105.81c-.18.09-.27.22-.27.4-.09.45.09.71.53.8.44,0,.62-.26.53-.8-.09-.44-.35-.57-.8-.4ZM219.45,115.37c-.53.09-1.06.18-1.59.27l.13-.14c.18.18.53.66,1.06,1.46v1.2c.09.53.35.58.8.13.18-.17.18-.31,0-.4.35.35.09.05-.8-.93.09-.35.18-.93.27-1.72l.13.13ZM219.72,104.61l.27.13-.4-.13h.13ZM227.68,69.96h-.4c-.44-.09-.44-.17,0-.26,0,.09.04.18.13.26.62-.44.71-.44.26,0ZM251.58,46.73v.53c.18.09.31.05.4-.13v-.4h-.4Z"/>
      <path class="cls-1" d="M326.19,120.01c.44.35.75.84.93,1.46.35,1.24.44,2.39.27,3.45-.18,1.15-.8,2.12-1.86,2.92-.35.18-1.15.26-2.39.26-.98,0-1.42.49-1.33,1.46.18,1.16-.35,2.12-1.59,2.92-1.33.8-3.14,1.55-5.44,2.26-.35.18-2.61.84-6.77,1.99l-.53.26c-.98,0-2.74.22-5.31.66-2.21.35-3.98.58-5.31.66-.89,0-5.18.4-12.88,1.2-1.59.18-3.1,1.06-4.51,2.65-.18.27-.35.62-.53,1.06-.18.44-.27.84-.27,1.2-.09,1.59-.62,3.67-1.59,6.24-1.24,3.19-1.95,5.05-2.12,5.58-.18.89-.53,1.99-1.06,3.32.09-.26-.71.62-2.39,2.66-.97,1.24-1.19,2.52-.66,3.85l.13.53c.35.8.22,1.51-.4,2.12-.89.98-1.37,1.81-1.46,2.52-.09.62-.18.97-.27,1.06-.71,1.06-1.68,4.08-2.92,9.03-.71,3.1.48,5.58,3.58,7.44,1.68,1.06,3.67,1.77,5.97,2.12,1.77.35,4.16.66,7.17.93,2.3.18,4.65.18,7.04,0,1.15-.09,3.5-.35,7.04-.8,1.41-.18,2.26-.93,2.52-2.26.09-.27.18-.66.26-1.2-.09.26-.05-.09.13-1.06.09-.89.44-1.6,1.06-2.12.62-.45,1.55-1.15,2.79-2.12.62-.45,1.37-.66,2.26-.66,1.41-.09,2.43.35,3.05,1.32.8,1.16,1.64,2.48,2.52,3.98.8,1.33,1.64,2.88,2.52,4.65.53.97.75,2.12.66,3.45-.09,1.77-.49,3.89-1.19,6.37-.45,1.41-1.24,2.52-2.39,3.32-2.83,2.12-6.42,3.67-10.75,4.64-1.15.27-2.12.35-2.92.27-1.24-.09-2.35.18-3.32.8-.44.18-1.02.22-1.72.13-.62,0-2.21.05-4.78.13-5.13.09-9.07-.22-11.82-.93-3.19-.35-7.39-1.28-12.61-2.79-2.57-.8-4.78-1.64-6.64-2.52-1.15-.62-2.08-1.37-2.79-2.26-.35-.53-.57-.84-.66-.93-.8-1.41-2.34-3.45-4.65-6.11-3.01-3.36-3.98-7.21-2.92-11.55,1.86-7.35,3.9-13.54,6.11-18.58.62-1.41,1.77-4.12,3.45-8.1.35-.88.62-1.63.8-2.26.88-3.8,4.6-15.84,11.15-36.11.53-1.86,1.46-4.78,2.79-8.76,1.33-3.72,2.3-6.64,2.92-8.76.09-.09.97-3.32,2.66-9.69h.13l-.26.13c4.42-16.64,6.5-24.47,6.24-23.5,0-.09.05-.27.13-.53.35-1.68.18-3.23-.53-4.65-.35-.53-.31-1.06.13-1.59,1.77-2.3,2.61-3.41,2.52-3.32-.09.18.35-1.5,1.33-5.04,0-.09.18-1.28.53-3.58.18-1.06.53-2.17,1.06-3.32.27-.44.66-.88,1.2-1.33.53-.44,1.02-.8,1.46-1.06,2.3-1.15,5.58-2.43,9.82-3.85.97-.26,1.94-.17,2.92.27,1.41.62,2.52,1.46,3.32,2.52,1.24,1.68,1.99,3.23,2.26,4.65.09,1.06.8,1.64,2.12,1.72,1.24.09,2.04.14,2.39.14h8.23c13.28.09,19.78.13,19.52.13,1.59,0,4.16.31,7.7.93,1.15.18,2.83.66,5.04,1.46.44.18.97.49,1.59.93,2.74,1.86,3.54,4.43,2.39,7.7-.18.62-.58,1.42-1.2,2.39-.62,1.06-1.02,1.86-1.2,2.39s-.75,1.11-1.72,1.73c-1.77,1.15-3.72,2.08-5.84,2.79-2.83,1.06-5.31,1.55-7.43,1.46-.8-.09-1.9-.13-3.32-.13-1.68,0-2.74-.05-3.19-.14-1.59,0-2.57-.13-2.92-.4.18.18-.4-.31-1.73-1.46-.71-.71-1.42-.75-2.12-.13-.88.71-1.77.84-2.65.4-.62-.44-1.37-.4-2.26.13-.97.53-1.9.76-2.79.66-4.34-.18-7.26-.48-8.76-.93-1.77-.35-3.54-.44-5.31-.26-.8.09-1.42.53-1.86,1.32-.35.62-.62,1.16-.8,1.6-1.77,5.22-2.92,8.58-3.45,10.09-.89,3.1-1.81,5.67-2.79,7.7-1.15,2.66-2.04,5.27-2.66,7.83-1.15,4.96-1.81,7.83-1.99,8.63-.35,2.12-.98,4.43-1.86,6.9-.26.98-.97,3.41-2.12,7.3-.18.44-.05.89.4,1.33s.88.62,1.33.53c.88-.17,1.28-.22,1.2-.13,1.33-.35,2.43-.66,3.32-.93,4.69-1.33,9.69-2.43,15-3.32,1.77-.26,3.89-.66,6.37-1.2,1.24-.35,2.17-1.11,2.79-2.26.35-.62.71-1.5,1.06-2.66.62-1.59,1.99-2.57,4.12-2.92.53-.09,1.11.05,1.73.4,1.06.53,1.72,1.46,1.99,2.79.09.18.18.97.27,2.39.09,1.15.18,2.12.27,2.92,0,.53-.13,1.06-.4,1.6.18-.27-.05.09-.66,1.06-.53.18-.89.31-1.06.4-.8.18-1.37.66-1.73,1.46l-.13.26c0,.09-.05.18-.13.27l-.13.53c-.27.53-.09,1.02.53,1.46.62.35,1.2.4,1.73.14.71-.35,1.11-.97,1.19-1.86,0,.09-.13-.84-.4-2.79.62.35.97.53,1.06.53ZM257.15,159.31v-.13c-.27.09-.45.13-.53.13l.13.4c.53-.09.66-.13.4-.13v-.26ZM260.21,163.43l.4.13c.09.71.13,1.11.13,1.2.09.18.22.26.4.26.53.09.75-.13.66-.66,0-.26-.09-.4-.27-.4-.09-.09-.44-.22-1.06-.4l-.27-.13ZM285.83,101.56l.4-.13-.4-.26v.4ZM313.31,125.85c.09.18-.09.22-.53.13v-.53c.27-.18.31,0,.13.53l.4-.13ZM316.1,54.96c-.8-.53-1.51-.53-2.12,0-.45.26-.45.58,0,.93.53.45,1.24.31,2.12-.4v-.53ZM314.24,128.64l-.26-.26v.4l.26-.13ZM318.09,118.42c-.53-.09-.71.09-.53.53.09.18.27.27.53.27l.27-.4-.27-.4ZM319.95,67.44c.18-.09.31-.27.4-.53,0-.44-.27-.62-.8-.53l-.26.4c0,.53.22.75.66.66ZM324.06,60.67l-.13-.4.27.26-.13.13ZM324.6,65.71c-.09,0-.09.14,0,.4.27-.09.44-.13.53-.13l-.13-.4-.4.13ZM332.3,66.51h.13-.13ZM336.28,59.21c-.62,1.15-.98,1.86-1.06,2.12-.09.09-.13.27-.13.53.09.26.18.45.27.53.44.18.8.05,1.06-.4.44-.88.35-1.77-.27-2.66l.13-.13ZM350.48,62.13c-.35-.26-.66-.26-.93,0-.09.18-.05.35.13.53.27.18.58.13.93-.13l-.14-.4Z"/>
      <path class="cls-1" d="M400.14,184.14c-.45-.62-.76-1.28-.94-1.99,0-.09-.08-.66-.26-1.72h.4c.17-.18.22-.31.14-.4-.35-.17-.54,0-.54.53l-1.19-.13c-.89,0-1.51.4-1.86,1.2l-.54,1.06.14-.13c-.97.62-1.51,1.33-1.59,2.12,0,.26-.09.97-.27,2.12h-2.52c.45-1.41.35-2.83-.26-4.25l.79-1.59c.54-.97.27-1.46-.79-1.46-.8.09-1.37.18-1.73.26-.53.09-.66.4-.4.93.27.62,1.02,1.2,2.27,1.73-.35,1.51-.32,3.01.13,4.51.8-.44,1.64-.49,2.52-.13,1.06.35,1.77,1.28,2.13,2.79.08.53-.05,1.06-.4,1.59l.14-.13c-.45.62-.97,1.15-1.59,1.59-.54.45-1.06.58-1.6.4-.08,0-.62-.22-1.59-.66l-.13.13v-1.46l.13.13c.18-.62.31-.93.4-.93.09-.53-.09-.8-.53-.8-.26,0-.45.09-.54.26-.08.09-.31.58-.66,1.46v-.13c-.97.09-2.16.58-3.58,1.46-.62.35-.79.84-.53,1.46.09.53.48.84,1.19.93h1.73-.14c.45.97.66,1.51.66,1.59.18.44.18.8,0,1.06-.97,1.86-2.16,3.41-3.58,4.65-1.86,1.59-4.38,3.45-7.57,5.58-.08-.44-.31-.66-.66-.66-.26,0-.31.13-.13.4.17.27.48.31.93.14l-2.39,1.72c-4.16,2.83-8.94,4.52-14.34,5.04-2.57.18-5.18-.48-7.83-1.99-.26-.09-.62-.26-1.06-.53-.45-.35-.75-.58-.93-.66-.53-.27-1.11-.44-1.72-.53-1.68-.18-2.48-.22-2.39-.13-2.74-1.51-3.94-2.12-3.59-1.86-.53-.44-.84-.7-.93-.8-1.95-2.12-3.63-4.29-5.04-6.5-.8-1.15-1.11-2.43-.93-3.85.35-2.39,1.06-4.47,2.12-6.24,1.06-1.77,1.59-2.96,1.59-3.58.98-1.59,1.82-4.03,2.52-7.3.26-.88.84-2.52,1.73-4.91,3.27-9.03,5.66-16.11,7.17-21.24,0-.18.44-1.51,1.32-3.98.62-1.86,1.42-3.19,2.39-3.98.35-.26.54-.57.54-.93-.09-.97.13-1.95.66-2.92.79-1.6,1.27-3.45,1.46-5.58.09-.62.22-1.59.4-2.92.17-1.41.48-2.57.93-3.45.88-1.51,1.46-3.14,1.73-4.91.17-.89.62-1.99,1.33-3.32.62-1.06,1.19-2.12,1.72-3.19.35-.7.54-1.24.54-1.59.08-1.06.79-3.32,2.12-6.77-.17.35-.13.71.14,1.06.17.45.48.53.93.26.09,0,.22-.09.4-.26.26-.44.17-.8-.26-1.06l-1.06-.14c1.15-4.95,1.81-7.83,1.99-8.63.26-1.15.35-1.95.26-2.39-.26-1.15-.14-2.87.4-5.18.44-2.21,1.19-5.84,2.26-10.88,1.06-4.78,1.9-8.45,2.52-11.02,2.57-11.06,4.16-17.92,4.78-20.58,1.06-4.07,2.26-7.83,3.58-11.28.17-.53.53-1.2,1.06-1.99.27-.44.58-.71.94-.8,1.5-.27,3.23-.53,5.18-.8.26-.09.66-.05,1.19.13.71.18,1.24.35,1.59.53.26.09.62.27,1.06.53.53.27.88.45,1.06.53,3.8,1.86,7.21,2.66,10.22,2.39h1.19c3.09-.09,5.89.62,8.36,2.12,4.17,2.66,6.69,4.21,7.57,4.65,1.68.89,3.32,2.26,4.91,4.12,1.42,1.59,2.3,3.1,2.66,4.51.26.89.45,1.46.54,1.73.96,1.95,1.5,4.83,1.59,8.63.08,2.12-.45,4.38-1.59,6.77-.89,1.68-1.6,2.87-2.13,3.58.45-.62-.53,1.06-2.92,5.04l-.26-.13h.4c-.71,1.15-2.39,3.37-5.05,6.64-.45.62-1.37,1.77-2.79,3.45-1.15,1.42-2.07,2.52-2.78,3.32-1.16,1.41-2.39,2.7-3.72,3.85-3.54,2.75-6.1,4.56-7.7,5.44.08-.09-.4.27-1.46,1.06-.62.53-.62,1.06,0,1.59.8.71,1.24,1.11,1.33,1.2,1.95,1.33,4.08,3.1,6.38,5.31,1.86,1.68,3.18,2.83,3.98,3.45,1.67,1.42,3.05,3.1,4.11,5.04.17.35.62,1.2,1.33,2.52.62,1.06,1.11,1.95,1.46,2.66,1.06,1.95,1.67,3.98,1.86,6.1.26,2.83.31,5.58.13,8.23-.17,2.3-.22,4.29-.13,5.98.17,2.04-.05,3.98-.66,5.84-.18.71-.31,1.24-.4,1.59-.18,1.06-.66,2.17-1.46,3.32-.98,1.51-2.17,3.27-3.59,5.31-1.32,2.03-2.12,3.58-2.38,4.64-.09.27-.49.98-1.2,2.12-.88,1.24-2.07,1.73-3.58,1.46-.79-.09-1.15.27-1.06,1.06v.53c.17,1.24-.32,2.08-1.46,2.52-.26.09-.57.27-.93.53-.09.09-.18.26-.26.53-.35,1.24-1.16,2.04-2.39,2.39-.45.18-.71.45-.8.8-.08.35-.79,1.51-2.12,3.45h.14ZM340.26,199.27c-.09.26-.13.44-.13.53l.13.26c.18-.26.13-.53-.13-.8h.13ZM347.56,198.87c-1.06.62-1.06,1.33,0,2.12.62.45,1.11.4,1.46-.13.18-.35.18-.71,0-1.06l-1.06-1.33c.53-.53.84-.8.93-.8.44-.53.35-.75-.26-.66-.09,0-.18.18-.26.53,0,.09-.09.45-.27,1.06l-.53.26ZM352.21,164.36v.4l.53-.14-.53-.26ZM355.39,169.8c-.09-.35-.31-.58-.66-.66-.45-.18-.76-.09-.93.26-.45.62-.71,1.11-.8,1.46-.08.18-.13.53-.13,1.06,0,.8.4,1.02,1.19.66.8-.35,1.28-1.06,1.46-2.12,0-.35-.05-.58-.14-.66ZM356.2,199.27c-.54-.97-1.33-1.15-2.39-.53-.35.18-.53.49-.53.93.08,1.24.7,2.12,1.86,2.66,1.06.62,1.59.31,1.59-.93.09-.71-.09-1.41-.53-2.12ZM356.99,162.9c-.17-.35-.48-.4-.93-.13-.35.26-.4.53-.13.8.35.26.66.22.93-.13.17-.18.22-.35.13-.53ZM358.85,194.62l.26-.13c-1.42,1.06-2.22,1.64-2.39,1.72-.26.27-.26.62,0,1.06.53.8,1.15,1.24,1.86,1.33,3.37.09,6.73-.88,10.1-2.92,2.12-1.24,4.59-3.14,7.43-5.71.44-.35,1.1-.97,1.99-1.86.88-.71,1.55-1.28,1.99-1.73l-.14.14c1.68-2.3,4.29-5.18,7.83-8.63.35-.35.93-.53,1.73-.53.26,0,.62-.05,1.06-.14.79-.17,1.01-.62.66-1.33-.35-.88-.32-1.63.13-2.26,1.86-2.47,2.7-3.58,2.53-3.32,1.5-1.95,2.52-4.21,3.05-6.77,0-.18.31-1.33.93-3.45.89-3.45,2.53-6.24,4.91-8.36l-.13.26v-.13c.08-.62.31-1.2.66-1.72.53-.71,1.15-1.11,1.86-1.2,1.06-.09,1.42-.62,1.06-1.59-.26-.8-.23-1.73.13-2.79.09-.27.23-.58.4-.93.18-.35.31-.61.4-.8.26-.8.4-1.33.4-1.59.35-2.92.31-5.26-.14-7.04-.17-.62-.53-2.08-1.06-4.38-.35-1.77-.71-3.19-1.06-4.25-.8-3.1-2.57-5.31-5.31-6.64-.18-.09-.53-.26-1.06-.53-7.7-3.37-11.46-5-11.28-4.91-1.95-.89-3.81-1.51-5.58-1.86-.63-.09-1.2.09-1.73.53-1.16.97-1.86,2.08-2.13,3.32-.44,1.68-.71,2.66-.79,2.92-.18,1.32-.54,3.14-1.06,5.44-.62,2.66-1.02,4.47-1.19,5.44-.54,2.48-1.06,4.38-1.59,5.71-.54,1.42-.98,3.5-1.33,6.24-.09.26-.18.76-.27,1.46,0,.62-.05,1.11-.13,1.46-.35,1.95-.93,3.63-1.73,5.04-.17,0-.22-.04-.13-.13l.13,1.73c-1.86,8.41-3.14,13.94-3.85,16.59-1.24,5.05-2.44,8.54-3.58,10.49-.26.62-.49,1.6-.66,2.92-.62,4.96-1.64,9.51-3.06,13.68l-.13.13ZM362.44,147.23c-.09-.27-.23-.45-.4-.53-.35-.18-.71-.13-1.06.13-.79.71-1.55,2.04-2.26,3.98v.66c.09.44.31.71.66.8.17,0,.35-.05.53-.13.27-.09.45-.18.54-.27,1.33-1.33,2.03-2.7,2.12-4.12l-.13-.53ZM360.44,210.69c-.09.62.08.71.53.26l-.13-.4-.4.13ZM364.03,208.96c-.26-.35-.54-.35-.8,0-.09.18-.09.35,0,.53.35.27.66.22.93-.13l-.13-.4ZM371.2,118.55c-.09-.09-.26-.09-.53,0-1.25.53-1.73,1.41-1.46,2.65.17.53.48.66.93.4.8-.35,1.33-1.01,1.59-1.99.09-.53-.09-.88-.53-1.06ZM373.05,205.24c-.71-.09-1.11-.13-1.19-.13-.18,0-.31.13-.4.4-.18.35-.05.62.4.8.17,0,.35-.05.53-.13.35-.18.54-.49.54-.93h.13ZM373.71,112.98c.35-.35.4-.71.14-1.06-.26-.35-.58-.44-.93-.26-.18.09-.35.18-.54.26-.35.27-.4.58-.13.93,0,.09.17.22.53.4.35.09.66,0,.93-.26ZM372.26,116.16l.13-.26-.26-.13.14.4ZM372.92,86.43c-.27.89,0,1.33.79,1.33.62,0,1.06-.31,1.33-.93.35-.7.09-1.11-.79-1.19-.63,0-1.06.26-1.33.8ZM373.45,93.2l-.14.26.27.13-.14-.4ZM373.98,83.64c0,.45.18.71.54.8.44.09.79-.05,1.06-.4.35-.8.04-1.2-.94-1.2-.44.09-.66.35-.66.8ZM378.5,97.58c.17,0,.26-.13.26-.4.08-.53-.14-.7-.66-.53l-.4.4c.09.45.35.62.8.53ZM379.55,83.37h.14-.14ZM381.28,88.95l.53-.27-.53-.26v.53ZM384.08,79.92c.35.35.57.26.66-.27,0-.18-.09-.31-.27-.4-.08,0-.22.09-.39.26v.4ZM414.48,57.35c-.18-.8-.66-1.41-1.46-1.86-.79-.53-1.5-.66-2.12-.4-.45.18-1.11.45-1.99.8-.8.45-1.42.76-1.86.93-2.12.8-3.45,1.19-3.98,1.19-.71.09-1.77.53-3.19,1.33-1.15.62-1.99,1.42-2.52,2.39-1.06,2.04-1.42,2.74-1.06,2.12-2.38,4.07-4.07,8.05-5.04,11.95-.8,1.68-1.91,5.66-3.32,11.95,0,.18-.05.35-.14.53,0,1.51.26,2.39.8,2.65.53.27,1.41.05,2.66-.66.97-.53,1.95-1.19,2.92-1.99,1.15-.89,2.52-2.04,4.11-3.45.54-.53,1.46-1.41,2.79-2.66,1.15-1.06,2.07-1.9,2.78-2.52,1.42-1.24,2.97-3.05,4.65-5.44,2.39-3.37,4.34-7.44,5.84-12.22,0-.09.14-1.01.4-2.79-.18-1.15-.26-1.77-.26-1.86ZM388.19,194.62l-.14.27h.14v-.27ZM390.71,192.37c-.44-.44-.88-.88-1.33-1.33v.13h1.33l-.13-.13v1.46l.13-.13ZM394.03,108.2l-.26.13.26-.26v.13ZM395.62,183.08l.4.26c-.18.35-.35.26-.53-.26.08.09.08-.09,0-.53l-.14.13c.18.18.26.31.26.4ZM396.82,177.5c0,.44.17.71.53.8.88.26,1.33.05,1.33-.66,0-.44-.22-.71-.66-.8l-.53-.13c-.45.18-.66.44-.66.8ZM399.87,167.01c0,.26.09.4.27.4.44.18.7.05.79-.4l-.4-.4c-.44-.09-.66.05-.66.4ZM401.33,97.84c.08-.18.08-.35,0-.53-.18-.44-.45-.53-.8-.26-.08.09-.13.22-.13.4,0,.44.17.66.53.66l.4-.27ZM404.65,173.52h-.26c-1.06-.18-1.73-.22-1.99-.13l-.14-.13c.97.18,1.73.26,2.26.26h.14ZM408.5,164.09c0-.53-.14-.89-.4-1.06-.45-.26-.76-.18-.93.26-.09.27,0,.45.26.53.18,0,.54.05,1.06.13v.14ZM408.36,84.43c-.17-.09-.35-.13-.53-.13-.26.09-.45.18-.53.26-.27.45-.18.76.26.93.17.09.35.13.53.13.26-.09.71-.49,1.33-1.2.45,0,.54-.09.26-.26-.17.35-.22.49-.13.4-.71-.09-1.11-.13-1.2-.13ZM409.83,144.57c-.18.44-.09.8.26,1.06.45.53.93.62,1.46.27.17-.09.26-.27.26-.53,0-.97-.54-1.37-1.59-1.2l-.4.4ZM412.75,160.24c.09-.35-.09-.62-.53-.8-.27-.09-.63-.18-1.06-.26-.18,0-.31.09-.4.26-.26.35-.22.66.14.93.08,0,.44.13,1.06.4.45.09.71-.09.8-.53ZM410.89,150.95l-.14-.13.14-.14v.27ZM411.68,154.66l.14-.53c-.26-.44-.49-.44-.66,0-.09.18-.05.31.13.4l.4.13ZM418.99,144.97c.35-.17.48-.48.4-.93,0-.26-.14-.4-.4-.4-1.24-.26-2.39-.84-3.45-1.72-.63-.44-1.11-.26-1.46.53-.53,1.41-.22,2.21.93,2.39.09,0,1.02.13,2.79.4.7-.18,1.1-.27,1.19-.27ZM417.13,151.21c.08.27.13.49.13.66.18.45.49.62.93.53.35-.09.49-.4.4-.93-.09-.53-.45-1.15-1.06-1.86.09-.09.27-.13.54-.13-.18-.09-.18-.13,0-.13l-.4.26c-.45.53-.62,1.06-.53,1.59ZM421.51,52.57l-.26-.14h.26v.14Z"/>
      <path class="cls-1" d="M507.54,120.01c.44.35.75.84.93,1.46.35,1.24.44,2.39.26,3.45-.18,1.15-.8,2.12-1.86,2.92-.35.18-1.15.26-2.39.26-.97,0-1.41.49-1.33,1.46.18,1.16-.35,2.12-1.59,2.92-1.33.8-3.14,1.55-5.44,2.26-.35.18-2.61.84-6.77,1.99l-.53.26c-.97,0-2.74.22-5.31.66-2.21.35-3.98.58-5.31.66-.89,0-5.18.4-12.88,1.2-1.6.18-3.1,1.06-4.52,2.65-.18.27-.35.62-.53,1.06s-.26.84-.26,1.2c-.09,1.59-.62,3.67-1.59,6.24-1.24,3.19-1.95,5.05-2.12,5.58-.18.89-.53,1.99-1.06,3.32.09-.26-.71.62-2.39,2.66-.98,1.24-1.2,2.52-.66,3.85l.13.53c.35.8.22,1.51-.4,2.12-.88.98-1.37,1.81-1.46,2.52-.09.62-.18.97-.26,1.06-.71,1.06-1.68,4.08-2.92,9.03-.71,3.1.49,5.58,3.58,7.44,1.68,1.06,3.67,1.77,5.97,2.12,1.77.35,4.16.66,7.17.93,2.3.18,4.64.18,7.04,0,1.15-.09,3.49-.35,7.04-.8,1.41-.18,2.26-.93,2.52-2.26.09-.27.18-.66.27-1.2-.09.26-.05-.09.13-1.06.09-.89.44-1.6,1.06-2.12.62-.45,1.55-1.15,2.79-2.12.62-.45,1.37-.66,2.26-.66,1.41-.09,2.43.35,3.05,1.32.8,1.16,1.64,2.48,2.52,3.98.8,1.33,1.63,2.88,2.52,4.65.53.97.75,2.12.66,3.45-.09,1.77-.49,3.89-1.2,6.37-.44,1.41-1.24,2.52-2.39,3.32-2.83,2.12-6.42,3.67-10.75,4.64-1.16.27-2.12.35-2.92.27-1.24-.09-2.34.18-3.32.8-.45.18-1.02.22-1.73.13-.62,0-2.21.05-4.78.13-5.13.09-9.07-.22-11.81-.93-3.19-.35-7.39-1.28-12.61-2.79-2.57-.8-4.78-1.64-6.64-2.52-1.15-.62-2.08-1.37-2.79-2.26-.35-.53-.57-.84-.66-.93-.8-1.41-2.34-3.45-4.64-6.11-3.01-3.36-3.98-7.21-2.92-11.55,1.86-7.35,3.9-13.54,6.11-18.58.62-1.41,1.77-4.12,3.45-8.1.35-.88.62-1.63.8-2.26.89-3.8,4.6-15.84,11.15-36.11.53-1.86,1.46-4.78,2.79-8.76,1.33-3.72,2.3-6.64,2.92-8.76.09-.09.97-3.32,2.66-9.69h.13l-.26.13c4.43-16.64,6.5-24.47,6.24-23.5,0-.09.04-.27.13-.53.35-1.68.18-3.23-.53-4.65-.35-.53-.31-1.06.13-1.59,1.77-2.3,2.61-3.41,2.52-3.32-.09.18.35-1.5,1.33-5.04,0-.09.18-1.28.53-3.58.17-1.06.53-2.17,1.06-3.32.26-.44.66-.88,1.2-1.33.53-.44,1.01-.8,1.46-1.06,2.3-1.15,5.58-2.43,9.82-3.85.97-.26,1.95-.17,2.92.27,1.41.62,2.52,1.46,3.32,2.52,1.24,1.68,1.99,3.23,2.26,4.65.09,1.06.8,1.64,2.12,1.72,1.24.09,2.03.14,2.39.14h8.23c13.28.09,19.78.13,19.52.13,1.59,0,4.16.31,7.7.93,1.15.18,2.83.66,5.04,1.46.44.18.97.49,1.59.93,2.74,1.86,3.54,4.43,2.39,7.7-.18.62-.58,1.42-1.2,2.39-.62,1.06-1.02,1.86-1.2,2.39s-.75,1.11-1.72,1.73c-1.77,1.15-3.72,2.08-5.84,2.79-2.83,1.06-5.31,1.55-7.44,1.46-.8-.09-1.91-.13-3.32-.13-1.68,0-2.74-.05-3.18-.14-1.59,0-2.57-.13-2.92-.4.17.18-.4-.31-1.73-1.46-.71-.71-1.41-.75-2.12-.13-.89.71-1.77.84-2.66.4-.62-.44-1.37-.4-2.26.13-.97.53-1.91.76-2.79.66-4.34-.18-7.26-.48-8.76-.93-1.77-.35-3.54-.44-5.31-.26-.8.09-1.41.53-1.86,1.32-.35.62-.62,1.16-.8,1.6-1.77,5.22-2.92,8.58-3.45,10.09-.88,3.1-1.81,5.67-2.79,7.7-1.15,2.66-2.03,5.27-2.65,7.83-1.15,4.96-1.81,7.83-1.99,8.63-.35,2.12-.98,4.43-1.86,6.9-.26.98-.97,3.41-2.12,7.3-.18.44-.05.89.4,1.33.44.44.88.62,1.33.53.88-.17,1.28-.22,1.19-.13,1.33-.35,2.43-.66,3.32-.93,4.69-1.33,9.69-2.43,15-3.32,1.77-.26,3.89-.66,6.37-1.2,1.24-.35,2.17-1.11,2.79-2.26.35-.62.71-1.5,1.06-2.66.62-1.59,1.99-2.57,4.12-2.92.53-.09,1.11.05,1.72.4,1.06.53,1.73,1.46,1.99,2.79.09.18.18.97.27,2.39.09,1.15.17,2.12.26,2.92,0,.53-.13,1.06-.4,1.6.18-.27-.05.09-.66,1.06-.53.18-.88.31-1.06.4-.8.18-1.37.66-1.73,1.46l-.13.26c0,.09-.05.18-.13.27l-.13.53c-.27.53-.09,1.02.53,1.46.61.35,1.19.4,1.72.14.71-.35,1.11-.97,1.2-1.86,0,.09-.13-.84-.4-2.79.62.35.97.53,1.06.53ZM438.5,159.31v-.13c-.26.09-.44.13-.53.13l.13.4c.53-.09.66-.13.4-.13v-.26ZM441.56,163.43l.4.13c.09.71.13,1.11.13,1.2.09.18.22.26.4.26.53.09.75-.13.66-.66,0-.26-.09-.4-.26-.4-.09-.09-.45-.22-1.06-.4l-.26-.13ZM467.18,101.56l.4-.13-.4-.26v.4ZM494.66,125.85c.09.18-.09.22-.53.13v-.53c.26-.18.31,0,.13.53l.4-.13ZM497.45,54.96c-.8-.53-1.51-.53-2.12,0-.44.26-.44.58,0,.93.53.45,1.24.31,2.12-.4v-.53ZM495.59,128.64l-.27-.26v.4l.27-.13ZM499.44,118.42c-.53-.09-.71.09-.53.53.09.18.27.27.53.27l.27-.4-.27-.4ZM501.3,67.44c.18-.09.31-.27.4-.53,0-.44-.26-.62-.8-.53l-.26.4c0,.53.22.75.66.66ZM505.42,60.67l-.14-.4.27.26-.13.13ZM505.95,65.71c-.09,0-.09.14,0,.4.27-.09.45-.13.53-.13l-.13-.4-.4.13ZM513.65,66.51h.14-.14ZM517.63,59.21c-.62,1.15-.97,1.86-1.06,2.12-.09.09-.14.27-.14.53.09.26.18.45.27.53.44.18.8.05,1.06-.4.44-.88.35-1.77-.26-2.66l.13-.13ZM531.83,62.13c-.35-.26-.66-.26-.93,0-.09.18-.05.35.13.53.27.18.58.13.93-.13l-.14-.4Z"/>
      <path class="cls-1" d="M524.27,174.05c-1.51,4.96-2.35,7.79-2.52,8.5-.62,1.86-.93,3.41-.93,4.65v.53c-.44,5.13-1.86,10.01-4.25,14.6-.8,1.59-1.41,3.05-1.86,4.38-.71,2.83-2.35,6.42-4.91,10.76-1.15,2.03-3.1,3.14-5.84,3.32h-1.19c-.62-.09-1.02-.13-1.2-.13-1.59,0-2.83.49-3.72,1.46-.09.09-.45.27-1.06.53-1.24.62-2.08.26-2.52-1.06-.17-.53-.26-.89-.26-1.06-.18-.97-.22-3.14-.13-6.5,0-.35.09-.75.26-1.2.8-2.3,1.15-3.41,1.06-3.32-.27.35-.05-.57.66-2.79,0-.26.4-1.37,1.19-3.32l.4-.14-.53.14c.09-3.1.18-4.87.27-5.31,0-1.33.26-2.48.8-3.45.35-.88.57-2.03.66-3.45v-1.72c.18-1.15.49-2.08.93-2.79,1.68-2.92,2.88-5.4,3.58-7.44.26-.7.71-1.37,1.33-1.99.89-.62,1.37-1.46,1.46-2.52.35-3.63,1.28-7.83,2.79-12.61,1.77-5.22,2.92-9.21,3.45-11.95l1.59-5.04c.45-1.33-.04-2.04-1.46-2.12-.62-.09-1.2-.14-1.72-.14.53,0-.09.09-1.86.27-.53,0-.97-.35-1.33-1.06-.26-.7-.26-1.28,0-1.72.53-.8,1.06-1.37,1.59-1.73.71-.53,2.17-1.55,4.38-3.05,3.54-2.39,5-3.36,4.38-2.92,1.51-1.06,2.39-2.35,2.66-3.85,0-.17.04-.44.13-.8.09-.35.18-.66.26-.93.18-1.68.75-3.54,1.73-5.58.17-.53.66-1.81,1.46-3.85.09-.44.4-1.41.93-2.92.35-1.15.66-2.08.93-2.79,1.15-3.18,2.39-6.5,3.72-9.96.18-.35.57-1.24,1.19-2.66.45-1.15.8-2.08,1.06-2.79-.26.89.18-1.01,1.33-5.71.35-1.06.7-2.21,1.06-3.45.62-1.59,1.99-6.1,4.12-13.54.8-2.74,1.33-5.27,1.59-7.57.18-2.3.71-4.38,1.6-6.24.18-.44.57-1.72,1.19-3.85.27-.97.58-1.73.93-2.26.53-.62.88-1.51,1.06-2.66.8-3.63,1.41-6.11,1.86-7.44.35-.88.7-2.03,1.06-3.45.45-1.68.76-2.79.93-3.32.18-.45.44-.97.8-1.6.44-.62.53-1.37.26-2.26-.18-.88-.05-1.64.4-2.26,1.77-2.12,2.97-3.36,3.58-3.72s2.39-.76,5.31-1.2h2.39c1.51.18,2.17,1.02,1.99,2.52-.18,1.24-.31,2.04-.4,2.39-.18.97-.71,3.1-1.59,6.37-.89,3.37-1.42,5.44-1.59,6.24-.09.44-.27,1.33-.53,2.66-.18,1.06-.4,1.9-.66,2.52-.09,1.06-.66,3.94-1.72,8.63-.71,3.1-1.6,6.33-2.66,9.69-.8,2.48-1.46,4.96-1.99,7.44-.35,2.04-1.73,8.19-4.12,18.45-.26,1.15-.49,1.91-.66,2.26-.8,2.12-1.41,4.6-1.86,7.44-.26,2.12-.66,3.67-1.19,4.65-.18.35-.27.71-.27,1.06-.18,2.48-.93,5.75-2.26,9.82-.18.45-.09.89.27,1.33.35.45.75.66,1.19.66.62,0,.84.05.66.13,4.07-.8,6.37-1.28,6.9-1.46,2.57-.7,4.47-1.11,5.71-1.2.71-.09,1.64-.44,2.79-1.06.44-.35.71-.62.8-.8.53-.97,1.24-2.17,2.12-3.58.09-.18.13-.35.13-.53-.09-1.06.45-2.74,1.6-5.04.8-1.6,1.37-2.83,1.72-3.72,1.06-2.92,2.08-5.26,3.06-7.04.61-1.15.97-2.3,1.06-3.45,0-1.24.35-2.96,1.06-5.18,3.89-12.39,6.46-20.05,7.7-22.97.44-1.15.7-2.08.8-2.79.53-2.47,1.55-5.49,3.05-9.03,2.3-5.39,4.29-11.15,5.98-17.26.44-1.95,1.32-4.78,2.65-8.5.89-2.57,1.51-4.87,1.86-6.9.09-.62.35-2.03.8-4.25.35-1.86.62-3.32.8-4.38.18-1.51.97-2.83,2.39-3.98.8-.71,1.46-1.11,1.99-1.2,1.5-.44,2.96-1.01,4.38-1.72.53-.35,1.95-1.02,4.25-1.99,1.41-.62,2.87-1.2,4.38-1.73.88-.35,1.86-.53,2.92-.53.89,0,1.64.26,2.26.8.53.44.84.93.93,1.46.35,1.41.26,2.74-.27,3.98-1.95,3.89-3.01,6.02-3.18,6.37-1.33,2.74-1.95,3.98-1.86,3.72-.89,1.77-1.68,3.98-2.39,6.64-.45,1.6-1.11,3.01-1.99,4.25-.53.62-.89,1.11-1.06,1.46-.8,1.41-1.28,2.7-1.46,3.85-.44,2.48-1.24,4.91-2.39,7.3-.09.27-.4,1.2-.93,2.79-.8,2.31-1.2,3.41-1.2,3.32-.97,2.04-1.81,4.65-2.52,7.83-.09.53-.49,1.86-1.19,3.98-1.24,3.63-2.04,6.46-2.39,8.5-.44,2.48-1.11,4.56-1.99,6.24-.8,1.68-1.81,4.25-3.05,7.7-.26.89-.93,1.55-1.99,1.99-.09,0-.4.22-.93.66-.71.53-.71,1.02,0,1.46.88.71,1.01,1.59.4,2.66-.09.09-.18.26-.26.53-.18.18-.31.31-.4.4-.35.71-.57,1.46-.66,2.26,0,.18-.05.4-.14.66-.09,3.37-.84,5.98-2.26,7.83-.35.45-.62,1.15-.8,2.12-.26.8-.66,2.12-1.2,3.98-.53,1.68-.93,3.01-1.19,3.98-.09.35-.89,2.97-2.39,7.83-1.51,5.04-2.39,8.28-2.66,9.69-.26,1.15-.66,2.3-1.19,3.45-.8,1.68-1.2,3.36-1.2,5.04,0,.44-.18,1.19-.53,2.26-.18.53-.49,1.28-.93,2.26-.97,2.3-1.42,4.6-1.33,6.9,0,.8-.26,2.74-.8,5.84-.45,2.83-.4,5.18.13,7.04.18.35.26.93.26,1.73,0,1.41-.49,2.43-1.46,3.05-.62.53-.97,1.2-1.06,1.99v.66c.26,4.78-.13,10.44-1.2,16.99-.89,5.75-1.24,8.32-1.06,7.7,0-1.06-.22,1.29-.66,7.04,0,.71-.14,2.17-.4,4.38-.18,1.86-.26,3.37-.26,4.52-.09,1.06-.49,4.16-1.2,9.29-.09.45-.22,1.15-.4,2.12-.09.8-.18,1.46-.26,1.99-.35,2.57-1.41,4.65-3.18,6.24-.89.8-2.83,2.43-5.84,4.91-.53.35-1.28.62-2.26.8-1.95.26-4.07,0-6.37-.8-.89-.35-1.68-.93-2.39-1.73-.53-.62-.89-1.28-1.06-1.99-.45-1.77-.45-3.72,0-5.84,0-.26.4-2.39,1.2-6.37,1.33-6.46,2.03-9.96,2.12-10.49.8-3.27,1.55-6.15,2.26-8.63,2.03-6.37,3.72-14.07,5.04-23.1.53-3.98.97-6.68,1.33-8.1.18-.62.26-1.02.26-1.2.27-1.86,1.55-8.81,3.85-20.84.26-1.51.97-5.4,2.12-11.68.18-1.41-.45-1.99-1.86-1.72-.62.09-.84.13-.66.13-.62.09-1.02.18-1.19.27-5.05,1.86-9.07,3.41-12.08,4.64-.62.18-1.32.53-2.12,1.06-.8.44-1.41,1.15-1.86,2.12-.18.44-.4,1.19-.66,2.26-1.68,6.11-4.12,12.17-7.3,18.19-.26.53-.75,1.51-1.46,2.92-.62,1.24-1.11,2.17-1.46,2.79-.71,1.24-1.46,2.88-2.26,4.91-1.06,2.57-1.77,4.2-2.12,4.91l-.13-.13h.26ZM504.49,195.16l.13-.26-.26-.14.13.4ZM506.08,184.14c-.35.09-.53.35-.53.8-.09.8.22,1.11.93.93.44-.09.66-.35.66-.8,0-.8-.35-1.11-1.06-.93ZM506.48,215.47l.13.13-.13-.13ZM509.93,170.99c-.53.18-.93.4-1.2.66-.18.09-.18.22,0,.4.09.26.22.35.4.26.26-.09.62-.35,1.06-.8.45-.44.8-.75,1.06-.93.62,1.24.97,1.91,1.06,1.99.53.44,1.06.58,1.59.4.35-.17.58-.44.66-.8,0-.44-.17-.75-.53-.93-.27-.09-1.2-.31-2.79-.66-.18.18-.62.31-1.33.4ZM509,175.9l.4-.26-.53-.26.13.53ZM533.83,105.81c-.45.18-.58.49-.4.93.27.44.58.58.93.4.35-.17.48-.48.4-.93-.18-.35-.49-.49-.93-.4ZM537.67,96.25h-.4l.13-.26v.26h.26ZM541.79,84.7c-.18.09-.31.22-.4.4-.18.45-.05.71.4.8.44,0,.71-.22.8-.66-.09-.53-.35-.7-.8-.53ZM546.31,73.95l-.14.53c.18,0,.31.05.4.13.35-.53.26-.75-.26-.66ZM548.83,56.29c-.35-.09-.66.09-.93.53-.27.35-.31.66-.13.93.09.18.22.31.4.4.44.09.75-.05.93-.4.09-.09.13-.26.13-.53,0-.44-.13-.75-.4-.93ZM555.33,28.28l.27-.26-.4-.14.13.4ZM560.64,143.51c-.45-.09-.66.09-.66.53,0,.26.09.4.26.4.45.18.66,0,.66-.53l-.26-.4ZM578.3,92.27h.4l-.13-.4-.27.4ZM582.01,68.77c-.18-.44-.35-.44-.53,0l.26.4.26-.4ZM582.95,87.35c-.27.09-.4.22-.4.4.18.53.49.58.93.13l-.14-.4-.4-.13ZM584.8,75.81c0,.26.09.4.27.4.62.09.84-.13.66-.66l-.53-.13-.4.4ZM590.12,61.33v.27-.27Z"/>
      <path class="cls-1" d="M730.04,159.98l.8,1.59c.27.71.49,1.24.66,1.59.09.18.35.58.8,1.2.45.45.71.84.8,1.2.26.71.57,1.24.93,1.59-.62-.62.4.8,3.05,4.25,3.1,3.9,5.27,6.42,6.5,7.57,1.77,1.68,3.76,4.33,5.98,7.96,1.51,2.39,2.66,5.31,3.45,8.76.44,1.86.84,3.98,1.2,6.37.09.8.13,1.95.13,3.45-.09.8-.49,1.46-1.2,1.99-1.51,1.24-3.01,2.13-4.51,2.66-.98.35-1.51.53-1.6.53-.44.09-.84.09-1.19,0-1.06-.44-1.77-.8-2.12-1.06-2.92-2.66-5.54-5.31-7.83-7.97l-1.2-1.99.13.14c-1.77-1.42-2.7-2.17-2.79-2.26-5.93-6.37-9.34-10.13-10.22-11.28-.53-.62-1.19-1.33-1.99-2.12-1.51-1.68-4.43-5.62-8.76-11.82-.26-.26-.62-.97-1.06-2.12-.27-.62-.58-1.06-.93-1.33-.97-.7-2.21-2.21-3.72-4.51-.53-.8-.58-1.55-.13-2.26.44-.8.49-1.73.13-2.79.09.18,0-.22-.26-1.2.62-.26,1.01-.66,1.19-1.2.35-.88.22-1.59-.4-2.12-.71-.53-1.42-.7-2.12-.53-.8.18-1.02.62-.66,1.32.44.71,1.15,1.6,2.12,2.66-1.77-.09-2.75-.17-2.92-.26-.71,0-1.24-.22-1.6-.66-.53-.8-1.41-1.81-2.65-3.05-1.42-1.41-2.39-2.43-2.92-3.06-.09-.09-.53-.44-1.32-1.06-.89-.62-1.6-.49-2.13.4-.62.98-.97,1.68-1.06,2.12-.62,1.51-1.51,4.52-2.66,9.03-1.15,5.04-1.81,7.92-1.99,8.63-.53,2.57-1.15,5.44-1.86,8.63-.71,3.27-1.37,6.15-1.99,8.63-.8,3.54-1.2,5.09-1.2,4.65-.18,1.59-.58,3.1-1.2,4.51-.09.45-.13.84-.13,1.2,0,.8-.26,2.52-.8,5.18-.89,4.25-1.33,7.57-1.33,9.96,0,.98-.44,1.86-1.33,2.66-1.33,1.33-2.17,2.17-2.52,2.52-.62.53-1.33.84-2.12.93-.18.09-.53.18-1.06.27-.53.09-.93.17-1.19.26-1.51.18-2.74-.31-3.72-1.46-1.33-1.77-1.95-3.63-1.86-5.58.09-1.95.31-3.27.66-3.98.8-1.68,1.68-4.51,2.65-8.5.45-1.86,1.2-4.69,2.26-8.5.8-2.92,1.51-5.58,2.12-7.96.53-2.39.8-4.34.8-5.84,0-2.39.53-5.53,1.59-9.42,2.03-8.14,3.49-14.25,4.38-18.32.27-1.51.8-3.41,1.59-5.71,1.24-3.98,2.83-8.85,4.78-14.6.97-3.1,1.73-5.53,2.26-7.3-.35,1.06,1.51-5.18,5.58-18.72.35-1.15,1.2-3.81,2.52-7.97.97-3.18,1.77-5.79,2.39-7.83.18-.7.58-1.81,1.2-3.32,0-.09.22-.44.66-1.06h-.13c0,6.73-.05,10.8-.13,12.21-.09,1.68-.22,3.01-.4,3.98-.09.8,0,1.55.27,2.26.35,1.06.4,2.21.13,3.45-.18.98,0,2.12.53,3.45.09.26.22.4.4.4.44,0,.66-.27.66-.8v-1.33c.09-.62.13-1.11.13-1.46,0-.45.22-.76.66-.93.26-.09.62-.18,1.06-.26.44,0,.88.35,1.33,1.06v.14-.4c.97-.18,1.5-.26,1.59-.26.7-.27.93-.76.66-1.46-.18-.53-.49-1.37-.93-2.52h.14c-.71-.09-1.37.05-1.99.4-.35-1.06-.49-2.03-.4-2.92.18-.97,0-1.9-.53-2.79-.26-.35-.44-1.11-.53-2.26-.09-1.51.66-2.7,2.26-3.58.18-.09.35-.09.53,0,.17.09.31.22.4.4.53.88,1.11,1.37,1.73,1.46.88.18,1.81,0,2.79-.53.62-.44,1.11-.75,1.46-.93.44-.18.8-.05,1.06.4.18.35.13.71-.13,1.06-.18.26-.66.53-1.46.8-.62.26-1.02.66-1.2,1.2-.26.88-.93,1.55-1.99,1.99v-.4c.35-.27.31-.18-.13.26.71.89,1.11,1.37,1.2,1.46.09.09.57,1.11,1.46,3.06.26.53.75.93,1.46,1.19.71.18,1.28.13,1.73-.13.35-.26,1.06-.75,2.12-1.46.88-.62,1.63-1.11,2.26-1.46,1.15-.62,2.16-1.51,3.05-2.66.62-.7,1.51-1.51,2.66-2.39.8-.62,2.7-1.99,5.71-4.12.71-.44,1.46-.57,2.26-.4.44.09.8-.04,1.06-.4.18-.35.31-.71.4-1.06.53-1.33,1.33-2.47,2.39-3.45,2.12-1.94,3.14-2.83,3.05-2.65,6.37-5.84,10.31-9.47,11.82-10.89,4.51-4.25,8.45-9.16,11.82-14.74.8-1.24,1.64-2.57,2.52-3.98,1.06-1.77,2.52-3.32,4.38-4.64,1.15-.71,3.49-1.77,7.04-3.19.53,0,1.41-.13,2.65-.4,1.06-.18,1.91-.22,2.52-.14,1.24.09,2.12.49,2.66,1.2.18.35.66.97,1.46,1.86.35.44.53.97.53,1.59,0,1.68-.05,2.66-.13,2.92-.8,2.39-1.51,4.03-2.13,4.91-.18.09-1.32,1.46-3.45,4.12-.09-.26-.18-.57-.27-.93-.09.09-.18.13-.26.13.09.09.22.22.4.4.09.09.18.18.27.27-1.86,1.86-2.79,2.83-2.79,2.92-6.37,7.17-13.37,13.81-20.98,19.91-2.39,1.95-5.36,4.52-8.9,7.7-2.83,2.48-6.42,5.58-10.75,9.3-.53.44-1.28,1.02-2.26,1.72-1.15.89-1.95,1.51-2.39,1.86-.8.71-2.12,1.9-3.98,3.58-3.54,3.27-7.13,5.97-10.76,8.1-1.24.8-2.66,2.39-4.25,4.78-.89,1.42-1.46,3.1-1.72,5.04-.27,2.12-.31,4.29-.13,6.51.09.62.22,1.37.4,2.26.09.26.44,1.41,1.06,3.45h-.14v-.13c2.57,2.3,4.07,3.81,4.52,4.51.18.26.22.62.13,1.06,0,.09-.09.26-.26.53-.09.27-.18.45-.27.53-.18.53-.18.89,0,1.06.44,1.32,1.28,2.03,2.52,2.12.26,0,.57-.45.93-1.33.09-.09.27-.13.53-.13.18,0,.35.09.53.26,2.66,2.74,5.09,6.02,7.3,9.82l.66,1.59v1.33c.97,1.15,1.46,1.77,1.46,1.86ZM691.01,123.86l.26.4.13-.4h-.4ZM693.67,129.97c-.18-.44-.44-.57-.8-.4-.44.18-.62.49-.53.93.09.26.22.58.4.93.09.09.26.13.53.13.35.09.57-.09.66-.53-.18-.61-.27-.97-.27-1.06ZM697.78,113.91c-.44.62-.49,1.33-.13,2.12s1.01,1.06,1.99.8c.44-.09.62-.35.53-.8-.09-.62-.27-1.33-.53-2.12-.18-.35-.49-.53-.93-.53s-.76.18-.93.53ZM703.36,137.67c-1.41,1.41-2.21,2.21-2.39,2.39-.45.45-.71.93-.8,1.46-1.33.8-1.99,1.91-1.99,3.32.09,2.75.09,3.72,0,2.92,0,.35.18.89.53,1.6.17.44.44.57.8.4.26-.09.4-.18.4-.26.53-2.92.71-4.07.53-3.45,0-.09.26-.84.8-2.26h1.2c.88-.09,1.64-.62,2.26-1.6.35-.8.35-1.5,0-2.12.09,0-.4-.8-1.46-2.39h.53-.4ZM699.37,81.38c-.18.71,1.46-5.66,4.91-19.12.45-1.86,1.06-3.49,1.86-4.91l-.13.14c.35-2.21.53-3.37.53-3.45.62-2.57,1.55-4.96,2.79-7.17.44-.71,1.11-1.06,1.99-1.06l1.06.13-.13-.13c-.45.62-.53,1.15-.27,1.59.35.62.14,1.24-.66,1.86-.35.26-.35.62,0,1.06.62.89,1.2,1.68,1.73,2.39.62.8.88,1.86.8,3.18-.09,1.16-.31,2.12-.66,2.92-.26-1.24-.53-1.95-.8-2.12-.09-.18-.22-.27-.4-.27-.26,0-.44.09-.53.27-.09.26-.09.44,0,.53.17.18.8.66,1.86,1.46.09,1.15.75,1.86,1.99,2.12.09.09.97.27,2.66.53v-.13c.8.89,1.59,1.37,2.39,1.46.18.09.49.09.93,0h.8c.44.09.75.35.93.8.18.53.22.89.13,1.06-.09.35-.4,1.06-.93,2.12-.09.35-.53.75-1.33,1.19-.35.18-.97.35-1.86.53-.97.18-1.64.35-1.99.53-.45.26-.62.58-.53.93.18.45.49.66.93.66.09,0,.27-.04.53-.13.97-.18,1.37-.26,1.2-.26.88-.18,1.24.18,1.06,1.06-.09.71-.09.89,0,.53-.62,3.1-1.64,5.84-3.05,8.23-.45.62-.98.84-1.59.66-.18-.09-.45-.18-.8-.27-.35-.18-.66-.26-.93-.26-.18-.09-.71-.31-1.59-.66-.45-.18-.8-.09-1.06.26-.26.35-.26.71,0,1.06.18.44.31.8.4,1.06.09.18-.05.27-.4.27l-1.19-.14c-1.68-.09-2.62-.17-2.79-.26-.45-.26-.58-.62-.4-1.06.71-1.15,1.77-2.3,3.19-3.45.62-.53.53-1.02-.27-1.46l-2.66-1.33c-.44-.27-.97-.13-1.59.4-.26.18-.49.49-.66.93-.26.53-.44.88-.53,1.06-1.24,1.15-2.17,2.61-2.79,4.38-.44.98-1.28,1.81-2.52,2.52h.13c.18-1.41.26-2.17.26-2.26ZM701.37,143.91c-.09-.27-.49-1.11-1.19-2.52.7,1.42,1.11,2.26,1.19,2.52ZM702.56,101.43l.53.13-.53-.13ZM704.42,113.11c-.35.09-.58.35-.66.8-.18.45-.05.76.4.93.18,0,.35-.04.53-.13.35-.09.53-.35.53-.8-.09-.53-.35-.8-.8-.8ZM706.41,64.12l.4-.26-.4-.13v.4ZM713.98,148.29c-.62-.44-.93-.93-.93-1.46-.09-.88-.62-1.64-1.59-2.26-.27,0-.76.05-1.46.13.17,0,.44-.05.8-.13h.8c-1.33,1.06-2.08,1.68-2.26,1.86-.27.18-.53.45-.8.8-.27.53-.31,1.11-.14,1.72.27.62.66,1.02,1.2,1.2,3.27.8,4.82,1.11,4.65.93h.13l-.27.13c.09-1.06.05-2.03-.13-2.92.35,0,.93-.04,1.73-.13h1.86l.14.93c.26.45.53.45.8,0,0-.09-.09-.22-.27-.4s-.44-.35-.8-.53l-3.45.13ZM710.66,106.21c.09-1.06.17-1.64.26-1.72,0-.71-.45-1.06-1.33-1.06-.45,0-.76.22-.93.66-.35.89-.45,2.04-.27,3.45,0-.09.09.09.27.53.17.8.62,1.06,1.33.8.44-.18.66-.49.66-.93v-1.73ZM710.13,36.64c.09-.44.26-.8.53-1.06,2.21-2.12,4.47-3.62,6.77-4.51,1.51-.62,2.57-1.15,3.19-1.59,1.33-.8,3.85-1.9,7.57-3.32.7-.26,1.86-.35,3.45-.26.71,0,1.33.31,1.86.93s.75,1.24.66,1.86c-1.24,7.35-1.77,10.62-1.59,9.82-.27.97-.84,1.24-1.73.8-.62-.35-.97-.53-1.06-.53-.45.09-1.11.05-1.99-.13-.97-.27-1.64-.4-1.99-.4-1.59-.09-2.79-.18-3.58-.26-1.33-.18-2.26.35-2.79,1.59-.53.89-.71,1.24-.53,1.06-.44.88-1.11.93-1.99.13l-.13-.27-.13-.13c-.89-.88-1.77-1.06-2.66-.53-.18.09-.44.22-.8.4-.35.26-.62.45-.8.53-1.24.62-1.99.22-2.26-1.2,0-.09-.09-.53-.27-1.33.18-.97.27-1.5.27-1.59ZM711.72,67.17c-.53,0-.62.18-.26.53l.4-.13-.13-.4ZM712.12,44.87c-.09-.53.09-.8.53-.8.09,0,.22.13.4.4.09.18.09.31,0,.4l-.8.93.13.13-.26-1.06ZM713.05,160.5l.13-.13-.13.13ZM714.91,64.38c.26-.26.26-.57,0-.93-.27-.35-.58-.49-.93-.4-.71,0-.97.35-.8,1.06.09.45.31.71.66.8.44,0,.8-.18,1.06-.53ZM713.18,110.19c0,.18.13.31.4.4.44.18.7,0,.8-.53l-.4-.4c-.44-.18-.71,0-.8.53ZM715.44,159.31l-.26.13v-.4l.13.4.13-.13ZM718.09,104.08c-.89-.44-1.37-.7-1.46-.8-.18-.09-.35-.09-.53,0-.18.09-.31.22-.4.4-.18.44-.09.75.26.93.44.09,1.15-.13,2.12-.66v-.13.26ZM717.83,74.08c.35-.7.13-1.06-.66-1.06-.45-.09-.76.09-.93.53-.26.62,0,.97.8,1.06.44.09.7-.09.8-.53ZM716.37,58.41v-.26l.26.13-.26.13ZM716.9,47.26c-.35-.53-.26-.8.27-.8.18,0,.35.09.53.26.26.45.44.8.53,1.06,0,.09.09.66.27,1.72-.98-1.41-1.51-2.16-1.6-2.26ZM717.7,173.65c.35-.44.26-.7-.27-.8l-.26.53.53.26ZM717.96,61.33v-.4.4ZM720.88,49.52c-.8-.26-1.59-.26-2.39,0h2.39ZM720.88,105.28l-.26-.4-.13.4h.4ZM720.75,46.06c0-.35.13-.66.4-.93.18-.09.35-.13.53-.13.44.18.62.66.53,1.46-.09.89-.31,1.59-.66,2.12-.09.18-.31.49-.66.93-.09-2.03-.13-3.18-.13-3.45ZM721.28,55.22c.09-.26.09-.44,0-.53-.18-.18-.22,0-.14.53v.53-.13l.14-.4ZM721.15,55.76c1.42-.09,2.21-.13,2.39-.13.53,0,.84.45.93,1.33.09.62-.18,1.06-.8,1.33-.35.18-.71.13-1.06-.13.17.09-.31-.75-1.46-2.52v.13ZM722.08,154.13l.13.53.26-.13c.09,0,.14-.05.14-.13,0-.53-.18-.62-.53-.27ZM724.87,50.45l-.13.4c-.45.09-.53-.09-.27-.53.09,0,.22.05.4.14ZM725,169c0-.18-.13-.22-.4-.14l-.13.27c.35.35.53.31.53-.13ZM726.46,43.94c-.45,0-.66-.22-.66-.66,0-.26.13-.4.4-.4.35,0,.53.22.53.66l-.26.4ZM726.06,101.16l-.26.26.26.13v-.4ZM728.58,158.11v-1.33,1.33ZM731.63,97.45c-.26,0-.4.13-.4.4-.18.45,0,.66.53.66l.4-.26c0-.53-.18-.8-.53-.8ZM733.63,177.76c-.09.18-.13.35-.13.53.18.53.44.66.8.4.18-.09.27-.26.27-.53,0-.44-.18-.71-.53-.8l-.4.4ZM734.03,173.38l.13-.4c-.53-.26-.66-.35-.4-.26-.35.45-.26.66.27.66ZM772.92,56.16c0,.18.05.35.13.53.35.71.8.93,1.33.66.18-.17.27-.3.27-.4.09-.62-.22-1.02-.93-1.2-.44-.09-.71.05-.8.4ZM775.98,50.98h1.06c.18,0,.22-.13.13-.4-.09-.35-.49-.18-1.19.53l-.14.26.14-.4ZM777.04,54.43c-.09.09-.09.18,0,.27v.13-.4Z"/>
      <path class="cls-1" d="M813.68,88.68c.88-2.66,1.99-4.73,3.32-6.24.97-1.15,1.68-2.57,2.12-4.25.18-.26.35-.7.53-1.33.17-.62.31-1.11.4-1.46.97-3.36,2.66-6.46,5.04-9.29l.8-.8c.35-.44.62-.75.8-.93.8-.88,1.32-1.72,1.59-2.52.97-2.66,2.79-6.37,5.44-11.15.35-.62,1.19-2.39,2.52-5.31-.18.35.09-.4.8-2.26.71-1.68,1.81-3.32,3.32-4.91.53-.53.84-1.24.93-2.12,0-1.15.31-2.26.93-3.32,1.77-3.45,3.49-7.21,5.18-11.28.62-1.5,1.81-2.47,3.58-2.92,1.41-.44,2.74-.62,3.98-.53.97.09,2.57.27,4.78.53.53.09.88.22,1.06.4.62.35,1.46.66,2.52.93,1.33.26,2.16.49,2.52.66.97.35,1.95.53,2.92.53,1.77-.18,3.4.75,4.91,2.79.17.26.53.84,1.06,1.72.35.8.75,1.37,1.2,1.73.18.26.18.66,0,1.19-.18.27-.4.58-.66.93-3.9,5.66-7.48,13.32-10.75,22.96-.27.53-.76,2.04-1.46,4.52-1.06,3.81-2.08,6.59-3.05,8.36-.89,1.77-1.41,3.63-1.59,5.58-.09,1.51-.62,3.41-1.59,5.71-.62,1.59-.93,3.32-.93,5.18v1.73c0,.53-.22,1.11-.66,1.72-.97,1.15-1.55,1.95-1.72,2.39-.35,1.06-.22,1.99.4,2.79.09.09.22.22.4.4s.31.31.4.4c.35.53.48,1.11.4,1.72-.18.89-.35,1.64-.53,2.26-.18.45-.49,1.2-.93,2.26-.35.88-.62,1.59-.8,2.12-.89,2.74-1.46,5.04-1.73,6.9-.09.71-.26,1.99-.53,3.85-.27,1.59-.45,2.83-.53,3.72-.09.45-.26,1.02-.53,1.73-.35.88-.89,1.41-1.59,1.59-.53.18-.89.31-1.06.4-.97.35-1.37.97-1.19,1.86.35,1.95.57,2.92.66,2.92.09-.44-.14.31-.66,2.26-.98,3.36-1.6,6.86-1.86,10.49,0,.35-.05.93-.13,1.72-.09.8-.18,1.37-.27,1.72-.09,1.51.58,2.44,1.99,2.79,1.95.45,3.63.98,5.04,1.6.97.35,1.77.88,2.39,1.59s1.59,1.95,2.92,3.72c.26.27.35.62.26,1.06-.09.53-.31.84-.66.93,0,.09-.09.13-.26.13-.09.09-.18.13-.26.13-1.42.71-2.7,1.11-3.85,1.2-.97,0-2.12.31-3.45.93-.97.53-1.59,1.01-1.86,1.46-.62,1.06-1.73,1.81-3.32,2.26-.45.18-.66.44-.66.8-.09.45.09.84.53,1.2l.93.53c.71.45.97,1.11.8,1.99,0,.45-.18,1.33-.53,2.66-.26,1.06-.44,1.95-.53,2.66-.18,1.95-.18,3.32,0,4.12.26,1.06.13,2.39-.4,3.98-.26.62-.13,1.15.4,1.6.97.8,1.46,1.86,1.46,3.18-.09.8.26,1.42,1.06,1.86,1.06.62,1.41,1.68,1.06,3.18-1.24,4.43-2.39,7.57-3.45,9.43-.89,1.51-1.24,3.01-1.06,4.51.09.89-.05,1.86-.4,2.92-.53,1.33-.98,2.39-1.33,3.19-1.06,2.48-1.77,4.96-2.12,7.44-.35,1.86-.76,3.8-1.2,5.84-.18.62-.53,1.28-1.06,1.99-.62.97-1.6,1.55-2.92,1.72-.35.09-.71,0-1.06-.26-.8-.53-1.42-1.06-1.86-1.59.09.09-1.02-1.28-3.32-4.12-1.06-1.33-1.37-2.61-.93-3.85.27-.62.35-1.59.27-2.92,0-1.77.22-3.32.66-4.65.17-.7.26-1.28.26-1.72.09-1.33.57-3.01,1.46-5.04.71-1.68,1.06-3.41,1.06-5.18-.09-2.3.17-6.46.8-12.48.09-1.24.4-2.35.93-3.32.44-.88.71-1.41.8-1.59,1.51-2.74,2.21-5.8,2.12-9.16,0-.62-.18-1.15-.53-1.6-.35-.62-.4-1.37-.13-2.26.53-2.03.84-3.19.93-3.45.09-.53.09-1.11,0-1.72-.18-.97-.66-1.6-1.46-1.86-1.51-.53-3.01-.97-4.52-1.33-.35-.09-.93-.18-1.72-.26-.8-.09-1.37-.18-1.73-.27-.35-.09-2.26-.62-5.71-1.59-1.06-.35-1.64-.53-1.72-.53-1.06-.09-4.34-.7-9.82-1.86-.27-.09-.66-.14-1.2-.14-2.39-.35-4.21.58-5.44,2.79-.18.45-.26.62-.26.53-2.48,6.46-3.81,10.36-3.98,11.68s-.71,2.61-1.59,3.85c-1.77,2.75-3.54,6.24-5.31,10.49-.35.8-.62,1.33-.8,1.6-2.3,4.25-4.38,10-6.24,17.26-.89,3.81-1.91,7-3.05,9.56-.35.89-1.02,2.74-1.99,5.58-1.51,4.6-4.2,8.63-8.1,12.08-.53.44-1.01.8-1.46,1.06-1.15.45-2.26.84-3.32,1.2-.71.18-1.51.13-2.39-.13-.62-.26-1.11-.53-1.46-.8-1.51-1.15-4.2-2.79-8.1-4.91-.53-.35-.8-.89-.8-1.59,0-.8.09-1.55.27-2.26.09-.35.31-.93.66-1.72.53-.97,1.55-3.1,3.05-6.37,1.15-2.74,2.12-4.91,2.92-6.5-.35.71.27-.71,1.86-4.25,1.77-4.07,3.01-6.77,3.72-8.1,1.15-2.57,2.39-4.56,3.72-5.98l1.06-1.46c.45-.62.71-1.37.8-2.26v-2.39c0-1.06.45-2.12,1.33-3.19.35-.44,1.28-1.46,2.79-3.05,1.15-1.33,2.08-3.06,2.79-5.18,0-.26.05-.66.13-1.19.35-2.48,1.33-4.6,2.92-6.37,1.51-1.86,2.74-4.07,3.72-6.64.35-1.06.53-2.03.53-2.92,0-.44-.05-.84-.13-1.2-.26-1.94.27-4.03,1.6-6.24.61-1.06,1.41-1.9,2.39-2.52,1.06-.71,1.95-1.77,2.66-3.19,1.24-2.39,2.39-4.64,3.45-6.77,4.6-9.74,7.35-15.45,8.23-17.13,1.24-2.39,2.57-5.22,3.98-8.5.88-2.12,1.95-4.03,3.19-5.71.26-.26.84-1.06,1.72-2.39h-.13c.09-.35.84-2.57,2.26-6.64ZM808.51,121.47c.17-.09.22-.22.13-.4-.27-.44-.49-.44-.66,0-.09,0-.09.18,0,.53l.53-.13ZM820.85,104.61l.4-.27c-1.51,3.72-2.39,5.89-2.66,6.51-.26.53-.45,1.11-.53,1.72-.35,2.04-1.28,5.27-2.79,9.69-.18.26-1.33,3.19-3.45,8.76-.53,1.33-.88,2.66-1.06,3.98-.18,1.15.26,1.99,1.33,2.52.53.26.7.35.53.26,3.01.97,4.69,1.51,5.04,1.59,5.13.89,8.45,1.33,9.96,1.33.62,0,1.59.13,2.92.4,1.68.26,3.63.13,5.84-.4l.53-.13c.71-.44,1.15-.84,1.33-1.2.44-1.24.62-2.83.53-4.78,0-2.48.22-5.8.66-9.96.53-4.87.84-8.23.93-10.09,0-.35.09-.93.26-1.72.62-2.66.84-5.58.66-8.76-.18-2.66-.09-4.82.27-6.5.44-1.86.53-3.81.26-5.84-.53-3.72-.53-7.65,0-11.81.09-.8.05-1.6-.13-2.39-.26-1.15-.97-1.68-2.12-1.59-.97.09-1.64.49-1.99,1.2-.26.53-.62,1.33-1.06,2.39-.53,1.15-.93,1.95-1.2,2.39-.09.27-.35.53-.8.8-.09,0-.49.05-1.2.13-.97.18-1.72.75-2.26,1.72-.35.62-.84,1.46-1.46,2.52-.71,1.41-1.15,2.3-1.33,2.66-1.86,3.36-3.05,6.46-3.58,9.29-.09.35-.18.84-.27,1.46,0,.71-.05,1.2-.13,1.46-.09.35-.31.66-.66.93-.97.8-1.81,1.33-2.52,1.6l-.27.13ZM843.16,51.91c-.26-.44-.8-.35-1.59.26-1.15.97-1.99,2.04-2.52,3.19-.44,1.06-1.9,3.85-4.38,8.36-1.59,2.83-2.79,5.53-3.58,8.1-.45,1.42-1.11,2.61-1.99,3.58-.45.62-2.12,3.27-5.04,7.97-.98,1.51-1.51,3.36-1.59,5.58,0,.26.09.62.26,1.06.44.89.97,1.02,1.59.4.53-.53,1.2-1.51,1.99-2.92,1.24-2.39,3.94-7.43,8.1-15.13,3.36-6.19,6.06-11.2,8.1-15,.35-.7.66-1.41.93-2.12.35-.88.45-1.68.27-2.39-.09-.35-.27-.66-.53-.93ZM830.81,65.32c0,.09-.05-.09-.13-.53-.26-.88-.75-1.06-1.46-.53-1.33.98-1.86,2.52-1.59,4.65.09.26.31.45.66.53.35.09.62.05.8-.14,1.06-.61,1.64-1.46,1.72-2.52v-1.46ZM840.24,71.69c.44.18.88.13,1.33-.13.44-.27.66-.66.66-1.2,0-.44-.05-.8-.13-1.06-.35-1.15-.98-1.37-1.86-.66-.71.44-1.06,1.06-1.06,1.86-.09.53.27.93,1.06,1.2ZM850.72,90.41c-.35-.09-.66.05-.93.4-.35.35-.31.66.13.93.62.45,1.06.31,1.33-.4.09-.44-.09-.75-.53-.93Z"/>
      <path class="cls-1" d="M906.61,143.25c-1.68,4.07-3.14,7.92-4.38,11.55-.88,2.48-1.86,5.05-2.92,7.7-.26.62-.62,1.42-1.06,2.39-.53,1.15-.89,1.99-1.06,2.52-.26.45-.58,1.15-.93,2.12-.35,1.06-.62,1.81-.8,2.26.17-.35-.45,1.06-1.86,4.25-.53,1.24-1.2,2.21-1.99,2.92-.26.26-.4.62-.4,1.06-.09,1.24-.09,2.26,0,3.06.17,2.04-.27,4.12-1.33,6.24h-.13.26c-.45,1.15-1.33,2.08-2.66,2.79v-.14l.53,1.06c.26.71.35,1.28.26,1.72-.18.89-.35,1.68-.53,2.39-1.33,4.16-2.26,7.57-2.79,10.22-.18.98-.58,2.04-1.2,3.19-1.15,1.95-1.68,2.79-1.59,2.52-.89,1.95-2.21,3.63-3.98,5.05-3.1,2.65-4.43,3.8-3.98,3.45-.53.35-1.06.61-1.59.8-.45.09-.8-.05-1.06-.4-.53-.97-1.11-2.43-1.72-4.38-.09-.62-.13-1.2-.13-1.73.26-2.39.7-4.29,1.33-5.71.44-1.33,1.15-3.41,2.12-6.24.7-2.03,1.15-3.54,1.33-4.51.09-.62.53-2.12,1.33-4.51,1.5-4.69,2.57-8.67,3.18-11.95.44-2.03,1.11-3.62,1.99-4.78.09-.18.13-.4.13-.66,0-.09-.05-.27-.13-.53-.18-.88-.13-1.86.13-2.92,1.77-6.81,2.87-11.2,3.32-13.14.35-1.59,1.15-2.87,2.39-3.85.18-.09.31-.22.4-.4.09-.62.13-1.01.13-1.2-.89-1.41-1.02-2.87-.4-4.38.18-2.03.97-4.03,2.39-5.97l-.27.26.27-.26c-.09-.8,0-1.55.26-2.26.88-1.94,1.55-3.98,1.99-6.1.35-1.51.53-2.7.53-3.58.18-2.04.53-3.94,1.06-5.71.35-1.15.89-3.05,1.6-5.71.7-2.47,1.28-4.38,1.72-5.71.26-1.06.66-1.95,1.2-2.66.35-.62.53-1.15.53-1.59,0-1.41.35-3.76,1.06-7.04,1.41-6.46,2.26-10.09,2.52-10.88.26-.97.84-3.9,1.72-8.76.18-1.24.53-3.19,1.06-5.84.44-2.48.8-4.43,1.06-5.84,0-.17.22-.93.66-2.26.18-.53.53-.97,1.06-1.33.88-.53,1.11-1.19.66-1.99-.62-1.15-.93-2.43-.93-3.85,0-.18.18-1.77.53-4.78.09-.26.18-1.06.26-2.39,0-.97-.53-1.51-1.59-1.6h-1.2c-.88.18-1.64.4-2.26.66-1.59.53-3.72.8-6.37.8-.62,0-1.2-.09-1.72-.27-1.06-.26-2.21-.62-3.45-1.06-.18-.09-.53-.27-1.06-.53-.44-.27-.8-.4-1.06-.4-2.57-.7-6.55-2.87-11.95-6.5-.8-.53-1.68-1.28-2.66-2.26-1.51-1.59-1.91-3.41-1.2-5.44.18-.62.44-1.15.8-1.59,1.51-1.68,3.23-2.97,5.18-3.85,4.33-2.03,8.81-3.54,13.41-4.51,1.33-.35,2.26-.62,2.79-.8.88-.27,2.26-.53,4.12-.8,1.24-.18,1.99-.35,2.26-.53,1.33-.53,3.85-1.02,7.57-1.46,3.18-.35,5.13-.62,5.84-.8,3.8-.89,8.1-1.06,12.88-.53.71,0,1.51.09,2.39.26.62.09,1.41.05,2.39-.13,2.21-.44,3.94-.7,5.18-.8,3.01-.35,5.53-.18,7.57.53,2.74.97,5.66.97,8.76,0,1.24-.35,2.21-.58,2.92-.66,2.66-.27,6.86-1.2,12.61-2.79,2.83-.71,5.58-.93,8.23-.66,3.18.35,4.95.58,5.31.66,1.51.18,2.12,1.06,1.86,2.66-.18.88-.27,1.28-.27,1.19-.97,3.72-2.21,7.83-3.72,12.35-.26.97-.84,1.72-1.72,2.26-3.01,1.95-5.84,3.37-8.5,4.25-.62.26-1.46.58-2.52.93-1.15.45-1.95.76-2.39.93-1.24.44-1.99.66-2.26.66-1.15.18-3.85.88-8.1,2.12-3.1.88-7.97,2.43-14.6,4.64-.97.27-2.43.8-4.38,1.6-2.04.71-3.54,1.24-4.52,1.59-.18,0-.44.09-.8.26-.35.18-.62.31-.8.4-1.33.44-2.21,1.41-2.66,2.92-.18.8-.26,1.37-.26,1.72-.35,2.83-.89,7.97-1.59,15.4-.62,6.73-1.99,13.24-4.12,19.52-.35.89-.62,1.42-.8,1.6-.71.97-1.16,2.26-1.33,3.85-.09.89-.4,1.81-.93,2.79-.26.35-.35.71-.26,1.06.09.89-.13,2.26-.66,4.12-1.95,6.11-3.05,9.87-3.32,11.28-.18,1.16-.84,2.08-1.99,2.79-1.95,1.24-2.92,1.91-2.92,1.99-.26.27-.35.62-.26,1.06.09.44.49,1.11,1.2,1.99.53.8.62,1.72.26,2.79-.45,1.41-.97,2.48-1.59,3.18v-.13c-.18.97-1.15,3.54-2.92,7.7ZM879.79,204.45l-.26.13c-.45-.53-.58-.8-.4-.8.27.45.45.71.53.8l.13-.13ZM884.84,176.17c-.35-.44-.71-.44-1.06,0-.09.18-.09.31,0,.4.26.45.57.49.93.14l.14-.53ZM884.44,189.45l-.4.4c0,.09-.05.27-.13.53.18-.44.31-.75.4-.93h.13ZM888.69,180.55c-.09-.53-.53-.75-1.33-.66-.44,0-.71.18-.8.53-.26.62-.09,1.06.53,1.33h.53c.8-.09,1.15-.49,1.06-1.2ZM898.11,151.61c-.26.26-.26.58,0,.93.18.35.49.45.93.27.35-.18.57-.45.66-.8,0-.35-.22-.66-.66-.93-.35,0-.66.18-.93.53ZM899.97,32.66c-.26-.35-.62-.53-1.06-.53-.35.09-.35.26,0,.53.26.18.62.13,1.06-.13.09,1.42.27,2.52.53,3.32h-.13c.09-.27-.05-1.33-.4-3.19ZM898.91,147.09l-.14.4.4.13c.26-.44.18-.62-.26-.53ZM899.18,128.64v.26l.4-.13-.4-.13ZM901.3,118.29c-.09-.17-.22-.26-.4-.26-.44-.09-.66.09-.66.53.09.53.35.75.8.66.44-.18.53-.49.26-.93ZM903.69,110.45c-.35-.35-.66-.31-.93.13-.18.18-.31.53-.4,1.06,0,.18.09.31.26.4.35.35.66.35.93,0,.09-.09.22-.48.4-1.19l-.27-.4ZM906.08,123.07l-.27-.26.27.13v.13ZM908.87,105.81c-.18.09-.27.22-.27.4-.09.45.09.71.53.8.44,0,.62-.26.53-.8-.09-.44-.35-.57-.8-.4ZM912.85,115.37c-.53.09-1.06.18-1.6.27l.13-.14c.18.18.53.66,1.06,1.46v1.2c.09.53.35.58.8.13.18-.17.18-.31,0-.4.35.35.09.05-.8-.93.09-.35.18-.93.26-1.72l.14.13ZM913.12,104.61l.26.13-.4-.13h.13ZM921.08,69.96h-.4c-.45-.09-.45-.17,0-.26,0,.09.04.18.13.26.62-.44.7-.44.26,0ZM944.98,46.73v.53c.18.09.31.05.4-.13v-.4h-.4Z"/>
      <path class="cls-1" d="M1019.59,120.01c.44.35.75.84.93,1.46.35,1.24.44,2.39.26,3.45-.18,1.15-.8,2.12-1.86,2.92-.35.18-1.15.26-2.39.26-.97,0-1.41.49-1.33,1.46.18,1.16-.35,2.12-1.59,2.92-1.33.8-3.14,1.55-5.44,2.26-.35.18-2.61.84-6.77,1.99l-.53.26c-.97,0-2.74.22-5.31.66-2.21.35-3.98.58-5.31.66-.89,0-5.18.4-12.88,1.2-1.6.18-3.1,1.06-4.52,2.65-.18.27-.35.62-.53,1.06s-.26.84-.26,1.2c-.09,1.59-.62,3.67-1.59,6.24-1.24,3.19-1.95,5.05-2.12,5.58-.18.89-.53,1.99-1.06,3.32.09-.26-.71.62-2.39,2.66-.98,1.24-1.2,2.52-.66,3.85l.13.53c.35.8.22,1.51-.4,2.12-.88.98-1.37,1.81-1.46,2.52-.09.62-.18.97-.26,1.06-.71,1.06-1.68,4.08-2.92,9.03-.71,3.1.49,5.58,3.58,7.44,1.68,1.06,3.67,1.77,5.97,2.12,1.77.35,4.16.66,7.17.93,2.3.18,4.64.18,7.04,0,1.15-.09,3.49-.35,7.04-.8,1.41-.18,2.26-.93,2.52-2.26.09-.27.18-.66.27-1.2-.09.26-.05-.09.13-1.06.09-.89.44-1.6,1.06-2.12.62-.45,1.55-1.15,2.79-2.12.62-.45,1.37-.66,2.26-.66,1.41-.09,2.43.35,3.05,1.32.8,1.16,1.64,2.48,2.52,3.98.8,1.33,1.63,2.88,2.52,4.65.53.97.75,2.12.66,3.45-.09,1.77-.49,3.89-1.2,6.37-.44,1.41-1.24,2.52-2.39,3.32-2.83,2.12-6.42,3.67-10.75,4.64-1.16.27-2.12.35-2.92.27-1.24-.09-2.34.18-3.32.8-.45.18-1.02.22-1.73.13-.62,0-2.21.05-4.78.13-5.13.09-9.07-.22-11.81-.93-3.19-.35-7.39-1.28-12.61-2.79-2.57-.8-4.78-1.64-6.64-2.52-1.15-.62-2.08-1.37-2.79-2.26-.35-.53-.57-.84-.66-.93-.8-1.41-2.34-3.45-4.64-6.11-3.01-3.36-3.98-7.21-2.92-11.55,1.86-7.35,3.9-13.54,6.11-18.58.62-1.41,1.77-4.12,3.45-8.1.35-.88.62-1.63.8-2.26.89-3.8,4.6-15.84,11.15-36.11.53-1.86,1.46-4.78,2.79-8.76,1.33-3.72,2.3-6.64,2.92-8.76.09-.09.97-3.32,2.66-9.69h.13l-.26.13c4.43-16.64,6.5-24.47,6.24-23.5,0-.09.04-.27.13-.53.35-1.68.18-3.23-.53-4.65-.35-.53-.31-1.06.13-1.59,1.77-2.3,2.61-3.41,2.52-3.32-.09.18.35-1.5,1.33-5.04,0-.09.18-1.28.53-3.58.17-1.06.53-2.17,1.06-3.32.26-.44.66-.88,1.2-1.33.53-.44,1.01-.8,1.46-1.06,2.3-1.15,5.58-2.43,9.82-3.85.97-.26,1.95-.17,2.92.27,1.41.62,2.52,1.46,3.32,2.52,1.24,1.68,1.99,3.23,2.26,4.65.09,1.06.8,1.64,2.12,1.72,1.24.09,2.03.14,2.39.14h8.23c13.28.09,19.78.13,19.52.13,1.59,0,4.16.31,7.7.93,1.15.18,2.83.66,5.04,1.46.44.18.97.49,1.59.93,2.74,1.86,3.54,4.43,2.39,7.7-.18.62-.58,1.42-1.2,2.39-.62,1.06-1.02,1.86-1.2,2.39s-.75,1.11-1.72,1.73c-1.77,1.15-3.72,2.08-5.84,2.79-2.83,1.06-5.31,1.55-7.44,1.46-.8-.09-1.91-.13-3.32-.13-1.68,0-2.74-.05-3.18-.14-1.59,0-2.57-.13-2.92-.4.17.18-.4-.31-1.73-1.46-.71-.71-1.41-.75-2.12-.13-.89.71-1.77.84-2.66.4-.62-.44-1.37-.4-2.26.13-.97.53-1.91.76-2.79.66-4.34-.18-7.26-.48-8.76-.93-1.77-.35-3.54-.44-5.31-.26-.8.09-1.41.53-1.86,1.32-.35.62-.62,1.16-.8,1.6-1.77,5.22-2.92,8.58-3.45,10.09-.88,3.1-1.81,5.67-2.79,7.7-1.15,2.66-2.03,5.27-2.65,7.83-1.15,4.96-1.81,7.83-1.99,8.63-.35,2.12-.98,4.43-1.86,6.9-.26.98-.97,3.41-2.12,7.3-.18.44-.05.89.4,1.33.44.44.88.62,1.33.53.88-.17,1.28-.22,1.19-.13,1.33-.35,2.43-.66,3.32-.93,4.69-1.33,9.69-2.43,15-3.32,1.77-.26,3.89-.66,6.37-1.2,1.24-.35,2.17-1.11,2.79-2.26.35-.62.71-1.5,1.06-2.66.62-1.59,1.99-2.57,4.12-2.92.53-.09,1.11.05,1.72.4,1.06.53,1.73,1.46,1.99,2.79.09.18.18.97.27,2.39.09,1.15.17,2.12.26,2.92,0,.53-.13,1.06-.4,1.6.18-.27-.05.09-.66,1.06-.53.18-.88.31-1.06.4-.8.18-1.37.66-1.73,1.46l-.13.26c0,.09-.05.18-.13.27l-.13.53c-.27.53-.09,1.02.53,1.46.61.35,1.19.4,1.72.14.71-.35,1.11-.97,1.2-1.86,0,.09-.13-.84-.4-2.79.62.35.97.53,1.06.53ZM950.55,159.31v-.13c-.26.09-.44.13-.53.13l.13.4c.53-.09.66-.13.4-.13v-.26ZM953.61,163.43l.4.13c.09.71.13,1.11.13,1.2.09.18.22.26.4.26.53.09.75-.13.66-.66,0-.26-.09-.4-.26-.4-.09-.09-.45-.22-1.06-.4l-.26-.13ZM979.23,101.56l.4-.13-.4-.26v.4ZM1006.71,125.85c.09.18-.09.22-.53.13v-.53c.26-.18.31,0,.13.53l.4-.13ZM1009.5,54.96c-.8-.53-1.51-.53-2.12,0-.44.26-.44.58,0,.93.53.45,1.24.31,2.12-.4v-.53ZM1007.64,128.64l-.27-.26v.4l.27-.13ZM1011.49,118.42c-.53-.09-.71.09-.53.53.09.18.27.27.53.27l.27-.4-.27-.4ZM1013.35,67.44c.18-.09.31-.27.4-.53,0-.44-.26-.62-.8-.53l-.26.4c0,.53.22.75.66.66ZM1017.47,60.67l-.14-.4.27.26-.13.13ZM1018,65.71c-.09,0-.09.14,0,.4.27-.09.45-.13.53-.13l-.13-.4-.4.13ZM1025.7,66.51h.14-.14ZM1029.68,59.21c-.62,1.15-.97,1.86-1.06,2.12-.09.09-.14.27-.14.53.09.26.18.45.27.53.44.18.8.05,1.06-.4.44-.88.35-1.77-.26-2.66l.13-.13ZM1043.88,62.13c-.35-.26-.66-.26-.93,0-.09.18-.05.35.13.53.27.18.58.13.93-.13l-.14-.4Z"/>
      <path class="cls-1" d="M1063.27,76.07c.27-.53.71-.88,1.33-1.06.44-.18,1.02-.31,1.73-.4.44-.09.75-.26.93-.53.09-.44-.05-.8-.4-1.06-.89-.71-1.33-1.11-1.33-1.2-.27-.26-.4-.62-.4-1.06.18-1.6.57-3.1,1.2-4.52,1.24-2.57,1.9-3.98,1.99-4.25.8-1.86,1.77-3.58,2.92-5.18,4.33-5.84,8.18-10.05,11.55-12.61.8-.53,1.55-1.15,2.26-1.86.89-.8,1.86-1.46,2.92-1.99,2.21-.88,4.51-2.34,6.9-4.38,2.74-2.3,5.71-3.8,8.9-4.51.8-.18,1.37-.35,1.73-.53.7-.27,1.86-.49,3.45-.66,3.45-.27,6.9.44,10.35,2.12.44.18.93.49,1.46.93.71.45,1.2.71,1.46.8,1.33.27,2.74.98,4.25,2.12-.09-.09,1.59,1.24,5.04,3.98,1.86,1.51,3.27,3.14,4.25,4.91.44.97,1.11,1.95,1.99,2.92.88.89,1.72,1.99,2.52,3.32,1.86,3.1,2.3,6.5,1.33,10.22-.53,2.03-.8,3.41-.8,4.11,0,1.33-.58,2.97-1.73,4.91-.18.35-.57,1.02-1.19,1.99-3.72,5.31-5.44,7.75-5.18,7.3-3.45,5.13-8.45,10.67-15,16.59-.71.53-1.51,1.11-2.39,1.73-6.9,4.25-13.24,7.48-18.98,9.69-.8.35-1.68.71-2.66,1.06-2.66.97-5.58,1.42-8.76,1.33h-6.5c-.71,0-1.41.22-2.12.66-1.77,1.24-3.01,2.79-3.72,4.65-.71,1.77-1.68,3.89-2.92,6.37-.89,1.77-1.68,3.98-2.39,6.64-.62,2.66-1.11,4.56-1.46,5.71-.53,1.77-1.15,3.45-1.86,5.04-1.24,2.83-2.43,6.2-3.58,10.09-.35,1.24-.71,2.35-1.06,3.32-.35.97-.66,1.68-.93,2.12-1.06,1.32-1.64,2.97-1.72,4.91-.09,1.24-.26,2.83-.53,4.78-.35,2.39-.8,4.47-1.33,6.24-.44,1.33-1.24,3.98-2.39,7.97-1.42,4.87-2.39,8.5-2.92,10.88-.71,3.01-1.06,5.13-1.06,6.37,0,.62-.13,1.37-.4,2.26-.35,1.16-.58,1.91-.66,2.26-.18,1.24-.71,2.74-1.6,4.51.18-.44-.4.8-1.72,3.72-1.15,2.21-2.88,4.03-5.18,5.44-.27.18-.84.4-1.73.66-.44.09-.97-.04-1.59-.4-.26-.18-.44-.31-.53-.4-2.12-2.66-3.45-4.6-3.98-5.84-.53-.97-.53-1.91,0-2.79.35-.89.62-1.41.8-1.6,1.59-1.77,2.21-3.98,1.86-6.64v-2.39c0-.71.18-1.46.53-2.26.18-.26.4-.57.66-.93,1.15-1.86,2.26-4.6,3.32-8.23.53-1.77.93-3.27,1.19-4.51.45-2.3,1.86-7.65,4.25-16.06,1.86-6.29,3.67-12.92,5.44-19.91,2.12-8.23,3.54-13.37,4.25-15.4.27-.71.4-1.28.4-1.73.09-.8.44-2.52,1.06-5.18,1.86-6.81,3.01-10.76,3.45-11.82.8-1.95,1.24-4.07,1.33-6.37.09-3.45.4-6.59.93-9.43.09-.53.05-1.33-.13-2.39,0-.26-.05-.66-.13-1.2-.18-.44-.26-.8-.26-1.06-.18-1.33-.13-2.52.13-3.58.53-1.6.97-2.87,1.33-3.85.18-.35.7-1.64,1.59-3.85.35.53.84,1.02,1.46,1.46.35.44.57.71.66.8.44.26.66.13.66-.4,0-.17-.13-.26-.4-.26-.09,0-.44-.05-1.06-.13-.35-.27-.84-.71-1.46-1.33l.4-1.2ZM1042.56,190.78l-.26-.4-.27.4h.53ZM1059.55,121.21c-.09-.35-.31-.61-.66-.8-.44-.09-.8,0-1.06.27-.53.53-.71,1.15-.53,1.86.09.62.49,1.06,1.2,1.33.44.18.75.05.93-.4,0-.09.09-.44.26-1.06-.09-.7-.13-1.11-.13-1.2ZM1070.04,82.05c0-.97-.05-2.17-.13-3.58l.13.13c-.62,1.15-.97,2.35-1.06,3.58-.98-.27-1.51-.44-1.6-.53-.18,0-.31.13-.4.4-.27.44-.18.8.26,1.06.18.09.71.13,1.59.13.53.62.84,1.2.93,1.73.53.18.88.26,1.06.26.27.09.44.09.53,0,.26,0,.35-.09.26-.26-.18-.18-.49-.22-.93-.13-.18.09-.53.18-1.06.26.09-.26.17-.57.26-.93.09-.44.13-.75.13-.93.18-.44.18-.84,0-1.19ZM1070.17,83.37h-1.33v-1.33h1.33v1.33ZM1070.7,101.43l-.26.27.4.13-.13-.4ZM1072.16,108.33c.09.45.35.71.8.8.71,0,1.06-.35,1.06-1.06,0-.8-.35-1.15-1.06-1.06-.71.18-.97.62-.8,1.33ZM1082.52,75.41c.53.35.8.89.8,1.59-.09.8.05,1.55.4,2.26.61,1.06,1.41,1.51,2.39,1.33,1.51-.18,2.08-.27,1.72-.27,1.86,0,3.41-.31,4.65-.93.26-.18.8-.35,1.59-.53.89-.09,1.64-.31,2.26-.66,1.32-.8,2.21-1.28,2.65-1.46,2.12-1.06,4.12-2.61,5.98-4.65.35-.35.97-.97,1.86-1.86.8-.8,1.41-1.46,1.86-1.99,3.27-3.63,5.93-7.04,7.97-10.22.88-1.41,1.5-2.83,1.86-4.25.44-1.5.13-2.79-.93-3.85-.8-.71-1.68-1.11-2.66-1.2-4.25-.44-8.1.13-11.55,1.73-1.16.44-2.21.93-3.19,1.46-2.12.97-3.76,1.59-4.91,1.86-.45.09-.97.31-1.59.66-2.3,1.24-4.12,2.7-5.44,4.38-.71.8-1.24,1.64-1.59,2.52-.8,2.04-1.24,3.72-1.33,5.04-.09.71-.27,1.6-.53,2.66-.26,1.24-.45,2.12-.53,2.66-.18.97-.71,2.21-1.59,3.72h-2.52c-.26-1.06-.31-2.21-.13-3.45.09-.35.35-.88.8-1.59.45-.53.71-1.01.8-1.46,0-.18-.09-.35-.27-.53s-.35-.22-.53-.13c-.53.09-.88.22-1.06.4-.26.26-.62.62-1.06,1.06-.44.45-.8.76-1.06.93-.62.53-1.33.71-2.12.53.53.18.18.09-1.06-.26-.44-.09-.8,0-1.06.26-.53.35-.66.84-.4,1.46.18.53.44.76.8.66-1.06.18,1.02-.26,6.24-1.33.09,1.51.13,2.66.13,3.45.8-.35,1.6-.35,2.39,0ZM1076.94,82.57l-.4-.26-.26.53c0,.18.09.31.26.4.09,0,.27-.04.53-.13l-.13-.53ZM1080.13,80.72c-.09,0-.18.13-.26.4-.18.35-.22.66-.13.93.18.35.35.44.53.26.26-.26.4-.57.4-.93.09-.53-.09-.75-.53-.66ZM1088.23,93.46v.53c.09,0,.18-.05.26-.13h.27c.09-.53-.09-.66-.53-.4ZM1091.81,95.72l.4-.26-.4-.27v.53ZM1094.21,92.13c-.09-.09-.22-.18-.4-.26-.53-.18-.8,0-.8.53,0,.09.13.22.4.4.35.26.66.22.93-.13l-.13-.53ZM1093.94,40.62l.13.53c.35-.26.49-.35.4-.26,0-.62-.18-.71-.53-.26ZM1096.99,97.71c-.35-.44-.58-.66-.66-.66l-.4.13,1.2.4-.13.13ZM1099.91,35.84c-.53-.18-1.11-.13-1.73.13-.62.35-.75.89-.4,1.59.09.18.22.31.4.4,1.33.35,2.08-.09,2.26-1.33.09-.44-.09-.71-.53-.8ZM1103.63,78.73h.53l-.27-.53-.26.53ZM1104.56,93.46c-.09.09-.05.22.13.4l.53-.14c-.09-.62-.31-.7-.66-.26Z"/>
      <path class="cls-1" d="M1139.99,131.29c.6.39,1.07.63,1.43.71.28.04.45-.02.53-.18.28-.36.16-.61-.36-.77-.2,0-.71.14-1.55.42-.04-.72-.1-1.09-.17-1.12.16-.91.4-2.87.71-5.88-.04.47.34-.38,1.13-2.55.2-.6.34-1.37.42-2.32.2-1.19.43-2.16.71-2.91.75-1.5,1.66-3.42,2.73-5.76.2-.39.46-.71.78-.95.27-.36.57-.55.89-.59.12-.04.71-.14,1.78-.29l-.06.12c.59-.8.93-1.27,1.01-1.43.83-1.27.67-2.33-.48-3.2l-.95-.47c-1.42-.92-1.92-2.1-1.48-3.56.91-3.6,1.92-7.41,3.03-11.4.36-1.51.91-3.4,1.67-5.7.27-.75.73-1.37,1.36-1.84,1.07-.75,1.7-1.23,1.9-1.42.67-.56,1.09-1.19,1.25-1.9,1.9-7.36,2.74-10.41,2.5-9.14.23-1.46.11-2.81-.36-4.03-.44-.92-.52-1.85-.24-2.79,2.02-6.41,3.07-9.79,3.15-10.15,2.3-7.56,3.35-10.94,3.15-10.15,2.46-7.48,3.96-12.17,4.51-14.07.48-1.34,1.09-2.57,1.84-3.68.64-.87,1.45-1.41,2.44-1.6,1.07-.16,2.06-.06,2.97.3,2.38.99,4.57,2.93,6.59,5.82,1.23,1.7,2.32,3.78,3.27,6.24.51,1.34.53,2.69.06,4.04-.55,1.5-1.16,2.93-1.84,4.27-.36.71-.93,1.76-1.73,3.14-.75,1.31-1.33,2.36-1.72,3.15-1.31,2.62-2.16,4.61-2.55,6-1.03,3.04-1.88,5.64-2.55,7.78-3.77,13.06-6.38,21.75-7.85,26.06.08-.16-.69,2.27-2.31,7.3-1.67,4.91-2.58,7.52-2.74,7.84-.12.24-.2.59-.24,1.07-.12,1.02-.4,2.37-.83,4.03-.59,1.98-.97,3.32-1.13,4.04-.2,1.19-.52,2.91-.95,5.16-.52,2.42-.89,4.16-1.13,5.23-.28,1.35-.21,2.51.18,3.5.08.44.34.71.77.83.44.12.77.04,1.01-.24,1.55-1.31,2.62-2.45,3.21-3.44l6.42-9.26c.28-.55.69-1.19,1.25-1.9,1.15-1.5,2.39-3.5,3.74-6l.83-1.66c.31-.43.53-.77.65-1.01.44-.48.95-.71,1.55-.71.2,0,.61.06,1.24.18,1.74.28,2.79-.33,3.15-1.84.4-1.98,1.29-4.16,2.67-6.53.32-.44.87-1.25,1.66-2.43,1.23-1.66,1.94-3.48,2.14-5.46.24-1.66.38-2.63.42-2.91.12-.44.22-.83.3-1.18.24-.48.65-.81,1.25-1.01.43-.08.81.06,1.13.41.08.04.22.16.41.36.2.2.32.35.36.47.08.04.22.16.41.35.28.24.61.26,1.01.06.51-.24.81-.54.89-.89.12-.44.22-1.23.3-2.37.08-.95.26-1.71.54-2.26l1.07-2.14c.44-.87.73-1.56.89-2.08.71-1.42.99-1.98.83-1.66,1.15-2.29,2.69-4.29,4.63-5.99,2.62-2.45,4.66-3.96,6.12-4.51.52-.24,1.09-.79,1.72-1.66,1.03-1.47,1.59-2.28,1.66-2.43.24-.28.57-.46,1.01-.54-.2,0,.38-.06,1.72-.18.83-.08,1.51-.44,2.02-1.07.16-.12.42-.44.77-.95,1.23-1.86,2.97-3.07,5.23-3.62l-.18.35.06-.12c.99-.99,2.63-2.1,4.93-3.32.67-.36,1.4-.44,2.19-.24.83.32,1.39.5,1.66.54.63.11,1.11-.14,1.42-.77.32-.44.51-.73.59-.89.87-.95,2.16-1.35,3.86-1.18.27.04.49.1.65.18.16.28.77,1.03,1.84,2.26-.98.79-1.58,1.28-1.78,1.48-.36.71-.14,1.17.65,1.37l1.07.24c0,.39.14.61.42.65l-.12-.35-.48-.24c.24-.68.28-1.74.12-3.21.75.67,1.92,1.31,3.5,1.9,1.62.71,2.49,1.94,2.61,3.68,0,.2.14.31.41.35.08.04.62.06,1.6.06l.12-.24c.12-.04.2-.1.24-.18.63-.67,1.08-.69,1.36-.06.87,2.22,1.6,3.82,2.2,4.81.27.44.58,1.13.89,2.08.55,1.86.47,3.4-.24,4.63-.2.39-.28.75-.24,1.07.35,1.66.1,3.95-.78,6.88-.99,3.56-1.58,5.84-1.78,6.83-.99,3.96-2.69,7.66-5.11,11.1-.95-.48-1.59-.79-1.9-.95.08-1.15-.38-1.92-1.37-2.32l-.47-.24-.48-.24c-.75-.28-1.49-.1-2.2.53-.59.39-.69.89-.3,1.48.24.32.56.48.95.48.27.04.47.04.59,0,.99-.39,2.08-.3,3.27.3.87.44,1.46.73,1.78.89.39,1.39.36,2.55-.12,3.51-.24.48-.58,1.24-1.01,2.31-.44,1.07-.79,1.88-1.07,2.43-.4.79-2.02,4.13-4.87,10.03l-.06.12.18-.35c-.08,1.54-.36,2.89-.83,4.04-.52,1.42-1.27,3.03-2.26,4.81-2.58,4.55-4.51,8.23-5.82,11.04-1.03,2.25-1.64,3.88-1.84,4.87-.32,1.82-1.23,4.23-2.73,7.24-.32.63-.93,1.76-1.84,3.39-.71,1.42-1.29,2.57-1.72,3.44-1.35,2.69-2.26,4.41-2.73,5.16-.99,1.58-1.8,3.6-2.44,6.06-.16.71-.48,1.74-.95,3.08-.39,1.39-.71,2.42-.95,3.09-1.15,4.47-1.74,7.34-1.78,8.61-.08,1.34-.5,2.87-1.25,4.57-.95,2.09-1.41,4.19-1.37,6.29,0,.59.31,1.05.95,1.37.28.24.61.26,1.01.06.2-.2.32-.34.36-.41,3.01-4.24,4.83-7.28,5.46-9.14l-.06.12c.32.75.39,1.48.23,2.2-.2,1.39-.95,4.67-2.26,9.86-.6,2.77-.95,4.27-1.07,4.51-.47,1.34-1.7,4.69-3.68,10.04-.35,1.1-.57,2.04-.65,2.79,0,.19-.1.99-.3,2.37-.16,1.5-.61,3-1.37,4.51-.71,1.23-1.4,2.61-2.08,4.16-.99,2.17-1.31,4.49-.95,6.95.08.83.29,1.98.65,3.44.08.44.07,1.23,0,2.37-.08.75-.5,1.39-1.25,1.9-.32.23-.68.35-1.07.36-.71-.16-1.21-.46-1.49-.89-1.43-2.1-2.87-4.65-4.33-7.66-.4-.79-.61-1.75-.65-2.85.12-5.18.5-8.71,1.13-10.57.08-.16.16-.52.23-1.07.44-4.83.64-7.8.6-8.91,0,.79.08-1.15.24-5.82.08-1.15.36-2.49.83-4.03.08-.36.42-.83,1.01-1.43.4-.4,1.11-.73,2.14-1.01l-.47.95.06-.41c.04-.08.16-.22.36-.42-.12-1.15-.16-1.76-.12-1.84.04-.28.12-.73.23-1.36.16-.71.26-1.21.3-1.48.32-3.01-.06-5.52-1.13-7.54-.04-.12-.1-.3-.17-.54-.16-.68-.08-1.23.24-1.66.79-1.19,1.27-2.04,1.42-2.55,0-.2.32-1.13.95-2.79.95-2.49,1.44-3.78,1.48-3.86,1.39-4.36,2.83-8.83,4.34-13.42.56-1.51.69-3.07.42-4.69-.12-.75-.28-1.52-.48-2.31-.51-1.94-.43-3.88.24-5.82.31-.83.49-1.39.54-1.66.12-.64.12-1.23,0-1.78l-.36-1.07c-.2-.59-.35-.97-.47-1.13-.16-.67-.12-1.24.12-1.72-.16.32.16-.61.95-2.79.55-1.51.65-2.89.3-4.16-.36-1.46-.28-3.01.24-4.63.07-.55.26-1.31.53-2.26.23-1.07.41-1.82.53-2.26.16-.71.71-2.81,1.66-6.29,1.07-3.52,1.62-5.42,1.67-5.7.32-.63.59-1.68.83-3.14.32-1.43.63-2.45.95-3.09.2-.59.38-1.35.53-2.26.12-1.23.22-2.02.3-2.37-.28.95.56-1.7,2.5-7.96.16-.51-.02-1.05-.53-1.6-.36-.47-.87-.63-1.55-.47-2.53.51-4.61,1.6-6.24,3.26-5.23,5.3-8.69,9.06-10.39,11.28-2.49,3.21-3.98,5.28-4.45,6.23-.08.16-.2.29-.36.41-.39.39-.67.65-.83.77-.64.28-1.19.49-1.66.65-1.34.31-2.34,1.21-2.97,2.67-.87,1.94-1.55,3.78-2.02,5.52-.32,1.03-.79,1.88-1.42,2.55-.75.71-1.56,1.84-2.44,3.38-.99,1.78-1.7,2.91-2.14,3.38-.16.71-.54,1.76-1.13,3.15-.63,1.26-1.03,2.26-1.19,2.97-.35,1.3-.73,2.45-1.13,3.44-2.42,5.81-4.61,10.21-6.59,13.18-2.18,3.36-4.16,7.22-5.94,11.57-1.11,2.81-2.48,5.83-4.1,9.08l-1.19,2.38-1.19,2.38c-.99,1.98-1.44,3.48-1.36,4.52-1.31,4.99-2.4,8.35-3.27,10.09-1.5,3.01-3.31,6.51-5.4,10.5-.16.32-.44.57-.83.77-2.06,1.15-3.92,1.2-5.58.18-2.97-1.98-4.99-3.29-6.05-3.92-1.11-.56-2.06-1.53-2.85-2.91-.2-.2-.44-.72-.71-1.55-.44-.91-.85-1.56-1.24-1.96-.52-.36-.81-.65-.89-.89-.52-1.35-1.3-2.93-2.37-4.75-.28-.44-.39-.99-.36-1.66.2-1.78.08-3.52-.35-5.22-.16-.68-.3-1.49-.42-2.44-.12-1.35.18-2.43.9-3.26,1.03-1.27,1.64-2.5,1.84-3.68.08-.36.35-1.11.83-2.26.47-.95.77-2.04.89-3.27.04-.67.14-1.76.3-3.26.12-1.42.22-2.51.3-3.26.24-2.06,1.21-6.87,2.91-14.43.2-.79.59-1.48,1.19-2.08.67-.55,1.09-.99,1.25-1.3.16-.51.2-.89.12-1.13-.12-.16-.58-1.03-1.37-2.61ZM1155.56,93.06c-.12-.36-.38-.54-.77-.54-.24.08-.37.16-.41.24-.12.44.06.68.53.71.28.04.52-.14.71-.53.43.31,1.82.81,4.16,1.48-2.1,1.03-3.8,2.35-5.11,3.97-.59.79-1.44,1.11-2.56.95-.71-.16-1.28-.1-1.72.18-.2.2-.33.37-.41.53,0,.2.12.36.36.48.91.55,2.24,1.36,3.98,2.43.55.28,1.09.1,1.6-.53.64-.67.99-1.09,1.07-1.25.87-1.74,1.68-2.87,2.43-3.38.35-.32.51-.84.47-1.55.04-.08,0-.69-.12-1.84-1.34-.87-2.1-1.35-2.26-1.42-.67-.44-1.33-.42-1.96.06ZM1155.62,105.7l.29.3.18-.35-.47.06ZM1168.32,124.53c.6.39,1.25.48,1.96.24.79-.2,1.29-.6,1.48-1.19.28-.76.4-1.68.36-2.79-.12-.76-.52-1.15-1.19-1.19-.99,0-1.7.24-2.14.71-.71,1.03-1.07,2.14-1.07,3.33.08.04.27.34.59.89ZM1145.74,172.02c-.2-.2-.34-.32-.42-.36l-.3.29.41.35.3-.29ZM1178.59,123.58c.32-.63.45-1.01.41-1.13.2-.8-.14-1.41-1.01-1.84-.44-.12-.79,0-1.07.36-.2.39-.5,1.48-.89,3.27-.08.55.24,1.01.95,1.37,1.02.51,1.56.24,1.6-.83.04-.08.04-.48,0-1.19ZM1180.67,114.97l-.3.29c.15.47.39.5.71.06l-.41-.35ZM1186.73,114.14l-.42-.06c-.43.28-.39.49.12.65.24.12.41.06.53-.18l-.24-.41ZM1205.26,78.29l-.18.06-.06.12.24-.18ZM1207.05,76.21c.44.12.71-.04.83-.48.12-.44-.06-.68-.53-.71-.2,0-.33.08-.42.24-.28.35-.24.67.12.95ZM1213.1,66.47c-.08-.04-.18-.04-.3,0l-.12-.06-.06.41.41.06c-.04-.12-.02-.26.06-.42ZM1208.71,79.71c.08.44.25,1.07.53,1.9.08.44.27.73.59.89l.3-.3-1.07-.53c0-.2-.08-.53-.24-1.01-.12-.36-.22-.65-.3-.89l.18-.06ZM1215.54,71.7c-1.43-.52-2-.76-1.72-.71-.12.04-.2.2-.24.47-.08.16-.06.32.06.48.59,1.39,1.7,2.34,3.32,2.85.44.12.77.04,1.01-.24.6-.6.51-1.13-.24-1.6-.51-.36-.65-.47-.42-.36l-1.78-.89ZM1210.25,85.83l.24-.18-.36-.18.12.36ZM1225.75,62.26c.27-.75.04-1.17-.71-1.25-.36-.08-.59.1-.71.53-.2.79.14,1.11,1.01.95l.42-.24ZM1228.84,58.17c-.4-.2-.65-.08-.77.36.04.12.18.24.42.36.36.27.55.18.59-.3l-.24-.41ZM1225.1,74.85c-.64-.12-1.01.24-1.13,1.07,0,.39.2.69.59.89.63.32,1.05.08,1.25-.71.2-.8-.04-1.21-.71-1.25ZM1228.89,74.67l.06.47c.35.28.63.22.83-.17.08-.16.06-.32-.06-.48-.35-.28-.63-.22-.83.18ZM1225.51,82.63l.3-.29-.29-.3-.3.3.29.3ZM1229.07,79.96c-.44-.32-.77-.53-1.01-.65-.36-.08-.67.06-.95.41-.2.4-.16.71.12.95.35.28.71.26,1.07-.05-.2.2-.08.05.36-.42l.36-.42c.71,1.35,1.2,2.14,1.48,2.37,0,.2.12.26.36.18.43-.08.55-.32.36-.71-.2-.39-.46-.67-.77-.83-.04-.12-.49-.4-1.36-.83ZM1237.45,61.43c-.04-.12-.14-.22-.3-.3-.51.04-.63.28-.36.71h.59s.06-.41.06-.41ZM1241.78,58.11h-.3s.18-.35.18-.35l-.24.48.36-.12ZM1234.47,81.03l-.06-.47c-.35-.28-.59-.2-.71.24-.12.24-.1.39.06.47.27.23.52.16.71-.24ZM1242.55,68.15c-.16-.48-.41-.66-.77-.54-.51.04-.63.27-.36.71.28.44.62.55,1.01.36l.12-.53ZM1246.71,61.32c.99-.2,1.68-.49,2.08-.89.28-.36.32-.73.12-1.13-.12-.16-.28-.24-.48-.24-.16-.08-.34-.12-.53-.11-.83.08-1.47.45-1.9,1.12-.2.39-.26.71-.18.95.04.32.34.41.89.3ZM1236.07,86.43c.36.27.69.3,1.01.06.28-.16.4-.4.36-.72,0-.39-.14-.61-.41-.65-.44-.12-.79,0-1.07.35-.2.39-.16.71.12.95ZM1244.69,74.56c-.28-.44-.46-.78-.54-1.01-.2-.4-.47-.54-.83-.42-.16.11-.2.29-.12.53.04.12.17.24.41.36l1.07.54ZM1239.76,80.55c.2.2.33.32.41.36.51-.04.63-.28.36-.72-.04-.12-.18-.14-.42-.06-.08-.04-.2.1-.35.41ZM1242.73,78.48c-.52-.36-.8-.6-.83-.72-.16-.08-.32-.06-.48.06-.4.4-.32.63.24.71.08.04.42-.04,1.01-.24l.06.18ZM1214.39,143.42c.2-.4.24-.77.12-1.13-.27-.63-.77-.83-1.48-.59-.95.32-1.31.93-1.07,1.84.08.44.27.73.59.89.39.2.77.14,1.13-.18l.71-.83ZM1245.81,85.07c.12-.83.11-1.33,0-1.48l-.36.42c.08.04.26.37.53,1.01l-.18.06ZM1219.73,147.58c.52-1.03.77-1.94.78-2.73,0-.2-.14-.52-.42-.95-.2-.4-.53-.52-1.01-.36-1.11.43-1.96,1.14-2.55,2.13-.52.83-.58,1.74-.18,2.73.31.95.93,1.21,1.84.77.71-.44,1.23-.97,1.54-1.6ZM1222.23,136.66c-.08.36.04.71.36,1.07.39.59.85.57,1.36-.06s.42-1.12-.3-1.48c-.36-.28-.71-.26-1.07.06l-.36.42ZM1217.58,177.68l.06-.12c.04-.28.12-.63.23-1.07l-.29,1.19Z"/>
    </g>
  </g>
</svg>