<svg width="375" height="294" viewBox="0 0 375 294" fill="none" xmlns="http://www.w3.org/2000/svg">
<path d="M114.979 0.109375C115.039 -0.0707431 115.311 0.0188084 115.462 0.0488281C115.854 0.228992 115.944 0.709473 116.095 1.09961C116.426 1.12963 116.819 1.2199 116.909 1.58008C117.12 2.30054 117.181 3.05102 117.302 3.77148C117.362 3.56143 117.422 3.38097 117.513 3.1709C117.754 3.17096 118.026 3.26122 118.086 3.53125L117.935 3.68164C118.146 4.70228 117.844 5.78307 118.146 6.80371C118.99 8.39475 119.805 10.1358 119.654 11.9971C119.624 12.4473 119.353 12.838 119.111 13.1982C118.659 13.8285 118.568 14.6085 118.297 15.2988C118.508 15.7791 119.141 16.3803 118.688 16.8906C117.874 18.0613 117.422 19.4419 116.668 20.6426C115.009 23.2843 113.17 25.7762 111.511 28.418C111.269 28.7782 110.817 28.8985 110.425 29.0186C109.369 29.3187 108.404 29.8584 107.318 30.0986C105.569 30.5189 103.789 30.8797 102.01 31.21C100.773 31.4501 99.5061 31.4493 98.2695 31.5693C97.9679 31.8695 97.8472 32.3507 97.4551 32.5908C97.0028 32.5307 96.6407 32.1699 96.1582 32.1699C96.0979 33.1906 95.9173 34.2118 95.7363 35.2324C96.4299 36.193 96.822 37.3636 97.0029 38.5342C97.2442 39.9751 97.0328 41.4165 97.1836 42.8574H97.5459C97.576 43.1874 97.6066 43.4874 97.6367 43.8174C97.3351 43.9675 96.9724 44.0877 96.6406 44.1777C96.5803 43.8777 96.5203 43.5774 96.46 43.2773C96.5203 43.2173 96.6409 43.0971 96.7012 43.0371C96.671 41.7163 96.7316 40.3953 96.5205 39.1045C96.3395 38.174 95.9171 37.3036 95.4346 36.4932C95.0726 38.6545 94.5601 40.7861 94.7109 42.9775C94.8617 47.6605 94.9519 52.3138 95.1328 56.9668C95.7662 57.0569 96.5204 57.0268 97.0029 57.5371C97.4853 58.0774 97.3045 58.8279 97.2441 59.4883C96.7616 63.5708 96.2793 67.6233 95.7666 71.6758C95.646 72.3362 95.6453 73.1474 95.0723 73.5977C95.1929 76.5094 95.3139 79.4511 95.917 82.3027C96.2186 84.2839 96.3092 86.4155 95.4648 88.3066C95.1331 89.0571 94.2885 89.5081 94.1377 90.3486C94.1377 91.099 94.1676 91.8797 94.0771 92.6602C93.8912 94.3032 93.8304 95.964 93.7295 97.6152C97.6567 97.9946 102.431 96.9985 106.24 96.9902C113.93 96.7158 113.219 100.88 115.049 103.414C116.221 105.365 118.522 107.065 121.318 108.603C125.227 110.74 130.264 112.935 135.13 114.354C135.167 114.266 135.204 114.179 135.247 114.094C134.734 113.643 134.252 112.953 134.584 112.263C135.217 110.852 135.88 109.411 135.971 107.85C135.91 105.838 135.187 103.947 134.704 102.026C134.433 100.916 134.041 99.8046 133.98 98.6338C133.92 97.7333 134.584 97.0729 135.006 96.3525C135.247 95.9323 134.946 95.4813 134.795 95.1211C133.92 93.4701 134.071 91.5489 133.89 89.7178C133.558 84.4345 132.925 79.1212 133.559 73.8379C133.649 71.7065 133.98 69.5748 134.674 67.5635C133.709 67.1433 132.592 66.9934 131.748 66.333C131.869 65.9728 131.99 65.5817 132.08 65.1914C132.713 61.4992 133.528 57.807 133.92 54.0547C134.252 51.1128 134.403 48.1106 134.312 45.1387C134.252 43.9379 134.252 42.7369 133.98 41.5361C133.799 40.5757 132.895 39.9755 132.171 39.4053C128.853 37.0037 125.686 34.4214 122.851 31.4795C122.127 30.789 121.886 29.7681 121.735 28.8076C121.434 26.8865 121.012 24.9651 120.71 23.0439C120.589 21.9934 120.468 20.9129 120.619 19.8623C120.77 18.9317 120.679 18.0009 120.498 17.0703C120.408 16.6202 120.89 16.3802 121.132 16.0801C120.921 15.5097 120.649 14.939 120.559 14.3086C120.408 13.1979 120.589 12.0572 120.891 10.9766C121.222 9.83595 120.89 8.66503 121.011 7.52441C121.041 7.16425 121.645 6.89358 121.766 7.31348C121.947 7.97391 121.946 8.69504 122.097 9.35547C122.278 8.12466 122.308 6.89317 122.459 5.69238C122.459 5.42257 122.67 5.24244 122.851 5.0625C122.971 5.09252 123.213 5.1526 123.334 5.18262C123.394 4.8524 123.455 4.4316 123.847 4.31152C124.359 4.19197 124.389 4.8525 124.479 5.18262C124.57 5.09256 124.751 4.88205 124.842 4.79199C125.565 5.06218 125.354 5.93285 125.444 6.5332C125.565 7.79403 125.354 9.02505 125.354 10.2559C125.716 9.89575 126.048 9.53591 126.53 9.38574C126.862 9.26566 127.376 9.29529 127.526 9.68555C127.406 10.1058 126.862 10.1661 126.651 10.5264C126.259 11.2167 125.867 11.9069 125.626 12.6572C125.415 13.3175 124.812 13.7379 124.54 14.3682C124.389 14.7583 124.268 15.2088 124.419 15.6289C124.751 16.5895 124.631 17.6109 124.872 18.6016C125.053 18.9917 125.324 19.3223 125.294 19.7725C125.234 20.5828 125.746 21.2736 125.776 22.084C125.837 23.1044 126.44 23.9146 126.682 24.875C126.893 25.7455 127.586 26.3165 128.068 27.0068C128.4 27.3971 128.551 27.9076 128.883 28.2979C129.999 29.0483 131.025 29.9185 132.141 30.6689C132.774 30.729 133.437 30.7895 133.89 31.2998C135.609 31.4799 137.328 31.8398 138.957 32.4102C139.56 32.6503 140.194 32.1999 140.797 32.5C141.43 32.8302 142.063 33.2808 142.305 34.001C142.727 34.1811 143.27 34.0012 143.723 33.9111C144.175 33.791 144.085 33.2813 144.175 32.9512C143.572 32.7711 142.848 32.6806 142.365 32.2305C142.033 31.9003 142.063 31.4193 142.063 30.999C142.093 29.7984 141.43 28.7175 141.279 27.5469C141.189 26.8265 141.732 26.256 141.943 25.5957C141.973 25.0254 141.491 24.3948 141.853 23.8545C142.245 23.2542 142.456 22.5939 142.606 21.9336C142.516 21.8435 142.395 21.7231 142.335 21.6631C142.516 21.0928 142.546 20.4324 142.938 19.9521C144.085 18.6614 145.864 18.1211 147.553 18.001C148.91 18.001 150.207 18.4214 151.413 19.0518C151.775 19.2619 152.167 19.5019 152.288 19.9521C153.163 20.2823 153.495 21.2127 153.856 21.9932C154.309 23.1039 154.037 24.2753 153.796 25.416C153.434 26.7668 152.77 27.998 151.926 29.1387C151.504 29.7989 150.93 30.4292 150.87 31.2695C150.81 32.2001 150.87 33.191 151.232 34.0615C151.383 34.5118 151.926 34.4519 152.288 34.542C152.62 34.602 152.892 34.7818 153.133 34.9619C154.55 35.9526 155.998 36.9436 157.566 37.6641C158.562 38.0844 159.346 38.9245 159.769 39.915C161.005 42.3466 160.944 45.1386 161.216 47.7803L161.307 47.6299C161.699 51.0221 161.698 54.4449 161.698 57.8672C162.03 60.9591 162.301 64.081 161.939 67.1729C161.849 67.7432 161.668 68.3137 161.607 68.9141C161.517 69.5445 161.668 70.2055 161.518 70.8359C161.397 71.2861 161.005 71.6763 161.005 72.1865C160.914 73.0871 161.005 73.9881 161.005 74.8887C161.276 75.8491 160.884 76.81 160.794 77.7705C160.492 78.6709 159.708 79.3307 158.863 79.751C158.17 80.2313 157.355 80.4121 156.541 80.5322C156.481 80.3522 156.42 80.142 156.39 79.9619C156.691 79.5717 157.084 79.2706 157.295 78.8203C157.747 78.0699 157.777 77.1695 157.808 76.3291C157.868 75.9989 157.536 75.7891 157.234 75.7891C156.963 76.6596 157.144 77.8906 156.239 78.4609C155.938 78.7009 155.605 78.4903 155.605 78.1602C155.636 77.1095 155.877 76.0887 155.877 75.0381C155.877 74.1977 156.33 73.4774 156.511 72.667C156.843 72.0666 157.144 71.4358 157.295 70.7754C157.144 70.4752 156.993 70.1446 156.933 69.8145C156.903 69.2143 157.204 68.6441 157.023 68.0439C156.601 66.0027 156.48 63.9013 156.148 61.8301C156.088 59.9088 156.149 57.9569 155.666 56.0957C155.545 55.6155 155.425 55.1648 155.305 54.6846C154.792 55.7353 154.581 56.8768 153.978 57.8975C154.581 59.0381 155.395 60.329 155.033 61.6797C154.943 62.3101 154.52 62.7907 154.219 63.3311C154.249 64.2314 154.913 64.9518 155.033 65.8223C155.154 66.993 155.032 68.1942 154.821 69.335C154.701 70.1453 154.822 70.9856 155.003 71.7959C154.852 72.6365 155.154 73.4473 155.214 74.2578C155.455 75.5485 155.244 76.8392 155.425 78.1299C155.576 79.0905 155.304 80.0213 155.062 80.9219C154.791 81.7024 154.912 82.5134 154.791 83.2939C154.64 84.2845 154.912 85.2455 155.003 86.2061C155.425 88.8176 155.817 91.4893 155.364 94.1309C155.153 94.9413 155.756 95.6317 155.847 96.4121C155.997 97.0725 155.667 97.8234 156.059 98.4238C156.541 99.1142 156.149 99.9549 156.209 100.735C156.299 103.347 156.209 105.959 155.907 108.57C155.666 110.221 155.576 111.992 154.762 113.493C155.243 113.77 155.996 114.006 156.174 114.571C161.255 113.44 166.187 111.874 171.176 110.983C186.782 108.832 202.993 115.569 211.916 121.69C214.338 123.36 216.734 125.209 220.477 126.153C225.182 127.416 230.959 126.918 235.861 127.901C240.446 129.03 244.497 130.71 249.828 130.547C254.544 130.566 259.869 130.554 263.597 132.238C269.249 134.581 270.478 138.466 275.389 140.93C281.364 143.278 290.684 139.081 297.996 139.726C305.76 140.05 314.55 142.188 321.878 143.971C331.124 146.429 331.777 144.543 339.295 142.686C347.134 141.251 352.228 144.008 361.152 142.085C364.551 141.584 368.191 141.258 371.835 141.303C372.891 141.331 373.948 141.371 375 141.412V293.588H0V83.5762C0.531139 83.5755 1.0668 83.563 1.61133 83.5381C5.3706 83.3749 10.1022 82.5651 13.5664 83.3721C15.1115 83.7159 16.4404 84.3597 17.6797 85.1777C21.2093 87.2877 24.1531 92.2752 29.8477 89.6133C33.0719 88.3437 37.3059 84.6987 42.4102 86.0322C47.6533 87.4871 49.8391 91.6762 56.667 91.2861C63.055 91.021 71.042 88.424 77.8438 88.7217C78.0123 87.9057 77.9321 87.036 78.3936 86.2959C78.5443 85.9958 78.7858 85.7255 78.7559 85.3955C78.6654 84.3449 79.057 83.3239 79.4189 82.3633C79.6904 81.6728 79.5098 80.9522 79.5098 80.2617C79.359 78.5807 79.54 76.8697 79.2988 75.2188C79.148 74.2582 79.0868 73.2974 79.0566 72.3369C76.2216 71.9167 73.3565 71.5858 70.5215 71.2256C70.0088 71.1655 69.4355 70.9852 69.1641 70.5049C68.9231 70.1448 68.9835 69.6948 69.0137 69.3047C69.4661 65.4923 69.9488 61.7098 70.3711 57.8975C68.6821 57.7173 66.9923 57.3265 65.4541 56.666C64.4891 56.2458 63.6146 55.6451 62.9512 54.8047C62.8004 56.3657 63.4639 57.8372 63.7354 59.3682C64.0671 60.9591 64.0668 62.58 64.1572 64.1709C64.2779 64.6512 63.7048 64.6514 63.373 64.6514C63.5238 62.43 63.1624 60.2385 62.71 58.0771C62.4385 56.7863 62.1665 55.4051 62.5586 54.1143C62.3476 53.7843 62.1672 53.454 61.9863 53.124C61.6244 54.0246 61.3224 54.9554 61.3525 55.916C61.3526 56.5463 61.6237 57.1468 61.8047 57.7471C62.3777 59.4281 62.3476 61.2591 61.8047 62.9102C61.6841 63.2704 61.6841 63.6905 61.3223 63.9307C61.1109 63.7807 60.5382 63.7504 60.8096 63.3604C61.5635 61.7694 61.624 59.9383 61.3525 58.1973C61.2621 57.3268 60.991 56.4564 60.9307 55.5859C60.9005 54.3552 61.2618 53.1539 61.8047 52.0732C61.5936 51.0227 61.1116 50.0622 60.9004 49.0117C60.6289 47.871 60.3877 46.6998 60.3877 45.499C60.3575 43.6979 60.327 41.8666 60.5381 40.0654C60.6286 38.0241 60.5079 35.9827 60.5381 33.9414C60.2667 34.5117 59.9955 35.0822 59.5732 35.5625C59.2716 35.4724 59.0299 35.2321 58.9395 34.9619C59.2109 34.5416 59.5428 34.2113 59.7539 33.791C60.2967 32.8004 60.5079 31.6598 60.7793 30.5791C60.5983 30.4291 60.3571 30.339 60.2666 30.1289C60.5079 29.7687 60.8395 29.4681 61.0205 29.0479C61.3221 28.3575 61.8356 27.7876 62.2578 27.1572C62.0165 25.9865 62.197 24.8155 62.3779 23.6748C62.4684 23.0144 62.8605 22.4737 63.1621 21.9033C63.7955 20.7626 64.55 19.682 65.3945 18.6914C66.0881 17.9711 66.9623 17.4304 67.8066 16.9502C69.375 16.3498 71.095 15.8995 72.7539 16.2598C73.749 16.5 74.6239 17.0099 75.5889 17.25C76.4032 17.4601 77.2476 17.6709 77.9111 18.2412C78.7556 18.8716 79.419 19.7425 80.2031 20.4629C80.6555 20.1027 81.259 19.8324 81.832 20.1025C82.4048 20.2827 82.7364 20.8226 83.0078 21.3027C83.5807 21.0626 84.2143 21.0929 84.8174 21.0029C85.6317 20.4626 86.0547 19.5019 86.0547 18.5713C85.8737 17.3405 85.2702 16.1996 84.667 15.0889C83.9432 13.7381 83.7926 12.1173 84.1846 10.6465C84.5163 8.7553 85.6926 6.92415 87.5625 6.26367C88.8292 5.90344 90.1563 5.8733 91.4834 5.90332C92.2073 5.90332 92.9011 6.23311 93.625 6.08301C94.3487 5.84297 95.0725 6.26312 95.6455 6.65332C96.2185 7.07353 96.3089 7.82402 96.3994 8.48438C96.4597 8.87463 96.1579 9.14555 95.8262 9.26562C96.2785 10.1362 96.5201 11.0965 96.9424 11.9971C97.3345 12.5674 96.4906 13.0778 96.8525 13.6182C97.305 14.4286 97.9981 15.0895 98.2695 15.96C98.2692 16.65 97.3946 16.5596 96.9121 16.5596C96.882 17.1298 96.641 17.6403 96.249 18.0605C96.3998 18.2407 96.5201 18.4214 96.6709 18.6016C96.5804 18.8716 96.4596 19.142 96.3691 19.4121C96.7009 19.9524 96.9126 20.7929 96.2793 21.2432C95.3443 21.7235 94.1674 21.183 93.2324 21.6934C93.0214 22.0835 92.9006 22.5337 92.7197 22.9238C94.65 22.8338 96.5811 23.2543 98.4209 23.7646C98.6318 23.8247 98.783 23.9451 98.9639 24.0352C99.6876 23.8251 100.441 23.6451 101.104 24.0352C102.311 23.5849 103.639 23.4043 104.936 23.4043C105.297 23.4342 105.599 23.1342 105.931 23.0742C106.142 23.1042 106.383 23.1939 106.594 23.2539C106.865 22.8337 107.258 22.5341 107.771 22.4141C108.132 21.8437 108.645 21.363 109.248 21.0928C109.821 21.0027 110.033 20.4025 110.425 20.0723C111.209 19.3518 111.873 18.5112 112.597 17.7607C113.019 17.3706 113.049 16.7402 113.41 16.29C114.013 15.4795 114.526 14.6384 115.069 13.7979C115.341 13.3177 115.974 13.1074 116.125 12.5371C116.487 11.8468 116.336 11.0366 115.975 10.4062C115.492 9.62574 115.582 8.66477 115.25 7.82422C115.129 7.37397 114.798 7.01353 114.496 6.65332C114.768 6.23304 115.281 6.23271 115.703 6.38281C115.552 5.87261 115.401 5.39206 115.25 4.88184C114.949 3.92135 114.979 2.87035 114.858 1.87988C114.738 1.27972 114.918 0.709544 114.979 0.109375ZM144.355 82.7236C143.873 84.7348 143.27 86.7464 143.27 88.8477C143.27 90.4986 142.998 92.1498 142.998 93.8008C142.998 94.4311 142.757 95.0315 142.546 95.6318C142.576 96.0821 142.848 96.5028 142.848 96.9531C142.848 99.9248 142.848 102.896 142.667 105.868C142.516 107.789 142.184 109.711 142.063 111.632C142.606 112.142 143.33 112.623 143.33 113.434C143.39 113.914 142.938 114.154 142.576 114.334C142.757 114.604 142.969 114.904 142.969 115.265V115.841C144.862 115.973 146.716 115.938 148.54 115.789C148.455 115.519 148.386 115.243 148.337 114.965C148.246 114.455 148.428 113.854 148.94 113.644C149.242 113.464 149.784 113.433 149.814 112.983C149.965 112.413 149.543 111.932 149.302 111.452C148.608 110.101 148.427 108.57 148.246 107.1C148.125 105.298 148.488 103.527 148.488 101.726C148.488 100.825 148.91 99.9845 148.729 99.084C148.639 98.3936 148.398 97.7033 148.156 97.043C147.674 95.6921 147.764 94.1905 147.402 92.8096C146.588 89.3875 145.682 85.9656 144.355 82.7236ZM86.3867 91.249C86.2315 91.3932 86.0703 91.5279 85.9092 91.6592C86.0594 91.8483 86.2007 92.0421 86.335 92.2402C86.3498 91.9099 86.367 91.5794 86.3867 91.249ZM94.0469 48.0811C93.8057 48.9515 93.8055 49.8821 93.7754 50.8125C93.7754 52.7637 93.6852 54.7449 93.3535 56.666C93.5645 56.696 93.7755 56.7558 94.0166 56.7559C94.0468 53.9342 94.0469 51.0824 94.0469 48.2607H94.0771L94.168 48.0811H94.0469ZM82.4951 21.333C82.1332 20.9429 81.5302 20.5825 81.0176 20.9424C80.6858 21.1525 81.018 21.543 81.1387 21.7832C81.5908 21.6632 82.0429 21.513 82.4951 21.333Z" fill="black"/>
</svg>
