<svg preserveAspectRatio="none" viewBox="0 0 375 359" fill="none" xmlns="http://www.w3.org/2000/svg">
<path d="M375 358.999C359.078 357.597 344.067 350.61 334.85 344.1C331.62 341.8 328.419 339.25 323.43 337.97C317.16 336.25 309.49 336.99 302.96 335.66C296.85 334.13 291.45 331.83 284.36 332.1C278.09 332.11 271.01 332.17 266.04 329.86C258.51 326.65 256.84 321.27 250.29 317.89C242.32 314.68 229.96 320.58 220.23 319.74C209.911 319.34 198.2 316.45 188.44 314.03C176.13 310.69 175.27 313.31 165.29 315.95C154.88 318 148.08 314.21 136.23 316.95C131.711 317.67 126.88 318.15 122.03 318.12C112.23 317.9 102.37 316.85 94.9102 320.33C89.0202 322.72 85.7299 327.31 77.9199 328.42C73.5199 329.07 68.3798 328.43 63.7598 327.91C50.3298 326.4 35.8295 327.28 22.8096 329.47C16.5297 330.63 9.21953 331.52 3.13965 329.38C2.04658 329.038 1.00773 328.629 0 328.195V0H375V358.999Z" fill="black"/>
</svg>
