<svg width="108" height="149" viewBox="0 0 108 149" fill="none" xmlns="http://www.w3.org/2000/svg">
<path d="M104.478 137.77C101.558 136.64 99.478 133.63 97.228 132.2C96.888 131.46 97.108 129.68 95.628 129.81C95.238 129.4 94.908 128.93 94.638 128.42C92.508 117.11 96.048 119.23 95.988 117.44C95.958 116.46 95.128 115.83 94.908 114.58C93.798 108.34 94.418 100.34 90.828 94.7C85.378 86.14 76.748 80.55 69.128 74.64C67.688 72.06 64.938 71.63 63.308 69.86C63.308 69.53 63.078 69.21 63.058 68.89C63.968 65.34 61.438 62.99 58.168 61.81C57.678 60.74 57.798 59.55 58.648 58.34C57.788 55.64 55.398 54.26 52.858 54.85C51.338 51.54 44.798 48.07 45.098 44.9C48.618 42.63 51.268 39.48 53.098 35.44C54.108 33.22 57.358 31.61 57.548 28.97C57.808 25.51 56.698 22.19 56.618 18.77C56.528 14.85 57.208 8.86 56.348 4.98C55.868 2.81 55.348 1.18 53.258 0C51.848 2.46 52.658 2.05 52.728 4.79C52.778 6.94 51.598 12.73 51.338 14.86C50.908 18.27 50.488 21.69 50.058 25.1C49.968 25.83 50.038 26.56 50.148 27.28C50.338 28.56 49.958 29.98 48.658 30.4C44.588 31.71 42.938 35.82 39.828 37.99L31.428 43.84C29.388 45.26 26.268 40.93 25.888 38.87C25.758 38.14 26.118 36.99 25.568 36.58C24.758 35.97 23.968 35.68 23.168 36.01C21.568 36.68 20.338 35.34 19.168 34.19C18.758 33.78 18.088 33.83 17.708 34.26C15.928 36.27 12.778 37.51 10.618 38.5C6.91799 40.19 6.74799 46.26 8.28799 49.35C8.28799 49.35 9.57799 52.45 10.048 53.2C10.518 53.95 11.348 54.03 12.398 54.37C13.208 54.64 13.838 55.58 14.238 54.78C15.968 54.16 17.788 53.9 18.068 54.96C15.528 57.76 14.328 63.57 13.598 68.06C12.908 72.3 10.068 75.24 8.85799 79.11L3.13799 97.51C2.12799 100.77 0.917993 104.2 0.127993 107.26C-0.682007 110.37 2.51799 113.75 5.06799 113.97C6.01799 114.06 5.73799 112.44 5.41799 112.16C5.13799 111.93 4.82799 111.8 4.08799 111.47C2.79799 108.93 4.94799 106.34 5.22799 103.97C6.15799 96.14 11.978 90.85 15.538 81.96C16.888 78.6 17.048 75.58 19.618 72.79C21.358 70.9 21.898 67.9 23.308 65.93C23.968 66.13 24.988 65.66 25.588 65.99C28.378 67.51 31.888 67.94 34.828 69.34C41.178 72.36 37.518 81.35 37.618 82.65L38.278 90.75C38.548 94.01 38.838 97.41 37.078 100.71C38.108 103.1 41.878 105.91 44.408 105.88H45.058C45.298 108.15 44.158 109.52 43.808 111.85C43.258 115.6 44.768 131.81 39.748 128.59C41.778 130.75 41.278 132.74 39.908 134.99C37.528 138.88 37.048 144.26 40.358 147.32C41.648 148.51 43.048 148.98 44.568 148.58C46.108 148.17 45.338 146.27 45.828 145.12C46.468 143.63 46.718 142.22 46.608 140.54C46.518 139.26 46.798 137.94 46.638 136.66C46.548 135.96 46.688 135.23 46.658 134.53C46.648 134.17 46.798 133.35 46.108 133.65C46.328 133.2 46.538 132.77 46.668 132.28C49.378 121.71 49.968 124.5 52.708 115.81L53.568 115.57C54.698 115.26 55.528 114.62 55.568 113.37L55.648 111.13C57.448 110.15 57.718 107.85 58.438 105.77C59.488 102.72 62.078 100.35 62.948 97.31C63.528 95.26 63.198 93.19 64.878 91.77C65.538 91.62 66.218 91.5 66.888 91.42C68.068 92.85 69.598 94.02 71.388 94.53C71.678 95.19 72.718 95.07 73.158 95.46C76.158 98.12 78.448 103.39 80.498 102.92C79.958 106.56 83.398 110.04 84.078 119.08C84.118 119.59 85.448 119.5 85.878 119.54C86.078 119.56 86.338 119.62 86.558 119.61L88.018 130.54C88.108 131.21 86.458 131.78 86.598 132.53C86.718 133.14 87.438 133.55 88.018 133.77C88.158 135.29 85.778 138.92 88.138 140.72C90.418 142.46 93.918 139.07 97.598 140.72C100.048 141.83 103.838 144.95 106.458 143.8C108.518 142.67 106.408 138.51 104.458 137.75L104.478 137.77Z" fill="black"/>
</svg>
