<svg xmlns="http://www.w3.org/2000/svg" data-name="Layer 2" viewBox="0 0 98.8 1140.1"><path d="M97 545q5-13-6-19-5-3-5-8v-3q-1-6-5-9-5-1-9 3L61 0h-1l8 397 1 97v35q0 4-2 8-7 7-9 17-2 3-5 3H43q-8 1-13 8l-10 12q-5 6-11 5H3q-4 0-3 4 3 4 7 4l9 2q2 1 3-2 1-5 7-9 7-4 12-10 2-1 4 0 5-2 3 3l-3 13q-1 3-6 4l-6 4q-2 3 2 4l11 2q3 1 3-2-1-6 2-11 5-6 7-14 1-2 5-3l4 2q2 5 6 2 3-1 2 2v17c-2 32-5 20-7 52l-8 132-5 82-7 82a1026 1026 0 0 1-32 190l2 8 2-1-2-5q-1-13 2-25 11-34 17-68a1866 1866 0 0 0 19-181l4-63 4-71 5-66c1-22 1-31 4-42l1 1-3 84-2 86-4 76-4 69-7 79-10 74q-2 15 1 30 1 7 4 13l2-1q-7-12-6-28 2-26 6-53 7-44 10-88l5-74a3759 3759 0 0 0 8-247c1-35 3-26 3-61q-1-3 2-3 3 1 1 4-2-2-2 0l1 4q4 4 7 8l2 1q3-2 2-5l1-2h5l4-7q-2-2-5-1l-1-1c1-3 4-6 1-9q-3-5-1-10zm-19 33z" data-name="Layer 1"/></svg>