<?xml version="1.0" encoding="UTF-8"?>
<svg id="Layer_1" xmlns="http://www.w3.org/2000/svg" version="1.1" viewBox="0 0 179 81">
  <!-- Generator: Adobe Illustrator 30.1.0, SVG Export Plug-In . SVG Version: 2.1.1 Build 136)  -->
  <path d="M32.3,59.2c-1.1,2.1-2.3,4-3.5,5.5-.4.5-.9.7-1.5.6h-.2c-.2,0-.4.2-.4.5,0,.2,0,.3,0,.4s0,.2,0,.4c0,.2,0,.5-.2.8-.2.3-.4.6-.7.8,0,0-.2.2-.5.4-1.2,1-2.2,1.9-2.8,2.8-.4.6-1,1-1.8,1.3-1,.4-1.8.8-2.4,1.2-.4.3-.7.4-1.2.4s-.9,0-1.2.2c-.3.2-.6.3-.8.3-.3.1-.6.2-.8.2-1.2,0-2.2,0-2.9-.2-.1,0-.4-.1-.8-.1-.4,0-.9-.2-1.2-.4-.2-.1-.5-.2-.8-.3-.3,0-.6-.1-.8-.1.1,0-.2,0-.9,0-1.3,0-2.6-.3-3.8-.8-.3-.2-.5-.2-.6-.3-.4-.4-.9-.6-1.7-.7-.3,0-.6-.2-.7-.6-.2-.4-.1-.7,0-1,.1-.2.2-.3.4-.5.4-.4.8-1,1.1-1.9,0-.1,0-.3,0-.4,0,0-.2-.3-.5-1.1-.2-.3,0-.5.4-.6.2,0,.8-.2,1.6-.4,0,0,.3,0,.6,0s.1,0,.2,0c1.1.5,2.2.8,3.2,1,.5,0,.9.3,1.4.6.5.3,1.1.5,1.8.5h.9c.3,0,.6,0,.8-.2.8-.5,1.3-.7,1.5-.8.5-.2,1-.5,1.4-.9.4-.4,1-.7,1.8-1,1.5-.5,2.4-.7,2.8-.8-.2,0,0,0,.8-.2,1.2-.3,2.2-1,3.3-2.1.1-.1.3-.3.5-.6.2-.3.4-.5.5-.6l.8-.7h0c.9-1.3,1.6-3.1,2.2-5.2,0,0,0-.1.1-.6.2-1,.4-1.3.4-1.1l-.3-1.2c0-.2,0-.4,0-.6,0-.4-.2-.7-.5-1.1-1.5-2.8-3.6-4.9-6.2-6.2-.1,0-.3-.1-.6-.3-.2,0-.4-.2-.6-.3-1-.6-1.8-1.3-2.3-2.3-.4-1-.7-1.8-.8-2.5,0-.3.1-.6.4-.7.2,0,.4-.1.6-.2.4-.1.7-.4.9-.8.4-.8.6-1.6.5-2.4,0-.4.2-.8.6-1.2.3-.3.6-.6,1-.8,1.6-1.2,3.6-3,6-5.4,1.1-1,2-2.1,2.9-3.3.2-.4.7-1,1.4-1.8,0-.1.2-.1.4,0,0,0,0,.1,0,.2,0,.2.1.3,0,.4,0,.2,0,.8,0,1.7,0,.7,0,1.2-.1,1.6,0,.2,0,.3,0,.6.2.4.2.9,0,1.4,0,.3,0,.7.2,1,0,0,0,.1.1,0,0,0,.1,0,.1-.1,0-.2,0-.3,0-.6,0-.5,0-1,.3-1.6h0c0,.3.2.4.5.5,0,0,.2,0,.2,0,.2,0,.2.2.1.5h0c0,0,0,0,0,0,.4,0,.6,0,.6,0,.2,0,.2-.1.3-.3,0-.5,0-.8-.4-1.1,0,0-.2,0-.2,0h-.6,0c0-.6.1-1,.1-1,0-.2,0-.4-.1-.6-.3-.4-.3-1-.1-1.7,0,0,.2-.2.4-.4h0c.2,0,.4.1.4.1.7.5,1.4.5,2.1,0,0,0,.2-.1.3-.2.2,0,.4-.1.6,0,0,0,.4,0,1,.2h0c.2.3.4.6.4.6.1.2.3.2.5,0,.2-.2.4-.3.4-.4.1-.2.2-.4.1-.6,0,0,0-.2-.2-.6h0c.4,0,.7-.3,1.1-.6,0-.1.2-.1.4,0,0,0,0,.1,0,.2,0,.5,0,.7,0,.8-.4,1-.9,1.8-1.5,2.2-.2.2-.4.4-.5.6-.2.6-.5,1.2-1,1.8.1-.2-.1.2-.8,1.2,0,.1-.2.2-.4,0,0,0-.2,0-.2-.1,0,0,0-.2,0-.3,0-.2,0-.3,0-.3,0-.2-.2-.2-.3-.2-.1,0-.2.1-.3.2,0,.2-.1.5-.1.8v1.2c0,.5-.2.7-.8.8-.5,0-.6.1-.4,0-.5.1-.7.4-.6.9,0,.3,0,.6-.1.7-1.3,1.7-2.5,2.9-3.6,3.7-.2.2-.9.7-2,1.8,0,0-.2.2-.4.5-.3.4-.3.8,0,1.1.3.4.6.7.8.9.7.7,1.4,1.6,2.2,2.7,0,0,.1.2.2.4.1.2.2.3.3.3.8,1,1.1,2,.9,3v.4c0,.4,0,.5.3.5,0,0,.2-.1.3-.3.2-.3.3-.3.4,0,0,.1.1.3.3.6.2.3.2.5.3.6,0,.2,0,.6.2,1.1.1.5.2.8.2,1.1.1,1.7.1,2.9,0,3.7,0,.2,0,.5,0,.8,0,.5,0,1.2-.3,2,0,.2-.1.2-.2.2s-.2,0-.3-.2c0,0-.1-.2-.2-.4,0-.1-.2-.2-.4-.1-.3,0-.4.3-.3.5v.4c.4.4.5.8.6,1.1v.5c-.1.5-.2.8-.2.8h0ZM23.4,16.8c0,.2-.3.4-.6.5-.6.3-1.2.4-1.8.5-.5,0-1.1.1-1.9.2-.6,0-1.3.1-2.1,0-.2,0-.5,0-.8-.3-.2-.2-.3-.3-.2-.6,0-.3.2-.5.2-.6.9-1.4,1.8-2.4,2.7-3,0,0,.2-.2.5-.4.2-.2.5-.3.9-.3.6,0,1,.2,1.3.5.2.2.6.5,1.1,1,.4.4.8.8,1,1,0,0,.1.1.3.2h0c-.4.4-.6.8-.8,1.1h0ZM20.7,34.5c0-.2.2-.4.2-.5,0-.3,0-.5.1-.6,0-.2.2-.3.3-.5.1-.2.1-.3,0-.4,0,0-.1,0-.2,0-.3.2-.5.3-.7.5-.3.2-.3.5,0,.7,0,0,0,0,.3.2,0,.3-.1.5-.1.6h0ZM24.2,15.6c.5-.4.9-.6,1.2-.7h0s.1-.3.1-.3c.1-.3,0-.4-.2-.5,0,0-.2,0-.4,0-.2,0-.3,0-.4,0-.4,0-.5-.2-.5-.5,0-.5-.4-.9-1-1.2,0,0-.1,0-.4,0-.3,0-.5,0-.4,0-.1,0-.2-.1-.3-.3,0-.2,0-.3,0-.4.2-.2.4-.4.7-.5.3-.1.5-.1.8,0,.2.1.3.2.5.4.2.2.5.3.7.4.4.1.5.2.6.2.5.4.9.3,1.2,0,.2-.2.4-.3.8-.3s.1,0,.2,0c.2-.1.3-.2.3-.2,0-.1.2-.4.3-.7.2-.4.6-.7,1.2-1.1,0,0,0,0,.2,0,.5,0,1,0,1.5,0,.4,0,.8.2,1.2.3,0,0,.2.2.4.5s.5.3.9.2c.2,0,.2,0,.2,0,.2,0,.3,0,.4,0,.3.2.6.3.8.3.4,0,.8.2,1.2.5.7.4,1,.9.8,1.5,0,.1,0,.2.1.3.1,0,.3.1.4,0h.4c.2-.2.4-.2.6,0,.2.2.4.3.6.6.2.2.2.3.2.6,0,.1,0,.3,0,.6-.3-.1-.5-.2-.6-.2-.1,0-.2,0-.4,0,0,0,0,.2,0,.3,0,0,.1,0,.2,0,0,0,.3-.1.7-.3h.4c.2,0,.4.1.6.3.2.3.5.7.8,1.2,0-.1,0,.2.3,1,.2.5.2,1.1,0,1.8,0,.3-.2.4-.5.3-.5-.2-1.1-.2-1.7-.1-.5,0-1,0-1.3-.4-.3-.2-.7-.5-1.3-.7-.2,0-.3,0-.4.1-.1.1-.1.2,0,.4.1.2.2.3.1.3,0,0-.2.1-.4,0,0,0-.1,0-.6,0,0,0,0,0-.2,0,0,0-.2-.1-.2-.2,0-.1,0-.2,0-.3.1-.2.2-.3.2-.3,0,0,.3-.3.8-.7h0c.2-.2.2-.3,0-.4-.2,0-.5-.3-1.1-.6-.2,0-.4,0-.6.2-.1.2-.2.3-.2.3,0,0,0,0,0,.2,0,0,0,.2,0,.2-.2.4-.5.5-.9.2,0,0-.2-.2-.5-.4s-.6-.4-1.1-.6c-1.3-.4-2.6-.4-3.9,0,0,0-.7.1-2,.4-.5.1-.8,0-.9-.6,0,0,0-.2,0-.6h0s0,0,0,0ZM22.3,15.5h0c0,.1.2,0,.2,0h-.1ZM25.1,10.7c-.4-.2-.5-.5,0-.7,0,0,.2-.1.4-.1.2,0,.4,0,.5.3,0,.1,0,.2,0,.4-.1.2-.3.3-.5.2,0,0-.2,0-.2,0ZM26.9,9.9h0c0,0,0,0,0,0h0s0,0,0,0ZM29,33.5h-.1s0,0,0,0h0s0,0,0,0h0ZM30.1,12.9c-.2,0-.3.2-.5.4,0,.2-.1.5,0,.8,0,.2.2.3.4.4.2,0,.3,0,.4,0,.4-.3.6-.5.7-.5,0,0,.2,0,.8-.2,0,0,.1,0,.1-.1,0-.1.2-.2.2-.3,0-.2,0-.4-.4-.4-.4,0-.9,0-1.7,0ZM30.2,10.2h0c0,.1,0,.3,0,.3h0c0,0,0-.1,0-.1,0,0,0-.1,0-.1h0ZM31,14.9s0,0,0,.2h.1c0,0,0-.2,0-.2h-.1s0,0,0,0ZM31.9,30.1c0,0-.1-.1-.2-.1s-.2,0-.3.1c-.1.2-.2.4,0,.6,0,.2.2.3.5.3.3,0,.4-.1.3-.5,0-.3-.2-.4-.2-.4ZM31.8,49.1c-.1.3,0,.5.1.7.1,0,.2,0,.4,0,0,0,0-.1,0-.1,0-.3-.2-.5-.5-.6h-.1ZM31.9,51.3c0,.1,0,.2.1.3,0,0,.2,0,.2,0,.1,0,.2-.2.1-.4,0-.1-.2-.2-.3-.2-.1,0-.2.2-.2.3h0ZM32.5,26.1l.5-.5h0l-.4.4h0s0,0,0,0ZM32.5,58.4v-.5c.1.3.1.5,0,.5ZM33.4,21.8h0s0,0-.2,0h0c0,0,.2,0,.2,0h0ZM34.3,12.7h0s0,0,0,0h0s0,0,0,0ZM36.8,24.7c0,0,.2.2.4.2.3,0,.4-.1.4-.4,0-.2-.2-.2-.3-.2s-.2,0-.6,0c.2-.4.3-.7.1-1.1,0-.1-.1-.2-.2-.3-.2-.1-.5-.2-.8-.2-.2,0-.4,0-.5.3,0,.3,0,.4,0,.4-.1.3,0,.6.3.9.4.3.8.3,1.1,0,0,.2,0,.3,0,.4h0ZM36.2,13.8c-.2,0-.2,0,0,.2h.1c0-.1-.1-.2-.1-.2h0ZM38.4,16.3c0-.2,0-.4-.2-.4-.2,0-.2,0-.3.2,0,.2,0,.4.2.4.2,0,.2,0,.3-.2h0Z"/>
  <path d="M49.9,39.6c.2-.7.5-1.2.9-1.6.3-.3.4-.6.6-1.1,0,0,0-.2.1-.3,0-.2,0-.3.1-.4.3-.8.7-1.6,1.3-2.3,0,0,.1-.1.2-.2,0-.1.2-.2.2-.2.2-.2.3-.4.4-.6.3-.7.7-1.6,1.4-2.8,0-.2.3-.6.7-1.3,0,0,0,0,.2-.6.2-.4.5-.8.9-1.2.1-.1.2-.3.2-.5,0-.3,0-.6.2-.8.5-.9.9-1.8,1.3-2.8.2-.4.5-.6.9-.7.4-.1.7-.2,1-.1.3,0,.7,0,1.2.1.1,0,.2,0,.3,0,.2,0,.4.2.7.2.3,0,.6.1.7.2.3,0,.5.1.8.1.5,0,.9.2,1.3.7,0,0,.1.2.3.4,0,.2.2.3.3.4,0,0,0,.2,0,.3,0,0-.1.1-.2.2-1,1.4-1.9,3.3-2.8,5.7,0,.1-.2.5-.4,1.1-.3,1-.5,1.6-.8,2.1-.2.4-.4.9-.4,1.4,0,.4-.2.9-.4,1.4-.2.4-.2.8-.2,1.3v.4c0,.1,0,.3-.2.4-.3.3-.4.5-.4.6,0,.3,0,.5.1.7,0,0,0,0,.1,0,0,0,0,0,.1,0,0,.1.1.3.1.4,0,.2,0,.4-.1.6,0,.1-.1.3-.2.6,0,.2-.2.4-.2.5-.2.7-.4,1.3-.4,1.7,0,.2,0,.5-.1,1,0,.4-.1.7-.1.9,0,.1,0,.3-.1.4,0,.2-.2.4-.4.4-.1,0-.2,0-.3,0-.3,0-.4.2-.3.5,0,.5.2.7.2.7,0-.1,0,0-.2.6-.3.8-.4,1.7-.5,2.6,0,0,0,.2,0,.4,0,.2,0,.3,0,.4,0,.4.2.6.5.7.5.1.9.2,1.3.4.3,0,.5.2.6.4.2.2.4.5.8.9,0,0,0,.2,0,.3,0,.1,0,.2-.2.2,0,0,0,0,0,0,0,0,0,0,0,0-.4.2-.7.3-1,.3-.3,0-.6,0-.9.2-.3.1-.4.3-.5.4-.2.3-.4.5-.9.6-.1,0-.2.1-.2.2,0,.1,0,.2.1.3h.2c.2.2.3.4.2.6,0,.1,0,.3-.1.7,0,.3-.1.5-.1.7,0,.5,0,.8,0,1,0,.3,0,.6-.1,1,0,.2,0,.3.1.4.3.2.4.5.4.8,0,.2,0,.4.3.5.3.2.4.4.3.8-.3,1.1-.6,1.9-.9,2.4-.2.4-.3.8-.3,1.1,0,.2,0,.5-.1.7-.1.3-.3.6-.3.8-.3.6-.5,1.2-.6,1.9,0,.5-.2,1-.3,1.5,0,.2-.1.3-.3.5-.2.2-.4.4-.8.4,0,0-.2,0-.3,0-.2-.1-.4-.3-.5-.4,0,0-.3-.3-.9-1-.3-.3-.4-.7-.2-1,0-.2,0-.4,0-.7,0-.4,0-.8.2-1.2,0-.2,0-.3,0-.4,0-.3.2-.8.4-1.3.2-.4.3-.8.3-1.3,0-.6,0-1.6.2-3.1,0-.3.1-.6.2-.8.1-.2.2-.4.2-.4.4-.7.6-1.4.6-2.3,0-.2,0-.3-.1-.4,0-.2-.1-.3,0-.6.1-.5.2-.8.2-.9,0-.1,0-.3,0-.4,0-.2-.2-.4-.4-.5-.4-.1-.8-.2-1.2-.3,0,0-.2,0-.4,0-.2,0-.4,0-.4,0,0,0-.6-.2-1.5-.4-.3,0-.4-.1-.4-.1-.3,0-1.1-.2-2.5-.5,0,0-.2,0-.3,0-.6,0-1.1.1-1.4.7,0,.1,0,.2,0,.1-.6,1.6-1,2.6-1,2.9,0,.3-.2.7-.4,1-.5.7-.9,1.6-1.4,2.6,0,.2-.2.3-.2.4-.6,1.1-1.1,2.5-1.6,4.3-.2,1-.5,1.7-.8,2.4,0,.2-.3.7-.5,1.4-.4,1.1-1.1,2.2-2.1,3-.1.1-.3.2-.4.3-.3.1-.6.2-.9.3-.2,0-.4,0-.6,0-.2,0-.3-.1-.4-.2-.4-.3-1.1-.7-2.1-1.2-.1,0-.2-.2-.2-.4s0-.4,0-.6c0,0,0-.2.2-.4.1-.2.4-.8.8-1.6.3-.7.6-1.2.8-1.6,0,.2,0-.2.5-1.1.5-1,.8-1.7,1-2,.3-.6.6-1.1,1-1.5l.3-.4c.1-.2.2-.3.2-.6v-.6c0-.3.1-.5.3-.8,0-.1.3-.4.7-.8.3-.3.5-.8.7-1.3,0,0,0-.2,0-.3,0-.6.3-1.1.8-1.6.4-.5.7-1,1-1.7,0-.3.1-.5.1-.7s0-.2,0-.3c0-.5,0-1,.4-1.6.2-.3.4-.5.6-.6.3-.2.5-.4.7-.8.3-.6.6-1.2.9-1.7,1.2-2.4,1.9-3.9,2.1-4.3.3-.6.7-1.3,1-2.1.2-.5.5-1,.8-1.4,0,0,.2-.3.4-.6h0c0,0,.2-.6.6-1.7h0ZM48.5,47.8s0,0,0,0c0-.1-.1-.1-.2,0,0,0,0,0,0,.1h.1s0,0,0,0ZM51.7,43.6h.1c-.4.9-.6,1.4-.7,1.6,0,.1-.1.3-.1.4,0,.5-.3,1.3-.7,2.4,0,0-.3.8-.9,2.2-.1.3-.2.7-.3,1,0,.3,0,.5.3.6.1,0,.2,0,.1,0,.8.2,1.2.4,1.3.4,1.3.2,2.2.3,2.6.3s.4,0,.8,0c.4,0,.9,0,1.5,0h.1c.2-.1.3-.2.3-.3.1-.3.2-.7.1-1.2,0-.6,0-1.4.2-2.5.1-1.2.2-2.1.2-2.5,0,0,0-.2,0-.4.2-.7.2-1.4.2-2.2,0-.7,0-1.2,0-1.6.1-.5.1-1,0-1.5-.1-.9-.1-1.9,0-3,0-.2,0-.4,0-.6,0-.3-.3-.4-.6-.4-.3,0-.4.1-.5.3,0,.1-.2.3-.3.6-.1.3-.2.5-.3.6,0,0,0,.1-.2.2,0,0-.1,0-.3,0-.3,0-.4.2-.6.4,0,.2-.2.4-.4.6-.2.4-.3.6-.3.7-.5.8-.8,1.6-.9,2.3,0,0,0,.2,0,.4,0,.2,0,.3,0,.4,0,0,0,.2-.2.2-.3.2-.5.3-.7.4h0s0,0,0,0ZM57.5,30.5c0-.1-.2,0-.4,0-.3.2-.5.5-.7.8-.1.3-.5,1-1.1,2.1-.4.7-.7,1.4-.9,2-.1.4-.3.7-.5.9-.1.2-.6.8-1.3,2-.3.4-.4.8-.4,1.4,0,0,0,.2,0,.3.1.2.3.3.4,0,.1-.1.3-.4.5-.7.3-.6,1-1.9,2.1-3.8.9-1.5,1.6-2.8,2.1-3.7,0-.2.2-.4.2-.5,0-.2.1-.4,0-.6,0,0,0-.2-.1-.2h0ZM54.3,33.8s0,0,0-.1c0-.2-.2-.3-.4-.1-.3.2-.5.6-.4,1.2,0,0,0,.1.2.1,0,0,.2,0,.2,0,.3-.2.4-.4.4-.6v-.4h0ZM56.7,35.4c.1,0,.2,0,.3,0,.1,0,.2-.2.2-.3s0-.2,0-.3c0-.3-.3-.3-.5-.2-.2.1-.3.3-.3.5,0,.1,0,.2.3.3h0ZM59.4,40.1c0,0-.2,0-.2,0,0,0,0,.2,0,.2.2.1.3,0,.3,0,0-.1,0-.2-.1-.2Z"/>
  <path d="M94.6,60.2c-.5,1.7-.8,2.7-.9,2.9-.2.6-.3,1.2-.3,1.6v.2c-.2,1.8-.7,3.5-1.5,5-.3.6-.5,1.1-.7,1.5-.2,1-.8,2.2-1.8,3.7-.4.7-1.1,1.1-2.1,1.1h-.4c-.2,0-.4,0-.4,0-.6,0-1,.2-1.3.5,0,0-.2,0-.4.2-.4.2-.7,0-.9-.4,0-.2,0-.3,0-.4,0-.3,0-1.1,0-2.3,0-.1,0-.3,0-.4.3-.8.4-1.2.4-1.1,0,.1,0-.2.2-1,0,0,.1-.5.4-1.1h.1s-.2,0-.2,0c0-1.1,0-1.7,0-1.8,0-.5,0-.9.3-1.2.1-.3.2-.7.2-1.2v-.6c0-.4.2-.7.3-1,.6-1,1-1.9,1.3-2.6,0-.2.2-.5.5-.7.3-.2.5-.5.5-.9.1-1.3.5-2.7,1-4.4.6-1.8,1-3.2,1.2-4.1l.6-1.7c.2-.5,0-.7-.5-.7-.2,0-.4,0-.6,0,.2,0,0,0-.7,0-.2,0-.3-.1-.5-.4,0-.2,0-.4,0-.6.2-.3.4-.5.6-.6.2-.2.8-.5,1.6-1.1,1.3-.8,1.8-1.2,1.6-1,.5-.4.8-.8,1-1.3,0,0,0-.2,0-.3,0-.1,0-.2,0-.3,0-.6.3-1.2.6-1.9,0-.2.2-.6.5-1.3,0-.2.1-.5.3-1,.1-.4.2-.7.3-1,.4-1.1.8-2.3,1.3-3.4,0-.1.2-.4.4-.9.2-.4.3-.7.4-1,0,.3,0-.3.5-2,.1-.4.2-.8.4-1.2.2-.6.7-2.1,1.5-4.7.3-1,.5-1.8.6-2.6,0-.8.2-1.5.6-2.2,0-.2.2-.6.4-1.3,0-.3.2-.6.3-.8.2-.2.3-.5.4-.9.3-1.3.5-2.1.7-2.6.1-.3.2-.7.4-1.2.2-.6.3-1,.3-1.1,0-.2.2-.3.3-.6.2-.2.2-.5,0-.8,0-.3,0-.6.1-.8.6-.7,1.1-1.2,1.3-1.3.2-.1.8-.3,1.9-.4h.8c.5,0,.8.3.7.9,0,.4-.1.7-.1.8,0,.3-.2,1.1-.6,2.2-.3,1.2-.5,1.9-.6,2.2,0,.2,0,.5-.2.9,0,.4-.1.7-.2.9,0,.4-.2,1.4-.6,3-.2,1.1-.6,2.2-.9,3.4-.3.9-.5,1.7-.7,2.6-.1.7-.6,2.8-1.5,6.4,0,.4-.2.7-.2.8-.3.7-.5,1.6-.7,2.6,0,.7-.2,1.3-.4,1.6,0,.1,0,.2,0,.4,0,.9-.3,2-.8,3.4,0,.2,0,.3,0,.5.1.2.3.2.4.2.2,0,.3,0,.2,0,1.5-.3,2.3-.4,2.5-.5.9-.2,1.6-.4,2-.4.2,0,.6-.2,1-.4.2-.1.2-.2.3-.3.2-.3.4-.7.8-1.2,0,0,0-.1,0-.2,0-.4.2-1,.6-1.7.3-.6.5-1,.6-1.3.4-1,.7-1.8,1.1-2.4.2-.4.3-.8.4-1.2,0-.4.1-1,.4-1.8,1.4-4.3,2.3-6.9,2.7-7.9.2-.4.2-.7.3-1,.2-.9.6-1.9,1.1-3.1.8-1.9,1.5-3.9,2.1-6,.2-.7.5-1.7.9-2.9.3-.9.5-1.7.7-2.4,0-.2.1-.7.3-1.5.1-.6.2-1.1.3-1.5,0-.5.3-1,.8-1.4.3-.2.5-.4.7-.4.5-.2,1.1-.3,1.6-.6.2-.1.7-.3,1.5-.7.5-.2,1-.4,1.6-.6.3-.1.7-.2,1-.2s.6,0,.8.3c.2.2.3.3.3.5.1.5,0,1,0,1.4-.7,1.3-1.1,2.1-1.1,2.2-.5,1-.7,1.4-.7,1.3-.3.6-.6,1.4-.9,2.3-.2.6-.4,1-.7,1.5-.2.2-.3.4-.4.5-.3.5-.5.9-.5,1.3-.2.9-.4,1.7-.9,2.5,0,0-.1.4-.3,1-.3.8-.4,1.2-.4,1.1-.4.7-.7,1.6-.9,2.7,0,.2-.2.6-.4,1.4-.4,1.3-.7,2.2-.8,2.9-.2.9-.4,1.6-.7,2.2-.3.6-.7,1.5-1.1,2.7,0,.3-.3.5-.7.7,0,0-.1,0-.3.2-.2.2-.2.3,0,.5.3.2.4.6.1.9,0,0,0,0,0,.2h-.1c-.1.4-.2.6-.2.9,0,0,0,.1,0,.2,0,1.2-.3,2.1-.8,2.7-.1.2-.2.4-.3.7,0,.3-.2.7-.4,1.4-.2.6-.3,1-.4,1.4,0,.1-.3,1-.8,2.7-.5,1.7-.9,2.9-1,3.4,0,.4-.2.8-.4,1.2-.3.6-.4,1.2-.4,1.7s0,.4-.2.8c0,.2-.2.4-.3.8-.3.8-.5,1.6-.5,2.4,0,.3,0,1-.3,2-.2,1-.1,1.8,0,2.4,0,.1,0,.3,0,.6,0,.5-.2.8-.5,1.1-.2.2-.4.4-.4.7v.2c0,1.7,0,3.6-.4,5.9-.3,2-.4,2.9-.4,2.7,0-.4,0,.4-.2,2.4,0,.2,0,.7-.1,1.5,0,.6,0,1.2,0,1.6,0,.4-.2,1.4-.4,3.2,0,.2,0,.4-.1.7,0,.3,0,.5,0,.7-.1.9-.5,1.6-1.1,2.2-.3.3-1,.8-2.1,1.7-.2.1-.5.2-.8.3-.7,0-1.5,0-2.3-.3-.3-.1-.6-.3-.8-.6-.2-.2-.3-.4-.4-.7-.2-.6-.2-1.3,0-2,0,0,.1-.8.4-2.2.5-2.2.7-3.4.8-3.6.3-1.1.6-2.1.8-3,.7-2.2,1.3-4.9,1.8-8,.2-1.4.3-2.3.5-2.8,0-.2,0-.3,0-.4,0-.6.6-3,1.4-7.2,0-.5.3-1.9.8-4,0-.5-.2-.7-.7-.6-.2,0-.3,0-.2,0-.2,0-.4,0-.4,0-1.8.6-3.2,1.2-4.3,1.6-.2,0-.5.2-.8.4-.3.2-.5.4-.7.7,0,.2-.1.4-.2.8-.6,2.1-1.5,4.2-2.6,6.3,0,.2-.3.5-.5,1-.2.4-.4.7-.5,1-.2.4-.5,1-.8,1.7-.4.9-.6,1.5-.8,1.7h0s0,0,0,0h0ZM87.5,67.5h0c0,0,0-.1,0-.1h0c0,.1,0,.1,0,.1ZM88.1,63.6c-.1,0-.2.1-.2.3,0,.3,0,.4.3.3.2,0,.2-.1.2-.3,0-.3-.1-.4-.4-.3ZM89.5,59.1c-.2,0-.3.1-.4.2,0,0,0,0,0,.1,0,0,0,.1.1,0,0,0,.2-.1.4-.3.2-.2.3-.3.4-.3.2.4.3.7.4.7.2.2.4.2.6.1.1,0,.2-.2.2-.3,0-.2,0-.3-.2-.3,0,0-.4-.1-1-.2,0,0-.2.1-.5.1h0ZM89.1,60.8h.1c0,0-.2-.2-.2-.2v.2c0,0,0,0,0,0ZM98,36.6c-.2,0-.2.2-.1.3,0,.2.2.2.3.1.1,0,.2-.2.1-.3,0-.1-.2-.2-.3-.1ZM99.3,33.3h-.1,0c0,0,0,0,0,0h0ZM100.8,29.3c0,0-.1,0-.1.1,0,.2,0,.2.1.3.2,0,.2,0,.3-.2,0-.2-.1-.2-.3-.2h0ZM102.4,25.6v.2s0,0,0,0c.1-.2,0-.3,0-.2ZM103.3,19.4c-.1,0-.2,0-.3.2,0,.1-.1.2,0,.3,0,0,0,.1.1.1.2,0,.3,0,.3-.1,0,0,0,0,0-.2,0-.2,0-.3-.1-.3ZM105.6,9.8h0c0,0-.1-.1-.1-.1h0ZM107.5,49.6c-.2,0-.2,0-.2.2s0,.1,0,.1c.2,0,.2,0,.2-.2h0ZM113.8,31.9h.1,0c0-.1,0,0,0,0ZM115.1,23.8c0-.2-.1-.2-.2,0h0c0,.1,0,0,0,0h0ZM115.5,30.2c0,0-.1,0-.1.1,0,.2.2.2.3,0h0c0-.1-.1-.2-.1-.2ZM116.1,26.2c0,0,0,.1,0,.1.2,0,.3,0,.2-.2h-.2s-.1,0-.1,0h0Z"/>
  <path d="M132.5,34.5c.2-.7.6-1.3.9-1.7.3-.3.5-.7.6-1.1,0,0,0-.2.1-.4,0-.2,0-.3.1-.4.3-.9.7-1.7,1.4-2.5,0,0,.1-.1.2-.2,0-.1.2-.2.2-.3.2-.2.4-.5.4-.7.3-.7.8-1.7,1.5-3,0-.2.3-.6.7-1.4,0,0,0-.1.2-.6.2-.5.5-.9.9-1.3.1-.1.2-.3.3-.6,0-.3,0-.6.3-.9.5-.9,1-1.9,1.4-3,.2-.4.5-.7,1-.8.4-.1.8-.2,1.1-.1.3,0,.7,0,1.3.1.1,0,.2,0,.3.1.2,0,.4.2.7.3.4,0,.6.1.7.2.3,0,.5.1.8.1.5,0,.9.2,1.4.7,0,0,.1.2.3.5,0,.2.2.4.3.5,0,0,0,.2,0,.3,0,0-.1.2-.2.3-1.1,1.5-2.1,3.6-3,6.2,0,.1-.2.5-.4,1.2-.3,1-.6,1.8-.8,2.2-.2.5-.4,1-.4,1.5,0,.4-.2.9-.4,1.5-.2.4-.3.9-.3,1.4v.5c0,.1,0,.3-.2.5-.3.3-.4.5-.5.6,0,.3,0,.5.1.7,0,0,0,0,.1.1,0,0,0,0,.1.1,0,.1.1.3.1.5,0,.2,0,.4-.1.6,0,.1-.1.3-.3.6,0,.2-.2.4-.2.6-.2.7-.4,1.4-.5,1.9,0,.2,0,.5-.1,1,0,.4-.1.8-.1,1,0,.1,0,.3-.1.5,0,.2-.2.4-.4.4-.1,0-.2,0-.3.1-.3,0-.4.3-.3.5,0,.5.2.8.2.8,0-.1,0,0-.2.6-.3.9-.4,1.8-.5,2.8,0,0,0,.3,0,.5,0,.2,0,.4,0,.5,0,.4.2.7.6.7.5.1,1,.3,1.4.4.3,0,.5.2.7.4.2.2.4.5.8,1,0,0,0,.2,0,.3,0,.1,0,.2-.2.3,0,0,0,0,0,0,0,0,0,0,0,0-.4.2-.7.3-1.1.3-.3,0-.6,0-1,.3-.3.1-.4.3-.5.4-.2.3-.5.5-.9.6-.1,0-.2.1-.2.2,0,.1,0,.2.1.3h.3c.2.3.3.4.2.7,0,.1,0,.4-.1.7,0,.3-.1.5-.1.7,0,.5,0,.9,0,1.1,0,.3,0,.6-.1,1.1,0,.2,0,.3.1.4.3.2.4.5.4.9,0,.2,0,.4.3.5.3.2.4.5.3.9-.3,1.2-.7,2-1,2.5-.2.4-.3.8-.3,1.2,0,.2,0,.5-.1.8-.1.4-.3.6-.4.9-.3.7-.5,1.3-.6,2,0,.5-.2,1-.3,1.6,0,.2-.1.3-.3.5-.2.3-.4.4-.8.5,0,0-.2,0-.3,0-.2-.1-.4-.3-.5-.4,0,0-.3-.3-.9-1.1-.3-.4-.4-.7-.3-1,0-.2,0-.4,0-.8,0-.5,0-.9.2-1.3,0-.2,0-.3,0-.5,0-.4.2-.8.4-1.4.2-.5.3-.9.3-1.4,0-.6,0-1.7.2-3.4,0-.3.1-.6.3-.9.1-.2.2-.4.2-.4.4-.7.6-1.6.6-2.5,0-.2,0-.3-.1-.4,0-.2-.1-.4,0-.6.1-.5.2-.9.3-.9,0-.1,0-.3,0-.5,0-.3-.2-.4-.4-.5-.4-.1-.8-.3-1.2-.4,0,0-.3,0-.5,0-.2,0-.4,0-.5,0,0,0-.6-.2-1.6-.4-.3,0-.5-.1-.5-.1-.3,0-1.2-.2-2.7-.5,0,0-.2,0-.3,0-.7,0-1.2.2-1.5.7,0,.1,0,.2,0,.1-.7,1.7-1,2.8-1.1,3.1,0,.4-.2.7-.4,1-.5.7-1,1.7-1.5,2.8,0,.2-.2.4-.2.4-.6,1.1-1.2,2.7-1.7,4.6-.2,1-.5,1.9-.8,2.6,0,.2-.3.7-.6,1.5-.4,1.2-1.2,2.3-2.2,3.2-.1.1-.3.2-.4.3-.3.1-.6.2-.9.3-.2,0-.4,0-.7,0-.2,0-.3-.1-.4-.2-.4-.3-1.2-.7-2.2-1.3-.1,0-.2-.2-.2-.4s0-.4,0-.6c0,0,0-.3.2-.5.1-.3.4-.8.8-1.7.3-.7.6-1.3.8-1.8,0,.2,0-.2.5-1.1.5-1.1.8-1.8,1-2.2.3-.7.7-1.2,1-1.6l.3-.4c.1-.2.2-.4.2-.6v-.6c0-.3.1-.6.4-.9,0-.1.4-.4.8-.8.3-.4.6-.8.8-1.4,0,0,0-.2,0-.3,0-.7.4-1.2.8-1.7.4-.5.8-1.1,1-1.8,0-.3.1-.5.1-.8s0-.2,0-.3c0-.5,0-1.1.4-1.7.2-.3.4-.5.7-.7.3-.2.5-.5.7-.9.3-.6.7-1.3,1-1.8,1.3-2.6,2-4.2,2.3-4.6.3-.6.7-1.4,1.1-2.3.2-.6.5-1.1.9-1.5,0,0,.2-.3.5-.6h0c0,0,.2-.7.6-1.8h0ZM131.1,43.4s0,0,0-.1c0-.1-.1-.1-.2,0,0,0,0,0,0,.1h.1s0,0,0,0ZM134.5,38.8h.1c-.4.9-.7,1.5-.7,1.7,0,.1-.1.3-.1.5,0,.5-.4,1.4-.8,2.6,0,0-.4.9-1,2.4-.1.4-.2.7-.3,1.1,0,.3,0,.5.4.7.1,0,.2,0,.1,0,.8.3,1.3.4,1.4.4,1.4.2,2.3.4,2.7.4s.4,0,.8.1c.5,0,1,0,1.6-.1h.1c.2-.2.3-.3.4-.4.1-.3.2-.8.1-1.3,0-.7,0-1.6.2-2.7.1-1.3.2-2.2.3-2.7,0,0,0-.3,0-.5.2-.7.2-1.5.2-2.4,0-.7,0-1.3,0-1.8.1-.5.1-1,0-1.6-.1-1-.1-2.1,0-3.2,0-.2,0-.4,0-.6,0-.3-.3-.5-.6-.4-.3,0-.5.1-.6.3,0,.1-.2.4-.3.6-.1.3-.3.5-.3.6,0,0,0,.1-.2.2,0,0-.1,0-.3,0-.3,0-.5.2-.6.5,0,.2-.2.4-.4.7-.2.4-.3.6-.4.7-.5.9-.8,1.7-1,2.5,0,0,0,.2,0,.4,0,.2,0,.3,0,.4,0,0,0,.2-.2.3-.3.2-.5.4-.7.4h0s0,0,0,0ZM140.6,24.6c0-.1-.2,0-.4,0-.3.3-.6.5-.7.9-.1.3-.5,1-1.2,2.2-.4.8-.8,1.5-1,2.2-.1.4-.3.7-.6,1-.1.2-.6.9-1.4,2.1-.3.4-.4.9-.4,1.5,0,0,0,.2,0,.3.1.2.3.3.4.1.1-.1.3-.4.6-.8.3-.6,1.1-2,2.2-4.1.9-1.7,1.7-3,2.2-4,0-.2.2-.4.3-.6,0-.2.1-.5,0-.6,0,0,0-.2-.1-.3h0ZM137.2,28.2s0,0,0-.1c0-.2-.2-.3-.4-.1-.4.3-.5.7-.4,1.3,0,0,0,.1.2.1,0,0,.2,0,.2,0,.3-.2.5-.4.5-.7v-.4h0ZM139.8,30c.1,0,.2,0,.4,0,.1,0,.2-.2.2-.3s0-.2,0-.3c0-.3-.3-.4-.5-.2-.2.1-.3.3-.3.5,0,.1,0,.3.3.3h0ZM142.7,35c0,0-.2,0-.3.1,0,0,0,.2,0,.3.2.1.3,0,.4-.1,0-.1,0-.2-.1-.3Z"/>
  <path d="M158.9,75.3c-.2.2-.5.2-.9.2-.3,0-.5-.2-.6-.4,0,0,0-.1,0-.2-.3-.3-.5-.3-.8,0-.2.2-.4.4-.6.3h-.4c-.6,0-1.6-.2-2.9-.6-.8-.3-1.6-.7-2.4-1.4-.7-.6-1.3-1.3-1.7-2.1-.6-1.1-1.1-2.2-1.4-3.3-.5-1.5-.8-2.4-.9-2.7-.1-.2-.3-.8-.4-1.6,0-.2,0-.4,0-.7,0-1.2,0-2.1,0-2.5,0-.5,0-1,.2-1.4.2-.5.3-1.1.3-1.8,0-.5,0-.8,0-.9,0-.9.2-1.7.6-2.4.6-1.1,1.3-2.5,2-4.5,0-.2.2-.5.3-.8.1-.4.2-.6.3-.8,0-.2.2-.4.3-.4.3-.1.6-.5.8-1,0-.2,0-.4,0-.5,0-.1-.2-.4-.3-.7-.1-.1-.1-.3,0-.5,0,0,0-.1,0-.2,1.4-2.7,2.5-4.7,3.4-6.1.7-1.1,1.1-1.8,1.3-2,.4-.8.9-1.6,1.8-2.6.4-.5.9-1.1,1.4-1.6.7-.7,1.2-1.4,1.6-2,.6-.9,1.8-2.1,3.3-3.6,0,0,.2-.2.5-.3.5-.4,1.5-1.1,2.9-2.2.9-.7,1.7-1.2,2.3-1.5.6-.4,1.2-.6,1.7-.6l3.9-.6c.5,0,.9,0,1.3,0,.4,0,.8.1,1.1.2,0,0,.3.2.7.3.3.1.5.2.7.3.2,0,.4.2.6.5.2.2.3.4.3.7,0,.5,0,.9-.3,1.4-.3.5-.7.8-1,1.1-.9.8-1.7,1.4-2.3,1.9-.6.5-1.3.6-2.1.3-.3-.1-.4-.2-.5-.2-.6-.2-1.1,0-1.6.2h-.1c-2.1,2-3.2,2.9-3.1,2.8-.3.3-.5.6-.6.9,0,.1-.2.3-.4.6-.4.5-.8.8-1,1.1-.3.3-.8.8-1.3,1.3-.6.7-1.1,1.1-1.3,1.3-.5.5-.9,1-1.3,1.5-.2.3-.4.6-.8,1.1-.4.5-.7.8-.8,1-.5.7-.9,1.2-1.1,1.6-.7,1.1-1.4,2.1-2.1,3-.5.7-.9,1.2-1,1.7-.3.6-.5,1.1-.9,1.6-.6.9-.9,1.8-1.2,2.8,0,0,0,.1,0,.2,0,.1,0,.2,0,.3,0,.2-.2.8-.6,1.7-.2.6-.3.9-.3,1s0,.3-.1.5c0,.1-.3,1.2-.8,3.3,0,.2-.1.5-.1.7-.1,1.4-.2,2.5-.3,3.4,0,.9,0,1.6.2,2.2,0,0,0,.3.1.7,0,.4.2.8.5,1.2.3.4.6.8.9,1.1.3.4.7.6,1.1.7.7,0,1.2.2,1.5.2.6.1,1.1.1,1.7,0,.7-.1,1.3-.2,1.8-.1.3,0,.5,0,.8-.2.1,0,.8-.2,2-.5.3,0,.6,0,.8.2.3.2.4.5.4.8s0,.1,0,.2c0,0,0,0,.1.1.1,0,.2,0,.3-.1,0,0,0-.2,0-.4,0-.2,0-.3,0-.3.1-.3.4-.6.8-.8.3-.2.7-.3,1-.3.8,0,1.1-.1.9,0,1.2-.2,2.2-.5,2.8-1,0,0,.3-.2.8-.4.1,0,.2,0,.4,0,.1,0,.2.2.2.3,0,.6,0,1.4,0,2.3,0,.1,0,.3,0,.5-.3,1.1-.6,2.1-1,2.9-.2.4-.4.7-.6.9-.1.1-.2.3-.3.6,0,.2-.2.4-.4.6v-.4c0,0,0,0,0-.1-.1,0-.2,0-.2.1,0,0,0,.1,0,.2,0,0,.1,0,.3.2-.3.2-.4.3-.4.4-.2.1-.6.4-1.3.8-.2.1-.4.2-.7.2-.6,0-.9,0-.9.1-.1,0-.4.1-.8.2-.3.1-.6.2-.8.3,0,0,0,0-.2,0,0,0-.1,0-.2,0-.3.2-.7.2-1.2,0-.1,0-.3,0-.3,0-.2.2-.5.3-1,.2-.4,0-.8-.1-1-.3h.3c0-.2-.2,0-.3,0-.4-.1-.6,0-.8.1h0ZM152.1,46.5c-.2,0-.3,0-.3,0-.3.4-.4.7-.3,1.1,0,.1,0,.2.3.2.3,0,.5-.1.5-.4,0,0,0-.3.1-.8,0-.1-.1-.2-.3-.2ZM151.7,49.6h-.2c0,.1,0,.2,0,.2h.1s0-.2,0-.2ZM153.3,50.7c0,0,0,0-.1,0-.1,0-.1.2,0,.2h.1s0-.2,0-.2h0ZM155,45.4c0,.2,0,.2.2,0,0,0,0,0,0-.1h0c0,0-.1,0,0,0ZM155.3,70.5h-.1c0,0,0,0,0,0h0ZM156.5,70.4c0,.1,0,.2,0,.3.1,0,.2,0,.3,0,0-.1,0-.2,0-.3h-.1c-.1-.1-.2,0-.3,0h0ZM157.3,71.8h-.2c-.2,0-.2,0,0,.2h.2s0-.2,0-.2ZM160.1,72c-.2,0-.2,0-.2.2,0,0,0,.1,0,.1.1,0,.2,0,.2-.2h0ZM161.6,74.1c-.3-.2-.4-.3-.4-.3-.2,0-.3,0-.2.1,0,0,0,0,.2,0,.1,0,.3,0,.5,0h0s0,0,0,0ZM162.2,70.9c0,0-.1,0-.1.1,0,.2.2.2.3.1h0c0-.3-.1-.3-.3-.2h0ZM162.6,73.9c-.1,0-.1.2,0,.3,0,.1.2.2.3.2.1,0,.2,0,.3-.2,0,0,0,0,0-.2,0-.1-.1-.2-.3-.2h-.2,0ZM163.3,69.9h0c0,.1,0,0,0,0h0c0-.1,0,0,0,0ZM164.2,32.8c-.1,0-.2,0-.3,0,0,0,0,0,0,.1.1,0,.2,0,.3,0h0ZM165.8,66.9c-.1.1-.2.2-.3.2v.2c0,0,.2-.2.2-.5h0ZM167.9,71.6c-.1,0-.2,0-.3,0,0,0,0,.1,0,.2.1,0,.2,0,.3-.1,0,0-.1-.1-.1-.1h0Z"/>
</svg>