<svg xmlns="http://www.w3.org/2000/svg" width="179" height="81" viewBox="0 0 179 81" fill="none">
  <path d="M32.2811 59.1999C31.1811 61.3073 29.9911 63.1524 28.7411 64.7062C28.3311 65.1918 27.8411 65.3957 27.2711 65.3083L27.0311 65.3569C26.8111 65.386 26.6711 65.522 26.6111 65.7745C26.5811 65.959 26.5611 66.0852 26.5611 66.1435C26.5611 66.1726 26.5811 66.3086 26.6111 66.5514C26.6411 66.7941 26.5811 67.0563 26.4211 67.3283C26.2311 67.6681 26.0111 67.9401 25.7611 68.1537C25.7311 68.1828 25.5711 68.3091 25.2911 68.5227C24.0611 69.5327 23.1311 70.465 22.5011 71.3196C22.0911 71.8731 21.4911 72.3101 20.7011 72.65C19.6911 73.0773 18.8911 73.4949 18.2911 73.8931C17.9411 74.165 17.5511 74.3107 17.1111 74.3107C16.6411 74.3107 16.2411 74.3883 15.9311 74.5437C15.6111 74.6991 15.3511 74.8059 15.1311 74.8642C14.8111 74.9904 14.5511 75.0487 14.3311 75.0487C13.1011 75.1361 12.1211 75.0778 11.4011 74.8642C11.2711 74.8059 11.0111 74.7574 10.6011 74.7282C10.1611 74.67 9.75105 74.5437 9.37105 74.3592C9.15105 74.233 8.90105 74.1456 8.61105 74.0873C8.33105 74.029 8.04105 73.9805 7.76105 73.9513C7.89105 73.9513 7.60105 73.9513 6.91105 73.9513C5.62105 73.9513 4.34105 73.6794 3.08105 73.1259C2.77105 72.9705 2.58105 72.8831 2.51105 72.854C2.13105 72.4558 1.56105 72.213 0.811053 72.1159C0.461053 72.0868 0.231053 71.8731 0.101053 71.475C-0.0589474 71.1059 -0.0289474 70.7855 0.191053 70.5135C0.321053 70.329 0.441053 70.1639 0.571053 70.0086C0.981053 69.6104 1.36105 68.9695 1.70105 68.076C1.76105 67.9498 1.76105 67.8138 1.70105 67.6584C1.70105 67.6876 1.54105 67.3088 1.23105 66.5125C1.07105 66.1726 1.20105 65.9784 1.61105 65.9201C1.86105 65.891 2.40105 65.755 3.22105 65.5025C3.28105 65.4734 3.49105 65.454 3.84105 65.454C3.90105 65.454 3.98105 65.4734 4.08105 65.5025C5.21105 65.959 6.27105 66.2794 7.25105 66.464C7.72105 66.5513 8.18105 66.7359 8.62105 67.0175C9.16105 67.3283 9.75105 67.4739 10.4211 67.4739H11.2711C11.5511 67.4739 11.8211 67.4157 12.0711 67.2894C12.9211 66.833 13.4111 66.5708 13.5311 66.5125C14.0311 66.2989 14.5111 65.9881 14.9511 65.5899C15.3911 65.1918 15.9911 64.8713 16.7511 64.6285C18.2311 64.1721 19.1811 63.8905 19.5911 63.8031C19.3711 63.8613 19.6411 63.7836 20.3911 63.57C21.5611 63.2689 22.6411 62.5794 23.6511 61.5015C23.7811 61.385 23.9311 61.2004 24.1211 60.948C24.3411 60.676 24.5011 60.4915 24.5911 60.3944L25.3511 59.6564L25.3011 59.7049C26.1511 58.355 26.8911 56.5973 27.5211 54.422C27.4911 54.5094 27.5411 54.3152 27.6611 53.8296C27.8811 52.8779 28.0111 52.4992 28.0411 52.6837L27.7111 51.4892C27.6511 51.2464 27.6211 51.0425 27.6211 50.8968C27.5611 50.5278 27.4011 50.149 27.1511 49.7509C25.6111 46.9637 23.5411 44.8855 20.9611 43.5065C20.8311 43.4774 20.6511 43.39 20.3911 43.2346C20.1411 43.1472 19.9511 43.0501 19.8211 42.9627C18.7811 42.4092 18.0211 41.6323 17.5511 40.6223C17.1111 39.6414 16.8611 38.7966 16.7911 38.0974C16.7911 37.7575 16.9311 37.5341 17.2211 37.4079C17.3811 37.3496 17.5711 37.2816 17.7911 37.2233C18.2011 37.0971 18.5011 36.8252 18.6911 36.3979C19.0711 35.6307 19.2411 34.8344 19.2111 34.0089C19.2111 33.5816 19.4111 33.164 19.8211 32.7659C20.1311 32.4648 20.4711 32.2026 20.8111 31.989C22.3911 30.8236 24.3911 29.0173 26.8111 26.5701C27.8811 25.531 28.8411 24.4433 29.6911 23.3071C29.9411 22.9381 30.4111 22.3457 31.1111 21.5202C31.2011 21.4037 31.3311 21.3843 31.4911 21.4717C31.5511 21.5299 31.5811 21.5979 31.5811 21.6562C31.6711 21.8698 31.7111 21.9961 31.6711 22.0252C31.6711 22.268 31.6511 22.8215 31.6211 23.6761C31.6211 24.3462 31.5711 24.89 31.4811 25.2785C31.4511 25.4339 31.4611 25.6281 31.5311 25.8709C31.6911 26.269 31.7211 26.7449 31.6211 27.2984C31.5611 27.6383 31.6311 27.9588 31.8611 28.2599C31.8911 28.3473 31.9411 28.3861 32.0011 28.3473C32.0611 28.3473 32.1111 28.2987 32.1411 28.2113C32.2011 28.0559 32.2211 27.8617 32.1911 27.6189C32.1011 27.1333 32.1911 26.6089 32.4711 26.0554V26.0068C32.5311 26.3176 32.6911 26.4924 32.9411 26.5604C33.0311 26.5895 33.1011 26.6186 33.1311 26.6478C33.2911 26.7352 33.3411 26.8906 33.2711 27.1042V27.1916V27.0557C33.6511 27.0265 33.8511 27.0071 33.8811 27.0071C34.0411 26.978 34.1311 26.8809 34.1611 26.7352C34.2511 26.2496 34.1111 25.8903 33.7411 25.6767C33.6511 25.6475 33.5711 25.6184 33.5011 25.5893H32.8811H32.9311C32.9911 24.9774 33.0411 24.6376 33.0711 24.5793C33.0711 24.3656 33.0211 24.1811 32.9311 24.0257C32.6511 23.5984 32.6011 23.0352 32.7911 22.3263C32.8211 22.2389 32.9611 22.0932 33.2111 21.9184L33.1611 21.8698C33.3811 21.9961 33.5111 22.0544 33.5411 22.0544C34.2611 22.5108 34.9611 22.5108 35.6211 22.0544C35.6811 21.9961 35.7911 21.9281 35.9511 21.8698C36.1711 21.7824 36.3711 21.7533 36.5611 21.7824C36.6211 21.7824 36.9511 21.8407 37.5511 21.967L37.5011 21.9184C37.7511 22.3166 37.8911 22.5496 37.9311 22.6079C38.0511 22.8215 38.2311 22.8215 38.4511 22.6079C38.6711 22.3942 38.8111 22.2583 38.8811 22.1903C39.0011 22.0058 39.0511 21.8213 39.0211 21.6368C38.9911 21.6076 38.9311 21.4037 38.8311 21.0444L38.7811 21.0929C39.1611 20.9667 39.5211 20.753 39.8711 20.452C39.9611 20.3258 40.0911 20.3258 40.2511 20.452C40.3111 20.5103 40.3411 20.5782 40.3411 20.6365C40.3411 21.0929 40.3211 21.3746 40.2911 21.462C39.8511 22.5011 39.3611 23.2391 38.8211 23.6664C38.6011 23.8218 38.4411 24.0355 38.3511 24.3074C38.1611 24.9483 37.8311 25.5504 37.3611 26.0942C37.4811 25.9389 37.2211 26.337 36.5611 27.2887C36.4711 27.415 36.3411 27.4441 36.1811 27.3761C36.0911 27.347 36.0211 27.2984 35.9911 27.2402C35.9911 27.1819 35.9711 27.0848 35.9411 26.9683C35.8811 26.8129 35.8511 26.7061 35.8511 26.6478C35.7911 26.4924 35.6811 26.4341 35.5211 26.4633C35.3911 26.4924 35.2811 26.5701 35.1911 26.6963C35.1011 26.8809 35.0511 27.1528 35.0511 27.5218V28.7163C35.0511 29.1727 34.8011 29.4543 34.2911 29.5417C33.8211 29.6291 33.6711 29.668 33.8611 29.6291C33.3611 29.7554 33.1711 30.0564 33.2911 30.5517C33.3511 30.8916 33.3111 31.1344 33.1511 31.2898C31.8311 32.9407 30.6111 34.1643 29.5111 34.9606C29.2911 35.116 28.6111 35.7084 27.4811 36.7475C27.4511 36.7766 27.3211 36.932 27.1011 37.2039C26.7811 37.6021 26.7811 37.9808 27.1011 38.3499C27.4511 38.748 27.7311 39.0588 27.9511 39.2724C28.6111 39.9813 29.3511 40.8748 30.1711 41.9819C30.2311 42.0693 30.3111 42.1955 30.4111 42.3509C30.5411 42.5063 30.6311 42.6131 30.6911 42.6714C31.4511 43.7105 31.7511 44.7204 31.5911 45.7013V46.1091C31.5911 46.4782 31.6811 46.6433 31.8711 46.6141C31.9611 46.585 32.0611 46.4879 32.1511 46.3422C32.3411 46.0412 32.4811 46.0509 32.5811 46.3908C32.6111 46.517 32.7211 46.7307 32.9111 47.0317C33.0711 47.3036 33.1611 47.5173 33.1911 47.6727C33.1911 47.8572 33.2711 48.2262 33.4311 48.77C33.5611 49.2265 33.6211 49.5955 33.6211 49.8674C33.7411 51.5863 33.7311 52.8099 33.5711 53.5383C33.5411 53.7519 33.5411 54.0238 33.5711 54.3637C33.6611 54.8493 33.5511 55.5291 33.2411 56.3837C33.2111 56.539 33.1311 56.6167 33.0011 56.6167C32.8711 56.6167 32.7811 56.539 32.7211 56.3837C32.6611 56.2963 32.5811 56.17 32.4811 56.0146C32.3911 55.8981 32.2611 55.8495 32.1011 55.8787C31.8211 55.9661 31.7211 56.1409 31.8211 56.3837L31.9611 56.7527C32.1811 57.18 32.3411 57.5587 32.4311 57.8986V58.355C32.3011 58.8795 32.2411 59.1514 32.2411 59.1805L32.2811 59.1999ZM23.3911 16.7811C23.3011 16.9948 23.0911 17.1599 22.7811 17.2861C22.1811 17.558 21.5811 17.7134 20.9811 17.7426C20.5111 17.7717 19.8811 17.8494 19.0911 17.9756C18.4611 18.063 17.7711 18.1019 17.0111 18.063C16.7611 18.063 16.5111 17.9756 16.2511 17.7911C16.0311 17.6357 15.9511 17.4512 16.0111 17.2376C16.1011 16.8977 16.1711 16.7132 16.2011 16.684C17.0811 15.2759 18.0011 14.2659 18.9411 13.6541C19.0311 13.5958 19.1911 13.4599 19.4111 13.2462C19.6311 13.0035 19.9511 12.8966 20.3611 12.9258C20.9311 12.9258 21.3711 13.0909 21.6811 13.4308C21.9011 13.6444 22.2611 13.9649 22.7711 14.3922C23.2111 14.8195 23.5611 15.1594 23.8111 15.4021C23.8111 15.4313 23.9211 15.509 24.1411 15.6352V15.5867C23.7611 16.014 23.5111 16.4121 23.3811 16.7811H23.3911ZM20.6511 34.543C20.7411 34.3294 20.8111 34.1643 20.8411 34.0381C20.8411 33.7661 20.8911 33.5622 20.9811 33.4457C21.0711 33.2903 21.1811 33.1446 21.3111 32.9892C21.4311 32.8339 21.4311 32.7173 21.3111 32.6202C21.2511 32.5911 21.1811 32.5911 21.1211 32.6202C20.8411 32.8047 20.6211 32.9601 20.4611 33.0766C20.1811 33.2903 20.1911 33.5331 20.5111 33.8147C20.4811 33.7856 20.5911 33.8438 20.8411 33.9992C20.7811 34.2711 20.7311 34.4751 20.7011 34.5916L20.6511 34.543ZM24.1511 15.6352C24.6911 15.2371 25.0811 15.004 25.3311 14.9457V14.9943L25.4711 14.6252C25.6011 14.3533 25.5211 14.1979 25.2311 14.1688C25.1711 14.1397 25.0211 14.1203 24.8111 14.1203C24.6511 14.0911 24.5311 14.062 24.4311 14.0329C24.0811 14.0037 23.9111 13.8289 23.9111 13.5279C23.8811 13.0423 23.5511 12.6247 22.9211 12.2848C22.9211 12.2557 22.7911 12.2363 22.5411 12.2363C22.2211 12.2071 22.0811 12.1877 22.1211 12.1877C21.9911 12.1586 21.9011 12.0712 21.8411 11.9158C21.8111 11.7604 21.8211 11.6245 21.8911 11.4982C22.0811 11.2846 22.3111 11.1292 22.6011 11.0418C22.8811 10.9253 23.1511 10.935 23.4011 11.0903C23.5611 11.2166 23.7211 11.3331 23.8711 11.4594C24.0911 11.6439 24.3311 11.7798 24.5811 11.877C24.9311 12.0032 25.1311 12.0809 25.1911 12.11C25.6611 12.4791 26.0711 12.4499 26.4211 12.0226C26.6111 11.809 26.8611 11.7022 27.1811 11.7022C27.2411 11.7022 27.3011 11.673 27.3711 11.6148C27.5611 11.4982 27.6711 11.4205 27.7011 11.3817C27.7611 11.2651 27.8711 11.0127 28.0311 10.6436C28.1911 10.2746 28.5811 9.89586 29.2111 9.4977C29.2411 9.4977 29.3011 9.47827 29.4011 9.44914C29.9411 9.39087 30.4211 9.40058 30.8611 9.4977C31.2411 9.5851 31.6511 9.70163 32.0911 9.81817C32.1511 9.8473 32.2811 10.0027 32.4711 10.2746C32.6611 10.5465 32.9611 10.6145 33.3711 10.4591C33.5311 10.43 33.5911 10.4106 33.5611 10.4106C33.7811 10.4106 33.9111 10.43 33.9411 10.4591C34.2911 10.6436 34.5411 10.7504 34.7011 10.7796C35.0811 10.867 35.4711 11.0224 35.8811 11.236C36.5711 11.6342 36.8611 12.1197 36.7311 12.7024C36.7011 12.8287 36.7511 12.9355 36.8711 13.0229C37.0011 13.1103 37.1411 13.1297 37.3011 13.0714L37.6811 12.9355C37.8711 12.8481 38.0611 12.8772 38.2511 13.0229C38.4411 13.1783 38.6411 13.3628 38.8611 13.5764C39.0211 13.7318 39.1011 13.9163 39.1011 14.13C39.0711 14.2562 39.0411 14.4504 39.0111 14.7321C38.6911 14.6058 38.5111 14.5281 38.4411 14.499C38.3111 14.4699 38.1911 14.499 38.0611 14.5864C37.9711 14.6738 37.9711 14.7903 38.0611 14.9069C38.1211 14.9651 38.1911 14.9943 38.2511 14.9943C38.3111 14.9651 38.5511 14.868 38.9611 14.7224H39.3911C39.6111 14.7515 39.8011 14.8486 39.9611 14.9943C40.2111 15.2662 40.4611 15.6643 40.7211 16.1888C40.6611 16.0722 40.7711 16.3927 41.0511 17.1502C41.2411 17.6746 41.2711 18.2864 41.1411 18.9856C41.1111 19.2964 40.9511 19.4032 40.6711 19.3061C40.1311 19.1216 39.5811 19.073 39.0211 19.1701C38.4811 19.2575 38.0411 19.1216 37.7011 18.7525C37.4211 18.5097 36.9911 18.2767 36.4211 18.063C36.2611 18.0339 36.1411 18.0825 36.0411 18.199C35.9111 18.3252 35.9011 18.4418 35.9911 18.568C36.1111 18.7234 36.1611 18.8302 36.1311 18.8885C36.1011 18.9759 35.9711 19.0147 35.7511 18.9759C35.8411 18.9759 35.6411 18.9565 35.1311 18.9273C35.1911 18.9273 35.1311 18.9079 34.9411 18.8788C34.8511 18.8496 34.7711 18.7719 34.7011 18.6457C34.6411 18.5292 34.6211 18.4321 34.6511 18.3738C34.7811 18.1601 34.8611 18.0533 34.8911 18.0533C34.9211 17.9951 35.1711 17.7523 35.6511 17.3153L35.6011 17.2667C35.7611 17.1113 35.7711 16.9948 35.6511 16.8977C35.4911 16.8103 35.1311 16.6063 34.5611 16.3053C34.3711 16.2179 34.1811 16.2859 33.9911 16.5384C33.8611 16.7229 33.7811 16.8297 33.7511 16.8588C33.7211 16.888 33.6911 16.9462 33.6611 17.0433C33.6311 17.1307 33.6011 17.1987 33.5711 17.2279C33.3211 17.6552 33.0211 17.7134 32.6711 17.4124C32.6111 17.3832 32.4511 17.2473 32.2011 17.0045C31.9511 16.7617 31.5911 16.5772 31.1111 16.451C29.7911 16.0528 28.4911 16.0237 27.2311 16.3636C27.1711 16.3636 26.4911 16.4995 25.2011 16.7811C24.7311 16.9074 24.4111 16.7035 24.2511 16.179C24.2511 16.1499 24.2211 15.946 24.1611 15.5867V15.6352H24.1511ZM22.3011 15.4993L22.2511 15.6352L22.4411 15.5867L22.3011 15.4993ZM25.0511 10.6728C24.6111 10.43 24.5911 10.1969 25.0011 9.98326C25.0911 9.92499 25.2211 9.87644 25.3811 9.8473C25.6311 9.78903 25.7911 9.87644 25.8511 10.1192C25.9111 10.2455 25.8811 10.362 25.7611 10.4882C25.6311 10.6728 25.4611 10.7504 25.2411 10.7213C25.1511 10.6922 25.0811 10.6728 25.0511 10.6728ZM26.9411 9.94441V9.85701L27.0311 9.90557L26.9411 9.95413V9.94441ZM29.0211 33.4942L28.8811 33.4457L28.8311 33.5816L28.9211 33.6302C28.9211 33.6302 28.9811 33.5525 29.0111 33.4942H29.0211ZM30.1011 12.9258C29.9411 12.9549 29.7811 13.0812 29.6311 13.2948C29.5411 13.5084 29.5211 13.7707 29.5811 14.0717C29.6111 14.2853 29.7511 14.4116 30.0111 14.4407C30.1711 14.4699 30.2911 14.4407 30.3911 14.3533C30.8011 14.0523 31.0211 13.8969 31.0511 13.8969C31.0211 13.8969 31.2911 13.8192 31.8511 13.6638C31.9111 13.6347 31.9611 13.5861 31.9911 13.5279C32.0811 13.4113 32.1511 13.2948 32.1811 13.2074C32.2411 12.9646 32.1211 12.8384 31.8011 12.8384C31.4211 12.7801 30.8511 12.8092 30.1011 12.9258ZM30.2011 10.1678L30.1111 10.3037L30.1611 10.4397L30.2511 10.3523C30.2511 10.3523 30.2711 10.3037 30.3011 10.3037C30.2411 10.2455 30.2111 10.1969 30.2111 10.1678H30.2011ZM31.0011 14.8972C31.0011 14.8972 31.0211 14.9846 31.0511 15.0817L31.1911 14.9943L31.1411 14.8583L31.0011 14.9069V14.8972ZM31.8511 30.1438C31.8211 30.0564 31.7411 30.0079 31.6111 30.0079C31.4811 30.0079 31.3911 30.0564 31.3311 30.1438C31.2011 30.3284 31.1711 30.5129 31.2411 30.6974C31.3011 30.8819 31.4611 30.9887 31.7111 31.0178C31.9911 31.047 32.1011 30.8916 32.0411 30.5614C31.9511 30.2895 31.8811 30.1438 31.8511 30.1438ZM31.8111 49.0517C31.6811 49.3236 31.7311 49.5761 31.9511 49.7897C32.0811 49.8771 32.2011 49.8674 32.3311 49.7412C32.3911 49.6829 32.4211 49.6343 32.4211 49.6052C32.3611 49.3041 32.201 49.0808 31.9511 48.9643L31.8111 49.0517ZM31.8511 51.3435C31.8511 51.4698 31.9011 51.5572 31.9911 51.6154C32.0811 51.6446 32.1611 51.6446 32.2311 51.6154C32.3511 51.528 32.4011 51.4018 32.3711 51.2464C32.3111 51.1299 32.2011 51.0619 32.0411 51.0619C31.9111 51.1202 31.8511 51.2173 31.8511 51.3338V51.3435ZM32.4711 26.0554L32.9411 25.599H32.8911L32.4711 26.0166V26.0651V26.0554ZM32.4711 58.3745V57.918C32.5911 58.2288 32.5911 58.3745 32.4711 58.3745ZM33.4111 21.7824L33.3611 21.831C33.3611 21.831 33.2711 21.8504 33.1711 21.8796L33.2211 21.9281C33.3111 21.8698 33.3811 21.8213 33.4111 21.7922V21.7824ZM34.3111 12.6927L34.4011 12.7413V12.6539L34.3111 12.7024V12.6927ZM36.8211 24.725C36.8811 24.8124 37.0111 24.8803 37.2011 24.9095C37.5111 24.9095 37.6411 24.7832 37.5811 24.5404C37.5211 24.3851 37.4211 24.3074 37.3011 24.3074C37.2711 24.3074 37.0611 24.3365 36.6911 24.3948C36.9111 24.0257 36.9611 23.647 36.8311 23.2488C36.8011 23.1226 36.7211 23.0158 36.5911 22.9284C36.3711 22.8021 36.1211 22.7439 35.8311 22.7439C35.5811 22.7147 35.4211 22.8215 35.3611 23.0643C35.3011 23.3751 35.2811 23.4916 35.3111 23.4334C35.1811 23.7732 35.2811 24.0646 35.5911 24.3074C35.9711 24.5793 36.3511 24.5987 36.7211 24.3559C36.7811 24.5696 36.8111 24.6958 36.8111 24.725H36.8211ZM36.1511 13.8483C35.9311 13.8775 35.9311 13.9357 36.1511 14.0329L36.2911 13.9455C36.2311 13.8872 36.1811 13.8581 36.1511 13.8581V13.8483ZM38.4211 16.2762C38.5111 16.0334 38.4311 15.8974 38.1811 15.8683C38.0211 15.8683 37.9311 15.9266 37.9011 16.0528C37.8111 16.2956 37.8811 16.4315 38.1411 16.4704C38.3011 16.4995 38.3911 16.4412 38.4211 16.2859V16.2762Z" fill="black"/>
  <path d="M49.8631 39.6335C50.0888 38.972 50.3813 38.4557 50.724 38.0765C50.9747 37.7861 51.1586 37.4392 51.2756 37.0197C51.3174 36.9552 51.3675 36.8422 51.4093 36.689C51.4511 36.5357 51.4929 36.4147 51.5096 36.3259C51.7604 35.487 52.195 34.7125 52.8134 34.0026C52.8552 33.9623 52.9305 33.8897 53.0224 33.8009C53.1143 33.688 53.1812 33.6154 53.2313 33.567C53.4403 33.3492 53.574 33.1394 53.6409 32.9377C53.8916 32.2762 54.3596 31.3485 55.045 30.1546C55.1369 30.0013 55.3542 29.5576 55.6969 28.8316C55.6468 28.9203 55.722 28.7348 55.9058 28.2669C56.0897 27.8474 56.3739 27.4359 56.7667 27.0407C56.9004 26.9116 56.984 26.7341 57.0091 26.5082C57.0091 26.2178 57.0927 25.9435 57.2515 25.6773C57.7111 24.8141 58.1541 23.8783 58.5887 22.8619C58.7475 22.4827 59.0567 22.2407 59.5164 22.1358C59.8842 22.0229 60.2268 21.9826 60.5444 22.0068C60.7952 22.031 61.2047 22.0713 61.7814 22.1358C61.9151 22.16 62.0071 22.1923 62.0572 22.2326C62.216 22.3214 62.4333 22.402 62.7091 22.4666C63.0518 22.5311 63.2691 22.5876 63.361 22.636C63.6118 22.7247 63.8625 22.7651 64.1132 22.7651C64.5729 22.7247 64.9908 22.9506 65.3836 23.4588C65.4338 23.5234 65.5173 23.6686 65.6594 23.8864C65.7514 24.0881 65.8517 24.2333 65.9687 24.314C66.0104 24.3785 66.0104 24.4834 65.9687 24.6124C65.9185 24.677 65.8684 24.7577 65.7931 24.8464C64.7818 26.2581 63.8625 28.1701 63.01 30.5821C62.9431 30.7112 62.8178 31.0904 62.6339 31.7115C62.3581 32.6635 62.099 33.3572 61.8483 33.8009C61.6226 34.2446 61.4805 34.7045 61.4387 35.1965C61.4136 35.5757 61.2799 36.0517 61.0292 36.6244C60.8704 37.0197 60.7868 37.4553 60.7868 37.9152V38.3427C60.7868 38.4718 60.7283 38.617 60.6113 38.7703C60.3606 39.0607 60.2101 39.2543 60.1683 39.3673C60.0764 39.6335 60.1098 39.8674 60.2686 40.061C60.2937 40.0852 60.3271 40.1175 60.3689 40.1578C60.4107 40.2062 60.4525 40.2385 60.4692 40.2547C60.5611 40.3837 60.5946 40.5289 60.5695 40.6822C60.5194 40.9 60.4776 41.0936 60.4358 41.2469C60.3856 41.3599 60.3104 41.5454 60.1934 41.8116C60.1015 42.0294 60.0346 42.2069 59.9845 42.344C59.7588 43.0298 59.6084 43.6025 59.5415 44.0704C59.5164 44.2479 59.4746 44.5706 59.4078 45.0304C59.3409 45.4257 59.2908 45.7403 59.274 45.9581C59.249 46.0711 59.2072 46.2163 59.1403 46.3857C59.0484 46.6035 58.9147 46.7406 58.7308 46.781C58.5971 46.8294 58.5051 46.8617 58.455 46.8778C58.2042 46.9665 58.0956 47.1198 58.1457 47.3376C58.2377 47.8216 58.2962 48.0637 58.3213 48.0637C58.3463 47.9507 58.2878 48.1443 58.1457 48.6284C57.895 49.4673 57.7362 50.3386 57.6693 51.2502C57.6693 51.3389 57.661 51.4841 57.6359 51.6777C57.6108 51.8714 57.5858 52.0246 57.569 52.1053C57.544 52.4845 57.7195 52.7103 58.0872 52.7991C58.5887 52.912 59.0233 53.0411 59.3911 53.1944C59.6418 53.2831 59.8507 53.4122 60.0095 53.5897C60.1683 53.7671 60.4191 54.0737 60.7617 54.5174C60.8286 54.5819 60.8537 54.6707 60.8286 54.7836C60.8035 54.9127 60.745 54.9933 60.6531 55.0175C60.6531 55.0417 60.628 55.0498 60.5862 55.0498C60.5611 55.074 60.5361 55.0821 60.5194 55.0821C60.1516 55.2596 59.8173 55.3564 59.5248 55.3806C59.274 55.3806 58.9732 55.4612 58.6305 55.6145C58.3798 55.7436 58.221 55.8646 58.1457 55.9775C57.9869 56.2437 57.7028 56.4293 57.2849 56.5422C57.1679 56.5906 57.1094 56.6552 57.1094 56.7439C57.0843 56.8569 57.1344 56.9537 57.2431 57.0424L57.4855 57.1715C57.6693 57.2844 57.7362 57.4458 57.6944 57.6716C57.6944 57.7846 57.6443 58.0024 57.5607 58.3331C57.4938 58.5994 57.4437 58.8172 57.427 58.9946C57.3768 59.4787 57.3768 59.8256 57.427 60.0192C57.4938 60.2854 57.4604 60.6161 57.3267 61.0114C57.2598 61.1647 57.2932 61.3019 57.427 61.4067C57.6777 61.6084 57.8031 61.8746 57.8031 62.2054C57.778 62.4071 57.8699 62.5603 58.0789 62.6733C58.3547 62.8265 58.4466 63.0928 58.3547 63.4719C58.0371 64.5771 57.7362 65.3596 57.4604 65.8275C57.2347 66.2067 57.1428 66.5778 57.1846 66.9569C57.2097 67.1747 57.1762 67.4168 57.0843 67.683C56.9506 68.0137 56.8336 68.2799 56.7416 68.4816C56.4658 69.1028 56.2819 69.7159 56.19 70.3371C56.0981 70.7969 55.9978 71.289 55.8808 71.7972C55.8306 71.9505 55.747 72.1199 55.605 72.2974C55.4462 72.5394 55.1954 72.6846 54.8528 72.7249C54.7608 72.7491 54.6689 72.7249 54.577 72.6604C54.368 72.5313 54.2092 72.3942 54.1006 72.2651C54.1256 72.2893 53.8331 71.9424 53.2397 71.2406C52.9639 70.9098 52.8803 70.5871 52.9973 70.2806C53.0642 70.1273 53.0893 69.8853 53.0642 69.5546C53.0642 69.1109 53.1227 68.7236 53.2397 68.3929C53.2815 68.2154 53.3066 68.0702 53.3066 67.9653C53.3316 67.6346 53.457 67.2151 53.6827 66.7068C53.8665 66.2874 53.9585 65.8598 53.9585 65.4161C53.9334 64.8433 54.0003 63.8027 54.1674 62.3022C54.1925 61.9956 54.2677 61.7133 54.4098 61.4713C54.5268 61.2535 54.5937 61.1163 54.6187 61.076C55.0116 60.3903 55.1871 59.632 55.1704 58.7849C55.1704 58.6316 55.1202 58.4945 55.0366 58.3896C54.9447 58.2363 54.9363 58.0508 55.0032 57.8249C55.1369 57.3167 55.2205 57.0263 55.2456 56.9617C55.2706 56.8326 55.2706 56.6874 55.2456 56.5342C55.1954 56.2922 55.0701 56.1389 54.8695 56.0663C54.4767 55.9372 54.0922 55.8243 53.6994 55.7355C53.6074 55.7113 53.457 55.6952 53.2564 55.671C53.0475 55.6468 52.897 55.6306 52.8134 55.6064C52.7299 55.5822 52.2284 55.4532 51.3341 55.2112C51.0583 55.1224 50.9079 55.0821 50.8912 55.0821C50.6153 55.0579 49.7712 54.9046 48.3504 54.6142C48.2835 54.59 48.1749 54.5819 48.0411 54.5819C47.4227 54.4932 46.9546 54.7271 46.637 55.2757C46.5869 55.3886 46.5702 55.429 46.5702 55.4048C45.9266 57.0182 45.5839 57.9943 45.5421 58.3251C45.492 58.6558 45.3583 58.9785 45.1326 59.2851C44.6729 59.9708 44.2133 60.842 43.7619 61.9069C43.67 62.1086 43.6031 62.2376 43.553 62.3022C42.9596 63.359 42.4163 64.803 41.9399 66.61C41.7143 67.562 41.4468 68.3525 41.1543 68.9979C41.0624 69.2157 40.8868 69.6836 40.6361 70.3935C40.2433 71.5391 39.5496 72.5475 38.5383 73.4106C38.4046 73.5236 38.2792 73.6123 38.1622 73.6769C37.8613 73.7898 37.5771 73.8866 37.3013 73.9753C37.1175 74.0157 36.9085 74.0076 36.6829 73.9431C36.5241 73.8785 36.3987 73.814 36.3068 73.7414C35.9139 73.451 35.2202 73.0476 34.2089 72.5152C34.0752 72.4265 34 72.2974 34 72.1199C34 71.9182 34.0251 71.7327 34.0669 71.5552C34.0919 71.4665 34.1504 71.3213 34.2424 71.1276C34.3761 70.8856 34.6436 70.3532 35.028 69.5384C35.3289 68.8527 35.5796 68.3122 35.7802 67.9169C35.6883 68.0944 35.8471 67.7394 36.2566 66.8601C36.7163 65.8437 37.0339 65.1741 37.2178 64.8353C37.5186 64.198 37.8362 63.6978 38.1789 63.3428L38.4547 62.9798C38.5717 62.8265 38.6386 62.641 38.6637 62.4151V61.8181C38.6637 61.5519 38.7807 61.2857 39.0063 61.0195C39.0983 60.9066 39.3406 60.6565 39.7251 60.2612C40.026 59.9304 40.26 59.5029 40.4439 58.9704C40.4439 58.9059 40.4522 58.801 40.4773 58.672C40.5692 58.0508 40.82 57.5264 41.2295 57.0827C41.6223 56.6229 41.9399 56.0663 42.1907 55.429C42.2826 55.1628 42.3244 54.9207 42.3244 54.7029C42.3244 54.59 42.316 54.4932 42.291 54.4044C42.2241 53.9204 42.3578 53.396 42.7005 52.8475C42.8593 52.5813 43.0682 52.3715 43.319 52.2182C43.5948 52.0408 43.8204 51.7745 44.0043 51.4196C44.3219 50.8226 44.6228 50.2579 44.8986 49.7336C46.0854 47.3053 46.7958 45.8775 47.0298 45.458C47.3474 44.861 47.6901 44.1511 48.0579 43.3363C48.2835 42.8039 48.5593 42.3279 48.8853 41.9084C48.9521 41.8439 49.1026 41.6422 49.3282 41.3114H49.2948C49.3199 41.2227 49.5121 40.6741 49.8799 39.6496L49.8631 39.6335ZM48.5259 47.8216C48.5677 47.7974 48.5844 47.7652 48.5593 47.7248C48.4925 47.6119 48.434 47.6119 48.3838 47.7248C48.3587 47.7248 48.3587 47.7732 48.3838 47.8539L48.5175 47.8216H48.5259ZM51.7186 43.6106L51.8189 43.546C51.4261 44.4738 51.2004 45.0143 51.1335 45.1675C51.0667 45.2966 51.0165 45.4418 50.9998 45.5951C50.9079 46.1033 50.6655 46.9101 50.281 48.0153C50.2309 48.0798 49.9384 48.8139 49.3867 50.2015C49.253 50.5322 49.1611 50.863 49.1109 51.1937C49.0608 51.4841 49.1778 51.6939 49.4536 51.823C49.5873 51.8875 49.6375 51.9117 49.5873 51.8875C50.3646 52.1295 50.7992 52.2666 50.8912 52.2828C52.22 52.5006 53.0809 52.6135 53.4654 52.6135C53.6242 52.6135 53.8749 52.6458 54.2176 52.7103C54.6522 52.7749 55.1536 52.7426 55.7303 52.6135L55.8641 52.5813C56.0479 52.4683 56.1649 52.3715 56.2067 52.2828C56.3237 51.9762 56.3655 51.5729 56.3405 51.0888C56.3405 50.4677 56.399 49.6448 56.516 48.6042C56.6497 47.386 56.7333 46.547 56.7583 46.0872C56.7583 45.9985 56.7834 45.8533 56.8252 45.6596C56.984 44.9981 57.0425 44.264 57.0007 43.4734C56.9506 42.8119 56.9756 42.2714 57.0676 41.8519C57.1846 41.3921 57.2013 40.9 57.1344 40.3918C57.0007 39.4641 57.0007 38.4799 57.1344 37.4392C57.1595 37.2375 57.1428 37.0439 57.101 36.8422C57.0341 36.5518 56.8503 36.4228 56.5494 36.447C56.2987 36.4712 56.1231 36.568 56.0312 36.7454C55.9643 36.8745 55.8724 37.0762 55.7554 37.3424C55.6217 37.6328 55.513 37.8264 55.4462 37.9394C55.4211 38.0039 55.3542 38.0685 55.2372 38.1411C55.2121 38.1411 55.1118 38.1491 54.928 38.1733C54.6772 38.2217 54.485 38.3589 54.3429 38.6009C54.251 38.7542 54.1256 38.9639 53.9668 39.2301C53.783 39.5851 53.6659 39.8029 53.6242 39.8916C53.1394 40.7306 52.8302 41.5051 52.6964 42.215C52.6714 42.3037 52.6463 42.4247 52.6296 42.578C52.6296 42.7555 52.6212 42.8765 52.5961 42.941C52.5711 43.0298 52.5126 43.1104 52.4206 43.175C52.1699 43.3766 51.9526 43.5057 51.7687 43.5702L51.7019 43.6025L51.7186 43.6106ZM57.4855 30.4531C57.4186 30.3401 57.2765 30.3643 57.0759 30.5176C56.7751 30.7596 56.5578 31.0258 56.424 31.3162C56.307 31.5825 55.9309 32.2762 55.2874 33.4056C54.8778 34.1155 54.5686 34.7851 54.3596 35.4305C54.2426 35.7854 54.0755 36.0839 53.8415 36.3259C53.7245 36.4792 53.2898 37.1407 52.5376 38.3185C52.2869 38.6977 52.1448 39.1575 52.1281 39.7142C52.1281 39.7787 52.1532 39.8674 52.195 39.9804C52.312 40.1982 52.4457 40.2385 52.6045 40.0772C52.7382 39.9481 52.9137 39.698 53.1227 39.3511C53.4403 38.7542 54.1423 37.4957 55.2205 35.5757C56.0897 34.0268 56.7918 32.7764 57.3183 31.8325C57.4102 31.6551 57.4938 31.4776 57.5607 31.3001C57.6526 31.0823 57.6777 30.8806 57.6276 30.7031C57.6025 30.6144 57.5607 30.5337 57.4938 30.4692L57.4855 30.4531ZM54.2928 33.8009C54.2928 33.8009 54.2844 33.7767 54.2594 33.6719C54.1925 33.454 54.0671 33.4056 53.8832 33.5428C53.5406 33.7848 53.4069 34.172 53.4737 34.7045C53.4988 34.769 53.5573 34.8174 53.6492 34.8335C53.7412 34.8577 53.808 34.8416 53.8582 34.8013C54.134 34.648 54.2844 34.4382 54.3011 34.172V33.809L54.2928 33.8009ZM56.7333 35.3902C56.8503 35.4386 56.9589 35.4224 57.0759 35.3579C57.1929 35.2934 57.2515 35.1885 57.2515 35.0594C57.2515 34.9465 57.2431 34.8577 57.218 34.7932C57.1261 34.5028 56.9673 34.4544 56.7416 34.6238C56.5578 34.7367 56.4658 34.89 56.4658 35.0836C56.4407 35.2127 56.5327 35.3176 56.7416 35.3821L56.7333 35.3902ZM59.4412 40.0691C59.3493 40.0449 59.2657 40.0772 59.1988 40.1659C59.1069 40.2547 59.1152 40.3353 59.2323 40.3999C59.3911 40.5128 59.5081 40.4805 59.5749 40.3031C59.6 40.1901 59.5498 40.1175 59.4412 40.0691Z" fill="black"/>
  <path d="M94.5711 60.1613C94.0311 61.8802 93.7311 62.8513 93.6711 63.1038C93.4511 63.7447 93.3411 64.2788 93.3411 64.7061V64.8906C93.1811 66.6678 92.6811 68.3479 91.8311 69.9405C91.5511 70.494 91.3311 70.999 91.1711 71.4555C90.9211 72.4363 90.3411 73.6793 89.4211 75.1749C89.0111 75.8741 88.3211 76.2625 87.3411 76.3208H86.9211C86.7011 76.2917 86.5611 76.2722 86.4911 76.2722C85.9211 76.2722 85.4811 76.4373 85.1711 76.7772C85.1411 76.8064 85.0111 76.8646 84.7911 76.9617C84.3511 77.1754 84.0511 77.0491 83.8911 76.5927C83.8311 76.4082 83.8011 76.282 83.8011 76.2237C83.7411 75.8838 83.7211 75.136 83.7511 73.9707C83.7511 73.8444 83.7811 73.7085 83.8411 73.5531C84.1211 72.7568 84.2511 72.378 84.2211 72.4072C84.1311 72.5334 84.2011 72.2129 84.4611 71.4457C84.4611 71.3583 84.6011 70.9699 84.8811 70.2998L85.0211 70.2513L84.8311 70.2998C84.8611 69.2316 84.8911 68.6198 84.9211 68.4644C84.9211 68.008 85.0111 67.6098 85.2011 67.2699C85.3311 66.9689 85.4111 66.5707 85.4411 66.0754V65.483C85.5011 65.0849 85.6111 64.7644 85.7711 64.5216C86.3711 63.5117 86.7911 62.6571 87.0511 61.9481C87.1411 61.7054 87.3011 61.4723 87.5211 61.2586C87.8411 61.045 88.0111 60.7537 88.0411 60.3846C88.1711 59.1319 88.5011 57.6752 89.0311 56.0243C89.6611 54.218 90.0711 52.839 90.2611 51.897L90.8311 50.149C90.9911 49.6925 90.8111 49.4497 90.3111 49.4109C90.0911 49.3818 89.8811 49.3623 89.6911 49.3623C89.8811 49.3623 89.6611 49.3915 89.0311 49.4497C88.8411 49.4497 88.6811 49.3235 88.5611 49.0807C88.4711 48.8379 88.4711 48.634 88.5611 48.4883C88.7511 48.2164 88.9411 48.0125 89.1311 47.8959C89.3811 47.7114 89.9011 47.3618 90.6911 46.8374C91.9511 46.012 92.4711 45.6721 92.2511 45.8274C92.7911 45.4584 93.1011 45.0214 93.2011 44.497C93.2011 44.4387 93.2211 44.3416 93.2511 44.2251C93.2811 44.1086 93.3111 43.992 93.3411 43.9046C93.4011 43.3219 93.6111 42.681 93.9611 41.9721C94.0211 41.7876 94.2011 41.3408 94.4811 40.6416C94.5111 40.4862 94.6211 40.1561 94.8111 39.6317C94.9311 39.2335 95.0511 38.913 95.1411 38.6702C95.5511 37.5729 95.9911 36.4172 96.4611 35.2325C96.5211 35.1062 96.6611 34.8052 96.8911 34.3099C97.0511 33.9117 97.1711 33.5913 97.2711 33.3485C97.1811 33.6592 97.3311 32.9989 97.7411 31.3771C97.8611 31.0081 97.9911 30.6099 98.1211 30.1826C98.3411 29.6291 98.8311 28.0753 99.5811 25.5018C99.8611 24.5501 100.051 23.6858 100.151 22.8894C100.211 22.0931 100.401 21.3745 100.721 20.7335C100.781 20.5782 100.931 20.1412 101.151 19.4031C101.241 19.0632 101.351 18.801 101.481 18.6262C101.671 18.4126 101.791 18.1018 101.861 17.7036C102.141 16.4509 102.361 15.5963 102.521 15.1301C102.651 14.8291 102.771 14.4309 102.901 13.9357C103.061 13.353 103.171 12.9742 103.231 12.7897C103.291 12.6343 103.391 12.4498 103.511 12.2362C103.671 12.0225 103.701 11.7603 103.601 11.4593C103.541 11.1582 103.581 10.896 103.741 10.6824C104.371 9.94433 104.801 9.51704 105.021 9.4005C105.241 9.27425 105.871 9.1383 106.911 8.98292H107.761C108.301 9.04118 108.531 9.33252 108.471 9.85693C108.411 10.2842 108.361 10.5659 108.331 10.6824C108.271 11.0223 108.081 11.7506 107.761 12.8868C107.441 14.0522 107.261 14.7708 107.191 15.0427C107.161 15.1981 107.101 15.4992 107.001 15.9653C106.941 16.3343 106.861 16.6257 106.761 16.8393C106.731 17.2084 106.521 18.1989 106.141 19.8207C105.891 20.8889 105.571 22.0057 105.191 23.1711C104.911 24.0257 104.671 24.8803 104.481 25.7446C104.351 26.4535 103.871 28.5802 103.021 32.1249C102.931 32.523 102.851 32.7852 102.781 32.9018C102.501 33.6398 102.281 34.4944 102.121 35.4752C102.031 36.2133 101.881 36.7474 101.701 37.0776C101.641 37.2038 101.611 37.3204 101.611 37.4466C101.551 38.3012 101.281 39.4374 100.811 40.8456C100.751 41.0009 100.781 41.1563 100.901 41.302C101.021 41.4574 101.171 41.5351 101.321 41.5351C101.541 41.5351 101.621 41.5545 101.561 41.5836C103.011 41.3117 103.831 41.1369 104.021 41.0786C104.931 40.8359 105.611 40.6999 106.051 40.661C106.301 40.6319 106.631 40.5057 107.041 40.292C107.201 40.1658 107.291 40.0784 107.321 40.0201C107.511 39.6802 107.761 39.2723 108.081 38.7771C108.111 38.7188 108.131 38.6508 108.131 38.5926C108.101 38.2235 108.291 37.6408 108.701 36.8445C108.981 36.291 109.191 35.8637 109.311 35.5626C109.691 34.5527 110.051 33.7466 110.401 33.1348C110.621 32.7367 110.751 32.3385 110.781 31.9403C110.781 31.513 110.911 30.9109 111.161 30.1535C112.551 25.8708 113.461 23.2196 113.901 22.2097C114.061 21.8115 114.151 21.491 114.181 21.2482C114.371 20.3936 114.731 19.3545 115.271 18.1309C116.091 16.2664 116.801 14.2756 117.401 12.1682C117.561 11.4981 117.871 10.5173 118.351 9.2257C118.671 8.34197 118.891 7.54565 119.011 6.83673C119.041 6.62308 119.141 6.13752 119.291 5.37033C119.421 4.72938 119.511 4.2244 119.571 3.85537C119.631 3.33096 119.921 2.87453 120.421 2.47637C120.701 2.23359 120.941 2.09763 121.131 2.05879C121.671 1.90341 122.191 1.70918 122.691 1.4664C122.881 1.34987 123.381 1.1168 124.201 0.776901C124.701 0.563253 125.221 0.359317 125.761 0.184514C126.071 0.0582676 126.421 0 126.801 0C127.111 0 127.381 0.0874014 127.601 0.271915C127.791 0.427296 127.901 0.592387 127.931 0.776901C128.061 1.26246 128.021 1.7286 127.841 2.1559C127.151 3.50577 126.771 4.23411 126.711 4.36036C126.241 5.31206 126.021 5.73936 126.051 5.64224C125.731 6.25405 125.451 7.02124 125.201 7.9341C125.041 8.48764 124.811 8.9732 124.491 9.4005C124.301 9.61415 124.171 9.77924 124.111 9.90549C123.831 10.391 123.651 10.8378 123.591 11.2359C123.431 12.0905 123.151 12.9354 122.741 13.7609C122.711 13.8483 122.601 14.1784 122.411 14.7223C122.131 15.5186 121.981 15.8973 121.981 15.8682C121.631 16.5674 121.331 17.4706 121.081 18.5776C121.051 18.7622 120.911 19.2186 120.651 19.9566C120.211 21.2094 119.921 22.1902 119.801 22.8894C119.641 23.744 119.411 24.4627 119.091 25.0453C118.811 25.628 118.441 26.5117 118.001 27.7062C117.911 28.017 117.671 28.2403 117.291 28.3957C117.261 28.3957 117.151 28.4734 116.961 28.6288C116.711 28.8133 116.711 28.9784 116.961 29.1338C117.271 29.3766 117.321 29.6873 117.101 30.0564C117.071 30.0855 117.041 30.1438 117.011 30.2409L116.871 30.3768C116.741 30.6196 116.661 30.8818 116.631 31.1537C116.631 31.212 116.611 31.2897 116.581 31.3868C116.551 32.5521 116.281 33.4553 115.781 34.0962C115.651 34.2516 115.561 34.4944 115.501 34.8343C115.411 35.1062 115.261 35.5723 115.081 36.2133C114.891 36.796 114.751 37.2524 114.651 37.5923C114.621 37.7185 114.331 38.6217 113.801 40.3017C113.261 42.0498 112.951 43.1666 112.851 43.6521C112.761 44.0503 112.611 44.4484 112.421 44.8466C112.141 45.4293 111.991 46.012 111.991 46.5946C111.991 46.75 111.931 47.0122 111.801 47.3715C111.741 47.556 111.631 47.8182 111.471 48.1484C111.121 48.9448 110.971 49.7411 111.001 50.5374C111.001 50.8093 110.911 51.4891 110.721 52.5573C110.561 53.5382 110.581 54.3442 110.771 54.9852C110.831 55.1114 110.861 55.3056 110.861 55.5775C110.861 56.0631 110.691 56.4224 110.341 56.6361C110.121 56.8206 109.991 57.0537 109.961 57.3256V57.5586C110.051 59.2096 109.911 61.1712 109.531 63.434C109.221 65.4248 109.091 66.3085 109.151 66.0948C109.151 65.7258 109.071 66.5416 108.911 68.5324C108.911 68.7752 108.861 69.2801 108.771 70.0473C108.711 70.6883 108.681 71.2127 108.681 71.6108C108.651 71.9799 108.511 73.0481 108.261 74.8253C108.231 74.9807 108.181 75.2234 108.121 75.5633C108.091 75.8352 108.061 76.0683 108.031 76.2528C107.901 77.1366 107.531 77.8649 106.901 78.4087C106.581 78.6806 105.891 79.2536 104.821 80.1082C104.631 80.2344 104.361 80.3218 104.021 80.3801C103.331 80.4675 102.571 80.3801 101.751 80.1082C101.431 79.982 101.151 79.7877 100.901 79.5158C100.711 79.3022 100.581 79.0691 100.521 78.8263C100.361 78.2145 100.361 77.5444 100.521 76.8064C100.521 76.719 100.661 75.9809 100.941 74.6019C101.411 72.3683 101.661 71.1641 101.701 70.9796C101.981 69.8434 102.251 68.8528 102.501 67.9983C103.221 65.7938 103.821 63.1329 104.301 60.0156C104.491 58.6366 104.651 57.7043 104.771 57.2188C104.831 57.0051 104.861 56.8691 104.861 56.8109C104.951 56.1699 105.411 53.7615 106.231 49.6051C106.321 49.0807 106.581 47.7406 106.991 45.5652C107.051 45.0797 106.831 44.8757 106.331 44.9729C106.111 45.002 106.031 45.0214 106.091 45.0214C105.871 45.0505 105.731 45.0797 105.661 45.1088C103.861 45.7498 102.431 46.2839 101.361 46.7112C101.141 46.7694 100.891 46.8957 100.601 47.0802C100.321 47.2356 100.101 47.4784 99.9411 47.8182C99.8811 47.9736 99.8011 48.2261 99.7011 48.5952C99.1011 50.7025 98.2311 52.8001 97.1011 54.8881C97.0111 55.0726 96.8311 55.4125 96.5811 55.898C96.3611 56.3253 96.1911 56.6458 96.0611 56.8594C95.8111 57.2867 95.5411 57.85 95.2611 58.5589C94.8811 59.4426 94.6311 60.0156 94.5011 60.2584L94.4511 60.2098H94.5411L94.5711 60.1613ZM87.5211 67.4544L87.5711 67.367L87.4811 67.3185L87.5311 67.4544H87.5211ZM88.0911 63.6476C87.9611 63.6767 87.9011 63.7739 87.9011 63.9195C87.8711 64.1914 87.9811 64.2983 88.2311 64.24C88.3911 64.2109 88.4711 64.1235 88.4711 63.9681C88.4711 63.6962 88.3411 63.5893 88.0911 63.6476ZM89.4611 59.1027C89.2711 59.161 89.1311 59.2387 89.0411 59.3358C88.9811 59.3649 88.9811 59.4135 89.0411 59.4718C89.0711 59.5592 89.1211 59.598 89.1811 59.5592C89.2711 59.53 89.4011 59.4426 89.5611 59.2873C89.7211 59.1319 89.8411 59.025 89.9411 58.9668C90.1611 59.3941 90.2911 59.6271 90.3211 59.6563C90.5111 59.8117 90.7011 59.8602 90.8911 59.7922C91.0211 59.734 91.1011 59.6369 91.1311 59.5203C91.1311 59.3649 91.0711 59.2581 90.9411 59.1998C90.8511 59.1707 90.5111 59.093 89.9511 58.9668C89.8911 59.025 89.7311 59.0736 89.4811 59.1027H89.4611ZM89.1311 60.8022L89.2711 60.7148L89.0811 60.6274L89.1311 60.8119V60.8022ZM97.9711 36.5629C97.8111 36.6212 97.7611 36.728 97.8311 36.8834C97.9211 37.0387 98.0311 37.0873 98.1611 37.0193C98.2911 36.9611 98.3311 36.8542 98.3011 36.6989C98.2411 36.5726 98.1311 36.5338 97.9711 36.5629ZM99.3411 33.2611H99.2011L99.2511 33.1737V33.2611H99.3411ZM100.811 29.2697C100.751 29.2989 100.701 29.3474 100.671 29.4057C100.611 29.5611 100.651 29.6485 100.811 29.6776C100.971 29.6776 101.061 29.5999 101.091 29.4445C101.061 29.26 100.961 29.2018 100.811 29.26V29.2697ZM102.411 25.5503L102.361 25.7348C102.421 25.7348 102.471 25.7543 102.501 25.7834C102.631 25.5989 102.591 25.5212 102.411 25.5503ZM103.311 19.4419C103.181 19.4128 103.071 19.4711 102.981 19.6265C102.891 19.7527 102.871 19.8595 102.931 19.9469C102.961 20.0052 103.011 20.0538 103.071 20.0829C103.231 20.112 103.341 20.0635 103.401 19.9469C103.431 19.9178 103.451 19.8595 103.451 19.7624C103.451 19.607 103.401 19.5002 103.311 19.4419ZM105.631 9.75982L105.721 9.67242L105.581 9.62386L105.631 9.75982ZM107.521 49.6051C107.361 49.576 107.281 49.6343 107.281 49.7896C107.281 49.877 107.311 49.9256 107.371 49.9256C107.531 49.9839 107.611 49.9256 107.611 49.7411L107.521 49.6051ZM113.801 31.8821H113.941L113.891 31.7461L113.801 31.8821ZM115.131 23.7635C115.071 23.6081 115.001 23.6081 114.941 23.7635L115.031 23.8994L115.121 23.7635H115.131ZM115.461 30.1826C115.371 30.2117 115.321 30.2603 115.321 30.3186C115.381 30.5031 115.491 30.5225 115.651 30.3671L115.601 30.2312L115.461 30.1826ZM116.121 26.1913C116.121 26.2787 116.151 26.3272 116.211 26.3272C116.431 26.3564 116.511 26.2787 116.451 26.0942L116.261 26.0456L116.121 26.1816V26.1913Z" fill="black"/>
  <path d="M132.519 34.5327C132.759 33.8185 133.07 33.261 133.435 32.8516C133.702 32.538 133.897 32.1634 134.022 31.7105C134.066 31.6408 134.12 31.5189 134.164 31.3534C134.209 31.1879 134.253 31.0572 134.271 30.9614C134.538 30.0555 135 29.2192 135.658 28.4614C135.703 28.4179 135.783 28.3395 135.881 28.2436C135.979 28.1217 136.05 28.0433 136.103 27.991C136.326 27.7558 136.468 27.5294 136.539 27.3116C136.806 26.5973 137.304 25.5956 138.033 24.3064C138.131 24.1409 138.362 23.6618 138.727 22.8779C138.674 22.9737 138.754 22.7733 138.949 22.2681C139.145 21.8152 139.447 21.3709 139.865 20.9441C140.008 20.8047 140.097 20.6131 140.123 20.3692C140.123 20.0556 140.212 19.7594 140.381 19.472C140.87 18.54 141.342 17.5295 141.804 16.432C141.973 16.0226 142.302 15.7612 142.792 15.648C143.183 15.5261 143.548 15.4825 143.886 15.5086C144.152 15.5348 144.588 15.5783 145.202 15.648C145.344 15.6741 145.442 15.709 145.495 15.7525C145.664 15.8484 145.896 15.9355 146.189 16.0051C146.554 16.0748 146.785 16.1358 146.883 16.1881C147.15 16.2839 147.416 16.3274 147.683 16.3274C148.172 16.2839 148.617 16.5278 149.035 17.0766C149.089 17.1462 149.178 17.303 149.329 17.5382C149.427 17.756 149.533 17.9041 149.658 17.9999C149.702 18.0696 149.702 18.1828 149.658 18.3222C149.604 18.3919 149.551 18.479 149.471 18.5748C148.404 20.0992 147.416 22.1636 146.518 24.7594C146.447 24.8987 146.314 25.3081 146.118 25.9702C145.824 26.998 145.549 27.7471 145.282 28.2175C145.042 28.6966 144.891 29.1931 144.846 29.7157C144.819 30.1251 144.677 30.6304 144.41 31.2488C144.241 31.6756 144.152 32.146 144.152 32.6425V33.1042C144.152 33.2436 144.09 33.4004 143.966 33.5659C143.699 33.8794 143.539 34.0885 143.494 34.2105C143.396 34.4979 143.432 34.7505 143.601 34.9596C143.628 34.9857 143.663 35.0205 143.708 35.0641C143.752 35.1164 143.788 35.1512 143.814 35.1686C143.912 35.308 143.948 35.4648 143.921 35.6303C143.868 35.8655 143.823 36.0745 143.779 36.24C143.725 36.362 143.645 36.5623 143.521 36.8498C143.423 37.085 143.352 37.2766 143.299 37.4247C143.058 38.1651 142.898 38.7836 142.827 39.2801C142.8 39.4717 142.756 39.8201 142.685 40.3166C142.614 40.7435 142.56 41.0832 142.543 41.3184C142.516 41.4403 142.471 41.5971 142.4 41.78C142.302 42.0152 142.16 42.1633 141.964 42.2069C141.822 42.2591 141.724 42.294 141.671 42.3114C141.404 42.4072 141.297 42.5727 141.342 42.8079C141.44 43.3305 141.502 43.5919 141.529 43.5919C141.555 43.4699 141.493 43.679 141.342 44.2016C141.075 45.1075 140.906 46.0483 140.835 47.0239C140.835 47.1197 140.826 47.2765 140.799 47.4855C140.773 47.6946 140.746 47.8514 140.728 47.9472C140.701 48.3566 140.888 48.6005 141.28 48.6963C141.813 48.8183 142.276 48.9576 142.667 49.1231C142.934 49.2189 143.156 49.3583 143.325 49.55C143.494 49.7416 143.761 50.0726 144.126 50.5517C144.197 50.6214 144.224 50.7172 144.197 50.8391C144.17 50.9785 144.108 51.0656 144.01 51.0917C144.01 51.1179 143.983 51.1266 143.939 51.1266C143.912 51.1527 143.886 51.1614 143.868 51.1614C143.476 51.3531 143.13 51.4576 142.809 51.4837C142.543 51.4837 142.222 51.5708 141.858 51.7363C141.591 51.8757 141.422 52.0064 141.351 52.1283C141.182 52.4158 140.879 52.6161 140.435 52.7381C140.31 52.7903 140.248 52.86 140.248 52.9558C140.221 53.0778 140.275 53.1823 140.39 53.2781L140.648 53.4175C140.844 53.5394 140.915 53.7137 140.87 53.9576C140.87 54.0795 140.817 54.3147 140.728 54.6718C140.657 54.9593 140.604 55.1945 140.586 55.3861C140.532 55.9087 140.532 56.2833 140.586 56.4924C140.657 56.7798 140.621 57.137 140.479 57.5638C140.408 57.7293 140.444 57.8774 140.586 57.9906C140.853 58.2084 140.986 58.4871 140.986 58.8442C140.959 59.062 141.057 59.2275 141.28 59.3408C141.573 59.5063 141.671 59.7937 141.573 60.1944C141.235 61.3878 140.915 62.2327 140.621 62.7292C140.381 63.1386 140.283 63.5393 140.328 63.94C140.355 64.1752 140.319 64.4365 140.221 64.724C140.079 65.0811 139.954 65.3685 139.856 65.5776C139.563 66.2483 139.367 66.9103 139.269 67.5811C139.172 68.0776 139.065 68.6089 138.94 69.149C138.887 69.3145 138.798 69.4974 138.647 69.689C138.478 69.9504 138.211 70.1072 137.846 70.1507C137.749 70.1768 137.651 70.1507 137.553 70.081C137.331 69.9416 137.162 69.7936 137.046 69.6542C137.073 69.6803 136.761 69.3058 136.13 68.5479C135.836 68.1908 135.756 67.8424 135.872 67.5114C135.943 67.3459 135.97 67.0845 135.943 66.7274C135.943 66.2483 136.005 65.8302 136.13 65.4731C136.174 65.2814 136.201 65.1246 136.201 65.0114C136.228 64.6543 136.361 64.2013 136.601 63.6525C136.797 63.1996 136.895 62.7379 136.895 62.2588C136.868 61.6404 136.939 60.5167 137.117 58.8965C137.144 58.5655 137.224 58.2693 137.375 57.9993C137.5 57.7641 137.571 57.616 137.597 57.5725C138.007 56.8321 138.202 56.0133 138.184 55.1074C138.184 54.9419 138.131 54.7938 138.042 54.6805C137.944 54.515 137.935 54.3147 138.007 54.0708C138.149 53.522 138.238 53.2172 138.264 53.1388C138.291 52.9994 138.291 52.8426 138.264 52.6771C138.211 52.4158 138.078 52.2503 137.864 52.1806C137.446 52.0412 137.037 51.9193 136.628 51.8234C136.53 51.7973 136.37 51.7799 136.157 51.7538C135.934 51.7276 135.783 51.7102 135.685 51.6841C135.587 51.6579 135.063 51.5186 134.12 51.2572C133.826 51.1614 133.666 51.1179 133.648 51.1179C133.355 51.0917 132.457 50.9262 130.945 50.6214C130.873 50.5952 130.758 50.5865 130.615 50.5865C129.957 50.4907 129.459 50.7433 129.121 51.3356C129.068 51.4576 129.05 51.5011 129.05 51.475C128.365 53.2172 128.001 54.2624 127.956 54.6196C127.903 54.9767 127.76 55.3251 127.52 55.6561C127.031 56.3965 126.551 57.3373 126.062 58.4784C125.964 58.6962 125.893 58.8355 125.839 58.9052C125.208 60.0463 124.639 61.5968 124.123 63.548C123.883 64.5759 123.598 65.4295 123.287 66.1177C123.189 66.3528 123.002 66.8581 122.735 67.6159C122.317 68.8528 121.579 69.9417 120.512 70.865C120.369 70.9869 120.236 71.0827 120.112 71.1524C119.791 71.2744 119.489 71.3789 119.195 71.4747C119 71.5183 118.786 71.5096 118.537 71.4399C118.368 71.3702 118.235 71.3005 118.137 71.2221C117.719 70.9085 116.981 70.473 115.914 69.8981C115.771 69.8023 115.691 69.6629 115.691 69.4713C115.691 69.2535 115.718 69.0532 115.762 68.8615C115.789 68.7657 115.851 68.6089 115.949 68.3999C116.091 68.1385 116.376 67.5636 116.785 66.6839C117.105 65.9434 117.372 65.3598 117.586 64.933C117.488 65.1246 117.657 64.7414 118.093 63.7919C118.582 62.6944 118.92 61.9714 119.115 61.6142C119.436 60.9261 119.774 60.386 120.138 60.0028L120.432 59.6108C120.556 59.4453 120.627 59.2449 120.654 59.001V58.3564C120.654 58.069 120.779 57.7815 121.019 57.5028C121.117 57.3809 121.375 57.1108 121.784 56.684C122.104 56.3269 122.353 55.8652 122.549 55.2903C122.549 55.2206 122.557 55.1074 122.584 54.968C122.682 54.2973 122.949 53.7311 123.385 53.252C123.794 52.7555 124.141 52.1544 124.407 51.4663C124.505 51.1789 124.55 50.9175 124.55 50.6823C124.55 50.5604 124.541 50.4559 124.514 50.3601C124.443 49.8374 124.585 49.2799 124.95 48.6789C125.119 48.3914 125.341 48.165 125.608 47.9995C125.902 47.8078 126.142 47.5204 126.337 47.1458C126.675 46.5012 126.996 45.8915 127.289 45.3253C128.552 42.7034 129.308 41.1703 129.548 40.7173C129.886 40.0727 130.251 39.3149 130.642 38.4264C130.882 37.8515 131.176 37.3463 131.514 36.8933C131.585 36.8237 131.745 36.6059 131.985 36.2488H131.95C131.976 36.1529 132.181 35.5606 132.572 34.4631L132.519 34.5327ZM131.096 43.3567C131.14 43.3305 131.158 43.2957 131.131 43.2521C131.06 43.1302 130.998 43.1302 130.945 43.2521C130.918 43.2521 130.918 43.3044 130.945 43.3915L131.087 43.3567H131.096ZM134.484 38.8184L134.591 38.7487C134.173 39.7504 133.933 40.3341 133.862 40.4996C133.791 40.6389 133.737 40.7957 133.72 40.9612C133.622 41.51 133.364 42.3811 132.955 43.5657C132.901 43.6354 132.59 44.4194 132.003 45.9263C131.861 46.2835 131.763 46.6406 131.709 46.9977C131.656 47.3113 131.781 47.5378 132.074 47.6772C132.216 47.7468 132.27 47.773 132.216 47.7468C133.044 48.0082 133.506 48.1562 133.604 48.1737C135.018 48.4089 135.925 48.5308 136.343 48.5308C136.512 48.5308 136.779 48.5657 137.144 48.6353C137.606 48.705 138.14 48.6702 138.745 48.5308L138.887 48.496C139.083 48.374 139.207 48.2695 139.252 48.1737C139.376 47.8427 139.421 47.4158 139.394 46.8845C139.394 46.2138 139.456 45.3253 139.581 44.2016C139.723 42.895 139.812 41.9891 139.839 41.4839C139.839 41.3881 139.865 41.2313 139.91 41.0222C140.079 40.3079 140.141 39.524 140.097 38.6616C140.043 37.9473 140.07 37.3637 140.168 36.9108C140.292 36.4143 140.31 35.8829 140.239 35.3428C140.097 34.3411 140.097 33.2784 140.239 32.1634C140.266 31.9457 140.248 31.7366 140.203 31.5189C140.132 31.2053 139.937 31.0659 139.616 31.092C139.35 31.1182 139.163 31.2227 139.065 31.4143C138.994 31.5537 138.896 31.7715 138.771 32.0589C138.629 32.3725 138.513 32.5816 138.442 32.7035C138.416 32.7732 138.344 32.8429 138.22 32.9213C138.193 32.9213 138.087 32.93 137.891 32.9561C137.624 33.0084 137.42 33.1565 137.268 33.4178C137.17 33.5833 137.037 33.8098 136.868 34.0972C136.672 34.4805 136.548 34.7157 136.503 34.8115C135.996 35.7174 135.667 36.5536 135.516 37.3115C135.489 37.4073 135.463 37.5379 135.445 37.7034C135.445 37.8951 135.436 38.0257 135.409 38.0954C135.383 38.1912 135.32 38.2783 135.223 38.348C134.956 38.5658 134.725 38.7052 134.529 38.7748L134.458 38.8097L134.484 38.8184ZM140.621 24.6374C140.55 24.5155 140.399 24.5416 140.186 24.7071C139.865 24.9684 139.634 25.2559 139.492 25.5608C139.367 25.8482 138.967 26.5973 138.291 27.8081C137.855 28.5746 137.526 29.2976 137.304 29.9858C137.179 30.369 137.001 30.6913 136.752 30.9527C136.628 31.1182 136.165 31.8324 135.365 33.0955C135.098 33.5049 134.947 34.0014 134.929 34.5937C134.929 34.6634 134.956 34.7592 135 34.8812C135.125 35.1164 135.267 35.1599 135.436 34.9857C135.578 34.8463 135.765 34.5763 135.988 34.2017C136.326 33.5572 137.073 32.1983 138.211 30.1251C139.136 28.4614 139.874 27.1113 140.435 26.0834C140.532 25.8918 140.621 25.7001 140.693 25.5085C140.79 25.2733 140.817 25.0555 140.764 24.8639C140.737 24.7681 140.693 24.681 140.621 24.6113V24.6374ZM137.224 28.2436C137.224 28.2436 137.215 28.2175 137.188 28.1043C137.117 27.8691 136.984 27.8168 136.788 27.9649C136.423 28.2262 136.281 28.6443 136.352 29.2192C136.379 29.2889 136.432 29.3412 136.539 29.3586C136.637 29.3847 136.708 29.3673 136.761 29.3238C137.055 29.1583 137.215 28.9318 137.233 28.6443V28.2524L137.224 28.2436ZM139.812 29.9596C139.937 30.0119 140.052 29.9945 140.177 29.9248C140.301 29.8551 140.363 29.7419 140.363 29.6025C140.363 29.4806 140.355 29.3847 140.328 29.3151C140.23 29.0015 140.061 28.9492 139.821 29.1321C139.625 29.2541 139.527 29.4196 139.527 29.6286C139.501 29.768 139.599 29.8813 139.821 29.9509L139.812 29.9596ZM142.694 35.0031C142.596 34.977 142.507 35.0118 142.436 35.1077C142.338 35.2035 142.347 35.2906 142.471 35.3603C142.64 35.4822 142.765 35.4474 142.836 35.2557C142.863 35.1338 142.809 35.0554 142.694 35.0031Z" fill="black"/>
  <path d="M158.867 75.2925C158.64 75.4517 158.341 75.5224 157.95 75.4959C157.669 75.4694 157.478 75.3455 157.369 75.1332C157.342 75.0802 157.315 75.0271 157.288 74.974C157.006 74.6468 156.761 74.6733 156.534 75.0536C156.371 75.3013 156.171 75.4074 155.953 75.3809L155.581 75.3367C154.973 75.4163 154.011 75.2305 152.704 74.7706C151.869 74.4964 151.079 74.0365 150.326 73.3908C149.627 72.8247 149.055 72.1171 148.61 71.2769C148.002 70.1359 147.53 69.0303 147.194 67.9423C146.695 66.421 146.387 65.5188 146.278 65.2181C146.169 64.9705 146.024 64.4486 145.86 63.6349C145.806 63.4491 145.778 63.2015 145.778 62.9007C145.778 61.6536 145.751 60.8134 145.697 60.3799C145.67 59.8404 145.742 59.3628 145.906 58.9559C146.132 58.4695 146.214 57.868 146.16 57.1693C146.132 56.7093 146.114 56.4086 146.114 56.2759C146.087 55.3826 146.278 54.5865 146.695 53.8789C147.331 52.8264 148.002 51.3316 148.701 49.4034C148.783 49.2177 148.883 48.9523 148.992 48.6339C149.101 48.2801 149.182 48.0236 149.246 47.8644C149.3 47.6433 149.409 47.5106 149.582 47.4575C149.917 47.3249 150.163 46.9976 150.335 46.4846C150.417 46.2989 150.417 46.122 150.335 45.9539C150.281 45.8212 150.172 45.6001 149.999 45.2994C149.89 45.1667 149.872 44.9987 149.954 44.8129C149.954 44.7333 149.972 44.6802 149.999 44.6537C151.361 41.9737 152.486 39.9482 153.376 38.595C154.075 37.507 154.492 36.8348 154.628 36.5606C154.991 35.7734 155.572 34.9243 156.38 33.9956C156.825 33.4826 157.297 32.9431 157.796 32.3681C158.468 31.634 159.003 30.9706 159.421 30.378C160.056 29.4847 161.173 28.2818 162.761 26.7605C162.843 26.6809 162.997 26.5747 163.224 26.4332C163.75 26.0529 164.731 25.3099 166.147 24.1955C167.063 23.4879 167.844 22.9925 168.479 22.6918C169.115 22.338 169.687 22.1346 170.186 22.0815L174.071 21.5154C174.57 21.4889 175.006 21.4978 175.36 21.5597C175.804 21.6127 176.167 21.6923 176.449 21.8073C176.53 21.8604 176.757 21.9665 177.12 22.1346C177.402 22.2407 177.62 22.338 177.792 22.4176C177.956 22.4972 178.155 22.6476 178.373 22.8687C178.536 23.0279 178.636 23.249 178.663 23.5232C178.745 24.0097 178.645 24.4696 178.373 24.903C178.037 25.363 177.72 25.7345 177.411 25.9998C176.521 26.7605 175.759 27.3796 175.114 27.8661C174.47 28.3526 173.78 28.4499 173.027 28.1491C172.773 28.043 172.609 27.9722 172.528 27.9457C171.947 27.7865 171.402 27.8661 170.903 28.1933L170.776 28.273C168.634 30.1746 167.617 31.0679 167.726 30.953C167.417 31.2802 167.209 31.5809 167.1 31.8463C167.045 31.979 166.9 32.1736 166.682 32.4124C166.237 32.8988 165.902 33.2526 165.684 33.4649C165.348 33.7922 164.921 34.2344 164.386 34.8093C163.75 35.4904 163.333 35.9238 163.133 36.1095C162.634 36.6225 162.198 37.1444 161.844 37.6574C161.681 37.9316 161.427 38.2765 161.091 38.7099C160.701 39.1964 160.437 39.5414 160.301 39.7271C159.802 40.4082 159.421 40.9477 159.176 41.3546C158.45 42.4425 157.76 43.442 157.088 44.3618C156.589 45.0164 156.235 45.5824 156.044 46.0689C155.79 46.635 155.5 47.1657 155.164 47.6521C154.61 48.5455 154.22 49.4919 153.993 50.5002C153.966 50.5533 153.938 50.6329 153.911 50.7479C153.857 50.854 153.83 50.9513 153.83 51.0309C153.802 51.2166 153.603 51.7915 153.249 52.738C153.058 53.304 152.958 53.649 152.958 53.7551C152.958 53.8347 152.913 54.0116 152.831 54.2858C152.804 54.4185 152.522 55.5329 151.996 57.6203C151.942 57.8415 151.896 58.0803 151.869 58.3545C151.76 59.7343 151.66 60.8753 151.578 61.7686C151.497 62.6619 151.56 63.3784 151.787 63.9268C151.814 63.9798 151.86 64.2098 151.914 64.6167C151.969 64.997 152.141 65.3862 152.414 65.793C152.722 66.2264 153.013 66.6068 153.285 66.934C153.594 67.3409 153.957 67.5532 154.374 67.5885C155.046 67.6682 155.527 67.7389 155.835 67.792C156.416 67.8981 156.979 67.9158 157.506 67.8362C158.205 67.7035 158.813 67.6593 159.339 67.7124C159.593 67.7124 159.838 67.6593 160.092 67.5532C160.229 67.5001 160.882 67.3232 162.053 67.0225C162.362 66.9429 162.634 66.9959 162.888 67.1817C163.169 67.3674 163.306 67.6416 163.306 67.9954C163.306 68.075 163.324 68.1281 163.351 68.1546C163.378 68.2077 163.424 68.2519 163.478 68.2785C163.614 68.3315 163.714 68.2961 163.769 68.1546C163.796 68.075 163.823 67.9512 163.85 67.792C163.905 67.6328 163.932 67.5178 163.932 67.4647C164.041 67.1375 164.295 66.8721 164.685 66.651C165.021 66.4918 165.366 66.3768 165.729 66.3237C166.482 66.2441 166.782 66.2176 166.646 66.2441C167.871 66.023 168.797 65.7046 169.442 65.2712C169.496 65.2446 169.759 65.112 170.231 64.8643C170.34 64.8112 170.467 64.8201 170.603 64.9085C170.712 64.9616 170.785 65.0589 170.812 65.1916C170.894 65.8196 170.894 66.5891 170.812 67.5089C170.812 67.6151 170.785 67.792 170.73 68.0396C170.449 69.1276 170.104 70.1005 169.687 70.9673C169.487 71.3742 169.278 71.6749 169.06 71.8606C168.951 71.9668 168.833 72.1702 168.724 72.4709C168.643 72.6921 168.498 72.8955 168.307 73.0812V72.7186C168.307 72.6655 168.28 72.6213 168.225 72.5948C168.089 72.5152 168.016 72.5505 168.016 72.7186C167.989 72.7982 167.998 72.8513 168.062 72.8778C168.062 72.9043 168.162 72.9574 168.352 73.037C168.098 73.2581 167.98 73.3731 167.98 73.3996C167.817 73.5058 167.399 73.7623 166.728 74.1692C166.537 74.2753 166.31 74.3461 166.056 74.3726C165.502 74.4257 165.194 74.4699 165.139 74.4964C165.03 74.5495 164.776 74.6291 164.386 74.7441C164.05 74.8502 163.787 74.9652 163.596 75.0713C163.569 75.0713 163.514 75.0979 163.433 75.1509C163.378 75.1775 163.324 75.204 163.269 75.2305C162.933 75.4517 162.534 75.4605 162.062 75.2748C161.926 75.1952 161.808 75.1952 161.726 75.2748C161.563 75.4605 161.227 75.5313 160.728 75.4782C160.283 75.4517 159.938 75.3455 159.684 75.1509H159.893L159.974 75.0271C159.893 75.0006 159.811 75.0536 159.72 75.1863C159.357 75.0802 159.085 75.1156 158.885 75.3102L158.867 75.2925ZM152.114 46.4669C151.951 46.4404 151.833 46.4669 151.778 46.5465C151.524 46.9003 151.415 47.2806 151.442 47.6875C151.442 47.8202 151.524 47.8909 151.696 47.8909C152.005 47.8909 152.187 47.7583 152.241 47.4841C152.241 47.4575 152.286 47.1834 152.368 46.6703C152.314 46.5642 152.232 46.4935 152.114 46.4669ZM151.733 49.5538L151.569 49.598C151.624 49.6776 151.651 49.7307 151.651 49.7572L151.778 49.713L151.733 49.5538ZM153.276 50.6506C153.249 50.5975 153.203 50.5798 153.149 50.6063C153.013 50.6859 153.022 50.7567 153.194 50.8098L153.321 50.7655L153.276 50.6417V50.6506ZM154.991 45.4055C154.991 45.5647 155.046 45.5913 155.155 45.4851C155.182 45.4586 155.182 45.4144 155.155 45.3613L155.073 45.2817C154.991 45.3613 154.964 45.4055 154.991 45.4055ZM155.327 70.4985L155.2 70.4543V70.4101L155.245 70.4543L155.327 70.4985ZM156.453 70.3747C156.398 70.5074 156.407 70.6223 156.498 70.702C156.607 70.755 156.725 70.7285 156.834 70.6223C156.916 70.5162 156.916 70.4189 156.834 70.3393L156.707 70.2597C156.598 70.2332 156.516 70.2774 156.453 70.3835V70.3747ZM157.324 71.7545L157.161 71.6749C156.997 71.7014 156.97 71.781 157.079 71.9226L157.242 71.8783L157.324 71.7545ZM160.083 72.0022C159.92 71.9756 159.847 72.0287 159.875 72.1614C159.875 72.241 159.902 72.2852 159.956 72.2852C160.092 72.3117 160.165 72.2587 160.165 72.126L160.083 72.0022ZM161.581 74.1161C161.3 73.9569 161.164 73.8596 161.164 73.833C160.973 73.78 160.9 73.8154 160.955 73.9569C160.955 73.9834 161.009 74.0011 161.118 74.0011C161.227 74.0276 161.4 74.0542 161.617 74.0807L161.572 74.1249L161.581 74.1161ZM162.207 70.8612C162.126 70.8877 162.08 70.9319 162.08 70.985C162.135 71.1442 162.235 71.1884 162.371 71.1088L162.452 70.985C162.398 70.8523 162.316 70.8081 162.198 70.8612H162.207ZM162.625 73.8684C162.516 73.948 162.489 74.0542 162.543 74.1957C162.598 74.3018 162.697 74.3726 162.834 74.3991C162.97 74.4257 163.07 74.3726 163.124 74.2399C163.124 74.2134 163.106 74.1603 163.079 74.0807C163.024 73.9746 162.943 73.9038 162.825 73.8773H162.616L162.625 73.8684ZM163.251 69.8882L163.333 70.012L163.415 69.9324L163.333 69.8086L163.251 69.8882ZM164.213 32.8015C164.077 32.7485 163.986 32.775 163.959 32.8811C163.932 32.9342 163.959 32.9784 164.041 33.005C164.15 33.058 164.231 33.0315 164.295 32.9254L164.213 32.8015ZM165.802 66.881C165.666 67.0136 165.575 67.1021 165.548 67.1286L165.593 67.2878C165.647 67.2613 165.702 67.1109 165.756 66.8367L165.802 66.881ZM167.88 71.6307C167.744 71.5511 167.653 71.5776 167.626 71.7103C167.599 71.7633 167.626 71.8164 167.708 71.8695C167.817 71.9226 167.917 71.8872 167.998 71.7456C167.944 71.666 167.898 71.6218 167.871 71.6218L167.88 71.6307Z" fill="black"/>
</svg>