<?xml version="1.0" encoding="UTF-8"?>
<svg id="Layer_2" data-name="Layer 2" xmlns="http://www.w3.org/2000/svg" viewBox="0 0 260.85 110.5">
  <g id="Layer_1-2" data-name="Layer 1">
    <path d="M183.64,82.41c.16.35.28.56.37.64,1.45,1.84,2.42,3.01,2.92,3.5.26.23.48.44.65.62.29.34,1.41,1.44,3.36,3.31.03.03.32.24.87.62v-.02s.03.04.03.04c-.01-.01-.02-.01-.03-.02l.39.58c.76.78,1.61,1.56,2.56,2.32.11.08.34.17.68.29.11.02.23.01.37-.02.03,0,.19-.07.48-.19.46-.19.91-.49,1.35-.9.21-.18.32-.39.33-.64-.03-.47-.06-.82-.1-1.07-.15-.73-.31-1.38-.48-1.95-.31-1.05-.72-1.94-1.22-2.65-.75-1.08-1.41-1.87-1.99-2.36-.4-.33-1.12-1.08-2.15-2.22-.88-1.02-1.22-1.44-1.02-1.26-.12-.1-.22-.26-.32-.48-.03-.11-.12-.23-.27-.36-.15-.18-.24-.3-.27-.36-.06-.11-.14-.27-.23-.48-.12-.21-.21-.37-.27-.48,0-.03-.16-.21-.48-.55l-.02-.41-.23-.48c-.75-1.14-1.56-2.11-2.43-2.91-.06-.05-.11-.08-.17-.07-.08,0-.14.02-.16.05-.09.28-.18.42-.26.43-.38,0-.66-.21-.82-.61-.06-.05-.06-.16-.02-.33.03-.03.05-.09.07-.17.05-.09.07-.14.07-.17.02-.14,0-.25-.06-.33-.15-.21-.63-.64-1.43-1.28-.23-.62-.36-.96-.39-1.05-.07-.27-.12-.5-.16-.69-.09-.68-.12-1.35-.07-2.01.05-.61.2-1.14.44-1.59.45-.77.86-1.29,1.23-1.55,1.08-.72,2.15-1.62,3.18-2.7.54-.55.93-.95,1.17-1.18.13-.12.37-.32.71-.62.29-.24.51-.43.67-.57,1.28-1.23,2.33-2.25,3.16-3.07,1.04-1.05,1.91-1.89,2.61-2.54,2.25-2.02,4.29-4.2,6.13-6.53,0-.03.27-.35.81-.95h0c.59-.83.91-1.26.96-1.29.18-.28.37-.8.57-1.56.02-.08.02-.39-.01-.91-.01-.19-.08-.35-.19-.48-.26-.26-.42-.44-.48-.55-.18-.21-.46-.32-.84-.32-.19-.02-.45.01-.78.09-.38.1-.65.16-.81.17-1.07.5-1.78.87-2.12,1.11-.55.44-.98.95-1.27,1.51-.25.45-.49.88-.71,1.28-.94,1.78-2.07,3.37-3.39,4.77-.44.46-1.59,1.66-3.46,3.58.02-.06-.27.24-.9.88-.31.32-.54.69-.68,1.11-.02.11-.06.22-.1.34-.08.11-.18.16-.32.14-.25-.04-.48.01-.69.16-.89.71-1.46,1.17-1.69,1.37-.34.29-.6.56-.78.79-.25.37-.55.66-.9.88-.19.12-.41.28-.67.49-.32.24-.53.4-.63.49-.13.09-.31.11-.53.07-.22-.07-.38-.18-.47-.34-.31-.59-.48-.89-.51-.92s-.16-.17-.4-.43c.02-.03.02-.03.04-.05v.09c.33-.16.52-.37.59-.65.05-.17.16-.3.35-.39.24-.1.39-.19.44-.27.08-.11.08-.22.02-.33-.09-.13-.2-.17-.34-.1-.11.06-.25.17-.44.31-.29.18-.58.25-.85.21-.19-.02-.38-.16-.56-.42-.03-.05-.07-.09-.13-.12-.06-.02-.11-.02-.16,0-.48.3-.69.68-.63,1.15.05.35.12.58.2.69.18.26.25.55.21.85-.01.28.05.57.18.9.17-.11.37-.15.57-.15.16.34.27.6.33.76.09.21.03.37-.18.46-.03,0-.19.04-.49.11v.12s0-.04,0-.04c-.15-.21-.29-.31-.43-.3-.14.04-.24.07-.32.1-.13.06-.2.16-.19.3,0,.11,0,.26-.02.45.01.19.02.33.02.41,0,.16-.05.25-.19.26-.05,0-.1-.04-.13-.12-.19-.4-.26-.75-.23-1.06.06-.39.03-.74-.1-1.07-.09-.21-.14-.45-.12-.69.04-.3.05-.72.05-1.24,0-.43-.06-1.68-.17-3.71-.08.13-.15.25-.15.27-.16.48-.27.83-.31,1.05-.16.64-.36,1.46-.6,2.47-.34,1.31-.55,2.15-.64,2.51-1.02,4.26-1.48,6.22-1.39,5.89-.13.56-.32,1.32-.57,2.3-.5,1.81-.91,3.35-1.22,4.6-.21.73-.34,1.32-.39,1.79-.2,1.27-.54,3.19-1.03,5.74-.26,1.22-.37,2.2-.33,2.94.03.47-.02,1.07-.14,1.82-.15.75-.32,1.58-.52,2.5-.26,1.2-.44,2.09-.55,2.67-.23,1.25-.45,2.14-.67,2.67-.1.23-.14.64-.13,1.24,0,.6.23,1.17.67,1.69.32.34.71.47,1.18.39.08-.03.2-.07.36-.1s.27-.07.32-.1c.24-.04.46-.15.64-.33.1-.12.35-.39.74-.83.26-.26.38-.54.36-.84-.04-.74.04-1.77.23-3.1.12-.83.17-1.37.15-1.62,0-.11,0-.23.02-.37.17-.45.26-.92.29-1.42,0,.14.1-.35.29-1.46.15-.78.3-1.68.46-2.7.16-1,.3-1.9.42-2.7.04-.22.2-1.12.46-2.7.28-1.42.5-2.36.66-2.84.02-.14.12-.36.29-.68.15-.28.37-.34.65-.16.26.18.4.28.43.3.18.18.49.48.96.89.41.36.7.66.88.9.12.13.29.19.5.18.05.02.35.03.88.03.09.26.12.38.09.33.13.32.13.61,0,.86-.12.23-.1.46.08.7.51.69.92,1.13,1.23,1.33.11.08.22.21.31.39ZM191.38,84.44c0,.08-.02.14-.07.17-.1.09-.19.05-.25-.11,0-.05,0-.11.03-.17l.12-.13c.11.02.17.1.18.24ZM191.03,82.78s.06.03.13.06l-.03.13c-.16,0-.18-.06-.1-.19ZM188.14,81.74c.08-.03.12-.02.13.03,0,.14-.05.15-.16.05l.04-.08ZM187.26,77.3s-.01.04-.04.04l-.08.05-.05-.16c.1-.12.16-.09.17.07ZM185.99,83.1c.17.02.2.1.1.24l-.17-.07.07-.17ZM203.06,46.77c.02.06.04.11.06.17.02.02.05.04.07.07-.01.02-.02.03-.03.05-.01-.03-.03-.08-.04-.11,0,0,0,0,0,0-.06-.05-.1-.09-.13-.12.03,0,.05-.02.08-.05ZM202.33,45.54v-.04s-.03-.05,0-.08v.12ZM201.93,44.37s.03,0,.05,0c.17-.18.28-.24.31-.14.03.08.02.12-.03.13-.02,0-.14,0-.28.02-.02.02-.03.02-.05.04l-.04.08.03-.13ZM201.32,45.88c.22.04.32.16.31.35,0,.03-.02.07-.07.13-.16.09-.3.03-.42-.18-.03-.05-.05-.11-.05-.16.02-.11.1-.16.24-.14ZM189.04,59.53c.11,0,.17.07.18.24l-.12.09c-.16,0-.22-.06-.18-.2,0-.08.03-.13.12-.13ZM187.39,60.77v.12s-.08-.04-.08-.04l.08-.09ZM185.77,62.02l.09.12h-.12s.03-.12.03-.12ZM184.34,61.61c.05-.03.11-.03.16,0,.03.02.18.09.42.2.02,0,.03-.01.04-.02v-.04s0,.08,0,.08c-.02,0-.03-.01-.04-.02-.27.16-.47.24-.6.22-.11-.05-.15-.14-.1-.28.02-.06.06-.1.12-.13ZM183.8,63.62l.13.12c-.02.17-.1.23-.24.18-.08-.02-.13-.06-.13-.12.02-.17.1-.23.24-.18ZM181.41,59.38v-.04c.08-.07.07-.05,0,.04ZM180.86,61.16s0,0,0,0h.04s-.02,0-.04,0ZM177.04,68.54l-.09-.12h.12s-.03.12-.03.12ZM177.78,70.76c-.08,0-.14,0-.17-.03-.06-.11-.11-.2-.14-.28-.04-.14.01-.23.15-.3.11-.06.19-.02.25.11,0,.03.04.14.1.32-.02.14-.08.2-.2.18ZM179.49,66.09c-.3.1-.51.03-.63-.21-.12-.24-.12-.46,0-.66.05-.11.14-.17.28-.18.14,0,.24.04.3.15.1.24.16.46.2.65.04.14-.01.22-.15.26ZM182.33,61.76c.27-.02.42.09.43.3-.03.03-.04.21-.05.54l.03.53c0,.14-.05.24-.19.3-.21.09-.36.02-.42-.22-.06-.13-.09-.19-.09-.16-.08-.43-.07-.79.02-1.07.05-.14.14-.21.28-.22ZM180.91,64.85c.14,0,.22.07.26.23,0,.14-.04.22-.15.26-.05.03-.11.05-.16.05-.14-.05-.19-.14-.14-.28.02-.14.08-.22.19-.26ZM180.83,74.37s-.15,0-.35.02c0,0-.01,0-.02,0-.14.45-.21.68-.21.71.04-.19,0,.16-.1,1.08,0,.03-.04.06-.12.09-.11.06-.19.02-.25-.11-.11-.19-.16-.33-.17-.43,0-.07-.02-.37-.07-.95-.03-.44.16-.79.56-1.06,0,0,0-.01,0-.02.02-.16.09-.31.21-.45.05-.06.28-.31.67-.76,0-.01,0-.01-.02-.02h.04s-.01.01-.02.02c.34.45.5.69.48.69.12.19.13.4.04.66-.17.31-.4.49-.67.53ZM182.26,78.37c-.04.17-.16.29-.34.39.02.02.02.03.04.04-.01,0-.02,0-.03,0,0-.02,0-.02-.01-.04,0,0,0,0,0,0-.29-.29-.52-.54-.67-.74-.12-.21-.06-.35.18-.42.22-.07.44-.03.67.13.2.15.25.37.16.65ZM185.1,78.99v-.02s-.04.02-.04.02v-.12s.03.1.03.1l.05-.03-.04.04ZM185.59,75.46v.03c.09.04.17.08.21.12.06.05.09.09.09.12-.07.14-.16.15-.25.01l-.05-.26s-.03-.02-.05-.03c.01,0,.03,0,.04,0ZM183.71,72.06s0,0,0,0h-.04s0-.04,0-.04c.02.01.02.02.04.04ZM182.77,75.87c-.07-.19-.06-.37.01-.54.08-.11.15-.2.23-.26.05-.06.27-.26.64-.6,0,0-.01-.01-.02-.02-.08,0-.23.03-.45.07.05,0,.14-.02.24-.06.11,0,.19-.01.25-.01,0,0-.01.01-.02.02.3.17.47.39.51.65,0,.16.11.31.31.44.11,0,.29-.03.53-.07.23-.01.4-.02.53-.03l-1.06.1c.07.26.1.55.09.87.02,0,.05,0,.04-.01h.04s-.08.04-.08.04c0-.01,0-.02,0-.03-.11,0-.57-.06-1.41-.22-.17-.05-.3-.16-.39-.35ZM35.49,102.86c.06-.51.11-.88.14-1.11.21-2.67.33-4.28.34-4.83-.03-.59-.03-1.37,0-2.34.07-1.15.1-1.91.08-2.27.05-2.42.08-3.66.11-3.75,0,0,0,0,0,0,0,0,0,0,0,0h0c.02-.41.13-1.71.34-3.9.35-3.41.39-6.35.11-8.81,0-.05,0-.16-.02-.34.02-.41.18-.77.49-1.06.48-.35.71-.89.66-1.62-.02-.41-.09-.71-.19-.88-.33-.94-.42-2.15-.28-3.63.18-1.61.26-2.63.24-3.04-.11-1.18.05-2.39.48-3.6.2-.52.34-.91.41-1.19.15-.56.22-.95.21-1.18-.05-.87.11-1.75.47-2.64.24-.61.41-1.22.51-1.82.09-.74.46-2.43,1.08-5.08.63-2.56.97-3.93,1-4.11.11-.51.27-1.21.5-2.09.22-.97.39-1.67.5-2.09.06-.51.18-.88.35-1.12.68-1,.99-2.37.93-4.11.04-.14.05-.26.05-.35.02-.41.11-.81.28-1.18.04-.05.11-.12.19-.22.04-.14.08-.23.12-.28.29-.57.19-1.02-.28-1.36-.38-.21-.39-.46-.04-.75.26-.24.41-.37.46-.37.53-.26.86-.62.97-1.09.54-1.82.99-3.17,1.35-4.06.41-.89.69-1.99.84-3.28.12-1.06.45-2.55.98-4.46.3-1.12.47-1.81.5-2.09.27-1.67.63-3.04,1.07-4.12,0,.05.18-.54.52-1.75.23-.84.36-1.33.4-1.47.28-.68.37-1.37.54-2.06.15-.59.4-1.18.47-1.78.06-.6.27-1.28.64-2.03.08-.19.25-.45.5-.79.42-.67.72-1.42.9-2.25.04-.18.09-.33.13-.51-3.59.81-8.37,1.83-8.86,1.89-.23.02-.61.08-.88.12-1.28.16-2.91.42-5.13.85-.56.12-2.98.52-7.27,1.17.19-.06-.05-.07-.71-.03-.47.03-.9-.06-1.29-.27-.18-.09-.09-.2-.15-.3l-.12.61c-.17-.28-.44-.48-.9-.51-.69.04-1.1.06-1.23.07-1.49.31-2.4.57-2.71.77-.31.2-.89.88-1.74,2.02-.21.33-.26.73-.14,1.18.16.45.14.84-.07,1.17-.16.33-.29.61-.36.85-.08.28-.2.86-.38,1.74-.14.74-.29,1.35-.45,1.81-.19.7-.44,2-.74,3.89-.06.6-.21,1.07-.47,1.4-.17.28-.3.68-.41,1.19-.26,1.11-.42,1.79-.5,2.02-.4.99-.61,2.07-.64,3.27-.07,1.2-.27,2.51-.6,3.95-.88,3.9-1.45,6.27-1.72,7.11-.15.65-.29,1.25-.45,1.81-.37,2.02-.55,3.03-.54,3.08-.11.36-.26.81-.44,1.38-.28.75-.46,1.22-.54,1.41-.58,1.82-1.12,3.57-1.62,5.25-.12.37-.25.86-.4,1.47-.23.79-.36,1.3-.39,1.53-.35,1.07-.56,1.75-.64,2.03-.44,1.08-.68,2.06-.73,2.93-.04.14-.07.3-.11.49-.04.19-.05.32-.04.42-.09.77-.51,1.45-1.23,2.04-.17.12-.9.67-2.2,1.67-1.1.84-1.82,1.41-2.17,1.71-.26.2-.52.51-.77.94-.12.24-.11.53.05.89.2.35.44.52.72.51.91-.14,1.23-.21.95-.19.27-.02.57,0,.89.02.73,0,1.01.35.82,1.05l-.67,2.65c-.19,1.43-.67,3.52-1.43,6.27-.63,2.51-.99,4.71-1.06,6.59-.01.55-.24,1-.68,1.35-.3.34-.51.69-.63,1.07-.31,1.07-.85,2.39-1.63,3.94-.21.38-.34.87-.4,1.47.01.18.03.48.05.89,0,.73-.08,1.33-.24,1.8-.25.52-.35,1.12-.31,1.81-.03.23-.03,1.15.02,2.75l.27-.08-.2.08c-.35,1.03-.53,1.61-.52,1.75-.3,1.16-.39,1.65-.26,1.46.04-.05-.11.53-.45,1.74-.08.23-.11.44-.1.62.05,1.74.14,2.86.26,3.35,0,.09.06.27.17.54.27.67.71.83,1.33.47.31-.16.49-.26.53-.31.43-.53,1.05-.82,1.88-.86.09,0,.3,0,.62.03.23-.01.43-.02.62-.04,1.41-.17,2.38-.8,2.92-1.89,1.2-2.31,1.93-4.21,2.22-5.7.19-.7.47-1.47.83-2.32,1.1-2.45,1.68-5,1.76-7.66,0-.14-.01-.23-.02-.27-.04-.64.08-1.45.34-2.43.07-.37.42-1.86,1.05-4.46h-.04c.17-.39.47-1.22.92-2.53.35-1.07.69-1.94,1.02-2.6.16-.33.39-.82.67-1.48.32-.75.55-1.27.67-1.55,1.47-3.2,2.54-6.4,3.23-9.6.11-.56.2-.95.28-1.18.01-.03.03-.03.04-.06l.69-9.99c-.04-.12-.14-.24-.1-.37.56-2.14.86-3.85.87-5.14-.01-.18.02-.37.11-.56.25-.52.4-1.33.48-2.43.14-1.47.39-2.77.74-3.89.08-.19.17-.58.28-1.18.93-5.37,1.45-8.58,1.58-9.65.2-1.29.47-2.59.81-3.9.45-1.77.81-3.46,1.08-5.08.41-2.45.62-3.95.63-4.5.12-.33.21-.77.27-1.32.05-.38.09-.67.13-.91.36-.28.67-.58,1.19-.76.83-.32,1.57-.55,2.22-.68,2.76-.72,6.38-1.62,10.77-2.68-.62,2.61-1.28,5.18-2.14,7.55-.67,1.87-1.11,3.46-1.31,4.75-.02.37-.13.86-.33,1.46-.55,1.54-1.65,5.57-3.29,12.08-.3,1.16-.43,2.06-.39,2.7-.01.6-.16,1.2-.45,1.81-.45.94-.91,2.18-1.37,3.72-.16.47-.42,1.12-.78,1.97-.53,1.22-.75,2.11-.67,2.65,0,.09-.01.18-.05.28-.14.26-.21.42-.33.65l-.77,9.14c.03.13.12.19.11.37-.41,3.28-.66,5.31-.75,6.09-.83,6.28-1.29,9.9-1.37,10.87,0,.09-.03.3-.1.62-.14.74-.29,2.15-.44,4.22-.42,4.7-1.06,8.72-1.92,12.07-.29,1.3-.59,2.81-.91,4.52-.03.28-.29,2.1-.79,5.48-.29,2.08-.44,3.19-.43,3.32-.17,1.11-.11,2.11.17,3.01.11.36.31.69.61,1,.39.39.82.66,1.28.82,1.21.34,2.32.42,3.31.22.5-.12.88-.28,1.14-.48,1.48-1.37,2.44-2.27,2.87-2.71.87-.87,1.35-1.98,1.46-3.31.03-.28.06-.62.08-1.04ZM4.92,92.51l-.08-.2.14.06-.06.14ZM5.68,87.66c-.36.11-.53-.04-.51-.45-.01-.23.07-.37.25-.43.36-.11.55.04.58.45.01.23-.09.37-.32.43ZM6.68,82.44l-.08-.27.28.12-.2.15ZM9.13,80.79c-.27.11-.55.05-.83-.16-.05-.04-.25-.38-.61-1-.13.1-.31.27-.52.51-.22.24-.39.39-.52.44-.09.05-.16,0-.21-.13-.1-.09-.1-.15-.01-.21.13-.14.33-.27.6-.38.36-.07.59-.15.67-.24.83.14,1.32.22,1.46.26.19.08.29.24.3.46-.04.19-.14.33-.32.43ZM14.44,81.1l-.07-.06h.1s-.02.05-.03.06ZM17.73,46.2c-.18.1-.34.04-.49-.18-.1-.22-.05-.39.18-.49.23-.06.39,0,.49.18.06.23,0,.39-.18.49ZM26.22,4.88l-.08-.2.21.06-.13.14ZM32.2,64.69c-.09,0-.14-.06-.15-.2-.01-.23.1-.33.33-.29l.15.2c.02.27-.09.37-.33.29ZM49.15,84.9c-.1.25-.14.49-.12.71.02.38.04.63.04.74.16.81,0,1.51-.46,2.09-.05.06-.12.23-.22.51-.15.28-.13.57.05.86.19.37.63.95,1.34,1.74.03.03.09.06.17.11.2.1.36.13.5.09.27-.1.44-.18.52-.24.69-.48,1.19-1.07,1.5-1.78.36-.93.51-1.32.47-1.18.24-.56.38-1.04.41-1.42.02-.11.08-.35.17-.71.07-.28.09-.51.08-.71-.02-.38.05-1.05.22-1.99.12-.75.36-1.89.71-3.42.29-1.25.48-2.09.6-2.51.13-.56.23-1.21.3-1.95.05-.61.07-1.1.08-1.49,0-.6.14-1.12.45-1.55.07-.14.16-.37.25-.67.09-.31.18-.66.27-1.05.29-1.22.6-2.29.93-3.18.19-.51.35-1.04.49-1.59.09-.36.21-.96.35-1.79.17-.83.38-1.53.62-2.1.34-.79.6-1.46.79-2.02.19-.59.54-1.09,1.07-1.5.21-.15.43-.23.65-.24.38-.02,1.05-.06,2.01-.12.99-.03,1.88-.22,2.69-.57.29-.13.56-.25.8-.38,1.74-.79,3.64-1.9,5.7-3.33.26-.21.5-.4.71-.58,1.92-1.95,3.37-3.75,4.34-5.4-.07.14.42-.64,1.47-2.35.17-.31.29-.52.33-.64.32-.62.47-1.14.45-1.55-.01-.22.05-.65.17-1.29.24-1.17.04-2.21-.59-3.14-.27-.4-.55-.72-.84-.98-.29-.29-.51-.57-.67-.87-.33-.53-.8-1.01-1.4-1.44-1.12-.79-1.66-1.17-1.63-1.14-.49-.33-.94-.52-1.35-.58-.08-.02-.24-.1-.47-.22-.17-.13-.33-.21-.47-.26-1.1-.46-2.18-.62-3.24-.47-.49.08-.84.17-1.06.27-.11.06-.28.13-.52.19-.97.28-1.86.79-2.67,1.55-.7.67-1.39,1.16-2.06,1.48-.32.18-.61.41-.87.67-.21.23-.43.44-.67.61-.99.85-2.11,2.22-3.35,4.11-.33.51-.6,1.06-.81,1.65-.02.08-.2.53-.54,1.35-.17.45-.26.92-.29,1.42,0,.14.06.24.14.32,0,.03.15.14.43.35.11.08.16.18.14.32-.05.09-.14.15-.28.18-.22.04-.39.09-.53.15-.19.07-.32.18-.39.35l-.1.38s.01,0,.02.02c0-.02.01-.03.02-.06.12.16.28.3.48.43,0,0,0,0,0,0,.15.01.26.02.28.02.08,0,.12.02.13.08,0,.16-.06.21-.2.13-.03-.03-.1-.1-.21-.23-.02,0-.02,0-.05,0-.11-.07-.26-.2-.46-.37-.22.66-.36,1.05-.4,1.16-.09.31-.21.71-.34,1.21-.06.33-.06.7.02,1.11,0,.08.04.19.1.32.04.16.06.29.06.37.07.33.1.57.08.74-.11.89-.15,1.86-.12,2.93.01.71-.09,1.38-.3,1.99-.12.34-.4,1.57-.86,3.72-.14.83-.22,1.37-.24,1.62,0,.14-.02.32-.09.54-.18.64-.53,2.26-1.04,4.84-.42,2.19-.87,4.28-1.33,6.26-.59,2.64-.93,4.32-1.03,5.04-.06.39-.16.86-.29,1.42-.26,1.14-.56,2.01-.88,2.6-.08.11-.14.21-.19.3ZM58.74,56.13l.08-.09.05.12-.13-.03ZM59.65,58.39c-.14-.02-.23-.1-.26-.23-.07-.22,0-.36.22-.42.22-.04.33.06.35.31.01.22-.09.33-.31.35ZM60.3,50.32c-.06-.02-.09-.06-.09-.12l.07-.17.13.07.05.16c-.08.03-.13.05-.16.05ZM61.43,49.96c-.05.06-.11.03-.17-.07-.03-.08-.02-.18.02-.29.02-.08.05-.13.07-.13.14-.04.19.03.18.2,0,.11-.03.21-.11.29ZM64.19,53.39s-.05.04-.08.05v-.16c.12-.09.18-.05.16.11-.03,0-.05,0-.08,0ZM65.24,53.9v-.16s.12.07.12.07l-.12.09ZM65.69,52.97c-.09-.05-.13-.09-.13-.12,0-.16.07-.22.24-.18.06.02.1.05.13.08l.05.16c-.08.11-.17.13-.29.06ZM66.88,54.43c-.05-.05-.05-.05-.09-.08l-.25-.07.12-.05s.08.07.13.12l.13.03-.04.04ZM68.6,48.44l.07-.17.09.16h-.16ZM69.19,53.1c-.06-.05-.07-.09-.05-.12.1-.14.17-.12.21.07l-.16.05ZM66.15,35.31c.19-.09.36-.12.53-.07.14.02.2.1.18.24-.03.39-.26.54-.67.45-.06-.02-.1-.06-.13-.12-.12-.21-.09-.38.09-.5ZM65.09,36.9s-.01,0-.12.09l-.05-.16c.1-.14.16-.12.17.07ZM59.1,46.64c.08-.09.19-.12.32-.1.39.09.5.11.33.06.25.04.47-.03.65-.2.08-.06.18-.16.31-.31.13-.14.23-.26.31-.35.05-.06.16-.11.32-.14.05-.03.11-.02.17.03.06.05.09.1.09.16-.02.14-.09.29-.22.47-.12.23-.2.4-.22.51.05.46.09.82.1,1.07.24-.12.49-.14.74-.04h.04c.25-.48.39-.88.43-1.18.02-.17.06-.44.12-.83.06-.33.1-.61.12-.83,0-.41.11-.94.32-1.58.09-.28.24-.55.45-.81.38-.54.92-1.03,1.61-1.45.19-.12.35-.2.48-.23.35-.1.85-.32,1.49-.66.29-.18.61-.35.96-.51,1.04-.55,2.22-.8,3.54-.74.3.01.58.12.84.32.35.31.47.7.36,1.17-.08.44-.25.89-.5,1.35-.57,1.02-1.33,2.12-2.28,3.3-.13.17-.31.39-.54.65-.26.29-.44.49-.54.61-.54.66-1.13,1.18-1.77,1.54-.13.06-.4.23-.8.5-.19.12-.41.2-.69.25-.24.07-.4.13-.48.19-.37.21-.85.34-1.42.37.11,0-.07.03-.53.11-.3.07-.55-.05-.76-.37-.12-.21-.18-.44-.16-.69-.01-.22-.1-.38-.27-.48l-.74.04c-.1-.32-.14-.68-.1-1.07-1.14.3-1.77.47-1.93.52,0,0,.01,0,.02,0-.09.02-.09.02-.02,0-.1.02-.18-.04-.24-.19-.09-.19-.06-.34.1-.46ZM57.32,50.12c.02-.08.06-.13.12-.13.03.02.19.07.46.13v-.03s.05,0,.05,0c0-.33.1-.65.23-.96,0-.06,0-.1-.02-.16l.04.04s-.01.08-.03.12c.04.36.07.69.09.95h.04c0,.05,0,.12.01.2v.21s-.04,0-.04,0c0,.06,0,.13-.02.25-.02.08-.03.15-.05.21,0,.01.02.02.02.03.03,0,.04,0,.06.01.09-.02.19-.05.22-.07.14-.04.23-.03.29.02.03.05,0,.08-.08.09-.03.03-.08.03-.16,0-.04,0-.15-.02-.27-.05-.04.01-.05.02-.1.03,0-.02.01-.05.02-.08-.04-.14-.13-.29-.27-.44h-.02s0-.04,0-.04c-.27.02-.44.01-.5-.01-.14-.07-.18-.18-.1-.32ZM55.18,62.23c.08-.09.19-.12.32-.1.11.05.19.13.22.23,0,.03.02.15.06.37-.04.19-.06.31-.06.33-.05.14-.14.19-.28.14-.22-.07-.35-.2-.39-.39-.07-.22-.02-.41.13-.58ZM51.61,84.06l.09.12h-.16s.07-.12.07-.12ZM79.95,56.81c.5.08.79.13.87.16.08,0,.14.02.17.07.04.16-.04.21-.24.14-.03-.03-.3-.15-.8-.37-.44,1.01-.67,1.7-.71,2.06-.02.11-.08.28-.18.5-.55,1.46-.99,3.02-1.34,4.69-.06.33-.03.63.09.9.03.08.01.19-.06.33l-.1.34.04-.04c-.37.24-.51.61-.43,1.1,0,.05.03.11.09.16.14.07.25.05.33-.06.29-.29.4-.42.35-.39.5-.33.96-.43,1.38-.29.17.05.33-.02.48-.19l.23-.26c.08-.09.19-.11.33-.06.19.04.28.18.27.4,0,.36-.13.61-.37.76-.21.15-.3.36-.25.63,0,.08,0,.15.01.21.1.24.01.42-.26.55-.19.07-.29.21-.3.43,0,.03,0,.14.02.33.02,0,.02,0,.04,0,.03,0,.08,0,.16,0l-.2.05s0-.02,0-.04c-.31,0-.59.05-.81.16-.13.09-.24.15-.32.18-.11.03-.21,0-.29-.11-.03-.05-.05-.11-.05-.16.13-.34.12-.71,0-1.11-.14.17-.25.36-.31.59-.02.08-.13.43-.31,1.05-.1.12-.2.3-.3.55-.07.28-.15.48-.25.59-.08.11-.12.28-.14.5s-.08.53-.19.92c-.14.39-.2.81-.18,1.25.02.41.04,1.01.06,1.81.05.79.07,1.16.06,1.11,0,.52-.27.76-.82.71-.03,0-.15,0-.37-.02l-.04-.04c.33.48.56.97.7,1.48.1.38.31.67.63.87.14.07.21.24.19.48-.02.08-.04.19-.06.33-.07.25-.01.47.16.65.44.44.87.61,1.31.5.14-.04.31-.02.54.05.11.02.28.08.5.18.23.1.39.16.5.18,1.04.35,1.78.64,2.23.86.4.2.8.15,1.23-.15.05-.03.12-.09.2-.18.11-.06.19-.12.24-.18.24-.15.46-.15.66,0,.11.05.24.14.39.27.17.13.3.22.39.27.14.1.31.15.5.14.3-.04.54-.09.73-.12.97-.28,2.15-.76,3.54-1.44.83-.38,1.53-.87,2.1-1.48-.13.14.21-.2,1.01-1.05.54-.55.94-1,1.2-1.35.23-.32.31-.61.24-.88,0-.11,0-.23.02-.37.02-.14.1-.23.23-.26.55-.06.98-.44,1.29-1.15l.29-.68c.19-.51.3-.79.32-.84.12-.23.12-.52,0-.86-.04-.14,0-.25.1-.34.44-.38.71-.85.78-1.4.01-.22.08-.51.2-.88.14-.45.22-.74.24-.88.28-1.36.62-2.67,1.01-3.93.46-1.54.82-3.58,1.09-6.12.18-1.63.33-2.78.46-3.45.11-.5.16-.98.16-1.45,0-1.07-.03-2.47-.08-4.2,0-.33-.04-.63-.13-.9-.2-.54-.33-1.13-.39-1.79-.03-.57-.21-1.54-.54-2.89-.25-1.03-.81-1.71-1.68-2.05-.51-.19-1.04-.46-1.61-.81-.79-.45-1.78-.8-2.95-1.07-.58-.13-1.42-.12-2.51.02-1.73.48-3.02,1.15-3.88,1.99-.73.7-1.19,1.46-1.39,2.26-.05.09-.07.14-.07.17-.15.23-.25.37-.3.43-.05.06-.25.21-.59.45-.18.15-.31.35-.38.6-.23.73-.33,1.2-.29,1.42,0,.14-.04.32-.13.54-.2.4-.59,1.21-1.18,2.46-.12.25-.29.44-.5.56-.51.25-.91.68-1.2,1.3-.64,1.22-.95,1.81-.93,1.78-.32.68-.46,1.4-.41,2.17,0,.33.15.54.49.63ZM79.14,70.61l-.05-.16c.08-.06.13-.06.16,0,.09.13.05.19-.11.17ZM80.45,69.8v-.04s.04.08.04.08l-.04-.04ZM96.26,63.08c.16-.04.25.01.26.15l-.12.13c-.14.04-.21-.02-.21-.15,0-.05.02-.1.07-.13ZM95.49,71.86c.14,0,.2.07.18.24l-.12.09c-.16,0-.22-.06-.18-.2,0-.08.03-.13.12-.13ZM95.39,66.63c-.05,0-.09,0-.11,0,.02.07.04.15.07.22.02.07.08.13.07.22v.04c-.03-.09-.05-.18-.07-.26-.02-.07-.02-.17-.07-.22,0,0,0,0,0,0,0-.01,0-.03-.01-.04.05-.14.09-.13.13.03ZM81.01,68.78c-.14-.02-.18-.1-.14-.24,0-.05.02-.08.08-.09.14-.04.22.01.26.15,0,.14-.06.2-.2.18ZM89.18,74.69h-.16s-.13-.11-.13-.11c-.09-.13-.07-.23.07-.29.1-.09.2-.07.29.07.06.11.04.22-.06.33ZM92.08,73.46c-.1.09-.23.12-.36.1-.25-.01-.42-.15-.52-.42-.1-.27-.06-.49.13-.67.23-.26.52-.47.87-.63.03-.03.08-.03.16,0,.22.04.34.17.35.39v.16c-.1.42-.32.77-.63,1.07ZM93.74,71.67l-.02-.37c0-.11.06-.21.19-.3.16-.12.31-.07.46.14.21.24.3.5.29.81,0,.38-.08.73-.23,1.04-.05.11-.14.16-.28.14-.33,0-.5-.15-.52-.42v-.16c.13-.39.17-.68.11-.87ZM93.95,45.91c.11.05.17.14.18.28,0,.14-.06.21-.19.22-.3.02-.4-.09-.31-.31.07-.14.18-.2.32-.18ZM87.82,51c.14-.04.19.03.18.2,0,.05-.02.08-.08.09-.14.04-.21-.02-.21-.15l.12-.13ZM87.24,49.55l.09.12h-.12s.03-.12.03-.12ZM85.39,50.32l.13.03-.03.17c-.06-.02-.11-.05-.17-.07.02-.06.05-.1.08-.13ZM84.08,48.33c.1-.12.2-.18.28-.18.27-.07.51.03.72.29v.16c-.17.2-.44.29-.8.25-.05,0-.14-.06-.26-.19-.06-.13-.04-.24.06-.33ZM82.71,51.01c.1-.14.24-.24.42-.3-.01-.02-.02-.03-.03-.05,0,0,.05-.06.06-.07l.04-.22.13.03c-.09.1-.13.14-.17.19l-.02.11s0,0-.02.01c.13.25.22.4.25.43.09.19.02.33-.22.42-.14.04-.25.01-.33-.06-.17-.15-.21-.32-.11-.49ZM82.6,59.09s.24.01.63.04c0-.02,0-.06-.01-.04l.04.04s-.02,0-.03,0c.02.12.04.79.07,2.1.11.08.15.17.1.28l-.08.13c.13.29.2.46.23.48.03.08.1.12.21.11.14,0,.22-.04.24-.1l.77-1.61c.15-.31.25-.65.31-1.01.03-.36.09-.58.17-.67.08-.11.34-.72.8-1.82l-.04.04c.91-1.43,1.37-2.15,1.4-2.18.12-.23.35-.58.68-1.07.3-.48.53-.85.68-1.11.27-.48.65-1.09,1.13-1.84.63-1,1.02-1.62,1.17-1.88.38-.6.93-1.07,1.65-1.41-.03,0,.03-.02.16-.05.14-.04.25-.01.33.06.2.21.34.47.42.8.15.71.29,1.43.41,2.16.04.22.05.46.04.74-.06,1.79-.03,3.56.1,5.31.06.99.02,1.84-.1,2.56-.02.19-.05.59-.1,1.2-.03.5-.07.88-.14,1.16-.27,2.07-.76,3.9-1.5,5.48-.29.62-.45,1.21-.48,1.76-.02.14-.05.25-.1.34-.03.03-.4.65-1.13,1.88-.17.31-.31.51-.42.6-.34.27-.64.79-.9,1.58h.04c.13-.15.17-.15.12,0h-.12c-.38.14-.67.35-.87.63-.46.63-1.11,1.27-1.95,1.92-.34.24-.54.39-.59.45-.34.29-.82.54-1.44.74-.3.07-.55.03-.75-.12-.26-.18-.38-.43-.37-.76,0-.16,0-.29.02-.37.04-.3.08-.54.12-.71.13-.58.02-1.1-.34-1.55-.24-.32-.41-.7-.52-1.16-.08-.38-.11-.68-.09-.9.12-1.19.18-1.67.16-1.45.11-.91.15-1.52.1-1.82,0-.16.02-.29.1-.38.08-.09.13-.79.17-2.11-.25-.59-.41-.92-.47-1-.06-.13-.18-.26-.35-.39-.61-.49-1.09-.83-1.45-1.04,0,0,0,0,0,0l-.05.11v.19c-.03.19-.08.29-.16.3-.11-.02-.09-.12.07-.29l.09-.19v-.15s.05.02.06.03c0,0,.43-.48,1.31-1.47.1-.12.13-.28.09-.5l-.06-.33c-.22-.5-.29-1.14-.24-1.91-.01,0-.03,0-.04,0-.01,0-.02,0-.03,0-.27.18-.47.28-.57.28-.05,0-.1-.02-.13-.07-.06-.05-.07-.11-.05-.16,0-.05.02-.08.08-.09.08,0,.31,0,.67.04.03-.02.04-.02.07-.04,0,.02,0,.03,0,.05.21.11.42.17.63.16ZM81.53,54.08c.14.05.24.11.3.19.03.03.12.17.27.44l.13.03h-.08c-.3,0-.48,0-.54,0-.11-.02-.22-.06-.34-.1-.11-.05-.16-.16-.14-.32.01-.25.15-.32.4-.23ZM179.43,55.01c.16-.56.42-1.03.78-1.4.02-.06.07-.17.15-.34.05-.14.11-.24.19-.3.18-.18.34-.23.49-.15l.84.36c.25.12.29.27.11.45-.42.38-.73.76-.92,1.12-.05.14,0,.25.14.32.06.02.35.04.87.03l.37.02c.11,0,.15-.04.12-.09-.03-.08-.08-.19-.14-.32-.09-.1-.09-.21-.02-.33.08-.11.18-.15.32-.1.28.09.45.15.5.18.08,0,.18.02.29.07.11.02.19.04.25.07.19.04.35-.03.48-.23.4-.76.66-1.63.8-2.6-.02.11-.02.06,0-.16.04-.28-.08-.38-.35-.31.05,0-.07.03-.36.1-.08.03-.13.05-.16.05-.14,0-.24-.06-.3-.19-.03-.11.02-.21.15-.3.11-.06.31-.13.61-.2.27-.07.46-.14.57-.2.24-.15.37-.28.39-.39.15-.34.23-.56.25-.67.02-.06,0-.17-.06-.33-.06-.13-.16-.21-.3-.23-.05,0-.14,0-.25.01-.14.04-.23.04-.29.02-.25-.01-.5-.15-.77-.41v.04c-.52-.05-.8-.09-.83-.12-.39-.06-.61-.27-.65-.62-.01,0-.02-.01-.03-.02.08-.24.14-.52.14-.85,0-.41-.1-.74-.3-.97-.18-.21-.37-.45-.58-.71-.12-.13-.12-.24-.02-.33.24-.21.29-.4.17-.59-.08-.12-.06-.28.04-.46h0s-.27-.02-.27-.02c-.27.02-.47.14-.6.36-.34.71-.59,1.46-.73,2.27,0,.03-.03.39-.1,1.08l.04-.04c-.22.45-.38.97-.49,1.55-.83,4.22-1.22,6.22-1.18,6,0,.03-.01.26-.04.67.34-.23.58-.49.69-.79ZM184.13,52.23c.25-.01.32.09.22.32-.02.14-.1.2-.24.18-.25-.01-.34-.12-.27-.31.05-.14.14-.2.28-.18ZM182.97,49.2c.11-.03.21,0,.29.11s.09.2.02.29c-.08.11-.18.18-.32.18-.11-.02-.18-.1-.22-.23-.07-.22,0-.33.23-.34ZM182.27,50.69c-.12-.1-.09-.16.07-.17l.05.12-.12.05ZM182.24,47.19c.05,0,.1.02.13.07.08.04.16.24.25.55.02.01.02.02.04.03,0,.02,0,.05-.01.06-.01-.04-.02-.06-.03-.09-.29-.19-.48-.32-.53-.37-.03-.03-.03-.08,0-.16.02-.06.08-.09.16-.09ZM180.77,49.58l-.12.09v-.12s.12.03.12.03ZM237.67,28.11c.09,0,.34-.1.76-.27.15-.07.41-.19.8-.36.36-.14.64-.26.84-.37.89-.35,1.83-.89,2.82-1.62.29-.2.47-.47.55-.81.43-1.57.77-3,1.03-4.29,0,.03.02-.11.07-.41.06-.55-.17-.84-.69-.87-.12-.02-.73-.06-1.83-.12-.91-.04-1.85.09-2.8.39-1.94.66-3.35,1.06-4.26,1.2-.24.04-.57.14-.99.28-1.04.39-2.04.45-3,.17-.71-.2-1.58-.21-2.6-.03-.42.05-1.01.18-1.75.37-.33.08-.6.11-.81.09-.31-.04-.58-.06-.82-.04-1.64-.09-3.11.06-4.39.43-.24.07-.9.2-1.98.39-1.26.22-2.12.44-2.56.65-.09.07-.34.14-.76.23-.63.13-1.09.24-1.39.35-.18.07-.49.18-.94.33-1.55.42-3.05,1.03-4.5,1.81-.65.34-1.21.81-1.69,1.42-.11.16-.19.35-.24.56-.2.71-.03,1.32.52,1.84.35.31.67.55.95.72,1.92,1.13,3.32,1.8,4.21,1.99.09,0,.21.03.37.12.19.08.31.13.37.16.43.13.83.23,1.2.3.19.05.38.07.6.06.91-.05,1.63-.18,2.16-.4.21-.1.46-.19.76-.27.06,0,.2-.01.41-.02.36,0,.56.18.58.51,0,.46-.02.73-.04.82-.06,1.04-.09,1.58-.09,1.64.03.48.16.92.39,1.3.17.26.1.5-.19.69-.17.13-.29.29-.34.47-.13.46-.19.72-.18.78-.06.49-.15,1.16-.25,2.02-.13.92-.21,1.59-.25,2.02-.21,1.68-.35,2.69-.42,3.03-.08.28-.29,1.53-.65,3.77-.18,1.13-.25,1.94-.22,2.43,0,.15-.04.34-.15.56-.17.25-.29.56-.36.93-.13.46-.28,1.12-.48,1.99-.19.92-.33,1.58-.43,1.98-.15.62-.23,1.27-.25,1.97.02.3-.02.71-.11,1.24-.11.73-.3,1.44-.56,2.13-.08.25-.09.51-.05.78-.45.69-.68,1.39-.7,2.09-.18.53-.11,1.02.22,1.49,0,.06,0,.2-.02.41-.03.06-.07.11-.13.14-.4.36-.65.81-.74,1.36-.11.67-.41,2.19-.88,4.56-.07.37-.07.7.01,1,.04.09.05.15.06.18,0,.09,0,.17-.03.23-.28.41-.48.97-.59,1.67-.15,1.13-.43,2.51-.85,4.15-.23.83-.35,1.36-.37,1.57-.04.34-.16.86-.37,1.57-.28.99-.48,1.71-.6,2.18-.18.5-.3,1.16-.34,1.98.01.18.04.38.08.59.25.65.48,1.14.68,1.46.1.12.22.15.37.12.18-.07.35-.17.53-.3-.14.13.29-.29,1.29-1.26.58-.52,1-1.12,1.26-1.8-.03.09.14-.21.5-.89.19-.41.3-.78.35-1.11.13-.92.38-2.1.75-3.55.05-.25.09-.52.13-.83.02-.15-.02-.35-.12-.58l-.18-.32c.43-.27.71-.6.84-.99h-.05c.32-.74.43-1.46.33-2.16-.05-.27-.07-.62-.06-1.04,0-.15.03-.27.12-.37.26-.26.47-.6.62-1.04.42-1.12.61-1.61.55-1.49.05-.15.13-.42.23-.79.1-.34.19-.59.28-.74.05-.19.15-.48.31-.88.13-.34.24-.62.32-.84.31-.93.59-1.83.85-2.69.35-1.26.78-2.61,1.27-4.04.52-1.46.81-2.35.85-2.69v.05c.2-.25.36-.63.48-1.12.1-.37.05-.69-.15-.95-.26-.29-.41-.51-.45-.66-.04-.15-.02-.27.07-.37,0-.03.32-.28.96-.74.38-.26.59-.6.63-.99.06-.49.37-1.8.91-3.92.15-.65.19-1.12.15-1.42-.04-.12-.01-.24.07-.37.16-.34.25-.67.26-.97.03-.55.16-1,.38-1.34.06-.06.14-.25.24-.56.6-2.19.94-4.44,1.02-6.75.1-2.56.18-4.32.24-5.3,0-.12.01-.32.06-.6.12-.52.41-.87.85-1.05.06-.03.15-.08.26-.15.12-.07.21-.1.27-.11.33-.14.83-.35,1.51-.63.65-.31,1.14-.52,1.47-.63,2.23-.89,3.86-1.51,4.9-1.88,1.43-.51,2.34-.8,2.73-.89ZM215.71,25.54s0-.14-.02-.23c-.06-.21-.12-.47-.16-.78,0-.03,0-.04-.02-.08-.02-.02-.05-.01-.07-.03-.11.05-.21.1-.29.05-.13-.08-.13-.14-.01-.18.12,0,.21.06.3.13.03-.01.04,0,.07-.01,0,.05.01.08.02.12.09.37.14.61.16.78.02.07.04.16.07.23h-.05ZM211.94,83.64s-.01-.01-.01-.02l-.03.02c-.16-.17-.21-.26-.15-.26.09.14.15.21.18.25l.06-.03-.04.05ZM213.12,74.01c-.11.13-.22.12-.32-.03-.03-.03-.03-.07,0-.14.11-.16.23-.17.36-.02l-.03.18ZM213.2,78.46c-.02.06-.05.13-.09.24.03-.09.04-.15.03-.18l.05-.06s.02-.07.03-.08h.05s-.07.08-.07.08ZM214.33,79.22v-.05s.02.03.02.03c0,0,0,0-.02.01ZM214.22,75.68c-.09,0-.15,0-.18.01-.22-.08-.29-.23-.21-.44.02-.12.11-.19.26-.2.27-.05.43.02.47.2.04.24-.07.38-.34.43ZM217.99,51.05c.08-.16.19-.18.32-.06l.1.13c-.05.25-.08.38-.11.42-.08.13-.19.13-.32.02-.06-.03-.1-.07-.1-.13.02-.18.06-.31.12-.37ZM217.49,63.79l-.14-.04.04-.14c.15-.04.18.02.1.18ZM217.13,57.38v-.09s.13.04.13.04l-.13.05ZM217.57,54.03c-.15.04-.24-.03-.29-.21,0-.15.06-.22.22-.19.06,0,.11.02.14.08.1.15.08.25-.07.32ZM217.55,65.56c-.15.07-.26.05-.32-.07-.1-.12-.1-.22-.02-.32.08-.13.19-.19.31-.2.16.08.24.18.25.3-.02.12-.09.22-.21.29ZM219.28,55.17l.09.04v.05s-.09-.09-.09-.09ZM220.1,49.7c-.15-.02-.22-.11-.2-.26,0-.06.02-.11.08-.14.15-.07.24-.03.28.12.04.18-.01.27-.17.28ZM221.41,48.8l.09.04-.14-.04h.05ZM221.73,53.48c-.14.16-.23.15-.27-.03,0-.03,0-.17-.02-.41-.18-.24-.3-.38-.37-.45-.02,0-.05.01-.07.02l.04-.05s.02.03.03.03c.14-.03.28-.06.42-.09,0-.02,0-.03,0-.05l.05.04s-.04,0-.05.01c-.01.24-.03.43-.05.54.32.32.42.42.29.3.06.03.06.07,0,.14ZM223.46,36.8h-.14c-.15-.01-.15-.04,0-.08,0,.03.02.06.05.09.2-.16.23-.17.09,0ZM231.18,28.57v-.18c.05,0,.1,0,.13,0v.14c-.02.06-.06.08-.13.05ZM182.08,42.33c.05-.03.13-.09.24-.18.11-.06.19-.11.24-.14.26-.18.54-.14.83.12l.04.04.05.08c.29.23.49.21.61-.08-.05.06,0-.05.15-.34.14-.39.42-.57.83-.54.25.01.62.02,1.11.02.11,0,.32.02.62.09.28.04.48.04.62,0,.03,0,.14.05.34.15.28.12.45.03.52-.28-.04.25.07-.77.32-3.07.02-.19-.06-.38-.24-.56-.18-.18-.37-.27-.59-.25-.49,0-.85.05-1.06.14-1.12.5-1.89.89-2.28,1.16-.18.15-.5.33-.96.55-.7.31-1.37.82-2.01,1.52-.08.09-.13.2-.15.34,0,.03-.02.19-.05.5.07.24.1.38.11.41.11.43.35.54.72.33ZM145.77,44.17c.28.09.49.16.63.21,1.01.41,1.78.86,2.3,1.35.26.23.93.72,2.02,1.45-.03.03-.04.02-.04-.04.65.35.99.53,1.02.56.8.5,1.73.9,2.79,1.2.75.23,1.73.56,2.94.98.45.14.63.43.54.87,0,.08-.03.24-.1.46-.04.19-.08.35-.1.46-.08.55-.1.87-.07.95l-.08-.04h0s.08.04.08.04h-.04s.13.12.13.12c.18.18.21.36.11.53-.37.68-.6,1.27-.68,1.77-.02.11-.06.42-.11.91-.04.25-.14.49-.29.72-.15.23-.3.43-.46.6-.25.34-.43.68-.52,1.02-.21.7-.75,2.06-1.62,4.09-.29.73-.53,1.45-.74,2.14-.23.81-.57,1.78-1.03,2.9,0-.03-.42,1.04-1.26,3.2-.24.65-.34,1.27-.3,1.87.01.22-.06.46-.21.71l-.42.64c-.29.7-.66,1.58-1.13,2.62-.07.17-.06.36.03.57l.17.3s0-.01,0-.03l.04-.04-.04.08v-.02c-.04.37-.12.67-.24.89l-.98,1.66c-.75,1.28-1.25,2.37-1.5,3.26-.09.33-.26.76-.5,1.26-.52,1.02-.85,2.23-.99,3.64-.11,1-.27,1.8-.48,2.42-.07.2-.1.45-.08.75.03.45.04.71.04.78.01.25.12.47.33.68.53.63,1.14,1.05,1.84,1.25.14.05.57.19,1.3.42l-.04-.04c.19.04.39.02.57-.07.48-.19.82-.56,1.01-1.09.21-.64.34-1.2.4-1.67.08-.5.31-1.36.67-2.59.8-2.74,1.23-4.85,1.28-6.34,0-.44.12-.86.34-1.26.3-.57.48-.97.55-1.23.2-.81.53-1.69,1-2.65.07-.17.14-.38.21-.63.12-.34.2-.55.25-.63.14-.37.22-.74.22-1.13,0-.49.16-.96.5-1.39.13-.2.14-.38.05-.54-.21-.37-.21-.74.02-1.11.2-.29.31-.58.32-.88,0-.03.01-.28.04-.74l-.74.04c-.33.02-.49-.14-.48-.47.01-.25.06-.43.13-.54.12-.23.26-.43.42-.6.26-.26.37-.54.32-.84-.03-.08-.03-.2.02-.37.19-.56.43-1.14.72-1.73.2-.37.41-.67.65-.9.05-.06.21-.16.48-.32.21-.12.35-.05.42.22l.02.37.04-.04v.12s0,0,0,0v-.12c.15-.15.25-.3.3-.47.23-.75.66-1.82,1.3-3.21.3-.59.5-1.06.62-1.4.16-.56.03-.95-.4-1.17-.14-.1-.19-.26-.15-.49.11-.39.31-.64.58-.73.27-.1.38,0,.35.31l-.03.17.04-.04v.08s0,0,0,0v-.08c.33-.32.52-.5.54-.53.33-.4.52-.81.55-1.23.01-.25.11-.47.29-.68.39-.46.84-1.16,1.36-2.1.12-.25.27-.54.45-.85.48-.8,1.08-1.44,1.83-1.92.05-.05.2-.17.43-.32h0c.44-.37.68-.59.7-.65.26-.26.38-.61.35-1.05,0-.11-.05-.22-.14-.32-.03-.05-.12-.14-.26-.27-.23-.15-.24-.33-.03-.53.31-.32.3-.58-.04-.78l-.08-.04s-.06-.01-.08-.04c-.31-.15-.45-.39-.41-.72.04-.66.31-1.13.78-1.4.32-.18.53-.33.63-.45.54-.61.95-1.18,1.22-1.72.12-.23.12-.46,0-.7-.03-.08-.08-.2-.14-.36-.08-.38.07-.64.45-.77.14-.04.26-.06.37-.06.35-.08.67-.27.95-.59.03,0,.12-.09.27-.26-.05,0-.06.01-.1.02.02,0,.04-.02.05-.02,1.5-3.02,3.19-5.72,5.06-8.08.56-.69.91-1.15,1.03-1.38.1-.25.29-.5.58-.73.55-.47,1.13-1.07,1.75-1.79.13-.14.24-.29.35-.43.13-.2.14-.38.05-.54-.19-.37-.41-.76-.68-1.16-.09-.13-.23-.26-.43-.39-.68-.43-1.33-.65-1.93-.67-.17-.02-.39-.03-.66-.04-.3-.04-.52-.05-.66-.04-.33,0-.56.09-.68.29-.12.23-.31.53-.57.9-.31.4-.51.67-.61.82-.45.71-.75,1.35-.88,1.9-.03.03-.05.1-.07.21,0,.08,0,.14-.03.17-.16.56-.45,1.06-.86,1.49-.08.09-.47.49-1.17,1.22h.1s-.02.01-.06.04c-.18.26-.29.42-.34.47-.1.2-.09.38.03.53.18.21.2.44.08.7-.25.51-.55.91-.92,1.21-.26.21-.46.37-.59.49-.31.29-.46.63-.44,1.01.05.35-.05.72-.31,1.09-.53.85-1.13,1.59-1.81,2.2-.52.47-.98,1.07-1.38,1.81-.35.62-.51.91-.49.85-.27.54-.45,1.01-.54,1.43-.06.42-.24.88-.54,1.39-.15.28-.31.57-.49.85-.28.43-.65.6-1.12.52-.39-.09-.64-.16-.75-.2-.25-.07-1.12-.31-2.6-.72l.04.04c-.43-.25-1.27-.56-2.52-.93-.98-.3-2.81-.83-5.49-1.58-1.26-.37-1.86-.55-1.8-.56-1-.22-1.98-.04-2.94.54-.16.12-.23.29-.22.51.01.22.1.38.27.48l.3.19c.11.05.32.12.63.21ZM149.46,88.28l.03-.17.13.12-.16.05ZM152.77,76.97c-.11.03-.22.01-.33-.06-.12-.1-.16-.21-.14-.32.03-.41.26-.56.67-.45.11.02.17.11.18.28-.01.25-.14.43-.38.56ZM154.38,72.14c.02.38-.05.87-.2,1.45-.07.17-.22.3-.43.4-.19.09-.35.08-.5-.05-.17-.13-.24-.3-.19-.52.11-.45.28-.84.51-1.18.1-.14.19-.24.27-.3.13-.06.26-.08.37-.06.08,0,.14.09.18.28ZM172.16,30.29c.14,0,.21.06.22.19s-.06.2-.2.18c-.14-.02-.18-.1-.14-.24,0-.05.04-.1.12-.13ZM171.22,32.45l.09.12c.07.19,0,.33-.22.42-.13.06-.24.06-.33-.02-.06-.08-.09-.13-.09-.16.06-.39.25-.51.56-.36ZM170.02,39.86s-.07.01-.11.03c-.06,0,0-.01.11-.03ZM169.74,31.58c.1-.08.13-.1.02,0h-.02ZM169.05,37.8v.12s-.12-.07-.12-.07l.12-.05ZM167.82,40.02l.13.12c0,.16-.07.24-.23.22-.06-.02-.09-.06-.09-.12,0-.14.06-.21.19-.22ZM165.32,50.29l.2.21s.06,0,.1.02c-.02.01-.03.02-.05.03l-.05-.05c-.15-.03-.25-.04-.28-.04-.08-.02-.13-.05-.13-.08-.01-.19.06-.22.2-.09ZM163.05,51.58c.14.02.21.1.22.23-.04.28-.17.37-.4.27-.06-.02-.1-.06-.13-.12-.07-.27.03-.4.31-.39ZM150,44.62l.09.12h-.12s.03-.12.03-.12ZM135.93,73.81c-.11-.16-.29-.26-.54-.3-.35-.02-.66-.04-.94-.05-.12,0-.3-.01-.53-.01-.06,0-.07,0-.12,0,.17-.01.24-.02.06,0-.04,0-.09,0-.14,0-.13,0-.27,0-.34,0-.09,0-.16.02-.24.03-1.21.07-2.47.14-3.76.2.05-.22.12-.44.12-.68,0-.17.01-.37,0-.62.02-.31.03-.53.04-.67.03-1.61.04-2.57.03-2.9-.04-.35-.07-.82-.08-1.4,0-.69-.01-1.14-.04-1.36-.07-1.79-.09-2.52-.05-2.19-.03.2-.02-.61.04-2.41.09-2.05,0-3.81-.25-5.27,0-.03-.01-.1-.02-.2,0-.25.08-.47.25-.65.28-.23.39-.56.34-.99-.03-.25-.08-.42-.14-.52-.23-.55-.33-1.27-.3-2.16.05-.97.06-1.58.03-1.83-.11-.7-.06-1.43.15-2.17.1-.32.17-.56.2-.73.07-.34.1-.58.08-.71-.06-.52,0-1.05.18-1.6.12-.37.2-.74.24-1.11.03-.45.18-1.47.46-3.08.14-.77-.06-1.59-.48-1.56-1.47.11-6.17,2.68-6.17,2.68-.38.07-.95.26-1.71.58-.16.07-1.51,1.86-2.07.7-.03-.05-5.55,1.07-6.75,2.19-.06.05-.04.18-.05.22-.23.66-.06,0-.05.52-.02.09-.03.18-.05.3-.01.11-.02.2-.01.25-.03.47-.25.89-.66,1.26-.1.08-.51.43-1.26,1.08-.63.54-1.04.91-1.24,1.1-.15.13-.29.32-.43.59-.07.15-.04.32.06.53.13.2.28.3.45.28.54-.12.73-.17.56-.15.16-.02.34-.03.54-.02.44-.02.61.18.53.6l-.31,1.61c-.06.86-.27,2.13-.62,3.8-.29,1.53-.42,2.85-.4,3.98.01.33-.11.61-.36.83-.17.21-.28.43-.34.66-.14.65-.42,1.46-.83,2.42-.11.23-.17.53-.18.89.01.11.03.29.06.53.02.44,0,.8-.08,1.09-.13.32-.17.68-.12,1.09-.01.14.03.69.11,1.64l.16-.06-.12.06c-.18.63-.26.98-.25,1.06-.14.71-.17,1-.1.88.02-.03-.04.32-.21,1.06-.04.14-.05.27-.04.38.06.7.13,1.16.19,1.53-.2.01-.41.03-.65.04,0,0,.02,0,0-.01-.04,0-.09-.01-.14,0,0-.04.01-.06.02-.1,0,0-1.54-.64-2.86-.22-.86.28-.98.51-.88.58v.02c-.21.93-.31,1.42-.32,1.47-.02.15-.06.35-.14.6.04-.13-.13.58-.5,2.15-.02.09-.03.23-.04.41-.07.65-.17,1.18-.3,1.58-.04.15,0,.26.12.35.01,0,.03.01.04.03l.04.03h.02c.04.25,0,.49-.15.74h.02c-.12.04-.18.06-.2.06-.12.04-.19.1-.22.19-.07.28-.12.48-.14.6-.05.3-.21,1.08-.5,2.35-.29,1.22-.46,1.95-.49,2.17-.12.69-.3,1.23-.54,1.63-.13.24-.19.59-.19,1.07,0,.14.06.3.16.47.16.28.38.53.66.76.03.02.09.05.19.09.13.03.19.12.17.29-.01.21.09.38.29.5.18.11.39.22.63.31.08.05.18.07.29.06.52-.05.95-.13,1.28-.25.13-.05.23-.14.29-.27,0-.01.01-.05.02-.11,0-.03.01-.06.02-.09.12-.87.18-1.34.19-1.4.03-.15.08-.36.15-.64.09-.29.15-.5.17-.64-.02.1.01-.1.1-.61.24-1.25.35-1.84.34-1.78.13-.65.24-1.42.33-2.3,0-.03-.02-.12-.04-.26h.02c0-.2.03-.45.11-.76.01-.06.04-.22.07-.47h.02s-.01-.28-.01-.28c0-.18-.05-.33-.16-.45-.03-.02-.07-.07-.13-.14.16-.17.24-.27.25-.3.13-.19.19-.34.18-.45,0-.28.07-.74.19-1.4.04-.28.16-.48.35-.6.02-.01.04-.04.06-.08.1-.1.15-.22.17-.36-.01.06-.01.01,0-.14.49-.07.88-.12,1.16-.14.19-.02,1.38-.51,1.77-.52.03,0,.14-.04.32-.1.24-.06.58-.1,1-.12.08-.01.28-.03.62-.06v.02c.22-.06.35-.1.36-.11.21-.04.37-.13.48-.3.02-.03.05-.07.1-.14.28.09.44.13.48.14.3.06.52.07.66.04.34-.09.95-.17,1.84-.25.36-.03.66.02.89.16.03,0,.07.02.13.05.18.05.35.06.52.04.27-.05.44-.09.51-.11.33-.1.76-.17,1.29-.2,1.92-.12,3.03-.18,3.33-.18.36-.02.84-.05,1.46-.1.71-.06,1.19-.09,1.46-.1,1.19-.07,1.86-.1,2.01-.08.22,0,.57-.04,1.04-.11.59-.1,1.06-.19,1.42-.27.36-.08.75-.13,1.17-.16s1.09-.06,1.99-.11c.28,0,.46,0,.53,0,.23,0,.08.03-.19.06-.07.83-.12,1.32-.14,1.44-.04.15-.05.41-.04.79.02.47.04.85.08,1.12.04.28.04.58.01.91-.03.32-.07.81-.13,1.49-.03.21-.04.35-.05.41-.11.55-.18,1.32-.21,2.31,0,.29-.03.52-.08.7-.07.24-.11.57-.12.99-.03.48.03.91.16,1.29.05.16.13.25.26.29.34.14.64.26.88.33.09.04.19.04.27.02.32-.05.63-.12.91-.19.16-.05.26-.16.31-.34.07-.25.12-.48.16-.67.02-.11.04-.24.06-.41.02-.18.05-.32.07-.4.02-.18.03-.35,0-.5-.04-.29-.02-.65.06-1.09.04-.22.09-.62.15-1.2.12-1.34.24-2.75.36-4.23.08-1.01.13-1.68.13-2.02,0-.86.01-1.27.03-1.2.05-.38.08-.58.1-.61.07-.35.11-.81.16-1.3l-.1.02c-.2-.33-.39-.65-.57-.95ZM102.15,91.53c-.03.07-.08.11-.14.11-.03,0-.06-.03-.08-.06-.02-.07,0-.12.06-.17.06-.08.12-.1.17-.06.04.04.03.1-.01.18ZM103.31,82.8s.05.02.06.04l.03.05s-.08-.02-.1-.09ZM103.54,80.44s-.12-.06-.23-.14c.08-.09.17-.12.27-.08.07.02.1.06.09.13-.02.07-.06.1-.13.09ZM103.55,83.48l.05-.04v.07s-.05-.04-.05-.04ZM104.51,81.45c-.22-.2-.37-.32-.43-.37-.07-.04-.07-.1,0-.16.06-.05.12-.05.19,0,.19.12.28.27.25.47,0,.01,0,.04-.01.07ZM104.41,84.6v-.07c.07-.01.1,0,.07.06h-.07ZM105.46,82.75s.08.02.15.05c-.06.07-.1.1-.12.12-.02.01-.04.01-.07,0-.07-.03-.08-.08-.04-.15.02-.03.05-.04.08-.03ZM104.87,86.32c-.12.05-.19.02-.21-.11-.01-.08,0-.2.05-.36h0s0-.02,0-.02c0,.01,0,.01,0,.02l.22.16c.14.12.12.23-.06.31ZM105.23,83.84c-.07-.02-.1-.07-.06-.15.02-.07.08-.12.19-.15.02.11,0,.19-.05.24-.02.04-.05.06-.08.05ZM105.7,84.88c-.19.27-.35.46-.46.56.02-.04.04-.08.05-.13,0-.03.02-.07.05-.13.01-.06.03-.1.05-.13.05-.15.15-.2.31-.17ZM109.89,77.32h0c.06.07.04.1-.06.08h0s0,0,0,0l-.04-.05s.07-.02.1-.03ZM109.31,78.86c.17-.03.29-.03.47-.06.07,0-.15.02-.47.06ZM109.62,78.54c.15.05.24.08.46.14h0c-.21-.06-.31-.09-.46-.14ZM110.86,67.31l-.05-.12h0s.09.03.09.03h0s-.03.09-.03.09ZM111.31,64.11c0,.08-.06.11-.1.16-.03.03-.02.09-.07.11h0c-.11.04-.19.04-.24,0-.05-.04-.08-.12-.08-.25-.02-.14.03-.22.14-.26.11-.04.19-.04.25,0,.06.04.1.12.11.25h0ZM110.85,76.24h-.07s0-.03,0-.03h0s.06.03.06.03h0s0,0,0,0ZM111.6,61.17l-.06.05h0s0,0,0,0l-.06-.16h0s0,0,0,0l.09.03.09.03-.06.05ZM111.59,77.95c-.13.05-.25.06-.36.04-.03,0-.04-.03-.06-.04,0,0-.02,0-.03-.02-.03-.08.02-.13.14-.13h0s0,0,0,0c.07,0,.12.06.18.1.04.02.08.02.11.06h0ZM111.43,75.87s0-.07.07-.1c0,.01,0,.03,0,.04l-.04.04h-.01s0,.01,0,.01h0ZM112.38,60c-.05-.06-.11-.15-.19-.27-.05-.07-.08-.12-.15-.22-.08.06-.17.17-.29.32-.12.15-.22.25-.3.28h0c-.05.03-.09.01-.13-.07-.03-.02,0-.04,0-.06,0-.02-.03-.04,0-.06.03-.03.09-.06.13-.09.07-.05.12-.11.22-.16.21-.05.35-.11.39-.17h0c.25.03.45.05.6.06.15.02.24.03.28.04.07.03.09.1.12.17.02.04.07.05.07.1-.01.11-.07.2-.18.27-.08.04-.16.05-.24.04-.01,0-.03-.01-.04-.02-.07-.02-.14-.04-.22-.09,0,0-.04-.04-.06-.08ZM112.61,77.97h0c-.09-.03-.13-.04-.17-.05,0,0-.02,0-.03,0-.03-.02-.04-.05-.05-.08,0,0,0,0,0,0,0-.03.04-.01.05-.03.02-.03.04-.07.1-.06h0s0,0,0,0c.03,0,.04.03.06.04,0,0,.02,0,.03.02.01.02.02.07.01.16,0,0,0,0,0,0ZM114.18,76.34s-.01.02-.02.03c-.08.06-.19.11-.33.13.01,0,0,0-.07,0,.07-.14.13-.25.17-.34.04-.09.07-.15.07-.19,0,0,0,0,0,0,0-.03.05,0,.07-.02.03-.02.05-.06.13-.03h0s0,0,0,0c.04.02.03.05.05.07.03.04.08.07.07.11-.03.1-.08.17-.15.23ZM114.74,75.36s0,0,0,0c-.09.01-.16-.02-.19-.11-.02-.04.02-.11.06-.19.01-.02,0-.03.02-.05h0s0,0,0,0c.15.04.22.12.24.21h0c.01.08-.03.13-.12.14ZM118.52,75.45h0s-.03-.08-.03-.08h.09s0,0,0,0h0s-.06.08-.06.08ZM118.67,76.53l-.08.03v-.05s-.01,0-.01,0h.01s.08.02.08.02h0s0,0,0,0ZM120.03,76.09c-.06.07-.13.09-.22.07-.09-.02-.13-.07-.13-.14-.02-.14.04-.22.18-.22h0s0,0,0,0c.09,0,.16.04.21.11.03.07.02.13-.04.18ZM125.14,49.46c-.27,3.79-.41,5.97-.42,6.55,0,.05,0,.18-.04.38-.06.45-.09,1.3-.11,2.54-.08,2.83-.31,5.26-.71,7.29-.13.79-.25,1.7-.38,2.74,0,.17-.1,1.27-.27,3.3-.07.94-.12,1.55-.13,1.83-.56-.02-1.21,0-1.99.05-1.25.07-1.92.11-2,.13-.19.04-.46.05-.8.05.17,0-.8.06-2.91.18-.11,0-.28.01-.52.06-.85.14-1.55.2-2.1.2-.2,0-.33.08-.39.22,0,.01,0,.03,0,.04,0,.03,0,.05-.01.07-.14.06-.34.03-.51.04.7-.19,1.21-.55,1.47-1.15.63-1.43,1-2.59,1.12-3.49.09-.42.22-.9.41-1.42.57-1.5.82-3.05.77-4.65,0-.08-.02-.14-.02-.16-.04-.38,0-.87.12-1.46.03-.22.18-1.13.47-2.71h-.02s0,0,0,0h0s-.01.03-.01.04l-.05-.04h0s0,0,0,0h.06c.09-.25.24-.76.46-1.55.17-.66.34-1.19.51-1.59.09-.2.2-.51.35-.91.17-.46.28-.78.34-.95.76-1.97,1.29-3.92,1.58-5.86.04-.34.08-.58.12-.72.1-.32.26-.56.49-.72.23-.19.43-.33.62-.4.88-.49,2.06-1.11,3.55-1.87.05-.03.17-.08.36-.13-.06,0,.01-.02.2-.07.43-.13.64.02.64.46-.12,1.98-.2,3.2-.23,3.67ZM126.16,49.67c-.05,0-.09-.03-.1-.11-.02-.14.05-.2.18-.19l.1.11c.02.16-.04.23-.18.19ZM132.72,73.53c-.37.08-.85.11-1.43.1-.16,0,.82-.07,1.64-.13-.07.01-.15,0-.21.02ZM257.7,85.68c.04-.3-.03-.57-.2-.82-.19-.33-.28-.7-.28-1.12.03-.09.13-1.05.32-2.9.01-.22.11-.43.28-.62.05-.07.22-.24.5-.51.17-.17.27-.37.32-.61.12-.72.2-1.31.23-1.77.15-1.24.27-2.42.38-3.53.06-.46-.14-.79-.61-.99-.18-.06-.28-.09-.3-.1-.38-.21-.48-.52-.29-.93.02-.05.09-.21.23-.47v.04c.3-.1.47-.15.5-.17.09-.03.17-.1.24-.22.08-.09.15-.19.19-.32.21-.74.39-1.36.55-1.84.05-.24.07-.54.08-.9-.02-.29-.01-.52.02-.71.14-.68.21-.95.22-.81-.04-.91-.06-1.5-.06-1.78-.02,0-.05-.11-.09-.28h0s-.04,0-.06-.02c-.2.1-.33.16-.39.17-.16-.02-.21-.09-.14-.21.02-.05.07-.08.15-.08.09,0,.23.06.38.12.02,0,.03-.01.04-.02h0c-.28-.4-.45-.63-.49-.67-.03-.07-.04-.18-.02-.34.03-.1.14-.25.31-.45.15-.2.24-.43.26-.67.16-2.33.23-3.8.2-4.43-.01-.23-.03-.56-.06-.99-.02-.45-.04-.78-.06-.99-.02-.37.02-.71.12-1.01.09-.36.14-.6.14-.71,0-.36.13-.76.38-1.18.17-.28.21-.62.12-1.01-.08-.28-.16-.51-.24-.71-.21-.49-.32-1-.35-1.54-.02-.2-.08-.36-.18-.48-.4-.49-.71-.93-.93-1.3-.03-.07-.14-.14-.31-.22-.14-.1-.29-.27-.46-.53-.12-.23-.21-.38-.28-.43-.3-.38-.63-.62-.98-.74-.35-.14-1.01-.44-1.98-.89-.54-.23-1.09-.13-1.65.31-.11.08-.18.17-.21.27-.44,1.29-.82,2.41-1.13,3.38-.18.56-.35,1.61-.51,3.15.07.3,0,.77-.2,1.41-.05.15-.13.41-.24.76l-.24.76c-.33,1.04-.6,2-.8,2.89-.33,1.38-.74,2.62-1.24,3.72-.45.97-.9,2.38-1.36,4.23-.07.31-.13.67-.18,1.08-.01.22-.09.53-.22.94-.11.44-.18.77-.19.99-.11.16-.27.53-.48,1.11-.19.5-.38.87-.57,1.12-.16.23-.26.5-.31.83-.06.54-.18,1.12-.35,1.74-.12.47-.37.78-.76.93-.13.07-.29.16-.46.27-.04.04-.11.13-.21.27-.04.04-.07.09-.09.14-.1.3-.44.99-1.04,2.06-.4.74-1.26,2.02-2.57,3.84-.41.57-.98.99-1.71,1.26-.19.08-.35.05-.48-.07-.18-.14-.26-.29-.23-.45.29-1.95.42-2.78.38-2.48,0-.11,0-.35-.02-.72,0-.28.02-.51.06-.7.07-.2.11-.52.14-.96,0-.45.04-.77.1-.97,0-.08.08-.68.23-1.77.12-1.08.19-1.73.21-1.95.02-.14.03-.37.06-.7.04-.3.06-.53.06-.7.08-.51.03-.97-.14-1.39-.16-.36-.2-.78-.1-1.25.14-.68.19-.98.15-.87.05-.15.03-.32-.04-.52-.04-.04-.11-.15-.19-.31-.07-.13-.12-.23-.16-.3-.06-.16-.09-.34-.08-.53,0-.08.03-.26.08-.52.11-.61.05-1.19-.2-1.74-.1-.23-.18-.45-.25-.67-.16-.47-.19-.94-.09-1.42.24-1.44.46-2.83.67-4.19,0-.03.1-.43.26-1.22.11-.52.16-.82.15-.87.02-.16.13-.44.31-.83.07-.14.07-.31,0-.51-.03-.07-.06-.12-.08-.15-.41-.55-.64-1.28-.68-2.19,0-.08,0-.24.02-.46,0-.19,0-.33,0-.42,0-.02-.03-.2-.11-.51.28-.13.47-.26.57-.39.15-.2.23-.36.24-.47.07-.48.09-.89.06-1.24-.17-1.4-.23-1.98-.2-1.74-.06-.33-.14-1.22-.23-2.68,0-.17,0-.28.02-.33.1-.58.05-1.65-.15-3.2-.06-.33-.17-.6-.33-.82-.57-.83-1.12-1.52-1.64-2.08-.1-.12-.26-.18-.48-.2-.12.02-.22.07-.3.16-.2.19-.29.4-.28.62.03.35.07.58.11.71.17.42.29.75.35.99.22.71.23,1.42.04,2.11-.13.49-.27.93-.43,1.33-.15.48-.22.95-.2,1.41,0,.42.01.66.02.72.01.23-.01.51-.07.86-.34,1.68-.56,2.73-.63,3.16-.02.08-.06.54-.11,1.39-.15,1.6-.22,2.62-.22,3.04-.01.22.04.43.17.64.11-.59.51-1.56,1.19-2.93,0-.03.04-.07.09-.14.11-.08.21-.09.3-.03.2.07.32.19.35.36.11.62.07,1.27-.12,1.94-.15.54-.2,1.01-.16,1.42.05.38,0,1.26-.13,2.64-.04.21-.09.53-.14.96-.08.42-.13.74-.14.96-.08.76-.22,1.4-.45,1.91-.11.25-.3.8-.58,1.66-.09.28-.21.65-.35,1.1-.2.52-.33.89-.39,1.09-.31.96-.47,1.73-.48,2.28-.01.3-.12.82-.32,1.53-.26.9-.67,2.08-1.22,3.55-.21.58-.36,1.09-.45,1.54-.09.36-.11.78-.06,1.24,0-.03.02-.06.04-.11v.04c-.59,1.89-.92,2.96-1,3.21-.06.18-.13.44-.21.77-.08.34-.15.58-.19.74-.1.3-.06.65.13,1.05.04.01.1.03.17.05-.07-.02-.12-.04-.2-.07-.56,1.14-.9,2.32-1.01,3.54-.01.3-.09,1.01-.22,2.11-.12.91-.1,1.61.09,2.09.03.09.02.2-.02.33-.16.4-.11.86.14,1.39.14.27.26.46.36.58.22.27.51.71.87,1.33.11.18.25.15.4-.08,0-.03.03-.05.06-.06,0-.03.02-.05.02-.08.29-.05.45-.06.48-.06.08,0,.13.03.14.09.12.51.43.84.95.98.48.1.84.23,1.1.39.01-.01.02-.02.03-.03-.1-.39-.13-.68-.1-.89h-.05s-.04-.04-.05-.06c-.01,0-.04-.01-.05-.02l-.05-.1c.06,0,.08.06.1.12.03,0,.05.02.1.03,0,0,0,.02,0,.03l.28.02c.24.02.33.15.26.38-.05.06-.2.23-.43.49,0,.02,0,.03,0,.04,0,0-.02-.01-.03-.02,0,0,0,0,0,0,.37.32.59.51.65.59.05.02.12.02.2.02.51-.03.88-.21,1.09-.53.02-.05.06-.15.14-.29.07-.2.19-.3.39-.3.08,0,.26.03.52.08.24.02.46-.03.64-.17.63-.47,1.07-.88,1.31-1.22l-.02.08c.65-.27,1.11-.71,1.39-1.32.08-.17.14-.28.19-.32.12-.21.31-.35.55-.41.4-.1.56-.14.5-.13.13-.04.22-.11.28-.21.02-.05.14-.32.38-.8.15-.29.29-.48.44-.57.41-.23.95-.77,1.61-1.62.5-.6.87-1.26,1.1-2-.03.1.02-.08.17-.53.02-.16.08-.38.17-.66l.22-.69c.06-.18.08-.41.06-.7-.03-.35-.04-.59-.02-.72,0-.11.08-.21.22-.31.11-.08.21-.09.3-.03.07.05.11.08.14.09.02.03.06.08.13.13s.11.08.14.09c.11.09.23.12.35.07.17-.09.28-.21.32-.36,0-.11.02-.23.03-.37,0-.08,0-.38,0-.89-.03-.6.1-1.17.39-1.72.18-.39.31-.66.38-.8.3-.77.47-1.46.5-2.07.04-.46.32-.69.85-.69.19,0,.32,0,.38,0,.18-.03.32-.12.43-.28.02-.08.07-.19.15-.33.06-.18.11-.36.17-.53.29-.8.57-1.46.84-1.96.13-.24.23-.45.28-.62l1.48-3.05c.13-.32.4-.71.8-1.17.06-.09.15-.13.29-.12.14.02.22.09.27.21.16.28.23.62.21,1.03-.02.33-.05.86-.1,1.61-.03.69-.04,1.22-.05,1.58-.01.22-.06.64-.15,1.25-.05.51-.07.93-.06,1.24.01.14,0,.25-.02.33-.03.1-.18.92-.45,2.46-.25,1.57-.37,2.33-.35,2.28-.24,1.35-.62,4.06-1.14,8.12-.1.67-.24,1.48-.4,2.43-.05.43-.22,1.06-.48,1.9-.08.25-.2.59-.37,1.02-.17.45-.29.79-.37,1.02-.14.43-.26.88-.35,1.36-.08.42-.01.82.2,1.2.4.69.82,1.26,1.26,1.71.73.77,1.48,1.24,2.23,1.43.29.06.59.05.9-.05.29-.1.5-.3.65-.59.17-.36.3-.76.38-1.18.08-.59.31-2.06.7-4.4-.02.24.13-.81.47-3.17,0-.11.16-1.17.47-3.17ZM238.4,50.04c.02-.07.05-.16.09-.27v.13s-.04.07-.09.14c0,.01,0,.02,0,.03,0,0-.01,0-.02.01,0,0,0-.03.01-.04ZM234.66,66.27c.12-.21.26-.24.4-.08.11.09.16.19.16.3l-.09.14c-.09.11-.2.13-.32.07-.23-.07-.28-.22-.16-.43ZM232.44,83.91s.07.04.14.09c-.03.1-.06.15-.09.14-.07.03-.11.03-.13,0-.1-.12-.08-.19.07-.23ZM232.21,84.89s-.09.06-.14.04c-.01-.03-.09-.08-.22-.14-.02,0-.02,0-.04.02l-.03-.05s.04.02.06.03c.13-.06.23-.11.25-.1.17,0,.2.07.1.2ZM230.64,83.37s-.05-.16-.06-.34c-.02-.04-.03-.03-.06-.08l.05-.03s0,.07,0,.1c.06.09.13.19.15.2l-.09.14ZM231.63,81.72c-.08-.02-.13-.04-.15-.05-.31-.07-.48-.28-.51-.63.38.12.71.1.99-.06.03-.02.09-.03.18-.03.12-.02.22.01.3.1.15.16.14.31-.02.46-.18.22-.39.31-.63.26-.03,0-.08-.02-.15-.05ZM231.73,86.12c.08.02.12.05.14.09.03.07.03.12-.01.16-.1.05-.19.02-.27-.09-.03-.07-.1-.16-.21-.28.2.07.32.1.34.11ZM231.15,90.8c-.06,0-.11,0-.16-.01-.06,0-.11,0-.15-.05-.08-.11-.08-.22-.02-.34.1-.14.29-.26.58-.36.16-.06.25-.04.28.05.03.07.03.16,0,.29-.1.22-.27.36-.51.42ZM233.03,82.34c-.03-.09,0-.17.07-.23.08-.09.18-.09.3-.03.09.06.12.15.08.28-.07.12-.17.17-.3.16-.08,0-.14-.06-.15-.18ZM232.57,87.94c-.1.05-.19.01-.25-.12v-.16c.12-.08.23-.06.33.06.1.12.08.19-.07.23ZM236.5,63.54c-.13.32-.35.57-.66.75-.13.07-.24.05-.32-.06-.1-.12-.16-.2-.17-.26-.04-.24,0-.52.1-.85.07-.2.19-.39.39-.55.25-.17.45-.12.58.15.16.28.19.55.07.82ZM233.1,90.76h-.09s.1-.04.1-.04v.04ZM234.17,83.75l-.04-.14c.04-.13.11-.16.2-.1.05.02.06.06.04.14-.02.14-.08.17-.2.1ZM237.72,64.57c-.2.1-.36.07-.47-.11-.05-.1-.06-.21-.02-.34l.17-.28c.09-.11.2-.15.33-.1.1.03.17.11.22.24.11.26.03.46-.23.6ZM234.25,89.66c-.05-.02-.08-.04-.1-.07v-.13s.18-.03.18-.03c.1.12.08.19-.07.23ZM235.85,85.34s-.06-.09-.04-.14c.04-.13.12-.16.24-.09l.04.14c-.04.13-.12.16-.24.09ZM236.12,83.83c-.07-.02-.17-.07-.29-.13l-.02.03s-.03-.03-.04-.06c-.26-.09-.41-.15-.43-.18-.1-.03-.19-.1-.27-.21s-.05-.18.07-.23c.07-.03.11-.02.11.04.09.05.26.26.51.58,0,0,.01,0,.02,0,.02.01.03.01.04.02l.07-.11c.05-.08.08-.12.1-.15.09-.1.19-.12.31-.06.09.06.12.15.08.28-.07.12-.15.17-.26.17ZM236.75,82.9l-.1-.07.07-.1.1.07-.07.1ZM237.21,85.02c-.2.02-.29-.09-.27-.34.02-.24.14-.33.34-.27.13.04.2.12.22.24,0,.25-.09.38-.29.37ZM236.86,90.16l-.09-.11c0-.14.04-.18.16-.12.08.02.12.05.14.09-.02.14-.09.18-.21.14ZM237.86,89.14c-.23.01-.32-.1-.27-.34l.11-.09c.25-.09.37,0,.34.24-.02.14-.08.2-.19.19ZM241.12,81.07l.05.1-.11-.04.06-.06ZM238.67,91.58h0s.01-.04.01-.04v.04ZM240.74,85.65c.08,0-.1-.05-.55-.13l-.57-.18c.08.02.03,0-.14-.09-.25-.11-.29-.26-.14-.47.06-.09.15-.13.29-.12.51.08.88.31,1.12.7.04.04.06.09.04.14,0,.08-.02.14-.05.15ZM241.56,82.22c-.09-.03-.19-.06-.24-.08l.07-.1c.08.02.12.1.16.18.04.01.06.02.1.03,0,.06.05.16.12.29.05.1.09.18.13.25l-.05.03c-.04-.13-.13-.31-.25-.54-.01-.03-.04-.03-.05-.06ZM241.25,86.95s-.06.02-.09.01c.02-.05.02-.09,0-.13h.13s0,.13,0,.13h-.04ZM242.6,84.06c-.02.05-.05.08-.11.09-.14,0-.21-.05-.19-.19.02-.14.09-.19.23-.18.12.07.14.16.08.28ZM243,83.06l-.05.03.06-.06v.04ZM246.95,71.56h-.13s-.09-.11-.09-.11c.02-.08.07-.1.15-.08.16.02.18.09.07.19ZM248.58,71.03l-.14-.09c.07-.14.15-.15.21-.02l-.07.1ZM249.42,69.08c-.07.12-.17.17-.3.16-.28-.09-.41-.26-.39-.5-.02-.03,0-.15.07-.35-.04-.21-.06-.33-.05-.35-.04-.32.11-.43.44-.32.23.07.34.19.35.36-.04.55-.07.89-.12,1.01ZM251.87,68.9c-.11.16-.31.26-.6.31-.2.02-.34-.08-.41-.3-.06-.33-.07-.61-.02-.85.03-.19.16-.33.39-.42.2-.1.4-.11.59-.02.12.15.19.23.22.24.05.35,0,.7-.17,1.04ZM256.5,52.53s-.07-.04-.14-.09l.07-.1.14.09-.07.1ZM256.37,72.56l.1.07-.14.04.04-.11ZM258.31,74.24c-.12.1-.29.15-.5.13-.34,0-.58.14-.72.4-.31.54-.76,1.02-1.34,1.42.7.09,1.11.17,1.27.24.02-.01.03-.01.05-.03,0,0,.01,0,.02,0,.04-.09.09-.16.16-.16.14-.01.21.05.19.19,0,.03-.05.06-.11.09-.11.02-.18-.03-.24-.12,0,.02-.02.01-.03.03,0,0-.03,0-.04,0-.16.13-.33.17-.53.08-.05-.02-.3-.12-.74-.32-.09-.34-.13-.52-.12-.54-.04-.21-.02-.37.07-.48.2-.19.39-.56.57-1.12.02-.05.1-.19.26-.42.12-.21.27-.29.45-.23.57.24,1,.42,1.3.54.08.02.12.07.13.13-.02.05-.05.11-.1.18Z"/>
  </g>
</svg>