<svg width="180" height="71" viewBox="0 0 180 71" fill="none" xmlns="http://www.w3.org/2000/svg">
<path d="M172.107 27.0083C172.228 27.099 172.303 27.2199 172.348 27.3861C172.438 27.7035 172.469 28.0057 172.423 28.2777C172.378 28.5799 172.213 28.8217 171.942 29.0333C171.851 29.0786 171.641 29.1089 171.325 29.1089C171.069 29.1089 170.963 29.2297 170.979 29.4866C171.024 29.7889 170.888 30.0307 170.572 30.2422C170.226 30.4538 169.759 30.6351 169.172 30.8165C169.082 30.8618 168.51 31.028 167.442 31.3303L167.306 31.4058C167.05 31.4058 166.599 31.4663 165.952 31.572C165.38 31.6627 164.928 31.7232 164.597 31.7383C164.371 31.7383 163.273 31.844 161.301 32.0405C160.895 32.0858 160.503 32.3125 160.142 32.7205C160.097 32.7961 160.052 32.8867 160.007 32.9925C159.961 33.1134 159.931 33.2041 159.931 33.2948C159.901 33.7028 159.766 34.2468 159.525 34.8966C159.209 35.7126 159.028 36.1962 158.983 36.3322C158.938 36.5589 158.848 36.846 158.712 37.1936C158.727 37.118 158.532 37.3598 158.095 37.8736C157.839 38.1909 157.794 38.5234 157.93 38.8709L157.96 39.0069C158.05 39.2034 158.02 39.3998 157.854 39.551C157.629 39.8079 157.508 40.0194 157.478 40.2008C157.448 40.367 157.433 40.4577 157.403 40.4728C157.222 40.7448 156.966 41.5155 156.65 42.7999C156.47 43.6009 156.771 44.2355 157.568 44.7191C158.005 44.9911 158.517 45.1725 159.104 45.2631C159.555 45.3538 160.172 45.4294 160.94 45.5049C161.527 45.5503 162.129 45.5503 162.746 45.5049C163.047 45.4747 163.649 45.4142 164.552 45.2934C164.913 45.248 165.124 45.0516 165.199 44.7191C165.214 44.6436 165.244 44.5529 165.274 44.4169C165.244 44.4773 165.274 44.3867 165.304 44.1449C165.319 43.9182 165.425 43.7369 165.575 43.6009C165.741 43.48 165.967 43.2986 166.298 43.0568C166.463 42.9511 166.644 42.8906 166.87 42.8906C167.231 42.8604 167.487 42.9813 167.652 43.2382C167.863 43.5404 168.074 43.8729 168.3 44.2658C168.51 44.6133 168.721 45.0062 168.947 45.4596C169.082 45.7165 169.142 46.0036 169.112 46.3512C169.082 46.8045 168.992 47.3485 168.811 47.9832C168.691 48.3459 168.495 48.633 168.194 48.8446C167.472 49.3886 166.554 49.7966 165.44 50.0384C165.139 50.1139 164.898 50.1291 164.687 50.1139C164.371 50.0837 164.085 50.1593 163.829 50.3255C163.709 50.3708 163.574 50.386 163.393 50.3557C163.227 50.3557 162.821 50.3557 162.174 50.386C160.865 50.4162 159.841 50.3255 159.149 50.1442C158.336 50.0535 157.252 49.8117 155.913 49.4339C155.251 49.2224 154.694 49.0108 154.212 48.7841C153.911 48.6179 153.685 48.4366 153.505 48.2099C153.414 48.0739 153.354 47.9983 153.339 47.9681C153.129 47.6054 152.737 47.0765 152.15 46.3965C151.383 45.5351 151.127 44.5378 151.398 43.4195C151.879 41.5306 152.391 39.9287 152.963 38.6443C153.129 38.2816 153.415 37.5865 153.851 36.5589C153.941 36.3322 154.017 36.1357 154.062 35.9846C154.287 35.0024 155.236 31.9045 156.921 26.691C157.057 26.2074 157.298 25.467 157.629 24.4394C157.975 23.4873 158.216 22.7318 158.381 22.1877C158.396 22.1575 158.637 21.3264 159.058 19.6943H159.089L159.013 19.7246C160.142 15.448 160.684 13.4381 160.609 13.6799C160.609 13.6648 160.609 13.6044 160.639 13.5439C160.729 13.1057 160.684 12.7128 160.503 12.3501C160.413 12.2141 160.428 12.0781 160.533 11.9421C160.985 11.3527 161.196 11.0656 161.181 11.0807C161.166 11.1261 161.271 10.6878 161.527 9.78114C161.527 9.76603 161.572 9.44869 161.662 8.85934C161.707 8.58733 161.798 8.30021 161.933 7.99798C162.008 7.87708 162.099 7.7713 162.234 7.65041C162.37 7.54463 162.49 7.45396 162.61 7.3784C163.197 7.07617 164.04 6.75883 165.124 6.38104C165.38 6.30548 165.621 6.3357 165.876 6.4566C166.238 6.62282 166.524 6.83438 166.734 7.10639C167.05 7.54463 167.246 7.93753 167.306 8.30021C167.321 8.57222 167.517 8.72333 167.848 8.73844C168.164 8.76867 168.375 8.76867 168.465 8.76867H170.572C173.974 8.79889 175.644 8.79889 175.584 8.79889C175.99 8.79889 176.653 8.87445 177.556 9.04067C177.857 9.08601 178.278 9.2069 178.85 9.41846C178.97 9.4638 179.106 9.53936 179.256 9.66025C179.964 10.1438 180.159 10.7936 179.873 11.6399C179.828 11.8061 179.723 12.0025 179.572 12.2594C179.407 12.5315 179.317 12.743 179.271 12.879C179.226 13.015 179.076 13.1661 178.835 13.3173C178.383 13.6195 177.887 13.8462 177.33 14.0275C176.607 14.2995 175.975 14.4204 175.418 14.4053C175.208 14.3902 174.937 14.3751 174.561 14.3751C174.124 14.3751 173.853 14.3751 173.748 14.3448C173.341 14.3448 173.086 14.3146 172.995 14.2391C173.04 14.2844 172.89 14.1635 172.559 13.8613C172.378 13.6799 172.198 13.6648 172.017 13.831C171.791 14.0124 171.565 14.0426 171.34 13.9368C171.174 13.8159 170.994 13.831 170.768 13.9671C170.512 14.1031 170.286 14.1635 170.06 14.1333C168.947 14.0879 168.194 14.0124 167.818 13.8915C167.366 13.8008 166.915 13.7706 166.463 13.8159C166.253 13.8462 166.102 13.9519 165.982 14.1635C165.891 14.3297 165.816 14.4657 165.771 14.5715C165.319 15.9164 165.018 16.7778 164.883 17.1707C164.657 17.9716 164.416 18.6214 164.161 19.1503C163.86 19.8303 163.634 20.5104 163.483 21.1602C163.182 22.4295 163.017 23.17 162.972 23.3816C162.881 23.9256 162.716 24.5149 162.49 25.1647C162.415 25.4216 162.234 26.0412 161.948 27.0386C161.903 27.1595 161.948 27.2652 162.054 27.3861C162.174 27.507 162.279 27.5524 162.4 27.5221C162.625 27.4768 162.731 27.4617 162.701 27.4919C163.047 27.4012 163.318 27.3257 163.559 27.2501C164.763 26.9026 166.042 26.6306 167.412 26.3888C167.863 26.3283 168.405 26.2225 169.052 26.0865C169.368 25.9959 169.609 25.7994 169.774 25.5123C169.865 25.3461 169.955 25.1194 170.045 24.8323C170.211 24.4243 170.557 24.1674 171.099 24.0767C171.234 24.0616 171.385 24.0767 171.535 24.1825C171.806 24.3185 171.972 24.5603 172.047 24.8927C172.062 24.9381 172.092 25.1496 172.122 25.5123C172.137 25.8145 172.168 26.0563 172.198 26.2679C172.198 26.4039 172.167 26.5399 172.092 26.6759C172.137 26.6003 172.092 26.7061 171.927 26.9479C171.791 26.9932 171.701 27.0235 171.656 27.0537C171.445 27.099 171.31 27.2199 171.219 27.4315L171.189 27.507C171.189 27.507 171.189 27.5524 171.159 27.5826L171.129 27.7186C171.054 27.8546 171.099 27.9755 171.264 28.0964C171.43 28.187 171.565 28.2022 171.701 28.1266C171.882 28.0359 171.987 27.8697 172.002 27.643C172.002 27.6733 171.972 27.4315 171.897 26.9328C172.062 27.0235 172.152 27.0688 172.168 27.0688L172.107 27.0083ZM154.408 37.118V37.0878C154.408 37.0878 154.287 37.118 154.272 37.118L154.302 37.2238C154.438 37.1935 154.468 37.1936 154.408 37.1936V37.118ZM155.19 38.1758L155.296 38.206C155.311 38.3874 155.326 38.4931 155.326 38.5083C155.341 38.5536 155.386 38.5838 155.431 38.5838C155.567 38.614 155.627 38.5536 155.597 38.4176C155.597 38.3571 155.567 38.3118 155.522 38.3118C155.491 38.2816 155.401 38.2514 155.251 38.206L155.175 38.1758H155.19ZM161.753 22.2633L161.858 22.2331L161.753 22.1575V22.2633ZM168.811 28.5044C168.811 28.5044 168.781 28.5648 168.676 28.5346V28.3986C168.676 28.3986 168.751 28.3986 168.706 28.5346L168.811 28.5044ZM169.519 10.2647C169.308 10.1287 169.127 10.1287 168.977 10.2647C168.856 10.3403 168.856 10.4158 168.977 10.5065C169.112 10.6274 169.293 10.5821 169.519 10.4007V10.2647ZM169.037 29.2297L168.962 29.1542V29.26L169.037 29.2297ZM170.03 26.6003C169.895 26.5701 169.85 26.6306 169.895 26.7363C169.91 26.7817 169.97 26.8119 170.03 26.8119L170.106 26.7061L170.03 26.6003ZM170.512 13.4835C170.512 13.4835 170.587 13.423 170.617 13.3475C170.617 13.2266 170.542 13.1812 170.407 13.2115L170.331 13.3173C170.331 13.4533 170.392 13.5137 170.497 13.4835H170.512ZM171.565 11.7456L171.535 11.6399L171.611 11.7154L171.581 11.7456H171.565ZM171.701 13.0301C171.701 13.0301 171.671 13.0604 171.701 13.1359C171.776 13.1057 171.821 13.1057 171.836 13.1057L171.806 12.9999L171.701 13.0301ZM174.696 11.3679C174.53 11.6701 174.44 11.8514 174.425 11.9119C174.395 11.9421 174.395 11.9723 174.395 12.0479C174.41 12.1234 174.44 12.1688 174.47 12.1839C174.591 12.2292 174.681 12.1839 174.741 12.0781C174.862 11.8514 174.831 11.6248 174.666 11.3981L174.696 11.3679ZM178.338 12.1083C178.248 12.0328 178.173 12.0328 178.097 12.1083C178.067 12.1537 178.097 12.199 178.128 12.2443C178.203 12.2897 178.278 12.2746 178.368 12.2141L178.338 12.1083Z" fill="black"/>
<path d="M47.8951 39.2487C47.7897 39.2033 47.7295 39.1731 47.7144 39.1731C47.4887 39.022 47.4586 38.8256 47.594 38.5838C47.594 38.5535 47.6693 38.4629 47.7596 38.3118C47.9553 38.2966 48.0606 38.2664 48.0757 38.2664C48.1359 38.2664 48.181 38.2211 48.2262 38.1455C48.2864 38.1002 48.3315 38.0397 48.3616 37.9642C48.5272 37.526 48.6777 37.1633 48.7981 36.8762C48.8432 36.7402 48.8733 36.5588 48.9034 36.3321C48.9034 36.1508 48.9185 36.0148 48.9486 35.909C49.069 35.501 49.1292 35.3348 49.1292 35.4254C49.1593 34.8663 49.1743 34.5036 49.2044 34.3374C49.2044 34.3374 49.1743 34.2619 49.1593 34.1561C49.1442 34.1561 49.1292 34.1561 49.1141 34.141C48.9937 34.1863 48.9034 34.2165 48.8733 34.2165C48.783 34.1863 48.7529 34.141 48.7981 34.0805C48.7981 34.0503 48.8432 34.0352 48.8884 34.0352C48.9486 34.0352 49.0238 34.0805 49.1141 34.1258C49.1141 34.1258 49.1141 34.1258 49.1443 34.1258C49.0088 33.8841 48.9034 33.7178 48.8884 33.6876C48.8733 33.6423 48.8884 33.5818 48.8884 33.476C48.9185 33.4156 48.9787 33.3249 49.0991 33.2192C49.2044 33.0983 49.2647 32.9774 49.2948 32.8263C49.5205 31.4209 49.656 30.5293 49.671 30.1364C49.671 30.0004 49.671 29.7888 49.6861 29.5319C49.6861 29.2599 49.7011 29.0484 49.7011 28.9275C49.7011 28.7008 49.7463 28.5043 49.8366 28.323C49.9118 28.1114 49.957 27.9603 49.972 27.8999C50.0021 27.6732 50.0924 27.4465 50.273 27.2047C50.3934 27.0385 50.4386 26.8421 50.4085 26.6003C50.3784 26.4341 50.3483 26.2829 50.3031 26.162C50.1978 25.8598 50.1677 25.5425 50.1827 25.21C50.1827 25.0891 50.1526 24.9833 50.0924 24.9078C49.8817 24.5904 49.7162 24.3033 49.6108 24.0615C49.5958 24.0162 49.5356 23.9709 49.4453 23.9104C49.37 23.8349 49.2797 23.7291 49.1894 23.5629C49.1292 23.4117 49.084 23.3211 49.0389 23.2908C48.8733 23.0491 48.6927 22.8828 48.482 22.7922C48.2864 22.6864 47.8951 22.4748 47.3382 22.1424C47.0221 21.9761 46.676 22.0064 46.3147 22.233C46.2395 22.2784 46.1943 22.3237 46.1642 22.3841C45.8181 23.1397 45.5321 23.8046 45.2913 24.3789C45.1558 24.7113 44.9903 25.3309 44.7946 26.2678C44.8247 26.4492 44.7495 26.7363 44.599 27.1141C44.5538 27.2047 44.4936 27.3559 44.4033 27.5674L44.2077 28.0208C43.9518 28.6403 43.726 29.1995 43.5605 29.7284C43.2745 30.5444 42.9585 31.2849 42.5973 31.9196C42.2661 32.4938 41.9049 33.3249 41.5287 34.413C41.4685 34.5943 41.4083 34.821 41.3631 35.0628C41.3481 35.1988 41.2728 35.3801 41.1825 35.6219C41.0922 35.8788 41.032 36.0752 41.0169 36.2112C40.9417 36.3019 40.8213 36.5135 40.6557 36.861C40.5203 37.1482 40.3698 37.3748 40.2494 37.5108C40.144 37.6468 40.0688 37.798 40.0086 37.9944C39.9333 38.3269 39.843 38.6593 39.6925 39.0371C39.5871 39.3091 39.4216 39.4905 39.1808 39.566C39.0905 39.5962 39.0002 39.6416 38.8798 39.702C38.8497 39.7322 38.8045 39.7776 38.7293 39.8531C38.6992 39.8834 38.6841 39.8985 38.6691 39.9287C38.5938 40.11 38.3379 40.5029 37.9165 41.1225C37.6306 41.5456 37.0285 42.271 36.1406 43.3137C35.8546 43.631 35.4934 43.8577 35.0268 43.9786C34.9064 44.0088 34.8161 43.9786 34.7409 43.903C34.6355 43.8124 34.6054 43.7066 34.6205 43.6159C34.9064 42.4523 35.0268 41.9536 34.9967 42.1199C34.9967 42.0594 35.0118 41.9083 35.0268 41.6816C35.0419 41.5154 35.072 41.3794 35.1021 41.2585C35.1472 41.1376 35.2074 40.9412 35.2375 40.6843C35.2676 40.4123 35.2977 40.2158 35.3579 40.0949C35.3579 40.0496 35.4482 39.6869 35.5987 39.022C35.7342 38.3722 35.8094 37.9793 35.8395 37.8433C35.8546 37.7677 35.8847 37.6166 35.9148 37.4202C35.96 37.2388 35.975 37.1028 35.9901 36.997C36.0653 36.6948 36.0653 36.4077 35.9901 36.1508C35.9148 35.9241 35.9148 35.6672 35.9901 35.3801C36.1105 34.9721 36.1556 34.7908 36.1406 34.8512C36.1857 34.7605 36.1857 34.6548 36.1406 34.5339C36.1105 34.5036 36.0804 34.4432 36.0352 34.3374C36.0051 34.2467 35.975 34.1863 35.96 34.141C35.9299 34.0352 35.9299 33.9294 35.9449 33.8085C35.9449 33.7632 35.975 33.6574 36.0202 33.4912C36.1255 33.1285 36.1105 32.7658 36.0051 32.4182C35.96 32.2822 35.9299 32.1311 35.8998 31.9951C35.8245 31.6929 35.8395 31.4058 35.9299 31.1338C36.1556 30.2724 36.3663 29.4413 36.577 28.6252C36.577 28.6252 36.6673 28.3683 36.8028 27.8999C36.9081 27.5825 36.9533 27.4163 36.9533 27.371C36.9834 27.2803 37.0586 27.1141 37.1941 26.8874C37.2543 26.7967 37.2543 26.7061 37.2242 26.5852C37.2091 26.5398 37.1941 26.5096 37.179 26.4945C36.9683 26.1318 36.863 25.6785 36.8931 25.1193C36.8931 25.074 36.9081 24.9833 36.9382 24.8473C36.9382 24.7264 36.9683 24.6509 36.9683 24.5904C36.9683 24.5904 36.9683 24.4544 36.9232 24.2731C36.9382 24.2278 36.9683 24.1673 36.9984 24.0918V24.1673C36.9984 24.1673 36.9683 24.2126 36.9382 24.2429C36.9382 24.2429 36.9382 24.2429 36.9382 24.258C37.1188 24.1975 37.2393 24.1371 37.3145 24.0615C37.4199 23.9406 37.4801 23.85 37.4801 23.7895C37.5553 23.5024 37.5854 23.2455 37.5854 23.0339C37.5704 22.1726 37.5553 21.8099 37.5704 21.961C37.5553 21.7646 37.5704 21.2054 37.5704 20.3139C37.5704 20.2081 37.5854 20.1476 37.6005 20.1174C37.6908 19.7698 37.7209 19.12 37.6908 18.168C37.6757 17.9716 37.6155 17.7902 37.5403 17.6542C37.2393 17.1102 36.9533 16.6569 36.6673 16.2942C36.6071 16.2186 36.5168 16.1733 36.3814 16.1431C36.3061 16.1431 36.2459 16.1733 36.1857 16.2186C36.0503 16.3244 35.9901 16.4453 35.975 16.5813C35.975 16.7929 35.975 16.944 36.0051 17.0195C36.0804 17.2915 36.1406 17.488 36.1556 17.6391C36.2459 18.0925 36.2158 18.5156 36.0503 18.9236C35.9449 19.2107 35.8245 19.4827 35.7191 19.7094C35.5987 19.9965 35.5235 20.2685 35.5235 20.5556C35.5084 20.8125 35.4934 20.9637 35.4934 20.9939C35.4934 21.1299 35.4633 21.3112 35.4031 21.5077C35.1021 22.505 34.9064 23.1397 34.8312 23.3966C34.8161 23.442 34.7559 23.7291 34.6807 24.2429C34.5 25.21 34.3947 25.8145 34.3796 26.0714C34.3646 26.2074 34.3796 26.3434 34.4398 26.4794C34.5452 26.1318 34.8312 25.5576 35.3278 24.7567C35.3278 24.7567 35.3579 24.7113 35.388 24.6811C35.4633 24.6358 35.5235 24.6358 35.5686 24.6811C35.689 24.7264 35.7492 24.8171 35.7643 24.9229C35.7944 25.3007 35.7342 25.6936 35.5837 26.1016C35.4633 26.4189 35.4031 26.7061 35.4031 26.9478C35.4031 27.1745 35.3278 27.7185 35.1623 28.5497C35.1322 28.6706 35.072 28.867 35.0268 29.1239C34.9516 29.3808 34.9064 29.5622 34.8914 29.6982C34.8011 30.1515 34.6807 30.5293 34.5151 30.8315C34.4398 30.9675 34.2893 31.3 34.0636 31.8138C33.9883 31.98 33.898 32.1916 33.7927 32.4636C33.6422 32.7658 33.5368 32.9925 33.4917 33.0983C33.2509 33.6725 33.1003 34.1258 33.0702 34.4583C33.0401 34.6396 32.9498 34.9419 32.7843 35.3801C32.5736 35.909 32.2575 36.6041 31.8361 37.4655C31.6705 37.798 31.5501 38.1002 31.4749 38.3722C31.3996 38.5838 31.3695 38.8407 31.3695 39.1278C31.3695 39.1278 31.3695 39.0976 31.3846 39.0824C30.9331 40.2007 30.6622 40.8203 30.602 40.9714C30.5568 41.0772 30.4966 41.2283 30.4364 41.4247C30.3611 41.6212 30.316 41.7723 30.2708 41.863C30.1956 42.0443 30.1956 42.2559 30.2859 42.5128C30.4514 42.5883 30.5719 42.6337 30.617 42.6639C30.8428 42.7546 31.0384 42.7697 31.219 42.679C31.2341 42.679 31.2792 42.679 31.3244 42.679C31.3996 42.679 31.4598 42.6941 31.505 42.7546C31.5802 42.8603 31.5652 42.951 31.4598 43.0266C31.3394 43.1475 31.204 43.1928 31.0685 43.1475C31.0685 43.1475 31.0234 43.1323 30.9782 43.1021C30.9331 43.087 30.903 43.0719 30.8879 43.0568C30.7073 42.9963 30.617 42.8603 30.617 42.6488C30.4514 42.5732 30.3461 42.5279 30.2859 42.4977C30.2859 42.4977 30.2859 42.4977 30.2708 42.4977C29.8645 43.1626 29.5936 43.8577 29.4581 44.5982C29.428 44.7795 29.3528 45.2026 29.2022 45.8675C29.0668 46.4116 29.0517 46.8347 29.127 47.1369C29.127 47.1974 29.127 47.2578 29.0969 47.3334C28.9765 47.56 28.9765 47.8472 29.0969 48.1796C29.1721 48.3458 29.2324 48.4818 29.2775 48.5574C29.3979 48.7387 29.5484 49.0259 29.729 49.4188C29.7892 49.5245 29.8645 49.5245 29.9849 49.3885C29.9849 49.3885 29.9999 49.3583 30.03 49.3583C30.03 49.3583 30.03 49.3281 30.0451 49.313C30.2257 49.313 30.331 49.313 30.3461 49.313C30.3912 49.313 30.4213 49.3432 30.4213 49.3734C30.4665 49.6908 30.6321 49.9023 30.9331 50.0232C31.219 50.1139 31.4297 50.2197 31.5802 50.3255C31.5802 50.3255 31.5802 50.3255 31.5953 50.3103C31.5652 50.0686 31.5501 49.8872 31.5953 49.7663H31.5652C31.5652 49.7663 31.5501 49.7361 31.5351 49.721H31.505L31.4749 49.6606C31.4749 49.6606 31.52 49.7059 31.5351 49.7361C31.5501 49.7361 31.5652 49.7361 31.5953 49.7663C31.5953 49.7663 31.5953 49.7663 31.5953 49.7814L31.7608 49.8117C31.9114 49.8419 31.9565 49.9174 31.8963 50.0535C31.8662 50.0837 31.7608 50.1895 31.6103 50.3255C31.6103 50.3255 31.6103 50.3406 31.6103 50.3557H31.5953C31.806 50.5672 31.9264 50.7033 31.9565 50.7486C31.9866 50.7486 32.0318 50.7637 32.0769 50.7788C32.393 50.7788 32.6187 50.7033 32.7692 50.5219C32.7692 50.4917 32.8144 50.4312 32.8746 50.3557C32.9197 50.2348 33.01 50.1895 33.1304 50.2046C33.1756 50.2046 33.281 50.2348 33.4465 50.2801C33.597 50.3103 33.7325 50.2801 33.8529 50.2197C34.2592 49.9628 34.5452 49.7512 34.7258 49.5548L34.6957 49.6001C35.1021 49.4792 35.4031 49.2374 35.6138 48.8747C35.674 48.769 35.7191 48.7085 35.7492 48.6934C35.8395 48.5725 35.96 48.497 36.1105 48.4818C36.3513 48.4516 36.4566 48.4214 36.4265 48.4365C36.5018 48.4214 36.562 48.3761 36.6071 48.3307C36.6071 48.3005 36.7125 48.1494 36.878 47.8623C36.9834 47.696 37.0887 47.5903 37.179 47.5449C37.4349 47.424 37.7961 47.1218 38.2476 46.6533C38.5788 46.3209 38.8497 45.9431 39.0303 45.5049C39.0002 45.5653 39.0453 45.4595 39.1657 45.1875C39.1958 45.0969 39.241 44.9608 39.3012 44.7946L39.4667 44.3866C39.5119 44.2808 39.542 44.1448 39.542 43.9635C39.542 43.7519 39.542 43.6008 39.5721 43.5252C39.5721 43.4648 39.6323 43.4044 39.7226 43.359C39.7978 43.3137 39.858 43.3137 39.9032 43.359C39.9484 43.3892 39.9634 43.4195 39.9785 43.4195C39.9785 43.4346 40.0086 43.4648 40.0537 43.5101C40.0989 43.5404 40.1139 43.5706 40.129 43.5706C40.1892 43.631 40.2644 43.6613 40.3397 43.631C40.445 43.5857 40.5203 43.5253 40.5504 43.4346C40.5504 43.3741 40.5805 43.2986 40.5955 43.2079C40.5955 43.1626 40.6106 42.9812 40.6407 42.6639C40.6557 42.3012 40.7611 41.9536 40.9718 41.6363C41.1072 41.4096 41.1975 41.2585 41.2427 41.1678C41.4685 40.7145 41.6039 40.3065 41.6641 39.9438C41.7093 39.6567 41.9049 39.5358 42.221 39.566C42.3414 39.5811 42.4166 39.5811 42.4467 39.5811C42.5521 39.5811 42.6424 39.5207 42.7177 39.43C42.7327 39.3847 42.7779 39.3242 42.823 39.2336C42.8682 39.1278 42.9133 39.022 42.9585 38.9162C43.1842 38.4478 43.3799 38.07 43.5755 37.7677C43.6658 37.6317 43.7411 37.5108 43.7862 37.4051L44.8548 35.637C44.9602 35.4557 45.1408 35.229 45.4117 34.9721C45.4569 34.9116 45.5171 34.8965 45.5923 34.9116C45.6676 34.9268 45.7278 34.9721 45.7428 35.0628C45.8331 35.2441 45.8482 35.4557 45.8181 35.6975C45.788 35.8939 45.7428 36.2264 45.6676 36.6646C45.6074 37.0877 45.5773 37.4051 45.5472 37.6166C45.5321 37.7526 45.4719 37.9944 45.3816 38.3722C45.3214 38.6895 45.2763 38.9313 45.2763 39.1278C45.2763 39.2184 45.2763 39.2789 45.2462 39.3242C45.2161 39.3847 45.0806 39.8682 44.8247 40.7901C44.5839 41.727 44.4635 42.1803 44.4786 42.1501C44.2528 42.9661 43.8766 44.5831 43.3197 47.0311C43.2143 47.424 43.0939 47.9227 42.9284 48.4818C42.8682 48.7387 42.7327 49.1165 42.522 49.6152C42.4618 49.7663 42.3715 49.9628 42.236 50.2046C42.1006 50.4615 42.0103 50.673 41.9501 50.7939C41.8447 51.0508 41.7394 51.3228 41.6641 51.5948C41.5889 51.8517 41.6039 52.0935 41.7243 52.3353C41.92 52.7735 42.1457 53.1513 42.3865 53.4536C42.7929 53.9674 43.2143 54.2998 43.6508 54.4509C43.8163 54.5114 43.997 54.5114 44.1926 54.4811C44.3732 54.4358 44.5087 54.33 44.614 54.1638C44.7344 53.9522 44.8398 53.7256 44.915 53.4687C44.9903 53.106 45.2161 52.2295 45.5923 50.8393C45.5622 50.9904 45.7278 50.3557 46.0589 48.9352C46.0589 48.8747 46.2244 48.2401 46.5254 47.0311C46.5706 46.8498 46.5405 46.6836 46.4502 46.5173C46.3448 46.2907 46.3147 46.0489 46.3448 45.7769C46.3147 46.0187 46.4351 45.4444 46.7061 44.0693C46.7211 43.9333 46.7964 43.8124 46.9168 43.7066C46.9469 43.6613 47.0673 43.5706 47.2479 43.4195C47.3532 43.3288 47.4285 43.2079 47.4736 43.0719C47.594 42.6488 47.6693 42.2861 47.7144 42.0141C47.88 41.2736 48.0155 40.5634 48.1509 39.8834C48.2111 39.6113 48.1058 39.3998 47.8349 39.2487H47.8951ZM31.7006 45.4746C31.7006 45.4746 31.6705 45.3689 31.6555 45.2782C31.6404 45.248 31.6404 45.2631 31.6103 45.2177H31.6404C31.6404 45.2177 31.6404 45.2329 31.6404 45.2782C31.6705 45.3235 31.7157 45.384 31.7307 45.384L31.6856 45.4746H31.7006ZM32.6338 46.2151C32.7391 46.2151 32.7542 46.2453 32.709 46.336C32.6789 46.3662 32.6639 46.3662 32.6187 46.3662C32.6187 46.3511 32.5435 46.3209 32.4833 46.2907C32.4833 46.2907 32.4833 46.2907 32.4682 46.2907V46.2604C32.4682 46.2604 32.4682 46.2604 32.4833 46.2756C32.5585 46.2302 32.6187 46.2 32.6338 46.2V46.2151ZM32.4532 47.1067C32.4532 47.1067 32.5284 47.1369 32.5435 47.152C32.5736 47.1974 32.5736 47.2276 32.5435 47.2578C32.4833 47.288 32.4231 47.2729 32.3779 47.2125C32.3478 47.1671 32.3027 47.1218 32.2425 47.0462C32.3629 47.0765 32.4381 47.0916 32.4532 47.1067ZM32.2575 49.993C32.2575 49.993 32.1823 49.993 32.1522 49.993C32.1221 49.993 32.092 49.993 32.0619 49.9628C32.0167 49.9023 32.0017 49.8268 32.0468 49.7512C32.107 49.6606 32.2124 49.585 32.393 49.5094C32.4833 49.4641 32.5435 49.4792 32.5585 49.5245C32.5886 49.5699 32.5886 49.6303 32.5585 49.7059C32.4983 49.8419 32.408 49.9326 32.2575 49.9779V49.993ZM32.8595 45.8675C32.8595 45.8675 32.7993 45.8978 32.7843 45.8675C32.7241 45.8071 32.7241 45.7467 32.8144 45.7315C32.8294 45.7315 32.8595 45.7467 32.9047 45.7769C32.8896 45.8373 32.8746 45.8675 32.8595 45.8675ZM33.7024 35.1534C33.5669 35.1232 33.5218 35.0325 33.597 34.8965C33.6723 34.7605 33.7475 34.7454 33.8378 34.8361C33.9131 34.8814 33.9432 34.9419 33.9432 35.0174L33.898 35.1081C33.898 35.1081 33.7776 35.1988 33.7024 35.1534ZM33.0251 48.1947C33.0251 48.1947 32.9197 48.1947 32.8595 48.1343V48.0285C32.8595 48.0285 32.995 47.9832 33.0552 48.0587C33.1154 48.1192 33.1154 48.1796 33.0251 48.1947ZM33.2207 44.8551C33.2207 44.8551 33.1304 44.8248 33.1154 44.7493C33.1003 44.6888 33.1154 44.6435 33.1455 44.6133C33.1906 44.5528 33.2509 44.5528 33.3261 44.5831C33.3863 44.6133 33.4014 44.6737 33.3863 44.7493C33.3562 44.8248 33.296 44.8551 33.2057 44.8551H33.2207ZM34.2442 33.6574C34.1689 33.7027 34.0937 33.7027 34.0485 33.6272C33.9883 33.5667 33.9432 33.5063 33.9432 33.476C33.9131 33.34 33.9281 33.1587 33.9733 32.9623C34.0034 32.8414 34.0786 32.7205 34.184 32.6147C34.3345 32.5089 34.4549 32.524 34.5452 32.6902C34.6506 32.8565 34.6807 33.0227 34.6205 33.1889C34.5452 33.3854 34.4248 33.5516 34.2442 33.6725V33.6574ZM33.4465 49.8872H33.3863L33.4465 49.857V49.8872ZM33.8679 45.5804L33.8378 45.4898C33.8529 45.4142 33.898 45.384 33.9582 45.4142C33.9883 45.4142 34.0034 45.4444 33.9883 45.5049C33.9883 45.5804 33.9432 45.6106 33.8679 45.5804ZM35.1021 33.7027C35.1021 33.7027 35.0569 33.5667 35.087 33.4912L35.1773 33.3098C35.1773 33.3098 35.2977 33.2192 35.373 33.2343C35.4332 33.2494 35.4783 33.2947 35.5084 33.3703C35.5837 33.5214 35.5385 33.6423 35.388 33.7481C35.2676 33.8236 35.1773 33.7934 35.1021 33.7027ZM34.1087 49.1921C34.1087 49.1921 34.0485 49.177 34.0485 49.1468V49.0712L34.1539 49.0561C34.2141 49.1165 34.2141 49.177 34.1238 49.1921H34.1087ZM34.9365 46.5022C34.9365 46.5022 34.9064 46.4569 34.9064 46.4116C34.9215 46.336 34.9817 46.3058 35.0419 46.3511L35.072 46.4418C35.0569 46.5173 34.9967 46.5476 34.9365 46.5022ZM35.0569 45.5653C35.0569 45.5653 34.9516 45.5351 34.8763 45.4898C34.8763 45.4898 34.8613 45.4898 34.8462 45.4746C34.6957 45.4293 34.6054 45.3991 34.5904 45.384C34.5301 45.3689 34.4699 45.3235 34.4248 45.2631C34.3796 45.2026 34.3796 45.1573 34.4549 45.1271C34.5 45.0969 34.5151 45.112 34.5301 45.1422C34.5904 45.1724 34.6957 45.2933 34.8462 45.4746C34.8462 45.4746 34.8462 45.4746 34.8613 45.4746C34.8613 45.4746 34.8763 45.4746 34.8914 45.4746L34.9365 45.3991C34.9967 45.2933 35.0118 45.2631 34.9817 45.3084C35.0268 45.2329 35.1021 45.2177 35.1773 45.2631C35.2375 45.2933 35.2526 45.3538 35.2375 45.4293C35.2074 45.5049 35.1472 45.5351 35.087 45.5351L35.0569 45.5653ZM35.4031 44.976L35.3429 44.9306L35.388 44.8702L35.4482 44.9155L35.4031 44.976ZM35.7492 46.2604C35.6288 46.2756 35.5686 46.2151 35.5686 46.064C35.5686 45.9129 35.6439 45.8524 35.7643 45.8827C35.8395 45.8978 35.8847 45.9431 35.8998 46.0187C35.8998 46.1698 35.8546 46.2453 35.7342 46.2604H35.7492ZM35.7041 49.4037L35.6439 49.3432C35.6439 49.2525 35.6589 49.2374 35.7342 49.2677C35.7793 49.2677 35.8094 49.2979 35.8245 49.313C35.8245 49.3885 35.7793 49.4339 35.7041 49.4037ZM38.0068 43.7217L38.0369 43.7821H37.9617L37.9918 43.7217H38.0068ZM36.276 48.7539C36.1406 48.7539 36.0804 48.7085 36.0954 48.5574L36.1556 48.497C36.3061 48.4365 36.3814 48.4818 36.3663 48.633C36.3663 48.7085 36.3212 48.7539 36.261 48.7539H36.276ZM37.9165 46.5325C37.9165 46.5325 37.8563 46.5022 37.5854 46.472L37.2393 46.3813C37.2393 46.3813 37.2543 46.3813 37.1489 46.336C36.9984 46.2756 36.9683 46.1849 37.0436 46.0489C37.0737 45.9884 37.1339 45.9582 37.2091 45.9733C37.5252 46.0036 37.751 46.1396 37.9165 46.3662C37.9466 46.3965 37.9466 46.4116 37.9466 46.4569C37.9466 46.5022 37.9466 46.5325 37.9165 46.5476V46.5325ZM38.2777 47.3031C38.2777 47.3031 38.2326 47.3183 38.2175 47.3031C38.2175 47.2729 38.2175 47.2427 38.2175 47.2276H38.2928V47.3031H38.2627H38.2777ZM38.5035 44.7644C38.5035 44.7644 38.4132 44.5831 38.3379 44.4471C38.3379 44.4319 38.3078 44.4319 38.3078 44.4168C38.2476 44.4168 38.1874 44.3866 38.1573 44.3715L38.2025 44.3111C38.2025 44.3111 38.2777 44.3715 38.3078 44.4168C38.3379 44.4168 38.3379 44.4168 38.368 44.4319C38.368 44.4622 38.3981 44.5226 38.4433 44.5982C38.4734 44.6586 38.5035 44.704 38.5336 44.7493H38.5035V44.7644ZM38.9249 45.5502C38.8346 45.5502 38.8045 45.52 38.8045 45.4444C38.8045 45.3689 38.8497 45.3235 38.94 45.3235C39.0152 45.3538 39.0303 45.4142 39.0002 45.4898C39.0002 45.52 38.9701 45.5351 38.94 45.5502H38.9249ZM39.2109 44.8702H39.1808L39.2109 44.84V44.8702ZM41.1524 37.7224L41.0922 37.662C41.0922 37.662 41.1373 37.6015 41.1825 37.6166C41.2879 37.6166 41.3029 37.662 41.2277 37.7224H41.1524ZM42.2059 37.3446L42.1156 37.2993C42.1608 37.2086 42.2059 37.2086 42.2511 37.2842L42.2059 37.3446ZM42.6575 36.1206C42.6575 36.1206 42.5672 36.2264 42.4768 36.2264C42.3113 36.181 42.221 36.0904 42.221 35.9392C42.221 35.9241 42.221 35.8486 42.2511 35.7277C42.221 35.6068 42.2059 35.5312 42.2059 35.5161C42.1758 35.3197 42.2511 35.2592 42.4618 35.3046C42.5973 35.3348 42.6725 35.4103 42.6876 35.5161C42.6876 35.8486 42.6725 36.0601 42.6575 36.1357V36.1206ZM44.1324 35.9392C44.0722 36.045 43.9518 36.1055 43.7712 36.1508C43.6508 36.1659 43.5605 36.1055 43.5153 35.9846C43.4702 35.7881 43.4551 35.6068 43.4702 35.4708C43.4702 35.3499 43.5605 35.2592 43.6959 35.1988C43.8163 35.1232 43.9368 35.1232 44.0572 35.1685C44.1324 35.2592 44.1776 35.3046 44.1926 35.3046C44.2378 35.5161 44.2077 35.7277 44.1324 35.9392ZM46.405 25.7994C46.405 25.7994 46.3599 25.7843 46.3147 25.754L46.3599 25.6936L46.4502 25.7389L46.405 25.7994ZM46.992 38.0246L47.0522 38.07L46.9619 38.1002V38.0246H46.992ZM48.2262 38.9767C48.2262 38.9767 48.0606 39.0824 47.9252 39.0673C47.7144 39.0673 47.579 39.1731 47.5037 39.3393C47.3231 39.6869 47.0823 39.9891 46.7362 40.246C47.1425 40.2763 47.3833 40.3065 47.4887 40.3518C47.5037 40.3518 47.5338 40.3518 47.5489 40.3518C47.5639 40.2914 47.594 40.246 47.6392 40.246C47.7295 40.246 47.7596 40.2763 47.7596 40.3518C47.7596 40.3669 47.7295 40.382 47.6994 40.4123C47.6392 40.4123 47.579 40.4123 47.5489 40.3518C47.5489 40.3518 47.5489 40.3518 47.5338 40.3669C47.5338 40.3669 47.5037 40.3669 47.4887 40.3669C47.3984 40.4425 47.3081 40.4878 47.1877 40.4425C47.1576 40.4425 47.0071 40.382 46.7362 40.2763C46.676 40.0798 46.6459 39.9589 46.6459 39.9438C46.6158 39.8229 46.6158 39.7171 46.676 39.6416C46.7964 39.5207 46.9017 39.294 46.992 38.9464C46.992 38.9162 47.0522 38.8255 47.1425 38.6744C47.2178 38.5384 47.293 38.4931 47.4134 38.5233C47.7596 38.6442 48.0305 38.75 48.2262 38.8104C48.2713 38.8104 48.3014 38.8407 48.3014 38.886C48.3014 38.9162 48.2713 38.9616 48.2412 38.9918L48.2262 38.9767Z" fill="black"/>
<path d="M26.1018 5.26261C25.9513 4.82437 25.6352 4.37102 25.1536 3.90257C24.6118 3.35855 24.0549 2.95054 23.4981 2.70875C23.2121 2.58786 22.3843 2.14962 20.9997 1.40915C20.1869 0.986031 19.2839 0.834915 18.3056 0.940696C18.2003 0.940696 18.0648 0.955807 17.9294 0.970919C16.9812 1.12203 15.8975 0.955807 14.6483 0.457125C14.5881 0.426902 14.4677 0.381567 14.3022 0.30601C14.1517 0.230452 14.0463 0.185117 13.956 0.170005C13.8356 0.124671 13.67 0.0793358 13.4443 0.0340011C13.2787 -0.0113337 13.1433 -0.0113337 13.068 0.0340011C12.466 0.170005 11.9242 0.290898 11.4576 0.411791C11.3523 0.442014 11.262 0.532683 11.1867 0.683799C11.0362 0.940696 10.9459 1.16737 10.9007 1.3336C10.5696 2.45185 10.2686 3.67589 10.0429 4.9906C9.9074 5.85196 9.56124 8.05825 9.01942 11.6246C8.88396 12.4557 8.70335 13.6344 8.4776 15.1758C8.26689 16.8079 8.10133 17.9714 8.02608 18.6817C7.90567 19.4222 7.90567 19.9813 8.02608 20.3289C8.05618 20.4649 8.05618 20.7218 7.99598 21.0844C7.96588 21.3413 7.81537 22.2631 7.57456 23.865H7.92073C8.07123 23.9556 8.10133 24.0614 8.02608 24.2125C7.98093 24.273 7.93578 24.3032 7.90567 24.3032C7.77022 24.3939 7.66487 24.3788 7.60466 24.2428C7.51436 24.137 7.48426 24.0312 7.54446 23.9103C7.1983 25.0286 7.03274 25.769 7.03274 26.1015C7.03274 26.2073 7.00264 26.3886 6.89729 26.6153C6.74678 26.9628 6.59628 27.3104 6.43072 27.658C6.23506 28.0962 6.12971 28.4589 6.08456 28.746C6.0394 29.3202 5.90395 29.8491 5.64809 30.3478C5.52769 30.635 5.45243 31.0127 5.43738 31.4661C5.40728 31.8892 5.39223 32.2066 5.37718 32.403C5.37718 33.083 5.25677 33.6875 5.04607 34.2013C4.91061 34.5186 4.85041 34.836 4.91061 35.1382C4.91061 35.244 4.86546 35.3498 4.76011 35.4404C4.47415 35.7124 4.24839 36.1507 4.09788 36.7551C3.87212 37.5561 3.76677 37.9943 3.76677 38.0396C3.40556 39.7019 2.81858 41.9989 2.00585 44.9305C1.78009 45.7163 1.64464 46.2452 1.56939 46.5323C1.41888 47.5901 1.20817 48.3759 0.952313 48.9049C0.952313 49.1013 0.831909 49.4942 0.530897 50.0836C0.244937 50.6729 0.0643299 51.3378 0.0041276 52.1085C-0.0259735 52.5619 0.109482 52.9548 0.380392 53.3023C0.87706 53.9672 1.46403 54.617 2.12626 55.2517C2.15636 55.2819 2.26171 55.3575 2.44232 55.4784C2.32191 55.4028 2.71323 55.5691 3.61626 55.9922C3.58616 55.962 3.84202 55.962 4.36879 55.9922C4.56445 55.9922 4.74506 56.0526 4.92566 56.1131C4.98587 56.1433 5.09122 56.2037 5.22667 56.3095C5.37718 56.3851 5.48253 56.4304 5.57284 56.4606C6.44577 56.8687 7.2886 57.0198 8.08628 56.914C9.77194 56.6118 11.2469 55.9771 12.4961 54.9797L13.1734 54.4206C13.1734 54.4206 13.1282 54.4055 13.1282 54.3752C13.053 54.3752 12.9777 54.4206 12.9326 54.3752C12.8724 54.2997 12.8874 54.2544 12.9627 54.2392C13.0379 54.2392 13.0831 54.3148 13.1282 54.3904C13.1583 54.3904 13.1734 54.4206 13.2185 54.3904L13.1734 54.4357C14.1366 53.6952 14.8741 53.0454 15.431 52.4863C15.8524 52.0632 16.1835 51.5343 16.4544 50.9298C16.4995 50.8391 16.4995 50.7334 16.4243 50.5974C16.4243 50.5671 16.349 50.4009 16.1835 50.1138C15.8825 50.1289 15.7019 50.144 15.6868 50.144C15.4611 50.144 15.3256 50.0533 15.2955 49.8871C15.1901 49.6907 15.2353 49.5395 15.431 49.4035C15.8524 49.0862 16.2286 48.9049 16.5296 48.8595C16.6049 48.6177 16.6651 48.4515 16.6952 48.4213C16.7253 48.3608 16.7705 48.3306 16.8608 48.3306C16.9962 48.3306 17.0564 48.4062 17.0414 48.5724C17.0113 48.5724 16.9812 48.6782 16.936 48.8746H16.8909L16.921 49.2071C16.936 49.2071 16.9511 49.2373 16.9661 49.2524C17.2822 49.3733 17.4477 49.4186 17.4778 49.4186C17.6434 49.464 17.8089 49.4186 17.9745 49.2524C18.1401 49.1164 18.2906 48.9351 18.3959 48.7537C18.4862 48.5724 18.5163 48.4062 18.4862 48.2399C18.3357 47.7715 18.0949 47.4995 17.7487 47.4088C17.4628 47.3181 17.1919 47.3484 16.9511 47.5146C16.8006 47.1217 16.8006 46.7288 16.8307 46.3208C16.8006 46.2603 16.8006 46.1999 16.7705 46.1243V46.0639C16.3942 45.9279 16.1534 45.7616 16.048 45.5803C15.9577 45.4141 15.9878 45.3083 16.1534 45.2781C16.2587 45.2478 16.4393 45.2025 16.6952 45.1572C17.0263 45.127 17.1317 45.2781 16.9812 45.5954L16.7855 46.0639C16.7855 46.0639 16.7855 46.0639 16.8006 46.0639C16.8006 46.1394 16.8307 46.215 16.8307 46.3057C16.9812 46.6834 17.0414 47.0612 16.9511 47.4541C17.2521 47.4239 17.523 47.4088 17.7487 47.3937C17.7788 47.031 17.7939 46.8043 17.7788 46.7137C17.7788 46.4719 17.9294 46.2452 18.2003 46.0336L18.3357 45.7012C18.426 45.4443 18.6217 45.3083 18.8926 45.2781H19.2689C19.2689 45.263 19.2689 45.263 19.2689 45.2478H19.314C19.314 45.1572 19.3441 45.0665 19.4344 45.1118C19.4645 45.1421 19.4495 45.1874 19.4043 45.2478H19.314C19.314 45.2478 19.2839 45.2478 19.2839 45.2932C19.3592 45.5954 19.3893 45.7768 19.4043 45.7919C19.4796 46.0034 19.5849 46.1848 19.7204 46.3661C20.0816 45.7465 20.2622 45.3687 20.2923 45.263C20.3073 45.1421 20.3826 45.0514 20.518 44.991C20.8943 44.8549 21.1351 44.5829 21.2104 44.1749C21.2254 44.0843 21.2555 44.0238 21.2856 43.9936C21.391 43.9029 21.4813 43.8425 21.5716 43.8122C21.9178 43.646 22.0532 43.374 21.978 42.9811V42.8149C21.9178 42.558 22.0231 42.4371 22.279 42.4522C22.7606 42.4975 23.1218 42.3162 23.3777 41.9082C23.5733 41.5304 23.6787 41.2886 23.7088 41.2131C23.769 40.8655 23.9797 40.3668 24.3559 39.6868C24.7623 39.0068 25.0934 38.4174 25.3643 37.9187C25.5901 37.5409 25.7105 37.1783 25.7406 36.8307C25.7556 36.7098 25.7857 36.5436 25.8309 36.3169C25.9814 35.7124 26.0115 35.0929 25.9062 34.4431C25.8459 33.9142 25.8008 33.2795 25.8008 32.5541C25.8008 31.7079 25.7255 30.8465 25.575 29.9398C25.4697 29.2749 25.2289 28.6402 24.8526 28.0509C24.7172 27.8393 24.5516 27.5673 24.3258 27.25C24.07 26.8419 23.9195 26.585 23.8442 26.4793C23.468 25.8899 22.9863 25.3912 22.4295 24.9832C22.1586 24.8019 21.7221 24.4694 21.09 23.9859C20.3073 23.3361 19.6 22.8223 18.9528 22.4596C18.9227 22.4294 18.7722 22.3236 18.5013 22.112C18.2906 21.9609 18.2755 21.7947 18.4561 21.5982C18.7722 21.3262 18.9227 21.2053 18.8926 21.2355C19.3742 20.9182 20.1418 20.2835 21.1953 19.3315C21.5866 18.9386 21.9479 18.5004 22.279 18.0319C22.4897 17.7599 22.7455 17.3821 23.0766 16.9136C23.483 16.3545 23.7539 15.9616 23.8743 15.75C24.6419 14.6469 25.1085 13.9064 25.3041 13.5286C25.3041 13.5286 25.3041 13.5589 25.2891 13.574L25.1988 13.5438H25.3041C25.9513 12.2593 26.2072 11.7153 26.0868 11.9117C26.2373 11.6699 26.4329 11.277 26.6737 10.733C26.9747 9.9472 27.0951 9.22184 27.0199 8.55693C26.8995 7.34801 26.6737 6.45642 26.3125 5.86707C26.2824 5.7764 26.2072 5.61017 26.1018 5.33817V5.26261ZM1.19312 52.7281C1.19312 52.7281 1.19312 52.6827 1.19312 52.6525C1.19312 52.6223 1.19312 52.5921 1.16302 52.5619H1.20817C1.20817 52.5619 1.20817 52.6223 1.19312 52.6525C1.20817 52.6979 1.25332 52.7432 1.22322 52.8036L1.17807 52.7281H1.19312ZM3.57111 52.9396C3.2099 52.713 3.19485 52.4863 3.52596 52.2596L3.67647 52.1689L3.63131 52.1236C3.63131 52.1236 3.66142 52.0934 3.69152 52.0632C3.70657 51.9574 3.73667 51.8365 3.73667 51.8214C3.75172 51.7005 3.78182 51.6552 3.81192 51.6552C4.00758 51.6098 4.03768 51.6854 3.90222 51.8516C3.88717 51.8516 3.78182 51.9574 3.69152 52.0632C3.69152 52.1085 3.69152 52.1085 3.67647 52.1689L4.00758 52.5316C4.06778 52.6374 4.08283 52.7583 4.03768 52.8641C3.93233 53.0454 3.78182 53.0605 3.58616 52.9396H3.57111ZM4.18819 41.3491V41.2282L4.35374 41.3037L4.18819 41.3642V41.3491ZM22.3241 35.5613L22.3542 35.516V35.6067L22.3241 35.5613ZM24.7021 35.8938C24.5667 35.9391 24.4613 35.8938 24.4011 35.7427C24.4011 35.6822 24.371 35.6218 24.3409 35.5311C24.3108 35.38 24.3559 35.2289 24.4613 35.0626C24.4462 35.0475 24.4613 35.0324 24.4312 35.0173C24.4312 35.0173 24.4763 35.0173 24.4914 35.0022L24.5817 34.9266C24.5817 34.9266 24.5215 34.9417 24.5817 34.972C24.5366 34.972 24.5065 34.9871 24.4763 35.0022H24.4613C24.4613 35.0022 24.4613 35.0475 24.4613 35.0626C24.6419 35.2591 24.7774 35.4253 24.8075 35.5764C24.8526 35.7427 24.8075 35.8484 24.7021 35.8787V35.8938ZM23.182 32.8261C23.2723 32.5692 23.4228 32.4937 23.6335 32.6297C23.9947 32.8866 24.371 33.0377 24.7623 33.0981C24.8526 33.0981 24.8978 33.1284 24.8978 33.219C24.9279 33.355 24.8978 33.4608 24.7924 33.5213C24.7623 33.5213 24.6419 33.5666 24.4161 33.627C23.8442 33.5817 23.5583 33.5666 23.5282 33.5666C23.167 33.5364 23.0465 33.2946 23.182 32.8261ZM23.167 38.493C23.1519 38.629 23.0766 38.6894 22.9261 38.6743C22.7305 38.6139 22.6101 38.5685 22.58 38.5836C22.4596 38.5081 22.4445 38.4174 22.5198 38.2965C22.5348 38.2361 22.58 38.2059 22.6402 38.2059C22.7756 38.221 22.896 38.2361 22.9863 38.2663C23.1368 38.3116 23.1971 38.3872 23.167 38.5081V38.493ZM22.7305 36.5889L22.7004 36.7551L22.58 36.7249C22.58 36.7249 22.5047 36.6645 22.5348 36.604C22.58 36.4529 22.6552 36.4529 22.7455 36.5889H22.7305ZM22.0081 33.4759C22.3392 33.4004 22.5198 33.5061 22.5348 33.8084C22.5348 33.8991 22.5198 33.9595 22.4596 33.9746C22.294 34.0955 22.1435 34.0804 21.993 33.9293C21.8726 33.8537 21.8425 33.7479 21.8877 33.5968L22.0081 33.4608V33.4759ZM21.7672 39.4903C21.8425 39.5357 21.8726 39.6415 21.9027 39.7775C21.9027 39.7775 21.9027 39.7775 21.9178 39.7775V39.8228C21.9178 39.8228 21.9178 39.7926 21.9027 39.7775C21.7522 39.7775 21.6318 39.7623 21.5866 39.7623C21.4963 39.7472 21.4662 39.6868 21.4963 39.5961C21.5415 39.445 21.6318 39.4148 21.7823 39.4903H21.7672ZM12.3606 13.5135C12.3606 13.5135 12.4509 13.574 12.4509 13.6344C12.4359 13.8007 12.3606 13.8309 12.2553 13.7402V13.6193C12.2553 13.6193 12.3305 13.5286 12.3606 13.5286V13.5135ZM11.7436 16.5661L11.578 16.6567V16.4905L11.7436 16.5661ZM10.7502 19.1653C10.9158 19.0897 10.991 19.1502 10.976 19.3164C10.976 19.407 10.9609 19.4373 10.9007 19.4524C10.7653 19.4977 10.675 19.4524 10.6449 19.3013L10.7653 19.1653H10.7502ZM9.29033 24.4392C9.20002 24.3334 9.20002 24.2276 9.30538 24.137C9.36558 24.1067 9.41073 24.0765 9.45588 24.0463C9.56124 23.9859 9.66659 24.001 9.75689 24.1067C9.8472 24.2125 9.8472 24.3183 9.74184 24.4392C9.66659 24.5299 9.56124 24.5601 9.45588 24.545C9.33548 24.4996 9.29033 24.4543 9.29033 24.4392ZM9.41073 25.4063L9.38063 25.497L9.33548 25.3761L9.42578 25.4063H9.41073ZM9.33548 14.8736C9.63649 14.8434 9.74184 14.9642 9.65154 15.2363C9.57629 15.3571 9.47093 15.4025 9.32043 15.3874C9.20002 15.3723 9.13982 15.2816 9.13982 15.1456C9.13982 15.0096 9.18497 14.9189 9.33548 14.8736ZM9.29033 15.7652C9.56124 15.7652 9.66659 15.9012 9.56124 16.1278C9.50103 16.3243 9.36558 16.4301 9.16992 16.4603C8.91406 16.4754 8.82376 16.3394 8.88396 16.0523C8.95921 15.8709 9.09467 15.7803 9.29033 15.7652ZM9.26023 18.3039L9.16992 18.2737L9.20002 18.183L9.24517 18.3039H9.26023ZM8.91406 26.2828C8.98932 26.2526 9.04952 26.2375 9.07962 26.2828C9.23012 26.3281 9.29033 26.4339 9.27528 26.6002C9.21507 26.9175 9.06457 27.1442 8.82376 27.2651C8.6883 27.3557 8.58295 27.3255 8.52275 27.1593C8.40234 26.7664 8.5378 26.4793 8.91406 26.2828ZM6.52102 35.4707C6.62638 35.38 6.73173 35.3498 6.85214 35.4102C6.91234 35.4404 6.95749 35.4858 6.98759 35.5764L7.04779 35.7427C7.04779 36.196 6.86719 36.6494 6.47587 37.1027C6.44577 37.1329 6.40062 37.1632 6.31031 37.1934C6.25011 37.2236 6.20496 37.2387 6.14476 37.2538C6.02435 37.2387 5.9491 37.1632 5.919 37.012C5.919 36.9214 5.919 36.8609 5.919 36.8005C6.09961 36.1658 6.29526 35.7276 6.53607 35.4858L6.52102 35.4707ZM5.34708 40.6237C5.48253 40.533 5.57284 40.533 5.64809 40.6388C5.67819 40.6993 5.66314 40.7597 5.61799 40.805C5.54274 40.9259 5.45243 40.941 5.33203 40.8655C5.24172 40.7899 5.24172 40.6993 5.36213 40.6086L5.34708 40.6237ZM4.95576 43.782C4.71495 43.918 4.5795 43.8576 4.56445 43.6007C4.56445 43.4345 4.56445 43.3136 4.5795 43.2682C4.59455 43.1473 4.6698 42.9962 4.79021 42.7847C4.83536 42.6638 4.94071 42.6335 5.07617 42.6789C5.19657 42.694 5.27183 42.7695 5.30193 42.8753C5.33203 42.9056 5.34708 42.966 5.36213 43.0869C5.33203 43.4345 5.19657 43.6611 4.95576 43.7971V43.782ZM5.9792 53.1814C5.60294 53.0454 5.39223 52.7734 5.33203 52.3805C5.33203 52.2445 5.37718 52.1387 5.48253 52.0783C5.7986 51.8516 6.05446 51.8969 6.25011 52.1841C6.40062 52.3956 6.47587 52.6223 6.46082 52.849C6.49092 53.2419 6.32537 53.3477 5.9792 53.1814ZM7.86052 55.7051L7.98093 55.6597L8.02608 55.7806C7.89062 55.9317 7.83042 55.9015 7.86052 55.7051ZM8.70335 55.2668C8.70335 55.2668 8.6582 55.161 8.70335 55.1006C8.77861 54.9797 8.86891 54.9797 8.95921 55.0855L9.00437 55.2064C8.92911 55.3273 8.83881 55.3424 8.7184 55.2668H8.70335ZM11.6533 53.6801C11.6533 53.8161 11.6232 53.9219 11.5028 53.9823C11.4426 54.0126 11.3974 54.0277 11.3372 54.0277C11.1867 53.9823 11.1415 53.9068 11.1867 53.7859C11.2017 53.6952 11.2469 53.6499 11.3071 53.6499C11.3372 53.6499 11.4576 53.6499 11.6834 53.6499H11.6382L11.6533 53.6801ZM18.7421 44.5829C18.6217 44.5678 18.5615 44.4772 18.5615 44.3412C18.5615 44.2354 18.6217 44.1447 18.7571 44.0691L18.9227 44.0994C19.0581 44.1145 19.1334 44.2052 19.1484 44.3412C19.1635 44.5678 19.028 44.6434 18.7421 44.5829ZM19.3592 41.0619C19.3592 41.0619 19.2689 41.0317 19.2689 40.941C19.2689 40.8353 19.3291 40.7748 19.4645 40.805L19.6 40.9259C19.5849 41.0619 19.5097 41.1224 19.3592 41.0619ZM20.8943 42.8904H20.8642C20.518 42.8602 20.3073 42.8602 20.2321 42.8904L20.1869 42.8451C20.4879 42.8753 20.7288 42.8904 20.8943 42.8753V42.8904ZM20.0214 27.7033C20.1568 28.0358 20.3073 28.474 20.4578 29.018C20.6836 29.7434 20.8191 30.1967 20.8943 30.3781C21.0749 30.9221 21.1502 31.6625 21.105 32.5995C21.105 32.6901 21.0749 32.8564 21.0147 33.1133C20.9846 33.1737 20.9545 33.2644 20.9094 33.3701C20.8642 33.491 20.8191 33.5968 20.804 33.6724C20.7137 34.0199 20.7288 34.3222 20.8341 34.564C20.9696 34.8662 20.8642 35.0475 20.5331 35.0929C20.3073 35.1382 20.1267 35.2742 19.9762 35.516C19.8709 35.6973 19.8257 35.8787 19.8107 36.0751C19.8107 36.0751 19.8408 36.0449 19.8558 36.0298L19.8257 36.1205V36.0902C19.1484 36.8156 18.6969 37.7072 18.5013 38.7952C18.3508 39.4752 18.2906 39.853 18.2906 39.9135C18.1852 40.7446 17.9143 41.4851 17.4778 42.1349C17.523 42.0442 17.2822 42.422 16.7554 43.2531C16.635 43.4647 16.635 43.6914 16.7554 43.9634C16.8758 44.1749 16.8307 44.326 16.5748 44.4016C16.4393 44.4469 16.3189 44.462 16.2437 44.462C15.9878 44.4772 15.8072 44.5527 15.7169 44.6736C14.6935 45.8372 13.941 46.8043 13.4744 47.5599C13.4744 47.5599 13.4744 47.5599 13.4894 47.5448L13.4443 47.5901C13.4443 47.5901 13.4443 47.575 13.4593 47.5599C13.3239 47.711 13.1433 47.8924 12.8874 48.1342C12.6316 48.4364 12.4359 48.648 12.3004 48.7688C11.4727 49.6453 10.7352 50.3102 10.088 50.7485C9.07962 51.4738 8.04113 51.8667 6.97254 51.9121C6.74678 51.9121 6.53607 51.7761 6.35547 51.5343C6.26516 51.3983 6.25011 51.2925 6.32536 51.2018C6.38557 51.1716 6.61133 50.9751 7.03274 50.5974L6.95749 50.6427L6.98759 50.5974C7.33375 49.2373 7.54446 47.7715 7.63476 46.1999C7.66487 45.7768 7.71002 45.4594 7.78527 45.263C8.10133 44.6283 8.40234 43.4798 8.67325 41.8629C8.83881 41.0015 9.10972 39.2334 9.50103 36.5134L9.41073 35.9693C9.41073 35.9693 9.41073 36.0147 9.45588 36.0147C9.66659 35.5462 9.8171 35.0022 9.8773 34.3826C9.89235 34.2617 9.89235 34.1106 9.8773 33.9142C9.8773 33.6875 9.9074 33.5364 9.92245 33.4457C9.9676 32.5692 10.0579 31.9043 10.1934 31.4359C10.3288 30.9976 10.4492 30.3932 10.5546 29.5923C10.5847 29.2749 10.675 28.7007 10.8104 27.8393C10.9308 27.0988 10.991 26.5095 11.0211 26.0864C11.0362 25.9957 11.1114 25.6784 11.2017 25.1343C11.262 24.7414 11.4576 24.3636 11.7887 24.0312C11.9543 23.8801 12.1198 23.8045 12.3155 23.8196C12.8874 23.8952 13.4894 24.0463 14.1216 24.273C14.0614 24.2428 15.2955 24.681 17.7939 25.5575C17.9595 25.633 18.0799 25.6784 18.1401 25.7086C19.028 26.0713 19.6451 26.7211 19.9612 27.6882L20.0214 27.7033ZM15.9728 22.5049L16.048 22.4143V22.4596L15.9728 22.5049ZM17.8089 18.8933C17.8089 18.8933 17.8089 18.8026 17.8391 18.7724C17.9444 18.6817 18.0347 18.6968 18.0949 18.8328C18.125 18.8933 18.125 18.9386 18.0949 18.999L17.9745 19.0897C17.8692 19.0897 17.8089 19.0293 17.7939 18.8933H17.8089ZM20.3976 14.6016C20.3976 14.6016 20.3525 14.6016 20.3224 14.6016C20.1719 14.798 20.0364 14.9491 19.9612 14.9794C19.901 14.9794 19.8558 14.9794 19.7956 14.9491C19.6451 14.9038 19.615 14.8131 19.6903 14.662C19.7204 14.6318 19.7655 14.6016 19.8558 14.5713C19.916 14.5713 19.9612 14.5713 20.0214 14.6016C20.0364 14.6016 20.1719 14.6016 20.3224 14.6016C20.3374 14.5865 20.3374 14.5865 20.3525 14.5713C20.4879 14.5713 20.518 14.526 20.4277 14.4807C20.3826 14.6016 20.3675 14.6469 20.3976 14.6167V14.6016ZM21.3759 7.34801C21.0147 8.9045 20.4879 10.2343 19.8257 11.3526C19.3592 12.1535 18.9076 12.758 18.4862 13.1811C18.2755 13.3926 18.0046 13.6798 17.6584 14.0424C17.2671 14.4656 16.9962 14.7678 16.8457 14.9491C16.3791 15.4327 15.9728 15.8407 15.6266 16.1429C15.3407 16.415 15.0547 16.6567 14.7537 16.8381C14.3774 17.095 14.1065 17.1856 13.941 17.1101C13.7603 17.0345 13.655 16.7625 13.6249 16.2941C13.655 16.2336 13.655 16.1732 13.655 16.1278C13.956 14.1029 14.2119 12.8184 14.4226 12.2593C14.6333 11.005 15.0697 9.70541 15.732 8.36048C15.6417 8.55693 15.732 8.33026 16.0179 7.66535C16.1684 7.34801 16.4092 7.076 16.7554 6.84932C17.1768 6.5622 17.5079 6.39598 17.7337 6.35064C17.8993 6.35064 18.3056 6.18441 18.9678 5.88218C19.1033 5.82174 19.299 5.70084 19.5398 5.54973C19.8107 5.41372 20.0063 5.32305 20.1568 5.2475C20.3525 5.15683 20.5632 5.17194 20.8341 5.32305C21.09 5.44395 21.2706 5.62529 21.3308 5.88218C21.3308 5.91241 21.3759 6.10886 21.4512 6.47153C21.406 7.03066 21.391 7.33289 21.391 7.36312L21.3759 7.34801ZM23.3325 4.15946H23.4228V4.18969L23.3325 4.15946Z" fill="black"/>
<path d="M78.0414 22.5503C78.2521 22.4445 78.3725 22.2934 78.4176 22.1121C78.6133 21.3867 78.7939 20.8427 78.9293 20.48C79.0798 20.1173 79.1852 19.6791 79.2454 19.1653C79.2906 18.7422 79.411 18.1528 79.6066 17.3821C79.712 16.9288 79.7872 16.6568 79.7872 16.551C79.8775 15.8861 80.013 15.327 80.1785 14.9038C80.1785 14.9189 80.2387 14.6923 80.3742 14.2087C80.4645 13.8762 80.5096 13.6798 80.5247 13.6193C80.7204 13.1056 80.8558 12.5918 80.901 12.078C80.916 11.8362 81.0063 11.5642 81.1418 11.2619C81.1719 11.1864 81.2321 11.0806 81.3374 10.9446C81.503 10.6726 81.6083 10.3704 81.6836 10.0379C81.7889 9.47878 81.9244 9.01032 82.0749 8.63253C82.0749 8.69297 82.1652 8.42097 82.406 7.83161C82.4361 7.75606 82.6167 7.30271 82.9629 6.47157C83.0532 6.21467 83.0532 5.92755 82.9629 5.65555C82.9328 5.54977 82.8726 5.4591 82.7522 5.36843C82.6167 5.26264 82.4662 5.23242 82.2706 5.23242C82.0599 5.24753 81.8492 5.29287 81.6836 5.38354C81.3826 5.51954 81.0966 5.65555 80.8107 5.80666C80.3591 6.04845 80.0732 6.19956 79.9678 6.27512C79.6819 6.44135 79.3959 6.57735 79.0949 6.69825C78.9895 6.72847 78.8541 6.81914 78.7036 6.97025C78.4327 7.22715 78.2822 7.51427 78.2671 7.83161C78.2521 8.05829 78.222 8.36052 78.1768 8.73831C78.1166 9.20677 78.0865 9.49389 78.0715 9.62989C78.0263 10.053 77.936 10.5366 77.8005 11.0806C77.5898 11.8664 77.4393 12.4558 77.3791 12.8638C77.1233 14.1483 76.8072 15.3572 76.4159 16.5057C76.16 17.2612 75.9945 17.8959 75.9343 18.4097C75.9343 18.5608 75.8891 18.7573 75.8139 18.9991C75.6032 19.6186 75.1968 21.2356 74.5797 23.8499C74.4744 24.3183 74.4292 24.681 74.4443 24.9379C74.4443 25.1797 74.3841 25.4215 74.2787 25.6633C74.1132 26.0411 73.9326 26.5397 73.767 27.1593C73.7068 27.3407 73.6014 27.6127 73.466 27.9451C73.2703 28.4287 73.18 28.7914 73.2101 29.0029C73.2101 29.0332 73.2101 29.0785 73.1951 29.1087C73.0295 29.4109 72.9091 29.6678 72.8188 29.8794C72.8038 29.9096 72.7586 29.9701 72.6683 30.0607C72.4425 30.2119 72.2619 30.2874 72.1114 30.3176C71.8556 30.3479 71.4793 30.4688 70.9525 30.6501C70.8622 30.6954 69.1164 31.1186 68.1381 31.3755C68.3337 30.5292 68.4391 30.0607 68.4541 29.9852C68.4993 29.7736 68.5595 29.5016 68.6348 29.1541C68.71 28.7612 68.7702 28.4891 68.8154 28.3229C68.8304 28.1265 68.8756 27.9753 68.9508 27.8696C69.2067 27.4616 69.3271 26.9175 69.297 26.2224C69.297 26.162 69.312 26.1166 69.312 26.0864C69.312 25.9202 69.3572 25.7691 69.4174 25.6179C69.4324 25.6028 69.4625 25.5726 69.4926 25.5273C69.4926 25.4668 69.5227 25.4366 69.5378 25.4215C69.6431 25.1948 69.613 25.0135 69.4174 24.8775C69.2669 24.8019 69.2518 24.6961 69.4023 24.5752C69.5077 24.4695 69.5679 24.4241 69.5829 24.4241C69.7936 24.3183 69.9141 24.1672 69.9592 23.9859C70.1549 23.2605 70.3355 22.7165 70.4709 22.3538C70.6214 21.9912 70.7268 21.5529 70.787 21.0391C70.8321 20.616 70.9525 20.0267 71.1482 19.256C71.2536 18.8026 71.3288 18.5306 71.3288 18.4248C71.4191 17.7599 71.5546 17.2008 71.7201 16.7777C71.7201 16.7928 71.7803 16.5661 71.9158 16.0825C72.0061 15.7501 72.0512 15.5536 72.0663 15.4932C72.2619 14.9794 72.3974 14.4656 72.4425 13.9518C72.4576 13.71 72.5479 13.438 72.6834 13.1358C72.7135 13.0602 72.7737 12.9544 72.879 12.8184C73.0446 12.5464 73.1499 12.2442 73.2252 11.9117C73.3305 11.3526 73.466 10.8842 73.6165 10.5064C73.6165 10.5668 73.7068 10.2948 73.9476 9.70545C73.9777 9.62989 74.1583 9.17654 74.5045 8.34541C74.5948 8.08851 74.5948 7.80139 74.5045 7.52938C74.4744 7.4236 74.4142 7.33293 74.2938 7.24226C74.1583 7.13648 74.0078 7.10626 73.8121 7.10626C73.6014 7.12137 73.3907 7.1667 73.2252 7.25737C72.9242 7.39338 72.6382 7.52938 72.3522 7.6805C71.9007 7.92228 71.6148 8.0734 71.5094 8.14896C71.2234 8.31518 70.9375 8.45119 70.6365 8.57208C70.5311 8.6023 70.3957 8.69297 70.2452 8.84409C69.9743 9.10099 69.8237 9.38811 69.8087 9.70545C69.7936 9.93212 69.7635 10.2344 69.7184 10.6121C69.6582 11.0806 69.6281 11.3677 69.613 11.5037C69.5679 11.9269 69.4776 12.4104 69.3421 12.9544C69.1314 13.7402 68.9809 14.3296 68.9207 14.7376C68.6649 16.0221 68.3488 17.231 67.9575 18.3795C67.7016 19.1351 67.5361 19.7698 67.4759 20.2836C67.4759 20.4347 67.4307 20.6311 67.3555 20.8729C67.1447 21.4925 66.7384 23.1094 66.1213 25.7237C66.016 26.1922 65.9708 26.5549 65.9859 26.8118C65.9859 27.0535 65.9257 27.2953 65.8203 27.5371C65.6547 27.9149 65.4741 28.4136 65.3086 29.0332C65.2484 29.2145 65.143 29.4865 65.0076 29.819C64.8119 30.3025 64.7216 30.6652 64.7517 30.8768C64.7517 30.907 64.7517 30.9523 64.7367 30.9826C64.5711 31.2848 64.4507 31.5417 64.3604 31.7532C64.3453 31.7835 64.3002 31.8439 64.2099 31.9346C63.9841 32.0857 63.8035 32.1613 63.653 32.1915C63.3972 32.2217 63.0209 32.3426 62.4941 32.5239C62.3888 32.5693 61.9222 32.7053 61.0944 32.9319C61.1245 32.9168 61.0944 32.9017 60.959 32.9168C60.8687 32.9168 60.7784 32.8866 60.7031 32.7959C60.6279 32.7053 60.5977 32.6146 60.6278 32.5239C60.8386 31.6626 60.9439 30.9826 60.9439 30.4688C60.9439 30.3932 60.9439 30.3176 60.9891 30.2421C61.0794 30.0305 61.1396 29.7132 61.1697 29.2749C61.2148 28.6856 61.3051 28.1718 61.4406 27.7185C61.4707 27.6429 61.5008 27.4918 61.5459 27.25C61.877 25.1042 62.0727 23.8197 62.1028 23.3965C62.1781 22.8827 62.2684 22.3538 62.4038 21.84C62.5694 21.1298 62.7048 20.4498 62.7951 19.8C62.9456 18.8177 63.0209 18.2133 63.0209 18.0017C63.066 17.8657 63.0961 17.6995 63.1112 17.4728C63.1413 17.2008 63.1714 17.0043 63.1864 16.9137C63.2165 16.7474 63.2918 16.3092 63.4122 15.599C63.5477 14.9189 63.6229 14.4656 63.638 14.2691C63.638 14.1936 63.6681 14.0274 63.6831 13.7705C63.6831 13.4531 63.5477 13.302 63.2316 13.2869C62.9607 13.302 62.7951 13.3171 62.7349 13.3171C62.148 13.4531 61.7867 13.5589 61.6663 13.6496C61.5459 13.7251 61.3202 14.0122 60.9891 14.4656C60.9138 14.6016 60.8988 14.7527 60.9439 14.9341C61.0192 15.1154 61.0041 15.2665 60.9289 15.4025C60.8687 15.5385 60.8235 15.6443 60.7934 15.735C60.7633 15.8408 60.7182 16.0825 60.658 16.4301C60.6128 16.7323 60.5526 16.9741 60.4924 17.1555C60.4171 17.4426 60.3268 17.9564 60.2215 18.712C60.2064 18.9537 60.1462 19.1351 60.0409 19.2711C59.9807 19.392 59.9205 19.5431 59.8904 19.7546C59.8001 20.208 59.7399 20.4649 59.7098 20.5707C59.5593 20.9636 59.484 21.4018 59.484 21.8854C59.469 22.369 59.3937 22.8827 59.2733 23.4721C58.9572 25.0286 58.7315 25.9806 58.6412 26.3282C58.581 26.5851 58.5358 26.8269 58.4756 27.0535C58.3101 28.0358 58.2499 28.4287 58.295 28.2474C58.2499 28.3985 58.1897 28.5949 58.1144 28.8367C58.0091 29.1389 57.9338 29.3203 57.9037 29.3958C57.6779 30.1212 57.4823 30.8314 57.2866 31.4963C57.2415 31.6475 57.1963 31.8439 57.1361 32.0857C57.0458 32.403 57.0007 32.6146 56.9856 32.7053C56.8502 33.1435 56.7749 33.4004 56.7448 33.5213C56.5793 33.9595 56.4889 34.3524 56.4739 34.7C56.4739 34.7604 56.4438 34.8209 56.4287 34.8965C56.4287 34.972 56.4137 35.0325 56.4137 35.0627C56.3836 35.3649 56.218 35.652 55.9321 35.8787C55.8719 35.924 55.5859 36.1507 55.0742 36.5587C54.6377 36.9063 54.3668 37.133 54.2163 37.2539C54.111 37.3294 54.0056 37.4654 53.9153 37.6316C53.8701 37.7223 53.8701 37.8432 53.9454 37.9943C54.0357 38.1303 54.126 38.2059 54.2314 38.1908C54.5926 38.1303 54.713 38.1001 54.6076 38.1152C54.713 38.1152 54.8334 38.1152 54.9688 38.1152C55.2548 38.1152 55.3752 38.2512 55.3 38.5232L55.0441 39.581C54.9839 40.1553 54.8033 40.9864 54.5173 42.0896C54.2765 43.102 54.1561 43.9785 54.1411 44.7341C54.1411 44.9608 54.0508 45.127 53.8852 45.2781C53.7648 45.4141 53.6895 45.5652 53.6444 45.7012C53.524 46.1244 53.3283 46.6533 53.0273 47.2879C52.9521 47.4391 52.8919 47.6355 52.8768 47.8773C52.8768 47.9529 52.8768 48.0738 52.9069 48.24C52.9069 48.5271 52.8768 48.7689 52.8166 48.9653C52.7263 49.1769 52.6812 49.4187 52.7113 49.6907C52.7113 49.7814 52.7113 50.144 52.7414 50.7938L52.8467 50.7636L52.7715 50.7938C52.636 51.2018 52.5758 51.4436 52.5758 51.489C52.4704 51.9574 52.4403 52.1539 52.4855 52.0783C52.5005 52.0632 52.4403 52.2899 52.3199 52.7735C52.2898 52.8641 52.2748 52.9548 52.2898 53.0303C52.3199 53.7255 52.3651 54.1637 52.4102 54.3602C52.4102 54.3904 52.4403 54.4659 52.4855 54.5717C52.5908 54.8437 52.7715 54.9042 53.0123 54.7531C53.1327 54.6926 53.2079 54.6473 53.223 54.6322C53.3885 54.4206 53.6293 54.2997 53.9604 54.2695C53.9906 54.2695 54.0809 54.2695 54.2013 54.2695C54.2916 54.2695 54.3668 54.2695 54.4421 54.2544C54.9989 54.1788 55.3903 53.9219 55.5859 53.4837C56.0525 52.5468 56.3234 51.7912 56.4287 51.2018C56.504 50.9147 56.6094 50.6125 56.7448 50.2649C57.1662 49.2827 57.3769 48.2551 57.392 47.1973C57.392 47.1368 57.392 47.1066 57.392 47.0915C57.3769 46.8346 57.407 46.5173 57.5124 46.1244C57.5425 45.9732 57.6629 45.3839 57.9037 44.3412C57.9639 44.1901 58.0843 43.8576 58.2499 43.3287C58.3853 42.8905 58.5057 42.5429 58.6412 42.286C58.7014 42.15 58.7917 41.9536 58.897 41.6967C59.0174 41.3944 59.1077 41.1829 59.1529 41.0771C59.7098 39.7926 60.1161 38.5081 60.372 37.2236C60.4171 36.997 60.4472 36.8458 60.4773 36.7552C60.5526 36.5436 60.673 36.3925 60.8235 36.2867C60.974 36.1658 61.1245 36.0752 61.2449 36.0298C61.8469 35.7276 62.6446 35.3498 63.653 34.8965C63.6831 34.8813 63.7734 34.8511 63.8938 34.8209C63.8637 34.8209 63.8938 34.8209 64.0293 34.7907C64.3152 34.7151 64.4507 34.8209 64.4356 35.1231C64.3002 36.4378 64.2099 37.2388 64.1798 37.5561C63.8938 40.0646 63.7283 41.5153 63.7132 41.9082C63.7132 41.9384 63.7132 42.0291 63.6831 42.1651C63.638 42.4674 63.5778 43.0265 63.5326 43.8576C63.3972 45.7315 63.1714 47.3484 62.8553 48.6933C62.75 49.2071 62.6446 49.8116 62.5242 50.5067C62.5242 50.6125 62.4189 51.353 62.2533 52.6979C62.148 53.529 62.1028 53.9673 62.1028 54.0277C62.0426 54.4659 62.0727 54.874 62.1931 55.2366C62.2383 55.3726 62.3286 55.5086 62.4339 55.6295C62.5844 55.7807 62.765 55.8864 62.9456 55.9469C63.4273 56.0829 63.8637 56.098 64.2701 56.0073C64.4657 55.962 64.6163 55.8864 64.7216 55.8109C65.2935 55.2517 65.6698 54.8891 65.8504 54.7077C66.1815 54.3602 66.3772 53.9068 66.4073 53.3779C66.4073 53.2721 66.4223 53.1361 66.4374 52.9699C66.4524 52.7735 66.4825 52.6223 66.4825 52.5317C66.5427 51.4587 66.5879 50.8241 66.5879 50.5974C66.5728 50.3556 66.5728 50.0534 66.5879 49.6605C66.6029 49.2071 66.618 48.9049 66.5879 48.7538C66.5879 47.56 66.5879 47.0764 66.618 47.3031C66.5879 47.4391 66.618 46.8951 66.7233 45.7012C66.8437 44.3412 66.8437 43.1625 66.7233 42.1802C66.7233 42.1651 66.7233 42.1198 66.7233 42.0442C66.7233 41.878 66.7986 41.742 66.9039 41.6211C67.0996 41.4851 67.1748 41.2584 67.1598 40.9713C67.1598 40.8051 67.1146 40.6842 67.0845 40.6237C66.9491 40.246 66.9039 39.7624 66.9491 39.173C67.0093 38.5232 67.0394 38.1152 67.0243 37.9641C66.9641 37.4956 67.0243 37.0121 67.1899 36.5285C67.2652 36.3169 67.3254 36.1658 67.3404 36.0449C67.4006 35.8183 67.4157 35.6671 67.4157 35.5765C67.4157 35.38 67.4759 35.1685 67.506 34.972C67.5361 34.9569 67.5361 34.9116 67.5662 34.8813C67.7167 34.7605 67.8672 34.6698 67.9876 34.6244C68.5896 34.3222 71.1632 33.5213 72.1716 33.068C72.2017 33.0528 72.292 33.0226 72.4124 32.9924C72.3823 32.9924 72.4124 32.9924 72.5479 32.9622C72.8339 32.8866 72.9693 32.9924 72.9543 33.2946C72.8188 34.6093 72.7285 35.4102 72.6984 35.7276C72.4124 38.2361 72.2469 39.6868 72.2318 40.0797C72.2318 40.11 72.2318 40.2006 72.2017 40.3366C72.1566 40.6389 72.0964 41.198 72.0512 42.0291C71.9158 43.903 71.69 45.5199 71.374 46.8648C71.2686 47.3786 71.1632 47.9831 71.0428 48.6782C71.0428 48.784 70.9375 49.5245 70.7719 50.8694C70.6666 51.7005 70.6214 52.1388 70.6214 52.1992C70.5612 52.6374 70.5913 53.0455 70.7117 53.4081C70.7569 53.5441 70.8472 53.6801 70.9525 53.801C71.103 53.9522 71.2837 54.0579 71.4643 54.1184C71.9459 54.2544 72.3823 54.2695 72.7887 54.1788C72.9844 54.1335 73.1349 54.0579 73.2402 53.9824C73.8121 53.4232 74.1884 53.0606 74.369 52.8792C74.7001 52.5317 74.8958 52.0783 74.9259 51.5494C74.9259 51.4436 74.9409 51.3076 74.956 51.1414C74.971 50.945 75.0011 50.7938 75.0011 50.7032C75.0613 49.6302 75.1065 48.9956 75.1065 48.7689C75.0914 48.5271 75.0914 48.2249 75.1065 47.832C75.1215 47.3786 75.1366 47.0764 75.1215 46.9253C75.1215 45.7315 75.1215 45.2479 75.1516 45.4746C75.1215 45.6106 75.1516 45.0665 75.257 43.8727C75.3774 42.5127 75.3774 41.334 75.257 40.3517C75.257 40.3366 75.257 40.2913 75.257 40.2157C75.257 40.0495 75.3323 39.9135 75.4376 39.7926C75.6333 39.6566 75.7085 39.4299 75.6935 39.1428C75.6935 38.9766 75.6483 38.8557 75.6182 38.7952C75.4828 38.4175 75.4376 37.9339 75.4828 37.3445C75.543 36.6947 75.5731 36.3018 75.558 36.1356C75.4978 35.6671 75.558 35.1836 75.7236 34.7C75.7988 34.4884 75.844 34.3373 75.8741 34.2164C75.9343 33.9898 75.9493 33.8386 75.9493 33.748C75.9192 33.4004 75.9794 33.0528 76.1149 32.6902C76.2052 32.4484 76.2654 32.2066 76.3105 31.9648C76.3406 31.6626 76.4761 30.9977 76.7019 29.9247C76.9427 28.8972 77.0631 28.3531 77.0781 28.2776C77.1233 28.066 77.1835 27.794 77.2587 27.4464C77.334 27.0535 77.3942 26.7815 77.4393 26.6153C77.4544 26.4189 77.4995 26.2677 77.5748 26.162C77.8307 25.7539 77.9511 25.2099 77.921 24.5148C77.921 24.4543 77.936 24.409 77.936 24.3788C77.936 24.2126 77.9812 24.0614 78.0414 23.9103C78.0564 23.8952 78.0865 23.865 78.1166 23.8197C78.1166 23.7592 78.1467 23.729 78.1618 23.7139C78.2671 23.4872 78.237 23.3059 78.0414 23.1699C77.8908 23.0943 77.8758 22.9885 78.0263 22.8676C78.1317 22.7619 78.1919 22.7165 78.2069 22.7165L78.0414 22.5503ZM68.8605 23.0792H68.9659C69.011 23.2001 68.9659 23.2605 68.8455 23.2454C68.8154 23.2454 68.7853 23.2152 68.7853 23.1699L68.8605 23.0792ZM68.5746 25.5575H68.6649L68.695 25.6633C68.6047 25.7539 68.5444 25.7539 68.4993 25.6633C68.4993 25.6331 68.5144 25.6028 68.5746 25.5726V25.5575ZM62.0727 13.7705L62.0276 13.8309L61.9975 13.7554H62.0878L62.0727 13.7705ZM60.9289 19.8151C60.974 19.7244 61.0342 19.6791 61.1095 19.6942C61.1697 19.7244 61.1998 19.7849 61.1998 19.8755C61.1998 19.936 61.1998 19.9662 61.1847 19.9813C61.1546 20.0569 61.0944 20.0871 61.0041 20.072C60.974 20.0569 60.9439 20.0267 60.9138 19.9964C60.8687 19.9511 60.8837 19.8755 60.9138 19.8L60.9289 19.8151ZM60.8687 23.3663C60.974 23.3361 61.0041 23.3814 60.9289 23.5023C60.9138 23.4872 60.8837 23.4721 60.8386 23.4872V23.3814L60.8687 23.3663ZM54.1411 48.9502L54.111 48.8747L54.1712 48.9049L54.1411 48.9653V48.9502ZM54.412 47.0008C54.2765 47.0462 54.2013 47.0008 54.2013 46.8195C54.2013 46.7288 54.2314 46.6684 54.2916 46.6533C54.427 46.6079 54.5173 46.6533 54.5173 46.8346C54.5173 46.9253 54.4872 46.9857 54.3969 47.0159L54.412 47.0008ZM54.7732 44.9154L54.7431 44.8097L54.8484 44.855L54.7732 44.9154ZM55.7364 44.2354C55.6311 44.2807 55.5257 44.2656 55.4053 44.175C55.3903 44.1599 55.3 44.0238 55.1645 43.7821C55.1193 43.8274 55.0441 43.8878 54.9538 43.9936C54.8635 44.0843 54.8033 44.1447 54.7431 44.175C54.713 44.1901 54.6829 44.175 54.6528 44.1296C54.6076 44.0994 54.6076 44.0692 54.6528 44.0541C54.6979 43.9936 54.7882 43.9483 54.8936 43.903C55.0441 43.8727 55.1193 43.8425 55.1645 43.7972C55.4956 43.8425 55.6913 43.8727 55.7515 43.8878C55.8267 43.9181 55.8719 43.9785 55.8719 44.0692C55.8719 44.1447 55.8117 44.2052 55.7515 44.2505L55.7364 44.2354ZM58.9271 30.3781C58.9271 30.3781 58.7917 30.3932 58.7315 30.3176C58.6863 30.227 58.7164 30.1665 58.7917 30.1212C58.882 30.091 58.9422 30.1212 58.9873 30.1816C59.0174 30.2723 58.9873 30.3328 58.9271 30.3781ZM60.1161 25.8899C60.0258 25.8899 59.9957 25.8295 60.0258 25.7388C60.0409 25.7086 60.071 25.6784 60.1011 25.6482C60.1914 25.6028 60.2516 25.6482 60.2666 25.7388C60.2666 25.8295 60.2064 25.8748 60.1161 25.8899ZM64.7969 37.6619C64.7969 37.6619 64.7367 37.6316 64.7367 37.5863C64.7367 37.4956 64.7668 37.4503 64.8721 37.4654L64.9323 37.541C64.9323 37.6468 64.9022 37.6921 64.7969 37.6619ZM67.7016 26.6455L67.7468 26.5549L67.7769 26.6304H67.7016V26.6455ZM68.0628 21.84L68.0026 21.7645C68.0327 21.6738 68.0628 21.6738 68.108 21.7645L68.0628 21.8552V21.84ZM73.2703 35.788C73.2703 35.788 73.2101 35.7578 73.2101 35.7125C73.2101 35.6218 73.2402 35.5765 73.3456 35.5916L73.4058 35.6671C73.4058 35.7729 73.3757 35.8183 73.2703 35.788ZM76.1751 24.7717L76.2202 24.681L76.2503 24.7566H76.1751V24.7717ZM76.5363 19.9662L76.4761 19.8907C76.5062 19.8 76.5363 19.8 76.5815 19.8907L76.5363 19.9813V19.9662ZM76.9728 23.7894C76.9728 23.7894 76.9878 23.729 77.048 23.6988H77.1383L77.1684 23.8046C77.0781 23.8952 77.0179 23.8952 76.9728 23.8046V23.7894ZM77.3189 21.3716C77.3189 21.3716 77.2587 21.3414 77.2587 21.296L77.334 21.2054H77.4393C77.4845 21.3263 77.4393 21.3867 77.3189 21.3716Z" fill="black"/>
<path d="M156.455 12.2139C156.425 12.0779 156.334 11.957 156.169 11.8512C155.988 11.7152 155.762 11.6548 155.506 11.6548C155.205 11.6548 154.919 11.7001 154.664 11.8059C154.242 11.9419 153.821 12.093 153.414 12.2592C152.752 12.5161 152.361 12.6824 152.21 12.773C151.804 12.9544 151.398 13.1055 150.961 13.2264C150.811 13.2566 150.615 13.3473 150.404 13.5286C150.013 13.8309 149.787 14.1633 149.742 14.5411C149.697 14.8131 149.637 15.1758 149.546 15.6442C149.441 16.2034 149.366 16.566 149.351 16.7172C149.26 17.231 149.11 17.8203 148.869 18.4701C148.523 19.407 148.282 20.1324 148.177 20.616C147.74 22.1573 147.214 23.6232 146.597 24.9832C146.19 25.8748 145.919 26.6455 145.784 27.265C145.769 27.4464 145.693 27.6731 145.573 27.9753C145.242 28.7158 144.565 30.65 143.541 33.7933C143.361 34.3524 143.27 34.7906 143.27 35.108C143.255 35.3951 143.165 35.6973 142.999 35.9844C142.729 36.4378 142.458 37.0271 142.172 37.7676C142.081 37.9943 141.916 38.3116 141.705 38.7045C141.389 39.2939 141.254 39.717 141.284 39.989C141.284 40.0343 141.284 40.0797 141.254 40.125C141.013 40.4877 140.817 40.7899 140.667 41.0317C140.636 41.077 140.561 41.1375 140.441 41.2282C140.11 41.3944 139.854 41.485 139.643 41.5002C139.282 41.5304 138.74 41.6362 138.003 41.8175C137.867 41.8628 135.399 42.2557 134.014 42.4975C134.33 41.485 134.511 40.9108 134.541 40.8201C134.616 40.5784 134.707 40.2308 134.857 39.8077C134.993 39.3392 135.098 39.0067 135.173 38.7952C135.218 38.5534 135.294 38.3721 135.384 38.2512C135.775 37.7827 135.971 37.1178 135.971 36.2716C136.001 36.2111 136.001 36.1507 136.001 36.1053C136.016 35.9089 136.076 35.7124 136.166 35.5311C136.197 35.5009 136.227 35.4706 136.272 35.4253C136.302 35.3649 136.317 35.3195 136.347 35.2893C136.513 35.0173 136.467 34.7906 136.212 34.6244C136.001 34.5186 136.001 34.3977 136.212 34.2617C136.362 34.1408 136.452 34.0955 136.467 34.0955C136.768 33.9746 136.949 33.8084 137.024 33.5817C137.355 32.7052 137.626 32.0554 137.837 31.6323C138.078 31.2092 138.258 30.6803 138.364 30.0456C138.454 29.5318 138.65 28.8064 138.981 27.8997C139.162 27.3557 139.267 27.0233 139.297 26.8873C139.478 26.0863 139.688 25.4214 139.959 24.9076C139.959 24.9228 140.065 24.6507 140.275 24.0614C140.411 23.6534 140.501 23.4267 140.516 23.3511C140.832 22.7467 141.043 22.1271 141.148 21.5075C141.193 21.2204 141.314 20.888 141.54 20.5253C141.585 20.4346 141.69 20.3137 141.841 20.1475C142.081 19.8302 142.262 19.4675 142.382 19.0746C142.563 18.4097 142.774 17.8354 143.014 17.3972C142.984 17.4576 143.165 17.1554 143.526 16.4603C143.571 16.3696 143.857 15.8256 144.384 14.8433C144.52 14.526 144.535 14.1935 144.429 13.8309C144.399 13.6948 144.309 13.574 144.143 13.4682C143.963 13.3322 143.737 13.2717 143.481 13.2717C143.18 13.2717 142.894 13.3171 142.638 13.4228C142.202 13.5588 141.795 13.71 141.389 13.8762C140.742 14.1331 140.335 14.2993 140.185 14.39C139.779 14.5713 139.372 14.7224 138.936 14.8433C138.785 14.8736 138.59 14.9642 138.379 15.1456C137.988 15.4478 137.762 15.7802 137.717 16.158C137.672 16.43 137.611 16.7927 137.521 17.2612C137.416 17.8203 137.34 18.183 137.325 18.3341C137.235 18.8479 137.085 19.4373 136.844 20.087C136.498 21.024 136.257 21.7493 136.151 22.2329C135.715 23.7743 135.188 25.2401 134.571 26.6001C134.165 27.4917 133.894 28.2624 133.758 28.882C133.743 29.0633 133.668 29.29 133.548 29.5922C133.217 30.3327 132.539 32.267 131.516 35.4102C131.335 35.9693 131.245 36.4076 131.245 36.7249C131.23 37.012 131.14 37.3142 130.974 37.6014C130.703 38.0547 130.432 38.6441 130.146 39.3845C130.056 39.6112 129.89 39.9286 129.68 40.3215C129.364 40.9108 129.228 41.3339 129.258 41.6059C129.258 41.6513 129.258 41.6966 129.228 41.7419C128.987 42.1046 128.792 42.4069 128.641 42.6486C128.611 42.694 128.536 42.7544 128.415 42.8451C128.084 43.0113 127.828 43.102 127.618 43.1171C127.257 43.1473 126.715 43.2531 125.977 43.4344C125.827 43.4798 125.165 43.6158 124.006 43.8273C124.051 43.7971 124.006 43.7971 123.81 43.7971C123.69 43.7971 123.569 43.7518 123.464 43.6309C123.358 43.5251 123.328 43.4042 123.373 43.2984C123.72 42.2708 123.915 41.4397 123.945 40.805C123.945 40.7144 123.96 40.6237 124.021 40.533C124.171 40.2912 124.261 39.8983 124.322 39.3543C124.427 38.6441 124.578 38.0094 124.803 37.4654C124.848 37.3747 124.909 37.1782 124.969 36.8911C125.571 34.2919 125.917 32.7354 126.007 32.2216C126.143 31.6021 126.308 30.9674 126.519 30.3327C126.79 29.4865 127.031 28.6553 127.211 27.8846C127.482 26.6908 127.618 25.9655 127.633 25.7086C127.708 25.5574 127.768 25.3459 127.798 25.0739C127.859 24.7414 127.904 24.5147 127.934 24.409C127.979 24.2125 128.114 23.6836 128.34 22.8222C128.566 21.9911 128.701 21.4622 128.747 21.2053C128.777 21.1146 128.807 20.9182 128.837 20.6008C128.882 20.2231 128.671 20.0115 128.25 19.9662C127.874 19.9662 127.633 19.9662 127.558 19.9662C126.715 20.087 126.218 20.1928 126.037 20.2835C125.857 20.3742 125.526 20.6915 125.029 21.2355C124.909 21.3866 124.879 21.5831 124.939 21.8098C125.029 22.0364 124.999 22.2178 124.879 22.384C124.788 22.5351 124.713 22.6711 124.668 22.792C124.623 22.928 124.547 23.2 124.427 23.6383C124.337 24.0009 124.246 24.2881 124.156 24.5147C124.036 24.8472 123.885 25.4819 123.674 26.4037C123.629 26.6908 123.539 26.9175 123.389 27.0837C123.298 27.2197 123.208 27.4162 123.133 27.6579C122.967 28.202 122.862 28.5193 122.817 28.6402C122.576 29.1087 122.44 29.6376 122.41 30.2269C122.35 30.8012 122.215 31.451 122.019 32.1461C121.462 34.035 121.116 35.1684 120.95 35.5764C120.86 35.8938 120.77 36.1809 120.679 36.4529C120.393 37.6467 120.273 38.1152 120.348 37.9036C120.273 38.0849 120.183 38.3116 120.062 38.6138C119.897 38.9765 119.791 39.2032 119.746 39.2939C119.385 40.1703 119.069 41.0166 118.753 41.8175C118.678 41.9988 118.602 42.2255 118.512 42.5277C118.377 42.9055 118.286 43.1624 118.271 43.2682C118.061 43.782 117.925 44.1145 117.88 44.2505C117.609 44.7643 117.459 45.2327 117.429 45.6558C117.398 45.7163 117.383 45.807 117.353 45.8976C117.338 45.9883 117.323 46.0487 117.323 46.0941C117.293 46.3056 117.188 46.487 117.052 46.6532C117.429 47.0461 117.73 47.4692 117.97 47.9377C118.031 47.9377 118.076 47.9075 118.136 47.8924C120.74 47.4692 123.343 47.1066 125.962 46.8648C126.414 46.6985 126.88 46.5474 127.407 46.3661C127.452 46.3359 127.573 46.3208 127.753 46.2905C127.708 46.2905 127.753 46.2905 127.949 46.2603C128.355 46.1847 128.536 46.3359 128.491 46.6834C128.491 46.7137 128.491 46.7288 128.491 46.759C130.026 46.8345 131.365 47.1972 132.494 47.8168C132.539 47.6506 132.584 47.4995 132.569 47.4239C132.569 47.1821 132.675 46.9403 132.75 46.6834C132.78 46.6532 132.81 46.6079 132.84 46.5776C133.066 46.4416 133.262 46.351 133.442 46.3056C134.3 45.9883 137.957 45.2025 139.402 44.7189C139.447 44.6887 139.568 44.6736 139.749 44.6434C139.703 44.6434 139.749 44.6434 139.944 44.6131C140.351 44.5376 140.531 44.6887 140.501 45.0363C140.215 46.623 140.05 47.6052 139.989 47.983C139.432 51.0205 139.116 52.7885 139.056 53.257C139.056 53.3023 139.041 53.4081 138.996 53.5592C138.906 53.9219 138.8 54.6019 138.68 55.5993C138.379 57.8811 137.957 59.8305 137.416 61.4474C137.235 62.0821 137.039 62.8075 136.844 63.6386C136.829 63.7746 136.648 64.6511 136.317 66.2983C136.121 67.3107 136.016 67.8396 136.031 67.9152C135.926 68.4592 135.941 68.9428 136.076 69.381C136.136 69.5624 136.242 69.7286 136.392 69.8797C136.603 70.0762 136.844 70.2273 137.1 70.3028C137.762 70.4993 138.379 70.5597 138.936 70.4842C139.222 70.4388 139.432 70.3633 139.583 70.2726C140.426 69.6379 140.983 69.2148 141.223 69.0183C141.72 68.6103 142.006 68.0814 142.096 67.4316C142.111 67.2956 142.142 67.1294 142.157 66.9329C142.202 66.6912 142.232 66.5098 142.247 66.3889C142.412 65.0893 142.503 64.3035 142.518 64.0466C142.518 63.7595 142.518 63.3817 142.563 62.9133C142.623 62.3541 142.653 61.9915 142.638 61.8101C142.713 60.3594 142.759 59.7701 142.774 60.027C142.729 60.1781 142.804 59.5283 143.014 58.0776C143.27 56.4153 143.331 54.9948 143.225 53.7859C143.225 53.7708 143.225 53.7103 143.225 53.6196C143.24 53.4232 143.346 53.257 143.511 53.121C143.782 52.9547 143.918 52.6978 143.902 52.3503C143.902 52.1538 143.872 52.0027 143.812 51.912C143.647 51.4436 143.616 50.8542 143.722 50.144C143.842 49.3582 143.902 48.8746 143.902 48.663C143.857 48.0888 143.963 47.4995 144.234 46.9101C144.354 46.6683 144.429 46.4719 144.489 46.3359C144.58 46.0639 144.625 45.8825 144.625 45.7616C144.625 45.3385 144.715 44.9154 144.926 44.4923C145.076 44.2051 145.182 43.9029 145.242 43.6158C145.302 43.2531 145.528 42.4371 145.934 41.1677C146.326 39.9286 146.536 39.2788 146.551 39.1881C146.627 38.9463 146.717 38.5987 146.867 38.1756C147.003 37.7072 147.108 37.3747 147.183 37.1631C147.229 36.9214 147.304 36.74 147.394 36.6191C147.786 36.1507 147.981 35.4858 147.981 34.6395C148.011 34.5791 148.011 34.5186 148.011 34.4733C148.026 34.2768 148.087 34.0804 148.177 33.899C148.207 33.8839 148.237 33.8386 148.282 33.7933C148.312 33.7328 148.327 33.6875 148.357 33.6572C148.523 33.3852 148.478 33.1586 148.222 32.9923C148.011 32.8866 148.011 32.7657 148.222 32.6297C148.372 32.5088 148.463 32.4634 148.478 32.4634C148.779 32.3425 148.959 32.1763 149.035 31.9496C149.366 31.0732 149.637 30.4234 149.847 30.0002C150.088 29.5771 150.269 29.0482 150.374 28.4135C150.465 27.8997 150.66 27.1744 150.991 26.2677C151.172 25.7237 151.277 25.3912 151.307 25.2552C151.488 24.4543 151.699 23.7894 151.97 23.2756C151.97 23.2907 152.075 23.0187 152.286 22.4293C152.421 22.0213 152.511 21.7947 152.526 21.7191C152.842 21.1146 153.053 20.4951 153.159 19.8755C153.204 19.5884 153.324 19.2559 153.55 18.8932C153.595 18.8026 153.7 18.6817 153.851 18.5154C154.092 18.1981 154.272 17.8354 154.393 17.4425C154.573 16.7776 154.784 16.2034 155.025 15.7651C154.995 15.8256 155.175 15.5233 155.537 14.8282C155.582 14.7375 155.868 14.1935 156.394 13.2113C156.545 12.8939 156.545 12.5615 156.44 12.1988L156.455 12.2139Z" fill="black"/>
<path d="M125.691 20.6616L125.616 20.722L125.571 20.6313L125.691 20.6616Z" fill="black"/>
<path d="M97.9231 42.8304C98.0886 42.8606 98.194 42.8606 98.209 42.8606C98.6305 42.9362 98.8562 42.7397 98.8713 42.3015C98.8713 42.3468 98.8713 42.0295 98.8713 41.3646C98.8863 40.6997 98.9014 40.1859 98.9014 39.8383C98.9014 39.4756 98.9616 39.128 99.097 38.7956C99.2024 38.4783 99.2626 38.2214 99.2927 38.04C99.3228 37.8587 99.3529 37.7227 99.4131 37.632C99.5034 37.5413 99.5786 37.3751 99.6388 37.1484C99.7291 36.9369 99.8044 36.7858 99.8947 36.6951C100.06 36.1813 100.166 35.8942 100.181 35.8337C100.241 35.6222 100.346 35.4559 100.467 35.3199L100.437 35.2897C100.542 35.6524 100.527 35.9848 100.406 36.2871C100.406 36.3324 100.406 36.3777 100.437 36.4231C100.497 36.5137 100.572 36.544 100.662 36.5289C100.722 36.4986 100.813 36.4533 100.918 36.3929C101.114 36.3022 101.325 36.272 101.58 36.2871H101.701L101.535 36.3173V36C101.55 35.8186 101.641 35.6977 101.791 35.6524C102.002 35.5617 102.077 35.4106 102.017 35.199V35.0328C102.002 34.8061 102.077 34.6248 102.243 34.519C102.438 34.3981 102.544 34.2017 102.559 33.8994C102.574 33.7181 102.514 33.5972 102.363 33.5519C102.258 33.5065 102.167 33.5217 102.107 33.5821L101.911 33.7937C101.791 33.9297 101.656 33.975 101.535 33.9297C101.219 33.7937 100.858 33.8541 100.452 34.0959C100.497 34.0657 100.391 34.1715 100.166 34.4132C100.105 34.5039 100.015 34.519 99.9098 34.4435C99.8646 34.3981 99.8496 34.3528 99.8496 34.3075C99.8044 33.8994 99.9399 33.5972 100.226 33.4159L100.196 33.4461L100.286 33.1741C100.346 33.0532 100.376 32.9625 100.346 32.9021C100.256 32.6754 100.256 32.4185 100.316 32.1465C100.662 30.7713 101.069 29.4717 101.55 28.2779C101.641 28.0966 101.686 27.9606 101.716 27.8699C101.761 27.5677 101.972 27.0086 102.348 26.1774C102.724 26.389 102.935 26.4948 102.95 26.525C103.1 26.6005 103.161 26.5552 103.146 26.4192C103.131 26.3739 103.085 26.3437 103.025 26.3437C102.965 26.3134 102.739 26.2681 102.363 26.1774C102.107 26.0868 101.987 25.9054 102.017 25.6183C102.017 24.9685 102.152 24.3791 102.423 23.82C102.408 23.8502 102.664 23.3667 103.221 22.3693C103.477 21.8555 103.808 21.5231 104.199 21.3266C104.365 21.2359 104.5 21.0848 104.606 20.8733C105.117 19.8608 105.448 19.1959 105.629 18.8785C105.719 18.6972 105.749 18.5461 105.749 18.4252C105.734 18.2438 105.825 17.8509 106.035 17.2465C106.096 17.0349 106.201 16.8838 106.351 16.7629C106.622 16.5816 106.788 16.4607 106.833 16.4153C106.878 16.37 106.953 16.2491 107.089 16.0678C107.089 16.0376 107.104 15.9922 107.149 15.9318C107.345 15.2669 107.736 14.6473 108.323 14.1033C109.015 13.4384 110.054 12.9397 111.408 12.6223C112.251 12.5468 112.898 12.5921 113.35 12.7281C114.238 13.0001 114.975 13.3477 115.577 13.7708C115.999 14.0882 116.405 14.3451 116.781 14.5264C117.444 14.8437 117.835 15.4482 117.985 16.3247C118.181 17.4732 118.271 18.2892 118.271 18.7727C118.287 19.3319 118.362 19.8306 118.497 20.299C118.557 20.5257 118.588 20.7826 118.557 21.0546C118.512 22.5053 118.467 23.684 118.437 24.5756C118.422 24.9685 118.347 25.3765 118.241 25.7845C118.121 26.3437 117.94 27.2957 117.73 28.6557C117.414 30.7713 117.037 32.4638 116.616 33.7332C116.255 34.7759 115.939 35.8488 115.668 36.9822C115.653 37.1031 115.577 37.3449 115.442 37.7076C115.337 38.0098 115.276 38.2516 115.246 38.4329C115.156 38.8863 114.945 39.2792 114.584 39.5663C114.494 39.6418 114.464 39.7325 114.494 39.8383C114.584 40.1405 114.569 40.3823 114.464 40.5636C114.449 40.609 114.343 40.8357 114.178 41.2588L113.922 41.8179C113.651 42.3922 113.29 42.6944 112.868 42.7095C112.763 42.7397 112.703 42.8002 112.673 42.9211C112.643 43.0419 112.643 43.1326 112.643 43.2384C112.688 43.4651 112.612 43.7069 112.417 43.9638C112.206 44.2358 111.875 44.5984 111.438 45.0367C110.776 45.7016 110.505 45.9736 110.611 45.8678C110.144 46.3514 109.587 46.7292 108.925 47.0012C107.826 47.515 106.893 47.8474 106.126 48.0439C105.975 48.0741 105.779 48.0892 105.554 48.1194C105.403 48.1194 105.283 48.0741 105.177 47.9834C105.117 47.9381 105.012 47.8625 104.891 47.7416C104.786 47.6208 104.696 47.5452 104.606 47.4999C104.455 47.3639 104.289 47.3487 104.094 47.4696C104.049 47.515 103.988 47.5603 103.898 47.6056C103.838 47.6812 103.778 47.7265 103.733 47.7416C103.386 47.9683 103.07 47.9985 102.784 47.8172C102.438 47.6056 101.881 47.3336 101.099 46.9861C101.008 46.9558 100.888 46.9105 100.722 46.8198C100.557 46.7292 100.421 46.6687 100.346 46.6536C100.181 46.5781 100.045 46.5629 99.9399 46.5781C99.5937 46.6536 99.2776 46.4874 98.9616 46.0945C98.8412 45.9283 98.796 45.7469 98.8713 45.5354C98.8863 45.4145 98.9164 45.3238 98.9315 45.2633C98.9465 45.0518 98.9164 44.9158 98.8111 44.8553C98.5853 44.674 98.4348 44.4171 98.3595 44.0998C98.2692 43.6615 98.1187 43.2384 97.8779 42.8153L97.908 42.8455L97.9231 42.8304ZM101.234 37.5867C101.234 37.5867 101.174 37.5413 101.114 37.5867L101.144 37.7227C101.264 37.7529 101.309 37.6924 101.234 37.5867ZM102.182 37.0729V37.1031L102.213 37.1333L102.182 37.0578V37.0729ZM109.015 40.3521H108.895C109.121 39.7023 109.377 39.2792 109.663 39.0676C109.753 38.992 109.858 38.8409 110.009 38.584C110.626 37.6018 110.942 37.088 110.957 37.0578C111.002 36.9822 111.032 36.8915 111.047 36.7858C111.092 36.3324 111.243 35.8488 111.499 35.335C112.131 34.0506 112.597 32.5394 112.898 30.8167C112.959 30.59 113.019 30.2576 113.064 29.8495C113.124 29.3357 113.169 29.0033 113.184 28.8522C113.305 28.2477 113.38 27.5375 113.38 26.7063C113.365 25.2405 113.41 23.7445 113.546 22.2484C113.561 22.0217 113.561 21.8102 113.546 21.6288C113.485 21.0093 113.41 20.4048 113.32 19.8003C113.275 19.5283 113.184 19.2865 113.034 19.1052C112.974 19.0296 112.883 19.0145 112.778 19.0296C112.673 19.0448 112.627 19.0599 112.658 19.0599C112.086 19.3168 111.634 19.6794 111.318 20.163C111.198 20.3746 110.867 20.8733 110.34 21.6893C109.933 22.2937 109.617 22.7773 109.392 23.1702C109.271 23.3818 109.076 23.684 108.82 24.0618C108.549 24.4547 108.353 24.7418 108.248 24.9232C108.233 24.9534 107.841 25.5276 107.074 26.6912L107.104 26.661C106.698 27.5526 106.472 28.0513 106.412 28.1419C106.351 28.2175 106.291 28.3988 106.246 28.7011C106.186 29.0033 106.08 29.2753 105.96 29.5322L105.298 30.8469C105.298 30.8469 105.208 30.9225 105.102 30.9225C105.012 30.9225 104.967 30.8922 104.937 30.8167C104.922 30.7865 104.861 30.6505 104.771 30.4087L104.831 30.3029C104.876 30.2122 104.846 30.1367 104.771 30.0611C104.816 28.7464 104.831 28.157 104.801 28.2628L104.831 28.293C104.515 28.2477 104.35 28.2175 104.32 28.2175C104.154 28.2175 103.973 28.157 103.808 28.0513C103.507 28.0059 103.326 27.9757 103.266 27.9757C103.221 27.9757 103.206 28.0059 103.206 28.0513C103.191 28.0966 103.206 28.1419 103.236 28.1873C103.251 28.2326 103.296 28.2628 103.326 28.2628C103.417 28.2628 103.582 28.1873 103.838 28.021C103.748 28.6859 103.778 29.2451 103.928 29.6833L103.958 29.9553C103.973 30.1367 103.958 30.2727 103.868 30.3633C103.131 31.1642 102.769 31.5571 102.784 31.542L102.664 31.7838C102.544 31.9198 102.514 31.9954 102.604 32.0256C102.664 32.0256 102.709 31.95 102.724 31.7838L102.754 31.5118C103.025 31.6932 103.401 32.0256 103.868 32.479C103.988 32.5998 104.079 32.7056 104.124 32.8265C104.169 32.9021 104.274 33.1892 104.44 33.6879C104.35 34.791 104.274 35.3804 104.214 35.4559C104.154 35.5315 104.124 35.6222 104.124 35.7733C104.139 36.0302 104.094 36.5289 103.958 37.2995C103.973 37.1182 103.913 37.5111 103.763 38.5085C103.748 38.6898 103.763 38.9467 103.793 39.2641C103.853 39.657 103.973 39.9894 104.139 40.2614C104.395 40.6543 104.455 41.0926 104.335 41.5761C104.289 41.7121 104.244 41.9086 104.214 42.1655C104.199 42.241 104.184 42.3317 104.184 42.4828C104.169 42.7548 104.244 42.9815 104.44 43.1326C104.59 43.2686 104.786 43.314 105.012 43.2686C105.494 43.1326 105.885 42.9513 106.156 42.7095C106.201 42.6642 106.351 42.5433 106.637 42.3619C107.315 41.8481 107.841 41.3495 108.233 40.8357C108.398 40.609 108.639 40.4428 108.925 40.3521C109.03 40.2312 109.061 40.2312 109.015 40.3521ZM102.619 36C102.619 36 102.559 36.0302 102.559 36.0755C102.514 36.1964 102.559 36.2568 102.649 36.2871C102.739 36.3173 102.815 36.2568 102.815 36.1511C102.799 36.0302 102.724 35.9848 102.619 36.0151V36ZM104.214 24.5756L104.124 24.5454C104.019 24.3187 103.958 24.1827 103.928 24.1676C103.883 24.092 103.808 24.0467 103.703 24.0014C103.507 23.9107 103.401 23.9711 103.386 24.1676C103.371 24.3036 103.386 24.3943 103.477 24.4396C103.567 24.4849 103.642 24.5152 103.733 24.5454C103.778 24.5454 103.913 24.5454 104.139 24.5756H104.199H104.214ZM104.756 21.4626C104.666 21.5986 104.696 21.7346 104.816 21.8706C104.876 21.9462 104.967 21.9613 105.072 21.9462C105.268 21.8706 105.328 21.7648 105.268 21.5986C105.253 21.5684 105.177 21.4324 105.072 21.1906L105.268 20.979L105.177 20.9488L105.117 21.2208C104.967 21.2662 104.846 21.3417 104.771 21.4626H104.756ZM106.156 19.1505C106.156 19.1505 106.02 19.1959 105.93 19.2865C105.84 19.3621 105.825 19.4528 105.87 19.5586C105.96 19.6794 106.02 19.7248 106.065 19.7248C106.336 19.7701 106.547 19.7248 106.698 19.5586V19.4225C106.547 19.1959 106.366 19.1052 106.156 19.1505ZM106.908 21.1906L106.938 21.0546L106.848 21.0244C106.848 21.0244 106.803 21.0848 106.788 21.1302L106.908 21.2057V21.1906ZM108.278 20.571H108.368L108.308 20.4652L108.278 20.571ZM108.699 41.6215C108.79 41.5308 108.805 41.4401 108.759 41.3495C108.699 41.2286 108.624 41.2134 108.534 41.2739C108.428 41.3192 108.413 41.3948 108.474 41.5157L108.564 41.6215H108.684H108.699ZM108.759 21.9462C108.759 21.9462 108.82 21.916 108.82 21.8706C108.835 21.7346 108.805 21.6742 108.699 21.7044L108.609 21.8102C108.609 21.9311 108.669 21.9764 108.775 21.9462H108.759ZM111.514 39.7174C111.514 39.5361 111.423 39.4152 111.258 39.3698C111.198 39.3396 111.153 39.3396 111.137 39.3698C110.867 39.4907 110.626 39.6418 110.445 39.8534C110.295 39.9894 110.25 40.1707 110.325 40.4125C110.4 40.6543 110.52 40.7752 110.701 40.7903C110.806 40.8205 110.897 40.7903 110.987 40.7148C111.243 40.4881 111.423 40.201 111.529 39.8534V39.7174H111.514ZM112.342 39.3094C112.387 39.4756 112.342 39.7174 112.221 40.0347V40.1707C112.221 40.3974 112.342 40.5334 112.597 40.5485C112.703 40.5788 112.778 40.5485 112.823 40.4428C112.944 40.1859 113.019 39.8987 113.049 39.5814C113.064 39.3245 113.004 39.0978 112.853 38.8863C112.748 38.7049 112.627 38.6596 112.507 38.7503C112.402 38.8258 112.342 38.9014 112.342 38.992V39.3094ZM113.651 17.7301C113.546 17.6998 113.455 17.7603 113.395 17.8661C113.305 18.0474 113.395 18.1381 113.621 18.1381C113.726 18.1381 113.786 18.0776 113.786 17.9718C113.786 17.8661 113.741 17.7754 113.666 17.7301H113.651ZM113.801 39.7627C113.816 39.6267 113.786 39.5512 113.681 39.5512C113.621 39.5512 113.591 39.5814 113.591 39.657C113.546 39.7778 113.591 39.8232 113.711 39.8232L113.801 39.7476V39.7627ZM113.847 35.5768C113.801 35.4106 113.771 35.2595 113.756 35.1235C113.801 35.0026 113.832 35.0177 113.847 35.1537H113.756C113.847 35.2444 113.877 35.3653 113.847 35.5315V35.5617V35.5768ZM114.659 32.2372C114.659 32.2372 114.599 32.2976 114.599 32.3429C114.599 32.4638 114.659 32.5092 114.765 32.479L114.855 32.3732C114.855 32.2523 114.795 32.2069 114.659 32.2372Z" fill="black"/>
</svg>
