<?xml version="1.0" encoding="UTF-8"?>
<svg id="Layer_2" data-name="Layer 2" xmlns="http://www.w3.org/2000/svg" viewBox="0 0 24 23">
  <defs>
    <style>
      .cls-1 {
        fill: #fff;
      }
    </style>
  </defs>
  <g id="Layer_1-2" data-name="Layer 1">
    <g>
      <circle class="cls-1" cx="9" cy="21" r="2"/>
      <circle class="cls-1" cx="20" cy="21" r="2"/>
      <path class="cls-1" d="M9.63,17c-.67,0-1.33-.23-1.87-.66-.55-.44-.93-1.07-1.06-1.75l-1.67-8.34s-.01-.06-.02-.09l-.83-4.15H1c-.55,0-1-.45-1-1S.45,0,1,0h4c.48,0,.89.34.98.8l.84,4.2h16.18c.3,0,.58.13.77.36.19.23.27.53.21.83l-1.6,8.39c-.14.7-.52,1.32-1.06,1.76-.55.44-1.24.67-1.94.66h-9.7s-.04,0-.05,0ZM7.22,7l1.44,7.19c.05.23.17.44.35.59.18.15.41.21.65.22h9.74c.26,0,.48-.07.67-.22.18-.15.31-.36.35-.58l1.37-7.19H7.22Z"/>
    </g>
  </g>
</svg>