<?xml version="1.0" encoding="UTF-8"?>
<svg id="Layer_2" data-name="Layer 2" xmlns="http://www.w3.org/2000/svg" viewBox="0 0 783.23 373.51">
  <defs>
    <style>
      .cls-1 {
        fill: #231f20;
      }
    </style>
  </defs>
  <g id="Layer_1-2" data-name="Layer 1">
    <g>
      <path class="cls-1" d="M79.98,47.49c1.93-6.82,2.96-10.6,3.11-11.34.44-1.63,1.48-3.26,3.11-4.89.74-.59.96-1.48.67-2.67-.15-.45-.37-1.04-.67-1.78-1.04-2.22-1.41-4.81-1.11-7.78.15-1.48.52-2.74,1.11-3.78.59-.89.96-1.41,1.11-1.56,1.04-4,1.93-6.45,2.67-7.34.45-.59,2-2.3,4.67-5.12.59-.59,1.48-.96,2.67-1.11,2.81-.3,5.41-.07,7.78.67,4.45,1.19,7.86,3.04,10.23,5.56,2.96,3.26,5.86,5.86,8.67,7.78,2.52,1.78,3.7,4.37,3.56,7.78v2c-2.52,10.53-5.12,18.68-7.78,24.46-1.04,2.22-2.15,3.78-3.34,4.67l.22.22c-.89.45-1.71.45-2.45,0h.22c.74,0,.74.74,0,2.23h-.22c0,1.78-.67,3.86-2,6.23-.3.59-2.37,4.52-6.23,11.78h.22c-.89,0-2.08.52-3.56,1.56l-.22-.22c1.18,2.08,1.85,3.19,2,3.33.3.75.37,1.41.22,2-.74,3.11-2.15,6.38-4.22,9.79-.59,1.19-1.63,2.37-3.11,3.56.44-.3-1.56,1.34-6,4.89-1.34,1.04-1.71,2.22-1.11,3.56.3.75.52,2,.67,3.78.15,1.63.37,2.89.67,3.78h-4c-.45-1.18-.97-1.93-1.56-2.22-1.04-.59-1.93-.52-2.67.22-.45.59-.67,1.19-.67,1.78.15.89.59,1.33,1.33,1.33.3.15,1.56-.14,3.78-.89,1.19-.74,2.45-.81,3.78-.22h5.78c1.33.15,2.3.37,2.89.67,1.48.74,2.59.45,3.34-.89.45-.89,1.11-1.41,2-1.56.44-.15,1.11-.22,2-.22.89-.14,1.56-.3,2-.45,2.67-.59,4.45-1.85,5.34-3.78.15-.45.44-1.03.89-1.78.89-1.19,2-1.7,3.34-1.56.45,0,1.11-.07,2-.22,1.33-.3,1.7-1.11,1.11-2.45-.74-1.33-.74-2.52,0-3.56.59-.89.96-1.41,1.11-1.56,1.34-1.33,2.3-2.67,2.89-4,1.03-2.37,3.04-5.34,6-8.9.15-.15,1.26-1.7,3.34-4.67v.22c1.19-.15,1.78-.3,1.78-.45,1.33-.14,2.07-.67,2.22-1.56.59-2.67,1.93-5.34,4-8,1.03-1.19,2.96-3.41,5.78-6.67,9.93-11.71,15.05-17.79,15.34-18.24.74-.89,1.85-2.15,3.34-3.78,1.93-2.07,5.04-3.93,9.34-5.56.59-.14,1.19-.22,1.78-.22,3.41-.3,6.37-.45,8.9-.45,4.15-.14,7.93.89,11.34,3.11.89.59,4.08,2.3,9.56,5.12,4.89,2.52,7.63,6.38,8.23,11.56.15,1.48-.15,2.75-.89,3.78-.59.89-1.19,1.71-1.78,2.44-2.67,3.11-8.23,9.64-16.68,19.57-2.08,2.52-4.45,4.3-7.12,5.34-2.67,1.19-5.26,3.19-7.78,6-3.26,3.86-4.97,5.86-5.12,6.01-2.22,2.37-4.3,4.45-6.23,6.23-2.08,1.78-4.3,3.26-6.67,4.45-7.12,3.41-11.56,5.49-13.34,6.23-2.08.89-4.38,2.15-6.89,3.78-4.89,3.26-12.98,9.56-24.24,18.9v.22c.15-.45.15-.74,0-.89-.15-.59-.52-.96-1.11-1.11-1.19-.15-1.78.45-1.78,1.78,0,.59.29,1.41.89,2.45h-.22c0-.15-2.67,1.56-8.01,5.12-1.04.74-1.48,1.85-1.34,3.33v1.11-.45c-3.11,1.63-4.89,2.6-5.34,2.89-1.19.59-2,1.48-2.45,2.67-1.78,3.86-2.59,5.64-2.45,5.34-.59.89-1.48,2.15-2.67,3.78-1.19,1.63-2.08,2.82-2.67,3.56-.3.45-2.08,2.3-5.34,5.56-.3.3-.67.67-1.11,1.11-.59.45-.97.74-1.11.89-1.04,1.04-1.56,2.22-1.56,3.56-.15,1.63-.22,2.97-.22,4,.15,1.93.89,3.71,2.22,5.34,2.67,3.11,5.26,5.64,7.78,7.56,5.34,3.86,10.97,9.34,16.9,16.46.89,1.04,4.74,5.49,11.56,13.34,2.22,2.52,2.37,5.19.45,8-.15.3-.45.74-.89,1.34-.45.45-.74.82-.89,1.11-.3.45-.3,1.04,0,1.78.59,1.19,1.41,1.63,2.45,1.34.59-.15,1.26-.37,2-.67,1.19-.59,2.81-.81,4.89-.67.45,0,.74.08.89.22,1.04.3,1.63.52,1.78.67,2.07,1.93,4.23,4.82,6.45,8.67l.45,2,.22-.22-.22.89c-.3.74-.22,1.26.22,1.56.44.45,1.19.37,2.22-.22l-.22.22c.89.89,1.85,2.22,2.89,4,1.18,1.93,2.15,3.33,2.89,4.22.59.74,2.59,3.26,6,7.56-.15-.29.22.3,1.11,1.78.3.45.22,1.04-.22,1.78-.44.89-.89,1.34-1.33,1.34-2.08.15-3.41.15-4,0-3.71-.89-6.82-2-9.34-3.33-9.05-5.19-15.87-9.79-20.46-13.79-.3-.15-1.63-1.11-4-2.89-7.42-5.78-14.31-12.9-20.68-21.35-4.3-5.63-7.86-9.93-10.67-12.9-.3-.15-.74-.59-1.33-1.34-.59-.74-1.04-1.26-1.33-1.56-2.97-2.52-6.15-5.93-9.56-10.23-.45-.59-1.63-1.63-3.56-3.11-1.93-1.63-3.71-1.41-5.34.67-2.97,3.41-4.97,7.19-6,11.34-.3.45-.45,1.41-.45,2.89,0,.75.07,1.41.22,2,.89,2.97.67,6.53-.67,10.68-1.19,3.26-3.71,10.08-7.56,20.46-.59,1.33-2.3,4.52-5.11,9.56-.89,1.63-1.56,3.11-2,4.45-.3,1.48-.82,4.08-1.56,7.78-.59,3.26-1.11,5.86-1.56,7.78l-.22.89c-.3,2.67.37,4.82,2,6.45,1.03,1.04,1.26,1.26.67.67,1.19,1.04,1.41,2.22.67,3.56-.15.45-1.19,2.15-3.11,5.12-2.22,3.71-3.41,5.71-3.56,6.01-2.67,5.04-4.67,10.23-6,15.57-1.48,5.93-2.15,8.53-2,7.78-.15.59-.52,1.48-1.11,2.67-.59,1.19-.97,2.08-1.11,2.67.15-.3.07,1.34-.22,4.89-.15,1.34-.82,2.08-2,2.23-2.82.15-3.78.15-2.89,0-1.48.15-2.82.37-4,.67-3.11.59-4.59,2.52-4.45,5.78.15.59.3,1.41.45,2.45.15,1.19.22,2,.22,2.45,0,.74-.15,1.41-.45,2-1.04,1.48-2.07,2.75-3.11,3.78-.74.74-1.7.96-2.89.67-1.78-.15-3.34-1.18-4.67-3.11-.45-.45-.67-1.03-.67-1.78-.29-2.37-.15-6.3.45-11.79.15-1.03.67-2.3,1.56-3.78.15-.45.97-1.48,2.45-3.11,2.67-2.96,4.23-6.52,4.67-10.68.3-1.48.67-3.7,1.11-6.67.59-3.11.97-5.41,1.11-6.89.59-3.56,1.41-7.41,2.45-11.57,1.04-4.3,1.63-7.56,1.78-9.79,0-1.33.37-3.26,1.11-5.78.74-2.67,1.19-4.59,1.33-5.78,1.63-6.08,3.63-14.08,6-24.02,2.81-12.6,4.67-20.68,5.56-24.24.59-2.22,4.97-19.79,13.12-52.71.3-1.03,1.19-5.26,2.67-12.68.15-.89.52-2.81,1.11-5.78.59-2.37,1.03-4.3,1.33-5.78.15-1.03.45-2,.89-2.89,1.48-3.85,2.74-7.56,3.78-11.12.45-1.34,1.19-2.45,2.22-3.33,2.07-1.93,3.26-3.04,3.56-3.34,1.19-.89,2.96-3.26,5.34-7.12l.45-2c.29-1.18,1.11-2.07,2.45-2.67.59-.29,1.19-.67,1.78-1.11,1.04-.74,1.04-1.93,0-3.56-.59-1.18-1.41-1.48-2.45-.89-.3,0-.59.15-.89.44-.45.3-.74.45-.89.45-.59.45-1.19.37-1.78-.22-.45-.45-.67-1.03-.67-1.78v-.89c.89-2.67,2.15-7.78,3.78-15.35,1.33-6.67,3.85-12.01,7.56-16.01.74-.89,1.11-2.07,1.11-3.56,0-1.33.07-2.3.22-2.89,2.52-9.49,4.45-15.79,5.78-18.9h.44-.67ZM3.26,361.73c-1.03-1.93-1.78-3.34-2.22-4.23-.3-.89-.15-1.78.44-2.67.74-1.33,1.56-1.48,2.45-.45,2.22,2.23,2.59,4.59,1.11,7.12l-.89.45-.89-.22ZM19.49,358.39c.45.74.59,1.34.45,1.78-1.48,4.89-3.7,9.04-6.67,12.46l.22.22c-1.04-1.19-1.63-1.85-1.78-2-1.19-1.33-1.93-1.26-2.22.22l-.22,1.78v-.22c-1.03-.3-1.7-.89-2-1.78-.59-1.04-.67-1.93-.22-2.67.3-.3.74-.74,1.33-1.34.59-.74.97-1.26,1.11-1.56,1.04-1.19,2.3-2.08,3.78-2.67.89-.45,2.08-.96,3.56-1.56.74-.45,1.04-1.33.89-2.67-.15-1.04-.59-1.85-1.33-2.45v.22c1.78,1.03,2.82,1.78,3.11,2.22ZM13.27,372.62c-1.19,1.18-2.52,1.18-4,0v.22h4.23l-.22-.22ZM11.04,324.81c3.26.3,5.71.15,7.34-.45-1.34,1.63-2.08,2.89-2.22,3.78-.15.3-.07.59.22.89.3.74.74.89,1.33.45.3-.14.52-.3.67-.45.15-.59.22-1.41.22-2.44-.15-1.04-.22-1.78-.22-2.23-1.04-1.03-1.78-2.07-2.22-3.11-.15-.59-.37-1.18-.67-1.78-.44-.59-1.03-.74-1.78-.45-.45.15-.74.3-.89.45l-1.56,5.56-.22-.22ZM16.38,356.17v-.22c.3-2.82.52-4.52.67-5.12-.29,2.37-.52,4.15-.67,5.34ZM21.5,339.71l-.67,1.56c0,.74-.3,1.11-.89,1.11-.15.15-.22-.07-.22-.67,0-.3.07-.52.22-.67.15-.15.59-.52,1.33-1.11l.22-.22ZM20.83,316.58c.74-.74,1.19-1.18,1.33-1.33.15-.3.07-.52-.22-.67-.59-.29-.89.45-.89,2.23l-.22.67v-.89ZM21.5,339.26l-.22.22v.44l.22-.67ZM59.08,115.32c-.3,0-.52-.14-.67-.45-.15-.74.15-1.11.89-1.11l.67.45c.15.74-.15,1.11-.89,1.11ZM58.63,132.67h.67l-.22-.67-.45.67ZM66.42,128h.45l-.45.22.22.22-.22-.45ZM67.75,96.64l-.44.89c.15.15.37.22.67.22.74-.74.67-1.11-.22-1.11ZM70.42,123.1c.15-.29.07-.52-.22-.67-.59-.59-.89-.45-.89.45l.45.67.67-.45ZM86.88,91.3c-1.33-1.78-1.85-3.56-1.56-5.34,0-.14-.22-1.11-.67-2.89v.22c-.3-2.37-.37-6.45-.22-12.23l.22.22c-2.97.89-4.52,1.34-4.67,1.34-2.52.89-3.41,2.44-2.67,4.67.89,2.82,1.56,4.67,2,5.56.3.89.45,2.52.45,4.89-.15.15-.22.15-.22,0,.89.89,1.41,1.33,1.56,1.33.15.3.37.59.67.89.59.74.52,1.63-.22,2.67-.74.89-1.63.97-2.67.22-1.19-.74-2-1.19-2.45-1.34-1.33-.29-2.22,0-2.67.89-.3.74-.3,1.41,0,2,.59.89.96,1.41,1.11,1.56,2.96,2.97,5.34,5.26,7.12,6.89.3.45.81.3,1.56-.45.45-.29.67-.52.67-.67.29-1.03,1.7-3.19,4.22-6.45.45-.59.45-1.26,0-2,0-.15-.59-.89-1.78-2.23l.22.22ZM89.99,141.34c.45-.74-1.78,2.52-6.67,9.79-.3.45-1.34,1.26-3.11,2.45-.15.15-.52.37-1.11.67-.59.3-1.04.59-1.33.89-1.33,1.19-2.22,2.52-2.67,4-.3,1.19,0,2.08.89,2.67,1.04.74,2,.89,2.89.45.74-.45,1.85-1.11,3.34-2,1.48-.89,2.59-2.07,3.34-3.56,1.04-2.22,1.41-3.11,1.11-2.67.45-.74.89-1.18,1.34-1.34-.15,0,1.85-1.18,6-3.56l2-.22h.22-.44c.44-1.18.74-1.78.89-1.78,1.19-3.11,2.96-5.41,5.34-6.9,1.03-.59,1.7-1.18,2-1.78.59-1.03,1.48-2.22,2.67-3.56,1.63-1.63,2.59-2.74,2.89-3.33,2.07-2.82,3.56-4.89,4.45-6.23.15-.15.37-.81.67-2,.29-1.19-.08-2-1.11-2.45-.45-.15-1.11-.3-2-.45-1.93-.59-3.26-.22-4,1.11-1.19,2.23-2.75,3.93-4.67,5.12-.3.15-.67.37-1.11.67-.59.45-1.04.75-1.33.89-.89.59-2.15.82-3.78.67l.22-.22c-.15,1.04-.22,1.63-.22,1.78-.15,2.82-1.11,5.12-2.89,6.9-.3.15-1.56,1.56-3.78,4.22v-.22ZM79.76,119.77l.67.45v-.67l-.67.22ZM89.99,129.56c-1.04-.74-2.15-1.34-3.34-1.78-.74-.29-1.48-.22-2.22.22-.74.45-1.19,1.11-1.33,2,0,1.33.37,2.52,1.11,3.56.59,1.04,1.41,1.41,2.45,1.11,1.34-.45,2.22-.81,2.67-1.11.89-.44,1.41-1.26,1.56-2.44,0-.74-.3-1.26-.89-1.56ZM86.88,91.3l-.22-.22.22.22ZM90.66,199.38v.22l-.22.45.22-.67ZM96.44,14.36c-1.04-.89-2.15-1.11-3.34-.67-1.48.3-1.78,1.04-.89,2.22,1.63,1.93,3.19,1.93,4.67,0l.22-.89c-.3-.45-.52-.67-.67-.67ZM97.55,113.32c-.45-.45-.74-.37-.89.22,0,1.04.45,1.85,1.33,2.44.3.15.59.15.89,0,.29-.14.37-.44.22-.89-.45-.89-.97-1.48-1.56-1.78ZM98.89,25.26l-.67.45.67.45v-.89ZM103.56,208.72c0-.15-.08-.3-.22-.45l-.67.22c-.3.45-.22.67.22.67,0,.15.3.15.89,0-.15-.15-.22-.3-.22-.45ZM106.22,73.51h-.22.22ZM109.56,22.59c.15-.3.07-.52-.22-.67-.59-.45-.89-.3-.89.45l.44.44.67-.22ZM108.89,144.01v.45-.45ZM111.34,31.04c.15.3.37.45.67.45.89-.14,1.18-.59.89-1.33l-.89-.45c-.74.15-.97.59-.67,1.33ZM113.79,238.3l-.67-.22.22.67.44-.45ZM118.01,109.32c-1.48.15-2.67.67-3.56,1.56-1.19,1.48-1.19,2.97,0,4.45.29.45.59.59.89.45,1.78-.45,3.34-1.41,4.67-2.89l.22-.89c.15-1.78-.59-2.67-2.22-2.67ZM116.46,53.05c-.59,1.19-1.33,2-2.22,2.45h.22v-2.23h-.22,2.45l-.22-.22ZM120.46,132.44c-.45.59-1.19,1.41-2.22,2.45-.15,0-.08,0,.22,0,1.04-.74,1.7-1.48,2-2.22v-.22ZM136.02,74.85h-.44v-.22l.44.22ZM140.03,243.86c.89.74,1.63,1.48,2.22,2.22l.22-.22c-.3-.3-.67-.67-1.11-1.11-.45-.44-.82-.81-1.11-1.11l-.22.22ZM154.26,97.53c-.3-.15-.59-.15-.89,0-.44.59-.22.89.67.89l.67-.45-.45-.45ZM195.62,37.71c-.74.3-.97.74-.67,1.34.3.74.81.96,1.56.67.74-.3.96-.81.67-1.56-.3-.59-.82-.74-1.56-.45Z"/>
      <path class="cls-1" d="M226.03,156.3c.98-2.93,2.2-5.23,3.66-6.89,1.07-1.27,1.85-2.83,2.34-4.69.2-.29.39-.78.59-1.46.19-.68.34-1.22.44-1.61,1.07-3.71,2.93-7.13,5.57-10.26.2-.2.49-.49.88-.88.39-.49.68-.83.88-1.03.88-.98,1.47-1.9,1.76-2.78,1.07-2.93,3.08-7.03,6.01-12.31.39-.68,1.32-2.64,2.78-5.86-.2.39.1-.44.88-2.49.78-1.85,2-3.66,3.66-5.42.59-.59.93-1.37,1.03-2.34,0-1.27.34-2.49,1.03-3.66,1.95-3.81,3.86-7.96,5.72-12.45.68-1.66,2-2.73,3.96-3.22,1.56-.49,3.03-.68,4.4-.59,1.07.1,2.83.29,5.28.59.59.1.98.25,1.17.44.68.39,1.61.73,2.78,1.03,1.46.29,2.39.54,2.78.73,1.07.39,2.15.59,3.22.59,1.95-.2,3.76.83,5.42,3.08.19.29.59.93,1.17,1.91.39.88.83,1.52,1.32,1.9.2.29.2.73,0,1.32-.2.29-.44.64-.73,1.03-4.3,6.25-8.26,14.7-11.87,25.35-.29.59-.83,2.25-1.61,4.98-1.17,4.2-2.3,7.28-3.37,9.23-.98,1.96-1.56,4.01-1.76,6.15-.1,1.66-.68,3.76-1.76,6.3-.68,1.76-1.03,3.66-1.03,5.72v1.9c0,.59-.25,1.22-.73,1.91-1.08,1.27-1.71,2.15-1.9,2.64-.39,1.17-.24,2.2.44,3.08.1.1.24.24.44.44.2.2.34.34.44.44.39.59.54,1.22.44,1.91-.2.98-.39,1.81-.59,2.49-.2.49-.54,1.32-1.03,2.49-.39.98-.68,1.76-.88,2.34-.98,3.03-1.61,5.57-1.9,7.62-.1.78-.29,2.2-.59,4.25-.29,1.76-.49,3.13-.59,4.1-.1.49-.29,1.12-.59,1.91-.39.98-.98,1.56-1.76,1.76-.59.2-.98.34-1.17.44-1.08.39-1.52,1.08-1.32,2.05.39,2.15.63,3.22.73,3.22.1-.49-.15.34-.73,2.49-1.08,3.71-1.76,7.57-2.05,11.58,0,.39-.05,1.03-.15,1.9-.1.88-.2,1.52-.29,1.91-.1,1.66.63,2.69,2.2,3.08,2.15.49,4,1.08,5.57,1.76,1.07.39,1.95.98,2.64,1.76.68.78,1.76,2.15,3.22,4.1.29.29.39.68.29,1.17-.1.59-.34.93-.73,1.03,0,.1-.1.15-.29.15-.1.1-.2.15-.29.15-1.56.78-2.98,1.22-4.25,1.32-1.08,0-2.34.34-3.81,1.03-1.08.59-1.76,1.12-2.05,1.61-.68,1.17-1.9,2-3.66,2.49-.49.2-.73.49-.73.88-.1.49.1.93.59,1.32l1.03.59c.78.49,1.07,1.22.88,2.2,0,.49-.2,1.47-.59,2.93-.29,1.17-.49,2.15-.59,2.93-.2,2.15-.2,3.66,0,4.54.29,1.17.15,2.64-.44,4.4-.29.68-.15,1.27.44,1.76,1.07.88,1.61,2.05,1.61,3.52-.1.88.29,1.56,1.17,2.05,1.17.68,1.56,1.86,1.17,3.52-1.37,4.89-2.64,8.35-3.81,10.4-.98,1.66-1.37,3.32-1.17,4.98.1.98-.05,2.05-.44,3.22-.59,1.46-1.08,2.64-1.47,3.52-1.17,2.74-1.96,5.47-2.34,8.21-.39,2.05-.83,4.2-1.32,6.45-.2.68-.59,1.42-1.17,2.2-.68,1.07-1.76,1.71-3.22,1.9-.39.1-.78,0-1.17-.29-.88-.59-1.56-1.17-2.05-1.76.1.1-1.12-1.41-3.66-4.54-1.17-1.46-1.52-2.88-1.03-4.25.29-.68.39-1.76.29-3.22,0-1.95.24-3.66.73-5.13.2-.78.29-1.41.29-1.9.1-1.47.63-3.32,1.61-5.57.78-1.85,1.17-3.76,1.17-5.72-.1-2.54.2-7.13.88-13.77.1-1.37.44-2.59,1.03-3.66.49-.98.78-1.56.88-1.76,1.66-3.03,2.44-6.4,2.34-10.11,0-.68-.2-1.27-.59-1.76-.39-.68-.44-1.51-.15-2.49.59-2.25.93-3.52,1.03-3.81.1-.59.1-1.22,0-1.91-.2-1.07-.73-1.76-1.61-2.05-1.66-.59-3.32-1.07-4.98-1.46-.39-.1-1.03-.2-1.91-.29-.88-.1-1.52-.2-1.9-.29-.39-.1-2.49-.68-6.3-1.76-1.17-.39-1.81-.59-1.9-.59-1.17-.1-4.79-.78-10.84-2.05-.29-.1-.73-.15-1.32-.15-2.64-.39-4.64.64-6.01,3.08-.2.49-.29.68-.29.59-2.74,7.13-4.2,11.43-4.4,12.89-.2,1.47-.78,2.88-1.76,4.25-1.96,3.03-3.91,6.89-5.86,11.58-.39.88-.68,1.46-.88,1.76-2.54,4.69-4.84,11.04-6.89,19.05-.98,4.2-2.1,7.72-3.37,10.55-.39.98-1.12,3.03-2.2,6.15-1.66,5.08-4.64,9.52-8.94,13.33-.59.49-1.12.88-1.61,1.17-1.27.49-2.49.93-3.66,1.32-.78.2-1.66.15-2.64-.15-.68-.29-1.22-.59-1.61-.88-1.66-1.27-4.64-3.08-8.94-5.42-.59-.39-.88-.98-.88-1.76,0-.88.1-1.71.29-2.49.1-.39.34-1.03.73-1.91.59-1.07,1.71-3.42,3.37-7.03,1.27-3.03,2.34-5.42,3.22-7.18-.39.78.29-.78,2.05-4.69,1.96-4.49,3.32-7.47,4.1-8.94,1.27-2.83,2.64-5.03,4.1-6.59l1.17-1.61c.49-.68.78-1.51.88-2.49v-2.64c0-1.17.49-2.34,1.47-3.52.39-.49,1.42-1.61,3.08-3.37,1.27-1.46,2.29-3.37,3.08-5.71,0-.29.05-.73.15-1.32.39-2.73,1.46-5.08,3.22-7.03,1.66-2.05,3.03-4.49,4.1-7.33.39-1.17.59-2.25.59-3.22,0-.49-.05-.93-.15-1.32-.29-2.15.29-4.44,1.76-6.89.68-1.17,1.56-2.1,2.64-2.78,1.17-.78,2.15-1.95,2.93-3.52,1.37-2.64,2.64-5.13,3.81-7.47,5.08-10.75,8.11-17.05,9.08-18.9,1.37-2.64,2.83-5.76,4.4-9.38.98-2.34,2.15-4.44,3.52-6.3.29-.29.93-1.17,1.9-2.64h-.15c.1-.39.93-2.83,2.49-7.33ZM220.31,192.49c.19-.1.24-.24.15-.44-.29-.49-.54-.49-.73,0-.1,0-.1.2,0,.59l.59-.15ZM233.94,173.89l.44-.29c-1.66,4.1-2.64,6.5-2.93,7.18-.29.59-.49,1.22-.59,1.9-.39,2.25-1.42,5.81-3.08,10.7-.2.29-1.46,3.52-3.81,9.67-.59,1.46-.98,2.93-1.17,4.4-.2,1.27.29,2.2,1.47,2.78.59.29.78.39.59.29,3.32,1.08,5.18,1.66,5.57,1.76,5.66.98,9.33,1.47,10.99,1.47.68,0,1.76.15,3.22.44,1.85.29,4,.15,6.45-.44l.59-.15c.78-.49,1.27-.93,1.46-1.32.49-1.37.68-3.12.59-5.27,0-2.73.24-6.4.73-10.99.59-5.37.93-9.09,1.03-11.14,0-.39.1-1.03.29-1.91.68-2.93.93-6.15.73-9.67-.2-2.93-.1-5.32.29-7.18.49-2.05.59-4.2.29-6.45-.59-4.1-.59-8.45,0-13.04.1-.88.05-1.76-.15-2.64-.29-1.27-1.08-1.85-2.34-1.76-1.08.1-1.81.54-2.2,1.32-.29.59-.68,1.46-1.17,2.64-.59,1.27-1.03,2.15-1.32,2.64-.1.29-.39.59-.88.88-.1,0-.54.05-1.32.15-1.08.2-1.9.83-2.49,1.91-.39.68-.93,1.61-1.61,2.78-.78,1.56-1.27,2.54-1.46,2.93-2.05,3.71-3.37,7.13-3.96,10.26-.1.39-.2.93-.29,1.61,0,.78-.05,1.32-.15,1.61-.1.39-.34.73-.73,1.03-1.08.88-2,1.46-2.78,1.76l-.29.15ZM258.56,115.71c-.29-.49-.88-.39-1.76.29-1.27,1.08-2.2,2.25-2.78,3.52-.49,1.17-2.1,4.25-4.84,9.23-1.76,3.13-3.08,6.11-3.96,8.94-.49,1.56-1.22,2.88-2.2,3.96-.49.68-2.34,3.61-5.57,8.79-1.08,1.66-1.66,3.71-1.76,6.15,0,.29.1.68.29,1.17.49.98,1.07,1.12,1.76.44.59-.59,1.32-1.66,2.2-3.22,1.37-2.64,4.35-8.21,8.94-16.7,3.71-6.84,6.69-12.36,8.94-16.56.39-.78.73-1.56,1.03-2.34.39-.98.49-1.85.29-2.64-.1-.39-.29-.73-.59-1.03ZM244.93,130.51c0,.1-.05-.1-.15-.59-.29-.98-.83-1.17-1.61-.59-1.47,1.08-2.05,2.78-1.76,5.13.1.29.34.49.73.59.39.1.68.05.88-.15,1.17-.68,1.81-1.61,1.9-2.78v-1.61ZM255.33,137.55c.49.2.98.15,1.47-.15.49-.29.73-.73.73-1.32,0-.49-.05-.88-.15-1.17-.39-1.27-1.08-1.51-2.05-.73-.78.49-1.17,1.17-1.17,2.05-.1.59.29,1.03,1.17,1.32ZM266.91,158.21c-.39-.1-.73.05-1.03.44-.39.39-.34.73.15,1.03.68.49,1.17.34,1.46-.44.1-.49-.1-.83-.59-1.03Z"/>
      <path class="cls-1" d="M355.59,182.45l.15-.61c.2-1.11-.2-1.52-1.21-1.22-1.02.3-1.78,1.17-2.28,2.58-.2.81-.05,1.42.46,1.82,1.52.91,1.93,2.38,1.22,4.41-.51,1.22-1.37,2.89-2.58,5.02-2.64,4.97-4.46,8.82-5.48,11.56-.2.61-.61,1.17-1.22,1.67l-.15.15v-1.37c-.2-1.01-.71-1.32-1.52-.91-1.01.51-1.62.86-1.82,1.06-.91.81-1.78,1.88-2.58,3.19-1.22,2.13-2.23,4.21-3.04,6.24-.2.61-.25,1.06-.15,1.37.1,1.12-.36,2.13-1.37,3.04-.61.61-1.17,1.32-1.67,2.13-.3.41-.51,1.06-.61,1.98-.1,1.22.46,1.82,1.67,1.82h2.74c-.2,1.73-.3,2.64-.3,2.74-.1,1.12-.56,2.18-1.37,3.19-.91,1.32-1.01,2.69-.3,4.11.3.61.2,1.27-.3,1.98-1.32,1.52-2.03,3.19-2.13,5.02-.1,1.42-.46,2.79-1.06,4.11-.2.3-.56,1.06-1.07,2.28-.3.91-.61,1.67-.91,2.28-1.93,3.45-3.35,6.64-4.26,9.58-.3.91-1.06,2.38-2.28,4.41-.91,1.42-1.42,2.94-1.52,4.56-.51,5.48-2.54,13.18-6.08,23.12-1.62,4.46-2.64,7.6-3.04,9.43-.3,1.73-.91,3.75-1.82,6.08-.81,1.92-2.13,3.19-3.95,3.8-.71.3-1.42.35-2.13.15l.15.15c-2.64-1.02-4.21-1.62-4.71-1.82-2.54-.91-4.71-2.58-6.54-5.02-.71-.81-1.06-1.67-1.06-2.58,0,.51,0-.46,0-2.89,0-1.11.15-2.03.46-2.74.91-2.23,1.67-5.17,2.28-8.82.81-5.17,2.28-9.58,4.41-13.23,1.01-1.82,1.72-3.34,2.13-4.56,1.11-3.24,3.19-7.15,6.23-11.71l3.95-5.93c.51-.81.86-1.93,1.06-3.35l.15-.15-.15.3-.61-1.22c-.3-.81-.3-1.52,0-2.13,1.93-3.75,3.5-6.89,4.71-9.43l1.67-2.28c.61-.91.91-1.77.91-2.58,0-2.23.51-4.51,1.52-6.84,3.55-7.81,5.32-11.66,5.32-11.56,1.93-4.05,3.4-7.55,4.41-10.49.91-2.53,1.98-5.12,3.19-7.76,3.65-7.3,5.93-12.22,6.84-14.75.4-1.22,1.12-2.43,2.13-3.65.61-.61,1.22-1.32,1.83-2.13.61-.81,1.01-1.67,1.21-2.58.31-1.82.51-2.94.61-3.35.4-1.82,1.37-3.95,2.89-6.39.4-.61.3-1.27-.31-1.98l-.46-.46h.15c-.1-.3.05-1.47.46-3.5.1-.4.25-.96.46-1.67.31-.81.46-1.37.46-1.67.4-1.62-.2-2.74-1.82-3.34-4.36-1.83-7.91-3.24-10.65-4.26-3.85-1.32-7.2-2.99-10.04-5.02-.1-.1-1.32-.86-3.65-2.28,0,.2.05.25.15.15-3.85-2.94-6.23-4.87-7.15-5.78-1.82-1.93-4.56-3.75-8.21-5.48-.51-.2-1.27-.51-2.28-.91-1.12-.4-1.88-.71-2.28-.91l-1.06-.76c-.61-.4-.91-1.01-.91-1.82s.3-1.42.91-1.82c3.65-1.93,7.3-2.38,10.95-1.37-.2,0,1.98.81,6.54,2.43,9.73,3.34,16.37,5.68,19.92,7,4.56,1.62,7.6,2.94,9.12,3.95l-.15-.15c5.37,1.83,8.52,2.89,9.43,3.19.4.21,1.32.51,2.74.91,1.72.41,3.14-.15,4.26-1.67.71-1.01,1.37-2.03,1.98-3.04,1.22-1.83,1.98-3.5,2.28-5.02.4-1.52,1.16-3.24,2.28-5.17-.1.2.56-.81,1.98-3.04,1.62-2.63,3.45-4.76,5.47-6.39,2.64-2.13,5.02-4.71,7.15-7.76,1.01-1.32,1.47-2.63,1.37-3.95,0-1.42.61-2.63,1.83-3.65.51-.4,1.27-.96,2.28-1.67,1.42-1.01,2.64-2.43,3.65-4.26.51-.91.46-1.77-.15-2.58-.4-.61-.4-1.27,0-1.98.2-.2.66-.76,1.37-1.67.71-.51.81-.55.3-.15h-.46c2.74-2.53,4.26-3.95,4.56-4.26,1.62-1.52,2.79-3.29,3.5-5.32.1-.1.15-.3.15-.61.1-.4.2-.66.3-.76.61-2.03,1.83-4.31,3.65-6.84.4-.51,1.22-1.47,2.43-2.89,1.01-1.32,1.77-2.38,2.28-3.19.51-.71,1.37-1.01,2.58-.91.51,0,1.32.1,2.43.3,1.01.1,1.82.2,2.43.3,2.23.2,4.56,1.17,7,2.89.71.51,1.22,1.02,1.52,1.52.91,1.52,1.67,2.99,2.28,4.41.31.61.2,1.27-.3,1.98-.41.51-.86,1.02-1.37,1.52-2.43,2.54-4.71,4.61-6.84,6.24-1.12.81-1.88,1.67-2.28,2.58-.51.81-1.88,2.43-4.11,4.87-7.4,8.31-14.2,17.9-20.38,28.74-.2,0-.4.05-.61.15-.3,0-.05-.05.76-.15-.61.61-.97.91-1.06.91-1.12,1.12-2.33,1.78-3.65,1.98-.41,0-.86.05-1.37.15-1.42.41-2.03,1.32-1.82,2.74.2.61.35,1.06.46,1.37.4.91.35,1.77-.15,2.58-1.12,1.93-2.74,3.95-4.87,6.08-.4.41-1.21.91-2.43,1.52-1.83.91-2.89,2.59-3.19,5.02-.2,1.22.25,2.13,1.37,2.74.1.1.2.15.31.15l.3.15c1.22.81,1.22,1.78,0,2.89-.81.71-.81,1.37,0,1.98.51.51.81.86.91,1.06.31.41.46.81.46,1.22,0,1.62-.51,2.89-1.52,3.8-.1.2-1.01.97-2.73,2.28l-.91-1.06c-.51-.51-.76-.4-.76.3,0,.1.15.21.46.3.1,0,.55.1,1.37.3-1.01.61-1.62,1.02-1.82,1.22-2.84,1.62-5.22,3.85-7.15,6.69-.71,1.12-1.32,2.13-1.82,3.04-2.13,3.35-3.96,5.83-5.48,7.45-.71.71-1.12,1.52-1.22,2.43-.2,1.52-.97,2.99-2.28,4.41-.1.1-.81.71-2.13,1.83l-.15.15ZM310.58,291.03l-.46-.46-.15.61.61-.15ZM321.07,130.59h.46l-.3-.46-.15.46ZM325.48,247.08c-1.52-.51-2.38,0-2.58,1.52-.1.41.05.81.46,1.22.4.3.81.41,1.22.3.91-.4,1.42-1.06,1.52-1.98,0-.61-.2-.96-.61-1.06ZM330.95,231.57c-.41-.1-.86-.05-1.37.15-.3.21-.66.56-1.06,1.06-.91,1.22-1.62,2.64-2.13,4.26-.2.81,0,1.47.61,1.98.51.51,1.11.61,1.82.3.81-.3,1.37-.76,1.67-1.37.71-2.13,1.06-3.9,1.06-5.32-.1-.71-.3-1.06-.61-1.06ZM337.8,224.88l-.15-.15c-.3.81-.81,1.37-1.52,1.67.2-.61.76-1.11,1.67-1.52ZM344.64,208.15l-.15-.3.15-.15v.46ZM347.68,161.16l.31.15h-.15l-.15-.15ZM355.74,182.6l-.15-.15.15-.15v.3ZM366.69,159.94c.1.21.25.36.46.46.81.41,1.32.1,1.52-.91,0-.51-.25-.81-.76-.91-1.02-.1-1.42.36-1.22,1.37ZM387.22,117.67c0,.2.1.36.31.46.61.1.91-.15.91-.76l-.46-.46c-.51,0-.76.25-.76.76ZM393,109.45v-.46l-.46.15.46.3ZM402.12,89.68c-1.12-.61-1.82-.2-2.13,1.22,0,.1.1.3.31.61.3.3.71.36,1.22.15.81-.3,1.11-.81.91-1.52l-.31-.46ZM406.08,81.93c-.3.1-.46.25-.46.46-.2.51-.05.81.46.91.51.1.76-.1.76-.61s-.25-.76-.76-.76Z"/>
      <path class="cls-1" d="M465.57,247.62c-3.3,6.49-6.82,12.14-10.59,16.94-1.22,1.51-2.68,2.12-4.38,1.84l-.71.14c-.66.09-1.08.52-1.27,1.27-.09.56-.14.94-.14,1.13,0,.09.05.52.14,1.27.09.75-.09,1.55-.56,2.4-.56,1.04-1.22,1.88-1.98,2.54-.09.09-.56.47-1.41,1.13-3.67,3.1-6.45,5.98-8.33,8.61-1.22,1.69-3.01,3.06-5.36,4.09-3.01,1.32-5.41,2.59-7.2,3.81-1.04.85-2.21,1.27-3.53,1.27-1.41,0-2.59.24-3.53.71-.94.47-1.74.8-2.4.99-.94.38-1.74.56-2.4.56-3.67.28-6.59.09-8.75-.56-.38-.19-1.18-.33-2.4-.42-1.32-.19-2.54-.56-3.67-1.13-.66-.37-1.41-.66-2.26-.85-.85-.19-1.69-.33-2.54-.42.37,0-.47,0-2.54,0-3.86,0-7.67-.85-11.43-2.54-.94-.47-1.5-.75-1.69-.85-1.13-1.22-2.82-1.98-5.08-2.26-1.04-.09-1.74-.75-2.12-1.98-.47-1.13-.37-2.12.28-2.96.38-.56.75-1.08,1.13-1.55,1.22-1.22,2.35-3.2,3.39-5.93.19-.37.19-.8,0-1.27,0,.1-.47-1.08-1.41-3.53-.47-1.04-.09-1.65,1.13-1.84.75-.09,2.35-.52,4.8-1.27.19-.09.8-.14,1.83-.14.19,0,.42.05.71.14,3.39,1.41,6.54,2.4,9.46,2.96,1.41.28,2.77.85,4.09,1.69,1.6.94,3.39,1.41,5.36,1.41h2.54c.85,0,1.64-.19,2.4-.56,2.54-1.41,4-2.21,4.38-2.4,1.5-.66,2.92-1.6,4.23-2.82,1.32-1.22,3.11-2.21,5.36-2.96,4.42-1.41,7.24-2.26,8.47-2.54-.66.19.14-.05,2.4-.71,3.48-.94,6.73-3.06,9.74-6.35.38-.38.85-.94,1.41-1.69.66-.85,1.13-1.41,1.41-1.69l2.26-2.26-.14.14c2.54-4.14,4.75-9.55,6.64-16.23-.1.28.05-.33.42-1.84.66-2.92,1.03-4.09,1.13-3.53l-.99-3.67c-.19-.75-.28-1.36-.28-1.83-.19-1.13-.66-2.31-1.41-3.53-4.61-8.56-10.78-14.96-18.49-19.2-.38-.09-.94-.37-1.69-.85-.75-.28-1.32-.56-1.69-.85-3.11-1.69-5.36-4.09-6.78-7.2-1.32-3.01-2.07-5.6-2.26-7.76,0-1.04.42-1.74,1.27-2.12.47-.19,1.03-.37,1.69-.56,1.22-.37,2.12-1.22,2.68-2.54,1.13-2.35,1.64-4.8,1.55-7.34,0-1.32.61-2.59,1.84-3.81.94-.94,1.93-1.74,2.96-2.4,4.7-3.58,10.68-9.13,17.93-16.65,3.2-3.2,6.07-6.54,8.61-10.02.75-1.13,2.16-2.96,4.23-5.51.28-.37.66-.42,1.13-.14.19.19.28.38.28.56.28.66.37,1.04.28,1.13,0,.75-.05,2.45-.14,5.08,0,2.07-.14,3.72-.42,4.94-.09.47-.05,1.08.14,1.83.47,1.22.56,2.68.28,4.38-.19,1.04.05,2.02.71,2.96.09.28.23.38.42.28.19,0,.33-.14.42-.42.19-.47.23-1.08.14-1.83-.28-1.5,0-3.11.85-4.8v-.14c.19.94.66,1.51,1.41,1.69.28.09.47.19.56.28.47.28.61.75.42,1.41v.28-.42c1.13-.09,1.74-.14,1.84-.14.47-.09.75-.37.85-.85.28-1.5-.14-2.59-1.27-3.25-.28-.09-.52-.19-.71-.28h-1.83.14c.19-1.88.33-2.92.42-3.11,0-.66-.14-1.22-.42-1.69-.85-1.32-.99-3.06-.42-5.22.09-.28.52-.71,1.27-1.27l-.14-.14c.66.38,1.03.56,1.13.56,2.16,1.41,4.23,1.41,6.21,0,.19-.19.51-.38.99-.56.66-.28,1.27-.38,1.83-.28.19,0,1.18.19,2.96.56l-.14-.14c.75,1.22,1.17,1.93,1.27,2.12.37.66.89.66,1.55,0,.66-.66,1.08-1.08,1.27-1.27.38-.56.52-1.13.42-1.69-.09-.09-.28-.71-.56-1.84l-.14.14c1.13-.38,2.21-1.04,3.25-1.98.28-.38.66-.38,1.13,0,.19.19.28.38.28.56,0,1.41-.05,2.26-.14,2.54-1.32,3.2-2.78,5.46-4.38,6.78-.66.47-1.13,1.13-1.41,1.98-.56,1.98-1.55,3.81-2.96,5.5.38-.47-.42.75-2.4,3.67-.28.38-.66.47-1.13.28-.28-.09-.47-.23-.56-.42,0-.19-.05-.47-.14-.85-.19-.47-.28-.8-.28-.99-.19-.47-.52-.66-.99-.56-.38.09-.71.33-.99.71-.28.56-.42,1.41-.42,2.54v3.67c0,1.41-.75,2.26-2.26,2.54-1.41.28-1.83.38-1.27.28-1.51.38-2.07,1.32-1.69,2.82.19,1.04.05,1.79-.42,2.26-3.95,5.08-7.58,8.85-10.87,11.29-.66.47-2.68,2.31-6.07,5.51-.1.09-.47.56-1.13,1.41-.94,1.22-.94,2.4,0,3.53,1.03,1.22,1.88,2.17,2.54,2.82,1.98,2.17,4.19,4.94,6.63,8.33.19.28.42.66.71,1.13.38.47.66.8.85.99,2.26,3.2,3.15,6.31,2.68,9.32v1.27c0,1.13.28,1.65.85,1.55.28-.09.56-.38.85-.85.56-.94.99-.89,1.27.14.09.38.42,1.04.99,1.98.47.85.75,1.51.85,1.98,0,.56.23,1.69.71,3.39.37,1.41.56,2.54.56,3.39.38,5.27.33,9.03-.14,11.29-.09.66-.09,1.51,0,2.54.28,1.51-.05,3.58-.99,6.21-.09.47-.33.71-.71.71s-.66-.23-.85-.71c-.19-.28-.42-.66-.71-1.13-.28-.38-.66-.52-1.13-.42-.85.28-1.13.8-.85,1.55l.42,1.13c.66,1.32,1.13,2.49,1.41,3.53v1.41c-.38,1.6-.56,2.45-.56,2.54ZM439.03,117.2c-.28.66-.89,1.18-1.83,1.55-1.79.85-3.58,1.32-5.36,1.41-1.41.09-3.29.33-5.65.71-1.88.28-3.95.38-6.21.28-.75,0-1.51-.28-2.26-.85-.66-.47-.89-1.04-.71-1.69.28-1.03.47-1.6.56-1.69,2.63-4.33,5.36-7.43,8.19-9.32.28-.19.75-.61,1.41-1.27.66-.75,1.6-1.08,2.82-.99,1.69,0,3.01.52,3.95,1.55.66.66,1.74,1.65,3.25,2.96,1.32,1.32,2.35,2.35,3.1,3.1,0,.09.33.33.99.71v-.14c-1.13,1.32-1.88,2.54-2.26,3.67ZM430.84,171.83c.28-.66.47-1.18.56-1.55,0-.85.14-1.46.42-1.84.28-.47.61-.94.99-1.41.38-.47.38-.85,0-1.13-.19-.09-.38-.09-.56,0-.85.56-1.51,1.04-1.98,1.41-.85.66-.8,1.41.14,2.26-.09-.09.23.09.99.56-.19.85-.33,1.46-.42,1.84l-.14-.14ZM441.29,113.67c1.6-1.22,2.77-1.93,3.53-2.12v.14l.42-1.13c.38-.85.14-1.32-.71-1.41-.19-.09-.61-.14-1.27-.14-.47-.09-.85-.19-1.13-.28-1.04-.09-1.55-.61-1.55-1.55-.09-1.5-1.08-2.77-2.96-3.81,0-.09-.38-.14-1.13-.14-.94-.09-1.37-.14-1.27-.14-.38-.09-.66-.37-.85-.85-.09-.47-.05-.89.14-1.27.56-.66,1.27-1.13,2.12-1.41.85-.37,1.64-.33,2.4.14.47.38.94.75,1.41,1.13.66.56,1.36.99,2.12,1.27,1.03.38,1.64.61,1.84.71,1.41,1.13,2.63,1.04,3.67-.28.56-.66,1.32-.99,2.26-.99.19,0,.37-.09.56-.28.56-.38.89-.61.99-.71.19-.37.52-1.13.99-2.26.47-1.13,1.65-2.31,3.53-3.53.09,0,.28-.05.56-.14,1.6-.19,3.06-.14,4.38.14,1.13.28,2.35.61,3.67.99.19.09.56.56,1.13,1.41.56.85,1.46,1.04,2.68.56.47-.09.66-.14.56-.14.66,0,1.03.05,1.13.14,1.03.56,1.79.89,2.26.99,1.13.28,2.3.75,3.53,1.41,2.07,1.22,2.92,2.73,2.54,4.52-.09.38.05.71.42.99.37.28.8.33,1.27.14l1.13-.42c.56-.28,1.13-.19,1.69.28.56.47,1.18,1.04,1.84,1.69.47.47.71,1.04.71,1.69-.09.38-.19.99-.28,1.84-.94-.38-1.51-.61-1.69-.71-.38-.09-.75,0-1.13.28-.28.28-.28.61,0,.99.19.19.38.28.56.28.19-.09.89-.37,2.12-.85h1.27c.66.09,1.22.38,1.69.85.75.85,1.5,2.07,2.26,3.67-.19-.38.14.61.99,2.96.56,1.6.66,3.48.28,5.65-.09.94-.56,1.27-1.41.99-1.6-.56-3.25-.71-4.94-.42-1.6.28-2.92-.14-3.95-1.27-.85-.75-2.12-1.46-3.81-2.12-.47-.09-.85.05-1.13.42-.38.38-.42.75-.14,1.13.37.47.51.8.42.99-.09.28-.47.38-1.13.28.28,0-.33-.05-1.83-.14.19,0,0-.05-.56-.14-.28-.09-.52-.33-.71-.71-.19-.38-.24-.66-.14-.85.38-.66.61-.99.71-.99.09-.19.85-.94,2.26-2.26l-.14-.14c.47-.47.52-.85.14-1.13-.47-.28-1.55-.89-3.25-1.83-.56-.28-1.13-.05-1.69.71-.38.56-.61.89-.71.99s-.19.28-.28.56c-.09.28-.19.47-.28.56-.75,1.32-1.65,1.51-2.68.56-.19-.09-.66-.52-1.41-1.27-.75-.75-1.83-1.32-3.25-1.69-3.95-1.22-7.81-1.32-11.57-.28-.19,0-2.21.42-6.07,1.27-1.41.38-2.35-.23-2.82-1.83,0-.09-.09-.71-.28-1.84v.14ZM435.78,113.25l-.14.42.56-.14-.42-.28ZM443.97,98.43c-1.32-.75-1.37-1.46-.14-2.12.28-.19.66-.33,1.13-.42.75-.19,1.22.09,1.41.85.19.38.09.75-.28,1.13-.38.56-.9.8-1.55.71-.28-.09-.47-.14-.56-.14ZM449.62,96.17v-.28l.28.14-.28.14ZM455.83,168.58l-.42-.14-.14.42.28.14c.09-.09.19-.23.28-.42ZM459.07,105.34c-.47.09-.94.47-1.41,1.13-.28.66-.33,1.46-.14,2.4.09.66.52,1.04,1.27,1.13.47.09.85,0,1.13-.28,1.22-.94,1.88-1.41,1.98-1.41-.09,0,.71-.23,2.4-.71.19-.09.33-.23.42-.42.28-.38.47-.71.56-.99.19-.75-.19-1.13-1.13-1.13-1.13-.19-2.82-.09-5.08.28ZM459.36,96.87l-.28.42.14.42c.09-.09.19-.19.28-.28,0-.09.05-.14.14-.14-.19-.19-.28-.33-.28-.42ZM461.76,111.41c0,.09.05.28.14.56l.42-.28-.14-.42-.42.14ZM464.3,158.27c-.09-.28-.33-.42-.71-.42s-.66.14-.85.42c-.38.56-.47,1.13-.28,1.69.19.56.66.9,1.41.99.85.1,1.18-.37.99-1.41-.28-.85-.47-1.27-.56-1.27ZM464.16,216.43c-.38.85-.24,1.6.42,2.26.37.28.75.24,1.13-.14.19-.19.28-.33.28-.42-.19-.94-.66-1.6-1.41-1.98l-.42.28ZM464.3,223.49c0,.38.14.66.42.85.28.1.52.1.71,0,.37-.28.51-.66.42-1.13-.19-.37-.52-.56-.99-.56-.38.19-.56.47-.56.85ZM466.13,145.71l1.41-1.41h-.14l-1.27,1.27v.14ZM466.13,245.08v-1.41c.37.94.37,1.41,0,1.41ZM468.95,132.59l-.14.14c-.09,0-.28.05-.56.14l.14.14c.28-.19.47-.33.56-.42ZM471.64,104.64l.28.14v-.28l-.28.14ZM479.12,141.62c.19.28.56.47,1.13.56.94,0,1.32-.37,1.13-1.13-.19-.47-.47-.71-.85-.71-.1,0-.71.09-1.84.28.66-1.13.8-2.31.42-3.53-.09-.38-.33-.71-.71-.99-.66-.38-1.41-.56-2.26-.56-.75-.09-1.22.24-1.41.99-.19.94-.24,1.32-.14,1.13-.38,1.04-.1,1.93.85,2.68,1.13.85,2.26.89,3.39.14.19.66.28,1.04.28,1.13ZM477.14,108.17c-.66.09-.66.28,0,.56l.42-.28c-.19-.19-.33-.28-.42-.28ZM483.92,115.65c.28-.75.05-1.17-.71-1.27-.47,0-.75.19-.85.56-.28.75-.05,1.18.71,1.27.47.09.75-.09.85-.56Z"/>
      <path class="cls-1" d="M529.93,156.91c.98-2.96,2.22-5.27,3.7-6.95,1.08-1.28,1.87-2.86,2.36-4.73.2-.3.39-.79.59-1.48.2-.69.35-1.23.44-1.63,1.08-3.74,2.95-7.19,5.62-10.35.2-.2.49-.49.89-.89.39-.49.69-.83.89-1.03.89-.98,1.48-1.92,1.77-2.81,1.08-2.95,3.1-7.09,6.06-12.41.39-.69,1.33-2.66,2.81-5.91-.2.39.1-.44.89-2.51.79-1.87,2.02-3.7,3.69-5.47.59-.59.94-1.38,1.04-2.36,0-1.28.34-2.51,1.03-3.7,1.97-3.84,3.89-8.03,5.76-12.56.69-1.68,2.02-2.76,3.99-3.25,1.58-.49,3.05-.69,4.43-.59,1.08.1,2.86.3,5.32.59.59.1.98.25,1.18.44.69.39,1.62.74,2.81,1.03,1.48.3,2.41.54,2.81.74,1.08.39,2.17.59,3.25.59,1.97-.2,3.79.84,5.47,3.1.2.3.59.94,1.18,1.92.39.89.84,1.53,1.33,1.92.2.3.2.74,0,1.33-.2.3-.44.64-.74,1.03-4.34,6.31-8.33,14.83-11.97,25.57-.3.59-.84,2.27-1.63,5.02-1.18,4.24-2.32,7.34-3.4,9.31-.99,1.97-1.58,4.04-1.77,6.21-.1,1.68-.69,3.79-1.77,6.36-.69,1.77-1.03,3.7-1.03,5.76v1.92c0,.59-.25,1.23-.74,1.92-1.09,1.28-1.73,2.17-1.92,2.66-.39,1.18-.25,2.22.44,3.1.1.1.24.25.44.44.2.2.34.35.44.44.39.59.54,1.23.44,1.92-.2.99-.39,1.82-.59,2.51-.2.49-.54,1.33-1.03,2.51-.39.99-.69,1.77-.89,2.36-.99,3.06-1.63,5.62-1.92,7.69-.1.79-.3,2.22-.59,4.29-.3,1.77-.5,3.15-.59,4.14-.1.49-.3,1.13-.59,1.92-.39.98-.99,1.58-1.77,1.77-.59.2-.99.35-1.18.44-1.09.39-1.53,1.09-1.33,2.07.39,2.17.64,3.25.74,3.25.1-.49-.15.35-.74,2.51-1.09,3.75-1.77,7.64-2.07,11.68,0,.39-.05,1.03-.15,1.92-.1.89-.2,1.53-.3,1.92-.1,1.68.64,2.71,2.22,3.1,2.17.49,4.04,1.09,5.62,1.77,1.08.39,1.97.99,2.66,1.77.69.79,1.77,2.17,3.25,4.14.3.3.39.69.3,1.18-.1.59-.35.94-.74,1.03,0,.1-.1.15-.3.15-.1.1-.2.15-.3.15-1.58.79-3.01,1.23-4.29,1.33-1.09,0-2.36.35-3.84,1.03-1.09.59-1.77,1.13-2.07,1.62-.69,1.18-1.92,2.02-3.7,2.51-.49.2-.74.49-.74.89-.1.49.1.94.59,1.33l1.03.59c.79.49,1.08,1.23.89,2.22,0,.49-.2,1.48-.59,2.96-.29,1.18-.49,2.17-.59,2.95-.2,2.17-.2,3.7,0,4.58.3,1.18.15,2.66-.44,4.43-.29.69-.15,1.28.44,1.77,1.08.89,1.62,2.07,1.62,3.55-.1.89.3,1.58,1.18,2.07,1.18.69,1.58,1.87,1.18,3.55-1.38,4.93-2.66,8.42-3.84,10.49-.99,1.68-1.38,3.35-1.18,5.03.1.98-.05,2.07-.44,3.25-.59,1.48-1.09,2.66-1.48,3.55-1.18,2.76-1.97,5.52-2.36,8.28-.39,2.07-.84,4.24-1.33,6.5-.2.69-.59,1.43-1.18,2.22-.69,1.08-1.77,1.72-3.25,1.92-.39.1-.79,0-1.18-.29-.89-.59-1.58-1.18-2.07-1.77.1.1-1.13-1.43-3.7-4.58-1.18-1.48-1.53-2.91-1.03-4.29.3-.69.39-1.77.3-3.25,0-1.97.24-3.7.74-5.17.2-.79.3-1.43.3-1.92.1-1.48.64-3.35,1.63-5.62.79-1.87,1.18-3.79,1.18-5.76-.1-2.56.2-7.19.89-13.89.1-1.38.44-2.61,1.03-3.7.49-.98.79-1.58.89-1.77,1.67-3.05,2.46-6.45,2.36-10.2,0-.69-.2-1.28-.59-1.77-.39-.69-.44-1.53-.15-2.51.59-2.27.94-3.55,1.03-3.84.1-.59.1-1.23,0-1.92-.2-1.08-.74-1.77-1.63-2.07-1.68-.59-3.35-1.08-5.02-1.48-.39-.1-1.03-.2-1.92-.3-.89-.1-1.53-.2-1.92-.3-.39-.1-2.51-.69-6.36-1.77-1.18-.39-1.82-.59-1.92-.59-1.18-.1-4.83-.79-10.94-2.07-.3-.1-.74-.15-1.33-.15-2.66-.39-4.68.64-6.06,3.1-.2.49-.3.69-.3.59-2.76,7.19-4.24,11.53-4.43,13-.2,1.48-.79,2.91-1.77,4.29-1.97,3.06-3.94,6.95-5.91,11.68-.39.89-.69,1.48-.89,1.77-2.56,4.73-4.88,11.13-6.95,19.21-.98,4.24-2.12,7.78-3.4,10.64-.39.99-1.13,3.06-2.22,6.21-1.68,5.12-4.68,9.61-9.01,13.45-.59.49-1.13.89-1.63,1.18-1.28.49-2.51.94-3.7,1.33-.79.2-1.67.15-2.66-.15-.69-.3-1.23-.59-1.63-.89-1.67-1.28-4.68-3.1-9.01-5.47-.59-.39-.89-.98-.89-1.77,0-.89.1-1.72.3-2.51.1-.39.35-1.03.74-1.92.59-1.08,1.73-3.45,3.4-7.09,1.28-3.05,2.36-5.47,3.25-7.24-.39.79.3-.79,2.07-4.73,1.97-4.53,3.35-7.54,4.14-9.01,1.28-2.86,2.66-5.07,4.14-6.65l1.18-1.62c.49-.69.79-1.53.89-2.51v-2.66c0-1.18.49-2.36,1.48-3.55.39-.49,1.43-1.62,3.1-3.4,1.28-1.48,2.31-3.4,3.1-5.76,0-.3.05-.74.15-1.33.39-2.76,1.48-5.12,3.25-7.09,1.67-2.07,3.05-4.53,4.14-7.39.39-1.18.59-2.27.59-3.25,0-.49-.05-.94-.15-1.33-.3-2.17.3-4.48,1.77-6.95.69-1.18,1.58-2.12,2.66-2.81,1.18-.79,2.17-1.97,2.96-3.55,1.38-2.66,2.66-5.17,3.84-7.54,5.12-10.84,8.18-17.19,9.16-19.07,1.38-2.66,2.86-5.81,4.43-9.46.98-2.36,2.17-4.48,3.55-6.36.29-.3.93-1.18,1.92-2.66h-.15c.1-.39.94-2.86,2.51-7.39ZM524.16,193.41c.2-.1.24-.24.15-.44-.3-.49-.54-.49-.74,0-.1,0-.1.2,0,.59l.59-.15ZM537.91,174.64l.44-.3c-1.68,4.14-2.66,6.55-2.96,7.24-.3.59-.49,1.23-.59,1.92-.39,2.27-1.43,5.86-3.1,10.79-.2.3-1.48,3.55-3.84,9.75-.59,1.48-.99,2.96-1.18,4.43-.2,1.28.29,2.22,1.48,2.81.59.3.79.39.59.3,3.35,1.09,5.22,1.68,5.62,1.77,5.71.99,9.41,1.48,11.08,1.48.69,0,1.77.15,3.25.44,1.87.3,4.04.15,6.5-.44l.59-.15c.79-.49,1.28-.94,1.48-1.33.49-1.38.69-3.15.59-5.32,0-2.76.24-6.45.74-11.08.59-5.42.94-9.16,1.03-11.23,0-.39.1-1.03.3-1.92.69-2.95.94-6.21.74-9.75-.2-2.96-.1-5.37.29-7.24.49-2.07.59-4.24.3-6.5-.59-4.14-.59-8.52,0-13.15.1-.89.05-1.77-.15-2.66-.3-1.28-1.09-1.87-2.36-1.77-1.09.1-1.82.54-2.22,1.33-.29.59-.69,1.48-1.18,2.66-.59,1.28-1.03,2.17-1.33,2.66-.1.3-.39.59-.89.89-.1,0-.54.05-1.33.15-1.09.2-1.92.84-2.51,1.92-.39.69-.94,1.62-1.62,2.81-.79,1.58-1.28,2.56-1.48,2.95-2.07,3.75-3.4,7.19-3.99,10.35-.1.39-.2.94-.3,1.62,0,.79-.05,1.33-.15,1.63-.1.39-.35.74-.74,1.03-1.09.89-2.02,1.48-2.81,1.77l-.3.15ZM562.74,115.97c-.3-.49-.89-.39-1.77.3-1.28,1.09-2.22,2.27-2.81,3.55-.49,1.18-2.12,4.29-4.88,9.31-1.77,3.15-3.1,6.16-3.99,9.01-.49,1.58-1.23,2.91-2.22,3.99-.49.69-2.36,3.65-5.62,8.87-1.09,1.68-1.68,3.74-1.77,6.21,0,.3.1.69.3,1.18.49.99,1.08,1.13,1.77.44.59-.59,1.33-1.67,2.22-3.25,1.38-2.66,4.38-8.28,9.01-16.85,3.74-6.89,6.75-12.46,9.01-16.7.39-.79.74-1.58,1.03-2.36.39-.98.49-1.87.3-2.66-.1-.39-.3-.74-.59-1.03ZM548.99,130.9c0,.1-.05-.1-.15-.59-.3-.98-.84-1.18-1.63-.59-1.48,1.09-2.07,2.81-1.77,5.17.1.3.34.49.74.59.39.1.69.05.89-.15,1.18-.69,1.82-1.62,1.92-2.81v-1.63ZM559.49,137.99c.49.2.98.15,1.48-.15.49-.3.74-.74.74-1.33,0-.49-.05-.89-.15-1.18-.39-1.28-1.09-1.53-2.07-.74-.79.49-1.18,1.18-1.18,2.07-.1.59.29,1.03,1.18,1.33ZM571.16,158.83c-.39-.1-.74.05-1.03.44-.39.39-.35.74.15,1.03.69.49,1.18.35,1.48-.44.1-.49-.1-.84-.59-1.03Z"/>
      <path class="cls-1" d="M713.77,156.91c.98-2.96,2.22-5.27,3.7-6.95,1.08-1.28,1.87-2.86,2.36-4.73.2-.3.39-.79.59-1.48.2-.69.35-1.23.44-1.63,1.08-3.74,2.95-7.19,5.62-10.35.2-.2.49-.49.89-.89.39-.49.69-.83.89-1.03.89-.98,1.48-1.92,1.77-2.81,1.08-2.95,3.1-7.09,6.06-12.41.39-.69,1.33-2.66,2.81-5.91-.2.39.1-.44.89-2.51.79-1.87,2.02-3.7,3.69-5.47.59-.59.94-1.38,1.04-2.36,0-1.28.34-2.51,1.03-3.7,1.97-3.84,3.89-8.03,5.76-12.56.69-1.68,2.02-2.76,3.99-3.25,1.58-.49,3.05-.69,4.43-.59,1.08.1,2.86.3,5.32.59.59.1.98.25,1.18.44.69.39,1.62.74,2.81,1.03,1.48.3,2.41.54,2.81.74,1.08.39,2.17.59,3.25.59,1.97-.2,3.79.84,5.47,3.1.2.3.59.94,1.18,1.92.39.89.84,1.53,1.33,1.92.2.3.2.74,0,1.33-.2.3-.44.64-.74,1.03-4.34,6.31-8.33,14.83-11.97,25.57-.3.59-.84,2.27-1.63,5.02-1.18,4.24-2.32,7.34-3.4,9.31-.99,1.97-1.58,4.04-1.77,6.21-.1,1.68-.69,3.79-1.77,6.36-.69,1.77-1.03,3.7-1.03,5.76v1.92c0,.59-.25,1.23-.74,1.92-1.09,1.28-1.73,2.17-1.92,2.66-.39,1.18-.25,2.22.44,3.1.1.1.24.25.44.44.2.2.34.35.44.44.39.59.54,1.23.44,1.92-.2.99-.39,1.82-.59,2.51-.2.49-.54,1.33-1.03,2.51-.39.99-.69,1.77-.89,2.36-.99,3.06-1.63,5.62-1.92,7.69-.1.79-.3,2.22-.59,4.29-.3,1.77-.5,3.15-.59,4.14-.1.49-.3,1.13-.59,1.92-.39.98-.99,1.58-1.77,1.77-.59.2-.99.35-1.18.44-1.09.39-1.53,1.09-1.33,2.07.39,2.17.64,3.25.74,3.25.1-.49-.15.35-.74,2.51-1.09,3.75-1.77,7.64-2.07,11.68,0,.39-.05,1.03-.15,1.92-.1.89-.2,1.53-.3,1.92-.1,1.68.64,2.71,2.22,3.1,2.17.49,4.04,1.09,5.62,1.77,1.08.39,1.97.99,2.66,1.77.69.79,1.77,2.17,3.25,4.14.3.3.39.69.3,1.18-.1.59-.35.94-.74,1.03,0,.1-.1.15-.3.15-.1.1-.2.15-.3.15-1.58.79-3.01,1.23-4.29,1.33-1.09,0-2.36.35-3.84,1.03-1.09.59-1.77,1.13-2.07,1.62-.69,1.18-1.92,2.02-3.7,2.51-.49.2-.74.49-.74.89-.1.49.1.94.59,1.33l1.03.59c.79.49,1.08,1.23.89,2.22,0,.49-.2,1.48-.59,2.96-.29,1.18-.49,2.17-.59,2.95-.2,2.17-.2,3.7,0,4.58.3,1.18.15,2.66-.44,4.43-.29.69-.15,1.28.44,1.77,1.08.89,1.62,2.07,1.62,3.55-.1.89.3,1.58,1.18,2.07,1.18.69,1.58,1.87,1.18,3.55-1.38,4.93-2.66,8.42-3.84,10.49-.99,1.68-1.38,3.35-1.18,5.03.1.98-.05,2.07-.44,3.25-.59,1.48-1.09,2.66-1.48,3.55-1.18,2.76-1.97,5.52-2.36,8.28-.39,2.07-.84,4.24-1.33,6.5-.2.69-.59,1.43-1.18,2.22-.69,1.08-1.77,1.72-3.25,1.92-.39.1-.79,0-1.18-.29-.89-.59-1.58-1.18-2.07-1.77.1.1-1.13-1.43-3.7-4.58-1.18-1.48-1.53-2.91-1.03-4.29.3-.69.39-1.77.3-3.25,0-1.97.24-3.7.74-5.17.2-.79.3-1.43.3-1.92.1-1.48.64-3.35,1.63-5.62.79-1.87,1.18-3.79,1.18-5.76-.1-2.56.2-7.19.89-13.89.1-1.38.44-2.61,1.03-3.7.49-.98.79-1.58.89-1.77,1.67-3.05,2.46-6.45,2.36-10.2,0-.69-.2-1.28-.59-1.77-.39-.69-.44-1.53-.15-2.51.59-2.27.94-3.55,1.03-3.84.1-.59.1-1.23,0-1.92-.2-1.08-.74-1.77-1.63-2.07-1.68-.59-3.35-1.08-5.02-1.48-.39-.1-1.03-.2-1.92-.3-.89-.1-1.53-.2-1.92-.3-.39-.1-2.51-.69-6.36-1.77-1.18-.39-1.82-.59-1.92-.59-1.18-.1-4.83-.79-10.94-2.07-.3-.1-.74-.15-1.33-.15-2.66-.39-4.68.64-6.06,3.1-.2.49-.3.69-.3.59-2.76,7.19-4.24,11.53-4.43,13-.2,1.48-.79,2.91-1.77,4.29-1.97,3.06-3.94,6.95-5.91,11.68-.39.89-.69,1.48-.89,1.77-2.56,4.73-4.88,11.13-6.95,19.21-.98,4.24-2.12,7.78-3.4,10.64-.39.99-1.13,3.06-2.22,6.21-1.68,5.12-4.68,9.61-9.01,13.45-.59.49-1.13.89-1.63,1.18-1.28.49-2.51.94-3.7,1.33-.79.2-1.67.15-2.66-.15-.69-.3-1.23-.59-1.63-.89-1.67-1.28-4.68-3.1-9.01-5.47-.59-.39-.89-.98-.89-1.77,0-.89.1-1.72.3-2.51.1-.39.35-1.03.74-1.92.59-1.08,1.73-3.45,3.4-7.09,1.28-3.05,2.36-5.47,3.25-7.24-.39.79.3-.79,2.07-4.73,1.97-4.53,3.35-7.54,4.14-9.01,1.28-2.86,2.66-5.07,4.14-6.65l1.18-1.62c.49-.69.79-1.53.89-2.51v-2.66c0-1.18.49-2.36,1.48-3.55.39-.49,1.43-1.62,3.1-3.4,1.28-1.48,2.31-3.4,3.1-5.76,0-.3.05-.74.15-1.33.39-2.76,1.48-5.12,3.25-7.09,1.67-2.07,3.05-4.53,4.14-7.39.39-1.18.59-2.27.59-3.25,0-.49-.05-.94-.15-1.33-.3-2.17.3-4.48,1.77-6.95.69-1.18,1.58-2.12,2.66-2.81,1.18-.79,2.17-1.97,2.96-3.55,1.38-2.66,2.66-5.17,3.84-7.54,5.12-10.84,8.18-17.19,9.16-19.07,1.38-2.66,2.86-5.81,4.43-9.46.98-2.36,2.17-4.48,3.55-6.36.29-.3.93-1.18,1.92-2.66h-.15c.1-.39.94-2.86,2.51-7.39ZM708.01,193.41c.2-.1.24-.24.15-.44-.3-.49-.54-.49-.74,0-.1,0-.1.2,0,.59l.59-.15ZM721.75,174.64l.44-.3c-1.68,4.14-2.66,6.55-2.96,7.24-.3.59-.49,1.23-.59,1.92-.39,2.27-1.43,5.86-3.1,10.79-.2.3-1.48,3.55-3.84,9.75-.59,1.48-.99,2.96-1.18,4.43-.2,1.28.29,2.22,1.48,2.81.59.3.79.39.59.3,3.35,1.09,5.22,1.68,5.62,1.77,5.71.99,9.41,1.48,11.08,1.48.69,0,1.77.15,3.25.44,1.87.3,4.04.15,6.5-.44l.59-.15c.79-.49,1.28-.94,1.48-1.33.49-1.38.69-3.15.59-5.32,0-2.76.24-6.45.74-11.08.59-5.42.94-9.16,1.03-11.23,0-.39.1-1.03.3-1.92.69-2.95.94-6.21.74-9.75-.2-2.96-.1-5.37.29-7.24.49-2.07.59-4.24.3-6.5-.59-4.14-.59-8.52,0-13.15.1-.89.05-1.77-.15-2.66-.3-1.28-1.09-1.87-2.36-1.77-1.09.1-1.82.54-2.22,1.33-.29.59-.69,1.48-1.18,2.66-.59,1.28-1.03,2.17-1.33,2.66-.1.3-.39.59-.89.89-.1,0-.54.05-1.33.15-1.09.2-1.92.84-2.51,1.92-.39.69-.94,1.62-1.62,2.81-.79,1.58-1.28,2.56-1.48,2.95-2.07,3.75-3.4,7.19-3.99,10.35-.1.39-.2.94-.3,1.62,0,.79-.05,1.33-.15,1.63-.1.39-.35.74-.74,1.03-1.09.89-2.02,1.48-2.81,1.77l-.3.15ZM746.58,115.97c-.3-.49-.89-.39-1.77.3-1.28,1.09-2.22,2.27-2.81,3.55-.49,1.18-2.12,4.29-4.88,9.31-1.77,3.15-3.1,6.16-3.99,9.01-.49,1.58-1.23,2.91-2.22,3.99-.49.69-2.36,3.65-5.62,8.87-1.09,1.68-1.68,3.74-1.77,6.21,0,.3.1.69.3,1.18.49.99,1.08,1.13,1.77.44.59-.59,1.33-1.67,2.22-3.25,1.38-2.66,4.38-8.28,9.01-16.85,3.74-6.89,6.75-12.46,9.01-16.7.39-.79.74-1.58,1.03-2.36.39-.98.49-1.87.3-2.66-.1-.39-.3-.74-.59-1.03ZM732.84,130.9c0,.1-.05-.1-.15-.59-.3-.98-.84-1.18-1.63-.59-1.48,1.09-2.07,2.81-1.77,5.17.1.3.34.49.74.59.39.1.69.05.89-.15,1.18-.69,1.82-1.62,1.92-2.81v-1.63ZM743.33,137.99c.49.2.98.15,1.48-.15.49-.3.74-.74.74-1.33,0-.49-.05-.89-.15-1.18-.39-1.28-1.09-1.53-2.07-.74-.79.49-1.18,1.18-1.18,2.07-.1.59.29,1.03,1.18,1.33ZM755,158.83c-.39-.1-.74.05-1.03.44-.39.39-.35.74.15,1.03.69.49,1.18.35,1.48-.44.1-.49-.1-.84-.59-1.03Z"/>
      <path class="cls-1" d="M629.25,221.39c-1.84,4.46-3.45,8.69-4.8,12.66-.97,2.72-2.04,5.53-3.2,8.44-.29.68-.68,1.55-1.17,2.62-.58,1.26-.97,2.18-1.16,2.77-.29.49-.63,1.26-1.02,2.33-.39,1.16-.68,1.99-.87,2.47.19-.39-.49,1.17-2.04,4.66-.58,1.36-1.31,2.43-2.18,3.2-.29.29-.44.68-.44,1.17-.1,1.36-.1,2.47,0,3.35.19,2.23-.29,4.51-1.46,6.84h-.14.29c-.49,1.26-1.46,2.28-2.91,3.06v-.15l.58,1.17c.29.78.39,1.41.29,1.89-.2.97-.39,1.85-.58,2.62-1.46,4.56-2.48,8.3-3.06,11.21-.2,1.07-.63,2.23-1.31,3.49-1.26,2.14-1.84,3.06-1.75,2.77-.97,2.14-2.43,3.98-4.37,5.53-3.4,2.91-4.85,4.17-4.37,3.78-.58.39-1.17.68-1.75.87-.49.09-.87-.05-1.17-.44-.58-1.07-1.21-2.67-1.89-4.8-.1-.68-.15-1.31-.15-1.89.29-2.62.78-4.71,1.46-6.26.48-1.46,1.26-3.73,2.33-6.84.78-2.23,1.26-3.88,1.46-4.95.09-.68.58-2.33,1.46-4.95,1.65-5.14,2.81-9.51,3.49-13.1.49-2.23,1.21-3.98,2.18-5.24.09-.19.14-.44.14-.73,0-.1-.05-.29-.14-.58-.2-.97-.15-2.04.14-3.2,1.94-7.47,3.15-12.27,3.64-14.41.39-1.75,1.26-3.15,2.62-4.22.19-.09.34-.24.44-.44.1-.68.14-1.11.14-1.31-.97-1.55-1.12-3.15-.44-4.8.19-2.23,1.07-4.41,2.62-6.55l-.29.29.29-.29c-.1-.87,0-1.7.29-2.48.97-2.13,1.7-4.37,2.18-6.69.39-1.65.58-2.96.58-3.93.19-2.23.58-4.32,1.16-6.26.39-1.26.97-3.35,1.75-6.26.77-2.72,1.4-4.8,1.89-6.26.29-1.17.73-2.13,1.31-2.91.39-.68.58-1.26.58-1.75,0-1.55.39-4.12,1.16-7.71,1.55-7.08,2.47-11.06,2.77-11.94.29-1.07.92-4.27,1.89-9.61.19-1.36.58-3.49,1.16-6.4.49-2.72.87-4.85,1.17-6.4,0-.19.24-1.02.73-2.48.19-.58.58-1.07,1.16-1.46.97-.58,1.21-1.31.73-2.18-.68-1.26-1.02-2.67-1.02-4.22,0-.19.19-1.94.58-5.24.1-.29.19-1.17.29-2.62,0-1.07-.58-1.65-1.75-1.75h-1.31c-.97.2-1.8.44-2.47.73-1.75.58-4.08.87-6.99.87-.68,0-1.31-.09-1.89-.29-1.17-.29-2.43-.68-3.79-1.17-.2-.09-.58-.29-1.16-.58-.49-.29-.87-.44-1.17-.44-2.82-.77-7.18-3.15-13.1-7.13-.87-.58-1.85-1.4-2.91-2.47-1.65-1.75-2.09-3.74-1.31-5.97.19-.68.49-1.26.87-1.75,1.65-1.84,3.54-3.25,5.68-4.22,4.75-2.23,9.65-3.88,14.7-4.95,1.46-.39,2.47-.68,3.06-.87.97-.29,2.47-.58,4.51-.87,1.36-.19,2.18-.39,2.48-.58,1.46-.58,4.22-1.12,8.3-1.6,3.49-.39,5.63-.68,6.4-.87,4.17-.97,8.88-1.17,14.12-.58.77,0,1.65.1,2.62.29.68.1,1.55.05,2.62-.15,2.43-.48,4.32-.77,5.68-.87,3.3-.39,6.06-.19,8.3.58,3.01,1.07,6.21,1.07,9.61,0,1.36-.39,2.42-.63,3.2-.73,2.91-.29,7.52-1.31,13.83-3.06,3.11-.77,6.11-1.02,9.03-.73,3.49.39,5.43.63,5.82.73,1.65.2,2.33,1.17,2.04,2.91-.2.97-.29,1.41-.29,1.31-1.07,4.08-2.43,8.59-4.08,13.54-.29,1.07-.92,1.89-1.89,2.47-3.3,2.14-6.4,3.69-9.32,4.66-.68.29-1.6.63-2.77,1.02-1.26.49-2.14.83-2.62,1.02-1.36.49-2.18.73-2.47.73-1.26.2-4.22.97-8.88,2.33-3.4.97-8.73,2.67-16.01,5.09-1.07.29-2.67.87-4.8,1.75-2.23.78-3.88,1.36-4.95,1.75-.2,0-.49.1-.87.29-.39.2-.68.34-.87.44-1.46.49-2.43,1.55-2.91,3.2-.2.87-.29,1.51-.29,1.89-.39,3.11-.97,8.73-1.75,16.88-.68,7.38-2.18,14.51-4.51,21.4-.39.97-.68,1.55-.87,1.75-.78,1.07-1.26,2.47-1.46,4.22-.1.97-.44,1.99-1.02,3.06-.29.39-.39.78-.29,1.17.09.97-.15,2.47-.73,4.51-2.14,6.7-3.35,10.82-3.64,12.37-.2,1.26-.92,2.28-2.18,3.06-2.14,1.36-3.2,2.09-3.2,2.18-.29.29-.39.68-.29,1.16.1.49.53,1.22,1.31,2.18.58.87.68,1.89.29,3.06-.49,1.55-1.07,2.72-1.75,3.49v-.14c-.2,1.07-1.26,3.88-3.2,8.44ZM599.85,288.5l-.29.14c-.49-.58-.63-.87-.44-.87.29.49.49.78.58.87l.14-.14ZM605.38,257.49c-.39-.48-.78-.48-1.17,0-.1.2-.1.34,0,.44.29.49.63.53,1.02.14l.15-.58ZM604.94,272.05l-.44.44c0,.1-.05.29-.14.58.19-.48.34-.82.44-1.02h.14ZM609.6,262.29c-.1-.58-.58-.82-1.46-.73-.49,0-.78.2-.87.58-.29.68-.1,1.16.58,1.46h.58c.87-.09,1.26-.53,1.16-1.31ZM619.94,230.56c-.29.29-.29.63,0,1.02.19.39.53.49,1.02.29.39-.19.63-.49.73-.87,0-.39-.24-.73-.73-1.02-.39,0-.73.2-1.02.58ZM621.98,100.14c-.29-.39-.68-.58-1.17-.58-.39.1-.39.29,0,.58.29.2.68.14,1.17-.15.09,1.55.29,2.77.58,3.64h-.14c.1-.29-.05-1.46-.44-3.49ZM620.81,225.61l-.14.44.44.15c.29-.49.19-.68-.29-.58ZM621.1,205.38v.29l.44-.14-.44-.15ZM623.43,194.03c-.1-.19-.24-.29-.44-.29-.49-.1-.73.1-.73.58.09.58.39.83.87.73.49-.19.58-.53.29-1.02ZM626.05,185.44c-.39-.39-.73-.34-1.02.14-.2.2-.34.58-.44,1.16,0,.2.1.34.29.44.39.39.73.39,1.02,0,.1-.1.24-.53.44-1.31l-.29-.44ZM628.67,199.27l-.29-.29.29.15v.14ZM631.73,180.35c-.2.1-.29.24-.29.44-.1.49.09.78.58.87.49,0,.68-.29.58-.87-.1-.49-.39-.63-.87-.44ZM636.09,190.83c-.58.1-1.16.2-1.75.29l.15-.14c.19.2.58.73,1.16,1.6v1.31c.1.58.39.63.87.15.19-.19.19-.34,0-.44.39.39.09.05-.87-1.02.1-.39.19-1.02.29-1.89l.14.14ZM636.39,179.04l.29.14-.44-.14h.14ZM645.12,141.04h-.44c-.49-.09-.49-.19,0-.29,0,.1.05.2.14.29.68-.48.78-.48.29,0ZM671.32,115.57v.58c.19.1.34.05.44-.15v-.44h-.44Z"/>
    </g>
  </g>
</svg>