<?xml version="1.0" encoding="UTF-8"?>
<svg id="Layer_2" data-name="Layer 2" xmlns="http://www.w3.org/2000/svg" viewBox="0 0 122.2 144.93">
  <g id="Layer_1-2" data-name="Layer 1">
    <g>
      <path d="M121.14,56.79c-.32-3.14-.25-6.46-1.71-9.35-.5-1.18-1.43-2.18-2.61-2.68-1.86-.86-3.57-2.03-5.25-3.21-.29-.21-.61-.43-1-.5-.43-.11-1.07-.04-1.25-.57-.43-1.03-.5-2.21-.43-3.32.07-1,.75-1.75,1.25-2.53,1-1.36,1.79-2.82,2.21-4.42.29-1.36.61-2.75.07-4.07-.43-.93-.82-2.03-1.86-2.43-.14-.54-.61-.82-1.04-1.07-1.43-.75-2.96-1.25-4.57-1.25-2,.14-4.11.78-5.47,2.32-.46.57-.5,1.36-.71,2.03.07.07.21.21.32.32-.18.78-.43,1.57-.89,2.28-.43.64.14,1.39.11,2.07-.25.78-.89,1.46-.79,2.32.18,1.39.96,2.68.93,4.1,0,.5-.04,1.07.36,1.46.57.54,1.43.64,2.14.86-.11.39,0,1-.54,1.14-.54.11-1.18.32-1.68.11-.29-.86-1.04-1.39-1.79-1.78-.71-.36-1.46.18-2.18-.11-1.93-.68-3.97-1.11-6-1.32-.54-.61-1.32-.68-2.07-.75-1.32-.89-2.54-1.93-3.86-2.82-.39-.46-.57-1.07-.96-1.53-.57-.82-1.39-1.5-1.64-2.53-.29-1.14-1-2.11-1.07-3.32-.04-.96-.64-1.78-.57-2.75.04-.54-.29-.93-.5-1.39-.29-1.18-.14-2.39-.54-3.53-.18-.5-.04-1.03.14-1.5.32-.75,1.04-1.25,1.29-2.03.29-.89.75-1.71,1.21-2.53.25-.43.89-.5,1.04-1-.18-.46-.79-.5-1.18-.36-.57.18-.96.61-1.39,1.03,0-1.46.25-2.93.11-4.42-.11-.71.14-1.75-.71-2.07-.11.11-.32.36-.43.46-.11-.39-.14-1.18-.75-1.03-.46.14-.54.64-.61,1.03-.14-.04-.43-.11-.57-.14-.21.21-.46.43-.46.75-.18,1.43-.21,2.89-.43,4.35-.18-.78-.18-1.64-.39-2.43-.14-.5-.86-.18-.89.25-.14,1.36.25,2.75-.14,4.1-.36,1.28-.57,2.64-.39,3.96.11.75.43,1.43.68,2.11-.29.36-.86.64-.75,1.18.21,1.11.32,2.21.14,3.32-.18,1.25-.04,2.53.11,3.78.36,2.28.86,4.57,1.21,6.85.18,1.14.46,2.35,1.32,3.18,3.36,3.5,7.11,6.56,11.04,9.42.86.68,1.93,1.39,2.14,2.53.32,1.43.32,2.85.39,4.28.11,3.53-.07,7.1-.46,10.6-.46,4.46-1.43,8.85-2.18,13.24-.11.46-.25.93-.39,1.36,1,.78,2.32.96,3.47,1.46-.82,2.39-1.21,4.92-1.32,7.46-.75,6.28,0,12.6.39,18.87.21,2.18.04,4.46,1.07,6.42.18.43.54.96.25,1.46-.5.86-1.29,1.64-1.21,2.71.07,1.39.54,2.71.86,4.03.57,2.28,1.43,4.53,1.5,6.92-.11,1.86-.89,3.57-1.64,5.25-.39.82.18,1.64.79,2.18-.29.57-.43,1.21-.93,1.64-1.36,1.36-2.97,2.64-4.93,2.93-.64.18-1.39.14-1.96.54-.5.57-1.04,1.68-.14,2.14,1.75.82,3.75,1.03,5.64.93,1.75-.04,3.43-.54,5.14-.68,1.79-.18,3.61-.07,5.39-.36.43-.07.96-.29,1.14-.75.21-.64-.07-1.25-.21-1.85v-3.14c0-.43-.25-.79-.46-1.11.43-.21.96-.5.89-1.07,0-.96-.86-1.53-1.5-2.14.14-2.28.54-4.57.71-6.85.21-3.53.21-7.07.21-10.6,0-.54-.32-1.04-.36-1.57.25-.71.54-1.43.54-2.18,0-1.96.32-3.92.32-5.89,0-2.5.71-4.89,1.29-7.28,1.57,3.85,2.64,7.92,3.61,11.99.43,1.64.32,3.43.89,5.03.29.78.57,1.61.68,2.43.21,1.07-.29,2.07-.29,3.14,0,2.14-.43,4.25-.29,6.39.22,1.75.43,3.57,1.25,5.17.29.57.79,1.14.61,1.82-.04.54-.68.57-1.04.79-.61.25-.82.96-.71,1.57.21,1.21.71,2.39,1.5,3.32.61,1.43.11,3.07.57,4.49.36.61,1.18.43,1.75.46,1.64-.07,3.29.14,4.89-.11.97-.21.64-1.43.75-2.14-.18-1.18-1.07-2.14-1.29-3.28.54-.86,1-1.78,1.14-2.78.11-1-1.04-1.32-1.71-1.71.96-1.78,1.07-3.89,1.36-5.85.36-3.1.47-6.21.36-9.31-.07-.93.39-1.93-.18-2.75-.46-.71-.07-1.61-.25-2.39-.11-.93-.82-1.75-.57-2.71.54-3.14.07-6.31-.43-9.42-.11-1.14-.43-2.28-.25-3.46.14-.93,0-1.89.32-2.82.29-1.07.61-2.18.43-3.32-.21-1.53.04-3.07-.25-4.6-.07-.96-.43-1.93-.25-2.93-.21-.96-.36-1.96-.21-2.93.25-1.36.39-2.78.25-4.17-.14-1.03-.93-1.89-.96-2.96.36-.64.86-1.21.96-1.96.43-1.61-.54-3.14-1.25-4.5.71-1.21.96-2.57,1.57-3.82.14.57.29,1.11.43,1.68.57,2.21.5,4.53.57,6.81.39,2.46.54,4.96,1.04,7.39.21.71-.14,1.39-.11,2.11.07.39.25.78.43,1.14-.18.78-.54,1.53-.93,2.25-.21.96-.75,1.82-.75,2.82,0,1.25-.29,2.46-.32,3.71,0,.39.39.64.75.36,1.07-.68.86-2.14,1.18-3.18.36,0,.75.25.68.64-.04,1-.07,2.07-.61,2.96-.25.54-.72.89-1.07,1.36.04.21.11.46.18.68.96-.14,1.93-.36,2.75-.93,1-.5,1.93-1.28,2.29-2.35.11-1.14.57-2.28.25-3.43,0-1.07-.11-2.14,0-3.21,0-.61.46-1.07.61-1.61.18-.75,0-1.53.11-2.28.07-.71.29-1.39.39-2.07.43-3.67.11-7.39-.29-11.06,0-4.07,0-8.13-.46-12.17l-.11.18Z"/>
      <path d="M70.06,4.2c-.07-.32-.39-.43-.68-.43-.11.25-.18.46-.25.71-.14-.86-.21-1.75-.46-2.6-.11-.43-.57-.54-.96-.57-.18-.46-.29-1.03-.75-1.25-.18-.04-.5-.14-.57.07-.07.71-.29,1.39-.14,2.11.14,1.18.11,2.43.46,3.57.18.61.36,1.18.54,1.78-.5-.18-1.11-.18-1.43.32.36.43.75.86.89,1.39.39,1,.29,2.14.86,3.07.43.75.61,1.71.18,2.53-.18.68-.93.93-1.25,1.5-.64,1-1.25,2-1.96,2.96-.43.54-.46,1.28-.96,1.75-.86.89-1.64,1.89-2.57,2.75-.46.39-.71,1.11-1.39,1.21-.71.32-1.32.89-1.75,1.57-.61.14-1.07.5-1.39,1-.25-.07-.54-.18-.79-.21-.39.07-.75.43-1.18.39-1.54,0-3.11.21-4.54.75-.79-.46-1.68-.25-2.54,0-.21-.11-.39-.25-.64-.32-2.18-.61-4.47-1.11-6.75-1,.21-.46.36-1,.61-1.46,1.11-.61,2.5.04,3.61-.54.75-.54.5-1.53.11-2.18.11-.32.25-.64.36-.96-.18-.21-.32-.43-.5-.64.46-.5.75-1.11.79-1.78.57,0,1.61.11,1.61-.71-.32-1.03-1.14-1.82-1.68-2.78-.43-.64.57-1.25.11-1.93-.5-1.07-.79-2.21-1.32-3.25.39-.14.75-.46.68-.93-.11-.78-.21-1.68-.89-2.18-.68-.46-1.54-.96-2.39-.68-.86.18-1.68-.21-2.54-.21-1.57-.04-3.14,0-4.64.43-2.21.78-3.61,2.96-4,5.21-.46,1.75-.29,3.67.57,5.28.71,1.32,1.43,2.68,1.64,4.14,0,1.11-.5,2.25-1.46,2.89-.71.11-1.46.07-2.14.36-.32-.57-.71-1.21-1.39-1.43-.68-.32-1.39,0-1.93.43-.93-.86-1.71-1.89-2.72-2.64-.79-.68-1.79-.93-2.75-1.18-1.14-.29-2.18-.89-3.36-1.18-1.96-.43-4,.11-5.86.82-1,.57-2.04,1.21-2.86,2.07-1,1.18-1.89,2.46-2.64,3.82-.36.68-.82,1.32-.93,2.11-.21,1.36-.43,2.75-.14,4.14-.5.75-1.11,1.43-1.46,2.25-.21.5-.61.86-.89,1.28.11.25.39.36.61.54-.32,1.28-.57,2.64-1.21,3.82-.25.5-.64.89-.96,1.39.11.32.39.61.75.71.5-.57.82-1.25,1.14-1.93-.04,2.43.11,4.85,0,7.28-.25,2.14-.21,4.32-.18,6.46,0,1.43.29,2.82.61,4.17.25,1.25.82,2.39,1.07,3.64-.64,1.28-1.07,2.71-1.04,4.17.07,1.03.39,2.07.5,3.1.32,2.07.25,4.25-.64,6.14-.32.46.36.5.61.68.43-.29.43-.78.57-1.21.64-1.96.68-4.14,0-6.14-.21-.71-.54-1.43-.54-2.18-.04-1.14.32-2.25.75-3.32.21.39.43.78.68,1.18-.46,1.53-.14,3.18.18,4.71.54,2.57.96,5.17.79,7.81.39,0,1.07,0,.93-.57-.11-1.89-.11-3.82-.5-5.71-.32-1.82-1.11-3.57-.93-5.42.79,1,1.82,1.71,2.97,2.21,1.82.78,3.82,1.25,5.82,1.46-.5,4.53-1.07,9.03-1.61,13.56-.04.46-.11,1,.18,1.43.32.57,1,.78,1.61.86,3.36.43,6.75.82,10.11,1.32.04,1.14.11,2.28.29,3.43.29,1.96.07,4,.25,5.99,0,.82.21,1.68-.11,2.5-.43,1.14-.89,2.36-.79,3.6.04.39-.25.71-.43,1.07-.64,1.04-.39,2.28-.79,3.39-1.36,4.53-1.32,9.28-1.71,13.95-.07,1.11-.18,2.25-.11,3.35,0,1,.79,1.78,1,2.75-.29.53-.75.93-.86,1.53-.18,1.04.5,1.96.46,2.96-.21,1.32-.54,2.6-.82,3.92-.18.82-.68,1.54-.86,2.35-.07.64.5,1.18,1.07,1.36,1.64.54,3.39.46,5.07.57,1.11.07,2.18.39,3.29.57,2.36.46,4.75.5,7.11.32,1.14-.14,2.32-.29,3.32-.86.54-.29.68-.93.64-1.5,2.75-.32,5.43.61,8.18.5,1.86-.07,3.82-.21,5.39-1.25,1-.61.79-2.18-.18-2.71-.93-.5-2.04-.36-3.07-.54-2-.25-3.75-1.32-5.36-2.5-.64-.46-1.36-.86-1.86-1.46-.29-.75-.18-1.71-.86-2.28-.18-.21-.5-.32-.54-.61.21-.64.61-1.25.57-1.96.07-1.36-.86-2.46-1.14-3.75,0-.96,0-1.96.07-2.93.21-2.53.25-5.1.54-7.63.11-.93.07-1.86.07-2.75.18-1,1.18-1.54,1.57-2.43,1-2.25.89-4.78.54-7.14-.71-3.39-.86-6.89-1-10.35.68-.54.68-1.5.82-2.28.61-4.82,1.18-9.63,1.75-14.49.07-.78.29-1.68-.29-2.32-.57-.61-1.46-.57-2.21-.68-.21-5.53-.32-11.06-.5-16.63-.18-2.6.43-5.14.86-7.71.57.96,1.07,2,1.29,3.1.25,1.53.18,3.1.21,4.67-.07.07-.21.21-.29.29.07.36.14.71.21,1.07.39-.11.82-.25,1.18-.43-.04-.39-.07-.75-.11-1.14h-.43c-.18-1.71.07-3.43-.21-5.14-.21-1.39-.68-2.78-1.5-3.92.21-1.21.43-2.43.5-3.64.57,0,1,.43,1.54.5.46-.29.61-.86.96-1.21,1.46-.14,2.97-.14,4.43-.43,2.11-.39,4.22-.82,6.29-1.32,1.29-.29,2.43-.93,3.68-1.28.46-.14,1-.29,1.29-.71,1.96-3.14,4.14-6.1,6.11-9.24.89-1.43,1.43-3.07,2.39-4.46.54-.61-.21-1.32-.46-1.89.32-.82.43-1.75.96-2.5.29-.43.61-.89.64-1.43.18-2.21-.79-4.28-1.79-6.17-.36-1.21,0-2.5-.25-3.71l.18-.18ZM26.29,25.89c-.14-.29-.54-.75-.14-1,.61-.43,1.32,0,1.75.46-.54.21-1.07.39-1.61.54ZM32.9,133.18c-.86-.71-1.86-1.32-2.61-2.14-.29-.25-.18-.68-.29-1-.07-.46-.46-.86-.39-1.36,0-.86-.14-1.68-.57-2.43.18-.25.39-.46.61-.71,0-1.53-1.25-2.89-.89-4.46.29-1.57.43-3.17.68-4.74.25-2.25,1.61-4.25,1.39-6.57.57-.39,1.14-.82,1.68-1.32-.21,3.6-.18,7.21,0,10.78,0,2.53.43,5.1,1.29,7.49-.29,1.07-.32,2.21-.32,3.32.14,1.07-.36,2.1-.57,3.14ZM41.58,57.36c0,3.35,0,6.74-.04,10.1-.29,0-.54-.07-.79-.11.39-2.28.5-4.64.5-6.96.04-1.11.04-2.21.32-3.25h.14l-.11.21h-.04Z"/>
    </g>
  </g>
</svg>