<?xml version="1.0" encoding="UTF-8"?>
<svg id="Layer_2" data-name="Layer 2" xmlns="http://www.w3.org/2000/svg" viewBox="0 0 1104.96 285">
  <g id="Layer_2-2" data-name="Layer 2">
    <g>
      <path d="M.18,206.11c.95.12,1.48.18,1.6.18,2.37.36,3.62-.59,3.74-2.85,0,.24,0-1.36,0-4.81.12-3.44.18-6.05.18-7.83,0-1.9.36-3.68,1.07-5.34.6-1.66.95-2.96,1.07-3.92.12-.95.36-1.66.71-2.14.48-.47.89-1.3,1.25-2.49.48-1.07.95-1.84,1.42-2.31.95-2.61,1.48-4.09,1.6-4.45.36-1.07.89-1.96,1.6-2.67l-.18-.18c.59,1.9.53,3.62-.18,5.16,0,.24.06.47.18.71.36.47.77.65,1.25.53.36-.12.83-.36,1.42-.71,1.07-.47,2.31-.65,3.74-.53h.71l-.89.18v-1.6c.12-.95.59-1.54,1.42-1.78,1.18-.47,1.6-1.25,1.25-2.31v-.89c-.12-1.18.29-2.07,1.25-2.67,1.07-.59,1.66-1.66,1.78-3.2.12-.95-.24-1.54-1.07-1.78-.59-.24-1.07-.18-1.42.18l-1.07,1.07c-.71.71-1.42.95-2.14.71-1.78-.71-3.8-.41-6.05.89.24-.12-.3.42-1.6,1.6-.36.48-.83.53-1.42.18-.24-.24-.36-.47-.36-.71-.24-2.14.48-3.68,2.14-4.63l-.18.18.53-1.42c.36-.59.47-1.07.36-1.42-.48-1.18-.53-2.49-.18-3.92,1.9-7.12,4.21-13.76,6.94-19.93.47-.95.77-1.66.89-2.14.24-1.54,1.42-4.45,3.56-8.72,2.14,1.07,3.26,1.66,3.38,1.78.83.36,1.18.18,1.07-.53-.12-.24-.36-.36-.71-.36-.36-.12-1.6-.41-3.74-.89-1.42-.47-2.08-1.42-1.96-2.85,0-3.32.77-6.41,2.31-9.25-.12.12,1.36-2.37,4.45-7.47,1.42-2.61,3.26-4.39,5.52-5.34.95-.47,1.72-1.25,2.31-2.31,2.85-5.22,4.74-8.66,5.69-10.32.47-.95.71-1.72.71-2.31-.12-.95.41-2.96,1.6-6.05.36-1.07.95-1.9,1.78-2.49,1.54-.95,2.43-1.54,2.67-1.78.24-.24.71-.83,1.42-1.78,0-.12.12-.36.36-.71,1.07-3.44,3.26-6.58,6.58-9.43,3.92-3.44,9.67-5.99,17.26-7.65,4.74-.36,8.36-.18,10.86.53,4.98,1.42,9.13,3.2,12.46,5.34,2.37,1.66,4.63,2.97,6.76,3.92,3.68,1.66,5.93,4.75,6.76,9.25,1.07,5.93,1.6,10.14,1.6,12.64.12,2.85.53,5.46,1.25,7.83.36,1.19.47,2.49.36,3.92-.24,7.47-.48,13.53-.71,18.15-.12,2.02-.48,4.09-1.07,6.23-.71,2.85-1.66,7.77-2.85,14.77-1.78,10.92-3.86,19.64-6.23,26.16-2.02,5.34-3.8,10.92-5.34,16.73-.12.6-.53,1.84-1.25,3.74-.6,1.54-.95,2.79-1.07,3.74-.48,2.38-1.72,4.33-3.74,5.87-.48.36-.65.83-.53,1.42.47,1.54.41,2.79-.18,3.74-.12.24-.65,1.42-1.6,3.56l-1.42,2.85c-1.54,2.97-3.5,4.51-5.87,4.63-.59.12-.95.48-1.07,1.07-.12.59-.18,1.13-.18,1.6.24,1.19-.18,2.43-1.25,3.74-1.19,1.42-3.03,3.26-5.52,5.52-3.68,3.44-5.22,4.87-4.63,4.27-2.61,2.49-5.76,4.45-9.43,5.87-6.17,2.61-11.39,4.39-15.66,5.34-.83.12-1.9.24-3.2.36-.83,0-1.54-.24-2.14-.71-.36-.24-.89-.65-1.6-1.25-.6-.59-1.13-1.01-1.6-1.25-.83-.71-1.78-.77-2.85-.18-.24.24-.59.48-1.07.71-.36.36-.65.6-.89.71-1.9,1.19-3.68,1.31-5.34.36-1.9-1.07-5.04-2.49-9.43-4.27-.48-.12-1.19-.41-2.14-.89-.95-.47-1.66-.77-2.14-.89-.95-.36-1.72-.47-2.31-.36-1.9.36-3.74-.47-5.52-2.49-.71-.83-.89-1.78-.53-2.85.12-.59.24-1.07.36-1.42.12-1.07-.12-1.78-.71-2.14-1.3-.95-2.14-2.25-2.49-3.92-.47-2.25-1.36-4.45-2.67-6.58l.18.18ZM18.69,179.06c-.12-.24-.36-.24-.71,0l.18.71c.71.12.89-.12.53-.71ZM24.03,176.39v.18l.18.18-.18-.36ZM62.29,193.3h-.71c1.3-3.32,2.73-5.52,4.27-6.58.47-.36,1.13-1.18,1.96-2.49,3.44-5.1,5.22-7.71,5.34-7.83.24-.36.41-.83.53-1.42.24-2.37,1.07-4.86,2.49-7.47,3.56-6.64,6.17-14.42,7.83-23.31.36-1.18.65-2.85.89-4.98.36-2.61.59-4.33.71-5.16.71-3.08,1.07-6.76,1.07-11.03-.12-7.59.18-15.24.89-22.96.12-1.18.12-2.25,0-3.2-.36-3.2-.77-6.35-1.25-9.43-.24-1.42-.77-2.61-1.6-3.56-.36-.36-.83-.47-1.42-.36-.59.12-.83.18-.71.18-3.2,1.31-5.7,3.2-7.47,5.69-.71,1.07-2.55,3.68-5.52,7.83-2.26,3.09-4.03,5.64-5.34,7.65-.71,1.07-1.78,2.61-3.2,4.63-1.54,2.02-2.61,3.5-3.2,4.45-.12.12-2.31,3.15-6.58,9.08l.18-.18c-2.26,4.63-3.56,7.18-3.92,7.65-.36.36-.65,1.31-.89,2.85-.36,1.54-.89,2.97-1.6,4.27l-3.74,6.76c-.12.24-.48.36-1.07.36-.48,0-.77-.18-.89-.53-.12-.12-.42-.83-.89-2.14l.36-.53c.24-.47.12-.89-.36-1.25.24-6.76.29-9.85.18-9.25l.18.18c-1.78-.24-2.73-.36-2.85-.36-.95,0-1.9-.29-2.85-.89-1.66-.24-2.67-.36-3.03-.36-.24,0-.36.12-.36.36-.12.24-.06.48.18.71.12.24.29.36.53.36.47,0,1.42-.41,2.85-1.25-.48,3.44-.3,6.29.53,8.54l.18,1.42c.12.95-.06,1.66-.53,2.14-4.15,4.15-6.17,6.17-6.05,6.05l-.71,1.25c-.71.71-.83,1.13-.36,1.25.36,0,.59-.41.71-1.25l.18-1.42c1.54.95,3.62,2.61,6.23,4.98.71.6,1.18,1.19,1.42,1.78.24.36.83,1.84,1.78,4.45-.48,5.69-.89,8.72-1.25,9.08-.36.36-.53.89-.53,1.6.12,1.31-.18,3.92-.89,7.83.12-.95-.24,1.13-1.07,6.23-.12.95-.06,2.25.18,3.92.36,2.02,1.01,3.74,1.96,5.16,1.42,2.02,1.78,4.27,1.07,6.76-.24.71-.48,1.72-.71,3.03-.12.36-.18.89-.18,1.6-.12,1.42.36,2.55,1.42,3.38.83.71,1.9.95,3.2.71,2.73-.71,4.86-1.66,6.41-2.85.24-.24,1.13-.83,2.67-1.78,3.8-2.61,6.76-5.22,8.9-7.83.95-1.18,2.25-2.02,3.92-2.49.59-.59.77-.59.53,0ZM26.52,170.88c-.24,0-.36.12-.36.36-.24.59-.06.95.53,1.07.59.12.89-.12.89-.71-.12-.59-.48-.83-1.07-.71ZM35.42,111.97l-.53-.18c-.59-1.18-.95-1.84-1.07-1.96-.24-.36-.65-.65-1.25-.89-1.07-.47-1.66-.18-1.78.89-.12.71.06,1.19.53,1.42.47.24.95.42,1.42.53.24,0,1.01.06,2.31.18h.36ZM38.44,95.95c-.48.71-.36,1.42.36,2.14.36.36.83.48,1.42.36,1.07-.36,1.42-.95,1.07-1.78-.12-.12-.48-.83-1.07-2.14.12-.12.47-.47,1.07-1.07l-.53-.18-.36,1.42c-.83.24-1.48.65-1.96,1.25ZM46.27,84.03c-.36,0-.77.24-1.25.71-.48.36-.59.83-.36,1.42.47.6.83.89,1.07.89,1.54.24,2.73-.06,3.56-.89v-.71c-.83-1.18-1.84-1.66-3.03-1.42ZM50.54,94.53l.18-.71-.53-.18c-.12.12-.24.3-.36.53.24.12.47.24.71.36ZM58.2,91.33h.53l-.36-.53-.18.53ZM60.51,199.89c.47-.47.59-.95.36-1.42-.36-.59-.77-.71-1.25-.36-.59.24-.71.65-.36,1.25l.53.53h.71ZM60.86,98.44c.24,0,.36-.12.36-.36.12-.71-.12-1.01-.71-.89l-.53.53c0,.6.29.83.89.71ZM76.35,190.1c0-.95-.48-1.54-1.42-1.78-.36-.12-.6-.12-.71,0-1.54.59-2.85,1.42-3.92,2.49-.83.71-1.07,1.66-.71,2.85.36,1.19,1.07,1.84,2.14,1.96.59.12,1.13,0,1.6-.36,1.42-1.18,2.43-2.67,3.03-4.45v-.71ZM80.97,187.96c.24.83,0,2.08-.71,3.74v.71c0,1.19.71,1.84,2.14,1.96.59.12,1.01-.06,1.25-.53.71-1.3,1.13-2.79,1.25-4.45.12-1.3-.24-2.49-1.07-3.56-.6-.95-1.25-1.18-1.96-.71-.6.36-.89.77-.89,1.25v1.6ZM88.27,76.73c-.6-.12-1.07.12-1.42.71-.48.95-.06,1.42,1.25,1.42.59,0,.89-.29.89-.89s-.24-1.01-.71-1.25ZM89.16,190.27c.12-.71-.12-1.07-.71-1.07-.36,0-.53.18-.53.53-.24.59,0,.89.71.89l.53-.36ZM89.34,168.74c-.24-.83-.42-1.6-.53-2.31.24-.59.41-.53.53.18h-.53c.47.48.65,1.13.53,1.96v.18ZM93.97,151.48c-.24.12-.36.3-.36.53,0,.6.29.83.89.71l.53-.53c0-.59-.36-.83-1.07-.71Z"/>
      <path d="M229.4,160.02c0,2.61-.06,4.51-.18,5.7-.12.83-.42,1.84-.89,3.03-.83,2.02-1.78,4.15-2.85,6.41-.24.59-.71.71-1.42.36-.24-.12-.3-.36-.18-.71.12-.47.36-1.48.71-3.03.24-1.3.47-2.37.71-3.2.36-2.25-.48-4.03-2.49-5.34-.24-.12-.48-.24-.71-.36-1.19-.59-2.14-.42-2.85.53l-.89,1.25c-.95,2.25-1.54,3.74-1.78,4.45-2.02,8.19-4.92,16.97-8.72,26.34-1.31,2.97-2.08,5.52-2.31,7.65-.24,1.42-.77,3.44-1.6,6.05-.48,1.66-.24,3.15.71,4.45.71,1.07.77,2.38.18,3.92-.12.59-.48,1.54-1.07,2.85-2.38,5.1-4.33,10.86-5.87,17.26-.48,2.02-.89,3.56-1.25,4.63-.83,2.85-2.14,5.4-3.92,7.65-1.31,1.54-2.67,2.2-4.09,1.96-1.42-.24-2.91.18-4.45,1.25-.59.48-1.31,1.07-2.14,1.78-1.19.83-1.96,1.37-2.31,1.6-2.14,1.78-4.51,2.91-7.12,3.38-.24,0-.6.06-1.07.18-.6.12-1.01.24-1.25.36-.83.12-1.6-.06-2.31-.53-.83-.47-1.48-.47-1.96,0s-.95.71-1.42.71c-1.42.36-3.5.42-6.23.18-1.54,0-2.85-.29-3.92-.89.12.12-.89-.24-3.03-1.07-3.44-1.3-6.41-2.91-8.9-4.81-4.75-3.56-8.19-6.88-10.32-9.97-.24-.24-.6-.59-1.07-1.07-.48-.59-.83-1.01-1.07-1.25-.71-.95-1.01-1.9-.89-2.85.24-1.78-.42-3.14-1.96-4.09-1.66-.95-2.85-2.61-3.56-4.98-.24-.95-.71-2.91-1.42-5.87-.59-2.37-1.18-4.27-1.78-5.69-.36-.95-.47-2.25-.36-3.92.36-4.27.53-6.35.53-6.23.12-.71.12-1.66,0-2.85v-2.67c0-1.18.12-3.03.36-5.52,0-.83.12-2.67.36-5.52.24-2.37.42-4.27.53-5.7.36-5.34,1.01-10.26,1.96-14.77.83-4.03,1.36-6.94,1.6-8.72.12-.83.41-2.37.89-4.63.47-1.9.77-3.44.89-4.63.47-1.54,1.07-3.85,1.78-6.94.59-3.2,1.13-5.52,1.6-6.94.24-1.07.77-3.2,1.6-6.41.83-2.73,1.48-4.92,1.96-6.58.12-.47,1.36-5.04,3.74-13.7.36-1.18.59-1.96.71-2.31.71-1.66,1.48-3.92,2.31-6.76,1.18-3.68,1.96-5.93,2.31-6.76,2.14-6.17,3.5-9.85,4.09-11.03.24-1.18,1.48-4.92,3.74-11.21,1.66-4.63,3.08-8.36,4.27-11.21,3.2-8.07,5.58-13.94,7.12-17.62.59-1.3,2.85-6.05,6.76-14.24,1.19-2.49,3.08-4.33,5.7-5.52,1.66-.71,3.44-.89,5.34-.53,1.78.48,3.44,1.25,4.98,2.31,1.07.71,1.84,1.42,2.31,2.14,2.96,4.75,4.21,6.76,3.74,6.05,1.42,1.9,1.84,4.45,1.25,7.65-.24.71-.6,1.42-1.07,2.14-.48.71-1.37,2.02-2.67,3.92-4.04,5.81-7.54,12.04-10.5,18.69-2.73,6.17-5.34,12.81-7.83,19.93-1.31,3.92-2.61,7.36-3.92,10.32-2.14,4.98-3.5,9.25-4.09,12.81,0,.48-.71,3.56-2.14,9.25-.95,4.15-1.54,6.47-1.78,6.94.12-.36-.71,1.54-2.49,5.69-.95,2.25-1.9,6.11-2.85,11.57-.12.36-.24,1.42-.36,3.2-.24,2.97-1.37,5.28-3.38,6.94-.36.36-.89.89-1.6,1.6-1.78,1.78-2.08,3.74-.89,5.87l1.25,2.14c1.07,1.66,1.3,3.38.71,5.16-.59,1.9-.89,4.57-.89,8.01-.12,3.2-.42,5.52-.89,6.94-1.78,12.81-2.55,22.31-2.31,28.47.12,2.02.36,3.56.71,4.63.71,2.02,1.07,4.09,1.07,6.23,0,1.78.65,4.63,1.96,8.54,0,.12.06.36.18.71,1.9,3.8,4.21,4.21,6.94,1.25.83-.83,1.36-1.42,1.6-1.78,1.66-2.61,3.5-5.52,5.52-8.72,1.42-2.25,2.67-4.27,3.74-6.05,1.54-2.85,3.03-4.69,4.45-5.52,3.92-4.98,6.23-8.48,6.94-10.5.83-2.14,2.91-7.53,6.23-16.2,1.18-2.73,2.43-5.1,3.74-7.12,2.25-3.32,4.15-7.36,5.7-12.1l3.92-11.21c1.18-3.32,1.9-5.34,2.14-6.05.83-3.08,2.07-5.93,3.74-8.54.59-.95.83-1.42.71-1.42,1.18-2.14,1.78-4.15,1.78-6.05v-3.56c0-.47.06-.89.18-1.25,0-2.37.89-4.15,2.67-5.34l1.96-1.25c1.66-1.18,2.61-2.73,2.85-4.63.83-5.93.71-10.68-.36-14.24-.36-1.3-.3-2.61.18-3.92.24-.59.65-1.54,1.25-2.85.59-1.3,1.01-2.31,1.25-3.03.83-2.02,1.01-3.8.53-5.34-.36-1.54-.71-4.92-1.07-10.14-.12-2.37.18-4.51.89-6.41.95-2.14,2.25-6.94,3.92-14.42.36-1.78,1.54-6.41,3.56-13.88.83-3.32,2.67-5.81,5.52-7.47,1.54-.83,3.03-.95,4.45-.36-.12-.12,2.07.89,6.58,3.03,2.25.95,3.5,2.49,3.74,4.63.12.83.65,1.37,1.6,1.6.47.12.95.3,1.42.53.47.24.77.65.89,1.25.24,1.9.18,3.74-.18,5.52-.48,2.02-.89,3.8-1.25,5.34-.24,1.07-.77,1.96-1.6,2.67-.12.12-.42.36-.89.71-.48.36-.83.59-1.07.71-.48.6-.6,1.37-.36,2.31,0,.12.06.36.18.71.71,1.42.83,2.97.36,4.63-1.78,7-2.85,11.33-3.2,12.99-.48,1.54-.53,3.14-.18,4.8.24.71.24,1.48,0,2.31-.71,3.92-1.25,6.76-1.6,8.54-1.31,5.1-1.42,10.09-.36,14.95.36,1.19.29,2.49-.18,3.92-.12.36-.24.53-.36.53-.6.48-.89.3-.89-.53.12-10.79.18-18.21.18-22.25,0-2.02-.12-4.63-.36-7.83,0-.71-.24-1.48-.71-2.31-.36-.59-.89-.89-1.6-.89-.71-.12-1.31.12-1.78.71l-.89,1.25c-2.02,4.63-3.09,8.96-3.2,12.99-.12,2.25-.18,4.92-.18,8.01-.12,5.1-.53,9.02-1.25,11.75-.24.95-.36,2.26-.36,3.92-.12,1.07-.06,1.84.18,2.31,1.07,2.02,1.66,4.57,1.78,7.65v.89c.24.71.77,1.25,1.6,1.6.83.36,1.6.36,2.31,0,1.07-.59,1.84-1.3,2.31-2.14.24-.71.83-2.19,1.78-4.45.24-.59.59-.89,1.07-.89.95-.12,1.48.36,1.6,1.42.12.83.18,1.37.18,1.6-.12.95-.3,1.72-.53,2.31-.6,1.54-1.13,2.79-1.6,3.74-1.07,2.02-1.66,4.27-1.78,6.76,0,1.07-.48,1.96-1.42,2.67-1.54.83-2.37,2.14-2.49,3.92v2.31c-.24,1.31-.83,2.49-1.78,3.56.47-2.14.59-3.97.36-5.52,0-.12-.12-.59-.36-1.42-.24-.59-.65-.83-1.25-.71-2.14,0-3.38.77-3.74,2.31-.48,3.09-.6,5.7-.36,7.83,0,.83.29,1.54.89,2.14.36.48.77.53,1.25.18.71-.47,1.13-.77,1.25-.89.12-.36.83-1.78,2.14-4.27-.12.48-.18,2.31-.18,5.52ZM127.78,216.97c-.12-.47-.42-.83-.89-1.07-.48-.36-.95-.36-1.42,0-.36.36-.42.83-.18,1.42.47.71,1.13.95,1.96.71.71-.24.89-.59.53-1.07ZM126.53,224.98l-.36-.36.18-.18.18.53ZM127.42,228.54c-.71,0-.83.3-.36.89.12.24.29.3.53.18l.18-.71-.36-.36ZM140.95,215.19l.18-.71h-3.92c-1.31.24-2.67-.29-4.09-1.6-.24-.12-.48-.24-.71-.36-.48-.12-.89.06-1.25.53-.48.48-.53,1.19-.18,2.14.24.83.77,1.31,1.6,1.42,1.42.24,2.43.36,3.03.36.83.12,1.6-.06,2.31-.53-.71.36.36-.29,3.2-1.96l-.18.71ZM135.08,224.44c0,.36.06.83.18,1.42.24.71.65.95,1.25.71.47-.12.65-.53.53-1.25-.12-.59-.65-1.42-1.6-2.49h.71c.71-.12.89-.29.53-.53l-.53.36-.53.36c-.36.83-.53,1.31-.53,1.42ZM145.04,244.02l-.53.53.53.36c.24.12.47.06.71-.18v-.53c-.36-.12-.6-.18-.71-.18ZM147,247.58c-.6-.12-.89.18-.89.89,0,.36.12.53.36.53.59.12.89-.12.89-.71l-.36-.71ZM148.78,128.34c-.24.12-.42.3-.53.53-.12.48.06.89.53,1.25.24.12.47.12.71,0,.47-.24.59-.65.36-1.25-.12-.59-.48-.77-1.07-.53ZM151.09,245.62c-.36-.12-.53-.06-.53.18-.24.71-.06,1.01.53.89l.36-.53-.36-.53ZM155.54,95.95l.36-.36-.36-.18v.53ZM169.07,250.78l.53.36v-.53l-.53.18ZM181.17,210.92l-.71.36.53.18.18-.53ZM199.5,159.84c-.36.12-.48.3-.36.53.12.6.47.77,1.07.53.24-.12.36-.29.36-.53,0-.12-.18-.29-.53-.53h-.53ZM207.33,183.87l-.18.53.53-.18-.36-.36ZM223.35,138.13c-.48-.83-1.19-1.13-2.14-.89-1.9.59-2.97,1.9-3.2,3.92-.24,1.07-.06,2.02.53,2.85.59.95,1.42,1.42,2.49,1.42,1.18,0,2.07-.53,2.67-1.6l.71-1.78c0-1.42-.36-2.73-1.07-3.92ZM223.17,130.12c-.24-.24-.48-.36-.71-.36-.59-.12-.95.18-1.07.89-.24.6-.12,1.07.36,1.42.12.24.29.36.53.36.59.12,1.01-.18,1.25-.89.12-.59,0-1.07-.36-1.42ZM231.36,138.49c.12.36.24.53.36.53.59.24.95.06,1.07-.53.12-.47-.12-.77-.71-.89-.6,0-.83.3-.71.89Z"/>
      <path d="M319.45,157.71c1.18.95,2.37,2.25,3.56,3.92,3.92,5.58,6.35,12.16,7.3,19.75,0,.12.18,1.96.53,5.52v-.18l-2.85-1.07c-.83-.24-1.42.12-1.78,1.07-.36.95-.89,1.48-1.6,1.6-1.78.24-3.56.77-5.34,1.6h.36c-1.42,1.07-2.02,2.49-1.78,4.27v.71-.18c-2.25,1.19-3.09,2.79-2.49,4.81l.36,1.42c0,.24-.12.47-.36.71-.48.48-.95.48-1.42,0l-.71-1.25c-.24-.12-.89-.95-1.96-2.49h.18c-3.32-5.58-5.93-10.74-7.83-15.48-.71-1.66-1.37-3.08-1.96-4.27-2.14-3.8-4.92-8.6-8.36-14.42-.6-1.07-1.37-1.72-2.31-1.96-.59-.24-1.07-.18-1.42.18-.71.59-1.07,1.01-1.07,1.25-1.78,3.68-3.09,6.53-3.92,8.54-.83,1.9-1.31,3.44-1.42,4.63-.24,2.14-1.19,5.4-2.85,9.79-.83,2.25-1.25,4.57-1.25,6.94-.24,6.88-1.25,14.77-3.03,23.67-.48,2.02-.53,3.86-.18,5.52.36,2.38.18,4.69-.53,6.94-.24.83-.53,3.2-.89,7.12,0,.12-.36,1.13-1.07,3.03l.18-.18c-.12,2.13-.71,3.8-1.78,4.98-.24.36-.3.89-.18,1.6v1.42c-.12.71-.3,1.25-.53,1.6-.12.36-.42,1.19-.89,2.49-.36,1.07-.77,1.9-1.25,2.49-.48.48-.53,1.19-.18,2.14.36.83.59,1.31.71,1.42.12.71.12,1.19,0,1.42-.24.48-.77,1.66-1.6,3.56-.48,1.07-1.31,1.66-2.49,1.78-.48.12-.95.24-1.42.36-1.42.48-1.78,1.31-1.07,2.49.71,1.31,1.66,2.07,2.85,2.31.36.12.53.29.53.53,0,.71-.36,1.01-1.07.89-1.19-.24-2.73-.12-4.63.36.36-1.42.53-2.2.53-2.31,0-.59-.12-1.3-.36-2.14-.24-.71-.71-1.13-1.42-1.25-.71-.12-1.31.06-1.78.53s-.77,1.19-.89,2.14c-.36,1.9.53,2.91,2.67,3.03l1.42-.18c-.36,3.44-.53,5.28-.53,5.52,0,1.9-.95,4.33-2.85,7.3-1.07,1.66-2.2,1.72-3.38.18-.12-.12-.24-.36-.36-.71-.24-.24-.42-.42-.53-.53-.48-.83-1.13-1.13-1.96-.89.36-.12.12,0-.71.36-1.66.47-2.79.18-3.38-.89l-1.78-2.67c-1.3-1.42-1.84-3.38-1.6-5.87.36-3.2.83-6.64,1.42-10.32.24-1.42,1.13-2.25,2.67-2.49.36,0,.6-.06.71-.18.6-.47,1.01-.83,1.25-1.07.48-.83.77-1.54.89-2.13.12-.59.48-1.3,1.07-2.14.59-.83,1.01-1.48,1.25-1.96.12-.47,0-.95-.36-1.42l-2.85-2.49c-.47-.47-.59-1.01-.36-1.6.36-1.18.6-1.9.71-2.14.6-1.07,1.48-2.37,2.67-3.92.47-.71.59-1.42.36-2.14-1.07-2.25-1.3-4.03-.71-5.34,2.37-15.42,3.8-24.56,4.27-27.41,0-.59.18-1.48.53-2.67.36-1.3.53-2.19.53-2.67.36-1.78,1.07-4.74,2.14-8.9.95-3.8,1.6-6.76,1.96-8.9.36-.95.83-3.03,1.42-6.23.24-1.42.71-2.91,1.42-4.45.83-2.02,1.25-4.33,1.25-6.94,0-1.07.18-2.07.53-3.03.36-1.42,1.01-4.03,1.96-7.83.71-3.2,1.42-5.69,2.14-7.47-.36.71-.06-.59.89-3.92.24-.83.18-1.6-.18-2.31-1.19-3.44-1.66-4.69-1.42-3.74-.24-.71-.3-1.48-.18-2.31.12-.95-.24-1.9-1.07-2.85-.12-.12-.71-.65-1.78-1.6l-.18.18c1.78-2.02,3.26-3.32,4.45-3.92,1.9-1.07,2.19-2.61.89-4.63l-1.42-1.78-.18-.18,2.31.18c2.37-.24,4.03-1.36,4.98-3.38,1.3-2.61,2.61-6.11,3.92-10.5,1.9-6.76,3.32-11.27,4.27-13.53.24-.71.47-1.78.71-3.2,1.07-5.69,2.43-11.03,4.09-16.02.24-.71.53-1.72.89-3.03.36-1.54.59-2.61.71-3.2,1.54-5.46,3.03-10.5,4.45-15.13.59-1.9.89-3.44.89-4.63.12-1.78.59-3.56,1.42-5.34,2.37-4.39,4.15-8.78,5.34-13.17.36-1.54,1.01-3.56,1.96-6.05.83-2.02,1.54-3.44,2.14-4.27l-.18.18.53-2.31c-.24.71.95-2.55,3.56-9.79.36-1.07.83-1.96,1.42-2.67.95-1.07,1.78-1.72,2.49-1.96,1.42-.47,3.44-1.01,6.05-1.6.83-.24,1.66-.24,2.49,0,1.54.48,2.96,1.07,4.27,1.78.59.24,1.18.71,1.78,1.42,1.3,1.54,2.25,3.15,2.85,4.81.83,2.37,1.42,3.86,1.78,4.45.12.36.47.71,1.07,1.07.47.24.95.36,1.42.36,1.9.12,6.05,1.01,12.46,2.67,1.54.36,2.55.65,3.03.89.71.48,1.9,1.01,3.56,1.6,1.66.71,2.85,1.25,3.56,1.6,1.42.83,2.55,1.54,3.38,2.14,2.37,1.78,4.03,3.09,4.98,3.92,1.66,1.31,3.08,2.91,4.27,4.81,1.3,2.14,2.43,3.92,3.38,5.34.83,1.19,1.48,1.96,1.96,2.31,1.42,1.07,2.55,2.49,3.38,4.27.24.48,1.01,1.9,2.31,4.27.71,1.31,1.36,3.03,1.96,5.16,1.78,7.47,2.55,10.8,2.31,9.97.24.71.36,1.78.36,3.2.12,2.73.18,5.1.18,7.12-.12.83-.36,1.84-.71,3.03-.59,1.66-.89,2.91-.89,3.74,0,1.31-.3,2.61-.89,3.92-.36.71-.6,1.42-.71,2.14-.6,4.39-3.15,8.66-7.65,12.81-4.04,3.92-7.36,7.3-9.97,10.14-3.32,3.92-8.13,8.01-14.42,12.28-1.54.95-3.03,1.31-4.45,1.07-.36,0-.89.06-1.6.18-2.26.24-3.38,1.48-3.38,3.74,0,.36.06.89.18,1.6v1.6c0,1.31-.48,2.14-1.42,2.49l-8.19,3.38c-1.07.36-1.72,1.07-1.96,2.14-.24.95-.83,1.78-1.78,2.49-2.02,1.42-4.15,2.49-6.41,3.2-.71.24-1.48.12-2.31-.36-.24-.12-.53-.29-.89-.53-.48-.36-.83-.59-1.07-.71-.36-.24-.83-.29-1.42-.18-1.9.12-3.5.95-4.8,2.49-1.42,1.54-1.6,3.27-.53,5.16.12.36,1.54,2.25,4.27,5.69.59.71,1.07,1.66,1.42,2.85v.18-.36ZM249.51,262.35v.53-.53ZM254.31,246.69c0,.12.18.06.53-.18l-.18-.53c-.71,0-.83.24-.36.71ZM259.12,254.17l-.53.18.53.18v-.36ZM269.97,119.98c0,.59.12.59.36,0,0-.12.06-.12.18,0h-.53ZM330.66,40.61c-3.44,3.56-5.28,5.46-5.52,5.69-1.66,1.9-2.85,3.98-3.56,6.23-.36,1.19-.95,3.03-1.78,5.52-.83,2.49-1.48,4.39-1.96,5.7-.95,3.2-1.78,5.69-2.49,7.47-6.17,16.61-9.25,25.03-9.25,25.27-.48,1.54-1.19,3.26-2.14,5.16-1.54,3.32-2.91,7.83-4.09,13.53-.24,1.07-.48,2.37-.71,3.92-.12.48.12,1.07.71,1.78.59.6,1.18.89,1.78.89s.83,0,.71,0c5.69-.83,8.84-1.36,9.43-1.6,3.8-.95,6.52-1.84,8.19-2.67,1.42-.71,2.31-1.66,2.67-2.85.59-1.18,1.36-2.25,2.31-3.2,2.85-2.61,4.92-4.63,6.23-6.05,5.69-6.05,9.55-10.02,11.57-11.92.47-.36,1.18-1.13,2.14-2.31,5.46-6.05,9.19-10.79,11.21-14.24.59-.95,1.6-2.49,3.03-4.63,1.3-1.9,2.31-3.44,3.03-4.63,1.66-3.08,2.79-5.46,3.38-7.12,1.07-3.44.95-6.52-.36-9.25-1.07-2.02-1.96-3.68-2.67-4.98-1.66-2.85-3.74-5.22-6.23-7.12-1.54-1.18-3.2-1.9-4.98-2.14-4.15-.47-7.77-.06-10.86,1.25-2.97,1.19-6.29,2.02-9.97,2.49l.18-.18ZM318.74,208.07c.36.24.29.24-.18,0-1.07-.83-2.08-.77-3.03.18h-.18c1.42-.12,2.55-.18,3.38-.18ZM315.53,208.25h-.18.18ZM319.27,189.92c2.25,1.54,3.38,3.74,3.38,6.58.12.24.06.42-.18.53-.24.12-.48.18-.71.18-.71-.24-2.02-1.07-3.92-2.49v.18l1.25-.71c.71-.59,1.01-1.3.89-2.14,0-.12-.12-.83-.36-2.14h-.36ZM318.56,208.07h.18-.18ZM324.25,221.77c-1.07-1.9-1.72-3.79-1.96-5.69,0-.95.24-1.66.71-2.14,1.18-1.54,2.73-2.31,4.63-2.31s2.96.89,3.2,2.67v.89c-.24,1.31.18,3.03,1.25,5.16l.18-.18c-1.66.24-3.32.24-4.98,0,.36-1.66.53-2.61.53-2.85.12-.59-.12-1.01-.71-1.25-.48-.12-.95,0-1.42.36-.48.36-.89.95-1.25,1.78-.24.71-.3,1.96-.18,3.74v-.18ZM332.26,209.32c.95,0,2.79.65,5.52,1.96.24.12.53.53.89,1.25.24.71.24,1.66,0,2.85h-.18c2.02.71,3.5,2.14,4.45,4.27,1.18,2.49,1.66,5.04,1.42,7.65-.12,1.78-.18,2.79-.18,3.03-.36,3.56.29,6.58,1.96,9.08.59.95.53,1.72-.18,2.31-1.07.71-2.37,1.96-3.92,3.74-.71.95-1.66,1.07-2.85.36-2.85-1.78-4.57-3.68-5.16-5.69-.36-1.07-1.13-2.43-2.31-4.09-.48-.59-.77-1.3-.89-2.14-.24-1.3-1.01-2.31-2.31-3.03-.12-.12-.53-.47-1.25-1.07-.71-.47-1.13-1.07-1.25-1.78,0-.12-.6-2.19-1.78-6.23v.18c.12-.12.36-.18.71-.18h.89c.71.48,1.13.77,1.25.89,1.3,1.31,2.85,1.84,4.63,1.6.24-.12,1.48-.06,3.74.18v.18l.71-1.25c.59-.83.36-1.3-.71-1.42-1.42-.24-2.49-.83-3.2-1.78l-.18.18c.71-1.78,1.13-2.79,1.25-3.03.59-1.66.65-3.14.18-4.45-.12-.24-.48-1.48-1.07-3.74l-.18.18ZM327.46,220c-.71.83-1.31,1.48-1.78,1.96.47-.47,1.07-1.13,1.78-1.96ZM326.03,37.58l.18-.36v-.18l-.18.53ZM329.42,208.43c-1.07-.47-1.66-1.3-1.78-2.49,0-.71.29-1.07.89-1.07,1.42.24,2.43.95,3.03,2.14,0,.12.24.89.71,2.31l.18-.18c-1.9-.47-2.91-.71-3.03-.71ZM328.7,25.3c-.24-.12-.42-.12-.53,0-.48.48-.42.77.18.89l.53-.36-.18-.53ZM329.24,193.12l.36-.18.18.18h-.53ZM329.59,192.94l.36.53-.18-.36-.18-.18ZM330.84,186.72v.18-.18ZM331.73,198.64c.12.6.18,1.07.18,1.42l.18-.18c-.12-.36-.24-.77-.36-1.25ZM331.91,200.06c.71.12,1.01.48.89,1.07-.12.36-.3.42-.53.18-.36-.36-.42-.83-.18-1.42l-.18.18ZM341.16,119.44c-.12-.24-.3-.41-.53-.53-.95-.36-1.48-.06-1.6.89-.12.48.12.83.71,1.07,1.42.12,1.9-.36,1.42-1.42ZM350.42,118.38c.71-.47,1.6-1.18,2.67-2.14,1.18-1.07,2.14-1.78,2.85-2.14.36-.36.89-.89,1.6-1.6.36-.36.65-.77.89-1.25.24-.59.18-1.07-.18-1.42-.48-.47-.95-.59-1.42-.36-1.31.36-2.25.71-2.85,1.07-2.25,1.07-3.98,2.55-5.16,4.45-.24.24-.48.71-.71,1.42-.12.48,0,.95.36,1.42.36.48.77.71,1.25.71l.71-.18ZM355.4,86.34c-.12-.71-.48-.89-1.07-.53-.36.12-.53.3-.53.53.12.6.47.77,1.07.53l.53-.53ZM381.56,88.48c.36-.71.12-1.01-.71-.89-.24,0-.42.12-.53.36l-.18,2.31c-.48-.24-.89-.18-1.25.18-.36.36-.3.53.18.53s.77-.29.89-.89l1.6-1.6Z"/>
      <path d="M517.88,260.04c-.95.71-2.25,1.01-3.92.89-1.19-.12-2.02-.65-2.49-1.6-.12-.24-.24-.47-.36-.71-1.19-1.42-2.25-1.3-3.2.36-.71,1.07-1.54,1.54-2.49,1.42l-1.6-.18c-2.61.36-6.7-.47-12.28-2.49-3.56-1.18-6.94-3.2-10.14-6.05-2.97-2.49-5.4-5.58-7.3-9.25-2.61-4.98-4.63-9.85-6.05-14.59-2.14-6.64-3.44-10.62-3.92-11.92-.47-1.07-1.07-3.38-1.78-6.94-.24-.83-.36-1.9-.36-3.2,0-5.46-.12-9.13-.36-11.03-.12-2.37.18-4.45.89-6.23.95-2.14,1.31-4.74,1.07-7.83-.12-2.02-.18-3.32-.18-3.92-.12-3.92.71-7.41,2.49-10.5,2.73-4.63,5.58-11.15,8.54-19.58.36-.83.77-1.96,1.25-3.38.47-1.54.83-2.67,1.07-3.38.24-.95.71-1.54,1.42-1.78,1.42-.59,2.49-2.02,3.2-4.27.36-.83.36-1.6,0-2.31-.24-.59-.71-1.54-1.42-2.85-.48-.59-.53-1.3-.18-2.14,0-.36.06-.59.18-.71,5.81-11.75,10.62-20.58,14.42-26.52,2.96-4.74,4.74-7.71,5.34-8.9,1.54-3.44,4.03-7.18,7.47-11.21,1.9-2.25,3.92-4.63,6.05-7.12,2.85-3.2,5.16-6.11,6.94-8.72,2.73-3.92,7.47-9.19,14.24-15.84.36-.36,1.01-.83,1.96-1.42,2.25-1.66,6.41-4.92,12.46-9.79,3.92-3.08,7.24-5.28,9.97-6.58,2.73-1.54,5.16-2.43,7.3-2.67l16.55-2.49c2.13-.12,3.97-.06,5.52.18,1.9.24,3.44.59,4.63,1.07.36.24,1.3.71,2.85,1.42,1.18.48,2.14.89,2.85,1.25.71.36,1.54,1.01,2.49,1.96.71.71,1.13,1.66,1.25,2.85.36,2.14-.06,4.15-1.25,6.05-1.42,2.02-2.79,3.62-4.09,4.81-3.8,3.32-7.06,6.05-9.79,8.19-2.73,2.14-5.69,2.55-8.9,1.25-1.07-.47-1.78-.77-2.14-.89-2.49-.71-4.81-.36-6.94,1.07l-.53.36c-9.14,8.31-13.47,12.22-12.99,11.75-1.31,1.42-2.2,2.73-2.67,3.92-.24.59-.83,1.42-1.78,2.49-1.9,2.14-3.32,3.68-4.27,4.63-1.42,1.42-3.26,3.38-5.52,5.87-2.73,2.97-4.51,4.87-5.34,5.7-2.13,2.25-3.98,4.51-5.52,6.76-.71,1.19-1.78,2.73-3.2,4.63-1.66,2.14-2.79,3.62-3.38,4.45-2.14,2.97-3.74,5.34-4.8,7.12-3.09,4.75-6.05,9.14-8.9,13.17-2.14,2.85-3.62,5.34-4.45,7.47-1.07,2.49-2.31,4.81-3.74,6.94-2.38,3.92-4.04,8.07-4.98,12.46-.12.24-.24.59-.36,1.07-.24.48-.36.89-.36,1.25-.12.83-.95,3.32-2.49,7.47-.83,2.49-1.25,3.98-1.25,4.45,0,.36-.18,1.13-.53,2.31-.12.59-1.31,5.46-3.56,14.59-.24.95-.42,2.02-.53,3.2-.48,6.05-.89,11.03-1.25,14.95-.36,3.92-.06,7.06.89,9.43.12.24.29,1.25.53,3.03.24,1.66.95,3.38,2.13,5.16,1.3,1.9,2.55,3.56,3.74,4.98,1.3,1.78,2.85,2.73,4.63,2.85,2.85.36,4.92.65,6.23.89,2.49.48,4.86.53,7.12.18,2.96-.59,5.58-.77,7.83-.53,1.07,0,2.14-.24,3.2-.71.59-.24,3.38-1.01,8.36-2.31,1.3-.36,2.49-.12,3.56.71,1.18.83,1.78,2.02,1.78,3.56,0,.36.06.59.18.71.12.24.29.42.53.53.59.24,1.01.06,1.25-.53.12-.36.24-.89.36-1.6.24-.71.36-1.18.36-1.42.47-1.42,1.54-2.61,3.2-3.56,1.42-.71,2.91-1.18,4.45-1.42,3.2-.36,4.51-.47,3.92-.36,5.22-.95,9.19-2.37,11.92-4.27.24-.12,1.36-.71,3.38-1.78.47-.24,1.01-.18,1.6.18.47.24.77.65.89,1.25.36,2.73.36,6.11,0,10.14,0,.48-.12,1.25-.36,2.31-1.19,4.75-2.67,9.02-4.45,12.81-.83,1.78-1.72,3.09-2.67,3.92-.48.48-.95,1.37-1.42,2.67-.36.95-.95,1.84-1.78,2.67v-1.6c0-.24-.12-.41-.36-.53-.59-.36-.89-.18-.89.53-.12.36-.06.6.18.71,0,.12.42.36,1.25.71-1.07.95-1.6,1.49-1.6,1.6-.71.48-2.49,1.6-5.34,3.38-.83.48-1.78.77-2.85.89-2.38.24-3.68.42-3.92.53-.48.24-1.54.59-3.2,1.07-1.42.48-2.55.95-3.38,1.42-.12,0-.36.12-.71.36-.24.12-.48.24-.71.36-1.42.95-3.14,1.01-5.16.18-.59-.36-1.07-.36-1.42,0-.71.83-2.14,1.13-4.27.89-1.9-.12-3.38-.59-4.45-1.42h.89l.36-.53c-.36-.12-.71.12-1.07.71-1.54-.47-2.73-.29-3.56.53ZM489.05,133.86c-.71-.12-1.19,0-1.42.36-1.07,1.54-1.54,3.2-1.42,4.98,0,.6.36.89,1.07.89,1.3,0,2.08-.59,2.31-1.78,0-.12.18-1.3.53-3.56-.24-.47-.59-.77-1.07-.89ZM487.45,147.39l-.71.18c.24.36.36.6.36.71l.53-.18-.18-.71ZM494.03,152.19c-.12-.24-.3-.29-.53-.18-.6.36-.53.65.18.89l.53-.18-.18-.53ZM501.33,129.23c0,.71.24.83.71.36.12-.12.12-.29,0-.53l-.36-.36c-.36.36-.48.53-.36.53ZM502.75,239.04l-.53-.18v-.18l.18.18.36.18ZM507.56,238.5c-.24.59-.18,1.07.18,1.42.47.24.95.12,1.42-.36.36-.47.36-.89,0-1.25l-.53-.36c-.48-.12-.83.06-1.07.53ZM511.3,244.56l-.71-.36c-.71.12-.83.48-.36,1.07l.71-.18.36-.53ZM523.04,245.62c-.71-.12-1.01.12-.89.71,0,.36.12.53.36.53.59.12.89-.12.89-.71l-.36-.53ZM529.45,254.88c-1.19-.71-1.78-1.13-1.78-1.25-.83-.24-1.13-.06-.89.53,0,.12.24.18.71.18.47.12,1.18.24,2.14.36l-.18.18ZM532.12,240.64c-.36.12-.53.3-.53.53.24.71.65.89,1.25.53l.36-.53c-.24-.59-.6-.77-1.07-.53ZM533.9,253.81c-.48.36-.6.83-.36,1.42.24.48.65.77,1.25.89.59.12,1.01-.12,1.25-.71,0-.12-.06-.36-.18-.71-.24-.47-.59-.77-1.07-.89h-.89ZM536.57,236.37l.36.53.36-.36-.36-.53-.36.36ZM540.66,74.06c-.6-.24-.95-.12-1.07.36-.12.24,0,.42.36.53.47.24.83.12,1.07-.36l-.36-.53ZM547.42,223.2l-1.07,1.07.18.71c.24-.12.47-.77.71-1.96l.18.18ZM556.32,244.02c-.59-.36-.95-.24-1.07.36-.12.24,0,.48.36.71.47.24.89.06,1.25-.53-.24-.36-.42-.53-.53-.53Z"/>
      <path d="M642.99,94.71c1.18-3.56,2.67-6.35,4.45-8.36,1.3-1.54,2.25-3.44,2.85-5.69.24-.36.47-.95.71-1.78.24-.83.41-1.48.53-1.96,1.3-4.51,3.56-8.66,6.76-12.46.24-.24.59-.59,1.07-1.07.47-.59.83-1.01,1.07-1.25,1.07-1.18,1.78-2.31,2.14-3.38,1.3-3.56,3.74-8.54,7.3-14.95.47-.83,1.6-3.2,3.38-7.12-.24.48.12-.53,1.07-3.03.95-2.25,2.43-4.45,4.45-6.58.71-.71,1.13-1.66,1.25-2.85,0-1.54.42-3.03,1.25-4.45,2.37-4.63,4.69-9.67,6.94-15.13.83-2.02,2.43-3.32,4.81-3.92,1.9-.59,3.68-.83,5.34-.71,1.3.12,3.44.36,6.41.71.71.12,1.18.3,1.42.53.83.48,1.96.89,3.38,1.25,1.78.36,2.91.65,3.38.89,1.3.48,2.61.71,3.92.71,2.37-.24,4.57,1.01,6.58,3.74.24.36.71,1.13,1.42,2.31.47,1.07,1.01,1.84,1.6,2.31.24.36.24.89,0,1.6-.24.36-.53.77-.89,1.25-5.22,7.59-10.03,17.86-14.42,30.79-.36.71-1.01,2.73-1.96,6.05-1.42,5.1-2.79,8.84-4.09,11.21-1.19,2.37-1.9,4.87-2.14,7.47-.12,2.02-.83,4.57-2.14,7.65-.83,2.14-1.25,4.45-1.25,6.94v2.31c0,.71-.3,1.48-.89,2.31-1.31,1.54-2.08,2.61-2.31,3.2-.48,1.42-.3,2.67.53,3.74.12.12.29.3.53.53.24.24.41.42.53.53.47.71.65,1.48.53,2.31-.24,1.19-.48,2.2-.71,3.03-.24.6-.65,1.6-1.25,3.03-.48,1.19-.83,2.14-1.07,2.85-1.19,3.68-1.96,6.76-2.31,9.25-.12.95-.36,2.67-.71,5.16-.36,2.14-.59,3.8-.71,4.98-.12.6-.36,1.37-.71,2.31-.48,1.19-1.19,1.9-2.14,2.14-.71.24-1.19.42-1.42.53-1.31.48-1.84,1.31-1.6,2.49.47,2.61.77,3.92.89,3.92.12-.59-.18.42-.89,3.03-1.31,4.51-2.14,9.2-2.49,14.06,0,.48-.06,1.25-.18,2.31-.12,1.07-.24,1.84-.36,2.31-.12,2.02.77,3.26,2.67,3.74,2.61.6,4.86,1.31,6.76,2.14,1.3.48,2.37,1.19,3.2,2.14.83.95,2.14,2.61,3.92,4.98.36.36.47.83.36,1.42-.12.71-.42,1.13-.89,1.25,0,.12-.12.18-.36.18-.12.12-.24.18-.36.18-1.9.95-3.62,1.48-5.16,1.6-1.31,0-2.85.42-4.63,1.25-1.31.71-2.14,1.37-2.49,1.96-.83,1.42-2.31,2.43-4.45,3.03-.59.24-.89.59-.89,1.07-.12.59.12,1.13.71,1.6l1.25.71c.95.59,1.3,1.48,1.07,2.67,0,.6-.24,1.78-.71,3.56-.36,1.42-.59,2.61-.71,3.56-.24,2.61-.24,4.45,0,5.52.36,1.42.18,3.2-.53,5.34-.36.83-.18,1.54.53,2.14,1.3,1.07,1.96,2.49,1.96,4.27-.12,1.07.36,1.9,1.42,2.49,1.42.83,1.9,2.25,1.42,4.27-1.66,5.93-3.2,10.14-4.63,12.64-1.19,2.02-1.66,4.03-1.42,6.05.12,1.19-.06,2.49-.53,3.92-.71,1.78-1.31,3.2-1.78,4.27-1.42,3.32-2.38,6.65-2.85,9.97-.48,2.49-1.01,5.1-1.6,7.83-.24.83-.71,1.72-1.42,2.67-.83,1.3-2.14,2.07-3.92,2.31-.48.12-.95,0-1.42-.36-1.07-.71-1.9-1.42-2.49-2.13.12.12-1.37-1.72-4.45-5.52-1.42-1.78-1.84-3.5-1.25-5.16.36-.83.47-2.13.36-3.92,0-2.37.29-4.45.89-6.23.24-.95.36-1.72.36-2.31.12-1.78.77-4.03,1.96-6.76.95-2.25,1.42-4.57,1.42-6.94-.12-3.08.24-8.66,1.07-16.73.12-1.66.53-3.14,1.25-4.45.59-1.18.95-1.9,1.07-2.14,2.02-3.68,2.96-7.77,2.85-12.28,0-.83-.24-1.54-.71-2.14-.48-.83-.53-1.84-.18-3.03.71-2.73,1.13-4.27,1.25-4.63.12-.71.12-1.48,0-2.31-.24-1.3-.89-2.14-1.96-2.49-2.02-.71-4.04-1.3-6.05-1.78-.47-.12-1.25-.24-2.31-.36-1.07-.12-1.84-.24-2.31-.36-.48-.12-3.03-.83-7.65-2.14-1.42-.47-2.2-.71-2.31-.71-1.42-.12-5.81-.95-13.17-2.49-.36-.12-.89-.18-1.6-.18-3.2-.47-5.64.77-7.3,3.74-.24.59-.36.83-.36.71-3.32,8.66-5.1,13.88-5.34,15.66-.24,1.78-.95,3.5-2.14,5.16-2.38,3.68-4.75,8.36-7.12,14.06-.48,1.07-.83,1.78-1.07,2.14-3.09,5.7-5.87,13.41-8.36,23.14-1.19,5.1-2.55,9.37-4.09,12.81-.48,1.19-1.37,3.68-2.67,7.47-2.02,6.17-5.63,11.57-10.86,16.2-.71.59-1.36,1.07-1.96,1.42-1.54.59-3.03,1.13-4.45,1.6-.95.24-2.02.18-3.2-.18-.83-.36-1.48-.71-1.96-1.07-2.02-1.54-5.63-3.74-10.86-6.58-.71-.48-1.07-1.19-1.07-2.14,0-1.07.12-2.07.36-3.03.12-.47.42-1.25.89-2.31.71-1.3,2.08-4.15,4.09-8.54,1.54-3.68,2.85-6.58,3.92-8.72-.47.95.36-.95,2.49-5.69,2.38-5.46,4.04-9.08,4.98-10.86,1.54-3.44,3.2-6.11,4.98-8.01l1.42-1.96c.59-.83.95-1.84,1.07-3.03v-3.2c0-1.42.6-2.85,1.78-4.27.48-.59,1.72-1.96,3.74-4.09,1.54-1.78,2.79-4.09,3.74-6.94,0-.36.06-.89.18-1.6.47-3.32,1.78-6.17,3.92-8.54,2.02-2.49,3.68-5.46,4.98-8.9.47-1.42.71-2.73.71-3.92,0-.59-.06-1.13-.18-1.6-.36-2.61.36-5.4,2.13-8.36.83-1.42,1.9-2.55,3.2-3.38,1.42-.95,2.61-2.37,3.56-4.27,1.66-3.2,3.2-6.23,4.63-9.08,6.17-13.05,9.85-20.7,11.03-22.96,1.66-3.2,3.44-7,5.34-11.39,1.19-2.85,2.61-5.4,4.27-7.65.36-.36,1.13-1.42,2.31-3.2h-.18c.12-.47,1.13-3.44,3.03-8.9ZM636.05,138.66c.24-.12.29-.29.18-.53-.36-.59-.65-.59-.89,0-.12,0-.12.24,0,.71l.71-.18ZM652.6,116.06l.53-.36c-2.02,4.98-3.2,7.89-3.56,8.72-.36.71-.59,1.49-.71,2.31-.48,2.73-1.72,7.06-3.74,12.99-.24.36-1.78,4.27-4.63,11.75-.71,1.78-1.19,3.56-1.42,5.34-.24,1.54.36,2.67,1.78,3.38.71.36.95.48.71.36,4.03,1.31,6.29,2.02,6.76,2.14,6.88,1.19,11.33,1.78,13.35,1.78.83,0,2.14.18,3.92.53,2.25.36,4.86.18,7.83-.53l.71-.18c.95-.59,1.54-1.13,1.78-1.6.59-1.66.83-3.8.71-6.41,0-3.32.29-7.77.89-13.35.71-6.52,1.13-11.03,1.25-13.53,0-.47.12-1.25.36-2.31.83-3.56,1.13-7.47.89-11.75-.24-3.56-.12-6.46.36-8.72.59-2.49.71-5.1.36-7.83-.71-4.98-.71-10.26,0-15.84.12-1.07.06-2.14-.18-3.2-.36-1.54-1.31-2.25-2.85-2.14-1.31.12-2.2.65-2.67,1.6-.36.71-.83,1.78-1.42,3.2-.71,1.54-1.25,2.61-1.6,3.2-.12.36-.48.71-1.07,1.07-.12,0-.65.06-1.6.18-1.31.24-2.31,1.01-3.03,2.31-.48.83-1.13,1.96-1.96,3.38-.95,1.9-1.54,3.09-1.78,3.56-2.49,4.51-4.09,8.66-4.8,12.46-.12.48-.24,1.13-.36,1.96,0,.95-.06,1.6-.18,1.96-.12.48-.42.89-.89,1.25-1.31,1.07-2.43,1.78-3.38,2.14l-.36.18ZM682.5,45.41c-.36-.59-1.07-.47-2.14.36-1.54,1.31-2.67,2.73-3.38,4.27-.59,1.42-2.55,5.16-5.87,11.21-2.14,3.8-3.74,7.42-4.81,10.86-.59,1.9-1.48,3.5-2.67,4.81-.6.83-2.85,4.39-6.76,10.68-1.31,2.02-2.02,4.51-2.14,7.47,0,.36.12.83.36,1.42.59,1.19,1.3,1.37,2.14.53.71-.71,1.6-2.02,2.67-3.92,1.66-3.2,5.28-9.97,10.86-20.29,4.51-8.3,8.12-15.01,10.86-20.11.47-.95.89-1.9,1.25-2.85.47-1.19.59-2.25.36-3.2-.12-.47-.36-.89-.71-1.25ZM665.95,63.39c0,.12-.06-.12-.18-.71-.36-1.18-1.01-1.42-1.96-.71-1.78,1.31-2.49,3.38-2.14,6.23.12.36.41.6.89.71.47.12.83.06,1.07-.18,1.42-.83,2.19-1.96,2.31-3.38v-1.96ZM678.59,71.93c.59.24,1.18.18,1.78-.18.59-.36.89-.89.89-1.6,0-.59-.06-1.07-.18-1.42-.48-1.54-1.31-1.84-2.49-.89-.95.6-1.42,1.42-1.42,2.49-.12.71.36,1.25,1.42,1.6ZM692.64,97.02c-.48-.12-.89.06-1.25.53-.48.48-.42.89.18,1.25.83.6,1.42.42,1.78-.53.12-.59-.12-1.01-.71-1.25Z"/>
      <path d="M827.54,160.02c0,2.61-.06,4.51-.18,5.7-.12.83-.42,1.84-.89,3.03-.83,2.02-1.78,4.15-2.85,6.41-.24.59-.71.71-1.42.36-.24-.12-.3-.36-.18-.71.12-.47.36-1.48.71-3.03.24-1.3.47-2.37.71-3.2.36-2.25-.48-4.03-2.49-5.34-.24-.12-.48-.24-.71-.36-1.19-.59-2.14-.42-2.85.53l-.89,1.25c-.95,2.25-1.54,3.74-1.78,4.45-2.02,8.19-4.92,16.97-8.72,26.34-1.31,2.97-2.08,5.52-2.31,7.65-.24,1.42-.77,3.44-1.6,6.05-.48,1.66-.24,3.15.71,4.45.71,1.07.77,2.38.18,3.92-.12.59-.48,1.54-1.07,2.85-2.37,5.1-4.33,10.86-5.87,17.26-.47,2.02-.89,3.56-1.25,4.63-.83,2.85-2.14,5.4-3.92,7.65-1.31,1.54-2.67,2.2-4.09,1.96-1.42-.24-2.91.18-4.45,1.25-.59.48-1.31,1.07-2.14,1.78-1.19.83-1.96,1.37-2.31,1.6-2.14,1.78-4.51,2.91-7.12,3.38-.24,0-.6.06-1.07.18-.59.12-1.01.24-1.25.36-.83.12-1.6-.06-2.31-.53-.83-.47-1.49-.47-1.96,0s-.95.71-1.42.71c-1.42.36-3.5.42-6.23.18-1.54,0-2.85-.29-3.92-.89.12.12-.89-.24-3.03-1.07-3.44-1.3-6.41-2.91-8.9-4.81-4.75-3.56-8.19-6.88-10.32-9.97-.24-.24-.59-.59-1.07-1.07-.47-.59-.83-1.01-1.07-1.25-.71-.95-1.01-1.9-.89-2.85.24-1.78-.42-3.14-1.96-4.09-1.66-.95-2.85-2.61-3.56-4.98-.24-.95-.71-2.91-1.42-5.87-.59-2.37-1.18-4.27-1.78-5.69-.36-.95-.47-2.25-.36-3.92.36-4.27.53-6.35.53-6.23.12-.71.12-1.66,0-2.85v-2.67c0-1.18.12-3.03.36-5.52,0-.83.12-2.67.36-5.52.24-2.37.42-4.27.53-5.7.36-5.34,1.01-10.26,1.96-14.77.83-4.03,1.36-6.94,1.6-8.72.12-.83.41-2.37.89-4.63.47-1.9.77-3.44.89-4.63.47-1.54,1.07-3.85,1.78-6.94.59-3.2,1.13-5.52,1.6-6.94.24-1.07.77-3.2,1.6-6.41.83-2.73,1.48-4.92,1.96-6.58.12-.47,1.36-5.04,3.74-13.7.36-1.18.59-1.96.71-2.31.71-1.66,1.48-3.92,2.31-6.76,1.18-3.68,1.96-5.93,2.31-6.76,2.13-6.17,3.5-9.85,4.09-11.03.24-1.18,1.48-4.92,3.74-11.21,1.66-4.63,3.08-8.36,4.27-11.21,3.2-8.07,5.58-13.94,7.12-17.62.59-1.3,2.85-6.05,6.76-14.24,1.18-2.49,3.08-4.33,5.7-5.52,1.66-.71,3.44-.89,5.34-.53,1.78.48,3.44,1.25,4.98,2.31,1.07.71,1.84,1.42,2.31,2.14,2.96,4.75,4.21,6.76,3.74,6.05,1.42,1.9,1.84,4.45,1.25,7.65-.24.71-.59,1.42-1.07,2.14-.48.71-1.37,2.02-2.67,3.92-4.03,5.81-7.54,12.04-10.5,18.69-2.73,6.17-5.34,12.81-7.83,19.93-1.31,3.92-2.61,7.36-3.92,10.32-2.14,4.98-3.5,9.25-4.09,12.81,0,.48-.71,3.56-2.14,9.25-.95,4.15-1.54,6.47-1.78,6.94.12-.36-.71,1.54-2.49,5.69-.95,2.25-1.9,6.11-2.85,11.57-.12.36-.24,1.42-.36,3.2-.24,2.97-1.37,5.28-3.38,6.94l-1.6,1.6c-1.78,1.78-2.08,3.74-.89,5.87l1.25,2.14c1.07,1.66,1.3,3.38.71,5.16-.59,1.9-.89,4.57-.89,8.01-.12,3.2-.42,5.52-.89,6.94-1.78,12.81-2.55,22.31-2.31,28.47.12,2.02.36,3.56.71,4.63.71,2.02,1.07,4.09,1.07,6.23,0,1.78.65,4.63,1.96,8.54,0,.12.06.36.18.71,1.9,3.8,4.21,4.21,6.94,1.25.83-.83,1.36-1.42,1.6-1.78,1.66-2.61,3.5-5.52,5.52-8.72,1.42-2.25,2.67-4.27,3.74-6.05,1.54-2.85,3.03-4.69,4.45-5.52,3.92-4.98,6.23-8.48,6.94-10.5.83-2.14,2.91-7.53,6.23-16.2,1.18-2.73,2.43-5.1,3.74-7.12,2.25-3.32,4.15-7.36,5.7-12.1l3.92-11.21c1.18-3.32,1.9-5.34,2.14-6.05.83-3.08,2.07-5.93,3.74-8.54.59-.95.83-1.42.71-1.42,1.18-2.14,1.78-4.15,1.78-6.05v-3.56c0-.47.06-.89.18-1.25,0-2.37.89-4.15,2.67-5.34l1.96-1.25c1.66-1.18,2.61-2.73,2.85-4.63.83-5.93.71-10.68-.36-14.24-.36-1.3-.3-2.61.18-3.92.24-.59.65-1.54,1.25-2.85.59-1.3,1.01-2.31,1.25-3.03.83-2.02,1.01-3.8.53-5.34-.36-1.54-.71-4.92-1.07-10.14-.12-2.37.18-4.51.89-6.41.95-2.14,2.25-6.94,3.92-14.42.36-1.78,1.54-6.41,3.56-13.88.83-3.32,2.67-5.81,5.52-7.47,1.54-.83,3.03-.95,4.45-.36-.12-.12,2.07.89,6.58,3.03,2.25.95,3.5,2.49,3.74,4.63.12.83.65,1.37,1.6,1.6.47.12.95.3,1.42.53.47.24.77.65.89,1.25.24,1.9.18,3.74-.18,5.52-.48,2.02-.89,3.8-1.25,5.34-.24,1.07-.77,1.96-1.6,2.67-.12.12-.42.36-.89.71-.48.36-.83.59-1.07.71-.48.6-.6,1.37-.36,2.31,0,.12.06.36.18.71.71,1.42.83,2.97.36,4.63-1.78,7-2.85,11.33-3.2,12.99-.47,1.54-.53,3.14-.18,4.8.24.71.24,1.48,0,2.31-.71,3.92-1.25,6.76-1.6,8.54-1.31,5.1-1.42,10.09-.36,14.95.36,1.19.29,2.49-.18,3.92-.12.36-.24.53-.36.53-.59.48-.89.3-.89-.53.12-10.79.18-18.21.18-22.25,0-2.02-.12-4.63-.36-7.83,0-.71-.24-1.48-.71-2.31-.36-.59-.89-.89-1.6-.89-.71-.12-1.31.12-1.78.71l-.89,1.25c-2.02,4.63-3.09,8.96-3.2,12.99-.12,2.25-.18,4.92-.18,8.01-.12,5.1-.53,9.02-1.25,11.75-.24.95-.36,2.26-.36,3.92-.12,1.07-.06,1.84.18,2.31,1.07,2.02,1.66,4.57,1.78,7.65v.89c.24.71.77,1.25,1.6,1.6.83.36,1.6.36,2.31,0,1.07-.59,1.84-1.3,2.31-2.14.24-.71.83-2.19,1.78-4.45.24-.59.59-.89,1.07-.89.95-.12,1.48.36,1.6,1.42.12.83.18,1.37.18,1.6-.12.95-.3,1.72-.53,2.31-.6,1.54-1.13,2.79-1.6,3.74-1.07,2.02-1.66,4.27-1.78,6.76,0,1.07-.48,1.96-1.42,2.67-1.54.83-2.38,2.14-2.49,3.92v2.31c-.24,1.31-.83,2.49-1.78,3.56.47-2.14.59-3.97.36-5.52,0-.12-.12-.59-.36-1.42-.24-.59-.65-.83-1.25-.71-2.14,0-3.38.77-3.74,2.31-.48,3.09-.6,5.7-.36,7.83,0,.83.29,1.54.89,2.14.36.48.77.53,1.25.18.71-.47,1.13-.77,1.25-.89.12-.36.83-1.78,2.14-4.27-.12.48-.18,2.31-.18,5.52ZM725.92,216.97c-.12-.47-.42-.83-.89-1.07-.48-.36-.95-.36-1.42,0-.36.36-.42.83-.18,1.42.47.71,1.13.95,1.96.71.71-.24.89-.59.53-1.07ZM724.68,224.98l-.36-.36.18-.18.18.53ZM725.57,228.54c-.71,0-.83.3-.36.89.12.24.29.3.53.18l.18-.71-.36-.36ZM739.09,215.19l.18-.71h-3.92c-1.31.24-2.67-.29-4.09-1.6-.24-.12-.48-.24-.71-.36-.48-.12-.89.06-1.25.53-.47.48-.53,1.19-.18,2.14.24.83.77,1.31,1.6,1.42,1.42.24,2.43.36,3.03.36.83.12,1.6-.06,2.31-.53-.71.36.36-.29,3.2-1.96l-.18.71ZM733.22,224.44c0,.36.06.83.18,1.42.24.71.65.95,1.25.71.47-.12.65-.53.53-1.25-.12-.59-.65-1.42-1.6-2.49h.71c.71-.12.89-.29.53-.53l-.53.36-.53.36c-.36.83-.53,1.31-.53,1.42ZM743.19,244.02l-.53.53.53.36c.24.12.47.06.71-.18v-.53c-.36-.12-.59-.18-.71-.18ZM745.14,247.58c-.6-.12-.89.18-.89.89,0,.36.12.53.36.53.59.12.89-.12.89-.71l-.36-.71ZM746.92,128.34c-.24.12-.42.3-.53.53-.12.48.06.89.53,1.25.24.12.47.12.71,0,.47-.24.59-.65.36-1.25-.12-.59-.48-.77-1.07-.53ZM749.24,245.62c-.36-.12-.53-.06-.53.18-.24.71-.06,1.01.53.89l.36-.53-.36-.53ZM753.69,95.95l.36-.36-.36-.18v.53ZM767.21,250.78l.53.36v-.53l-.53.18ZM779.31,210.92l-.71.36.53.18.18-.53ZM797.64,159.84c-.36.12-.48.3-.36.53.12.6.47.77,1.07.53.24-.12.36-.29.36-.53,0-.12-.18-.29-.53-.53h-.53ZM805.47,183.87l-.18.53.53-.18-.36-.36ZM821.49,138.13c-.48-.83-1.19-1.13-2.13-.89-1.9.59-2.97,1.9-3.2,3.92-.24,1.07-.06,2.02.53,2.85.59.95,1.42,1.42,2.49,1.42,1.18,0,2.08-.53,2.67-1.6l.71-1.78c0-1.42-.36-2.73-1.07-3.92ZM821.31,130.12c-.24-.24-.48-.36-.71-.36-.59-.12-.95.18-1.07.89-.24.6-.12,1.07.36,1.42.12.24.29.36.53.36.59.12,1.01-.18,1.25-.89.12-.59,0-1.07-.36-1.42ZM829.5,138.49c.12.36.24.53.36.53.59.24.95.06,1.07-.53.12-.47-.12-.77-.71-.89-.59,0-.83.3-.71.89Z"/>
      <path d="M945.71,58.4c-1.9,1.07-4.39,2.91-7.47,5.52-.83.6-1.72,1.19-2.67,1.78-.71.36-1.42.36-2.14,0-.12,0-.59-.29-1.42-.89l.18-.18-.18.36c-1.54.71-2.55,1.54-3.03,2.49h.18c-1.42,1.42-2.97,2.2-4.63,2.31-.24,0-.71.18-1.42.53-.24.24-.42.42-.53.53-.36.59-.24,1.01.36,1.25.47.24.95.48,1.42.71.83.59.83,1.48,0,2.67l.18-.18c-1.54,2.38-3.03,4.21-4.45,5.52-.6.71-2.97,3.2-7.12,7.47-2.49,2.61-4.39,5.46-5.7,8.54-.83,1.66-1.31,2.61-1.42,2.85-1.66,2.26-3.15,5.87-4.45,10.86l-.18.71c-1.19,3.09-1.13,6.47.18,10.14,1.66,5.1,3.97,9.2,6.94,12.28,3.56,3.68,5.99,6.05,7.3,7.12.36.36,1.72,1.6,4.09,3.74,4.39,4.15,8.25,9.49,11.57,16.02.83,1.66,2.31,4.75,4.45,9.25,1.42,3.2,2.25,6.53,2.49,9.97.24,5.46.36,10.98.36,16.55-.12,4.98-1.07,9.85-2.85,14.59-.36.95-.95,2.43-1.78,4.45-.71,1.9-1.25,3.38-1.6,4.45-.83,1.9-1.01,3.74-.53,5.52.36.95.24,1.96-.36,3.03-1.9,3.8-4.15,6.7-6.76,8.72-.48.36-1.25,1.01-2.31,1.96v-.18c-2.14,3.8-3.5,6.05-4.09,6.76-.83,1.19-1.78,2.08-2.85,2.67-7.36,3.44-11.15,5.22-11.39,5.34-3.8,1.54-6.88,2.31-9.25,2.31s-4.69.48-6.94,1.42c-.36.12-.83.24-1.42.36-.71.24-1.25.42-1.6.53-2.14.71-4.21,1.13-6.23,1.25-.83,0-2.2.24-4.09.71-1.9.48-3.38.71-4.45.71-.24,0-.71.12-1.42.36-3.56,1.42-7.42,1.6-11.57.53-2.37-.71-4.21-1.07-5.52-1.07.24,0-1.54-.36-5.34-1.07-1.78-.36-2.91-1.3-3.38-2.85-.24-.59-.71-1.25-1.42-1.96-.83-.59-1.54-.53-2.14.18-.12.12-.59.71-1.42,1.78h.18l-5.52-6.58c-.95-.83-1.66-1.96-2.14-3.38-1.3-3.32-2.02-5.28-2.14-5.87-.47-1.54-.77-3.14-.89-4.8-.12-2.25.3-4.27,1.25-6.05.95-1.54,1.37-2.25,1.25-2.13,3.8-5.46,8.13-9.19,12.99-11.21,2.97-1.18,5.99-2.14,9.08-2.85,4.51-.95,9.19-1.42,14.06-1.42h5.16c2.14-.12,3.85-.12,5.16,0,9.49.24,18.86-2.25,28.12-7.47,3.32-1.9,6.05-4.33,8.19-7.3.83-1.18,1.54-2.25,2.13-3.2,2.61-4.63,3.74-9.43,3.38-14.42-.24-4.39-2.02-8.07-5.34-11.03-.24-.24-.89-.71-1.96-1.42-1.19-.95-2.02-2.02-2.49-3.2-.95-2.37-2.38-4.51-4.27-6.41-.12-.12-.18-.24-.18-.36-.12-.12-.24-.24-.36-.36-4.27-4.51-9.37-11.21-15.3-20.11-1.42-2.14-2.31-4.33-2.67-6.58-1.66-9.97-2.31-18.09-1.96-24.38.24-3.8.41-6.17.53-7.12.24-1.07.41-2.61.53-4.63.24-4.03,1.48-8.07,3.74-12.1.71-1.3,1.07-2.02,1.07-2.14.83-1.3,2.49-3.85,4.98-7.65,2.02-3.2,3.62-5.75,4.81-7.65,1.3-2.02,2.79-3.85,4.45-5.52,6.88-6.88,13.58-12.46,20.11-16.73,1.42-.95,3.14-2.14,5.16-3.56,5.58-3.92,11.75-7.59,18.51-11.03,3.8-1.9,7.89-3.74,12.28-5.52,3.44-1.42,7-2.19,10.68-2.31,2.25-.12,4.21.53,5.87,1.96,2.37,1.78,3.97,3.86,4.8,6.23.12.12.29.48.53,1.07.12.48.24.83.36,1.07.71,2.49.47,4.51-.71,6.05-1.19,1.66-1.96,3.62-2.31,5.87,0,.24-.18.71-.53,1.42-.71,1.07-1.48,1.78-2.31,2.14-2.14.95-3.86,1.6-5.16,1.96-5.1,1.19-9.61,2.67-13.53,4.45-.12.12-1.13.48-3.03,1.07-.48-.47-1.19-1.13-2.14-1.96l.18-.18c-.12-.12.59.53,2.14,1.96-5.46,3.09-8.43,4.75-8.9,4.98ZM852.46,240.46c-.24,1.07.12,1.6,1.07,1.6.59,0,.95-.29,1.07-.89.24-.95-.12-1.48-1.07-1.6-.6,0-.95.3-1.07.89ZM865.45,254.34c-.24-.12-.48-.06-.71.18-.6.59-.48.95.36,1.07l.53-.53-.18-.71ZM904.78,86.16v.18l.18.18-.18-.36ZM914.57,60.36c-.24-.36-.42-.53-.53-.53-.59,0-.83.3-.71.89,0,.71.29,1.01.89.89l.36-.53v-.71ZM923.82,49.33l-.53.18.18.53.53-.18-.18-.53ZM927.56,56.27c.12,1.54.29,3.03.53,4.45.12.83.53.95,1.25.36,2.02-1.54,2.19-3.32.53-5.34-.24-.36-.65-.53-1.25-.53-.71.24-1.07.59-1.07,1.07ZM929.16,67.48h-.18.18ZM932.01,50.93c0-.24-.18-.41-.53-.53-.6-.36-1.01-.24-1.25.36-.24.48,0,.83.71,1.07.59.12.95-.18,1.07-.89ZM936.81,51.82l.18-.18-.18.18ZM937.7,57.87c-.59.12-.71.48-.36,1.07.12.12.29.12.53,0l.18-.53-.36-.53Z"/>
      <path d="M1063.7,136.71c.59.48,1.01,1.13,1.25,1.96.47,1.66.59,3.2.36,4.63-.24,1.54-1.07,2.85-2.49,3.92-.48.24-1.54.36-3.2.36-1.31,0-1.9.65-1.78,1.96.24,1.54-.48,2.85-2.14,3.92-1.78,1.07-4.21,2.08-7.3,3.03-.48.24-3.5,1.13-9.08,2.67l-.71.36c-1.31,0-3.68.3-7.12.89-2.97.48-5.34.77-7.12.89-1.19,0-6.94.53-17.26,1.6-2.14.24-4.16,1.42-6.05,3.56-.24.36-.48.83-.71,1.42-.24.6-.36,1.13-.36,1.6-.12,2.13-.83,4.92-2.14,8.36-1.66,4.27-2.61,6.76-2.85,7.47-.24,1.19-.71,2.67-1.42,4.45.12-.36-.95.83-3.2,3.56-1.31,1.66-1.6,3.38-.89,5.16l.18.71c.47,1.07.29,2.02-.53,2.85-1.19,1.31-1.84,2.43-1.96,3.38-.12.83-.24,1.31-.36,1.42-.95,1.42-2.26,5.46-3.92,12.1-.95,4.15.65,7.47,4.81,9.97,2.25,1.42,4.92,2.38,8.01,2.85,2.37.48,5.58.89,9.61,1.25,3.08.24,6.23.24,9.43,0,1.54-.12,4.69-.47,9.43-1.07,1.9-.24,3.03-1.25,3.38-3.03.12-.36.24-.89.36-1.6-.12.36-.06-.12.18-1.42.12-1.18.59-2.14,1.42-2.85.83-.59,2.07-1.54,3.74-2.85.83-.59,1.84-.89,3.03-.89,1.9-.12,3.26.48,4.09,1.78,1.07,1.54,2.19,3.32,3.38,5.34,1.07,1.78,2.19,3.86,3.38,6.23.71,1.31,1.01,2.85.89,4.63-.12,2.38-.65,5.22-1.6,8.54-.59,1.9-1.66,3.38-3.2,4.45-3.8,2.85-8.6,4.92-14.42,6.23-1.54.36-2.85.48-3.92.36-1.66-.12-3.14.24-4.45,1.07-.59.24-1.37.3-2.31.18-.83,0-2.97.06-6.41.18-6.88.12-12.16-.29-15.84-1.25-4.27-.47-9.91-1.72-16.91-3.74-3.44-1.07-6.41-2.19-8.9-3.38-1.54-.83-2.79-1.84-3.74-3.03-.47-.71-.77-1.13-.89-1.25-1.07-1.9-3.14-4.63-6.23-8.19-4.03-4.51-5.34-9.67-3.92-15.48,2.49-9.85,5.22-18.15,8.19-24.92.83-1.9,2.38-5.52,4.63-10.86.47-1.18.83-2.19,1.07-3.03,1.18-5.1,6.17-21.24,14.95-48.41.71-2.49,1.96-6.41,3.74-11.75,1.78-4.98,3.08-8.9,3.92-11.75.12-.12,1.3-4.45,3.56-12.99h.18l-.36.18c5.93-22.3,8.72-32.8,8.36-31.5,0-.12.06-.36.18-.71.47-2.25.24-4.33-.71-6.23-.48-.71-.42-1.42.18-2.14,2.37-3.08,3.5-4.57,3.38-4.45-.12.24.47-2.02,1.78-6.76,0-.12.24-1.72.71-4.81.24-1.42.71-2.91,1.42-4.45.36-.59.89-1.18,1.6-1.78.71-.59,1.36-1.07,1.96-1.42,3.08-1.54,7.47-3.26,13.17-5.16,1.3-.36,2.61-.24,3.92.36,1.9.83,3.38,1.96,4.45,3.38,1.66,2.26,2.67,4.33,3.03,6.23.12,1.42,1.07,2.2,2.85,2.31,1.66.12,2.73.18,3.2.18h11.03c17.8.12,26.52.18,26.16.18,2.14,0,5.58.42,10.32,1.25,1.54.24,3.8.89,6.76,1.96.59.24,1.3.65,2.14,1.25,3.68,2.49,4.74,5.93,3.2,10.32-.24.83-.77,1.9-1.6,3.2-.83,1.42-1.37,2.49-1.6,3.2-.24.71-1.01,1.48-2.31,2.31-2.38,1.54-4.98,2.79-7.83,3.74-3.8,1.42-7.12,2.08-9.97,1.96-1.07-.12-2.55-.18-4.45-.18-2.25,0-3.68-.06-4.27-.18-2.13,0-3.44-.18-3.92-.53.24.24-.53-.41-2.31-1.96-.95-.95-1.9-1.01-2.85-.18-1.19.95-2.37,1.13-3.56.53-.83-.59-1.84-.53-3.03.18-1.31.71-2.55,1.01-3.74.89-5.81-.24-9.73-.65-11.75-1.25-2.38-.47-4.75-.59-7.12-.36-1.07.12-1.9.71-2.49,1.78-.48.83-.83,1.54-1.07,2.14-2.38,7-3.92,11.51-4.63,13.53-1.19,4.15-2.43,7.59-3.74,10.32-1.54,3.56-2.73,7.06-3.56,10.5-1.54,6.65-2.43,10.5-2.67,11.57-.48,2.85-1.31,5.93-2.49,9.25-.36,1.31-1.31,4.57-2.85,9.79-.24.6-.06,1.19.53,1.78.59.6,1.18.83,1.78.71,1.18-.24,1.72-.29,1.6-.18,1.78-.47,3.26-.89,4.45-1.25,6.29-1.78,12.99-3.26,20.11-4.45,2.37-.36,5.22-.89,8.54-1.6,1.66-.47,2.91-1.48,3.74-3.03.47-.83.95-2.02,1.42-3.56.83-2.14,2.67-3.44,5.52-3.92.71-.12,1.48.06,2.31.53,1.42.71,2.31,1.96,2.67,3.74.12.24.24,1.31.36,3.2.12,1.54.24,2.85.36,3.92,0,.71-.18,1.42-.53,2.14.24-.36-.06.12-.89,1.42-.71.24-1.19.42-1.42.53-1.07.24-1.84.89-2.31,1.96l-.18.36c0,.12-.06.24-.18.36l-.18.71c-.36.71-.12,1.37.71,1.96.83.48,1.6.53,2.31.18.95-.47,1.48-1.3,1.6-2.49,0,.12-.18-1.13-.53-3.74.83.48,1.3.71,1.42.71ZM971.16,189.39v-.18c-.36.12-.6.18-.71.18l.18.53c.71-.12.89-.18.53-.18v-.36ZM975.25,194.9l.53.18c.12.95.18,1.48.18,1.6.12.24.29.36.53.36.71.12,1.01-.18.89-.89,0-.36-.12-.53-.36-.53-.12-.12-.59-.29-1.42-.53l-.36-.18ZM1009.6,111.97l.53-.18-.53-.36v.53ZM1046.44,144.54c.12.24-.12.3-.71.18v-.71c.36-.24.41,0,.18.71l.53-.18ZM1050.18,49.5c-1.07-.71-2.02-.71-2.85,0-.59.36-.59.77,0,1.25.71.6,1.66.42,2.85-.53v-.71ZM1047.69,148.27l-.36-.36v.53l.36-.18ZM1052.85,134.57c-.71-.12-.95.12-.71.71.12.24.36.36.71.36l.36-.53-.36-.53ZM1055.34,66.23c.24-.12.41-.36.53-.71,0-.59-.36-.83-1.07-.71l-.36.53c0,.71.29,1.01.89.89ZM1060.86,57.16l-.18-.53.36.36-.18.18ZM1061.57,63.92c-.12,0-.12.18,0,.53.36-.12.59-.18.71-.18l-.18-.53-.53.18ZM1071.89,64.99h.18-.18ZM1077.23,55.2c-.83,1.54-1.31,2.49-1.42,2.85-.12.12-.18.36-.18.71.12.36.24.6.36.71.59.24,1.07.06,1.42-.53.59-1.18.47-2.37-.36-3.56l.18-.18ZM1096.27,59.11c-.48-.36-.89-.36-1.25,0-.12.24-.06.48.18.71.36.24.77.18,1.25-.18l-.18-.53Z"/>
    </g>
  </g>
</svg>