<?xml version="1.0" encoding="UTF-8"?>
<svg id="Layer_2" data-name="Layer 2" xmlns="http://www.w3.org/2000/svg" viewBox="0 0 46.31 46.31">
  <defs>
    <style>
      .cls-1 {
        fill: #fff;
      }
    </style>
  </defs>
  <g id="Layer_1-2" data-name="Layer 1">
    <g>
      <path class="cls-1" d="M35.42,8.27c-1.5,0-2.71,1.22-2.71,2.71s1.22,2.72,2.71,2.72,2.72-1.22,2.72-2.72-1.22-2.71-2.72-2.71Z"/>
      <path class="cls-1" d="M23.35,11.75c-6.29,0-11.41,5.12-11.41,11.4s5.12,11.4,11.41,11.4,11.4-5.12,11.4-11.4-5.12-11.4-11.4-11.4ZM23.35,30.46c-4.03,0-7.31-3.28-7.31-7.31s3.28-7.31,7.31-7.31,7.31,3.28,7.31,7.31-3.28,7.31-7.31,7.31Z"/>
      <path class="cls-1" d="M32.4,46.31H13.91c-7.67,0-13.91-6.24-13.91-13.91V13.91C0,6.24,6.24,0,13.91,0h18.49c7.67,0,13.91,6.24,13.91,13.91v18.49c0,7.67-6.24,13.91-13.91,13.91ZM13.91,4.36c-5.27,0-9.55,4.29-9.55,9.55v18.49c0,5.27,4.29,9.55,9.55,9.55h18.49c5.27,0,9.55-4.29,9.55-9.55V13.91c0-5.27-4.29-9.55-9.55-9.55H13.91Z"/>
    </g>
  </g>
</svg>