<svg xmlns="http://www.w3.org/2000/svg" id="Layer_2" data-name="Layer 2" viewBox="0 0 272.5 326.1"><defs><style>.cls-1{fill:#fff}</style></defs><g id="Layer_1-2" data-name="Layer 1"><path d="M264 173q-3-3-8-3c-9 0-23 6-31 10-7 3-33 11-27 22 4 6 12 1 17-2l20-9 20-7h1q12-4 8-11M259 267l-3-1-18-6-23-6q-4-2-9 1-4 3-2 7c2 7 9 7 15 9l9 3 12 2 12 3 4 3 4 2q10 2 12-8c2-5-7-7-13-9M262 221q-1-3-6-4l-7-1-17 1q-7-1-15 1a8 8 0 0 0-7 11l4 4 3 1h8l17-1q6 0 14-2 7-3 6-10M137 242c15-12 8-45 7-51-5-21-16-35-22-40-6-7-20-11-28-7-9 5-12 13-12 13-1 8 6 14 8 15 6 1 11-3 16-3q9-1 17 14c1 2 5 16 2 32s-21 18-19 24 20 11 31 3M96 237c-2-3-6 2-9 5-4 5 3 16 2 32-1 21-12 26-9 39 2 8 9 14 13 13 5-2 4-16 8-51l1-20c0-5-3-15-6-18M141 290c-1-16-15-28-16-30l-6-5c-1-1-8-9-11-6-2 2 0 13 4 20 6 12 13 10 19 21 4 8 3 16 4 16 3 1 6-8 6-16" class="cls-1"/><path d="M203 155q4-4 0-10c-9-18-41 29-41 54 1 31 37 73 0 96-11 7-42 29-12 20l17-7q10-5 19-17c13-25 1-55-6-75-11-32 8-49 23-61" class="cls-1"/><path d="M149 276c3 2 10 1 12-2q1-2-2-8c-4-9 2-13-1-20-1-3-1-9-8-9l-4 4c-5 12 0 21 0 27q-1 6 3 8M156 185c5-2 6-9 4-13q-2-5-8-6-6 1-8 4l-1 4v4c1 4 7 9 13 7M102 229c16-6 22-29 13-42-6-10-29-4-36-10-5-5-2-18-9-27q3 24-13 41-2 0-2-1c10-11 11-26 11-40l-1 1c-13 12-26 23-45 21v-1c18 2 31-11 42-23l15-15h-8l-14-4q0-1 2-1 9 2 19 3l7 1c8-3 29-11 35-22q4-10 2-21-20 8-42 2h-1q-5-7-7-16l-42 7c-4 1-20 7-19 13 1 7-12 75-8 89 4 15 70 56 101 45" class="cls-1"/><path d="m87 74-14 1q2 8 6 13 22 5 41-3l-3-10zM64 23c0 7 9 1 16-1l15-3 26 1v-6q-2-8-14-8L72 0c-8 1-10 10-9 16zM24 77l18-4 23-3v-9c0-4-21 4-19 0 23-41 9-57 2-56-13 0-33 3-36 9-4 6 3 31 3 31zM120 24l-26 1c-6 0-30 3-29 11q1 11 7 33l22-3 23 1s11-42 3-43M136 121c3-29 5-30 5-30q10-4 22-1c4 3 2 28 1 37q6 0 8-6 3-6 2-21l1-8c0-10 12 1 13-6l2-10c0-2-15-5-15-7 0-1-3-11 1-12 5 0 17 5 17 4 1-21 6-22-3-30-12-9-38-32-58-17-3 3-7 52-6 100q1 6 10 7" class="cls-1"/><path d="M161 93q-9-4-19 0l-4 29 9 2 15 3c2-17 2-33-1-34M199 117l-5 9-1 1-1 3 6 3h7l1-3v-1q3-8 1-10t-8-2" class="cls-1"/><path d="m190 129 1-2 1-2c4-9 5-9 6-9q5-2 11 2v11l-1 1v3q2 0 5-3c4-5 7-16 8-23 0-4 6-2 6-2l1-7s-5 0-5-6l1-9c1-2 8 3 8 2 2-13 9-21 3-30-3-3-32-19-33-13-2 37-17 85-17 85z" class="cls-1"/></g></svg>