<svg xmlns="http://www.w3.org/2000/svg" width="179" height="81" fill="none" viewBox="0 0 179 81"><path fill="#000" d="m32 59-3 6h-2v2h-1v1l-1 1-2 2-2 2-3 1h-1l-1 1h-5l-2-1H7l-4-1-2-1-1-1 1-1 1-2-1-1 1-1h1l1-1v1h3l2 1h3l8-3 4-3 1-1 3-6q-1 1 0 0v-3l-1-1-7-7-2-2-1-3v-1h1l1-1v-2l1-1 1-1 10-10v-1l1 1v2l-1 1 1 1v2-2l1 1h1v-1h-1v-4h5v1l1-1v-1l1-1v1l-1 3h-1l-1 2v1h-1v-1l-1 1v2l-1 1-1 1-3 4-3 2v1l1 1 2 3 1 1 1 3v1-1h1v3l1 1v4l-1 2v1-1h-1v3m-9-42-2 1h-5v-1l3-3v-1h3l1 1 1 1v1zm-2 18zv-1h-1l1 1q-1 0 0 0zm3-19 1-1v-1h-1l-1-2h-1v-1h2l1 1h2l1-1 1-2h2l1 1h2l1 1h1l1 2h1l1 1v1l-1-1v1h2l1 1v3h-3l-2-1v1h-1v-1l1-1-1-1-1 1h-2l-1-1h-4l-2 1zm-2-1zm3-4v-1zm4 22zm1-20v1h2v-1zm2 17zh1zm0 19zm0 2zm0-25zm0 32q1 0 0 0m5-33zv-1h-2l1 1zm1-9q1 0 0 0M50 40l1-2v-1l1-1 1-2 1-1 1-3 1-1v-1l1-1v-1l2-3 1-1h1l3 1h1l1 1v1l-3 7-1 2-1 1v4h-1v1l1 1h-1v3l-1 1v2h-1v6h1l1 1 1 1h-1l-1 1h-1l-1 1 1 1-1 2v1l1 1v1l-1 3v2l-1 2v2l-1 1-1-1-1-1v-3l1-1v-6h1v-5h-2l-2-1h-4l-1 3-1 1-1 3-2 5-1 2v1l-3 4h-2l-2-1v-2l2-4 2-4 1-1v-1l1-1v-1l1-2 1-2v-1l1-1v-1l1-1 1-1 4-9zm-1 8zm3-4-1 1v1l-2 4v2h2l5 1v-2l1-2V36l-1 1-1 1-1 1v1l-1 3zm5-14zh-1l-1 2-1 2v1l-1 2-1 2h1v-1l2-3 2-4 1-1zm-3 4q0-1 0 0zm3 1q0-1 0 0zm2 5zM95 60l-2 5-1 5-1 1-2 4-2 1h-1l-1 1h-1v-6l1-1v-5h1l1-3 1-1v-1l1-4 1-4 1-2-1-1h-1v-1l3-2 1-2 1-2v-1l1-1v-1l2-5v-1l1-2v-1l3-11 1-1 2-6v-1l1-2h3v4l-1 2-1 5-1 3-1 3-3 16h1l5-2 1-1 1-2v-1l1-3 1-1v-2l4-12 3-9 1-2V5l1-1V2h1l2-1h1l2-1h2v2l-1 2-1 2-1 2-1 1v2l-1 3-1 1v1l-1 3v1l-1 3-1 2-1 3h-1v3l-1 3v1l-1 3-1 2-2 5v2l-1 1v8l-1 1v6l-1 6v3l-1 3v1l-1 2-3 2h-3v-5l1-4 1-3 2-11 1-7 1-4-1-1-6 3v1l-3 6v1l-1 1-1 2zm-7 7zm1-8zv1h1v-1zm12-30zm1-3zm1-7zm5 31zm7-20zm1-4q1 0 0 0M133 35v-2l1-1v-1l2-3 1-1 1-3 1-1v-1l1-1v-2l2-3h6l1 1v1h1l-1 1-3 7-1 2v2l-1 1v3h-1l1 1v2l-1 2v2l-1 1-1 1 1 1h-1v5h2v1l1 1h-1l-1 1h-1l-1 1h1v3l-1 2h1v1l1 1-1 3-1 1v2l-1 2v2h-2l-1-1v-4l1-1v-6h1v-6h-2l-2-1h-5q0 1 0 0l-1 4v1l-2 3-2 5-1 2v2l-3 3h-1q0 2 0 0h-1l-2-1v-2l2-4 2-4 1-1v-1l1-1 1-2v-2l1-2h1v-2l1-1v-1l1-2 5-9zm1 4zl-1 1v1l-2 5v2h2l5 1v-2l1-3V31h-1v1l-1 1h-1v2l-2 3zm7-14zl-1 1-1 2-1 2v1l-2 2v2l1-1 2-4zm-4 3-1 1h1zm3 2zm3 5zM159 75h-6l-3-2-1-2-2-3-1-5v-7l1-2 2-6 1-1v-2l6-11 2-2 1-2 9-7 2-1h8v1l1 1-1 1-1 1-2 2h-4l-5 5-6 7-1 1-3 5-1 2-1 3-1 2v1l-1 4v8l1 1 1 1h6l2-1h1v1h1v-1h1l1-1h1l2-1h2v3l-1 3-1 1-1 1-2 1h-1l-1 1h-5m-7-29zl-1 1h1v-2m3-1q0 1 0 0m1 25zm6 4zm1 0q-1 0 0 0m5-2"/></svg>