<?xml version="1.0" encoding="UTF-8"?>
<svg id="Layer_2" data-name="Layer 2" xmlns="http://www.w3.org/2000/svg" viewBox="0 0 655.21 283.46">
  <g id="Layer_2-2" data-name="Layer 2">
    <g id="Layer_1-2" data-name="Layer 1-2">
      <g>
        <path d="M60.84,36.06c1.44-5.16,2.28-8.04,2.35-8.58.3-1.21,1.14-2.5,2.35-3.72.53-.46.76-1.14.53-2.05-.15-.38-.3-.76-.53-1.37-.76-1.67-1.06-3.64-.83-5.92.15-1.14.38-2.05.83-2.88.46-.68.76-1.06.83-1.21.76-3.04,1.44-4.86,2.05-5.54.3-.46,1.52-1.75,3.57-3.87.46-.46,1.14-.76,2.05-.83,2.12-.23,4.1,0,5.92.53,3.34.91,6,2.28,7.74,4.25,2.28,2.5,4.48,4.48,6.6,5.92,1.9,1.37,2.81,3.34,2.73,5.92v1.52c-1.9,7.97-3.87,14.19-5.92,18.59-.76,1.67-1.67,2.88-2.5,3.57l.15.15c-.68.38-1.29.38-1.82,0h.15c.53,0,.53.53,0,1.67h-.15c0,1.37-.53,2.96-1.52,4.71-.23.46-1.82,3.42-4.71,8.96h.15c-.68,0-1.59.38-2.73,1.21l-.15-.15c.91,1.59,1.37,2.43,1.52,2.5.23.61.3,1.06.15,1.52-.53,2.35-1.67,4.86-3.19,7.44-.46.91-1.21,1.82-2.35,2.73.3-.23-1.21.99-4.55,3.72-.99.76-1.29,1.67-.83,2.73.23.61.38,1.52.53,2.88.15,1.21.3,2.2.53,2.88h-3.04c-.3-.91-.76-1.44-1.21-1.67-.76-.46-1.44-.38-2.05.15-.3.46-.53.91-.53,1.37.15.68.46.99.99.99.23.15,1.21-.08,2.88-.68.91-.53,1.82-.61,2.88-.15h4.4c.99.15,1.75.3,2.2.53,1.14.53,1.97.3,2.5-.68.3-.68.83-1.06,1.52-1.21.3-.15.83-.15,1.52-.15.68-.08,1.21-.23,1.52-.3,2.05-.46,3.34-1.37,4.02-2.88.15-.3.3-.76.68-1.37.68-.91,1.52-1.29,2.5-1.21.3,0,.83,0,1.52-.15.99-.23,1.29-.83.83-1.82-.53-.99-.53-1.9,0-2.73.46-.68.76-1.06.83-1.21.99-.99,1.75-2.05,2.2-3.04.76-1.82,2.28-4.02,4.55-6.75.08-.15.99-1.29,2.5-3.57v.15c.91-.15,1.37-.23,1.37-.3.99-.08,1.59-.53,1.67-1.21.46-2.05,1.44-4.02,3.04-6.07.76-.91,2.28-2.58,4.4-5.08,7.51-8.88,11.46-13.51,11.61-13.81.53-.68,1.44-1.67,2.5-2.88,1.44-1.59,3.79-2.96,7.06-4.25.46-.08.91-.15,1.37-.15,2.58-.23,4.86-.38,6.75-.38,3.11-.08,6,.68,8.58,2.35.68.46,3.11,1.75,7.29,3.87,3.72,1.9,5.77,4.86,6.22,8.8.08,1.14-.08,2.12-.68,2.88-.46.68-.91,1.29-1.37,1.82-2.05,2.35-6.22,7.29-12.67,14.87-1.59,1.9-3.34,3.26-5.39,4.02-2.05.91-4.02,2.43-5.92,4.55-2.5,2.96-3.79,4.48-3.87,4.55-1.67,1.82-3.26,3.34-4.71,4.71-1.59,1.37-3.26,2.5-5.08,3.34-5.39,2.58-8.8,4.17-10.09,4.71-1.59.68-3.34,1.67-5.24,2.88-3.72,2.5-9.87,7.29-18.37,14.34v.15c.15-.3.15-.53,0-.68-.15-.46-.38-.76-.83-.83-.91-.08-1.37.3-1.37,1.37s.23,1.06.68,1.82h-.15c0-.08-2.05,1.21-6.07,3.87-.76.53-1.14,1.44-.99,2.5v.83-.3c-2.35,1.21-3.72,1.97-4.02,2.2-.91.46-1.52,1.14-1.82,2.05-1.37,2.96-1.97,4.25-1.82,4.02-.46.68-1.14,1.59-2.05,2.88-.91,1.21-1.59,2.12-2.05,2.73-.23.3-1.59,1.75-4.02,4.25l-.83.83c-.46.3-.76.53-.83.68-.76.76-1.21,1.67-1.21,2.73-.15,1.21-.15,2.28-.15,3.04.15,1.44.68,2.81,1.67,4.02,2.05,2.35,4.02,4.25,5.92,5.77,4.02,2.96,8.35,7.06,12.83,12.52.68.76,3.57,4.17,8.8,10.09,1.67,1.9,1.82,3.95.3,6.07-.15.23-.3.53-.68.99-.3.3-.53.61-.68.83-.23.3-.23.76,0,1.37.46.91,1.06,1.21,1.82.99.46-.08.99-.3,1.52-.53.91-.46,2.12-.61,3.72-.53.3,0,.53,0,.68.15.76.23,1.21.38,1.37.53,1.59,1.44,3.19,3.64,4.86,6.6l.3,1.52.15-.15-.15.68c-.23.53-.15.99.15,1.21.3.3.91.3,1.67-.15l-.15.15c.68.68,1.44,1.67,2.2,3.04.91,1.44,1.59,2.5,2.2,3.19.46.53,1.97,2.5,4.55,5.77-.08-.23.15.23.83,1.37.23.38.15.76-.15,1.37-.3.68-.68.99-.99.99-1.59.08-2.58.08-3.04,0-2.81-.68-5.16-1.52-7.06-2.5-6.91-3.95-12.07-7.44-15.56-10.47-.23-.08-1.21-.83-3.04-2.2-5.62-4.4-10.85-9.79-15.71-16.24-3.26-4.25-6-7.51-8.12-9.79-.23-.08-.53-.46-.99-.99-.46-.53-.76-.99-.99-1.21-2.28-1.9-4.71-4.48-7.29-7.74-.3-.46-1.21-1.21-2.73-2.35-1.44-1.21-2.81-1.06-4.02.53-2.28,2.58-3.79,5.46-4.55,8.58-.23.3-.38,1.06-.38,2.2s0,1.06.15,1.52c.68,2.28.53,4.93-.53,8.12-.91,2.5-2.81,7.66-5.77,15.56-.46.99-1.75,3.42-3.87,7.29-.68,1.21-1.21,2.35-1.52,3.42-.23,1.14-.61,3.11-1.21,5.92-.46,2.5-.83,4.48-1.21,5.92l-.15.68c-.23,2.05.3,3.64,1.52,4.93.76.76.99.99.53.53.91.76,1.06,1.67.53,2.73-.15.38-.91,1.59-2.35,3.87-1.67,2.81-2.58,4.33-2.73,4.55-2.05,3.79-3.57,7.74-4.55,11.84-1.14,4.48-1.59,6.45-1.52,5.92-.08.46-.38,1.14-.83,2.05s-.76,1.59-.83,2.05c.08-.23,0,.99-.15,3.72-.08.99-.61,1.59-1.52,1.67-2.12.08-2.88.08-2.2,0-1.14.08-2.12.3-3.04.53-2.35.46-3.49,1.9-3.34,4.4.08.46.23,1.06.3,1.9.08.91.15,1.52.15,1.9,0,.53-.08,1.06-.3,1.52-.76,1.14-1.59,2.12-2.35,2.88-.53.53-1.29.76-2.2.53-1.37-.08-2.5-.91-3.57-2.35-.3-.38-.53-.76-.53-1.37-.23-1.82-.15-4.78.3-8.96.08-.76.53-1.75,1.21-2.88.15-.38.76-1.14,1.9-2.35,2.05-2.28,3.19-4.93,3.57-8.12.23-1.14.53-2.81.83-5.08.46-2.35.76-4.1.83-5.24.46-2.73,1.06-5.62,1.82-8.8.76-3.26,1.21-5.77,1.37-7.44,0-.99.3-2.5.83-4.4.53-2.05.91-3.49.99-4.4,1.21-4.63,2.73-10.7,4.55-18.21,2.12-9.56,3.57-15.71,4.25-18.37.46-1.67,3.79-15.03,9.94-39.99.23-.76.91-4.02,2.05-9.64.15-.68.38-2.12.83-4.4.46-1.82.76-3.26.99-4.4.15-.76.38-1.52.68-2.2,1.14-2.96,2.05-5.77,2.88-8.42.38-.99.91-1.82,1.67-2.5,1.59-1.44,2.5-2.28,2.73-2.5.91-.68,2.28-2.5,4.02-5.39l.3-1.52c.23-.91.83-1.59,1.82-2.05.46-.23.91-.53,1.37-.83.76-.53.76-1.44,0-2.73-.46-.91-1.06-1.14-1.82-.68-.23,0-.46.15-.68.3-.3.23-.53.3-.68.3-.46.3-.91.3-1.37-.15-.38-.3-.53-.76-.53-1.37v-.68c.68-2.05,1.67-5.92,2.88-11.61.99-5.08,2.88-9.11,5.77-12.14.53-.68.83-1.59.83-2.73s0-1.75.15-2.2c1.9-7.21,3.34-11.99,4.4-14.34h.3-.53l.23-.3ZM2.63,274.51c-.76-1.44-1.37-2.5-1.67-3.19-.23-.68-.08-1.37.3-2.05.53-.99,1.21-1.14,1.9-.38,1.67,1.67,1.97,3.49.83,5.39l-.68.38-.68-.15h0ZM14.92,272.01c.38.53.46.99.38,1.37-1.14,3.72-2.81,6.83-5.08,9.49l.15.15c-.76-.91-1.21-1.44-1.37-1.52-.91-.99-1.44-.99-1.67.15l-.15,1.37v-.15c-.76-.23-1.29-.68-1.52-1.37-.46-.76-.53-1.44-.15-2.05.23-.23.53-.53.99-.99.46-.53.76-.99.83-1.21.76-.91,1.75-1.59,2.88-2.05.68-.38,1.59-.76,2.73-1.21.53-.38.76-.99.68-2.05-.08-.76-.46-1.44-.99-1.9v.15c1.37.76,2.12,1.37,2.35,1.67h0l-.08.15ZM10.22,282.78c-.91.91-1.9.91-3.04,0v.15h3.19l-.15-.15h0ZM8.47,246.51c2.5.23,4.33.08,5.54-.38-.99,1.21-1.59,2.2-1.67,2.88-.08.23,0,.46.15.68.23.53.53.68.99.38.23-.08.38-.23.53-.38.08-.46.15-1.06.15-1.82-.08-.76-.15-1.37-.15-1.67-.76-.76-1.37-1.59-1.67-2.35-.08-.46-.3-.91-.53-1.37-.3-.46-.76-.53-1.37-.38-.3.08-.53.23-.68.38l-1.21,4.25-.15-.15.08-.08ZM12.57,270.34v-.15c.23-2.12.38-3.42.53-3.87-.23,1.82-.38,3.11-.53,4.02h0ZM16.44,257.81l-.53,1.21c0,.53-.23.83-.68.83-.08.08-.15,0-.15-.53s0-.38.15-.53c.08-.08.46-.38.99-.83l.15-.15h.08ZM15.91,240.28c.53-.53.91-.91.99-.99.08-.23,0-.38-.15-.53-.46-.23-.68.38-.68,1.67l-.15.53v-.68h0ZM16.44,257.51l-.15.15v.3l.15-.53h0v.08ZM44.98,87.51c-.23,0-.38-.08-.53-.3-.15-.53.15-.83.68-.83l.53.3c.15.53-.15.83-.68.83ZM44.6,100.72h.53l-.15-.53s-.38.53-.3.53h-.08ZM50.52,97.15h.3l-.3.15.15.15-.15-.3h0ZM51.58,73.32l-.3.68c.15.15.3.15.53.15.53-.53.53-.83-.15-.83h-.08ZM53.55,93.43c.15-.23,0-.38-.15-.53-.46-.46-.68-.3-.68.3l.3.53.53-.3h0ZM66.07,69.3c-.99-1.37-1.37-2.73-1.21-4.02,0-.08-.15-.83-.53-2.2v.15c-.23-1.82-.3-4.86-.15-9.26l.15.15c-2.28.68-3.42.99-3.57.99-1.9.68-2.58,1.82-2.05,3.57.68,2.12,1.21,3.57,1.52,4.25.23.68.3,1.9.3,3.72q-.15.15-.15,0c.68.68,1.06.99,1.21.99.15.23.3.46.53.68.46.53.38,1.21-.15,2.05-.53.68-1.21.76-2.05.15-.91-.53-1.52-.91-1.82-.99-.99-.23-1.67,0-2.05.68-.23.53-.23,1.06,0,1.52.46.68.76,1.06.83,1.21,2.28,2.28,4.02,4.02,5.39,5.24.23.3.61.23,1.21-.3.3-.23.53-.38.53-.53.23-.76,1.29-2.43,3.19-4.86.3-.46.3-.99,0-1.52,0-.15-.46-.68-1.37-1.67l.15.15h0l.08-.15ZM68.43,107.25c.3-.53-1.37,1.9-5.08,7.44-.23.3-.99.99-2.35,1.82-.15.08-.38.3-.83.53s-.76.46-.99.68c-.99.91-1.67,1.9-2.05,3.04-.23.91,0,1.59.68,2.05.76.53,1.52.68,2.2.3.53-.3,1.37-.83,2.5-1.52s1.97-1.59,2.5-2.73c.76-1.67,1.06-2.35.83-2.05.3-.53.68-.91.99-.99-.15,0,1.37-.91,4.55-2.73l1.52-.15h.15-.3c.3-.91.53-1.37.68-1.37.91-2.35,2.28-4.1,4.02-5.24.76-.46,1.29-.91,1.52-1.37.46-.76,1.14-1.67,2.05-2.73,1.21-1.21,1.97-2.05,2.2-2.5,1.59-2.12,2.73-3.72,3.34-4.71.15-.15.3-.61.53-1.52.23-.91,0-1.52-.83-1.82-.3-.15-.83-.23-1.52-.3-1.44-.46-2.5-.15-3.04.83-.91,1.67-2.12,2.96-3.57,3.87-.23.15-.53.3-.83.53-.46.3-.76.61-.99.68-.68.46-1.67.61-2.88.53l.15-.15c-.15.76-.15,1.21-.15,1.37-.15,2.12-.83,3.87-2.2,5.24-.23.08-1.21,1.21-2.88,3.19v-.15h0l.08-.08ZM60.69,90.93l.53.3v-.53l-.53.15v.08ZM68.43,98.37c-.76-.53-1.67-.99-2.5-1.37-.53-.23-1.14-.15-1.67.15s-.91.83-.99,1.52c0,.99.3,1.9.83,2.73.46.76,1.06,1.06,1.82.83.99-.3,1.67-.61,2.05-.83.68-.3,1.06-.99,1.21-1.82,0-.53-.23-.99-.68-1.21h-.08ZM66.07,69.3l-.15-.15.15.15ZM68.96,151.34v.15l-.15.3.15-.53v.08ZM73.28,10.94c-.76-.68-1.67-.83-2.5-.53-1.14.23-1.37.76-.68,1.67,1.21,1.44,2.43,1.44,3.57,0l.15-.68c-.23-.3-.38-.53-.53-.53h0v.08ZM74.19,86c-.3-.3-.53-.3-.68.15,0,.76.3,1.37.99,1.82.23.15.46.15.68,0,.23-.08.3-.3.15-.68-.3-.68-.76-1.14-1.21-1.37h0l.08.08ZM75.18,19.21l-.53.38.53.38v-.68h0v-.08ZM78.75,158.4c0-.08,0-.23-.15-.3l-.53.15c-.23.3-.15.53.15.53,0,.08.23.08.68,0-.15-.08-.15-.23-.15-.3h0v-.08ZM80.72,55.79h-.15.15ZM83.3,17.16c.15-.23,0-.38-.15-.53-.46-.38-.68-.23-.68.38l.3.3s.53-.15.53-.15ZM82.77,109.29v.3-.3ZM84.59,23.54c.15.23.3.38.53.38.68-.08.91-.46.68-.99l-.68-.38c-.53.08-.76.46-.53.99ZM86.49,180.86l-.53-.15.15.53.3-.3h0l.08-.08ZM89.68,82.96c-1.14.15-2.05.53-2.73,1.21-.91,1.14-.91,2.28,0,3.34.23.3.46.46.68.3,1.37-.3,2.5-1.06,3.57-2.2l.15-.68c.15-1.37-.46-2.05-1.67-2.05h0v.08ZM88.54,40.23c-.46.91-.99,1.52-1.67,1.9h.15v-1.67h-.15,1.82l-.15-.15h0v-.08ZM91.57,100.49c-.3.46-.91,1.06-1.67,1.82-.15,0,0,0,.15,0,.76-.53,1.29-1.14,1.52-1.67v-.15h0ZM103.34,56.78h-.3v-.15l.3.15ZM106.37,185.11c.68.53,1.21,1.14,1.67,1.67l.15-.15-.83-.83-.83-.83-.15.15h0ZM117.22,74.01c-.23-.15-.46-.15-.68,0-.3.46-.15.68.53.68l.53-.3-.3-.3h0l-.08-.08ZM148.57,28.62c-.53.23-.76.53-.53.99.23.53.61.76,1.21.53.53-.23.76-.61.53-1.21-.23-.46-.61-.53-1.21-.3Z"/>
        <path d="M172.65,112.57c.82-2.38,1.81-4.27,3.04-5.67.9-1.07,1.56-2.3,1.89-3.86.16-.25.33-.66.49-1.23.16-.58.25-.99.33-1.32.9-3.04,2.38-5.84,4.6-8.47l.74-.74c.33-.41.58-.66.74-.82.74-.82,1.23-1.56,1.48-2.3.9-2.38,2.55-5.75,4.93-10.11.33-.58,1.07-2.14,2.3-4.85-.16.33.08-.33.74-2.05.66-1.48,1.64-3.04,3.04-4.44.49-.49.74-1.15.82-1.89,0-1.07.25-2.05.82-3.04,1.64-3.12,3.21-6.58,4.68-10.19.58-1.4,1.64-2.22,3.29-2.63,1.32-.41,2.47-.58,3.62-.49.9,0,2.3.25,4.36.49.49,0,.82.16.99.33.58.33,1.32.58,2.3.82,1.23.25,1.97.41,2.3.58.9.33,1.73.49,2.63.49,1.64-.16,3.12.66,4.44,2.55.16.25.49.74.99,1.56.33.74.66,1.23,1.07,1.56.16.25.16.58,0,1.07-.16.25-.33.49-.58.82-3.53,5.1-6.82,12.08-9.78,20.79-.25.49-.66,1.81-1.32,4.11-.99,3.45-1.89,6-2.79,7.56-.82,1.64-1.32,3.29-1.48,5.01-.08,1.4-.58,3.12-1.48,5.18-.58,1.48-.82,3.04-.82,4.68v1.56c0,.49-.16.99-.58,1.56-.9,1.07-1.4,1.73-1.56,2.14-.33.99-.16,1.81.33,2.55.08.08.16.16.33.33s.25.25.33.33c.33.49.41.99.33,1.56-.16.82-.33,1.48-.49,2.05-.16.41-.41,1.07-.82,2.05-.33.82-.58,1.48-.74,1.89-.82,2.47-1.32,4.6-1.56,6.25-.08.66-.25,1.81-.49,3.45-.25,1.48-.41,2.55-.49,3.37-.08.41-.25.9-.49,1.56-.33.82-.82,1.32-1.48,1.48-.49.16-.82.25-.99.33-.9.33-1.23.9-1.07,1.73.33,1.73.49,2.63.58,2.63.08-.41-.08.25-.58,2.05-.9,3.04-1.48,6.25-1.64,9.53,0,.33,0,.82-.08,1.56s-.16,1.23-.25,1.56c-.08,1.4.49,2.22,1.81,2.55,1.73.41,3.29.9,4.6,1.48.9.33,1.64.82,2.14,1.48.58.66,1.48,1.73,2.63,3.37.25.25.33.58.25.99-.08.49-.25.74-.58.82,0,.08-.08.08-.25.08-.08.08-.16.08-.25.08-1.32.66-2.47.99-3.45,1.07-.9,0-1.89.25-3.12.82-.9.49-1.48.9-1.64,1.32-.58.99-1.56,1.64-3.04,2.05-.41.16-.58.41-.58.74-.08.41.08.74.49,1.07l.82.49c.66.41.9.99.74,1.81,0,.41-.16,1.23-.49,2.38-.25.99-.41,1.73-.49,2.38-.16,1.73-.16,3.04,0,3.7.25.99.08,2.14-.33,3.62-.25.58-.08,1.07.33,1.48.9.74,1.32,1.73,1.32,2.88-.08.74.25,1.32.99,1.64.99.58,1.32,1.56.99,2.88-1.15,4.03-2.14,6.9-3.12,8.55-.82,1.4-1.15,2.71-.99,4.11.08.82,0,1.64-.33,2.63-.49,1.23-.9,2.14-1.23,2.88-.99,2.22-1.64,4.52-1.89,6.74-.33,1.64-.66,3.45-1.07,5.34-.16.58-.49,1.15-.99,1.81-.58.9-1.48,1.4-2.63,1.56-.33.08-.66,0-.99-.25-.74-.49-1.32-.99-1.73-1.48.08.08-.9-1.15-3.04-3.7-.99-1.23-1.23-2.38-.82-3.45.25-.58.33-1.48.25-2.63,0-1.64.16-3.04.58-4.19.16-.66.25-1.15.25-1.56.08-1.23.49-2.71,1.32-4.6.66-1.56.99-3.12.99-4.68-.08-2.05.16-5.84.74-11.34.08-1.15.33-2.14.82-3.04.41-.82.66-1.32.74-1.48,1.4-2.47,1.97-5.26,1.89-8.3,0-.58-.16-1.07-.49-1.48-.33-.58-.33-1.23-.08-2.05.49-1.81.74-2.88.82-3.12.08-.49.08-.99,0-1.56-.16-.9-.58-1.48-1.32-1.73-1.4-.49-2.71-.9-4.11-1.23-.33-.08-.82-.16-1.56-.25s-1.23-.16-1.56-.25-2.05-.58-5.18-1.48c-.99-.33-1.48-.49-1.56-.49-.99-.08-3.95-.66-8.88-1.73-.25-.08-.58-.08-1.07-.08-2.14-.33-3.78.49-4.93,2.55-.16.41-.25.58-.25.49-2.22,5.84-3.45,9.37-3.62,10.6s-.66,2.38-1.48,3.45c-1.64,2.47-3.21,5.67-4.85,9.53-.33.74-.58,1.23-.74,1.48-2.05,3.86-3.95,9.04-5.67,15.62-.82,3.45-1.73,6.33-2.79,8.63-.33.82-.9,2.47-1.81,5.01-1.4,4.19-3.78,7.81-7.31,10.93-.49.41-.9.74-1.32.99-1.07.41-2.05.74-3.04,1.07-.66.16-1.4.08-2.14-.08-.58-.25-.99-.49-1.32-.74-1.4-1.07-3.78-2.55-7.31-4.44-.49-.33-.74-.82-.74-1.48s.08-1.4.25-2.05c.08-.33.25-.82.58-1.56.49-.9,1.4-2.79,2.79-5.75,1.07-2.47,1.89-4.44,2.63-5.92-.33.66.25-.66,1.73-3.86,1.64-3.7,2.71-6.16,3.37-7.31,1.07-2.3,2.14-4.11,3.37-5.42l.99-1.32c.41-.58.66-1.23.74-2.05v-2.14c0-.99.41-1.89,1.23-2.88.33-.41,1.15-1.32,2.55-2.79,1.07-1.23,1.89-2.79,2.55-4.68,0-.25,0-.58.08-1.07.33-2.22,1.23-4.19,2.63-5.75,1.4-1.73,2.47-3.7,3.37-6,.33-.99.49-1.81.49-2.63s0-.74-.08-1.07c-.25-1.73.25-3.62,1.48-5.67.58-.99,1.32-1.73,2.14-2.3.99-.66,1.73-1.56,2.38-2.88,1.15-2.14,2.14-4.19,3.12-6.16,4.19-8.88,6.66-14.05,7.48-15.53,1.15-2.14,2.3-4.77,3.62-7.73.82-1.89,1.73-3.62,2.88-5.18.25-.25.74-.99,1.56-2.14h-.08c.08-.33.74-2.3,2.05-6h0l-.16.58ZM167.96,142.32c.16-.08.16-.16.08-.33-.25-.41-.41-.41-.58,0-.08,0-.08.16,0,.49h.49v-.16ZM179.14,127.04l.33-.25c-1.4,3.37-2.14,5.34-2.38,5.92-.25.49-.41.99-.49,1.56-.33,1.81-1.15,4.77-2.55,8.79-.16.25-1.23,2.88-3.12,7.97-.49,1.23-.82,2.38-.99,3.62-.16,1.07.25,1.81,1.23,2.3.49.25.66.33.49.25,2.71.9,4.27,1.4,4.6,1.48,4.68.82,7.64,1.23,9.04,1.23s1.48.08,2.63.33c1.56.25,3.29.08,5.26-.33h.49c.66-.49,1.07-.9,1.23-1.23.41-1.15.58-2.55.49-4.36,0-2.22.16-5.26.58-9.04.49-4.44.74-7.48.82-9.12,0-.33.08-.82.25-1.56.58-2.38.74-5.01.58-7.97-.16-2.38-.08-4.36.25-5.92.41-1.73.49-3.45.25-5.26-.49-3.37-.49-6.9,0-10.68.08-.74,0-1.48-.08-2.14-.25-1.07-.9-1.56-1.89-1.48-.9.08-1.48.41-1.81,1.07-.25.49-.58,1.23-.99,2.14-.49,1.07-.82,1.73-1.07,2.14-.08.25-.33.49-.74.74-.08,0-.41,0-1.07.08-.9.16-1.56.66-2.05,1.56-.33.58-.74,1.32-1.32,2.3-.66,1.32-1.07,2.05-1.23,2.38-1.73,3.04-2.79,5.84-3.29,8.47-.08.33-.16.74-.25,1.32,0,.66,0,1.07-.08,1.32-.08.33-.25.58-.58.82-.9.74-1.64,1.23-2.3,1.48h-.25v.08h0ZM199.44,79.2c-.25-.41-.74-.33-1.48.25-1.07.9-1.81,1.81-2.3,2.88-.41.99-1.73,3.45-3.95,7.56-1.48,2.55-2.55,5.01-3.29,7.31-.41,1.32-.99,2.38-1.81,3.29-.41.58-1.89,2.96-4.6,7.23-.9,1.4-1.4,3.04-1.48,5.01,0,.25.08.58.25.99.41.82.9.9,1.48.33.49-.49,1.07-1.4,1.81-2.63,1.15-2.14,3.62-6.74,7.31-13.73,3.04-5.59,5.51-10.19,7.31-13.64.33-.66.58-1.32.82-1.89.33-.82.41-1.48.25-2.14-.08-.33-.25-.58-.49-.82h.16ZM188.18,91.37c0,.08,0-.08-.08-.49-.25-.82-.66-.99-1.32-.49-1.23.9-1.73,2.3-1.48,4.19.08.25.25.41.58.49s.58,0,.74-.08c.99-.58,1.48-1.32,1.56-2.3v-1.32h0ZM196.73,97.2c.41.16.82.08,1.23-.08.41-.25.58-.58.58-1.07s0-.74-.08-.99c-.33-1.07-.9-1.23-1.73-.58-.66.41-.99.99-.99,1.73-.08.49.25.82.99,1.07h0v-.08ZM206.26,114.13c-.33-.08-.58,0-.82.33-.33.33-.25.58.08.82.58.41.99.25,1.23-.33.08-.41-.08-.66-.49-.82h0Z"/>
        <path d="M277.51,129.55v-.49c.33-.9,0-1.23-.9-.99-.82.25-1.48.99-1.89,2.14-.16.66,0,1.15.41,1.48,1.23.74,1.56,1.97.99,3.62-.41.99-1.15,2.38-2.14,4.11-2.14,4.11-3.7,7.23-4.52,9.53-.16.49-.49.99-.99,1.4h-.08c0,.08,0-.99,0-.99-.16-.82-.58-1.07-1.23-.74-.82.41-1.32.74-1.48.9-.74.66-1.48,1.56-2.14,2.63-.99,1.73-1.81,3.45-2.47,5.1-.16.49-.16.9-.08,1.15.08.9-.33,1.73-1.15,2.47-.49.49-.99,1.07-1.4,1.73-.25.33-.41.9-.49,1.64-.08.99.41,1.48,1.4,1.48h2.22c-.16,1.4-.25,2.14-.25,2.22-.08.9-.49,1.81-1.15,2.63-.74,1.07-.82,2.22-.25,3.37.25.49.16,1.07-.25,1.64-1.07,1.23-1.64,2.63-1.73,4.11-.08,1.15-.41,2.3-.9,3.37-.16.25-.49.9-.9,1.89-.25.74-.49,1.4-.74,1.89-1.56,2.79-2.79,5.42-3.53,7.89-.25.74-.9,1.97-1.89,3.62-.74,1.15-1.15,2.38-1.23,3.78-.41,4.52-2.05,10.85-5.01,18.99-1.32,3.7-2.14,6.25-2.47,7.73-.25,1.4-.74,3.12-1.48,5.01-.66,1.56-1.73,2.63-3.29,3.12-.58.25-1.15.33-1.73.08h.08c-2.14-.74-3.45-1.23-3.86-1.4-2.05-.74-3.86-2.14-5.34-4.11-.58-.66-.9-1.4-.9-2.14,0,.41,0-.41,0-2.38s.08-1.64.41-2.22c.74-1.81,1.4-4.27,1.89-7.23.66-4.27,1.89-7.89,3.62-10.85.82-1.48,1.4-2.71,1.73-3.78.9-2.63,2.63-5.84,5.1-9.62l3.29-4.85c.41-.66.74-1.56.9-2.79h.08c0-.08-.08.16-.08.16l-.49-.99c-.25-.66-.25-1.23,0-1.73,1.56-3.12,2.88-5.67,3.86-7.73l1.4-1.89c.49-.74.74-1.48.74-2.14,0-1.81.41-3.7,1.23-5.59,2.88-6.41,4.36-9.62,4.36-9.53,1.56-3.37,2.79-6.25,3.62-8.63.74-2.05,1.64-4.19,2.63-6.41,2.96-6,4.85-10.03,5.59-12.16.33-.99.9-1.97,1.73-2.96.49-.49.99-1.07,1.48-1.73s.82-1.4.99-2.14c.25-1.48.41-2.38.49-2.79.33-1.48,1.15-3.21,2.38-5.26.33-.49.25-1.07-.25-1.64l-.41-.41h.08c-.08-.25,0-1.23.41-2.88.08-.33.16-.82.41-1.4.25-.66.41-1.15.41-1.4.33-1.32-.16-2.22-1.48-2.71-3.62-1.48-6.49-2.63-8.71-3.53-3.21-1.07-5.92-2.47-8.22-4.11-.08-.08-1.07-.74-2.96-1.89q0,.16.08.08c-3.21-2.38-5.1-4.03-5.84-4.77-1.48-1.56-3.78-3.12-6.74-4.52-.41-.16-1.07-.41-1.89-.74-.9-.33-1.56-.58-1.89-.74l-.9-.66c-.49-.33-.74-.82-.74-1.48s.25-1.15.74-1.48c2.96-1.56,6-1.97,9.04-1.15-.16,0,1.64.66,5.34,1.97,7.97,2.71,13.48,4.68,16.36,5.75,3.78,1.32,6.25,2.38,7.48,3.21h-.08c4.44,1.4,6.99,2.22,7.73,2.47.33.16,1.07.41,2.22.74,1.4.33,2.55-.08,3.53-1.4.58-.82,1.15-1.64,1.64-2.47.99-1.48,1.64-2.88,1.89-4.11.33-1.23.99-2.63,1.89-4.27-.08.16.49-.66,1.64-2.47,1.32-2.14,2.88-3.95,4.52-5.26,2.14-1.73,4.11-3.86,5.84-6.41.82-1.07,1.23-2.14,1.15-3.21,0-1.15.49-2.14,1.48-3.04.41-.33,1.07-.82,1.89-1.4,1.15-.82,2.14-1.97,2.96-3.53.41-.74.41-1.48-.08-2.14-.33-.49-.33-1.07,0-1.64.16-.16.58-.66,1.15-1.4.58-.41.66-.49.25-.16h-.41c2.22-2.05,3.53-3.21,3.78-3.53,1.32-1.23,2.3-2.71,2.88-4.36.08,0,.08-.25.08-.49.08-.33.16-.58.25-.66.49-1.64,1.48-3.53,2.96-5.59.33-.41.99-1.23,1.97-2.38.82-1.07,1.48-1.97,1.89-2.63.41-.58,1.15-.82,2.14-.74.41,0,1.07,0,1.97.25.82,0,1.48.16,1.97.25,1.81.16,3.78.99,5.75,2.38.58.41.99.82,1.23,1.23.74,1.23,1.4,2.47,1.89,3.62.25.49.16,1.07-.25,1.64-.33.41-.74.82-1.15,1.23-1.97,2.05-3.86,3.78-5.59,5.1-.9.66-1.56,1.4-1.89,2.14-.41.66-1.56,1.97-3.37,4.03-6.08,6.82-11.67,14.71-16.77,23.59-.16,0-.33,0-.49.16-.25,0,0,0,.66-.16-.49.49-.82.74-.9.74-.9.9-1.89,1.48-2.96,1.64-.33,0-.74,0-1.15.16-1.15.33-1.64,1.07-1.48,2.22.16.49.33.9.41,1.15.33.74.33,1.48-.08,2.14-.9,1.56-2.22,3.29-4.03,5.01-.33.33-.99.74-1.97,1.23-1.48.74-2.38,2.14-2.63,4.11-.16.99.16,1.73,1.15,2.22.08.08.16.08.25.08h.25c.99.82.99,1.56,0,2.47-.66.58-.66,1.15,0,1.64.41.41.66.74.74.9.25.33.41.66.41.99,0,1.32-.41,2.38-1.23,3.12-.08.16-.82.82-2.22,1.89l-.74-.9c-.41-.41-.66-.33-.66.25s.08.16.41.25c.08,0,.41.08,1.15.25-.82.49-1.32.82-1.48.99-2.3,1.32-4.27,3.21-5.84,5.51-.58.9-1.07,1.73-1.48,2.47-1.73,2.79-3.29,4.77-4.52,6.08-.58.58-.9,1.23-.99,1.97-.16,1.23-.82,2.47-1.89,3.62-.08.08-.66.58-1.73,1.48h-.08v.16l-.33.66ZM240.52,218.81l-.41-.41v.49c-.08,0,.41-.08.41-.08ZM249.15,86.98h.41l-.25-.41v.41h-.16ZM252.77,182.73c-1.23-.41-1.97,0-2.14,1.23-.08.33,0,.66.41.99.33.25.66.33.99.25.74-.33,1.15-.9,1.23-1.64,0-.49-.16-.82-.49-.9h0v.08ZM257.29,169.99c-.33-.08-.74,0-1.15.08-.25.16-.58.49-.9.9-.74.99-1.32,2.14-1.73,3.53-.16.66,0,1.23.49,1.64.41.41.9.49,1.48.25.66-.25,1.15-.66,1.4-1.15.58-1.73.9-3.21.9-4.36-.08-.58-.25-.9-.49-.9h0ZM262.88,164.48h-.08c-.25.58-.66.99-1.23,1.23.16-.49.66-.9,1.4-1.23h-.08ZM268.47,150.67v-.25c-.08,0,0-.08,0-.08v.41h0v-.08ZM271.01,112.13h.25c0,.08-.08.08-.08.08h-.08v-.08h-.08ZM277.59,129.71h-.08c0-.08.08-.25.08-.25v.25h0ZM286.63,111.06c.08.16.16.33.41.41.66.33,1.07.08,1.23-.74,0-.41-.16-.66-.66-.74-.82-.08-1.15.33-.99,1.15h0v-.08ZM303.48,76.37c0,.16.08.33.25.41.49,0,.74-.16.74-.66l-.41-.41c-.41,0-.66.16-.66.66h.08ZM308.25,69.55v-.41l-.41.16.41.25h0ZM315.73,53.36c-.9-.49-1.48-.16-1.73.99,0,0,.08.25.25.49.25.25.58.33.99.16.66-.25.9-.66.74-1.23,0,0-.25-.41-.25-.41ZM319.01,46.95c-.25,0-.41.16-.41.41-.16.41,0,.66.41.74.41,0,.66,0,.66-.49s-.16-.66-.66-.66Z"/>
        <path d="M370.04,187.16c-2.71,5.34-5.59,9.94-8.71,13.89-.99,1.23-2.22,1.73-3.62,1.48h-.58c-.58.16-.9.58-1.07,1.15,0,.49-.08.74-.08.9s0,.41.08,1.07c0,.66,0,1.23-.49,1.97-.49.82-.99,1.56-1.64,2.05,0,0-.49.41-1.15.9-3.04,2.55-5.34,4.93-6.82,7.07-.99,1.4-2.47,2.55-4.44,3.37-2.47,1.07-4.44,2.14-5.92,3.12-.82.74-1.81,1.07-2.88,1.07s-2.14.16-2.88.58-1.4.66-1.97.82c-.74.33-1.4.49-1.97.49-3.04.25-5.42,0-7.23-.49-.33-.16-.99-.25-1.97-.33-1.07-.16-2.05-.49-3.04-.9-.58-.33-1.15-.58-1.89-.74s-1.4-.25-2.05-.33c.33,0-.41,0-2.05,0-3.21,0-6.33-.74-9.37-2.05-.74-.41-1.23-.66-1.4-.74-.9-.99-2.3-1.64-4.19-1.89-.82,0-1.4-.66-1.73-1.64-.41-.9-.33-1.73.25-2.47.33-.49.66-.9.9-1.23.99-.99,1.97-2.63,2.79-4.85.16-.33.16-.66,0-1.07,0,.08-.41-.9-1.15-2.88-.41-.82,0-1.32.9-1.48.66,0,1.97-.41,3.95-1.07.16,0,.66-.08,1.48-.08s.33,0,.58.08c2.79,1.15,5.34,1.97,7.81,2.47,1.15.25,2.3.74,3.37,1.4,1.32.74,2.79,1.15,4.44,1.15h2.05c.74,0,1.32-.16,1.97-.49,2.05-1.15,3.29-1.81,3.62-1.97,1.23-.58,2.38-1.32,3.45-2.3,1.07-.99,2.55-1.81,4.44-2.47,3.62-1.15,5.92-1.89,6.99-2.05-.58.16.08,0,1.97-.58,2.88-.74,5.51-2.55,7.97-5.26.33-.33.74-.74,1.15-1.4.58-.74.9-1.15,1.15-1.4l1.89-1.89h-.08c2.05-3.29,3.95-7.73,5.42-13.23-.08.25,0-.25.33-1.48.58-2.38.82-3.37.9-2.88l-.82-3.04c-.16-.66-.25-1.15-.25-1.48-.16-.9-.58-1.89-1.15-2.88-3.78-7.07-8.88-12.33-15.21-15.78-.33,0-.74-.33-1.4-.74-.66-.25-1.07-.49-1.4-.74-2.55-1.4-4.44-3.37-5.59-5.92-1.07-2.47-1.73-4.6-1.89-6.41,0-.82.33-1.4,1.07-1.73.41-.16.82-.33,1.4-.49.99-.33,1.73-.99,2.22-2.05.9-1.97,1.32-3.95,1.23-6,0-1.07.49-2.14,1.48-3.12.74-.74,1.56-1.4,2.47-1.97,3.86-2.96,8.79-7.48,14.71-13.64,2.63-2.63,5.01-5.34,7.07-8.22.66-.9,1.81-2.47,3.45-4.52.25-.33.58-.33.9-.08.16.16.25.33.25.49.25.58.33.82.25.9,0,.66,0,1.97-.08,4.19,0,1.73-.08,3.04-.33,4.03,0,.41,0,.9.08,1.48.41.99.49,2.22.25,3.62-.16.82,0,1.64.58,2.47,0,.25.16.33.33.25.16,0,.25-.08.33-.33.16-.41.16-.9.08-1.48-.25-1.23,0-2.55.74-3.95h0c.16.66.58,1.15,1.15,1.32.25,0,.41.16.49.25.41.25.49.66.33,1.15v.25-.33c.9,0,1.4-.08,1.48-.08.41,0,.66-.33.74-.74.25-1.23-.08-2.14-1.07-2.63-.25,0-.41-.16-.58-.25h-1.48.08c.16-1.56.25-2.38.33-2.55,0-.58-.08-.99-.33-1.4-.74-1.07-.82-2.55-.33-4.27,0-.25.41-.58,1.07-1.07h-.08c.58.16.82.33.9.33,1.81,1.15,3.45,1.15,5.1,0,.16-.16.41-.33.82-.49.58-.25,1.07-.33,1.48-.25.16,0,.99.16,2.47.49h-.08c.66.9.99,1.48,1.07,1.64.33.58.74.58,1.23,0,.58-.58.9-.9,1.07-1.07.33-.49.41-.9.33-1.4,0,0-.25-.58-.49-1.48h-.08c.9-.16,1.81-.74,2.63-1.48.25-.33.58-.33.9,0,.16.16.25.33.25.49,0,1.15,0,1.89-.08,2.05-1.07,2.63-2.3,4.52-3.62,5.59-.58.41-.9.9-1.15,1.64-.49,1.64-1.23,3.12-2.47,4.52.33-.41-.33.66-1.97,3.04-.25.33-.58.41-.9.25-.25,0-.41-.16-.49-.33,0-.16,0-.41-.08-.74-.16-.41-.25-.66-.25-.82-.16-.41-.41-.58-.82-.49-.33,0-.58.25-.82.58-.25.49-.33,1.15-.33,2.05v3.04c0,1.15-.66,1.89-1.89,2.05-1.15.25-1.48.33-1.07.25-1.23.33-1.73,1.07-1.4,2.3.16.82,0,1.48-.33,1.89-3.29,4.19-6.25,7.31-8.96,9.29-.58.41-2.22,1.89-5.01,4.52-.08,0-.41.49-.9,1.15-.74.99-.74,1.97,0,2.88.82.99,1.56,1.81,2.05,2.3,1.64,1.81,3.45,4.03,5.42,6.82.16.25.33.58.58.9.33.41.58.66.74.82,1.89,2.63,2.55,5.18,2.22,7.64v1.07c0,.9.25,1.32.74,1.32.25,0,.49-.33.74-.74.49-.74.82-.74,1.07.08,0,.33.33.82.82,1.64.41.74.66,1.23.74,1.64,0,.49.16,1.4.58,2.79.33,1.15.49,2.05.49,2.79.33,4.36.25,7.4-.08,9.29v2.05c.25,1.23,0,2.96-.82,5.1,0,.41-.25.58-.58.58s-.58-.16-.74-.58c-.16-.25-.33-.58-.58-.9-.25-.33-.58-.41-.9-.33-.74.25-.9.66-.74,1.32l.33.9c.58,1.07.9,2.05,1.15,2.88v1.15c-.33,1.32-.49,1.97-.49,2.05h.16ZM348.18,79.99c-.25.58-.74.99-1.48,1.32-1.48.66-2.96,1.07-4.44,1.15-1.15,0-2.71.25-4.6.58-1.56.25-3.29.33-5.1.25-.66,0-1.23-.25-1.89-.66-.58-.41-.74-.82-.58-1.4.25-.82.41-1.32.49-1.4,2.14-3.53,4.44-6.08,6.74-7.64.25-.16.66-.49,1.15-1.07.58-.66,1.32-.9,2.3-.82,1.4,0,2.47.41,3.29,1.32.58.58,1.4,1.4,2.63,2.47,1.07,1.07,1.97,1.89,2.55,2.55,0,0,.25.25.82.58h0c-.9.99-1.56,1.97-1.89,2.88h0v-.08ZM341.44,124.86c.25-.58.41-.99.49-1.32,0-.74.08-1.23.33-1.48.25-.41.49-.74.82-1.15s.33-.74,0-.9h-.49c-.74.49-1.23.82-1.64,1.15-.74.58-.66,1.15.08,1.89,0,0,.16,0,.82.49-.16.74-.25,1.23-.33,1.48h-.08c0-.05,0-.08,0-.08v-.08ZM350.07,77.11c1.32-.99,2.3-1.56,2.88-1.73h0c0,.08.33-.82.33-.82.33-.66.08-1.07-.58-1.15-.16,0-.49-.08-1.07-.08-.41,0-.74-.16-.9-.25-.82,0-1.23-.49-1.23-1.32,0-1.23-.9-2.3-2.47-3.12,0,0-.33-.08-.9-.08-.74,0-1.15-.08-1.07-.08-.33,0-.58-.33-.74-.66,0-.41,0-.74.08-1.07.49-.58,1.07-.9,1.73-1.15.74-.33,1.32-.25,1.97.08.41.33.74.66,1.15.9.58.49,1.15.82,1.73,1.07.82.33,1.32.49,1.48.58,1.15.9,2.14.82,3.04-.25.49-.58,1.07-.82,1.89-.82s.33,0,.49-.25c.49-.33.74-.49.82-.58.16-.33.41-.9.82-1.89.41-.9,1.32-1.89,2.88-2.88,0,0,.25,0,.49-.08,1.32-.16,2.55-.08,3.62.08.9.25,1.97.49,3.04.82.16,0,.49.49.9,1.15.49.66,1.23.82,2.22.49.41,0,.58-.08.49-.08.58,0,.82,0,.9.08.82.49,1.48.74,1.89.82.9.25,1.89.66,2.88,1.15,1.73.99,2.38,2.22,2.05,3.7,0,.33,0,.58.33.82s.66.25,1.07.08l.9-.33c.49-.25.9-.16,1.4.25s.99.82,1.48,1.4c.41.41.58.82.58,1.4,0,.33-.16.82-.25,1.48-.74-.33-1.23-.49-1.4-.58-.33,0-.66,0-.9.25-.25.25-.25.49,0,.82.16.16.33.25.49.25s.74-.33,1.73-.66h1.07c.58,0,.99.33,1.4.66.66.66,1.23,1.73,1.89,3.04-.16-.33.08.49.82,2.47.49,1.32.58,2.88.25,4.68,0,.74-.49,1.07-1.15.82-1.32-.49-2.63-.58-4.03-.33-1.32.25-2.38-.08-3.29-1.07-.74-.66-1.73-1.23-3.12-1.73-.41,0-.74,0-.9.33-.33.33-.33.66-.08.9.33.41.41.66.33.82,0,.25-.41.33-.9.25.25,0-.25,0-1.48-.08.16,0,0,0-.49-.08-.25,0-.41-.25-.58-.58s-.16-.58-.08-.66c.33-.58.49-.82.58-.82,0-.16.74-.74,1.89-1.89h-.08c.41-.49.41-.82.08-1.07-.41-.25-1.23-.74-2.63-1.48-.49-.25-.9,0-1.4.58-.33.49-.49.74-.58.82s-.16.25-.25.49-.16.41-.25.49c-.66,1.07-1.32,1.23-2.22.49-.16,0-.58-.41-1.15-1.07s-1.48-1.07-2.63-1.4c-3.29-.99-6.41-1.07-9.53-.25-.16,0-1.81.33-5.01,1.07-1.15.33-1.97-.16-2.3-1.48,0,0,0-.58-.25-1.48h0v.16l-.16-.41ZM345.55,76.7v.33c-.08,0,.33-.08.33-.08l-.33-.25h0ZM352.29,64.54c-1.07-.66-1.15-1.23-.08-1.73.25-.16.58-.25.9-.33.66-.16.99,0,1.15.66.16.33,0,.66-.25.9-.33.49-.74.66-1.23.58-.25,0-.41-.08-.49-.08h0ZM356.89,62.73v-.25h.25c0,.08-.25.25-.25.25ZM361.99,122.23h-.33c0-.08-.08.25-.08.25h.25s.16,0,.25-.25h-.08ZM364.7,70.21c-.41,0-.74.41-1.15.9-.25.58-.25,1.23-.08,1.97,0,.58.41.82,1.07.9.41,0,.74,0,.9-.25.99-.74,1.56-1.15,1.64-1.15,0,0,.58-.16,1.97-.58.16,0,.25-.16.33-.33.25-.33.41-.58.49-.82.16-.66-.16-.9-.9-.9-.9-.16-2.3,0-4.19.25h-.08ZM364.95,63.3l-.25.33v.33c.16,0,.25-.16.33-.25,0,0,0-.08.08-.08-.16-.16-.25-.25-.25-.33h.08ZM366.92,75.22s0,.25.08.49l.33-.25v-.33c-.08,0-.49.08-.49.08h.08ZM368.97,113.77c0-.25-.25-.33-.58-.33s-.58.08-.74.33c-.33.49-.41.9-.25,1.4s.58.74,1.15.82c.74.08.99-.33.82-1.15-.25-.74-.41-1.07-.49-1.07h.08ZM368.89,161.52c-.33.74-.16,1.32.33,1.89.33.25.66.16.9-.08s.25-.25.25-.33c-.16-.74-.58-1.32-1.15-1.64l-.33.25v-.08ZM368.97,167.35c0,.33.08.58.33.74.25.08.41.08.58,0,.33-.25.41-.58.33-.9-.16-.33-.41-.49-.82-.49-.33.16-.49.41-.49.74h0l.08-.08ZM370.45,103.41l1.15-1.15h-.08l-1.07,1.07h0v.08ZM370.45,185.11v-1.15c.33.74.33,1.15,0,1.15ZM372.84,92.64h-.08c0,.08-.25.16-.49.25h.08c.25,0,.41-.16.49-.25ZM374.97,69.63h.25c0,.08,0-.08,0-.08h-.25v.08ZM381.14,100.04c.16.25.49.41.9.49.74,0,1.07-.33.9-.9-.16-.41-.41-.58-.74-.58s-.58,0-1.48.25c.58-.9.66-1.89.33-2.88,0-.33-.25-.58-.58-.82-.58-.33-1.15-.49-1.89-.49-.66,0-.99.16-1.15.82-.16.74-.16,1.07-.08.9-.33.82-.08,1.56.74,2.22.9.74,1.89.74,2.79.08.16.58.25.82.25.9h0ZM379.49,72.59c-.58,0-.58.25,0,.49l.33-.25c-.16-.16-.25-.25-.33-.25ZM385.08,78.75c.25-.66,0-.99-.58-1.07-.41,0-.66.16-.74.49-.25.66,0,.99.58,1.07.41,0,.66,0,.74-.49Z"/>
        <path d="M431.19,113.14c.82-2.47,1.81-4.36,3.04-5.67.9-1.07,1.56-2.38,1.97-3.86.16-.25.33-.66.49-1.23s.25-.99.33-1.32c.9-3.04,2.47-5.92,4.6-8.55.16-.16.41-.41.74-.74.33-.41.58-.66.74-.82.74-.82,1.23-1.56,1.48-2.3.9-2.38,2.55-5.84,5.01-10.19.33-.58,1.07-2.22,2.3-4.85-.16.33,0-.33.74-2.05.66-1.56,1.64-3.04,3.04-4.52.49-.49.74-1.15.82-1.97,0-1.07.25-2.05.82-3.04,1.64-3.12,3.21-6.58,4.77-10.36.58-1.4,1.64-2.3,3.29-2.63,1.32-.41,2.47-.58,3.62-.49.9,0,2.38.25,4.36.49.49,0,.82.16.99.33.58.33,1.32.58,2.3.82,1.23.25,1.97.41,2.3.58.9.33,1.81.49,2.63.49,1.64-.16,3.12.66,4.52,2.55.16.25.49.74.99,1.56.33.74.66,1.23,1.07,1.56.16.25.16.58,0,1.07-.16.25-.33.49-.58.82-3.53,5.18-6.82,12.16-9.86,21.04-.25.49-.66,1.89-1.32,4.11-.99,3.45-1.89,6-2.79,7.64-.82,1.64-1.32,3.29-1.48,5.1,0,1.4-.58,3.12-1.48,5.26-.58,1.48-.82,3.04-.82,4.77v1.56c0,.49-.16.99-.58,1.56-.9,1.07-1.4,1.81-1.56,2.22-.33.99-.16,1.81.33,2.55,0,.08.16.16.33.33s.25.33.33.33c.33.49.41.99.33,1.56-.16.82-.33,1.48-.49,2.05-.16.41-.41,1.07-.82,2.05-.33.82-.58,1.48-.74,1.97-.82,2.55-1.32,4.6-1.56,6.33,0,.66-.25,1.81-.49,3.53-.25,1.48-.41,2.55-.49,3.37,0,.41-.25.9-.49,1.56-.33.82-.82,1.32-1.48,1.48-.49.16-.82.33-.99.33-.9.33-1.23.9-1.07,1.73.33,1.81.49,2.63.58,2.63,0-.41-.16.33-.58,2.05-.9,3.12-1.48,6.25-1.73,9.62,0,.33,0,.82-.16,1.56,0,.74-.16,1.23-.25,1.56,0,1.4.49,2.22,1.81,2.55,1.81.41,3.29.9,4.6,1.48.9.33,1.64.82,2.22,1.48s1.48,1.81,2.63,3.37c.25.25.33.58.25.99,0,.49-.25.74-.58.82q0,.08-.25.08c0,.08-.16.08-.25.08-1.32.66-2.47.99-3.53,1.07-.9,0-1.97.33-3.12.82-.9.49-1.48.9-1.73,1.32-.58.99-1.56,1.64-3.04,2.05-.41.16-.58.41-.58.74,0,.41,0,.74.49,1.07l.82.49c.66.41.9.99.74,1.81,0,.41-.16,1.23-.49,2.47-.25.99-.41,1.81-.49,2.38-.16,1.81-.16,3.04,0,3.78.25.99.16,2.22-.33,3.62-.25.58-.16,1.07.33,1.48.9.74,1.32,1.73,1.32,2.96,0,.74.25,1.32.99,1.73.99.58,1.32,1.56.99,2.88-1.15,4.03-2.22,6.9-3.12,8.63-.82,1.4-1.15,2.79-.99,4.11,0,.82,0,1.73-.33,2.63-.49,1.23-.9,2.22-1.23,2.88-.99,2.3-1.64,4.52-1.97,6.82-.33,1.73-.66,3.45-1.07,5.34-.16.58-.49,1.15-.99,1.81-.58.9-1.48,1.4-2.63,1.56-.33.08-.66,0-.99-.25-.74-.49-1.32-.99-1.73-1.48,0,.08-.9-1.15-3.04-3.78-.99-1.23-1.23-2.38-.82-3.53.25-.58.33-1.48.25-2.63,0-1.64.16-3.04.58-4.27.16-.66.25-1.15.25-1.56,0-1.23.49-2.79,1.32-4.6.66-1.56.99-3.12.99-4.77,0-2.14.16-5.92.74-11.42,0-1.15.33-2.14.82-3.04.41-.82.66-1.32.74-1.48,1.4-2.55,2.05-5.26,1.97-8.38,0-.58-.16-1.07-.49-1.48-.33-.58-.33-1.23-.16-2.05.49-1.89.74-2.96.82-3.12v-1.56c-.16-.9-.58-1.48-1.32-1.73-1.4-.49-2.71-.9-4.11-1.23-.33-.08-.82-.16-1.56-.25s-1.23-.16-1.56-.25-2.05-.58-5.26-1.48c-.99-.33-1.48-.49-1.56-.49-.99-.08-3.95-.66-8.96-1.73-.25-.08-.58-.08-1.07-.08-2.22-.33-3.86.49-5.01,2.55-.16.41-.25.58-.25.49-2.3,5.92-3.45,9.45-3.62,10.68-.16,1.23-.66,2.38-1.48,3.53-1.64,2.55-3.21,5.67-4.85,9.62-.33.74-.58,1.23-.74,1.48-2.14,3.86-4.03,9.12-5.75,15.78-.82,3.45-1.73,6.41-2.79,8.71-.33.82-.9,2.55-1.81,5.1-1.4,4.19-3.86,7.89-7.4,11.1-.49.41-.9.74-1.32.99-1.07.41-2.05.74-3.04,1.07-.66.16-1.4.08-2.22-.08-.58-.25-.99-.49-1.32-.74-1.4-1.07-3.86-2.55-7.4-4.52-.49-.33-.74-.82-.74-1.48s.08-1.4.25-2.05c.08-.33.33-.82.58-1.56.49-.9,1.4-2.88,2.79-5.84,1.07-2.47,1.97-4.52,2.63-5.92-.33.66.25-.66,1.73-3.86,1.64-3.7,2.79-6.16,3.37-7.4,1.07-2.38,2.22-4.19,3.37-5.42l.99-1.32c.41-.58.66-1.23.74-2.05v-2.22c0-.99.41-1.97,1.23-2.96.33-.41,1.15-1.32,2.55-2.79,1.07-1.23,1.89-2.79,2.55-4.77,0-.25,0-.58.08-1.07.33-2.3,1.23-4.19,2.63-5.84,1.4-1.73,2.47-3.7,3.37-6.08.33-.99.49-1.89.49-2.63s0-.74-.08-1.07c-.25-1.81.25-3.7,1.48-5.67.58-.99,1.32-1.73,2.22-2.3.99-.66,1.81-1.64,2.47-2.96,1.15-2.22,2.22-4.27,3.12-6.16,4.19-8.88,6.74-14.14,7.56-15.7,1.15-2.22,2.38-4.77,3.62-7.81.82-1.97,1.81-3.7,2.88-5.26.25-.25.74-.99,1.56-2.22h-.16c0-.33.74-2.38,2.05-6.08h0l.33.58ZM426.5,143.14c.16-.08.16-.16.16-.33-.25-.41-.41-.41-.58,0v.49h.49v-.08l-.08-.08ZM437.76,127.69l.33-.25c-1.4,3.37-2.22,5.42-2.47,5.92-.25.49-.41.99-.49,1.56-.33,1.89-1.15,4.85-2.55,8.88-.16.25-1.23,2.96-3.12,8.05-.49,1.23-.82,2.47-.99,3.62-.16,1.07.25,1.81,1.23,2.3.49.25.66.33.49.25,2.71.9,4.27,1.4,4.6,1.48,4.68.82,7.73,1.23,9.12,1.23s1.48.08,2.63.33c1.56.25,3.29.08,5.34-.33h.49c.66-.49,1.07-.9,1.23-1.23.41-1.15.58-2.55.49-4.36,0-2.3.16-5.26.58-9.12.49-4.44.74-7.56.82-9.21,0-.33,0-.82.25-1.56.58-2.38.74-5.1.58-8.05-.16-2.47,0-4.44.25-5.92.41-1.73.49-3.45.25-5.34-.49-3.37-.49-6.99,0-10.77,0-.74,0-1.48-.16-2.22-.25-1.07-.9-1.56-1.97-1.48-.9.08-1.48.41-1.81,1.07-.25.49-.58,1.23-.99,2.22-.49,1.07-.82,1.81-1.07,2.22,0,.25-.33.49-.74.74,0,0-.41,0-1.07.08-.9.16-1.56.66-2.05,1.56-.33.58-.74,1.32-1.32,2.3-.66,1.32-1.07,2.14-1.23,2.38-1.73,3.12-2.79,5.92-3.29,8.55,0,.33-.16.74-.25,1.32,0,.66,0,1.07-.16,1.32,0,.33-.25.58-.58.82-.9.74-1.64,1.23-2.3,1.48h-.25v.08l.16.08ZM458.14,79.53c-.25-.41-.74-.33-1.48.25-1.07.9-1.81,1.89-2.3,2.96-.41.99-1.73,3.53-4.03,7.64-1.48,2.55-2.55,5.1-3.29,7.4-.41,1.32-.99,2.38-1.81,3.29-.41.58-1.97,2.96-4.6,7.31-.9,1.4-1.4,3.04-1.48,5.1,0,.25,0,.58.25.99.41.82.9.9,1.48.33.49-.49,1.07-1.4,1.81-2.63,1.15-2.22,3.62-6.82,7.4-13.89,3.04-5.67,5.59-10.27,7.4-13.73.33-.66.58-1.32.82-1.97.33-.82.41-1.56.25-2.22,0-.33-.25-.58-.49-.82h.08ZM446.88,91.77c0,.08,0-.08-.16-.49-.25-.82-.66-.99-1.32-.49-1.23.9-1.73,2.3-1.48,4.27,0,.25.25.41.58.49s.58,0,.74-.08c.99-.58,1.48-1.32,1.56-2.3v-1.32h0l.08-.08ZM455.51,97.61c.41.16.82.08,1.23-.08.41-.25.58-.58.58-1.07s0-.74-.16-.99c-.33-1.07-.9-1.23-1.73-.58-.66.41-.99.99-.99,1.73,0,.49.25.82.99,1.07h0l.08-.08ZM465.13,114.7c-.33-.08-.58,0-.82.33-.33.33-.25.58.16.82.58.41.99.33,1.23-.33,0-.41,0-.66-.49-.82h-.08Z"/>
        <path d="M598.13,113.54c.82-2.47,1.81-4.36,3.04-5.67.9-1.07,1.56-2.38,1.97-3.86.16-.25.33-.66.49-1.23s.25-.99.33-1.32c.9-3.04,2.47-5.92,4.6-8.55.16-.16.41-.41.74-.74.33-.41.58-.66.74-.82.74-.82,1.23-1.56,1.48-2.3.9-2.38,2.55-5.84,5.01-10.19.33-.58,1.07-2.22,2.3-4.85-.16.33,0-.33.74-2.05.66-1.56,1.64-3.04,3.04-4.52.49-.49.74-1.15.82-1.97,0-1.07.25-2.05.82-3.04,1.64-3.12,3.21-6.58,4.77-10.36.58-1.4,1.64-2.3,3.29-2.63,1.32-.41,2.47-.58,3.62-.49.9,0,2.38.25,4.36.49.49,0,.82.16.99.33.58.33,1.32.58,2.3.82,1.23.25,1.97.41,2.3.58.9.33,1.81.49,2.63.49,1.64-.16,3.12.66,4.52,2.55.16.25.49.74.99,1.56.33.74.66,1.23,1.07,1.56.16.25.16.58,0,1.07-.16.25-.33.49-.58.82-3.53,5.18-6.82,12.16-9.86,21.04-.25.49-.66,1.89-1.32,4.11-.99,3.45-1.89,6-2.79,7.64-.82,1.64-1.32,3.29-1.48,5.1,0,1.4-.58,3.12-1.48,5.26-.58,1.48-.82,3.04-.82,4.77v1.56c0,.49-.16.99-.58,1.56-.9,1.07-1.4,1.81-1.56,2.22-.33.99-.16,1.81.33,2.55,0,.08.16.16.33.33s.25.33.33.33c.33.49.41.99.33,1.56-.16.82-.33,1.48-.49,2.05-.16.41-.41,1.07-.82,2.05-.33.82-.58,1.48-.74,1.97-.82,2.55-1.32,4.6-1.56,6.33,0,.66-.25,1.81-.49,3.53-.25,1.48-.41,2.55-.49,3.37,0,.41-.25.9-.49,1.56-.33.82-.82,1.32-1.48,1.48-.49.16-.82.33-.99.33-.9.33-1.23.9-1.07,1.73.33,1.81.49,2.63.58,2.63,0-.41-.16.33-.58,2.05-.9,3.12-1.48,6.25-1.73,9.62,0,.33,0,.82-.16,1.56,0,.74-.16,1.23-.25,1.56,0,1.4.49,2.22,1.81,2.55,1.81.41,3.29.9,4.6,1.48.9.33,1.64.82,2.22,1.48s1.48,1.81,2.63,3.37c.25.25.33.58.25.99,0,.49-.25.74-.58.82q0,.08-.25.08c0,.08-.16.08-.25.08-1.32.66-2.47.99-3.53,1.07-.9,0-1.97.33-3.12.82-.9.49-1.48.9-1.73,1.32-.58.99-1.56,1.64-3.04,2.05-.41.16-.58.41-.58.74,0,.41,0,.74.49,1.07l.82.49c.66.41.9.99.74,1.81,0,.41-.16,1.23-.49,2.47-.25.99-.41,1.81-.49,2.38-.16,1.81-.16,3.04,0,3.78.25.99.16,2.22-.33,3.62-.25.58-.16,1.07.33,1.48.9.74,1.32,1.73,1.32,2.96,0,.74.25,1.32.99,1.73.99.58,1.32,1.56.99,2.88-1.15,4.03-2.22,6.9-3.12,8.63-.82,1.4-1.15,2.79-.99,4.11,0,.82,0,1.73-.33,2.63-.49,1.23-.9,2.22-1.23,2.88-.99,2.3-1.64,4.52-1.97,6.82-.33,1.73-.66,3.45-1.07,5.34-.16.58-.49,1.15-.99,1.81-.58.9-1.48,1.4-2.63,1.56-.33.08-.66,0-.99-.25-.74-.49-1.32-.99-1.73-1.48,0,.08-.9-1.15-3.04-3.78-.99-1.23-1.23-2.38-.82-3.53.25-.58.33-1.48.25-2.63,0-1.64.16-3.04.58-4.27.16-.66.25-1.15.25-1.56,0-1.23.49-2.79,1.32-4.6.66-1.56.99-3.12.99-4.77,0-2.14.16-5.92.74-11.42,0-1.15.33-2.14.82-3.04.41-.82.66-1.32.74-1.48,1.4-2.55,2.05-5.26,1.97-8.38,0-.58-.16-1.07-.49-1.48-.33-.58-.33-1.23-.16-2.05.49-1.89.74-2.96.82-3.12v-1.56c-.16-.9-.58-1.48-1.32-1.73-1.4-.49-2.71-.9-4.11-1.23-.33-.08-.82-.16-1.56-.25s-1.23-.16-1.56-.25-2.05-.58-5.26-1.48c-.99-.33-1.48-.49-1.56-.49-.99-.08-3.95-.66-8.96-1.73-.25-.08-.58-.08-1.07-.08-2.22-.33-3.86.49-5.01,2.55-.16.41-.25.58-.25.49-2.3,5.92-3.45,9.45-3.62,10.68s-.66,2.38-1.48,3.53c-1.64,2.55-3.21,5.67-4.85,9.62-.33.74-.58,1.23-.74,1.48-2.14,3.86-4.03,9.12-5.75,15.78-.82,3.45-1.73,6.41-2.79,8.71-.33.82-.9,2.55-1.81,5.1-1.4,4.19-3.86,7.89-7.4,11.1-.49.41-.9.74-1.32.99-1.07.41-2.05.74-3.04,1.07-.66.16-1.4.08-2.22-.08-.58-.25-.99-.49-1.32-.74-1.4-1.07-3.86-2.55-7.4-4.52-.49-.33-.74-.82-.74-1.48s0-1.4.25-2.05c0-.33.25-.82.58-1.56.49-.9,1.4-2.88,2.79-5.84,1.07-2.47,1.97-4.52,2.63-5.92-.33.66.25-.66,1.73-3.86,1.64-3.7,2.71-6.16,3.37-7.4,1.07-2.38,2.22-4.19,3.37-5.42l.99-1.32c.41-.58.66-1.23.74-2.05v-2.22c0-.99.41-1.97,1.23-2.96.33-.41,1.15-1.32,2.55-2.79,1.07-1.23,1.89-2.79,2.55-4.77,0-.25,0-.58.16-1.07.33-2.3,1.23-4.19,2.63-5.84,1.4-1.73,2.47-3.7,3.37-6.08.33-.99.49-1.89.49-2.63s0-.74-.16-1.07c-.25-1.81.25-3.7,1.48-5.67.58-.99,1.32-1.73,2.22-2.3.99-.66,1.81-1.64,2.47-2.96,1.15-2.22,2.22-4.27,3.12-6.16,4.19-8.88,6.74-14.14,7.56-15.7,1.15-2.22,2.38-4.77,3.62-7.81.82-1.97,1.81-3.7,2.88-5.26.25-.25.74-.99,1.56-2.22h-.16c0-.33.74-2.38,2.05-6.08h0l.33.58ZM593.37,143.54c.16-.08.16-.16.16-.33-.25-.41-.41-.41-.58,0v.49h.49c0-.05,0-.08,0-.08l-.08-.08ZM604.71,128.09l.33-.25c-1.4,3.37-2.22,5.42-2.47,5.92-.25.49-.41.99-.49,1.56-.33,1.89-1.15,4.85-2.55,8.88-.16.25-1.23,2.96-3.12,8.05-.49,1.23-.82,2.47-.99,3.62-.16,1.07.25,1.81,1.23,2.3.49.25.66.33.49.25,2.71.9,4.27,1.4,4.6,1.48,4.68.82,7.73,1.23,9.12,1.23s1.48.08,2.63.33c1.56.25,3.29.08,5.34-.33h.49c.66-.49,1.07-.9,1.23-1.23.41-1.15.58-2.55.49-4.36,0-2.3.16-5.26.58-9.12.49-4.44.74-7.56.82-9.21,0-.33,0-.82.25-1.56.58-2.38.74-5.1.58-8.05-.16-2.47,0-4.44.25-5.92.41-1.73.49-3.45.25-5.34-.49-3.37-.49-6.99,0-10.77,0-.74,0-1.48-.16-2.22-.25-1.07-.9-1.56-1.97-1.48-.9.08-1.48.41-1.81,1.07-.25.49-.58,1.23-.99,2.22-.49,1.07-.82,1.81-1.07,2.22,0,.25-.33.49-.74.74,0,0-.41,0-1.07.08-.9.16-1.56.66-2.05,1.56-.33.58-.74,1.32-1.32,2.3-.66,1.32-1.07,2.14-1.23,2.38-1.73,3.12-2.79,5.92-3.29,8.55,0,.33-.16.74-.25,1.32,0,.66,0,1.07-.16,1.32,0,.33-.25.58-.58.82-.9.74-1.64,1.23-2.3,1.48h-.25v.08l.16.08ZM625.09,79.93c-.25-.41-.74-.33-1.48.25-1.07.9-1.81,1.89-2.3,2.96-.41.99-1.73,3.53-4.03,7.64-1.48,2.55-2.55,5.1-3.29,7.4-.41,1.32-.99,2.38-1.81,3.29-.41.58-1.97,2.96-4.6,7.31-.9,1.4-1.4,3.04-1.48,5.1,0,.25,0,.58.25.99.41.82.9.9,1.48.33.49-.49,1.07-1.4,1.81-2.63,1.15-2.22,3.62-6.82,7.4-13.89,3.04-5.67,5.59-10.27,7.4-13.73.33-.66.58-1.32.82-1.97.33-.82.41-1.56.25-2.22,0-.33-.25-.58-.49-.82h.08ZM613.75,92.17c0,.08,0-.08-.16-.49-.25-.82-.66-.99-1.32-.49-1.23.9-1.73,2.3-1.48,4.27,0,.25.25.41.58.49s.58,0,.74-.08c.99-.58,1.48-1.32,1.56-2.3v-1.32h0l.08-.08ZM622.38,98.01c.41.16.82.08,1.23-.08.41-.25.58-.58.58-1.07s0-.74-.16-.99c-.33-1.07-.9-1.23-1.73-.58-.66.41-.99.99-.99,1.73,0,.49.25.82.99,1.07h0l.08-.08ZM632,115.1c-.33-.08-.58,0-.82.33-.33.33-.25.58.16.82.58.41.99.33,1.23-.33,0-.41,0-.66-.49-.82h-.08Z"/>
        <path d="M527.66,164.15c-1.48,3.7-2.88,7.15-3.95,10.44-.82,2.22-1.64,4.52-2.63,6.9-.25.58-.58,1.32-.99,2.14-.49,1.07-.82,1.81-.99,2.3-.25.41-.49,1.07-.82,1.89-.33.99-.58,1.64-.74,2.05.16-.33-.41.99-1.64,3.86-.49,1.15-1.07,1.97-1.81,2.63-.25.25-.33.58-.33.99v2.79c.16,1.81-.25,3.7-1.23,5.59h-.08.25c-.41,1.07-1.23,1.89-2.38,2.55h0c0-.08.49.82.49.82.25.66.33,1.15.25,1.56-.16.82-.33,1.56-.49,2.14-1.23,3.78-2.05,6.82-2.55,9.21-.16.9-.49,1.81-1.07,2.88-1.07,1.73-1.48,2.55-1.48,2.3-.82,1.73-1.97,3.29-3.62,4.52-2.79,2.38-3.95,3.45-3.62,3.12-.49.33-.99.58-1.48.74-.41,0-.74,0-.99-.33-.49-.9-.99-2.22-1.56-3.95,0-.58-.16-1.07-.16-1.56.25-2.14.66-3.86,1.23-5.18.41-1.23,1.07-3.04,1.89-5.59.66-1.81,1.07-3.21,1.23-4.11,0-.58.49-1.89,1.23-4.11,1.4-4.19,2.3-7.81,2.88-10.77.41-1.81.99-3.29,1.81-4.27,0-.16.08-.33.08-.58s0-.25-.08-.49c-.16-.82-.16-1.64.08-2.63,1.56-6.16,2.63-10.11,2.96-11.84.33-1.48,1.07-2.55,2.14-3.45.16,0,.25-.16.33-.33,0-.58.08-.9.08-1.07-.82-1.32-.9-2.55-.33-3.95.16-1.81.9-3.62,2.14-5.42l-.25.25.25-.25c0-.74,0-1.4.25-2.05.82-1.73,1.4-3.62,1.81-5.51.33-1.32.49-2.47.49-3.21.16-1.81.49-3.53.99-5.18.33-1.07.82-2.79,1.48-5.18.66-2.22,1.15-3.95,1.56-5.18.25-.99.58-1.73,1.07-2.38.33-.58.49-1.07.49-1.48,0-1.32.33-3.37.99-6.33,1.23-5.84,2.05-9.12,2.3-9.78.25-.9.74-3.53,1.56-7.89.16-1.15.49-2.88.99-5.26.41-2.22.74-4.03.99-5.26,0-.16.16-.82.58-2.05.16-.49.49-.9.99-1.23.82-.49.99-1.07.58-1.81-.58-1.07-.82-2.22-.82-3.45s.16-1.56.49-4.27c0-.25.16-.99.25-2.14,0-.9-.49-1.4-1.48-1.48h-1.07c-.82.16-1.48.33-2.05.58-1.48.49-3.37.74-5.75.74s-1.07,0-1.56-.25c-.99-.25-1.97-.58-3.12-.99-.16,0-.49-.25-.99-.49-.41-.25-.74-.33-.99-.33-2.3-.66-5.92-2.63-10.77-5.84-.74-.49-1.48-1.15-2.38-2.05-1.4-1.48-1.73-3.04-1.07-4.93.16-.58.41-1.07.74-1.48,1.4-1.48,2.88-2.63,4.68-3.45,3.95-1.81,7.97-3.21,12.08-4.03,1.23-.33,2.05-.58,2.55-.74.82-.25,2.05-.49,3.7-.74,1.15-.16,1.81-.33,2.05-.49,1.23-.49,3.45-.9,6.82-1.32,2.88-.33,4.6-.58,5.26-.74,3.45-.82,7.31-.99,11.59-.49.66,0,1.4,0,2.14.25.58,0,1.23,0,2.14-.16,1.97-.41,3.53-.66,4.68-.74,2.71-.33,5.01-.16,6.82.49,2.47.9,5.1.9,7.89,0,1.15-.33,1.97-.49,2.63-.58,2.38-.25,6.16-1.07,11.34-2.55,2.55-.66,5.01-.82,7.4-.58,2.88.33,4.44.49,4.77.58,1.4.16,1.89.99,1.64,2.38-.16.82-.25,1.15-.25,1.07-.9,3.37-1.97,7.07-3.37,11.1-.25.9-.74,1.56-1.56,2.05-2.71,1.73-5.26,3.04-7.64,3.86-.58.25-1.32.49-2.3.82-1.07.41-1.73.66-2.14.82-1.15.41-1.81.58-2.05.58-1.07.16-3.45.82-7.31,1.89-2.79.82-7.15,2.22-13.15,4.19-.9.25-2.22.74-3.95,1.48-1.81.66-3.21,1.15-4.11,1.48-.16,0-.41,0-.74.25-.33.16-.58.25-.74.33-1.23.41-1.97,1.23-2.38,2.63-.16.74-.25,1.23-.25,1.56-.33,2.55-.82,7.15-1.48,13.89-.58,6.08-1.81,11.92-3.7,17.59-.33.82-.58,1.32-.74,1.48-.66.9-1.07,2.05-1.23,3.45,0,.82-.33,1.64-.82,2.55-.25.33-.33.66-.25.99,0,.82-.16,2.05-.58,3.7-1.73,5.51-2.71,8.88-2.96,10.19-.16,1.07-.74,1.89-1.81,2.55-1.73,1.15-2.63,1.73-2.63,1.81-.25.25-.33.58-.25.99,0,.41.41.99,1.07,1.81.49.74.58,1.56.25,2.55-.41,1.32-.9,2.22-1.48,2.88h0c-.16.74-1.07,3.04-2.63,6.82h0l.41-.08ZM503.49,219.3h-.25c-.41-.33-.49-.58-.33-.58.25.41.41.66.49.74h.08v-.16ZM508.1,193.82c-.33-.41-.66-.41-.99,0v.33c.25.41.49.41.82.08l.16-.49h0v.08ZM507.68,205.74l-.33.33c0,.08,0,.25-.08.49.16-.41.25-.66.33-.82h.08ZM511.55,197.77c0-.49-.49-.66-1.23-.58-.41,0-.66.16-.74.49-.25.58,0,.99.49,1.23h.49c.74,0,1.07-.41.99-1.07h0v-.08ZM520.01,171.71c-.25.25-.25.49,0,.82.16.33.41.41.82.25.33-.16.49-.41.58-.74,0-.33-.16-.58-.58-.82-.33,0-.58.16-.82.49h0ZM521.74,64.46c-.25-.33-.58-.49-.99-.49-.33,0-.33.25,0,.49.25.16.58.08.99-.16,0,1.32.25,2.3.49,2.96h-.08c0-.25,0-1.23-.33-2.88l-.08.08ZM520.75,167.61v.33c-.08,0,.25.08.25.08.25-.41.16-.58-.25-.49h0v.08ZM521,151v.25h.33c0-.08-.33-.25-.33-.25ZM522.89,141.63c0-.16-.16-.25-.33-.25-.41-.08-.58.08-.58.49,0,.49.33.66.74.58.41-.16.49-.41.25-.82h-.08ZM525.03,134.57c-.33-.33-.58-.25-.82.08-.16.16-.25.49-.33.99,0,.16,0,.25.25.33.33.33.58.33.82,0,0-.08.16-.41.33-1.07l-.25-.33h0ZM527.25,145.99l-.25-.25h.25v.25ZM529.71,130.46c-.16.08-.25.16-.25.33,0,.41,0,.66.49.74.41,0,.58-.25.49-.74,0-.41-.33-.49-.74-.33h0ZM533.33,139c-.49.08-.99.16-1.48.25h.16c.16,0,.49.49.99,1.23v1.07c0,.49.33.49.74.08.16-.16.16-.25,0-.33.33.33,0,0-.74-.82,0-.33.16-.82.25-1.56h.08v.08h0ZM533.57,129.3h.25c0,.08-.33,0-.33,0h.16-.08ZM540.72,98.07h-.33c-.41,0-.41-.16,0-.25,0,.08,0,.16.08.25.58-.41.66-.41.25,0h0ZM562.26,77.2v.49c.16,0,.25,0,.33-.16v-.33h-.33Z"/>
      </g>
    </g>
  </g>
</svg>