<svg xmlns="http://www.w3.org/2000/svg" fill="#231f20" viewBox="0 0 783.2 373.5"><path d="m80 47 3-11 3-5 1-2-1-2-1-8 2-5 3-8 5-5 2-1 8 1q7 2 10 5l9 8q4 3 4 8v2l-8 24q-1 4-4 5h1-3v2q0 3-2 7l-6 11-3 2h-1l2 3 1 2-5 10-3 4-6 4-1 4 1 4 1 4h-4l-2-3-3 1v1l1 2 4-1h12q3 2 4-1l2-1h2l2-1 5-4 1-1q2-2 3-2h2q2-1 1-3v-3l1-2q3-1 3-4l6-9 4-4 1-1 3-1q0-5 4-8l5-7 19-22q3-3 9-5l2-1h9q6 0 11 3l10 5q8 4 8 12l-1 3-1 3-24 25q-5 2-8 6l-11 12-7 5-20 10-25 18v1-1l-1-1q-1-1-1 1v3l-8 5-1 3v1l-5 3q-2 0-3 3l-8 12-5 6-1 1-1 1-2 3v4l2 6 8 7 17 17 11 13q4 4 1 8l-1 1-1 1v2q1 2 3 2l2-1 4-1h1l2 1 7 9v4h2l3 4 3 4 7 11-1 2h-4l-10-4-24-16q-12-9-21-22l-23-26-3-3q-3-2-6 1a27 27 0 0 0-6 14v2q2 5-1 11l-14 34-2 8-1 8-1 1 2 6 1 1 1 3-3 6-4 6-6 15-4 13v5l-2 2h-3l-4 1q-5 1-5 6l1 5-1 2-3 3-3 1-4-3-1-2 1-12 1-3 3-3q3-5 4-11l2-14 3-11 2-10 1-6 1-6 12-48 25-94 9-11v-2q0-2 3-2l1-1v-4l-2-1-1 1h-3v-3l4-15q1-10 7-16l1-4v-3zM3 362l-2-4v-3q2-3 3-1 3 4 1 7l-1 1zm16-4 1 2-7 13-1-2H9v2l-2-2v-3l1-1 1-2 4-2 4-2 1-3-2-2zm-6 15H9zm-2-48 7-1-2 4v1h2l1-2-1-3-2-3-1-2h-2zm5 31 1-5zm6-16-1 1-1 1q0 1 0 0v-1zm-1-23 1-2q-1-1-1 2m1 22zm37-224zl1-1zm0 18v-1zm7-5zm2-31zm2 26zm17-32-2-5v-3l-1-12h1l-5 2q-4 1-3 4l2 6 1 5 1 1 1 1v3h-3l-3-1h-2v2l1 2 7 7 2-1 4-7v-2zm3 50-10 13h-1l-1 1-3 4 1 3h3l3-2 4-3 1-3 1-1 6-4h2l1-2 5-7 2-2 3-3 3-3 5-9-1-2-2-1q-4 0-4 2l-6 5-2 1-3 1v1q0 5-3 7zm0-11-3-2h-3l-1 2 1 4 3 1 2-1 2-3zm1 69zh-1zm5-185h-3q-2 0-1 2 3 3 5 0v-1zm2 99-1 1 1 2h1v-1zm1-88zh1zm5 184zv1zm6-186-1-1h-1l1 1zm1 8h1l1-1h-1zm3 207zm4-129-4 2v4l1 1 5-3v-1q0-3-2-3m-2-56-2 2v-2zm4 79-2 3zm20 112 2 2-1-1zm14-146zm42-60-1 1 2 1v-2zM226 156l4-7 2-4 1-2v-1q2-5 6-11h1v-2l2-2 6-13 4-8 3-5 2-3 1-3 5-13q1-2 4-3l5-1 9 2 3 1 3 1q3 0 5 3l3 4v1l-1 1a104 104 0 0 0-13 30l-4 10-2 6-1 6-1 6v2l-1 2-2 2v3l1 1 1 2-1 3-2 4-2 12-1 4v2l-2 2h-1l-2 2 1 4-1 2-2 14v2q0 2 2 3l6 1 2 2 3 4 1 1-1 1v1h-1l-4 1-4 1-2 2-3 2-1 1 1 1 1 1v5l-1 3v11l2 3 1 2q2 1 1 4-1 7-4 10l-1 5v3l-2 4-2 8-2 9-4 2-1-1-2-1-4-5-1-4 1-3v-5l1-2 1-6 1-6 2-17 1-2q3-4 3-10l-1-2v-2l1-6-2-2-9-2-20-5q-4 0-6 4l-5 13-1 4-7 14q-4 7-7 19l-3 10-3 6a30 30 0 0 1-10 15l-4 1h-2l-2-1-9-5-1-2v-3l1-1 9-19 8-16 1-1 1-3v-3l2-3 3-3 3-6v-2q0-3 3-7l4-7 1-3v-1q-1-4 1-7l3-3 3-4 23-44zm-6 36q2 0 0 0zm14-18-10 29-1 4 1 3 1 1 5 1 21 2h1l1-2 1-5v-11l3-30v-22l-2-2-3 2-1 2-1 3-1 1h-1l-3 2-1 3-2 2-4 14-1 1zm25-58h-2l-3 4-5 9-4 9-2 4-6 8-1 7v1h2l2-3zm-14 15v-1l-2-1-2 5 1 1h1l2-3zm10 7 2-1 1-1-1-1q0-2-2-1l-1 2zm12 20-1 1v1l1-1zM356 182q0-2-1-1l-3 2 1 2q2 1 1 4l-3 5-5 12-1 2h-1v-2h-1l-2 1q-2 0-2 3l-3 6-1 1-1 3-2 3v2l1 1h3v3l-2 3v6l-2 5-1 5-1 2-1 2-5 10-2 4-1 5-6 23-3 9-2 6-4 4h-2l-5-1-6-5-2-3v-3l1-3 2-8q1-8 5-14l2-4 6-12 4-6 1-3-1-1v-2l5-10 2-2 1-3 1-7 13-29 9-19 2-2 1-3 1-3 3-6-1-2v-4l1-4q1-1-1-3l-21-9-4-2-7-6-8-6h-2l-3-1-1-1-1-2 1-2q6-3 11-1l7 2 29 11 12 4q3 1 4-1l2-4 2-5 3-5 2-3 5-6 7-8 2-4 2-4 2-1 3-4v-5l2-2 4-4 4-7 4-7 2-2 2-4 3-1 2 1h3l7 3 1 1 3 5-1 2-1 1-7 7-2 2-4 5a169 169 0 0 0-22 30l-3 2h-2q-2 0-1 3v3l-5 7-2 1-4 5 2 3q3 2 0 3v2l1 1 1 1-2 4-2 2-1-1-1 1h2l-2 1-7 7-2 3-6 8-1 2-2 4zm-45 109zm10-160zm4 116q-2-1-2 2v1h2l1-2zm6-15h-1l-1 1-3 4 1 2h2l1-1zm7-7-2 1zm7-17zm11-25zm11-23q1 2 2-1h-1q-2-1-1 1m20-42zv-1zm15-28q-2-2-2 1v1h2zm4-8v1zM466 248l-11 17q-2 2-4 1l-1 1-1 1-1 1 1 1-1 3-2 2-1 1-9 9-5 4-7 4-4 1-3 1-3 1h-11l-2-1-4-1-2-1h-5l-12-3h-1q-2-2-5-3-2 1-3-2l1-3 1-1 3-6v-1l-1-4q-1-2 1-2l5-1h2l10 3 4 2 5 1h3l2-1 25-11a21 21 0 0 0 11-8l2-2 2-2 6-16 1-2 1-3-1-4v-2l-2-3a46 46 0 0 0-22-21q-4-3-6-8l-3-7 2-2 1-1 3-3q2-3 1-7l2-4 3-2a170 170 0 0 0 32-32l1 1v19l1 1v-2l1-5 2 1v1l1 1h1l1-1-1-3-1-1h-2 1v-5l-1-5 1-1h1q4 3 7 0h5l1 2h2l1-1 1-2-1-2 3-2h1l1 1v3l-5 6-1 2-3 6-3 4h-1v-1l-1-1-1-1-1 1v6l-2 2-2 1q-2 0-1 3l-1 2q-5 8-11 11l-7 7v4l3 2 6 9 1 1 1 1 3 9v3l1-1h2l1 2v2l1 4 1 3v14l-1 6-1 1-1-1-1-1-1-1-1 2 1 1 1 4v4m-27-131-2 2-5 1-6 1h-6l-2-1-1-1 1-2q3-7 8-9l1-2 3-1 4 2 3 3 3 3 1 1zm-8 55v-2l1-2 1-1v-1h-1l-2 1v3h1zm10-58 4-2v-3h-3l-1-2-3-4h-3l-1-1 1-1 2-1h2l1 1 3 1 1 1h4l2-1 1-1h1l1-3 3-3h5l4 1 1 1 3 1h2l2 1 3 1q3 2 3 5v1h2l1-1 1 1 2 1 1 2v2l-2-1h-1v2l2-1h2l1 1 3 3 1 3v6l-1 1h-5l-4-2-4-2-1 1v2h-4v-3l3-2h-1l1-1-4-2h-1l-1 1v1l-1 1h-2l-2-1-3-2h-12l-6 1q-2 1-2-2zm-5-1zm8-15v-2h1l1 1v1zm12 71zm3-64-1 1v3l1 1h1l2-2h2l1-1v-1l-1-1zm0-8zm3 14zm2 47h-1l-1 2 2 1 1-1zm0 58 1 3h1v-1zm0 7 1 1 1-1zm2-77 2-2h-1zm0 99v-1zm3-112zm10 9h1q2 0 1-1v-1l-2 1v-4l-1-1h-2q-1-1-1 1v3h4zm-2-34zm7 8-1-2-1 1zM530 157l4-7 2-5 1-1v-2q2-6 6-10l1-1v-1l2-3 6-12 4-9 4-5 1-3 1-3 5-13q1-3 4-3l5-1 9 2 3 1 3 1q3-1 6 3l2 4v1l-1 1a105 105 0 0 0-13 31q-1 6-4 9l-1 6-2 6-1 6v2l-1 2-2 3 1 3 1 1v2l-1 2-1 3-2 10-4 12h-1q-2 1-1 2v6l-3 14v2l2 3 6 1 3 2 3 4v2l-1 1-5 1-3 1-2 2-4 2-1 1 1 2h1l1 2-1 3-1 3v11q3 1 2 4l1 2q2 1 1 3l-3 11-2 5v3l-2 4-2 8-2 9-4 1h-1l-2-2-4-4-1-4 1-4v-5l1-2 1-5 2-6 1-18 1-2q3-4 3-10l-1-1v-3l1-6-2-2-9-2-20-4q-4-1-6 3l-5 13-2 4-6 14q-4 7-7 19l-4 11-2 6a31 31 0 0 1-11 15l-3 1h-3l-2-1-9-6-1-1 1-3 1-2 8-19 9-15 1-2 1-3v-2l1-4 3-3 3-6v-1l4-7 4-8v-4l2-7 3-3 3-4 23-45h-1zm-6 36q0-2 0 0zm14-18zl-10 30-1 4q-1 3 1 3l1 1 5 1 21 2h1l1-2 1-5 1-11 2-30v-23l-2-1-2 1-2 3-1 2-1 1h-1l-3 2-1 3-2 3-4 14-1 1zm25-59h-2l-3 4-5 9-4 9-2 4-7 15v1q0 2 2 1l2-3 19-39zm-14 15zh-2l-2 5h2l2-2zm10 7h2l1-1v-2h-3l-1 2zm12 21zv1zM714 157l3-7q2-2 3-5v-1l1-2 5-10 1-1 1-1 2-3 6-12 4-9 3-5 2-3 1-3 5-13q1-3 4-3l5-1 9 2 3 1 3 1q3-1 6 3l2 4v1l-1 1a105 105 0 0 0-13 31l-4 9-1 6-2 6-1 6v2l-1 2-2 3 1 3v1l1 2-1 2-1 3-3 10-3 12h-1l-2 2 1 4-1 2-2 14v2l2 3 6 1 2 2 4 4v2l-1 1-5 1-4 1-2 2-3 2-1 1 1 2h1v5l-1 3v11l2 4 1 2q2 1 1 3-1 8-4 11l-1 5v3l-2 4-2 8-3 9-3 1h-1l-2-2-4-4-1-4 1-4v-5l1-2 1-5 1-6 2-18 1-2q3-4 3-10l-1-1v-3l1-6-2-2-9-2-20-4q-5-1-6 3h-1l-4 13-2 4-7 14-7 19-3 11-2 6a31 31 0 0 1-11 15l-3 1h-3l-2-1-9-6-1-1 1-3v-2l9-19 8-15 2-2v-5l2-4 3-3 3-6v-1l4-7 4-8v-4q0-4 2-7l3-3 2-4 23-45zm-6 36zm14-18zl-10 30-1 4q-1 3 1 3l1 1 5 1 21 2h1l1-2 1-5v-11l3-30v-23l-2-1-3 1-1 3-1 2-1 1h-1l-3 2-1 3-2 3-4 14-1 1zm25-59h-2l-3 4-5 9-4 9-2 4-7 15v1q0 2 2 1l2-3 19-39zm-14 15zh-2l-2 5h2l2-2zm10 7h2l1-1-1-2h-2l-1 2zm12 21h-1v1z" class="cls-1"/><path d="m629 221-9 24-1 3-1 2-3 7-2 4-1 1v3q1 4-1 7l-3 3 1 1v2l-1 2-3 12-1 3-2 3-4 5-6 5h-1l-2-5v-2l1-6 11-37v-3l9-32v1-3l3-11 1-6 4-12 1-3 1-2 1-8 5-21 1-7 1-6 1-3 1-1 1-2-1-5 1-7-2-2h-2l-2 1h-9l-4-1-1-1h-1l-16-10q-3-1-1-6l1-1 5-5 18-5 4-1 3-1 8-1 7-1 16-1h3l6-1 8 1h10l3-1 14-3 9-1 6 1q2 0 2 3l-1 1-6 16-12 6-2 1-3 1-9 2-26 9-1 1q-3 0-3 3v2l-2 16-6 24-1 4-1 3v1l-1 5-4 12-2 3-3 2v1l1 3v3l-2 3zm-29 68-1-1zm5-32zh1zm0 15-1 1zm5-10h-3l1 2zm10-31zl1-1-1-1zm2-131h-1q-1 0 0 0zl1 4h-1zm-1 105zm2-11zl1 1zm3-9zv1h1zm3 14zm3-19zl1 1zm4 11h-2l2 2v1h1l-1-1zm0-12zm9-38q-1 0 0 0m26-25z" class="cls-1"/></svg>