<svg xmlns="http://www.w3.org/2000/svg" data-name="Layer 2" viewBox="0 0 260.9 110.5"><path d="M184 82v1l8 8v1l3 2h1l2-1-1-3-1-3-2-2-5-7v-1l-3-3v1l-1-1v-1l-1-1-1-1v-3l1-1 1-2 3-3 1-1h1l4-4 2-3 7-7 1-1 1-2v-1l-1-1h-2l-2 1-2 2v1l-4 5-3 3-1 1-1 1v1h-1l-5 4h-1v-1l-1-1h1v-1h1-3v3h1v2l-1-1v2h-1v-4l-1-3-6 26v4l-2 9 1 2h2l1-1v-1l1-3v-5l2-8 1-3v-1l1 1 1 1 1 1h1v2zm7 2zm11-38zm0-2zm-1 2zm-17 16zm-7 7zm1 2zm1-5zm3-4zh-1zm-1 12zv2-3l1-1zm1 4zm4-3zm-3 1zl1-1-1 1v-1h1v2l1-1h1l-2 1h1zM35 103l1-1V89l1-4V74l1-1v-1l-1-4 1-3v-5l1-1v-2l1-2 1-5 1-4 1-6 1-4v-2h1l-1-1v-1h1l1-1 1-4 1-4 1-4v-2l1-4 1-2V9l1-2V6l2-3V1l1-1-9 2h-1l-5 1-10 1V3v1h-5l-1 2-1 2v2l-1 3-1 4v3l-1 2-1 3v4l-3 12v1l-1 2-4 13v1l-1 2-5 4v1l1 1 1-1 1 1v3l-2 6-1 7-1 1v1l-2 4v4l-1 2v3h1-1v3l-1 2v4l2 1 2-1h1q3 0 3-2l3-6v-2l2-8v-3l1-4 1-3 1-2 1-2 1-1 3-11 1-10 1-6v-2l1-4v-2l5-25 1-1h2l11-3-2 8-2 6-6 22-1 3v1l-1 9-4 52h4l3-3zM5 93zm1-5zm3-7zv-1H7v1l-1-1h3zm9-35zm14 19zm17 20zv2l-1 1v1l2 2h1l1-2 1-1v-2l1-1v-2l1-4v-2l1-4v-3l2-5v-1l1-3 1-2 1-1 5-1h1l6-4 6-8v-1l1-1v-2l-1-3v-1l-1-1-1-1-4-2-4-1-1 1-3 1-2 2-1 1-5 6v4h-1v1h1-1v1l-1 1v8l-1 5-2 12-2 6zm11-27zm1-8zm5-15zm-7 12zv-1h2-1v2h1v-1l1-4 3-2 1-1 5-1 1 1-1 2-3 4-2 2h-1v1h-4v-1h-1v-1zm-2 3zv-1 2h1-1zm-2 12zh-1zm25-5zl-1 2-1 5v2l-1 1h1v-1h3l-1 1v2h-2v-1l-1 2v2l-1 1 1 3-1 1h-1l1 1 1 1v2h2l1 1h5v1h1l4-2 2-1 2-3v-1h1l1-1v-1l1-1v-3h1v-1l1-4 1-6 1-5-1-7-1-3-1-2-2-1-3-1h-2l-4 2-2 2v1l-1 1v2l-2 3-1 1-1 2zm-1 14zm17-8zm-1 9zm0-5q0-1 0 0m-14 2zm8 6zm3-2zh2zm2-1zm-9-22zm-1-2h1v1zm-1 3zm0 8v3h1l1-1v-2l1-2 7-9h1v14l-2 5v2l-3 4q1 0 0 0l-1 1-2 2-2 1-1-1 1-1-1-2v-8l-1-1-1-1v1-1l1-1v-3h-1 2m-1-5zm97 1 1-1v-1h2v1l-1 1h2-1v-1h1l1 1v-1l1-2v-1h-1 1l1-1v-1h-2l-1-1v-2l-1-1v-1h-1l-1 4v1zm5-3zm-1-3zm-1-2zm56-19 2-1 3-2 1-5h1l-1-1h-5l-5 2h-9l-4 1h-2l-3 1h-1l-2 1-5 2-1 1v2l1 1 5 2 2 1 2-1h1l1 1-1 5v2l-1 5-1 8-1 2v5l-1 2v1l-1 2 1 2h-1v2l-1 5v1l-1 1-1 6v2l-1 4v2h1l2-2 1-1 1-2 1-5-1-1 1-1v-3h1v-1l1-2v-1l1-1v-1l3-9v-4h1v-1l1-4v-2l1-1v-2l1-7 2-7zm-22-2zv-1h-1q0 1 0 0h1v2m-4 58zm1-6zm1-2zm4-25zm-1 13q2 0 0 0m1-10zm0 12zh1zm2-16zm2 3zm1-16q2 0 0 0m8-8zm-49 13zh1l1-1h2l1 1v-5l-1 1-4 1-2 2zm-36 2 3 2 2 1 1 1 2 1 3 1 1 1v2l-1 3v1h-1v1l-2 4-1 3-1 2-1 6-1 1-1 3v1l-1 2-1 3-1 1-1 4v5l2 1h2l1-1v-2l1-2 1-6v-2l1-1 1-3v-1l1-1v-5h-1v-1h1v-1l1-2 1-1q0-1 0 0h1l2-5-1-1v-1h2v-2l2-3 2-2h1v-1l1-1-1-1v-3l1-1 1-1v-2h1l1-1 8-12 1-1-1-1v-1h-4l-1 1v1l-1 2-1 1-1 2h-1v1q2 0 0 0l-1 1v1l-1 1v1l-2 2-1 2-1 1v1l-1 2v1h-2l-3-1-2-1-10-1q-1 0 0 0v1zm3 44zm4-11zm1-5v2h-1v-1zm18-42zm-1 2zm-1 0q0-1 0 0m-5 18zm-29 24zl-1-1h-1l-4 1 1-1v-1l-1-11v-6l1-1-1-2v-4l1-2v-2l1-4-1-1-6 3h-2q0 1-2 1l-7 2v3l-3 2v1h1l1 1v1l-1 4v4l-1 1-1 3v6l-1 1v3h-4l-1 2v6h-1v1l-2 7h1v1h1v1h2l1-2v-4l1-2v-4l1-1v-1h5v-1h7l9-1h5q1 0 0 0v9l-1 1 1 1v1h2v-1l1-2V76zm-34 18zm2-12zm1 1zm-1 4q1 0 0 0m1-2zm1 2zm3-6zm3-18zm0 17zm0-18zm1 18zm1-2zm11-27v10l-2 10v5h-5l-6 1 1-1 1-4 1-1 1-5v-4l1-3v-1l1-1 2-6v-1l1-1 4-2v4m1 1zm7 24h-2zm125 12-1-1v-1l1-4 1-1v-6h-1v-2h1l1-3v-4h-1 1-1v-1h1v-9l1-1v-2l-1-1v-1l-1-1-1-1-1-1-2-1h-2v1l-2 8v1l-1 3-1 4-2 7-1 1v2l-1 2-1 1-1 2-3 4-2 1q0 2 0 0v-6l1-4v-5l-1-1v-5l1-4v-6l-1-1h1V40l-1-1-1-2h-1v9l-1 3v5l1-3h1v2l-1 2v6l-1 2v1l-1 3-1 2-1 5v1l-1 3-1 1v2h1-1l-1 3v6l1 1 1 1h1l1 1h1v-1h-1 1v2h1l1-1h1l2-1 1-2h1v-1h1v-1l2-2 1-2v-1l1-1v-1h1q1 0 0 0v-2l1-1v-1l1-2v-1h1l1-1 1-3 1-3 1-1h1v4l-1 2v6l-2 8v3l-1 3-1 2 1 1 1 2 2 1h2v-2l1-4v-3zm-23-20zm-3 18zm0-2zv-1h1zm0 4zm-1 5zm2-9q1 0 0 0zm0 6zm4-24h-2v-1h1q0-1 0 0zm-3 20q0-2 0 0m4-19zh1zm-4 25zm2-6zm1 1zm4 1zv-1h-1 2zm1-4zm1 2zm4-12zm2-1zm0-2zm3 0zv-1h1zm5-16zm1 21zl-1 1h1v1-1l-1 1v-3h1v-1z" data-name="Layer 1"/></svg>