<svg xmlns="http://www.w3.org/2000/svg" fill="#fff" data-name="Layer 2" viewBox="0 0 597.8 146.8"><g data-name="Layer 1"><path d="M334 41zv-1h-2l-3 1h-2l-1 2-3 2-2 3-2 1-1 2-1 2-1 1-2 6v1h-1v2l-2 3v8l1 1 2 5 1 1 2 1h10v-1h1l2-1h-1 1v-1l1-1v-4h-1l-3 1h-1v2h-1v-1h-3l-1 1h-3l-1-1v-1l-1-1v-8l1-1v-2l1-2 1-1v-1l3-4v-1l1-1 1-1 1-1 1-2 1-1 3-2 1-1h2l3-2zm-19 20zv-2zm9 18zm-4 1q-1 0 0 0m-5-16zm2-4zm6-10zM426 4l-1-2-1-1-4-1h-3l-1 1-3 2-2 3-5 11-14 21-1-1v-4l1-12V9l-1-1-2-1-4 1-3 1-4 1h-1v12l-3 12-2 3v4l-1 4-1 2-2 5v2l-2 3v2q0 1 0 0l-1 3-1 2-1 5-1 2-1 3v2q-3 3-2 6l-2 5h1l1 1h2l3-2 2-5 1-1v-1l1-5 1-4 2-4 1-4 1-6 2-4 1-3 4-9 1 2 1 3 3 4 5 2 1 1h1l2-1 1-1 2-2 2-5 2-3 2-4 7-10h1l1 1v2l-1 3 1 3v2l-1 2-1 11-1 5-1 4-1 7-1 5-1 4-2 11-1 1-1 2v1l1 1 1 1 3 1h3l1-1 1-10 1-12 1-1v-4l1-10v-4l1-3v-9l1-1v-1l1-2v-6l2-6 1-4 2-5zm-16 10zm1 5zm0 2zm-4 55zm2-14zm1 19zm0 3zv-1zm1-18zm1-4v-1h1zm3-22zv-1zM194 75v1l8 8v1l3 2h2l1-1v-3l-2-3-2-2-5-7v-1l-2-3-1 1-1-1v-1l-1-1v-1l-1-1v-2l1-1 1-2 3-3 1-1h1l4-4 3-3 6-7 1-1 1-2v-1l-1-1h-2l-2 1-1 2-1 1-4 5-3 3-1 1-1 1v1h-1l-5 4-1-1v-1l1-1h-2l-1 1v1l1 1 1 1h-1v1l-1-1v2l-1-1v-6l-6 26-1 2v2l-2 9 1 2h2q1 0 0 0h1v-1l1-1v-6l1-2 1-8 1-3 1-1v1l1 1 1 1h1v2zm8 2zm-4-2zm0-5zm15-31zm-1-2zm0 2zm-13 14zm-4 2q-2 0 0 0m-8 7zm1 2zm2-5zm3-4zh-1zm-2 12v1l-1 1v-2zv-1zm2 4zv-1q-1 0 0 0zm3-3zm-3 1zl1-1-1 1 1-1v1l1 1v-1h1l-1 1zM45 103V89l1-4V74l1-1V62l1-2v-3l1-2 1-5 1-4 1-6 1-4 1-1v-3l1-1 1-4 1-4 1-4 1-2 1-4v-2l1-2V7l1-1 1-3 1-2V0l-9 2h-1l-5 1-9 1V3l-1 1h-4l-2 2v3l-1 1-1 3v4l-1 1v2l-1 2v3l-1 4-3 12v1l-1 2-3 13h-1v1l-1 2-5 4v1l1 1 1-1h1l1 1-1 3-2 6-1 7v1l-1 1-2 4v9l-1 2v1l-1 2v1l1 3 1 1h1l1-1h2l3-2 2-6 1-2 1-8 1-3 1-4 1-3 1-2v-2l1-1 4-11V52l1-6 1-2v-4l1-2 4-25 1-1h3l10-3-2 8-1 6-7 22v3l-1 1-1 9h1l-5 52h4l3-3zM14 93zm1-5zh1zm3-7-1-1h-1v1-1h3zm9-35q-1 0 0 0 0-1 0 0m9-41zm5 60zm499 8v-1l-1-1v-5h1v-3l-1-5v-2l1-1v-8l-1 1v-1h1-1v-1l1-1-1-5v-8l-1-2-1-2h-1v-1h-1l-1-1-2-1-2 1-2 10v2l-1 3-1 5-1 9v1l-1 1v3l-1 2h-1l-1 3-2 5-2 1h-1V56l-1-1v-4l-1-2V38l-1-3v-2l1-1v-1l-2-6v-3l-1-1-2-2v-1l-1 1v1l1 1v8l-1 4 1 1v5l1-4h1v12l-1 2v3l-1 2v2l-1 6v2l-1 4v3l-1 4v2l1 3v2l1 1 1 1h1l1 1h2v-1h-1 1v1l1 1 1-1v-1h2l1-2 2-1v-1h1v-1l1-1v-1l2-2 1-2v-4l1-1v1h1v-4l1-1v-3l1-1h1v-1l1-3 1-4 1-2h1v2l-1 30-1 1 1 2 2 2 2 1h1l1-1v-1zm-27-40zm-3 20zq0 1 0 0zm0 22zm-2-1zm1-2zh-1 2zm1 5zm-1 5zm2-3zm1-29zv-2h1zm0 24zm2-23zh1zm-1 30zm1-8zm2 2zh1zm0 6zm4-6zh-1v-1h1zm1-4zm5-13zm2-4zh1zm3 0zv-1l1-1v2m8 5zh-1l-2 2h2-2v-1l1-2h2m-80 14v-1l-1-1 1-5v-1l1-2-2-5v-2h1v-5l1-1-1-2v-1 1h-1l1-1h-1v-1h1v-6l-1-1v-4l1-1v-1l-1-1v-2h-1l-1-2-1-1-2-1-2-1-2 1-1 10v1l-1 1v3l-1 5-2 9v1l-1 1v3l-1 2h-1l-1 3-2 5-2 1q0 2 0 0h-1V53h-1v-4h-1V39l1-1h-1l-1-3v-1l1-1v-2l-1-6-1-3v-1l-3-2v-1 1h-1l1 1v19l1-4h1v14l-1 1v6l-2 6v6l-1 1 1 2-1 4v5l1 2v1l1 1h2l1 1h1v-1h1l-1 1 1 1 1-1v-1h2l2-2 1-1v-1h1v-1h1v-1l1-1 1-2 1-2v-1l1-1v-3 1h1v-2l1-2v-4l1-1h1v-1l1-3 2-4v-2h1v2l-1 30v3l2 2 3 1h1v-1l1-1zm-27-40zm-2 20q0 1 0 0m-1 21zm-2 0zm1-2zh-1 2zm1 5zm0 5zm1-3zm2-29-1 1h-1v-2h1q0-1 0 0zm-1 24zm2-23zh1zm-1 30zm2-6zm0-2zh-1 2m1 2zm0 6zm1-2zm3-4h-1v-1zm1-4zm5-13zm2-1zm0-3zh1zm3 0zv-1l1-1v2m4-20zm4 25zh-1l-1 2h2-2v-1q-1 0 0 0v-2h3zM59 78zv4l1 2h1l2-2v-1l1-2v-3l1-4v-2l1-4v-2l1-1 1-5 1-1v-3l1-2 1-1h1l4-1h1l6-4h1l5-8 1-1v-6l-1-1-1-1-1-1-4-2-3-1-1 1h-1l-3 1-2 2-1 1-4 6-1 1v2l1 1h-2v1h1-1v8l-1 2-1 5-2 12-2 6zm13-35zm2 3zm5 0zm-3-18zm-7 12zl1-1h1l-1 1 1 1 1-1v-4h1l2-2 1-1 5-1h1v3l-3 4h-1l-2 2-1 1h-3v-1h-1l-1-1zq-1 0 0 0zm-1 3zh-1zm-3 12zv1zm25-5h1zv2h-1l-1 5v3-1h3v1h-1v1q1 0 0 0v1h-2v-1 2h-1v6l-1 1v1l1 1v2h3v1h5l1 1h1l3-2 2-1 2-3 1-1 1-1 1-1v-2l1-2v-1l1-4 1-6 1-5-1-7v-3l-2-2-2-1-2-1h-3l-4 2-1 2-1 1-1 1v2l-2 3-1 1-1 2zm-1 14zm18-8zm-1 4q0-1 0 0m-15 2zq1 0 0 0m8 6zm3-2zh1zm2-1zh-1zm-8-22zm-2-2zv1zm-1 3zm0 8zv3l1-1v-2h1v-2l7-9h1v14l-1 5-1 2-2 4-1 1-3 2-1 1h-1v-2l-1-2v-9l-2-1v1-1l1-1 1-1h-1zh-1zm-1-5zm98 1v-1l1-1h1v1l-1 1h2v-1h1v1l1-1v-3h-1 2v-2h-2v-1h-1v-2l-1-1v-1l-1 4-1 1zm4-3zm-1-3zm0 2q-1 0 0 0m0-4zm55-19zl1-1 3-2h1l1-5-1-1h-4l-6 2h-9l-4 1h-2l-3 1-3 1-4 2-2 1v2l1 1 5 2 2 1 2-1h1l1 1v5l-1 2v5l-2 8v2l-1 4v1l-1 2v5l-1 2-1 5v2l-2 6v2l-1 4 1 2h1l1-2 1-1 1-2 1-5v-2l1-2v-2l1-2v-1l1-1v-1l3-10v1l1-2-1-1v-1h1l1-1 1-4v-4l1-1 1-7 1-7zm-22-2zv-1h-1 1v2m-4 58zm1-6zm2-2zm3-25zm-1 6zm1 9zq-1 0 0 0zm2-16zm2 3q0 2 0 0zm2-16q-1 0 0 0m7-8zm259 0zh-2l-1-1h-2l-4 1-2 1-2 2-4 3-4 5-1 2-4 5-1 3-3 8v2l-1 1v1l-2 6-1 3v8l1 2 3 7 2 2 3 2h4l1-1v1h5v-1h3l1-1h2l1-1v-1 1-1h1v-1l1-1 1-4v-3h-2l-4 2h-1l-1 1v1h-1v-1h-1l-3 1h-6l-1-1-1-1-1-1v-8l3-12 1-2 1-2 5-8 1-2 5-6 3-4h5l4-4zm-28 33zm1-3h-1v-1zm19 27q-1 0 0 0m-5-2zm-1 5zm-1-4zm-1 4zm-1 2zm-3-4q-1 0 0 0m-1-2zm-2 0zm-3-22q0-1 0 0m1-7zM192 35zh2v-1h3v1l1-1v-3l-1-1-1 1-3 1-2 2zq0 1 0 0m391 27v-4l-1-2V32l-1-3v-1l-1-8-1-1v-1l-2-2h-2l-2 2v2h-6l-3-1-1 1-4 2-1 1-1 2-1 2v6l2 4 1 1 1 2 1 1h1l1 1 2 4 1 1h2v1h1l-1 2-1 2-2 5-2 3-8 19v1h1-1l-3 3v2l1 1h1v1l1-1h1l1-1v-2l4-4 2-2 13-21v2l1 5v8l-1 5v15l-1 2 1 3v3l1 1h2l1-1 2-22zm-24-27zm-3 51zm5-7zm14-41zl-1-1-5-7v-3l1-1h2l3 3 1 3zm-419-1zl2 2 2 1 1 1 3 1 3 1v3l-1 3v1l-1 1-1 4-1 3-1 2-2 6v1l-2 3h1l-1 1-1 2-1 3-1 1-1 4v5l2 1h2l1-1v-2l1-2 1-6 1-2v-1l1-3 1-1v-4l1-1v-1h-1v-2l1-2 1-1h1l2-5v-1l-1-1h2v-2h1l2-3 1-2 1-1h1v-2h-1v-2l1-1v-1l1-1v-2h1l1-1 9-12v-1l-1-1v-1h-4v1l-1 1-1 2-1 1-1 2v1l-1 1-1 1v1l-1 1-1 2-2 2v1l-1 1v2l-1 1h-2l-2-1-3-1-10-1zm7 33zm2-5-1 2-1-1 1-1zm17-42zm0 2zm-2 0q0-1 0 0m-4 18zm-3 2zm-27 22zh-3l-3 1V54l-1-5 1-1V36l1-3-1-1-6 3h-1l-2 1-7 2v1l-1 2-3 2v1h2v2l-1 4v4l-1 1-1 3v10h-5v2l-1 3v3l-1 1-1 7 1 1v1h3v-4l1-2v-5l1-1v-2h5v-1h7l10-1h5-1v12h2l1-1v-4l1-8zm-34 18zm3-11zm1 3zm6-20zm0 14zm1-18zm1 16zm11-27v10l-1 10v3l-1 2h-4l-6 1h-1l2-1 1-4v-1l1-5v-4l1-3 1-1v-1l2-6v-1l1-1 4-2 1 1zm1 1zm7 24h-1zm125 12v-6h1v-7l-1-1 1-1h1v-9l1-8v-4l-1-1-1-1v-1h-1l-1-1-2-1h-1v1l-2 7-1 1v1l-1 3-1 4-2 7v1l-1 1v3l-1 1h-1l-1 2-3 4-1 1h-1v-4l1-1V58l-1-1v-3l1-4v-2l1-1h-1v-4l1-1v-1l-1-4v-5l-2-2h-1v9l-1 3v5l1-3h1v4l-1 3v3l-1 2v1l-1 3v2l-2 5v1l-1 3v3l-1 3-1 2 1 3v2l1 1h1l1 1h1v-1 1h1-1l1 1 1-1h2l1-1 1-2h1l1-1v-1h1l1-2 1-2h1v-3h2v-4l1-2 1-1h1v-1l1-3 1-3 1-1h1v7l-1 5-1 8-1 3-1 3v3l1 2 2 1h2v-2l1-4 1-3zm-23-20zm-2 19zq2 0 0 0m-1-3zh2zm-1 9zm2-9zm4-18zv-1h1zm-3 20zm4-19zq-1 0 0 0zm-3 25zm1-6zm2 1zm3 1zv-1q-1 0 0 0zm1-4zm0 5zm5-15zm3-3zm2 0zh1zm5-16zm2 21zl-1 1-1 1h2v1l-1-1v1l-1-1v-1l1-1v-1zM0 147l2-1zM2 146zM11 145l-6 2zM8 146H7l2-1z"/><path d="M6 146h1l2-1zM18 144l-2 1c-2 0 1-1 0-1l-4 1h4c3 0 0 0 2-1M144 126zM179 123h2-2M123 129l-2 1zM345 118zM110 131zM50 140h2zM52 140h2l3-1h-3zM144 127q-1-1 0 0M134 128zM136 128h-1zM512 125h-2 3zc-2 0 1 0 0 0M355 119l1 1q0-1 1-1zM356 119h-1zM485 123h-1zM336 119h-2zM400 115h3zM438 116zM348 118h-4 4"/><path d="M379 115zl-14 1h-10 1l-54 1-39 1-40 2-3 1h-3 1-9 2l-4 1v-1l-9 1-11 2h-2l4-1-8 1-1 1-4-1h2-6l-6 1c3 0-1 0-1 1l4-1h1c2 0-3 1 0 0l-9 1c3 0 0 1 1 1h-7c1-1 8-1 7-2l6-1-7 1-4 1h-2 1l-6 1h6-4q2 0 0 0l-1 1c-3 0 0-1-2-1h-4v1h-5l-2 1h-11l-5 1-9 1h1l-3 1h-2 1-6 1-3l-1 1h-1 1-8l-10 1q0 1 1 1l-4 1c-2 0-8 0-7-1-3 1 1 0 0 1h-1 3l-4 1 1-1-4 2q-3 0-2-1l-3 1h-8 2c1 1-3 1-4 1h-4l-3 1h2l-3 1h1-5l2-1-5 2-2-1-3 1 3-1-6 1h1-3 1c-1 1-5 1-4 2h1l-5 1q-2 0 1-1l-4 1v1l4-1 1-1q2 0 1 1l4-1 4-2h5l-7 1q1 1-1 1l5-1h2l3-1h7c-1-1 6-2 3-2l4-1c1 0-3 1-2 2h-3q3 0 8-1h5l-1-1 2 1 3-1-1 1 2-1h3-1 2l-2-1h10-1l3-1h3l4-1-2 1 3-1c-2 1 3 0-1 1l4-1h2l-3 1 2-1-9 2 6-1q11-1 21-3h8l-2-1h3q-1 0 0 0h4-2 3v1l8-2q0 1 0 0l7-1h-2l22-1 2-1h2l22-2 3 1 11-2q-2 1 0 1l2-1v1l5-1 12-1h1l-3 1h4l5-1h-1 6l31-2c2 0-1 0 0 0h4-1l10-1c-1 0 2 0 0 0q2 1 4 1l-2-1h6l-3 1h6-2l5-1h6-1 4l-2 1h2q1-1-1-1l8-1-2 1 9-1 7-1q0 1 3 1h-1 9l-1-1h7l5-1v1h-3l-11 1h5-1 1l-4 1 4-1 5 1 5-1h-1 5c-1 0 2-1-1-1h6-7q-3 0-1-1h-1 3-1 9-3 12-3 4l-4 1h6-4 6l-3 1h2c-5 0 0 0-3 1l4-1q-1 0 0 0h2c1 0-2 0-1 1l3-1h-1l4-1h15l-2 1h5q1 0 0 0h4q-1 0 0 0h13-3 9-2 10l5 1h15-1c5 0-1-1 3-1q0 1 4 1l14 1h-2 10l16 1h-1 9l6 1h-1l6 1 11-1-3 1h3-1 5-1 7q-2 0-2-1h7c3 1-2 1-2 1l1 1h7l11 1-2-1h3l2 1h10q1 0 0 0h-5 11l2 1c6 0-3-1 4-1 2 1-3 0 1 1h-1 5c1 0-2 0 0 0h8l-1 1h8l4 1h1l-6-1-2-1h-1l-17-3-11-1h-8l-7-1h1-2v-1h-14q0-1-3-1h-7 1l-8-1-43-2h-4 7l-4 1 1-1h-10l-6-1h5-8l-1-1h-16q-2 0 0 0h-11v-1l-5 1v-1l-4 1 2 1-3-1h-4q-2 0 0 0h-6 1l-3-1-7 1 2-1h-18M94 132q-1 1 0 0m23-2h-2 6v-1h2zm-11 4 3-1zm170-13zh3zm80-4zh2q1-1-2-1M329 120h1zM357 118h-1zM22 142zl-3 1 7-1zM24 144h1zM55 141h-3zM43 139zh3zM62 140l3-1zM59 137h-3z"/><path d="m75 137-3 1 2-1-4 1h4zM63 136h-4zv1q0 0 1-1M82 137zl-5 1zM70 136zq-1 0-1 1h-1zM76 134h2zc-3 0 0 0 0 0M79 134l3-1zM122 132h-1zM113 130l6-1zM180 122zM179 122l-4 1 5-1zM193 121l-2 1zM288 122q2 0 1-1zM291 121l1 1zM300 121zM299 121zM303 121h-2c-2 0 2 0 1 1zM309 121h5c5 0-1-1 5-1l-7 1zM308 120h3zM319 121h2zM324 121h-1zM332 121q3 0 0-1 2 1 0 1M350 120h-2zM350 118h-5zM353 120h-3zM357 120q1 0 0 0h5v-1l-6 1-2 1zM351 119h3zM373 120h3-3M375 120h2zM378 120h-2zM385 120zh-2zM407 115h1zM411 116l2-1h-5zM459 117l-1 1h7c-1 0 2-1 0-1l-3 1 1-1zM584 128zq2 0 0-1"/></g></svg>