<?xml version="1.0" encoding="UTF-8"?>
<svg id="Layer_2" data-name="Layer 2" xmlns="http://www.w3.org/2000/svg" viewBox="0 0 267.81 100">
  <g id="Layer_2-2" data-name="Layer 2">
    <g>
      <path d="M31.44,91.1c.05-.45.1-.78.12-.98.19-2.36.29-3.79.3-4.28-.03-.52-.03-1.21,0-2.07.06-1.02.09-1.69.07-2.01.04-2.14.07-3.24.1-3.32h0c.02-.36.12-1.51.3-3.45.31-3.02.35-5.62.1-7.8,0-.04,0-.14-.02-.3.02-.36.16-.68.43-.94.43-.31.63-.79.58-1.43-.02-.36-.08-.63-.17-.78-.29-.83-.37-1.9-.25-3.21.16-1.43.23-2.33.21-2.69-.1-1.05.04-2.12.43-3.19.18-.46.3-.81.36-1.05.13-.5.19-.84.19-1.05-.04-.77.1-1.55.42-2.34.21-.54.36-1.08.45-1.61.08-.66.41-2.15.96-4.5.56-2.27.86-3.48.89-3.64.1-.45.24-1.07.44-1.85.19-.86.35-1.48.44-1.85.05-.45.16-.78.31-.99.6-.89.88-2.1.82-3.64.04-.12.04-.23.04-.31.02-.36.1-.72.25-1.05.04-.04.1-.11.17-.19.04-.12.07-.2.11-.25.26-.5.17-.9-.25-1.2-.34-.19-.35-.41-.04-.66.23-.21.36-.33.41-.33.47-.23.76-.55.86-.97.48-1.61.88-2.81,1.2-3.6.36-.79.61-1.76.74-2.9.11-.94.4-2.26.87-3.95.27-.99.42-1.6.44-1.85.24-1.48.56-2.69.95-3.65,0,.04.16-.48.46-1.55.2-.74.32-1.18.35-1.3.25-.6.33-1.21.48-1.82.13-.52.35-1.05.42-1.58.05-.53.24-1.13.57-1.8.07-.17.22-.4.44-.7.37-.59.64-1.26.8-1.99.04-.16.08-.29.12-.45-3.18.72-7.41,1.62-7.85,1.67-.2.02-.54.07-.78.11-1.13.14-2.58.37-4.54.75-.5.11-2.64.46-6.44,1.04.17-.05-.04-.06-.63-.03-.42.03-.8-.05-1.14-.24-.16-.08-.08-.18-.13-.27l-.11.54c-.15-.25-.39-.43-.8-.45-.61.04-.97.05-1.09.06-1.32.27-2.13.5-2.4.68-.27.18-.79.78-1.54,1.79-.19.29-.23.65-.12,1.05.14.4.12.74-.06,1.04-.14.29-.26.54-.32.75-.07.25-.18.76-.34,1.54-.12.66-.26,1.2-.4,1.6-.17.62-.39,1.77-.66,3.45-.05.53-.19.95-.42,1.24-.15.25-.27.6-.36,1.05-.23.98-.37,1.59-.44,1.79-.35.88-.54,1.83-.57,2.9-.06,1.06-.24,2.22-.53,3.5-.78,3.45-1.28,5.55-1.52,6.3-.13.58-.26,1.11-.4,1.6-.33,1.79-.49,2.68-.48,2.73-.1.32-.23.72-.39,1.22-.25.66-.41,1.08-.48,1.25-.51,1.61-.99,3.16-1.43,4.65-.11.33-.22.76-.35,1.3-.2.7-.32,1.15-.35,1.36-.31.95-.5,1.55-.57,1.8-.39.96-.6,1.82-.65,2.59-.04.12-.06.27-.1.43-.04.17-.04.28-.04.37-.08.68-.45,1.28-1.09,1.81-.15.11-.8.59-1.95,1.48-.97.74-1.61,1.25-1.92,1.51-.23.18-.46.45-.68.83-.11.21-.1.47.04.79.18.31.39.46.64.45.81-.12,1.09-.19.84-.17.24-.02.5,0,.79.02.65,0,.89.31.73.93l-.59,2.35c-.17,1.27-.59,3.12-1.27,5.55-.56,2.22-.88,4.17-.94,5.84,0,.49-.21.89-.6,1.2-.27.3-.45.61-.56.95-.27.95-.75,2.12-1.44,3.49-.19.34-.3.77-.35,1.3,0,.16.03.43.04.79,0,.65-.07,1.18-.21,1.59-.22.46-.31.99-.27,1.6-.03.2-.03,1.02.02,2.44l.24-.07-.18.07c-.31.91-.47,1.43-.46,1.55-.27,1.03-.35,1.46-.23,1.29.04-.04-.1.47-.4,1.54-.07.2-.1.39-.09.55.04,1.54.12,2.53.23,2.97,0,.08.05.24.15.48.24.59.63.74,1.18.42.27-.14.43-.23.47-.27.38-.47.93-.73,1.67-.76.08,0,.27,0,.55.03.2,0,.38-.02.55-.04,1.25-.15,2.11-.71,2.59-1.67,1.06-2.05,1.71-3.73,1.97-5.05.17-.62.42-1.3.74-2.05.97-2.17,1.49-4.43,1.56-6.78,0-.12,0-.2-.02-.24-.04-.57.07-1.28.3-2.15.06-.33.37-1.65.93-3.95h-.04c.15-.35.42-1.08.81-2.24.31-.95.61-1.72.9-2.3.14-.29.35-.73.59-1.31.28-.66.49-1.12.59-1.37,1.3-2.83,2.25-5.67,2.86-8.5.1-.5.18-.84.25-1.05,0-.03.03-.03.04-.05l.61-8.85c-.04-.11-.12-.21-.09-.33.5-1.9.76-3.41.77-4.55,0-.16.02-.33.1-.5.22-.46.35-1.18.43-2.15.12-1.3.35-2.45.66-3.45.07-.17.15-.51.25-1.05.82-4.76,1.28-7.6,1.4-8.55.18-1.14.42-2.29.72-3.45.4-1.57.72-3.06.96-4.5.36-2.17.55-3.5.56-3.99.11-.29.19-.68.24-1.17.04-.34.08-.59.12-.81.32-.25.59-.51,1.05-.67.74-.28,1.39-.49,1.97-.6,2.44-.64,5.65-1.43,9.54-2.37-.55,2.31-1.13,4.59-1.9,6.69-.59,1.66-.98,3.06-1.16,4.21-.02.33-.12.76-.29,1.29-.49,1.36-1.46,4.93-2.91,10.7-.27,1.03-.38,1.82-.35,2.39,0,.53-.14,1.06-.4,1.6-.4.83-.81,1.93-1.21,3.29-.14.42-.37.99-.69,1.74-.47,1.08-.66,1.87-.59,2.35,0,.08,0,.16-.04.25-.12.23-.19.37-.29.58l-.68,8.09c.03.12.11.17.1.33-.36,2.9-.58,4.7-.66,5.39-.74,5.56-1.14,8.77-1.21,9.63,0,.08-.03.27-.09.55-.12.66-.26,1.9-.39,3.74-.37,4.16-.94,7.72-1.7,10.69-.26,1.15-.52,2.49-.81,4-.03.25-.26,1.86-.7,4.85-.26,1.84-.39,2.83-.38,2.94-.15.98-.1,1.87.15,2.67.1.32.27.61.54.89.35.35.73.58,1.13.73,1.07.3,2.05.37,2.93.19.44-.11.78-.25,1.01-.43,1.31-1.21,2.16-2.01,2.54-2.4.77-.77,1.2-1.75,1.29-2.93.03-.25.05-.55.07-.92v.04Z"/>
      <polygon points="6.82 86.42 6.75 86.22 6.88 86.28 6.82 86.42"/>
      <path d="M7.57,81.66c-.35.11-.52-.04-.5-.44,0-.23.07-.36.25-.42.35-.11.54.04.57.44,0,.23-.09.36-.31.42Z"/>
      <polygon points="8.55 76.55 8.47 76.28 8.75 76.4 8.55 76.55"/>
      <path d="M10.95,74.93c-.26.11-.54.05-.81-.16-.05-.04-.25-.37-.6-.98-.13.1-.3.26-.51.5-.22.24-.38.38-.51.43-.09.05-.16,0-.21-.13-.1-.09-.1-.15,0-.21.13-.14.32-.26.59-.37.35-.07.58-.15.66-.24.81.14,1.29.22,1.43.25.19.08.28.24.29.45-.04.19-.14.32-.31.42v.02Z"/>
      <path d="M16.16,75.23l-.07-.06h.1s-.02.05-.03.06Z"/>
      <path d="M19.39,41.01c-.18.1-.33.04-.48-.18-.1-.22-.05-.38.18-.48.23-.06.38,0,.48.18.06.23,0,.38-.18.48Z"/>
      <path d="M33.57,59.14c-.09,0-.14-.06-.15-.2,0-.23.1-.32.32-.28l.15.2c.02.26-.09.36-.32.28Z"/>
      <path d="M69.84,47.78c-.06-.05-.07-.09-.05-.12.1-.14.17-.12.21.07,0,0-.16.05-.16.05Z"/>
      <path d="M77.66,21.17c-.35-.48-.71-.87-1.09-1.18-.37-.35-.66-.69-.87-1.05-.43-.64-1.04-1.22-1.8-1.73-1.42-.93-2.11-1.38-2.07-1.34-.62-.39-1.19-.61-1.7-.66-.1-.02-.3-.11-.59-.25-.22-.15-.42-.25-.59-.3-1.39-.52-2.73-.68-4.04-.44-.6.12-1.04.25-1.3.38-.13.08-.34.17-.64.26-1.19.39-2.28,1.06-3.25,2.04-.84.86-1.68,1.5-2.49,1.93-.39.24-.74.54-1.05.87-.25.29-.51.56-.81.79-1.19,1.1-2.52,2.85-3.98,5.25-.39.65-.7,1.34-.93,2.08-.02.1-.23.67-.61,1.7-.19.57-.28,1.15-.3,1.78,0,.17.08.3.19.39,0,.04.19.17.55.42.14.09.21.22.19.39-.06.11-.17.19-.34.24-.27.06-.48.13-.65.21-.23.1-.39.24-.47.45l-.11.48s.01,0,.03.02c0-.02.01-.04.02-.08.16.19.36.36.61.51.19,0,.32.01.35.01.1,0,.15.02.16.09,0,.2-.07.26-.24.17-.04-.04-.13-.12-.27-.28h-.06c-.14-.08-.33-.23-.59-.44-.24.83-.4,1.32-.45,1.46-.1.39-.23.89-.37,1.52-.06.41-.04.87.07,1.38,0,.1.06.23.14.39.06.2.09.36.09.46.1.41.15.7.13.92-.1,1.11-.11,2.32-.02,3.64.04.88-.05,1.72-.29,2.48-.13.43-.43,1.97-.91,4.66-.14,1.04-.21,1.71-.23,2.02,0,.17-.01.4-.09.67-.2.8-.56,2.83-1.08,6.05-.43,2.74-.9,5.35-1.38,7.83-.62,3.3-.97,5.4-1.06,6.3-.06.49-.16,1.07-.3,1.78-.27,1.43-.61,2.52-.98,3.27-.09.14-.16.27-.22.38h.04c-.11.33-.15.63-.12.9.04.47.08.78.08.92.23,1,.07,1.87-.48,2.61-.06.08-.14.29-.25.64-.17.35-.14.71.1,1.07.25.45.82,1.15,1.74,2.1.04.04.11.07.22.13.25.12.45.15.62.09.33-.14.54-.24.64-.32.84-.63,1.43-1.38,1.79-2.27.41-1.17.58-1.66.53-1.49.27-.71.43-1.31.45-1.78.02-.14.08-.44.18-.89.07-.35.09-.64.07-.88-.04-.47.02-1.31.19-2.48.12-.94.37-2.36.73-4.28.31-1.56.51-2.62.64-3.14.14-.7.23-1.51.29-2.43.04-.76.04-1.37.04-1.85-.03-.74.13-1.4.49-1.94.08-.18.18-.47.28-.84.1-.39.19-.83.29-1.32.31-1.53.65-2.87,1.02-3.99.21-.64.39-1.31.54-2,.1-.45.22-1.2.36-2.24.18-1.04.41-1.92.68-2.63.39-1,.68-1.84.89-2.54.21-.74.62-1.38,1.26-1.91.25-.2.52-.3.8-.33.47-.04,1.3-.12,2.49-.24,1.23-.08,2.32-.35,3.32-.82.35-.17.68-.33.98-.51,2.13-1.06,4.44-2.52,6.93-4.38.31-.27.6-.52.86-.75,2.3-2.5,4.02-4.8,5.16-6.89-.08.18.49-.81,1.72-2.98.2-.39.34-.66.38-.81.37-.78.53-1.44.49-1.94-.02-.27.03-.81.16-1.61.25-1.46-.05-2.75-.87-3.87ZM49.21,51.67c-.06.18-.17.24-.34.19-.28-.08-.44-.23-.5-.47-.1-.27-.04-.51.14-.73.1-.12.23-.16.39-.14.14.06.24.15.28.28,0,.04.03.19.09.46-.04.24-.06.39-.06.41ZM60.97,16.77c.23-.12.44-.16.65-.11.17.02.25.12.23.29-.02.49-.3.68-.81.59-.08-.02-.13-.07-.17-.14-.16-.26-.13-.47.09-.62ZM59.72,18.79s-.01,0-.15.12l-.07-.2c.12-.18.19-.16.21.08ZM52.21,36.62s-.17-.02-.31-.05c0,0-.02,0-.03,0,0,0-.02,0-.03,0-.03.01-.05.02-.1.03,0-.02.01-.06.02-.1-.06-.17-.17-.35-.35-.53h-.02s0-.05,0-.05c-.33.04-.55.03-.62,0-.18-.08-.23-.22-.14-.39h.01c.02-.1.07-.16.14-.17.04.02.24.08.58.14v-.04s.06,0,.06,0c-.01-.4.09-.79.24-1.17,0,0,0-.02,0-.03,0,0,0-.02,0-.03,0-.06,0-.11-.03-.17l.05.05s0,.07-.02.12c0,0,0,.02,0,.03,0,0,0,.02,0,.03.06.43.11.83.15,1.15h.05c0,.06,0,.15.02.25v.26s-.04,0-.04,0c0,.07,0,.16-.01.31-.02.1-.03.19-.05.26,0,.01.03.02.03.04.02,0,.04,0,.05,0,0,0,.01,0,.03,0,0,0,.02,0,.03,0,.1-.03.21-.06.24-.09.17-.06.28-.05.36.01.04.06,0,.1-.1.12-.04.04-.1.04-.2,0ZM52.66,42.94l.1-.12.07.15-.16-.03ZM53.89,45.72h0c-.17-.03-.29-.13-.33-.29-.1-.27-.02-.45.25-.53.27-.06.41.06.45.37.02.27-.1.41-.37.45ZM54.35,35.65h0c-.08,0-.11-.06-.12-.13l.08-.21.16.08.07.2c-.1.04-.16.07-.2.07ZM55.74,35.16c-.06.08-.14.04-.21-.08-.04-.1-.03-.22.01-.36.02-.1.06-.16.08-.16.17-.06.24.03.23.24,0,.14-.03.26-.12.36h.01ZM59.31,39.3s-.06.05-.1.07v-.2c.14-.12.21-.07.2.13h-.1ZM60.64,39.89v-.2s.15.08.15.08l-.15.12ZM61.16,38.72c-.11-.06-.17-.11-.17-.14,0-.2.08-.28.29-.23.08.02.13.06.16.09l.07.2c-.09.14-.21.17-.36.09ZM62.7,40.47h0q-.06-.05-.12-.08l-.31-.08.15-.07s.1.08.17.14l.16.03-.05.05ZM64.57,32.97h0s0-.01,0-.01l.07-.2.12.19h-.19s0,.02,0,.02ZM69.39,22.89c-.08.55-.27,1.12-.56,1.7-.66,1.29-1.56,2.69-2.69,4.2-.15.22-.37.5-.64.83-.31.37-.53.63-.64.78-.64.84-1.35,1.51-2.13,1.99-.16.08-.49.3-.97.66-.23.16-.5.27-.85.34-.29.1-.49.18-.59.26-.45.28-1.04.46-1.75.52.14,0-.09.04-.65.16-.37.1-.69-.04-.96-.43-.16-.26-.24-.54-.23-.85-.02-.27-.14-.47-.36-.58l-.92.08s0,0,0,0c0,0-.02,0-.02,0,0-.05-.02-.14-.02-.2-.08-.28-.12-.58-.12-.9-.01-.08-.02-.14-.03-.22-1.39.42-2.15.65-2.35.72h.02q-.11.03-.02,0c-.12.03-.23-.04-.31-.23-.12-.23-.09-.42.1-.58h-.01c.1-.11.23-.16.39-.14.49.09.63.11.41.06.31.04.58-.06.8-.28.1-.08.22-.21.37-.4.16-.18.27-.33.37-.45.06-.08.19-.14.39-.19.06-.04.14-.03.21.03s.12.12.12.19c-.02.17-.1.36-.25.59-.14.29-.23.51-.25.64,0,0,0,0,0,0,0,0,.01,0,.02,0,0,.08,0,.15,0,.23.05.36.09.66.12.9.02.06.02.13.05.19.29-.15.59-.18.89-.07h.02s.02,0,.02,0c.29-.61.45-1.11.48-1.48.02-.21.06-.55.11-1.04.06-.41.1-.76.11-1.04-.02-.51.1-1.17.33-1.98.1-.35.27-.69.52-1.03.45-.69,1.1-1.32,1.94-1.87.23-.16.43-.26.59-.31.43-.14,1.04-.43,1.82-.88.35-.24.74-.46,1.17-.67,1.27-.73,2.72-1.09,4.36-1.07.37,0,.73.12,1.06.36.45.37.61.85.5,1.44Z"/>
      <polygon points="52.61 78.13 52.69 78.25 52.54 78.25 52.61 78.13"/>
      <path d="M79.6,64.95l-.05-.16c.08-.06.13-.06.16,0,.09.13.05.19-.11.17h0Z"/>
      <polygon points="80.89 64.15 80.89 64.11 80.92 64.19 80.89 64.15"/>
      <path d="M96.39,57.56c.16-.04.25,0,.25.15l-.12.13c-.14.04-.21-.02-.21-.15,0-.05.02-.1.07-.13Z"/>
      <path d="M95.63,66.17c.14,0,.2.07.18.24l-.12.09c-.16,0-.22-.06-.18-.2,0-.08.03-.13.12-.13Z"/>
      <path d="M95.53,61.04h-.11c.02.07.04.15.07.22.02.07.08.13.07.22v.04c-.03-.09-.05-.18-.07-.25-.02-.07-.02-.17-.07-.22h0s0-.03,0-.04c.05-.14.09-.13.13.03h0Z"/>
      <path d="M81.43,63.15c-.14-.02-.18-.1-.14-.24,0-.05.02-.08.08-.09.14-.04.22,0,.25.15,0,.14-.06.2-.2.18Z"/>
      <path d="M92.29,67.74c-.1.09-.23.12-.35.1-.25,0-.41-.15-.51-.41s-.06-.48.13-.66c.23-.25.51-.46.85-.62.03-.03.08-.03.16,0,.22.04.33.17.34.38v.16c-.1.41-.31.76-.62,1.05Z"/>
      <path d="M93.92,65.98l-.02-.36c0-.11.06-.21.19-.29.16-.12.3-.07.45.14.21.24.29.49.28.79,0,.37-.08.72-.23,1.02-.05.11-.14.16-.27.14-.32,0-.49-.15-.51-.41v-.16c.13-.38.17-.67.11-.85h0Z"/>
      <path d="M94.12,40.73c.11.05.17.14.18.27,0,.14-.06.21-.19.22-.29.02-.39-.09-.3-.3.07-.14.18-.2.31-.18h0Z"/>
      <polygon points="87.54 44.3 87.63 44.41 87.51 44.41 87.54 44.3"/>
      <path d="M85.73,45.05l.13.03-.03.17c-.06-.02-.11-.05-.17-.07.02-.06.05-.1.08-.13h0Z"/>
      <path d="M84.44,43.1c.1-.12.2-.18.27-.18.26-.07.5.03.71.28v.16c-.17.2-.43.28-.78.25-.05,0-.14-.06-.25-.19-.06-.13-.04-.24.06-.32Z"/>
      <path d="M83.1,45.73c.1-.14.24-.24.41-.29,0-.02-.02-.03-.03-.05,0,0,.05-.06.06-.07l.04-.22.13.03c-.09.1-.13.14-.17.19l-.02.11h-.02c.13.25.22.4.25.43.09.19.02.32-.22.41-.14.04-.25,0-.32-.06-.17-.15-.21-.31-.11-.48Z"/>
      <path d="M99.54,43.34c0-.37-.04-.71-.15-1.01-.22-.61-.37-1.27-.44-2.01-.03-.64-.24-1.73-.61-3.24-.28-1.16-.91-1.92-1.88-2.3-.57-.21-1.17-.52-1.81-.91-.89-.5-2-.9-3.31-1.2-.65-.15-1.59-.13-2.82.02-1.94.54-3.39,1.29-4.35,2.23-.82.79-1.33,1.64-1.56,2.54-.06.1-.08.16-.08.19-.17.26-.28.42-.34.48-.06.07-.28.24-.66.5-.2.17-.35.39-.43.67-.26.82-.37,1.35-.33,1.59,0,.16-.04.36-.15.61-.22.45-.66,1.36-1.32,2.76-.13.28-.33.49-.56.63-.57.28-1.02.76-1.35,1.46-.72,1.37-1.07,2.03-1.04,2-.36.76-.52,1.57-.46,2.43,0,.37.17.61.55.71l-.03.02c.56.09.89.15.98.18.09,0,.16.02.19.08.04.18-.04.24-.27.16-.03-.03-.34-.17-.9-.42-.49,1.13-.75,1.91-.8,2.31-.02.12-.09.31-.2.56-.62,1.64-1.11,3.39-1.5,5.26-.07.37-.03.71.1,1.01.03.09.01.21-.07.37l-.11.37c-.38.27-.53.67-.44,1.2,0,.06.03.12.1.18.16.08.28.06.37-.07.33-.33.45-.47.39-.44.56-.37,1.08-.48,1.55-.33.19.06.37-.02.54-.21l.26-.29c.09-.1.21-.12.37-.07.21.04.31.2.3.45,0,.4-.15.68-.42.85-.24.17-.34.4-.28.71,0,.09,0,.17.01.24.11.27.01.47-.29.62-.21.08-.33.24-.34.48,0,.03,0,.16.02.37h.22l-.22.06v-.04c-.35,0-.66.06-.91.18-.15.1-.27.17-.36.2-.12.03-.24,0-.33-.12-.03-.06-.06-.12-.06-.18.15-.38.13-.8,0-1.25-.16.19-.28.4-.35.66-.02.09-.15.48-.35,1.18-.11.13-.22.34-.34.62-.08.31-.17.54-.28.66-.09.12-.13.31-.16.56-.02.25-.09.59-.21,1.03-.16.44-.22.91-.2,1.4.02.46.04,1.13.07,2.03.06.89.08,1.3.07,1.25,0,.58-.3.85-.92.8-.03,0-.17,0-.42-.02l-.04-.04c.37.54.63,1.09.79,1.66.11.43.35.75.71.98.16.08.24.27.21.54-.02.09-.04.21-.07.37-.08.28-.01.53.18.73.49.49.98.68,1.47.56.16-.04.35-.02.61.06.12.02.31.09.56.2.26.11.44.18.56.2,1.17.39,2,.72,2.5.96.45.22.9.17,1.38-.17.06-.03.13-.1.22-.2.12-.07.21-.13.27-.2.27-.17.52-.17.74,0,.12.06.27.16.44.3.19.15.34.25.44.3.16.11.35.17.56.16.34-.04.61-.1.82-.13,1.09-.31,2.41-.85,3.97-1.62.93-.43,1.72-.98,2.36-1.66-.15.16.24-.22,1.13-1.18.61-.62,1.05-1.12,1.35-1.51.26-.36.35-.68.27-.99,0-.12,0-.26.02-.42.02-.16.11-.26.26-.29.62-.07,1.1-.49,1.45-1.29l.33-.76c.21-.57.34-.89.36-.94.13-.26.13-.58,0-.96-.04-.16,0-.28.11-.38.49-.43.8-.95.87-1.57.01-.25.09-.57.22-.99.16-.5.25-.83.27-.99.31-1.53.7-3,1.13-4.41.52-1.73.92-4.02,1.22-6.87.2-1.83.37-3.12.52-3.87.12-.56.18-1.1.18-1.63,0-1.2-.03-2.77-.09-4.71ZM85.26,45c.16-.04.21.03.2.22,0,.06-.02.09-.09.1-.16.04-.24-.02-.24-.17l.13-.15h-.01ZM77.36,58.94c-.03.21-.09.33-.18.34-.12-.02-.1-.13.08-.33l.1-.21v.2ZM86.79,71.57h-.19l-.15-.12c-.1-.15-.08-.26.08-.33.11-.1.22-.08.33.08.07.12.04.25-.07.37ZM92.28,54.14c-.02.21-.06.66-.11,1.35-.03.56-.08.99-.16,1.3-.3,2.32-.85,4.37-1.68,6.15-.33.7-.5,1.36-.54,1.97-.02.16-.06.28-.11.38-.03.03-.45.73-1.27,2.11-.19.35-.35.57-.47.67-.38.3-.72.89-1.01,1.77h.04c.15-.17.19-.17.13,0h-.13c-.43.16-.75.39-.98.71-.52.71-1.25,1.42-2.19,2.15-.38.27-.61.44-.66.5-.38.33-.92.61-1.62.83-.34.08-.62.03-.84-.13-.29-.2-.43-.48-.42-.85,0-.18,0-.33.02-.42.04-.34.09-.61.13-.8.15-.65.02-1.23-.38-1.74-.27-.36-.46-.79-.58-1.3-.09-.43-.12-.76-.1-1.01.13-1.33.2-1.87.18-1.63.12-1.02.17-1.71.11-2.04,0-.18.02-.33.11-.43.09-.1.15-.89.19-2.37-.28-.66-.46-1.03-.53-1.12-.07-.15-.2-.29-.39-.44-.68-.55-1.22-.93-1.63-1.17l-.06.12v-.16s.06.02.07.03c0,0,.48-.54,1.47-1.65.11-.13.15-.31.1-.56l-.07-.37c-.25-.56-.32-1.27-.27-2.13,0,0,0,0,0,0h0s-.03-.01-.04-.01h-.03c-.3.2-.53.31-.64.31-.06,0-.11-.02-.15-.08-.07-.06-.08-.12-.06-.18,0-.06.02-.09.09-.1.09,0,.35,0,.75.04.03-.02.04-.02.08-.04v.04s0,0,0,.01c.24.12.47.19.71.18h.03s.27.01.71.04c0,0,0-.02,0-.03h0s0-.01,0,0l.03.03h-.03c.02.13.04.89.08,2.36.12.09.17.19.11.31l-.09.15c.15.33.22.52.26.54.03.09.11.13.24.12.16,0,.25-.04.27-.11l.86-1.81c.17-.35.28-.73.35-1.13.03-.4.1-.65.19-.75.09-.12.38-.81.9-2.04l-.04.04c1.02-1.6,1.54-2.41,1.57-2.45.13-.26.39-.65.76-1.2.34-.54.59-.95.76-1.25.3-.54.73-1.22,1.27-2.06.71-1.12,1.14-1.82,1.31-2.11.43-.67,1.04-1.2,1.85-1.58-.03,0,.03-.02.18-.06.16-.04.28-.01.37.07.22.24.38.53.47.9.17.8.33,1.6.46,2.42.04.25.06.52.04.83-.07,2.01-.03,3.99.11,5.96.07,1.11.02,2.06-.11,2.87Z"/>
      <path d="M81.94,48.74c.14.05.24.11.29.19.03.03.12.17.26.43l.13.03h-.61c-.11-.02-.22-.06-.33-.1-.11-.05-.16-.16-.14-.31,0-.25.15-.31.39-.23h0Z"/>
      <path d="M141.7,41.22c.31.08.55.14.7.18,1.13.37,2,.81,2.6,1.31.3.23,1.06.72,2.3,1.43-.03.03-.04.02-.05-.04.73.33,1.12.51,1.15.54.91.49,1.95.86,3.12,1.11.83.2,1.92.49,3.27.86.5.12.72.42.65.91,0,.09-.02.26-.08.51-.03.21-.06.39-.08.51-.05.6-.05.95,0,1.04l-.09-.04h0l.09.04h-.04s.15.12.15.12c.21.18.25.38.16.57-.35.77-.56,1.43-.61,1.98-.01.12-.04.46-.05,1-.03.28-.12.54-.26.8s-.3.49-.46.69c-.25.39-.42.77-.49,1.15-.18.78-.67,2.3-1.47,4.57-.26.82-.47,1.62-.65,2.38-.19.9-.49,1.98-.91,3.23,0-.03-.38,1.16-1.14,3.58-.21.73-.28,1.41-.19,2.06.03.24-.03.51-.18.79l-.41.73c-.27.78-.61,1.77-1.04,2.93-.06.19-.04.4.07.62l.21.31v-.03s.04-.05.04-.05l-.04.09v-.02c-.02.41-.08.74-.2.99l-.95,1.88c-.73,1.45-1.19,2.67-1.4,3.66-.07.37-.23.85-.45,1.41-.49,1.15-.77,2.49-.82,4.04-.05,1.1-.17,1.98-.35,2.67-.06.22-.08.5-.03.82.06.49.09.77.1.85.03.27.16.5.41.72.62.65,1.32,1.06,2.09,1.23.16.04.63.17,1.45.36l-.05-.04c.21.03.43,0,.62-.12.51-.24.85-.67,1.02-1.26.18-.71.28-1.33.32-1.85.05-.55.24-1.5.54-2.87.68-3.04.99-5.37.94-7-.03-.48.07-.95.28-1.4.29-.64.45-1.09.51-1.38.16-.9.46-1.88.9-2.96.06-.19.13-.42.18-.7.11-.38.18-.61.23-.7.13-.41.19-.82.16-1.25-.04-.53.11-1.06.45-1.55.13-.23.13-.42.02-.59-.26-.39-.28-.79-.06-1.21.2-.33.3-.65.29-.98,0-.03,0-.31,0-.81l-.8.1c-.36.05-.54-.12-.56-.48,0-.27.03-.47.1-.6.11-.26.25-.49.41-.68.26-.3.36-.61.29-.94-.04-.08-.05-.22,0-.4.17-.62.39-1.27.66-1.94.19-.42.4-.76.64-1.03.05-.07.22-.19.5-.38.22-.15.38-.08.47.21l.05.4.04-.05v.13h0v-.13c.14-.17.24-.34.28-.53.2-.83.59-2.03,1.19-3.59.28-.66.47-1.19.58-1.57.13-.62-.04-1.04-.52-1.25-.16-.1-.23-.27-.2-.52.09-.43.29-.72.58-.84.29-.13.41-.03.4.31l-.02.19.04-.05v.09h0v-.09c.33-.37.52-.58.54-.62.33-.46.51-.92.51-1.38,0-.27.09-.52.27-.76.39-.53.83-1.32,1.33-2.38.11-.28.26-.61.43-.96.47-.91,1.07-1.65,1.86-2.22.05-.06.21-.2.45-.38h0c.45-.43.7-.69.72-.76.26-.3.37-.69.31-1.17,0-.12-.07-.24-.18-.34-.04-.05-.14-.14-.3-.28-.26-.15-.29-.34-.07-.58.31-.37.29-.65-.1-.85l-.09-.04s-.07,0-.09-.04c-.35-.14-.52-.39-.5-.75,0-.72.26-1.25.75-1.58.34-.22.55-.4.65-.54.54-.7.95-1.35,1.21-1.96.11-.26.1-.51-.05-.76-.04-.08-.1-.21-.18-.38-.11-.41.03-.7.44-.87.15-.05.28-.08.4-.09.38-.11.71-.34.99-.71.03,0,.12-.11.28-.3-.05,0-.06.02-.11.03.02,0,.04-.02.05-.03,1.42-3.4,3.07-6.46,4.93-9.16.56-.79.91-1.32,1.02-1.58.09-.28.28-.57.58-.84.57-.55,1.15-1.25,1.78-2.07.13-.16.24-.33.35-.49.13-.23.13-.42.02-.59-.23-.39-.5-.8-.82-1.21-.11-.14-.27-.27-.5-.39-.77-.42-1.5-.61-2.15-.59-.19,0-.43,0-.72,0-.33-.02-.57-.02-.72,0-.36.02-.6.14-.72.36-.11.26-.3.6-.56,1.02-.31.46-.51.77-.61.94-.44.81-.72,1.52-.82,2.13-.03.03-.05.11-.06.23,0,.09.01.15-.02.19-.13.62-.41,1.19-.83,1.68-.08.1-.48.57-1.19,1.41h.11s-.02,0-.06.04c-.18.3-.29.48-.34.54-.09.23-.07.42.07.58.21.22.25.46.14.76-.24.57-.53,1.03-.92,1.38-.27.25-.47.44-.61.58-.32.34-.46.72-.41,1.13.08.38,0,.79-.26,1.21-.52.96-1.12,1.81-1.81,2.53-.53.55-.99,1.24-1.37,2.07-.34.7-.49,1.03-.47.96-.26.61-.42,1.13-.49,1.6-.04.46-.2.98-.49,1.55-.14.32-.3.64-.47.96-.27.49-.67.7-1.18.65-.43-.07-.71-.13-.83-.16-.28-.06-1.24-.26-2.88-.6l.05.04c-.49-.24-1.42-.52-2.81-.83-1.09-.26-3.12-.7-6.09-1.33-1.4-.31-2.07-.47-2-.48-1.1-.17-2.16.1-3.16.8-.17.14-.23.33-.2.57.03.24.14.41.33.5l.34.19c.12.05.36.11.7.18l.08.06Z"/>
      <polygon points="148.55 82.27 148.58 82.11 148.71 82.22 148.55 82.27"/>
      <path d="M151.8,71.18c-.11.03-.22,0-.32-.06-.12-.1-.16-.21-.14-.31.03-.4.25-.55.66-.44.11.02.17.11.18.27,0,.25-.14.42-.37.55h0Z"/>
      <path d="M153.38,66.45c.02.37-.05.85-.2,1.42-.07.17-.22.29-.42.39-.19.09-.34.08-.49-.05-.17-.13-.24-.29-.19-.51.11-.44.27-.82.5-1.16.1-.14.19-.24.26-.29.13-.06.25-.08.36-.06.08,0,.14.09.18.27v-.02Z"/>
      <path d="M170.81,25.41c.14,0,.21.06.22.19s-.06.2-.2.18-.18-.1-.14-.24c0-.05.04-.1.12-.13Z"/>
      <path d="M169.89,27.53l.09.12c.07.19,0,.32-.22.41-.13.06-.24.06-.32-.02-.06-.08-.09-.13-.09-.16.06-.38.25-.5.55-.35h0Z"/>
      <path d="M168.71,34.79s-.07,0-.11.03c-.06,0,0,0,.11-.03Z"/>
      <path d="M168.44,26.67c.1-.08.13-.1.02,0h-.02Z"/>
      <polygon points="167.76 32.77 167.76 32.89 167.64 32.82 167.76 32.77"/>
      <path d="M166.56,34.95l.13.12c0,.16-.07.24-.23.22-.06-.02-.09-.06-.09-.12,0-.14.06-.21.19-.22h0Z"/>
      <path d="M164.1,45.02l.2.21s.06,0,.1.02c-.02,0-.03.02-.05.03l-.05-.05c-.15-.03-.25-.04-.27-.04-.08-.02-.13-.05-.13-.08,0-.19.06-.22.2-.09h0Z"/>
      <path d="M161.88,46.29c.14.02.21.1.22.23-.04.27-.17.36-.39.26-.06-.02-.1-.06-.13-.12-.07-.26.03-.39.3-.38h0Z"/>
      <polygon points="149.08 39.46 149.17 39.58 149.05 39.58 149.08 39.46"/>
      <path d="M102.16,85.46c-.03.07-.08.11-.14.11-.03,0-.06-.03-.08-.06-.02-.07,0-.12.06-.17.06-.08.12-.1.17-.06.04.04.03.1,0,.18Z"/>
      <path d="M103.3,76.9s.05.02.06.04l.03.05s-.08-.02-.1-.09h0Z"/>
      <path d="M103.53,74.58s-.12-.06-.23-.14c.08-.09.17-.12.26-.08.07.02.1.06.09.13-.02.07-.06.1-.13.09Z"/>
      <polygon points="103.54 77.57 103.58 77.53 103.58 77.59 103.54 77.56 103.54 77.57"/>
      <path d="M104.48,75.57c-.22-.2-.36-.31-.42-.36-.07-.04-.07-.1,0-.16.06-.05.12-.05.19,0,.19.12.27.26.25.46,0,0,0,.04,0,.07h0Z"/>
      <path d="M104.38,78.66v-.07c.07,0,.1,0,.07.06h-.07Z"/>
      <path d="M105.41,76.85s.08.02.15.05c-.06.07-.1.1-.12.12-.02,0-.04,0-.07,0-.07-.03-.08-.08-.04-.15.02-.03.05-.04.08-.03h0Z"/>
      <path d="M104.83,80.35c-.12.05-.19.02-.21-.11,0-.08,0-.2.05-.35h0v-.02.02l.22.16c.14.12.12.23-.06.3Z"/>
      <path d="M105.18,77.92c-.07-.02-.1-.07-.06-.15.02-.07.08-.12.19-.15.02.11,0,.19-.05.24-.02.04-.05.06-.08.05h0Z"/>
      <path d="M105.64,78.94c-.19.26-.34.45-.45.55.02-.04.04-.08.05-.13,0-.03.02-.07.05-.13,0-.06.03-.1.05-.13.05-.15.15-.2.3-.17Z"/>
      <path d="M109.75,71.53h0c.06.07.04.1-.06.08h0l-.04-.05s.07-.02.1-.03Z"/>
      <path d="M109.18,73.04c.17-.03.28-.03.46-.06.07,0-.15.02-.46.06Z"/>
      <path d="M109.49,72.72c.15.05.24.08.45.14h0c-.21-.06-.3-.09-.45-.14Z"/>
      <polygon points="110.7 61.71 110.65 61.59 110.65 61.59 110.74 61.62 110.74 61.62 110.71 61.71 110.7 61.71"/>
      <path d="M111.14,58.57c0,.08-.06.11-.1.16-.03.03-.02.09-.07.11h0c-.11.04-.19.04-.24,0-.05-.04-.08-.12-.08-.25-.02-.14.03-.22.14-.25.11-.04.19-.04.25,0s.1.12.11.25h0Z"/>
      <polygon points="110.69 70.47 110.63 70.47 110.63 70.44 110.63 70.44 110.68 70.47 110.68 70.47 110.68 70.47 110.69 70.47"/>
      <polygon points="111.43 55.69 111.37 55.74 111.37 55.74 111.37 55.74 111.31 55.58 111.31 55.58 111.31 55.58 111.4 55.61 111.49 55.64 111.43 55.69"/>
      <path d="M111.42,72.14c-.13.05-.25.06-.35.04-.03,0-.04-.03-.06-.04,0,0-.02,0-.03-.02-.03-.08.02-.13.14-.13h0c.07,0,.12.06.18.1.04.02.08.02.11.06h.02Z"/>
      <path d="M111.26,70.1s0-.07.07-.1v.04l-.04.04h0s-.02.02-.02.02Z"/>
      <path d="M112.19,54.54c-.05-.06-.11-.15-.19-.26-.05-.07-.08-.12-.15-.22-.08.06-.17.17-.28.31s-.22.25-.29.27h0s-.09,0-.13-.07c-.03-.02,0-.04,0-.06s-.03-.04,0-.06c.03-.03.09-.06.13-.09.07-.05.12-.11.22-.16.21-.05.34-.11.38-.17h0c.25.03.44.05.59.06.15.02.24.03.27.04.07.03.09.1.12.17.02.04.07.05.07.1,0,.11-.07.2-.18.26-.08.04-.16.05-.24.04,0,0-.03,0-.04-.02-.07-.02-.14-.04-.22-.09,0,0-.04-.04-.06-.08h0Z"/>
      <path d="M112.42,72.16h0c-.09-.03-.13-.04-.17-.05h-.03s-.04-.05-.05-.08h0s.04,0,.05-.03c.02-.03.04-.07.1-.06h0s.04.03.06.04c0,0,.02,0,.03.02s.02.07,0,.16h0Z"/>
      <path d="M113.96,70.56s0,.02-.02.03c-.08.06-.19.11-.32.13,0,0,0,0-.07,0,.07-.14.13-.25.17-.33s.07-.15.07-.19h0s.05,0,.07-.02c.03-.02.05-.06.13-.03h0s.03.05.05.07c.03.04.08.07.07.11-.03.1-.08.17-.15.23h0Z"/>
      <path d="M114.51,69.6h0c-.09,0-.16-.02-.19-.11-.02-.04.02-.11.06-.19,0-.02,0-.03.02-.05h0c.15.04.22.12.24.21h0c0,.08-.03.13-.12.14h0Z"/>
      <path d="M131.65,51.39c0-.06-.01-.08-.02-.07,0,.1,0,.13.02.07ZM139.35,63.33c-.22-.36-.43-.71-.62-1.04h.08c-.12-.19-.32-.3-.59-.34-.38-.02-.72-.04-1.03-.05-.13,0-.33-.01-.58-.01h-.07c.2-.02.12-.01-.07,0h-.46c-.1,0-.18.02-.26.03-1.32.08-2.7.15-4.12.22.05-.24.13-.48.13-.74,0-.19.01-.4,0-.68.02-.34.03-.58.04-.73.03-1.76.04-2.81.03-3.17-.04-.38-.08-.9-.09-1.53,0-.76-.01-1.25-.04-1.49-.06-1.61-.09-2.42-.07-2.47,0-.27.01-1.13.06-2.57.1-2.24,0-4.17-.27-5.77,0-.03-.01-.11-.02-.22,0-.27.09-.51.27-.71.31-.25.43-.61.37-1.08-.03-.27-.09-.46-.15-.57-.25-.6-.36-1.39-.33-2.36.05-1.06.07-1.73.03-2-.12-.77-.07-1.57.16-2.38.11-.35.19-.61.22-.8.08-.37.11-.63.09-.78-.07-.57,0-1.15.2-1.75.13-.4.22-.81.26-1.21.03-.49.2-1.61.5-3.37.15-.84-.07-1.74-.53-1.71-1.61.12-6.75,2.93-6.75,2.93-.42.08-1.04.28-1.87.63-.18.08-1.65,2.04-2.27.77-.03-.05-6.07,1.17-7.39,2.4-.07.05-.04.2-.05.24-.25.72-.07,0-.05.57-.02.1-.03.2-.05.33-.01.12-.02.22-.01.27-.03.51-.27.97-.72,1.38-.11.09-.56.47-1.38,1.18-.69.59-1.14,1-1.36,1.2-.16.14-.32.35-.47.65-.08.16-.04.35.07.58.14.22.31.33.49.31.59-.13.8-.19.61-.16.18-.02.37-.03.59-.02.48-.02.67.2.58.66l-.34,1.76c-.07.94-.3,2.33-.68,4.16-.32,1.67-.46,3.12-.44,4.36.01.36-.12.67-.39.91-.19.23-.31.47-.37.72-.15.71-.46,1.6-.91,2.65-.12.25-.19.58-.2.97.01.12.03.32.07.58.02.48,0,.88-.09,1.19-.14.35-.19.74-.13,1.19-.01.15.03.76.12,1.8l.18-.07-.13.07c-.2.69-.28,1.07-.27,1.16-.15.78-.19,1.09-.11.96.02-.03-.04.35-.23,1.16-.04.15-.05.3-.04.42.07.77.14,1.27.21,1.67-.22.01-.45.03-.71.04,0,0,.02,0,0-.01-.04,0-.1-.01-.15,0,0-.04.01-.07.02-.11,0,0-1.69-.7-3.13-.24-.94.31-1.07.56-.96.63v.02c-.23,1.02-.34,1.55-.35,1.61-.02.16-.07.38-.15.66.04-.14-.14.63-.55,2.35-.02.1-.03.25-.04.45-.08.71-.19,1.29-.33,1.73-.04.16,0,.28.13.38.01,0,.03.01.04.03l.04.03h.02c.04.27,0,.54-.16.81h.02c-.13.04-.2.07-.22.07-.13.04-.21.11-.24.21-.08.31-.13.53-.15.66-.05.33-.23,1.18-.55,2.57-.32,1.34-.5,2.13-.54,2.38-.13.76-.33,1.35-.59,1.78-.14.26-.21.65-.21,1.17,0,.15.07.33.18.51.18.31.42.58.72.83.03.02.1.05.21.1.14.03.21.13.19.32-.01.23.1.42.32.55.2.12.43.24.69.34.09.05.2.08.32.07.57-.05,1.04-.14,1.4-.27.14-.05.25-.15.32-.3,0-.01.01-.05.02-.12,0-.03.01-.07.02-.1.13-.95.2-1.47.21-1.53.03-.16.09-.39.16-.7.1-.32.16-.55.19-.7-.02.11.01-.11.11-.67.26-1.37.38-2.01.37-1.95.14-.71.26-1.55.36-2.52,0-.03-.02-.13-.04-.28h.02c0-.22.03-.49.12-.83.01-.07.04-.24.08-.51h.02v-.31c-.01-.2-.07-.36-.19-.49-.03-.02-.08-.08-.14-.15.18-.19.26-.3.27-.33.14-.21.21-.37.2-.49,0-.31.08-.81.21-1.53.04-.31.18-.53.38-.66.02-.01.04-.04.07-.09.11-.11.16-.24.19-.39-.01.07-.01.01,0-.15.54-.08.96-.13,1.27-.15.21-.02,1.51-.56,1.94-.57.03,0,.15-.04.35-.11.26-.07.63-.11,1.09-.13.09-.01.31-.03.68-.07v.02c.24-.07.38-.11.39-.12.23-.04.4-.14.53-.33.02-.03.05-.08.11-.15.31.1.48.14.53.15.33.07.57.08.72.04.37-.1,1.04-.19,2.01-.27.39-.03.72.02.97.18.03,0,.08.02.14.05.2.05.38.07.57.04.3-.05.48-.1.56-.12.36-.11.83-.19,1.41-.22,2.1-.13,3.32-.2,3.65-.2.39-.02.92-.05,1.6-.11.78-.07,1.3-.1,1.6-.11,1.3-.08,2.04-.11,2.2-.09.24,0,.62-.04,1.14-.12.65-.11,1.16-.21,1.55-.3.39-.09.82-.14,1.28-.18.46-.03,1.19-.07,2.18-.12h.58c.25,0,.09.03-.21.07-.08.91-.13,1.44-.15,1.58-.04.16-.05.45-.04.86.02.51.04.93.09,1.23.04.31.04.63.01,1-.03.35-.08.89-.14,1.63-.03.23-.04.38-.05.45-.12.6-.2,1.44-.23,2.53,0,.32-.03.57-.09.77-.08.26-.12.62-.13,1.08-.03.53.03,1,.18,1.41.05.18.14.27.28.32.37.15.7.28.96.36.1.04.21.04.3.02.35-.05.69-.13,1-.21.18-.05.28-.18.34-.37.08-.27.13-.53.18-.73.02-.12.04-.26.07-.45.02-.2.05-.35.08-.44.02-.2.03-.38,0-.55-.04-.32-.02-.71.07-1.19.04-.24.1-.68.16-1.31.13-1.47.26-3.01.39-4.63.09-1.11.14-1.84.14-2.21,0-.94.01-1.39.03-1.31.05-.42.09-.63.11-.67.08-.38.12-.89.18-1.42l-.11.02ZM113.01,63.56v.04s0,.05-.01.08c-.15.07-.37.03-.56.04.24-.07.46-.16.66-.27-.03.03-.07.06-.09.1ZM119.74,64.08l-.03-.09h.1l-.07.09ZM119.82,65.29v-.05l.09.02-.09.03ZM121.4,64.78c-.07.08-.14.1-.24.08-.1-.02-.14-.08-.14-.15-.02-.15.04-.24.2-.24.1,0,.18.04.23.12.03.08.02.14-.04.2ZM127.01,35.62h-.02c-.3,4.16-.45,6.55-.46,7.18,0,.05,0,.2-.04.42-.07.49-.1,1.42-.12,2.78-.09,3.1-.34,5.76-.78,7.98-.14.86-.27,1.86-.42,3,0,.19-.11,1.39-.3,3.61-.08,1.03-.13,1.7-.14,2-.61-.02-1.32,0-2.18.05-1.37.08-2.1.12-2.19.14-.21.04-.5.05-.88.05.19,0-.88.07-3.19.2-.12,0-.31.01-.57.07-.93.15-1.7.22-2.3.22-.07,0-.12.02-.17.04.34-.22.62-.51.78-.89.69-1.57,1.09-2.84,1.23-3.82.1-.46.24-.99.45-1.55.62-1.64.9-3.34.84-5.09,0-.09-.02-.15-.02-.18-.04-.42,0-.95.13-1.6.03-.24.2-1.24.51-2.97h-.02s-.01.03-.01.04l-.05-.04h.07c.1-.27.26-.83.5-1.7.19-.72.37-1.3.56-1.74.1-.22.22-.56.38-1,.19-.5.31-.85.37-1.04.83-2.16,1.41-4.29,1.73-6.41.04-.37.09-.63.13-.79.11-.35.28-.61.54-.79.25-.21.47-.36.68-.44.96-.54,2.25-1.21,3.89-2.05.05-.03.19-.09.39-.14-.07,0,.01-.02.22-.08.47-.14.7.02.7.5-.13,2.17-.22,3.5-.25,4.02ZM128.11,35.86c-.05,0-.1-.03-.11-.12-.02-.15.05-.22.2-.21l.11.12c.02.18-.04.25-.2.21Z"/>
      <path d="M132.14,67.81c-.36.08-.83.11-1.4.1-.16,0,.8-.07,1.61-.13-.07,0-.15,0-.21.02h0Z"/>
      <path d="M180.23,31.53c.38-1.37.6-2.14.62-2.28.08-.32.3-.67.62-.99.14-.12.2-.3.14-.54-.04-.1-.08-.2-.14-.36-.2-.44-.28-.97-.22-1.57.04-.3.1-.54.22-.77.12-.18.2-.28.22-.32.2-.81.38-1.29.54-1.47.08-.12.4-.46.95-1.03.12-.12.3-.2.54-.22.56-.06,1.09,0,1.57.14.89.24,1.59.6,2.06,1.13.6.67,1.19,1.19,1.75,1.57.5.36.75.89.73,1.57v.4c-.5,2.12-1.03,3.77-1.57,4.94-.2.44-.44.77-.67.95l.04.04c-.18.1-.34.1-.48,0h.04c.14,0,.14.14,0,.44h-.04c0,.36-.14.79-.4,1.25-.06.12-.48.91-1.25,2.38h.04c-.18,0-.42.1-.73.32l-.04-.04c.24.42.36.65.4.67.06.16.08.28.04.4-.14.62-.44,1.29-.85,1.98-.12.24-.32.48-.62.73.08-.06-.32.26-1.21.99-.26.2-.34.44-.22.73.06.16.1.4.14.77.04.32.08.58.14.77h-.81c-.08-.24-.2-.38-.32-.44-.2-.12-.38-.1-.54.04-.08.12-.14.24-.14.36.04.18.12.26.26.26.06.04.32-.02.77-.18.24-.14.48-.16.77-.04h1.17c.26.04.46.08.58.14.3.14.52.08.67-.18.08-.18.22-.28.4-.32.08-.04.22-.04.4-.04.18-.02.32-.06.4-.08.54-.12.89-.36,1.07-.77.04-.08.08-.2.18-.36.18-.24.4-.34.67-.32.08,0,.22,0,.4-.04.26-.06.34-.22.22-.48-.14-.26-.14-.5,0-.73.12-.18.2-.28.22-.32.26-.26.46-.54.58-.81.2-.48.6-1.07,1.21-1.79.02-.04.26-.34.67-.95v.04c.24-.04.36-.06.36-.08.26-.02.42-.14.44-.32.12-.54.38-1.07.81-1.61.2-.24.6-.69,1.17-1.35,2-2.36,3.04-3.59,3.08-3.67.14-.18.38-.44.67-.77.38-.42,1.01-.79,1.87-1.13.12-.02.24-.04.36-.04.69-.06,1.29-.1,1.79-.1.83-.02,1.59.18,2.28.62.18.12.83.46,1.94,1.03.99.5,1.53,1.29,1.65,2.34.02.3-.02.56-.18.77-.12.18-.24.34-.36.48-.54.62-1.65,1.94-3.37,3.95-.42.5-.89.87-1.43,1.07-.54.24-1.07.65-1.57,1.21-.67.79-1.01,1.19-1.03,1.21-.44.48-.87.89-1.25,1.25-.42.36-.87.67-1.35.89-1.43.69-2.34,1.11-2.68,1.25-.42.18-.89.44-1.39.77-.99.67-2.62,1.94-4.88,3.81v.04c.04-.08.04-.14,0-.18-.04-.12-.1-.2-.22-.22-.24-.02-.36.08-.36.36s.06.28.18.48h-.04s-.54.32-1.61,1.03c-.2.14-.3.38-.26.67v.22-.08c-.62.32-.99.52-1.07.58-.24.12-.4.3-.48.54-.36.79-.52,1.13-.48,1.07-.12.18-.3.42-.54.77-.24.32-.42.56-.54.73-.06.08-.42.46-1.07,1.13l-.22.22c-.12.08-.2.14-.22.18-.2.2-.32.44-.32.73-.04.32-.04.6-.04.81.04.38.18.75.44,1.07.54.62,1.07,1.13,1.57,1.53,1.07.79,2.22,1.87,3.41,3.33.18.2.95,1.11,2.34,2.68.44.5.48,1.05.08,1.61-.04.06-.08.14-.18.26-.08.08-.14.16-.18.22-.06.08-.06.2,0,.36.12.24.28.32.48.26.12-.02.26-.08.4-.14.24-.12.56-.16.99-.14.08,0,.14,0,.18.04.2.06.32.1.36.14.42.38.85.97,1.29,1.75l.08.4.04-.04-.04.18c-.06.14-.04.26.04.32.08.08.24.08.44-.04l-.04.04c.18.18.38.44.58.81.24.38.42.67.58.85.12.14.52.67,1.21,1.53-.02-.06.04.06.22.36.06.1.04.2-.04.36-.08.18-.18.26-.26.26-.42.02-.69.02-.81,0-.75-.18-1.37-.4-1.87-.67-1.83-1.05-3.21-1.98-4.13-2.78-.06-.02-.32-.22-.81-.58-1.49-1.17-2.88-2.6-4.17-4.31-.87-1.13-1.59-2-2.16-2.6-.06-.02-.14-.12-.26-.26-.12-.14-.2-.26-.26-.32-.6-.5-1.25-1.19-1.94-2.06-.08-.12-.32-.32-.73-.62-.38-.32-.75-.28-1.07.14-.6.69-1.01,1.45-1.21,2.28-.06.08-.1.28-.1.58s0,.28.04.4c.18.6.14,1.31-.14,2.16-.24.67-.75,2.04-1.53,4.13-.12.26-.46.91-1.03,1.94-.18.32-.32.62-.4.91-.06.3-.16.83-.32,1.57-.12.67-.22,1.19-.32,1.57l-.04.18c-.06.54.08.97.4,1.31.2.2.26.26.14.14.24.2.28.44.14.73-.04.1-.24.42-.62,1.03-.44.75-.69,1.15-.73,1.21-.54,1.01-.95,2.06-1.21,3.14-.3,1.19-.42,1.71-.4,1.57-.02.12-.1.3-.22.54s-.2.42-.22.54c.02-.06,0,.26-.04.99-.02.26-.16.42-.4.44-.56.02-.77.02-.58,0-.3.02-.56.08-.81.14-.62.12-.93.5-.89,1.17.02.12.06.28.08.5.02.24.04.4.04.5,0,.14-.02.28-.08.4-.2.3-.42.56-.62.77-.14.14-.34.2-.58.14-.36-.02-.67-.24-.95-.62-.08-.1-.14-.2-.14-.36-.06-.48-.04-1.27.08-2.38.02-.2.14-.46.32-.77.04-.1.2-.3.5-.62.54-.6.85-1.31.95-2.16.06-.3.14-.75.22-1.35.12-.62.2-1.09.22-1.39.12-.73.28-1.49.48-2.34.2-.87.32-1.53.36-1.98,0-.26.08-.67.22-1.17.14-.54.24-.93.26-1.17.32-1.23.73-2.84,1.21-4.84.56-2.54.95-4.17,1.13-4.88.12-.44,1.01-3.99,2.64-10.62.06-.2.24-1.07.54-2.56.04-.18.1-.56.22-1.17.12-.48.2-.87.26-1.17.04-.2.1-.4.18-.58.3-.79.54-1.53.77-2.24.1-.26.24-.48.44-.67.42-.38.67-.6.73-.67.24-.18.6-.67,1.07-1.43l.08-.4c.06-.24.22-.42.48-.54.12-.06.24-.14.36-.22.2-.14.2-.38,0-.73-.12-.24-.28-.3-.48-.18-.06,0-.12.04-.18.08-.08.06-.14.08-.18.08-.12.08-.24.08-.36-.04-.1-.08-.14-.2-.14-.36v-.18c.18-.54.44-1.57.77-3.08.26-1.35.77-2.42,1.53-3.23.14-.18.22-.42.22-.73s0-.46.04-.58c.5-1.91.89-3.18,1.17-3.81h.08-.14l.06-.08ZM164.77,94.86c-.2-.38-.36-.67-.44-.85-.06-.18-.02-.36.08-.54.14-.26.32-.3.5-.1.44.44.52.93.22,1.43l-.18.1-.18-.04h0ZM168.03,94.2c.1.14.12.26.1.36-.3.99-.75,1.81-1.35,2.52l.04.04c-.2-.24-.32-.38-.36-.4-.24-.26-.38-.26-.44.04l-.04.36v-.04c-.2-.06-.34-.18-.4-.36-.12-.2-.14-.38-.04-.54.06-.06.14-.14.26-.26.12-.14.2-.26.22-.32.2-.24.46-.42.77-.54.18-.1.42-.2.73-.32.14-.1.2-.26.18-.54-.02-.2-.12-.38-.26-.5v.04c.36.2.56.36.62.44h0l-.02.04ZM166.78,97.06c-.24.24-.5.24-.81,0v.04h.85l-.04-.04h0ZM166.32,87.43c.67.06,1.15.02,1.47-.1-.26.32-.42.58-.44.77-.02.06,0,.12.04.18.06.14.14.18.26.1.06-.02.1-.06.14-.1.02-.12.04-.28.04-.48-.02-.2-.04-.36-.04-.44-.2-.2-.36-.42-.44-.62-.02-.12-.08-.24-.14-.36-.08-.12-.2-.14-.36-.1-.08.02-.14.06-.18.1l-.32,1.13-.04-.04.02-.02ZM167.41,93.76v-.04c.06-.56.1-.91.14-1.03-.06.48-.1.83-.14,1.07h0ZM168.44,90.43l-.14.32c0,.14-.06.22-.18.22-.02.02-.04,0-.04-.14s0-.1.04-.14c.02-.02.12-.1.26-.22l.04-.04h.02ZM168.29,85.77c.14-.14.24-.24.26-.26.02-.06,0-.1-.04-.14-.12-.06-.18.1-.18.44l-.04.14v-.18h0ZM168.44,90.35l-.04.04v.08l.04-.14h0v.02ZM176.02,45.19c-.06,0-.1-.02-.14-.08-.04-.14.04-.22.18-.22l.14.08c.04.14-.04.22-.18.22ZM175.91,48.7h.14l-.04-.14s-.1.14-.08.14h-.02ZM177.49,47.75h.08l-.08.04.04.04-.04-.08h0ZM177.77,41.43l-.08.18s.08.04.14.04c.14-.14.14-.22-.04-.22h-.02ZM178.29,46.77c.04-.06,0-.1-.04-.14-.12-.12-.18-.08-.18.08l.08.14.14-.08h0ZM181.62,40.36c-.26-.36-.36-.73-.32-1.07,0-.02-.04-.22-.14-.58v.04c-.06-.48-.08-1.29-.04-2.46l.04.04c-.6.18-.91.26-.95.26-.5.18-.69.48-.54.95.18.56.32.95.4,1.13.06.18.08.5.08.99t-.04,0c.18.18.28.26.32.26.04.06.08.12.14.18.12.14.1.32-.04.54-.14.18-.32.2-.54.04-.24-.14-.4-.24-.48-.26-.26-.06-.44,0-.54.18-.06.14-.06.28,0,.4.12.18.2.28.22.32.6.6,1.07,1.07,1.43,1.39.06.08.16.06.32-.08.08-.06.14-.1.14-.14.06-.2.34-.65.85-1.29.08-.12.08-.26,0-.4,0-.04-.12-.18-.36-.44l.04.04h0l.02-.04ZM182.24,50.44c.08-.14-.36.5-1.35,1.98-.06.08-.26.26-.62.48-.04.02-.1.08-.22.14s-.2.12-.26.18c-.26.24-.44.5-.54.81-.06.24,0,.42.18.54.2.14.4.18.58.08.14-.08.36-.22.67-.4s.52-.42.67-.73c.2-.44.28-.62.22-.54.08-.14.18-.24.26-.26-.04,0,.36-.24,1.21-.73l.4-.04h.04-.08c.08-.24.14-.36.18-.36.24-.62.6-1.09,1.07-1.39.2-.12.34-.24.4-.36.12-.2.3-.44.54-.73.32-.32.52-.54.58-.67.42-.56.73-.99.89-1.25.04-.04.08-.16.14-.4.06-.24,0-.4-.22-.48-.08-.04-.22-.06-.4-.08-.38-.12-.67-.04-.81.22-.24.44-.56.79-.95,1.03-.06.04-.14.08-.22.14-.12.08-.2.16-.26.18-.18.12-.44.16-.77.14l.04-.04c-.04.2-.04.32-.04.36-.04.56-.22,1.03-.58,1.39-.06.02-.32.32-.77.85v-.04h0l.02-.02ZM180.19,46.1l.14.08v-.14l-.14.04v.02ZM182.24,48.08c-.2-.14-.44-.26-.67-.36-.14-.06-.3-.04-.44.04s-.24.22-.26.4c0,.26.08.5.22.73.12.2.28.28.48.22.26-.08.44-.16.54-.22.18-.08.28-.26.32-.48,0-.14-.06-.26-.18-.32h-.02ZM181.62,40.36l-.04-.04.04.04ZM182.39,62.15v.04l-.04.08.04-.14v.02ZM183.53,24.86c-.2-.18-.44-.22-.67-.14-.3.06-.36.2-.18.44.32.38.65.38.95,0l.04-.18c-.06-.08-.1-.14-.14-.14h0v.02ZM183.78,44.79c-.08-.08-.14-.08-.18.04,0,.2.08.36.26.48.06.04.12.04.18,0,.06-.02.08-.08.04-.18-.08-.18-.2-.3-.32-.36h0l.02.02ZM184.04,27.05l-.14.1.14.1v-.18h0v-.02ZM184.99,64.02s0-.06-.04-.08l-.14.04c-.06.08-.04.14.04.14,0,.02.06.02.18,0-.04-.02-.04-.06-.04-.08h0v-.02ZM185.51,36.77h-.04.04ZM186.19,26.51c.04-.06,0-.1-.04-.14-.12-.1-.18-.06-.18.1l.08.08s.14-.04.14-.04ZM186.05,50.98v.08-.08ZM186.54,28.2c.04.06.08.1.14.1.18-.02.24-.12.18-.26l-.18-.1c-.14.02-.2.12-.14.26ZM187.04,69.99l-.14-.04.04.14.08-.08h0l.02-.02ZM187.89,43.99c-.3.04-.54.14-.73.32-.24.3-.24.6,0,.89.06.08.12.12.18.08.36-.08.67-.28.95-.58l.04-.18c.04-.36-.12-.54-.44-.54h0v.02ZM187.59,32.64c-.12.24-.26.4-.44.5h.04v-.44h-.04.48l-.04-.04h0v-.02ZM188.39,48.64c-.08.12-.24.28-.44.48-.04,0,0,0,.04,0,.2-.14.34-.3.4-.44v-.04h0ZM191.52,37.03h-.08v-.04l.08.04ZM192.32,71.12c.18.14.32.3.44.44l.04-.04-.22-.22-.22-.22-.04.04h0ZM195.21,41.61c-.06-.04-.12-.04-.18,0-.08.12-.04.18.14.18l.14-.08-.08-.08h0l-.02-.02ZM203.53,29.55c-.14.06-.2.14-.14.26.06.14.16.2.32.14.14-.06.2-.16.14-.32-.06-.12-.16-.14-.32-.08Z"/>
      <path d="M218.41,54.87c-.58,1.41-1.06,2.71-1.51,3.98-.31.86-.65,1.75-.99,2.64-.1.21-.21.48-.38.82-.17.38-.31.69-.38.86-.1.14-.21.38-.31.72-.14.38-.21.62-.27.79.07-.14-.14.38-.65,1.44-.17.41-.41.75-.69.99-.1.1-.14.21-.14.38v1.06c.07.69-.1,1.41-.45,2.12h-.03.1c-.14.38-.45.72-.93.96h0s.17.31.17.31c.1.24.14.45.1.58-.07.31-.14.58-.17.82-.45,1.44-.79,2.6-.96,3.5-.07.34-.21.69-.41,1.1-.38.65-.58.96-.55.86-.31.65-.75,1.23-1.37,1.75-1.06.89-1.51,1.3-1.37,1.17-.17.14-.38.21-.55.27-.14,0-.27,0-.38-.14-.17-.34-.38-.82-.58-1.51,0-.21-.03-.41-.03-.58.1-.82.24-1.47.45-1.95.14-.45.38-1.17.72-2.12.24-.69.38-1.2.45-1.54,0-.21.17-.72.45-1.54.51-1.61.89-2.98,1.1-4.08.14-.69.38-1.23.69-1.65,0-.07.03-.14.03-.24s0-.1-.03-.17c-.07-.31-.03-.65.03-.99.62-2.33.99-3.84,1.13-4.49.14-.55.38-.99.82-1.34.07,0,.1-.07.14-.14,0-.21.03-.34.03-.41-.31-.48-.34-.99-.14-1.51.07-.69.34-1.37.82-2.06l-.1.1.1-.1c0-.27,0-.55.1-.79.31-.65.55-1.37.69-2.09.14-.51.17-.93.17-1.23.07-.69.17-1.34.38-1.95.14-.41.31-1.06.55-1.95.24-.86.45-1.51.58-1.95.1-.38.24-.65.41-.93.14-.21.17-.41.17-.55,0-.48.14-1.3.38-2.4.48-2.23.79-3.46.86-3.74.1-.34.27-1.34.58-3.02.07-.41.17-1.1.38-1.99.14-.86.27-1.51.38-1.99,0-.07.07-.31.24-.79.07-.17.17-.34.38-.45.31-.17.38-.41.24-.69-.21-.41-.31-.82-.31-1.3s.07-.62.17-1.65c0-.1.07-.38.1-.82,0-.34-.17-.51-.55-.55h-.41c-.31.07-.55.14-.79.24-.55.17-1.27.27-2.19.27s-.41,0-.58-.1c-.38-.1-.75-.21-1.17-.38-.07,0-.17-.1-.38-.17-.14-.1-.27-.14-.38-.14-.89-.24-2.26-.99-4.08-2.23-.27-.17-.58-.45-.89-.79-.51-.55-.65-1.17-.41-1.85.07-.21.14-.41.27-.55.51-.58,1.1-1.03,1.78-1.3,1.47-.69,3.02-1.2,4.59-1.54.45-.14.79-.21.96-.27.31-.1.79-.17,1.41-.27.41-.07.69-.14.79-.17.45-.17,1.34-.34,2.6-.51,1.1-.14,1.75-.21,1.99-.27,1.3-.31,2.78-.38,4.42-.17.24,0,.51,0,.82.1.21,0,.48,0,.82-.03.75-.14,1.34-.24,1.78-.27,1.03-.14,1.88-.07,2.6.17.93.34,1.95.34,3.02,0,.41-.14.75-.21.99-.24.89-.1,2.36-.41,4.32-.96.96-.24,1.92-.31,2.81-.24,1.1.14,1.71.21,1.82.24.51.07.72.38.65.93-.07.31-.1.45-.1.41-.34,1.27-.75,2.67-1.27,4.25-.1.34-.27.58-.58.79-1.03.69-1.99,1.17-2.91,1.44-.21.1-.51.21-.86.31-.38.17-.69.27-.82.31-.41.14-.69.24-.79.24-.38.07-1.34.31-2.78.72-1.06.31-2.74.82-5,1.58-.34.1-.82.27-1.51.55-.69.24-1.2.41-1.54.55-.07,0-.14,0-.27.1-.14.07-.21.1-.27.14-.45.14-.75.48-.89.99-.07.27-.1.48-.1.58-.14.96-.31,2.74-.55,5.28-.21,2.3-.69,4.52-1.41,6.68-.14.31-.21.48-.27.55-.24.34-.38.79-.45,1.3,0,.31-.14.62-.31.96-.1.1-.14.24-.1.38,0,.31-.03.79-.24,1.41-.65,2.09-1.06,3.39-1.13,3.87-.07.41-.27.72-.69.96-.65.41-.99.65-.99.69-.1.1-.14.21-.1.38,0,.14.17.38.41.69.17.27.21.58.1.96-.14.48-.34.86-.55,1.1h0c-.07.27-.38,1.17-.99,2.6h0l-.07-.07ZM209.23,75.85h-.1c-.14-.14-.21-.24-.14-.24.1.14.14.24.17.27h.03v-.03h.03ZM210.94,66.18c-.14-.14-.24-.14-.38,0v.14c.1.14.21.17.31.03v-.17h.07ZM210.81,70.71l-.14.14s0,.1-.03.17c.07-.14.1-.27.14-.31h.03ZM212.28,67.69c0-.17-.17-.27-.45-.24-.14,0-.24.07-.27.17-.1.21,0,.38.17.45h.17c.27,0,.38-.17.38-.41h0v.03ZM215.5,57.75c-.1.1-.1.21,0,.31.07.14.17.14.31.1.14-.07.21-.14.24-.27,0-.14-.07-.24-.24-.31-.14,0-.24.07-.31.17ZM216.15,17c-.1-.1-.21-.17-.38-.17-.14,0-.14.1,0,.17.1.07.21.03.38-.03,0,.48.1.86.17,1.13h-.03c0-.1,0-.45-.14-1.1ZM215.77,56.21v.14s.1.03.1.03c.1-.14.07-.21-.1-.17h0ZM215.88,49.87v.1h.14s-.14-.1-.14-.1h0ZM216.6,46.34c0-.07-.07-.1-.14-.1-.14,0-.24,0-.24.17s.14.27.27.24c.14-.07.17-.17.1-.31h0ZM217.42,43.63c-.14-.1-.24-.1-.31.03-.07.07-.1.17-.14.38,0,.07,0,.1.1.14.14.1.24.1.31,0,0,0,.07-.17.14-.41l-.1-.14ZM218.24,47.98l-.1-.1h.1v.1ZM219.2,42.06c-.07,0-.1.07-.1.14,0,.14,0,.24.17.27.14,0,.21-.1.17-.27,0-.14-.14-.21-.27-.14h.03ZM220.54,45.35c-.17,0-.38.07-.55.1h.03c.07,0,.17.17.38.45v.41c0,.17.14.21.27.03.07-.07.07-.1,0-.14.14.1,0,0-.27-.31,0-.1.07-.31.1-.58h.03v.03h0ZM220.64,41.64h.1s-.14,0-.14,0h.03,0ZM223.38,29.79h-.14c-.14,0-.14-.07,0-.1,0,0,0,.07.03.1.21-.14.24-.14.1,0h0ZM231.57,21.8v.17c.07,0,.1,0,.14-.03v-.14h-.14Z"/>
      <path d="M229.62,65.9c.2.13.37.2.47.23.1,0,.13,0,.17-.07.1-.13.07-.2-.13-.27-.07,0-.23.03-.54.13,0-.23,0-.37-.07-.37.07-.3.13-.97.23-1.98,0,.17.1-.13.37-.87.07-.2.1-.47.13-.77.07-.4.13-.74.23-.97.27-.5.57-1.14.9-1.94.07-.13.17-.23.27-.3.1-.13.2-.2.3-.2.03,0,.23-.03.6-.1h0c.2-.23.3-.37.34-.44.27-.44.23-.77-.17-1.07l-.3-.17c-.47-.3-.64-.7-.5-1.21.3-1.21.64-2.48,1.01-3.82.13-.5.3-1.14.57-1.91.1-.27.23-.47.47-.6.37-.27.57-.4.64-.47.23-.2.37-.4.4-.64.64-2.48.9-3.48.84-3.05.07-.5.03-.94-.13-1.34-.13-.3-.17-.6-.07-.94.67-2.14,1.04-3.28,1.07-3.42.77-2.55,1.11-3.65,1.07-3.42.84-2.51,1.34-4.09,1.51-4.72.17-.44.37-.87.6-1.24.2-.3.47-.47.8-.54.37-.07.7,0,1.01.1.8.34,1.54.97,2.21,1.94.4.57.77,1.27,1.11,2.08.17.44.17.9,0,1.34-.2.5-.4.97-.6,1.44-.13.23-.3.6-.57,1.04-.27.44-.44.8-.57,1.07-.44.87-.74,1.54-.87,2.01-.34,1.01-.64,1.88-.87,2.61-1.27,4.39-2.14,7.3-2.61,8.74,0-.07-.23.77-.77,2.45-.57,1.64-.87,2.51-.9,2.61-.03.07-.07.2-.07.37-.03.34-.13.8-.27,1.34-.2.67-.34,1.11-.37,1.34-.07.4-.17.97-.3,1.74-.17.8-.3,1.41-.37,1.74-.1.44-.07.84.07,1.17,0,.13.1.23.27.27.13.03.27,0,.34-.07.54-.44.87-.8,1.07-1.14l2.14-3.12c.1-.2.23-.4.4-.64.4-.5.8-1.17,1.24-2.01l.27-.57c.1-.13.17-.27.23-.34.13-.17.3-.23.54-.23s.2,0,.4.07c.57.1.94-.1,1.07-.6.13-.67.44-1.41.9-2.18.1-.13.3-.4.57-.8.4-.57.64-1.17.7-1.84.07-.57.13-.87.13-.97.03-.13.07-.27.1-.4.07-.17.23-.27.4-.34.13,0,.27,0,.37.13,0,0,.07.07.13.13.07.07.1.1.13.17,0,0,.07.07.13.1.1.07.2.1.34,0,.17-.07.27-.17.3-.3s.07-.4.1-.8c0-.3.1-.57.17-.77l.37-.7c.13-.3.23-.54.3-.7.23-.47.34-.67.27-.57.4-.77.9-1.44,1.54-2.01.87-.8,1.57-1.34,2.04-1.51.17-.07.37-.27.57-.57.34-.5.54-.77.57-.8.07-.1.2-.17.34-.17-.07,0,.13,0,.57-.07.27,0,.5-.13.67-.37.07-.03.13-.13.27-.34.4-.64,1.01-1.04,1.74-1.21l-.07.1h0c.34-.37.87-.74,1.64-1.14.23-.13.47-.13.74-.07.27.1.47.17.57.17.2.03.37-.03.47-.27.1-.13.17-.23.2-.3.3-.34.74-.44,1.31-.4.1,0,.17,0,.23.07.07.1.27.34.6.77-.34.27-.54.44-.6.5-.13.23-.03.4.23.47l.37.07c0,.13.03.2.13.23v-.1s-.2-.07-.2-.07c.07-.23.1-.57.03-1.07.27.23.64.44,1.17.64.54.23.84.64.87,1.24,0,.07.03.1.13.1h.54v-.07c.07,0,.1,0,.13-.07.2-.23.37-.23.47,0,.3.74.54,1.27.74,1.61.1.13.2.37.3.7.2.64.17,1.14-.07,1.54-.07.13-.1.27-.07.37.1.57,0,1.31-.27,2.31-.34,1.21-.54,1.94-.6,2.28-.34,1.34-.9,2.58-1.71,3.72-.3-.17-.54-.27-.64-.3,0-.4-.13-.64-.47-.77l-.17-.07-.17-.07c-.27-.1-.5,0-.74.17-.2.13-.23.3-.1.5.07.1.2.17.3.17h.2c.34-.13.7-.1,1.11.1.3.13.5.23.6.3.13.47.13.87-.03,1.17-.07.17-.2.4-.34.77-.13.37-.27.64-.37.8-.13.27-.67,1.37-1.64,3.35h0s.07-.07.07-.07c0,.5-.13.97-.27,1.34-.17.47-.44,1.01-.77,1.61-.87,1.54-1.51,2.75-1.94,3.69-.34.74-.54,1.31-.6,1.64-.1.6-.4,1.41-.9,2.41-.1.2-.3.6-.6,1.14-.23.47-.44.87-.57,1.14-.44.9-.77,1.47-.9,1.74-.34.54-.6,1.21-.8,2.04-.07.23-.17.57-.3,1.04-.13.47-.23.8-.3,1.04-.4,1.51-.57,2.45-.6,2.88,0,.44-.17.97-.4,1.54-.3.7-.47,1.41-.47,2.11,0,.2.1.37.3.47.1.07.2.1.34,0,.07-.07.1-.1.13-.13,1.01-1.41,1.61-2.45,1.84-3.05h0c.1.3.13.54.07.77-.07.47-.3,1.57-.77,3.32-.2.94-.3,1.44-.37,1.51-.17.44-.57,1.57-1.24,3.35-.1.37-.2.67-.23.94,0,.07,0,.34-.1.8-.07.5-.2,1.01-.47,1.51-.23.4-.47.87-.7,1.41-.34.74-.44,1.51-.3,2.31,0,.27.1.67.23,1.14v.8c0,.27-.17.47-.4.64-.1.07-.23.13-.37.13-.23-.07-.4-.17-.5-.3-.47-.7-.97-1.54-1.44-2.58-.13-.27-.2-.6-.23-.97.03-1.74.17-2.91.37-3.55,0-.07.07-.17.07-.37.13-1.61.2-2.61.2-2.98,0,.27,0-.37.07-1.94,0-.37.13-.84.27-1.34,0-.13.13-.27.34-.47.13-.13.37-.23.7-.34l-.17.3v-.13s.07-.07.13-.13c-.03-.37-.07-.6-.03-.6,0-.1.03-.23.07-.47.07-.23.1-.4.1-.5.1-1.01,0-1.84-.37-2.51,0-.03,0-.1-.07-.17-.07-.23,0-.4.07-.57.27-.4.44-.67.47-.87,0-.07.1-.37.3-.94.3-.84.47-1.27.5-1.31.47-1.47.94-2.95,1.44-4.49.2-.5.23-1.04.13-1.57-.03-.27-.1-.5-.17-.77-.17-.64-.13-1.31.07-1.94.1-.27.17-.47.17-.57.03-.2.03-.4,0-.6l-.13-.37c-.07-.2-.1-.34-.17-.37-.07-.23-.03-.4.03-.57-.07.1.07-.2.3-.94.2-.5.23-.97.1-1.41-.13-.5-.1-1.01.07-1.54,0-.2.1-.44.17-.77.07-.37.13-.6.17-.77.07-.23.23-.94.57-2.11.37-1.17.54-1.81.57-1.91.1-.2.2-.57.27-1.04.1-.47.2-.8.3-1.04.07-.2.13-.44.17-.77.03-.4.07-.67.1-.8-.1.3.2-.57.84-2.68.07-.17,0-.37-.17-.54-.13-.17-.3-.2-.54-.17-.84.17-1.54.54-2.08,1.11-1.74,1.78-2.91,3.05-3.48,3.79-.84,1.07-1.34,1.78-1.47,2.08,0,.07-.07.1-.13.13-.13.13-.23.23-.27.27-.2.1-.4.17-.57.23-.44.1-.77.4-1.01.9-.3.64-.54,1.27-.67,1.84-.1.34-.27.64-.47.87-.27.23-.54.6-.8,1.14-.34.6-.57.97-.7,1.14-.07.23-.17.6-.37,1.07-.2.44-.34.77-.4,1.01-.1.44-.23.8-.37,1.14-.8,1.94-1.54,3.42-2.21,4.42-.74,1.14-1.41,2.41-1.98,3.89-.37.94-.84,1.94-1.37,3.05l-.4.8-.4.8c-.34.67-.47,1.17-.47,1.51-.44,1.68-.8,2.81-1.11,3.38-.5,1.01-1.11,2.18-1.81,3.52-.07.1-.13.2-.27.27-.7.37-1.31.4-1.88.07-1.01-.67-1.68-1.11-2.04-1.31-.37-.2-.7-.5-.94-.97-.07-.07-.13-.23-.23-.54-.13-.3-.27-.54-.4-.67-.17-.13-.27-.2-.3-.3-.17-.47-.44-.97-.8-1.61-.1-.13-.13-.34-.13-.57.07-.6,0-1.17-.1-1.74-.07-.23-.1-.5-.13-.8-.03-.47.07-.8.3-1.11.34-.44.54-.84.6-1.24,0-.13.1-.37.27-.77.17-.3.27-.67.3-1.11,0-.23.03-.6.1-1.11.03-.47.07-.84.1-1.11.07-.7.4-2.31.97-4.82.07-.27.2-.5.4-.7.23-.2.37-.34.4-.44.07-.17.07-.3.03-.37-.03-.07-.2-.34-.47-.87h0l.17.1ZM234.85,53.1c-.03-.13-.13-.17-.27-.17-.07,0-.13.07-.13.07-.03.13,0,.23.17.23.1,0,.17-.03.23-.17.13.1.6.27,1.41.5-.7.34-1.27.77-1.71,1.34-.2.27-.47.37-.87.3-.23-.07-.44,0-.57.07-.07.07-.1.13-.13.17,0,.07.03.13.13.17.3.2.74.47,1.34.8.2.1.37,0,.54-.17.2-.23.34-.37.37-.4.3-.57.57-.97.8-1.14.1-.1.17-.27.17-.54,0,0,0-.23-.03-.6-.44-.3-.7-.44-.77-.47-.23-.13-.44-.13-.67,0h0ZM234.85,57.32l.1.1.07-.1h-.17ZM239.11,63.62c.2.13.4.17.67.07.27-.07.44-.2.5-.4.1-.27.13-.57.13-.94-.03-.27-.17-.4-.4-.4-.34,0-.57.07-.7.23-.23.34-.37.7-.37,1.11,0,0,.1.1.2.3h0l-.03.03ZM231.53,79.53c-.07-.07-.1-.1-.13-.13l-.1.1.13.13.1-.1h0ZM242.56,63.32c.1-.2.13-.34.13-.37.07-.27-.03-.47-.34-.6-.13-.03-.27,0-.37.13-.07.13-.17.5-.3,1.11,0,.2.07.34.3.47.34.17.54.07.54-.27v-.4h0l.03-.07ZM243.26,60.43l-.1.1c.07.17.13.17.23,0l-.13-.1h0ZM245.27,60.13h-.13c-.13.07-.13.13.03.2.07.03.13,0,.17-.07l-.07-.13h0ZM251.5,48.14h-.07v.07l.07-.07h0ZM252.1,47.44c.13.03.23,0,.27-.17s0-.23-.17-.23c-.07,0-.1,0-.13.07-.1.1-.07.23.03.3h0v.03ZM254.11,44.19h-.13v.13h.13v-.13h0ZM252.64,48.61c0,.13.07.37.17.64,0,.13.1.23.2.3l.1-.1-.37-.17c0-.07,0-.17-.07-.34-.03-.13-.07-.23-.1-.3h.07v-.03ZM254.92,45.93c-.47-.17-.67-.27-.57-.23-.03,0-.07.07-.07.17v.17c.2.47.57.77,1.11.94.13.03.27,0,.34-.07.2-.2.17-.37-.07-.54-.17-.13-.23-.17-.13-.13l-.6-.3h0ZM253.14,50.65l.07-.07-.13-.07v.13h.07ZM258.37,42.78c.1-.27,0-.4-.23-.4-.13,0-.2,0-.23.17-.07.27.03.37.34.34l.13-.07h0v-.03ZM259.37,41.41c-.13-.07-.23,0-.27.13,0,.03.07.07.13.13.13.1.2.07.2-.1l-.07-.13h0v-.03ZM258.13,46.97c-.2-.03-.34.07-.37.37,0,.13.07.23.2.3.2.1.37,0,.4-.23.07-.27,0-.4-.23-.4v-.03ZM259.41,46.93v.17c.13.1.23.07.3-.07v-.17c-.1-.1-.2-.07-.27.07h-.03ZM258.27,49.58l.1-.1-.1-.1-.1.1.1.1h0ZM259.47,48.71c-.13-.1-.27-.17-.34-.23-.13,0-.23,0-.3.13-.07.13-.07.23.03.3.1.1.23.1.37,0-.07.07,0,0,.13-.13l.13-.13c.23.44.4.7.5.8,0,.07.03.1.13.07.13,0,.2-.1.13-.23-.07-.13-.17-.23-.27-.27,0-.03-.17-.13-.47-.27h0l-.07-.03ZM262.26,42.48s-.03-.07-.1-.1c-.17,0-.2.1-.13.23h.2v-.13h.03ZM263.73,41.37h-.1l.07-.1-.07.17h.13l-.03-.07ZM261.28,49.04v-.17c-.13-.1-.23-.07-.27.07-.03.07,0,.13,0,.17.1.07.17.07.23-.07h.03ZM264,44.76c-.07-.17-.13-.23-.27-.17-.17,0-.2.1-.13.23.1.13.2.2.34.13v-.17l.07-.03ZM265.37,42.44c.34-.07.57-.17.7-.3.1-.13.1-.23.03-.37-.03-.07-.1-.07-.17-.07s-.1-.03-.17-.03c-.27,0-.5.17-.64.37-.07.13-.1.23-.07.34,0,.1.1.13.3.1h0v-.03ZM261.82,50.85c.13.1.23.1.34,0,.1-.07.13-.13.13-.23,0-.13-.03-.2-.13-.23-.13-.03-.27,0-.37.1-.07.13-.07.23.03.3h0v.07ZM264.7,46.9c-.1-.13-.17-.27-.17-.34-.07-.13-.17-.17-.27-.13-.07.03-.07.1-.03.17,0,.03.07.07.13.13l.37.17h-.03ZM263.06,48.91c.07.07.1.1.13.13.17,0,.2-.1.13-.23,0-.03-.07-.03-.13,0,0,0-.07,0-.1.13h0l-.03-.03ZM264.03,48.21c-.17-.13-.27-.2-.27-.23h-.17c-.13.13-.1.2.07.23,0,0,.13,0,.34-.07v.07h.03ZM254.55,69.95c.07-.13.07-.27.03-.37-.1-.2-.27-.27-.5-.2-.3.1-.44.3-.37.6,0,.13.1.23.2.3.13.07.27.03.37-.07l.23-.27h.03ZM265.07,50.42c.03-.27.03-.44,0-.5l-.13.13s.1.13.17.34h-.07l.03.03ZM256.33,71.36c.17-.34.27-.64.27-.9,0-.07-.03-.17-.13-.3-.07-.13-.17-.17-.34-.13-.37.13-.67.37-.87.7-.17.27-.2.57-.07.9.1.3.3.4.6.27.23-.13.4-.34.5-.54h.03ZM257.16,67.7c0,.13,0,.23.13.37.13.2.27.2.47,0s.13-.37-.1-.5c-.13-.1-.23-.1-.37,0l-.13.13h0ZM255.62,81.44h0c0-.13.03-.27.07-.4l-.1.4h.03Z"/>
    </g>
  </g>
</svg>