<?xml version="1.0" encoding="UTF-8"?>
<svg id="Layer_2" data-name="Layer 2" xmlns="http://www.w3.org/2000/svg" viewBox="0 0 456.97 96">
  <g id="Layer_2-2" data-name="Layer 2">
    <g id="Layer_1-2" data-name="Layer 1-2">
      <g>
        <path d="M15.11,54.35c-.69,1.67-1.26,3.22-1.79,4.73-.37,1.02-.77,2.08-1.18,3.14-.12.24-.24.57-.45.98-.2.45-.37.81-.45,1.02-.12.16-.24.45-.37.86-.16.45-.24.73-.33.94.08-.16-.16.45-.77,1.71-.2.49-.49.9-.81,1.18-.12.12-.16.24-.16.45v1.26c.08.81-.12,1.67-.53,2.53h-.04.12c-.16.45-.53.86-1.1,1.14h0s.2.37.2.37c.12.29.16.53.12.69-.08.37-.16.69-.2.98-.53,1.71-.94,3.1-1.14,4.15-.08.41-.24.81-.49,1.3-.45.77-.69,1.14-.65,1.02-.37.77-.9,1.47-1.63,2.08-1.26,1.06-1.79,1.55-1.63,1.38-.2.16-.45.24-.65.33-.16,0-.33,0-.45-.16-.2-.41-.45-.98-.69-1.79,0-.24-.04-.49-.04-.69.12-.98.29-1.75.53-2.32.16-.53.45-1.38.86-2.53.29-.81.45-1.43.53-1.83,0-.24.2-.86.53-1.83.61-1.91,1.06-3.54,1.3-4.85.16-.81.45-1.47.81-1.96,0-.08.04-.16.04-.29s0-.12-.04-.2c-.08-.37-.04-.77.04-1.18.73-2.77,1.18-4.56,1.34-5.34.16-.65.45-1.18.98-1.59.08,0,.12-.08.16-.16,0-.24.04-.41.04-.49-.37-.57-.41-1.18-.16-1.79.08-.81.41-1.63.98-2.44l-.12.12.12-.12c0-.33,0-.65.12-.94.37-.77.61-1.63.81-2.48.16-.61.2-1.1.2-1.47.08-.81.2-1.59.45-2.32.16-.49.37-1.26.65-2.32.29-1.02.53-1.79.69-2.32.12-.45.29-.77.49-1.1.16-.24.2-.49.2-.65,0-.57.16-1.55.45-2.85.57-2.65.94-4.11,1.02-4.44.12-.41.33-1.59.69-3.58.08-.49.2-1.3.45-2.36.16-1.02.33-1.79.45-2.36,0-.08.08-.37.29-.94.08-.2.2-.41.45-.53.37-.2.45-.49.29-.81-.24-.49-.37-.98-.37-1.55s.08-.73.2-1.96c0-.12.08-.45.12-.98,0-.41-.2-.61-.65-.65h-.49c-.37.08-.65.16-.94.29-.65.2-1.51.33-2.61.33s-.49,0-.69-.12c-.45-.12-.9-.24-1.43-.45-.08,0-.2-.12-.45-.2-.16-.12-.33-.16-.45-.16-1.06-.29-2.69-1.18-4.85-2.65-.33-.2-.69-.53-1.1-.94-.61-.65-.77-1.38-.49-2.2.08-.24.16-.49.33-.65.61-.69,1.3-1.22,2.12-1.55,1.75-.81,3.58-1.43,5.46-1.83.53-.16.94-.24,1.14-.33.37-.12.94-.2,1.67-.33.49-.08.81-.16.94-.2.53-.2,1.55-.41,3.1-.61,1.3-.16,2.08-.24,2.36-.33,1.55-.37,3.3-.45,5.25-.2.29,0,.61,0,.98.12.24,0,.57,0,.98-.04.9-.16,1.59-.29,2.12-.33,1.22-.16,2.24-.08,3.1.2,1.1.41,2.32.41,3.58,0,.49-.16.9-.24,1.18-.29,1.1-.12,2.81-.49,5.13-1.14,1.14-.29,2.28-.37,3.34-.29,1.3.16,2.04.24,2.16.29.61.08.86.45.77,1.1-.08.37-.12.53-.12.49-.41,1.51-.9,3.18-1.51,5.05-.12.41-.33.69-.69.94-1.22.81-2.36,1.38-3.46,1.71-.24.12-.61.24-1.02.37-.49.2-.77.33-.98.37-.49.16-.81.29-.94.29-.49.08-1.55.37-3.3.86-1.26.37-3.26.98-5.95,1.87-.41.12-.98.33-1.79.65-.81.29-1.43.49-1.83.65-.08,0-.2,0-.33.12-.12.08-.24.12-.33.16-.53.16-.9.57-1.1,1.18-.08.33-.12.57-.12.69-.12,1.14-.37,3.26-.65,6.27-.24,2.73-.81,5.38-1.67,7.94-.12.37-.24.57-.33.65-.29.41-.49.94-.53,1.55,0,.37-.16.73-.37,1.14-.12.12-.12.29-.12.45,0,.37-.04.94-.29,1.67-.81,2.48-1.22,4.03-1.34,4.6-.08.49-.33.86-.81,1.14-.81.49-1.18.77-1.18.81-.12.12-.12.24-.12.45,0,.16.2.45.49.81.2.33.24.69.12,1.14-.16.57-.41,1.02-.65,1.3h0c-.08.33-.49,1.38-1.18,3.1h0l.04-.08ZM4.2,79.28h-.12c-.16-.16-.24-.29-.16-.29.12.16.16.29.2.33h.04v-.04h.04ZM6.27,67.8c-.16-.16-.29-.16-.45,0v.16c.12.16.24.2.37.04v-.2h.08ZM6.11,73.17l-.16.16s0,.12-.04.2c.08-.16.12-.33.16-.37h.04ZM7.82,69.59c0-.2-.2-.33-.53-.29-.16,0-.29.08-.33.2-.12.24,0,.45.2.53h.2c.33,0,.45-.2.45-.49h0v.04ZM11.65,57.78c-.12.12-.12.24,0,.37.08.16.2.16.37.12.16-.08.24-.16.29-.33,0-.16-.08-.29-.29-.37-.16,0-.29.08-.37.2ZM12.42,9.34c-.12-.12-.24-.2-.45-.2-.16,0-.16.12,0,.2.12.08.24.04.45-.04,0,.57.12,1.02.2,1.34h-.04c0-.12,0-.53-.16-1.3ZM11.98,55.94v.16s.12.04.12.04c.12-.16.08-.24-.12-.2ZM12.1,48.41v.12h.16s-.16-.12-.16-.12h0ZM12.95,44.21c0-.08-.08-.12-.16-.12-.16,0-.29,0-.29.2s.16.33.33.29c.16-.08.2-.2.12-.37h0ZM13.93,40.99c-.12-.12-.29-.12-.37.04-.08.08-.12.2-.16.45,0,.08,0,.12.12.16.12.12.29.12.37,0,0,0,.08-.2.16-.49l-.12-.16ZM14.91,46.17l-.12-.12h.12v.12ZM16.05,39.12c-.08,0-.12.08-.12.16,0,.16,0,.29.2.33.16,0,.24-.12.2-.33,0-.16-.12-.24-.33-.16h.04ZM17.68,43.03c-.2,0-.45.08-.65.12h.04c.08,0,.2.2.45.53v.49c0,.2.12.24.33.04.08-.08.08-.12,0-.16.12.12,0,0-.33-.37,0-.12.08-.37.12-.69h.04s0,.04,0,.04ZM17.76,38.63h.12s-.16,0-.16,0h.04ZM21.02,24.54h-.16c-.16,0-.16-.08,0-.12,0,0,0,.08.04.12.24-.16.29-.16.12,0h0ZM30.75,15.05v.2c.08,0,.12,0,.16-.04v-.16h-.16Z"/>
        <path d="M51.9,49.44c.14.11.29.29.32.54.14.43.14.86.11,1.21-.07.43-.29.75-.68,1.04-.14.07-.39.11-.86.11s-.5.18-.46.54c.07.43-.14.75-.57,1.04-.46.29-1.11.57-1.93.82-.14.07-.93.29-2.43.71l-.18.11c-.36,0-.96.07-1.89.25-.79.14-1.43.21-1.89.25-.32,0-1.86.14-4.61.43-.57.07-1.11.39-1.61.93-.07.11-.11.21-.18.39s-.11.29-.11.43c0,.57-.21,1.32-.57,2.21-.43,1.14-.68,1.82-.75,2-.07.32-.18.71-.39,1.18,0-.11-.25.21-.86.96-.36.43-.43.89-.25,1.39v.18c.18.29.11.54-.11.75-.32.36-.5.64-.54.89,0,.21-.07.36-.11.39-.25.39-.61,1.46-1.04,3.22-.25,1.11.18,2,1.29,2.64.61.39,1.32.64,2.14.75.64.14,1.5.25,2.57.32.82.07,1.68.07,2.5,0,.43,0,1.25-.14,2.5-.29.5-.07.82-.32.89-.82,0-.11.07-.25.11-.43,0,.11,0,0,.04-.39,0-.32.14-.57.39-.75.21-.14.57-.39,1-.75.21-.14.5-.25.82-.25.5,0,.86.14,1.11.46.29.43.57.89.89,1.43.29.46.57,1.04.89,1.64.18.36.29.75.25,1.21,0,.64-.18,1.39-.43,2.29-.14.5-.43.89-.86,1.18-1,.75-2.29,1.32-3.86,1.64-.43.11-.75.14-1.04.11-.43,0-.82.07-1.18.29-.14.07-.36.07-.61.04-.21,0-.79,0-1.71.04-1.82,0-3.25-.07-4.22-.32-1.14-.14-2.64-.46-4.5-1-.93-.29-1.71-.57-2.36-.89-.43-.21-.75-.5-1-.82-.11-.18-.21-.29-.25-.32-.29-.5-.82-1.21-1.68-2.18-1.07-1.21-1.43-2.57-1.04-4.14.68-2.64,1.39-4.82,2.18-6.64.21-.5.64-1.46,1.21-2.89.11-.32.21-.57.29-.82.32-1.36,1.64-5.64,4-12.9.18-.68.54-1.71,1-3.14.46-1.32.82-2.36,1.04-3.14,0,0,.36-1.18.96-3.47h.04-.11c1.57-5.89,2.32-8.68,2.21-8.36,0,0,0-.11.04-.18.11-.61.07-1.14-.18-1.68-.11-.18-.11-.39.04-.57.64-.82.93-1.21.89-1.18,0,.07.11-.54.46-1.79,0,0,.07-.46.18-1.29.07-.39.18-.79.39-1.18.11-.14.25-.32.43-.46.18-.14.36-.29.54-.39.82-.43,2-.86,3.5-1.36.36-.11.68-.07,1.04.11.5.21.89.54,1.18.89.43.61.71,1.14.82,1.68,0,.39.29.57.75.61.43,0,.71.04.86.04h2.93c4.75,0,7.07.04,6.97.04.57,0,1.5.11,2.75.32.39.07,1,.25,1.79.54.14.07.36.18.57.32.96.68,1.25,1.57.86,2.75-.07.21-.21.5-.43.86-.21.39-.36.68-.43.86s-.29.39-.61.61c-.64.43-1.32.75-2.07,1-1,.39-1.89.57-2.64.54-.29,0-.68-.04-1.18-.04s-.96,0-1.14-.04c-.57,0-.93-.04-1.04-.14.07.07-.14-.11-.61-.54-.25-.25-.5-.29-.75-.04-.32.25-.64.29-.93.14-.21-.14-.5-.14-.82.04-.36.18-.68.29-1,.25-1.54-.07-2.61-.18-3.14-.32-.64-.11-1.25-.14-1.89-.11-.29,0-.5.18-.68.46-.11.21-.21.43-.29.57-.64,1.86-1.04,3.07-1.21,3.61-.32,1.11-.64,2.04-1,2.75-.43.96-.71,1.89-.96,2.79-.43,1.79-.64,2.79-.71,3.07-.11.75-.36,1.57-.68,2.46-.11.36-.36,1.21-.75,2.61-.07.14,0,.32.14.46s.32.21.46.18c.32-.07.46-.07.43-.04.46-.11.86-.25,1.18-.32,1.68-.46,3.47-.86,5.36-1.18.64-.11,1.39-.25,2.29-.43.43-.11.79-.39,1-.82.14-.21.25-.54.39-.96.21-.57.71-.93,1.46-1.04.18,0,.39,0,.61.14.39.18.61.54.71,1,0,.07.07.36.11.86,0,.43.07.75.11,1.04,0,.18-.04.39-.14.57.07-.11,0,0-.25.39-.18.07-.32.11-.39.14-.29.07-.5.25-.61.54v.11s-.07.07-.11.11v.18c-.14.18-.07.36.14.54.21.11.43.14.61.04.25-.11.39-.36.43-.68,0,0-.04-.29-.14-1,.21.11.36.18.39.18h0l.07.11ZM27.25,63.48h-.18v.14c.25,0,.29-.04.18-.04v-.11h0ZM28.32,64.94h.14c0,.29.04.43.04.46,0,.07.07.11.14.11.18,0,.29-.04.25-.25,0-.11,0-.14-.11-.14,0,0-.14-.07-.39-.14h-.11v-.04h.04ZM37.5,42.87h.14s-.14-.14-.14-.14v.14h0ZM47.29,51.51q0,.07-.18.04v-.18c.11-.07.11,0,.04.18h.14v-.04ZM48.29,26.22c-.29-.18-.54-.18-.75,0-.14.11-.14.21,0,.32.18.18.43.11.75-.14v-.18ZM47.65,52.51l-.11-.11v.14h.11v-.04ZM49,48.87c-.18,0-.25,0-.18.18,0,.07.11.11.18.11l.11-.14-.11-.14ZM49.68,30.65c.07,0,.11-.11.14-.18,0-.14-.11-.21-.29-.18l-.11.14c0,.18.07.29.25.25v-.04ZM51.15,28.25v-.14s.04.11.04.11h-.04v.04ZM51.33,30.04v.14c.11,0,.14-.04.18-.04v-.14s-.18.04-.18.04ZM54.08,30.33h.04-.04ZM55.51,27.72c-.21.43-.36.68-.39.75,0,0-.04.11-.04.18,0,.11.07.18.11.18.14.07.29,0,.39-.14.14-.32.14-.64-.11-.96h.04v-.04.04ZM60.58,28.76c-.14-.11-.25-.11-.32,0,0,.07,0,.11.04.18.11.07.21.04.32-.04l-.04-.14Z"/>
        <path d="M108.7,49.44c.14.11.29.29.32.54.14.43.14.86.11,1.21-.07.43-.29.75-.68,1.04-.14.07-.39.11-.86.11s-.5.18-.46.54c.07.43-.14.75-.57,1.04-.46.29-1.11.57-1.93.82-.14.07-.93.29-2.43.71l-.18.11c-.36,0-.96.07-1.89.25-.79.14-1.43.21-1.89.25-.32,0-1.86.14-4.61.43-.57.07-1.11.39-1.61.93-.07.11-.11.21-.18.39s-.11.29-.11.43c0,.57-.21,1.32-.57,2.21-.43,1.14-.68,1.82-.75,2-.07.32-.18.71-.39,1.18,0-.11-.25.21-.86.96-.36.43-.43.89-.25,1.39v.18c.18.29.11.54-.11.75-.32.36-.5.64-.54.89,0,.21-.07.36-.11.39-.25.39-.61,1.46-1.04,3.22-.25,1.11.18,2,1.29,2.64.61.39,1.32.64,2.14.75.64.14,1.5.25,2.57.32.82.07,1.68.07,2.5,0,.43,0,1.25-.14,2.5-.29.5-.07.82-.32.89-.82,0-.11.07-.25.11-.43,0,.11,0,0,.04-.39,0-.32.14-.57.39-.75.21-.14.57-.39,1-.75.21-.14.5-.25.82-.25.5,0,.86.14,1.11.46.29.43.57.89.89,1.43.29.46.57,1.04.89,1.64.18.36.29.75.25,1.21,0,.64-.18,1.39-.43,2.29-.14.5-.43.89-.86,1.18-1,.75-2.29,1.32-3.86,1.64-.43.11-.75.14-1.04.11-.43,0-.82.07-1.18.29-.14.07-.36.07-.61.04-.21,0-.79,0-1.71.04-1.82,0-3.25-.07-4.22-.32-1.14-.14-2.64-.46-4.5-1-.93-.29-1.71-.57-2.36-.89-.43-.21-.75-.5-1-.82-.11-.18-.21-.29-.25-.32-.29-.5-.82-1.21-1.68-2.18-1.07-1.21-1.43-2.57-1.04-4.14.68-2.64,1.39-4.82,2.18-6.64.21-.5.64-1.46,1.21-2.89.11-.32.21-.57.29-.82.32-1.36,1.64-5.64,4-12.9.18-.68.54-1.71,1-3.14.46-1.32.82-2.36,1.04-3.14,0,0,.36-1.18.96-3.47h.04-.11c1.57-5.89,2.32-8.68,2.21-8.36,0,0,0-.11.04-.18.11-.61.07-1.14-.18-1.68-.11-.18-.11-.39.04-.57.64-.82.93-1.21.89-1.18,0,.07.11-.54.46-1.79,0,0,.07-.46.18-1.29.07-.39.18-.79.39-1.18.11-.14.25-.32.43-.46.18-.14.36-.29.54-.39.82-.43,2-.86,3.5-1.36.36-.11.68-.07,1.04.11.5.21.89.54,1.18.89.43.61.71,1.14.82,1.68,0,.39.29.57.75.61.43,0,.71.04.86.04h2.93c4.75,0,7.07.04,6.97.04.57,0,1.5.11,2.75.32.39.07,1,.25,1.79.54.14.07.36.18.57.32.96.68,1.25,1.57.86,2.75-.07.21-.21.5-.43.86-.21.39-.36.68-.43.86s-.29.39-.61.61c-.64.43-1.32.75-2.07,1-1,.39-1.89.57-2.64.54-.29,0-.68-.04-1.18-.04s-.96,0-1.14-.04c-.57,0-.93-.04-1.04-.14.07.07-.14-.11-.61-.54-.25-.25-.5-.29-.75-.04-.32.25-.64.29-.93.14-.21-.14-.5-.14-.82.04-.36.18-.68.29-1,.25-1.54-.07-2.61-.18-3.14-.32-.64-.11-1.25-.14-1.89-.11-.29,0-.5.18-.68.46-.11.21-.21.43-.29.57-.64,1.86-1.04,3.07-1.21,3.61-.32,1.11-.64,2.04-1,2.75-.43.96-.71,1.89-.96,2.79-.43,1.79-.64,2.79-.71,3.07-.11.75-.36,1.57-.68,2.46-.11.36-.36,1.21-.75,2.61-.07.14,0,.32.14.46s.32.21.46.18c.32-.07.46-.07.43-.04.46-.11.86-.25,1.18-.32,1.68-.46,3.47-.86,5.36-1.18.64-.11,1.39-.25,2.29-.43.43-.11.79-.39,1-.82.14-.21.25-.54.39-.96.21-.57.71-.93,1.46-1.04.18,0,.39,0,.61.14.39.18.61.54.71,1,0,.07.07.36.11.86,0,.43.07.75.11,1.04,0,.18-.04.39-.14.57.07-.11,0,0-.25.39-.18.07-.32.11-.39.14-.29.07-.5.25-.61.54v.11s-.07.07-.11.11v.18c-.14.18-.07.36.14.54.21.11.43.14.61.04.25-.11.39-.36.43-.68,0,0-.04-.29-.14-1,.21.11.36.18.39.18h0l.07.11ZM84.05,63.48h-.18v.14c.25,0,.29-.04.18-.04v-.11h0ZM85.12,64.94h.14c0,.29.04.43.04.46,0,.07.07.11.14.11.18,0,.29-.04.25-.25,0-.11,0-.14-.11-.14,0,0-.14-.07-.39-.14h-.11v-.04h.04ZM94.3,42.87h.14s-.14-.14-.14-.14v.14h0ZM104.09,51.51q0,.07-.18.04v-.18c.11-.07.11,0,.04.18h.14v-.04ZM105.09,26.22c-.29-.18-.54-.18-.75,0-.14.11-.14.21,0,.32.18.18.43.11.75-.14v-.18ZM104.44,52.51l-.11-.11v.14h.11v-.04ZM105.8,48.87c-.18,0-.25,0-.18.18,0,.07.11.11.18.11l.11-.14-.11-.14ZM106.48,30.65c.07,0,.11-.11.14-.18,0-.14-.11-.21-.29-.18l-.11.14c0,.18.07.29.25.25v-.04ZM107.95,28.25v-.14s.04.11.04.11h-.04v.04ZM108.12,30.04v.14c.11,0,.14-.04.18-.04v-.14s-.18.04-.18.04ZM110.88,30.33h.04-.04ZM112.3,27.72c-.21.43-.36.68-.39.75,0,0-.04.11-.04.18,0,.11.07.18.11.18.14.07.29,0,.39-.14.14-.32.14-.64-.11-.96h.04v-.04.04ZM117.38,28.76c-.14-.11-.25-.11-.32,0,0,.07,0,.11.04.18.11.07.21.04.32-.04l-.04-.14Z"/>
        <path d="M371.67,44.58c.14.11.29.29.32.54.14.43.14.86.11,1.21-.07.43-.29.75-.68,1.04-.14.07-.39.11-.86.11s-.5.18-.46.54c.07.43-.14.75-.57,1.04-.46.29-1.11.57-1.93.82-.14.07-.93.29-2.43.71l-.18.11c-.36,0-.96.07-1.89.25-.79.14-1.43.21-1.89.25-.32,0-1.86.14-4.61.43-.57.07-1.11.39-1.61.93-.07.11-.11.21-.18.39s-.11.29-.11.43c0,.57-.21,1.32-.57,2.21-.43,1.14-.68,1.82-.75,2-.07.32-.18.71-.39,1.18,0-.11-.25.21-.86.96-.36.43-.43.89-.25,1.39v.18c.18.29.11.54-.11.75-.32.36-.5.64-.54.89,0,.21-.07.36-.11.39-.25.39-.61,1.46-1.04,3.22-.25,1.11.18,2,1.29,2.64.61.39,1.32.64,2.14.75.64.14,1.5.25,2.57.32.82.07,1.68.07,2.5,0,.43,0,1.25-.14,2.5-.29.5-.07.82-.32.89-.82,0-.11.07-.25.11-.43,0,.11,0,0,.04-.39,0-.32.14-.57.39-.75.21-.14.57-.39,1-.75.21-.14.5-.25.82-.25.5,0,.86.14,1.11.46.29.43.57.89.89,1.43.29.46.57,1.04.89,1.64.18.36.29.75.25,1.21,0,.64-.18,1.39-.43,2.29-.14.5-.43.89-.86,1.18-1,.75-2.29,1.32-3.86,1.64-.43.11-.75.14-1.04.11-.43,0-.82.07-1.18.29-.14.07-.36.07-.61.04-.21,0-.79,0-1.71.04-1.82,0-3.25-.07-4.22-.32-1.14-.14-2.64-.46-4.5-1-.93-.29-1.71-.57-2.36-.89-.43-.21-.75-.5-1-.82-.11-.18-.21-.29-.25-.32-.29-.5-.82-1.21-1.68-2.18-1.07-1.21-1.43-2.57-1.04-4.14.68-2.64,1.39-4.82,2.18-6.64.21-.5.64-1.46,1.21-2.89.11-.32.21-.57.29-.82.32-1.36,1.64-5.64,4-12.9.18-.68.54-1.71,1-3.14.46-1.32.82-2.36,1.04-3.14,0,0,.36-1.18.96-3.47h.04-.11c1.57-5.89,2.32-8.68,2.21-8.36,0,0,0-.11.04-.18.11-.61.07-1.14-.18-1.68-.11-.18-.11-.39.04-.57.64-.82.93-1.21.89-1.18,0,.07.11-.54.46-1.79,0,0,.07-.46.18-1.29.07-.39.18-.79.39-1.18.11-.14.25-.32.43-.46.18-.14.36-.29.54-.39.82-.43,2-.86,3.5-1.36.36-.11.68-.07,1.04.11.5.21.89.54,1.18.89.43.61.71,1.14.82,1.68,0,.39.29.57.75.61.43,0,.71.04.86.04h2.93c4.75,0,7.07.04,6.97.04.57,0,1.5.11,2.75.32.39.07,1,.25,1.79.54.14.07.36.18.57.32.96.68,1.25,1.57.86,2.75-.07.21-.21.5-.43.86-.21.39-.36.68-.43.86s-.29.39-.61.61c-.64.43-1.32.75-2.07,1-1,.39-1.89.57-2.64.54-.29,0-.68-.04-1.18-.04s-.96,0-1.14-.04c-.57,0-.93-.04-1.04-.14.07.07-.14-.11-.61-.54-.25-.25-.5-.29-.75-.04-.32.25-.64.29-.93.14-.21-.14-.5-.14-.82.04-.36.18-.68.29-1,.25-1.54-.07-2.61-.18-3.14-.32-.64-.11-1.25-.14-1.89-.11-.29,0-.5.18-.68.46-.11.21-.21.43-.29.57-.64,1.86-1.04,3.07-1.21,3.61-.32,1.11-.64,2.04-1,2.75-.43.96-.71,1.89-.96,2.79-.43,1.79-.64,2.79-.71,3.07-.11.75-.36,1.57-.68,2.46-.11.36-.36,1.21-.75,2.61-.07.14,0,.32.14.46s.32.21.46.18c.32-.07.46-.07.43-.04.46-.11.86-.25,1.18-.32,1.68-.46,3.47-.86,5.36-1.18.64-.11,1.39-.25,2.29-.43.43-.11.79-.39,1-.82.14-.21.25-.54.39-.96.21-.57.71-.93,1.46-1.04.18,0,.39,0,.61.14.39.18.61.54.71,1,0,.07.07.36.11.86,0,.43.07.75.11,1.04,0,.18-.04.39-.14.57.07-.11,0,0-.25.39-.18.07-.32.11-.39.14-.29.07-.5.25-.61.54v.11s-.07.07-.11.11v.18c-.14.18-.07.36.14.54.21.11.43.14.61.04.25-.11.39-.36.43-.68,0,0-.04-.29-.14-1,.21.11.36.18.39.18h0l.07.11ZM347.02,58.62h-.18v.14c.25,0,.29-.04.18-.04v-.11h0ZM348.09,60.09h.14c0,.29.04.43.04.46,0,.07.07.11.14.11.18,0,.29-.04.25-.25,0-.11,0-.14-.11-.14,0,0-.14-.07-.39-.14h-.11v-.04h.04ZM357.27,38.01h.14s-.14-.14-.14-.14v.14h0ZM367.06,46.65q0,.07-.18.04v-.18c.11-.07.11,0,.04.18h.14v-.04ZM368.06,21.36c-.29-.18-.54-.18-.75,0-.14.11-.14.21,0,.32.18.18.43.11.75-.14v-.18ZM367.42,47.65l-.11-.11v.14h.11v-.04ZM368.77,44.01c-.18,0-.25,0-.18.18,0,.07.11.11.18.11l.11-.14-.11-.14ZM369.45,25.79c.07,0,.11-.11.14-.18,0-.14-.11-.21-.29-.18l-.11.14c0,.18.07.29.25.25v-.04ZM370.92,23.4v-.14s.04.11.04.11h-.04v.04ZM371.1,25.18v.14c.11,0,.14-.04.18-.04v-.14s-.18.04-.18.04ZM373.85,25.47h.04-.04ZM375.28,22.86c-.21.43-.36.68-.39.75,0,0-.04.11-.04.18,0,.11.07.18.11.18.14.07.29,0,.39-.14.14-.32.14-.64-.11-.96h.04v-.04.04ZM380.35,23.9c-.14-.11-.25-.11-.32,0,0,.07,0,.11.04.18.11.07.21.04.32-.04l-.04-.14Z"/>
        <path d="M180.12,49.44c.14.11.29.29.32.54.14.43.14.86.11,1.21-.07.43-.29.75-.68,1.04-.14.07-.39.11-.86.11s-.5.18-.46.54c.07.43-.14.75-.57,1.04-.46.29-1.11.57-1.93.82-.14.07-.93.29-2.43.71l-.18.11c-.36,0-.96.07-1.89.25-.79.14-1.43.21-1.89.25-.32,0-1.86.14-4.61.43-.57.07-1.11.39-1.61.93-.07.11-.11.21-.18.39s-.11.29-.11.43c0,.57-.21,1.32-.57,2.21-.43,1.14-.68,1.82-.75,2-.07.32-.18.71-.39,1.18,0-.11-.25.21-.86.96-.36.43-.43.89-.25,1.39v.18c.18.29.11.54-.11.75-.32.36-.5.64-.54.89,0,.21-.07.36-.11.39-.25.39-.61,1.46-1.04,3.22-.25,1.11.18,2,1.29,2.64.61.39,1.32.64,2.14.75.64.14,1.5.25,2.57.32.82.07,1.68.07,2.5,0,.43,0,1.25-.14,2.5-.29.5-.07.82-.32.89-.82,0-.11.07-.25.11-.43,0,.11,0,0,.04-.39,0-.32.14-.57.39-.75.21-.14.57-.39,1-.75.21-.14.5-.25.82-.25.5,0,.86.14,1.11.46.29.43.57.89.89,1.43.29.46.57,1.04.89,1.64.18.36.29.75.25,1.21,0,.64-.18,1.39-.43,2.29-.14.5-.43.89-.86,1.18-1,.75-2.29,1.32-3.86,1.64-.43.11-.75.14-1.04.11-.43,0-.82.07-1.18.29-.14.07-.36.07-.61.04-.21,0-.79,0-1.71.04-1.82,0-3.25-.07-4.22-.32-1.14-.14-2.64-.46-4.5-1-.93-.29-1.71-.57-2.36-.89-.43-.21-.75-.5-1-.82-.11-.18-.21-.29-.25-.32-.29-.5-.82-1.21-1.68-2.18-1.07-1.21-1.43-2.57-1.04-4.14.68-2.64,1.39-4.82,2.18-6.64.21-.5.64-1.46,1.21-2.89.11-.32.21-.57.29-.82.32-1.36,1.64-5.64,4-12.9.18-.68.54-1.71,1-3.14.46-1.32.82-2.36,1.04-3.14,0,0,.36-1.18.96-3.47h.04-.11c1.57-5.89,2.32-8.68,2.21-8.36,0,0,0-.11.04-.18.11-.61.07-1.14-.18-1.68-.11-.18-.11-.39.04-.57.64-.82.93-1.21.89-1.18,0,.07.11-.54.46-1.79,0,0,.07-.46.18-1.29.07-.39.18-.79.39-1.18.11-.14.25-.32.43-.46.18-.14.36-.29.54-.39.82-.43,2-.86,3.5-1.36.36-.11.68-.07,1.04.11.5.21.89.54,1.18.89.43.61.71,1.14.82,1.68,0,.39.29.57.75.61.43,0,.71.04.86.04h2.93c4.75,0,7.07.04,6.97.04.57,0,1.5.11,2.75.32.39.07,1,.25,1.79.54.14.07.36.18.57.32.96.68,1.25,1.57.86,2.75-.07.21-.21.5-.43.86-.21.39-.36.68-.43.86s-.29.39-.61.61c-.64.43-1.32.75-2.07,1-1,.39-1.89.57-2.64.54-.29,0-.68-.04-1.18-.04s-.96,0-1.14-.04c-.57,0-.93-.04-1.04-.14.07.07-.14-.11-.61-.54-.25-.25-.5-.29-.75-.04-.32.25-.64.29-.93.14-.21-.14-.5-.14-.82.04-.36.18-.68.29-1,.25-1.54-.07-2.61-.18-3.14-.32-.64-.11-1.25-.14-1.89-.11-.29,0-.5.18-.68.46-.11.21-.21.43-.29.57-.64,1.86-1.04,3.07-1.21,3.61-.32,1.11-.64,2.04-1,2.75-.43.96-.71,1.89-.96,2.79-.43,1.79-.64,2.79-.71,3.07-.11.75-.36,1.57-.68,2.46-.11.36-.36,1.21-.75,2.61-.07.14,0,.32.14.46s.32.21.46.18c.32-.07.46-.07.43-.04.46-.11.86-.25,1.18-.32,1.68-.46,3.47-.86,5.36-1.18.64-.11,1.39-.25,2.29-.43.43-.11.79-.39,1-.82.14-.21.25-.54.39-.96.21-.57.71-.93,1.46-1.04.18,0,.39,0,.61.14.39.18.61.54.71,1,0,.07.07.36.11.86,0,.43.07.75.11,1.04,0,.18-.04.39-.14.57.07-.11,0,0-.25.39-.18.07-.32.11-.39.14-.29.07-.5.25-.61.54v.11s-.07.07-.11.11v.18c-.14.18-.07.36.14.54.21.11.43.14.61.04.25-.11.39-.36.43-.68,0,0-.04-.29-.14-1,.21.11.36.18.39.18h0l.07.11ZM155.47,63.48h-.18v.14c.25,0,.29-.04.18-.04v-.11h0ZM156.54,64.94h.14c0,.29.04.43.04.46,0,.07.07.11.14.11.18,0,.29-.04.25-.25,0-.11,0-.14-.11-.14,0,0-.14-.07-.39-.14h-.11v-.04h.04ZM165.72,42.87h.14s-.14-.14-.14-.14v.14h0ZM175.51,51.51q0,.07-.18.04v-.18c.11-.07.11,0,.04.18h.14v-.04ZM176.51,26.22c-.29-.18-.54-.18-.75,0-.14.11-.14.21,0,.32.18.18.43.11.75-.14v-.18ZM175.87,52.51l-.11-.11v.14h.11v-.04ZM177.23,48.87c-.18,0-.25,0-.18.18,0,.07.11.11.18.11l.11-.14-.11-.14ZM177.91,30.65c.07,0,.11-.11.14-.18,0-.14-.11-.21-.29-.18l-.11.14c0,.18.07.29.25.25v-.04ZM179.37,28.25v-.14s.04.11.04.11h-.04v.04ZM179.55,30.04v.14c.11,0,.14-.04.18-.04v-.14s-.18.04-.18.04ZM182.3,30.33h.04-.04ZM183.73,27.72c-.21.43-.36.68-.39.75,0,0-.04.11-.04.18,0,.11.07.18.11.18.14.07.29,0,.39-.14.14-.32.14-.64-.11-.96h.04v-.04.04ZM188.8,28.76c-.14-.11-.25-.11-.32,0,0,.07,0,.11.04.18.11.07.21.04.32-.04l-.04-.14Z"/>
        <path d="M72.02,52.01c-.59,1.43-1.08,2.76-1.54,4.05-.31.87-.66,1.78-1.01,2.69-.1.21-.21.49-.38.84-.17.38-.31.7-.38.87-.1.14-.21.38-.31.73-.14.38-.21.63-.28.8.07-.14-.14.38-.66,1.47-.17.42-.42.77-.7,1.01-.1.1-.14.21-.14.38v1.08c.07.7-.1,1.43-.45,2.17h-.03.1c-.14.38-.45.73-.94.98h0s.17.31.17.31c.1.24.14.45.1.59-.07.31-.14.59-.17.84-.45,1.47-.8,2.66-.98,3.57-.07.35-.21.7-.42,1.12-.38.66-.59.98-.56.87-.31.66-.77,1.26-1.4,1.78-1.08.91-1.54,1.33-1.4,1.19-.17.14-.38.21-.56.28-.14,0-.28,0-.38-.14-.17-.35-.38-.84-.59-1.54,0-.21-.03-.42-.03-.59.1-.84.24-1.5.45-1.99.14-.45.38-1.19.73-2.17.24-.7.38-1.22.45-1.57,0-.21.17-.73.45-1.57.52-1.64.91-3.04,1.12-4.16.14-.7.38-1.26.7-1.68,0-.07.03-.14.03-.24s0-.1-.03-.17c-.07-.31-.03-.66.03-1.01.63-2.38,1.01-3.91,1.15-4.58.14-.56.38-1.01.84-1.36.07,0,.1-.07.14-.14,0-.21.03-.35.03-.42-.31-.49-.35-1.01-.14-1.54.07-.7.35-1.4.84-2.1l-.1.1.1-.1c0-.28,0-.56.1-.8.31-.66.56-1.4.7-2.13.14-.52.17-.94.17-1.26.07-.7.17-1.36.38-1.99.14-.42.31-1.08.56-1.99.24-.87.45-1.54.59-1.99.1-.38.24-.66.42-.94.14-.21.17-.42.17-.56,0-.49.14-1.33.38-2.45.49-2.27.8-3.53.87-3.81.1-.35.28-1.36.59-3.08.07-.42.17-1.12.38-2.03.14-.87.28-1.54.38-2.03,0-.07.07-.31.24-.8.07-.17.17-.35.38-.45.31-.17.38-.42.24-.7-.21-.42-.31-.84-.31-1.33s.07-.63.17-1.68c0-.1.07-.38.1-.84,0-.35-.17-.52-.56-.56h-.42c-.31.07-.56.14-.8.24-.56.17-1.29.28-2.24.28s-.42,0-.59-.1c-.38-.1-.77-.21-1.19-.38-.07,0-.17-.1-.38-.17-.14-.1-.28-.14-.38-.14-.91-.24-2.31-1.01-4.16-2.27-.28-.17-.59-.45-.91-.8-.52-.56-.66-1.19-.42-1.89.07-.21.14-.42.28-.56.52-.59,1.12-1.05,1.82-1.33,1.5-.7,3.08-1.22,4.68-1.57.45-.14.8-.21.98-.28.31-.1.8-.17,1.43-.28.42-.07.7-.14.8-.17.45-.17,1.36-.35,2.66-.52,1.12-.14,1.78-.21,2.03-.28,1.33-.31,2.83-.38,4.51-.17.24,0,.52,0,.84.1.21,0,.49,0,.84-.03.77-.14,1.36-.24,1.82-.28,1.05-.14,1.92-.07,2.66.17.94.35,1.99.35,3.08,0,.42-.14.77-.21,1.01-.24.91-.1,2.41-.42,4.4-.98.98-.24,1.96-.31,2.87-.24,1.12.14,1.75.21,1.85.24.52.07.73.38.66.94-.07.31-.1.45-.1.42-.35,1.29-.77,2.73-1.29,4.33-.1.35-.28.59-.59.8-1.05.7-2.03,1.19-2.97,1.47-.21.1-.52.21-.87.31-.38.17-.7.28-.84.31-.42.14-.7.24-.8.24-.38.07-1.36.31-2.83.73-1.08.31-2.8.84-5.1,1.61-.35.1-.84.28-1.54.56-.7.24-1.22.42-1.57.56-.07,0-.14,0-.28.1-.14.07-.21.1-.28.14-.45.14-.77.49-.91,1.01-.07.28-.1.49-.1.59-.14.98-.31,2.8-.56,5.38-.21,2.34-.7,4.61-1.43,6.82-.14.31-.21.49-.28.56-.24.35-.38.8-.45,1.33,0,.31-.14.63-.31.98-.1.1-.14.24-.1.38,0,.31-.03.8-.24,1.43-.66,2.13-1.08,3.46-1.15,3.95-.07.42-.28.73-.7.98-.66.42-1.01.66-1.01.7-.1.1-.14.21-.1.38,0,.14.17.38.42.7.17.28.21.59.1.98-.14.49-.35.87-.56,1.12h0c-.07.28-.38,1.19-1.01,2.66h0l-.07-.07ZM62.65,73.4h-.1c-.14-.14-.21-.24-.14-.24.1.14.14.24.17.28h.03v-.03h.03ZM64.4,63.54c-.14-.14-.24-.14-.38,0v.14c.1.14.21.17.31.03v-.17h.07ZM64.26,68.16l-.14.14s0,.1-.03.17c.07-.14.1-.28.14-.31h.03ZM65.77,65.08c0-.17-.17-.28-.45-.24-.14,0-.24.07-.28.17-.1.21,0,.38.17.45h.17c.28,0,.38-.17.38-.42h0v.03ZM69.05,54.95c-.1.1-.1.21,0,.31.07.14.17.14.31.1.14-.07.21-.14.24-.28,0-.14-.07-.24-.24-.31-.14,0-.24.07-.31.17ZM69.72,13.39c-.1-.1-.21-.17-.38-.17-.14,0-.14.1,0,.17.1.07.21.03.38-.03,0,.49.1.87.17,1.15h-.03c0-.1,0-.45-.14-1.12ZM69.33,53.37v.14s.1.03.1.03c.1-.14.07-.21-.1-.17h0ZM69.44,46.91v.1h.14s-.14-.1-.14-.1h0ZM70.17,43.31c0-.07-.07-.1-.14-.1-.14,0-.24,0-.24.17s.14.28.28.24c.14-.07.17-.17.1-.31h0ZM71.01,40.55c-.14-.1-.24-.1-.31.03-.07.07-.1.17-.14.38,0,.07,0,.1.1.14.14.1.24.1.31,0,0,0,.07-.17.14-.42l-.1-.14ZM71.85,44.99l-.1-.1h.1v.1ZM72.83,38.94c-.07,0-.1.07-.1.14,0,.14,0,.24.17.28.14,0,.21-.1.17-.28,0-.14-.14-.21-.28-.14h.03ZM74.19,42.29c-.17,0-.38.07-.56.1h.03c.07,0,.17.17.38.45v.42c0,.17.14.21.28.03.07-.07.07-.1,0-.14.14.1,0,0-.28-.31,0-.1.07-.31.1-.59h.03v.03h0ZM74.29,38.52h.1s-.14,0-.14,0h.03,0ZM77.09,26.43h-.14c-.14,0-.14-.07,0-.1,0,0,0,.07.03.1.21-.14.24-.14.1,0h0ZM85.44,18.28v.17c.07,0,.1,0,.14-.03v-.14h-.14Z"/>
        <path d="M329.15,49.96c-.59,1.43-1.08,2.76-1.54,4.05-.31.87-.66,1.78-1.01,2.69-.1.21-.21.49-.38.84-.17.38-.31.7-.38.87-.1.14-.21.38-.31.73-.14.38-.21.63-.28.8.07-.14-.14.38-.66,1.47-.17.42-.42.77-.7,1.01-.1.1-.14.21-.14.38v1.08c.07.7-.1,1.43-.45,2.17h-.03.1c-.14.38-.45.73-.94.98h0s.17.31.17.31c.1.24.14.45.1.59-.07.31-.14.59-.17.84-.45,1.47-.8,2.66-.98,3.57-.07.35-.21.7-.42,1.12-.38.66-.59.98-.56.87-.31.66-.77,1.26-1.4,1.78-1.08.91-1.54,1.33-1.4,1.19-.17.14-.38.21-.56.28-.14,0-.28,0-.38-.14-.17-.35-.38-.84-.59-1.54,0-.21-.03-.42-.03-.59.1-.84.24-1.5.45-1.99.14-.45.38-1.19.73-2.17.24-.7.38-1.22.45-1.57,0-.21.17-.73.45-1.57.52-1.64.91-3.04,1.12-4.16.14-.7.38-1.26.7-1.68,0-.07.03-.14.03-.24s0-.1-.03-.17c-.07-.31-.03-.66.03-1.01.63-2.38,1.01-3.91,1.15-4.58.14-.56.38-1.01.84-1.36.07,0,.1-.07.14-.14,0-.21.03-.35.03-.42-.31-.49-.35-1.01-.14-1.54.07-.7.35-1.4.84-2.1l-.1.1.1-.1c0-.28,0-.56.1-.8.31-.66.56-1.4.7-2.13.14-.52.17-.94.17-1.26.07-.7.17-1.36.38-1.99.14-.42.31-1.08.56-1.99.24-.87.45-1.54.59-1.99.1-.38.24-.66.42-.94.14-.21.17-.42.17-.56,0-.49.14-1.33.38-2.45.49-2.27.8-3.53.87-3.81.1-.35.28-1.36.59-3.08.07-.42.17-1.12.38-2.03.14-.87.28-1.54.38-2.03,0-.07.07-.31.24-.8.07-.17.17-.35.38-.45.31-.17.38-.42.24-.7-.21-.42-.31-.84-.31-1.33s.07-.63.17-1.68c0-.1.07-.38.1-.84,0-.35-.17-.52-.56-.56h-.42c-.31.07-.56.14-.8.24-.56.17-1.29.28-2.24.28s-.42,0-.59-.1c-.38-.1-.77-.21-1.19-.38-.07,0-.17-.1-.38-.17-.14-.1-.28-.14-.38-.14-.91-.24-2.31-1.01-4.16-2.27-.28-.17-.59-.45-.91-.8-.52-.56-.66-1.19-.42-1.89.07-.21.14-.42.28-.56.52-.59,1.12-1.05,1.82-1.33,1.5-.7,3.08-1.22,4.68-1.57.45-.14.8-.21.98-.28.31-.1.8-.17,1.43-.28.42-.07.7-.14.8-.17.45-.17,1.36-.35,2.66-.52,1.12-.14,1.78-.21,2.03-.28,1.33-.31,2.83-.38,4.51-.17.24,0,.52,0,.84.1.21,0,.49,0,.84-.03.77-.14,1.36-.24,1.82-.28,1.05-.14,1.92-.07,2.66.17.94.35,1.99.35,3.08,0,.42-.14.77-.21,1.01-.24.91-.1,2.41-.42,4.4-.98.98-.24,1.96-.31,2.87-.24,1.12.14,1.75.21,1.85.24.52.07.73.38.66.94-.07.31-.1.45-.1.42-.35,1.29-.77,2.73-1.29,4.33-.1.35-.28.59-.59.8-1.05.7-2.03,1.19-2.97,1.47-.21.1-.52.21-.87.31-.38.17-.7.28-.84.31-.42.14-.7.24-.8.24-.38.07-1.36.31-2.83.73-1.08.31-2.8.84-5.1,1.61-.35.1-.84.28-1.54.56-.7.24-1.22.42-1.57.56-.07,0-.14,0-.28.1-.14.07-.21.1-.28.14-.45.14-.77.49-.91,1.01-.07.28-.1.49-.1.59-.14.98-.31,2.8-.56,5.38-.21,2.34-.7,4.61-1.43,6.82-.14.31-.21.49-.28.56-.24.35-.38.8-.45,1.33,0,.31-.14.63-.31.98-.1.1-.14.24-.1.38,0,.31-.03.8-.24,1.43-.66,2.13-1.08,3.46-1.15,3.95-.07.42-.28.73-.7.98-.66.42-1.01.66-1.01.7-.1.1-.14.21-.1.38,0,.14.17.38.42.7.17.28.21.59.1.98-.14.49-.35.87-.56,1.12h0c-.07.28-.38,1.19-1.01,2.66h0l-.07-.07ZM319.78,71.35h-.1c-.14-.14-.21-.24-.14-.24.1.14.14.24.17.28h.03v-.03h.03ZM321.53,61.49c-.14-.14-.24-.14-.38,0v.14c.1.14.21.17.31.03v-.17h.07ZM321.39,66.11l-.14.14s0,.1-.03.17c.07-.14.1-.28.14-.31h.03ZM322.89,63.03c0-.17-.17-.28-.45-.24-.14,0-.24.07-.28.17-.1.21,0,.38.17.45h.17c.28,0,.38-.17.38-.42h0v.03ZM326.18,52.9c-.1.1-.1.21,0,.31.07.14.17.14.31.1.14-.07.21-.14.24-.28,0-.14-.07-.24-.24-.31-.14,0-.24.07-.31.17ZM326.84,11.34c-.1-.1-.21-.17-.38-.17-.14,0-.14.1,0,.17.1.07.21.03.38-.03,0,.49.1.87.17,1.15h-.03c0-.1,0-.45-.14-1.12ZM326.46,51.32v.14s.1.03.1.03c.1-.14.07-.21-.1-.17h0ZM326.56,44.86v.1h.14s-.14-.1-.14-.1h0ZM327.29,41.26c0-.07-.07-.1-.14-.1-.14,0-.24,0-.24.17s.14.28.28.24c.14-.07.17-.17.1-.31h0ZM328.13,38.49c-.14-.1-.24-.1-.31.03-.07.07-.1.17-.14.38,0,.07,0,.1.1.14.14.1.24.1.31,0,0,0,.07-.17.14-.42l-.1-.14ZM328.97,42.93l-.1-.1h.1v.1ZM329.95,36.89c-.07,0-.1.07-.1.14,0,.14,0,.24.17.28.14,0,.21-.1.17-.28,0-.14-.14-.21-.28-.14h.03ZM331.31,40.24c-.17,0-.38.07-.56.1h.03c.07,0,.17.17.38.45v.42c0,.17.14.21.28.03.07-.07.07-.1,0-.14.14.1,0,0-.28-.31,0-.1.07-.31.1-.59h.03v.03h0ZM331.42,36.47h.1s-.14,0-.14,0h.03,0ZM334.21,24.37h-.14c-.14,0-.14-.07,0-.1,0,0,0,.07.03.1.21-.14.24-.14.1,0h0ZM342.57,16.23v.17c.07,0,.1,0,.14-.03v-.14h-.14Z"/>
        <path d="M138.15,71.02c-.2-.24-.33-.53-.37-.81,0,0,0-.29-.12-.69h.16c.08-.08.08-.12.04-.16-.16-.08-.2,0-.2.2h-.49c-.37-.04-.61.12-.77.45l-.2.45h.04c-.41.2-.61.49-.65.81,0,.12,0,.41-.12.86h-1.02c.2-.57.16-1.14-.12-1.71l.33-.65c.2-.41.12-.61-.33-.61-.33,0-.57.08-.69.12-.2,0-.29.16-.16.37.12.24.41.49.94.69-.16.61-.12,1.22.04,1.83.33-.16.65-.2,1.02-.04.45.16.73.53.86,1.14,0,.2,0,.45-.16.65h.04c-.2.2-.41.41-.65.61-.2.16-.45.24-.65.16,0,0-.24-.08-.65-.29h-.04s0-.53,0-.53h.04c.08-.2.12-.33.16-.33,0-.2,0-.33-.2-.33s-.2,0-.2.12c0,0-.12.24-.29.61h0c-.41,0-.9.16-1.47.53-.24.16-.33.33-.2.61,0,.2.2.33.49.37h.69-.04c.2.41.29.61.29.65.08.16.08.33,0,.45-.41.77-.9,1.38-1.47,1.87-.77.65-1.79,1.38-3.1,2.28,0-.16-.12-.29-.29-.29s-.12.04-.04.16c.08.12.2.12.37.04l-.98.69c-1.71,1.14-3.63,1.83-5.83,2.04-1.06.08-2.12-.2-3.18-.81-.12,0-.24-.12-.45-.2-.2-.16-.33-.24-.37-.29-.2-.12-.45-.16-.69-.2-.69-.08-1.02-.08-.98-.04-1.1-.61-1.59-.86-1.47-.77-.2-.16-.33-.29-.37-.33-.81-.86-1.47-1.75-2.04-2.65-.33-.45-.45-.98-.37-1.59.16-.98.45-1.83.86-2.53s.65-1.22.65-1.47c.41-.65.73-1.63,1.02-2.97.12-.37.33-1.02.69-2,1.34-3.67,2.32-6.56,2.93-8.64,0-.08.16-.61.53-1.63.24-.77.57-1.3.98-1.63.16-.12.2-.24.2-.37,0-.41.04-.77.29-1.18.33-.65.53-1.38.61-2.28,0-.24.08-.65.16-1.18.08-.57.2-1.06.37-1.38.37-.61.61-1.26.69-2,.08-.37.24-.81.53-1.34.24-.45.49-.86.69-1.3.16-.29.2-.49.2-.65,0-.45.33-1.34.86-2.77-.08.12-.04.29.04.45s.2.2.37.12c0,0,.08,0,.16-.12.12-.16.08-.33-.12-.45h-.45c.45-2.08.73-3.26.81-3.58.12-.49.16-.77.12-.98-.12-.49-.04-1.18.16-2.12.16-.9.49-2.36.94-4.44.45-1.96.77-3.42,1.02-4.48,1.06-4.52,1.71-7.29,1.96-8.39.45-1.67.94-3.18,1.47-4.6.08-.2.2-.49.45-.81.12-.16.24-.29.37-.33.61-.12,1.3-.2,2.12-.33.12,0,.29,0,.49.04.29.08.49.12.65.2.12,0,.24.12.45.2.2.12.37.2.45.2,1.55.77,2.93,1.1,4.15.98h.49c1.26,0,2.4.24,3.42.86,1.71,1.1,2.73,1.71,3.1,1.91.69.37,1.34.94,2,1.67.57.65.94,1.26,1.1,1.83.12.37.2.61.2.69.41.81.61,1.96.65,3.5,0,.86-.2,1.79-.65,2.77-.37.69-.65,1.18-.86,1.47.2-.24-.2.45-1.18,2.04h-.12s.16-.04.16-.04c-.29.49-.98,1.38-2.04,2.69-.2.24-.57.73-1.14,1.38-.45.57-.86,1.02-1.14,1.34-.49.57-.98,1.1-1.51,1.55-1.43,1.14-2.48,1.87-3.14,2.2,0,0-.16.12-.61.45-.24.2-.24.45,0,.65.33.29.49.45.53.49.81.53,1.67,1.26,2.61,2.16.77.69,1.3,1.14,1.63,1.38.69.57,1.22,1.26,1.67,2.04.08.12.24.49.53,1.02.24.45.45.77.61,1.1.45.81.69,1.63.77,2.48.12,1.14.12,2.28.04,3.34-.08.94-.08,1.75-.04,2.44.08.81,0,1.63-.29,2.36-.08.29-.12.49-.16.65-.08.45-.29.9-.61,1.34-.41.61-.9,1.34-1.47,2.16-.53.81-.86,1.47-.98,1.87,0,.12-.2.41-.49.86-.37.49-.86.69-1.47.61-.33,0-.45.12-.45.45v.2c.08.49-.12.86-.61,1.02-.12,0-.24.12-.37.2,0,0-.08.12-.12.2-.16.49-.49.81-.98.98-.2.08-.29.16-.33.33,0,.16-.33.61-.86,1.38h.04l.08.24ZM113.79,77.21c0,.12-.04.16-.04.2v.12c.12-.12.12-.2,0-.33h.04ZM116.77,77.04c-.45.24-.45.53,0,.86.24.16.45.16.61-.04.08-.16.08-.29,0-.45l-.45-.53c.2-.2.33-.33.37-.33.16-.2.16-.33-.12-.29,0,0-.08.08-.12.2,0,0,0,.16-.12.45l-.2.12h.04ZM118.64,62.99v.16h.2s-.2-.16-.2-.16ZM119.94,65.19c0-.16-.12-.24-.29-.29-.2-.08-.33,0-.37.12-.2.24-.29.45-.33.61,0,.08-.04.2-.04.45,0,.33.16.41.49.29.33-.16.53-.45.61-.86,0-.16,0-.24-.04-.29h0l-.04-.04ZM120.27,77.21c-.2-.41-.53-.45-.98-.2-.16.08-.2.2-.2.37,0,.49.29.86.77,1.1.45.24.65.12.65-.37,0-.29,0-.57-.2-.86h0l-.04-.04ZM120.6,62.38c-.08-.16-.2-.16-.37-.04-.16.12-.16.2-.04.33.16.12.29.08.37-.04.08-.08.08-.16.04-.2h0v-.04ZM121.37,75.29h.12c-.57.37-.9.61-.98.65-.12.12-.12.24,0,.45.2.33.45.49.77.53,1.38,0,2.73-.37,4.11-1.18.86-.49,1.87-1.26,3.01-2.32.16-.16.45-.41.81-.77.37-.29.61-.53.81-.69h-.04c.69-.9,1.75-2.04,3.18-3.46.16-.16.37-.2.69-.2s.24,0,.45-.04c.33-.08.41-.24.29-.53-.16-.37-.12-.65.04-.94.77-1.02,1.1-1.47,1.02-1.34.61-.77,1.02-1.71,1.22-2.77,0-.08.12-.53.37-1.38.37-1.38,1.02-2.53,2-3.42v.12s-.04-.04-.04-.04c0-.24.12-.49.29-.69.2-.29.45-.45.77-.49.45,0,.57-.24.45-.65-.12-.33-.08-.69.04-1.14,0-.12.08-.24.16-.37.08-.16.12-.24.16-.33.12-.33.16-.53.16-.65.16-1.18.12-2.16-.04-2.85-.08-.24-.2-.86-.45-1.79-.16-.73-.29-1.3-.45-1.71-.33-1.26-1.06-2.16-2.16-2.69-.08,0-.2-.12-.45-.2-3.14-1.38-4.68-2.04-4.6-2-.81-.37-1.55-.61-2.28-.77-.24,0-.49,0-.69.2-.49.41-.77.86-.86,1.34-.16.69-.29,1.1-.33,1.18-.08.53-.2,1.26-.45,2.2-.24,1.1-.41,1.83-.49,2.2-.2,1.02-.45,1.79-.65,2.32-.2.57-.41,1.43-.53,2.53,0,.12-.08.33-.12.61,0,.24,0,.45-.04.61-.16.77-.37,1.47-.69,2.04q-.08,0-.04-.04v.69c-.69,3.42-1.22,5.66-1.51,6.76-.49,2.08-.98,3.46-1.47,4.28-.12.24-.2.65-.29,1.18-.24,2.04-.65,3.87-1.26,5.58h-.04v.04-.04ZM122.8,55.98c0-.12-.08-.16-.16-.2-.16-.08-.29-.04-.45.04-.33.29-.61.81-.94,1.63v.29c0,.16.12.29.29.33.08,0,.16,0,.2-.04.12,0,.2-.08.2-.12.53-.53.81-1.1.86-1.67v-.2h-.04l.04-.04ZM121.98,81.85c0,.24,0,.29.2.12v-.16s-.2.04-.2.04h0ZM123.45,81.16c-.12-.16-.2-.16-.33,0v.2c.16.12.29.08.37-.04v-.16h-.04ZM126.38,44.33h-.2c-.49.2-.69.57-.61,1.1.08.2.2.29.37.16.33-.12.53-.41.65-.81,0-.2,0-.37-.2-.45ZM127.11,79.61c-.29,0-.45-.04-.49-.04-.08,0-.12.04-.16.16-.08.16,0,.24.16.33.08,0,.16,0,.2-.04.16-.08.2-.2.2-.37h.04l.04-.04ZM127.4,42.05c.16-.12.16-.29.04-.45-.12-.12-.24-.16-.37-.12-.08,0-.16.08-.2.12-.16.12-.16.24-.04.37,0,0,.08.08.2.16.16,0,.29,0,.37-.12h0v.04ZM126.83,43.36v-.12s-.04-.04-.04-.04v.16h.04ZM127.07,31.22c-.12.37,0,.53.33.53s.45-.12.53-.37c.16-.29,0-.45-.33-.49-.24,0-.45.12-.53.33h0ZM127.32,33.99v.12s.04.04.04.04v-.16h-.04ZM127.52,30.08c0,.16.08.29.2.33.16,0,.33,0,.45-.16.16-.33,0-.49-.37-.49-.16,0-.29.12-.29.33ZM129.35,35.78c.08,0,.12-.04.12-.16,0-.2-.04-.29-.29-.2l-.16.16c0,.16.16.24.33.2h0ZM129.76,30h.04-.04ZM130.49,32.24l.2-.12-.2-.12v.24ZM131.64,28.57c.16.12.24.12.29-.12,0-.08,0-.12-.12-.16,0,0-.08,0-.16.12v.16h0ZM144.02,19.36c-.08-.33-.29-.57-.61-.77s-.61-.29-.86-.16c-.2.08-.45.2-.81.33-.33.2-.57.33-.77.37-.86.33-1.43.49-1.63.49-.29,0-.73.2-1.3.53-.45.24-.81.57-1.02.98-.45.81-.57,1.1-.45.86-.98,1.67-1.67,3.26-2.04,4.89-.33.69-.77,2.32-1.34,4.85,0,.08,0,.12-.04.2,0,.61.12.98.33,1.1.2.12.57,0,1.1-.29.41-.2.81-.49,1.18-.81.45-.37,1.02-.81,1.67-1.38.2-.2.61-.57,1.14-1.1.45-.45.86-.77,1.14-1.02.57-.49,1.22-1.26,1.87-2.2.98-1.38,1.75-3.01,2.36-4.97,0,0,.04-.41.16-1.14-.08-.49-.12-.73-.12-.77h0l.04.04ZM133.31,75.29v.12s0,0,0,0v-.12ZM134.32,74.4c-.16-.16-.37-.37-.53-.53h0s.53.04.53.04h-.04s0,.53,0,.53h.04v-.04ZM135.67,40.1h-.12s.12-.04.12-.04h0v.04ZM136.32,70.61l.16.12c-.08.16-.16.12-.2-.12v-.2h-.04c.08.12.12.16.12.2h-.04ZM136.81,68.33c0,.16.08.29.2.33.37.12.53,0,.53-.29s-.08-.29-.29-.33h-.2c-.2,0-.29.12-.29.29h.04ZM138.07,64.05c0,.12,0,.16.12.16.16.08.29,0,.33-.16l-.16-.16c-.16,0-.29,0-.29.16h0ZM138.64,35.86v-.2c-.08-.16-.2-.2-.33-.12,0,0-.04.08-.04.16,0,.16.08.29.2.29,0,0,.16-.12.16-.12ZM139.99,66.7h-.12c-.45-.08-.69-.08-.81-.04h-.04c.41,0,.69.04.94.04h.04ZM141.57,62.87c0-.2-.04-.37-.16-.45-.2-.12-.33-.08-.37.12,0,.12,0,.16.12.2.08,0,.2,0,.45.04h0v.04l-.04.04ZM141.53,30.4c-.08,0-.16-.04-.2-.04-.12,0-.2.08-.2.12-.12.16-.08.33.12.37.08,0,.16.04.2.04.12,0,.29-.2.53-.49q.2,0,.12-.12c-.08.12-.08.2-.04.16-.29,0-.45-.04-.49-.04h-.04ZM142.1,54.92c-.08.16,0,.33.12.45.2.2.37.24.61.12.08,0,.12-.12.12-.2,0-.41-.2-.57-.65-.49l-.16.16h0l-.04-.04ZM143.33,61.28c0-.16,0-.24-.2-.33-.12,0-.24-.08-.45-.12-.08,0-.12,0-.16.12-.12.16-.08.29.04.37,0,0,.16.04.45.16.2,0,.29,0,.33-.2h0ZM142.55,57.49h-.04s.04-.12.04-.12v.12ZM142.88,59.04v-.2c-.04-.16-.12-.16-.2,0,0,.08,0,.12.04.16h.16v.04ZM145.85,55.09c.16-.08.2-.2.16-.37,0-.12-.04-.16-.16-.16-.49-.12-.98-.33-1.43-.69-.24-.16-.45-.12-.61.2-.2.57-.08.9.37.98,0,0,.41.04,1.14.16.29-.08.45-.12.49-.12h.04ZM145.08,57.61c0,.12.04.2.04.29.08.16.2.24.37.2.16,0,.2-.16.16-.37s-.2-.45-.45-.77c0,0,.12-.04.2-.04-.08,0-.08-.04,0-.04l-.16.12c-.2.2-.24.45-.2.65h0l.04-.04ZM146.87,17.45h-.12s.12-.04.12-.04h0v.04Z"/>
        <path d="M194.53,64.11c-.53,1.76-.81,2.75-.88,2.99-.21.67-.32,1.2-.32,1.62v.18c-.14,1.8-.67,3.52-1.48,5.14-.28.56-.49,1.09-.67,1.55-.25.99-.81,2.25-1.73,3.8-.39.7-1.09,1.09-2.04,1.16h-.42c-.21,0-.35-.04-.42-.04-.56,0-.99.18-1.3.53,0,0-.18.11-.39.18-.42.21-.74.11-.88-.39-.07-.18-.11-.32-.11-.39-.07-.35-.07-1.09-.04-2.29,0-.14,0-.28.11-.42.28-.81.39-1.2.39-1.16-.11.14,0-.21.25-.99,0-.11.14-.49.42-1.16h.14s-.18,0-.18,0c0-1.09.07-1.73.11-1.87,0-.46.11-.88.28-1.2.14-.32.21-.7.25-1.2v-.6c.07-.39.18-.74.32-.99.6-1.02,1.02-1.9,1.27-2.61.11-.25.25-.49.46-.7.32-.21.49-.53.53-.88.14-1.27.46-2.75.99-4.44.63-1.83,1.02-3.24,1.2-4.19l.56-1.76c.18-.46,0-.7-.53-.74-.21,0-.42-.04-.6-.04.18,0,0,0-.67.11-.18,0-.35-.14-.46-.39-.11-.25-.11-.46,0-.6.18-.28.39-.49.56-.6.25-.18.77-.56,1.55-1.09,1.23-.85,1.76-1.2,1.55-1.02.53-.39.85-.85.95-1.37,0-.07,0-.14.04-.28,0-.11.07-.25.11-.32.07-.6.28-1.23.6-1.97.07-.18.25-.63.53-1.34,0-.14.14-.49.32-1.02.11-.42.25-.74.32-.99.42-1.13.85-2.29,1.3-3.52.07-.11.21-.42.42-.95.18-.42.28-.74.39-.99-.11.32.07-.35.46-2.01.11-.39.25-.77.39-1.2.21-.56.7-2.15,1.44-4.75.28-.95.46-1.87.56-2.68.07-.81.25-1.55.56-2.18.07-.14.21-.6.42-1.34.11-.35.21-.6.32-.81.18-.21.32-.53.39-.95.28-1.27.49-2.15.67-2.61.11-.32.25-.7.39-1.23.18-.6.28-.99.32-1.16.07-.18.14-.35.28-.56.14-.21.18-.49.11-.81-.07-.32,0-.56.14-.81.63-.74,1.06-1.2,1.27-1.3s.85-.28,1.87-.42h.85c.53.07.77.35.7.88-.07.42-.11.7-.14.85-.07.35-.25,1.09-.56,2.25-.32,1.2-.49,1.9-.56,2.18,0,.14-.11.46-.18.95-.07.39-.14.67-.25.88,0,.39-.25,1.37-.6,3.03-.25,1.09-.56,2.22-.95,3.42-.28.88-.53,1.76-.7,2.61-.11.7-.6,2.89-1.44,6.48-.11.42-.18.67-.25.81-.28.74-.49,1.62-.67,2.61-.11.74-.25,1.3-.42,1.66-.07.11-.11.25-.11.39-.07.88-.32,2.04-.81,3.45-.07.14,0,.32.11.46s.28.25.42.25.28,0,.25.04c1.44-.28,2.25-.46,2.43-.53.92-.25,1.58-.39,2.01-.42.25,0,.56-.14.99-.39.14-.11.25-.21.28-.28.18-.35.42-.77.74-1.27,0-.07.04-.11.04-.18,0-.39.18-.95.56-1.76.28-.56.49-.99.6-1.3.39-1.02.74-1.87,1.09-2.47.21-.42.35-.81.39-1.2,0-.42.11-1.06.39-1.83,1.37-4.37,2.29-7.08,2.71-8.1.14-.42.25-.74.28-.99.18-.88.53-1.94,1.06-3.17.81-1.9,1.51-3.94,2.11-6.09.14-.7.46-1.69.95-2.99.32-.92.53-1.73.67-2.43,0-.21.11-.7.28-1.48.11-.67.21-1.16.28-1.55.07-.53.35-.99.85-1.41.28-.25.53-.39.7-.42.53-.14,1.06-.35,1.55-.6.18-.11.7-.35,1.48-.7.49-.21,1.02-.42,1.55-.6.32-.11.67-.18,1.02-.18s.56.11.81.28c.18.14.28.32.32.53.11.49.11.95-.11,1.41-.7,1.37-1.06,2.11-1.13,2.25-.46.95-.7,1.41-.67,1.3-.32.63-.6,1.41-.85,2.32-.18.56-.39,1.06-.7,1.48-.18.21-.32.39-.39.53-.28.49-.46.95-.53,1.34-.14.88-.42,1.73-.85,2.57,0,.11-.14.42-.32.99-.28.81-.42,1.2-.42,1.16-.35.7-.63,1.66-.88,2.75,0,.18-.18.67-.42,1.41-.42,1.27-.7,2.29-.85,2.99-.14.88-.39,1.62-.7,2.18-.28.6-.63,1.48-1.06,2.71-.11.32-.32.56-.7.7,0,0-.14.07-.32.25-.25.18-.25.35,0,.53.32.25.35.56.14.95,0,0-.07.11-.11.18-.07.07-.11.11-.14.14-.11.25-.21.53-.25.81,0,.07,0,.14-.04.25,0,1.2-.28,2.11-.81,2.75-.11.14-.21.42-.28.74-.11.28-.25.74-.42,1.41-.18.6-.32,1.06-.42,1.41,0,.11-.32,1.06-.85,2.75-.53,1.76-.85,2.92-.95,3.42-.11.42-.25.81-.42,1.2-.28.6-.42,1.2-.42,1.76s-.07.42-.18.81c-.07.18-.18.46-.32.81-.35.81-.49,1.62-.46,2.43,0,.28-.11.95-.28,2.04-.18.99-.14,1.83.04,2.47.07.14.11.32.11.6,0,.49-.18.85-.53,1.09-.21.18-.35.42-.39.7v.25c.11,1.69-.04,3.66-.42,5.99-.32,2.04-.42,2.92-.39,2.71,0-.39-.07.46-.25,2.47,0,.25-.04.77-.14,1.55-.07.67-.11,1.2-.11,1.58s-.18,1.48-.42,3.28c0,.14-.07.39-.14.74,0,.28-.07.53-.11.7-.11.92-.49,1.62-1.13,2.18-.32.28-.99.85-2.04,1.73-.18.14-.46.21-.81.28-.7.11-1.44,0-2.25-.28-.32-.14-.6-.32-.85-.6-.18-.21-.32-.46-.39-.7-.18-.63-.18-1.3,0-2.04,0-.11.14-.85.42-2.25.46-2.29.7-3.52.74-3.7.28-1.16.53-2.15.81-3.03.7-2.25,1.3-4.97,1.76-8.14.18-1.41.35-2.36.46-2.85.07-.21.11-.35.11-.42.11-.67.53-3.1,1.34-7.33.11-.53.35-1.9.74-4.12.07-.49-.18-.7-.67-.6-.21,0-.28.04-.25.04-.21,0-.35.07-.42.11-1.76.67-3.21,1.2-4.26,1.62-.21.07-.46.18-.74.39-.28.14-.49.39-.67.74-.07.14-.14.42-.25.81-.6,2.15-1.44,4.3-2.57,6.41-.11.18-.28.53-.53,1.02-.21.42-.39.77-.53.99-.25.42-.53,1.02-.81,1.73-.39.92-.63,1.48-.74,1.73h-.04s.11-.04.11-.04h0l.11-.11ZM187.56,71.54v-.11s-.04-.04-.04-.04v.14h.04ZM188.12,67.63c-.14,0-.18.14-.18.28,0,.28.07.39.32.32.14,0,.25-.14.25-.28,0-.28-.14-.39-.39-.32ZM188.26,78.69h.04s-.04,0-.04,0ZM189.46,63.02c-.18.07-.32.14-.42.25-.07,0-.07.07,0,.14,0,.11.07.14.14.11.11,0,.21-.14.39-.28.18-.14.28-.28.39-.32.21.42.35.67.39.7.18.14.39.21.56.14.11-.07.21-.14.25-.28,0-.14-.07-.28-.18-.32-.11,0-.42-.11-.99-.25-.07.07-.21.11-.46.14h0l-.07-.04ZM189.14,64.74l.14-.11-.18-.11v.18h.04v.04ZM197.87,40.06c-.18.07-.21.18-.14.32.11.14.21.21.32.14.11-.07.18-.18.14-.32-.07-.11-.18-.18-.32-.14ZM199.25,36.67h-.14v-.11s.04.11.04.11h.11ZM200.69,32.62c-.07,0-.11.07-.14.14-.07.14,0,.25.14.28.14,0,.25-.07.28-.25,0-.18-.11-.25-.28-.18h0ZM202.28,28.82v.18s.07,0,.11.04c.11-.18.11-.28-.11-.25v.04ZM203.16,22.62c-.11,0-.25,0-.32.18-.11.11-.11.25-.04.32,0,.07.07.11.14.14.14,0,.28,0,.32-.14,0,0,.04-.11.04-.18,0-.14-.04-.28-.14-.32ZM205.45,12.76l.11-.11h-.14s.04.11.04.11h0ZM207.31,53.33c-.18,0-.25,0-.25.18s0,.14.11.14c.18.07.25,0,.25-.18l-.11-.14ZM213.55,35.3h.14v-.14s-.14.14-.14.14ZM214.85,27.02c-.07-.14-.11-.14-.18,0l.11.14.11-.14h-.04ZM215.2,33.54c-.11,0-.14.07-.14.14.07.18.18.21.32.04v-.14s-.18-.04-.18-.04h0ZM215.84,29.49c0,.11,0,.14.11.14.21,0,.28-.04.25-.25h-.18s-.14.11-.14.11h-.04ZM217.7,24.38v.11-.11Z"/>
        <path d="M387.91,24.61c.12-.2.29-.37.53-.45.16-.08.41-.12.69-.16.16,0,.33-.12.37-.2,0-.16,0-.33-.16-.45-.37-.29-.53-.45-.53-.49-.12-.12-.16-.24-.16-.45.08-.65.24-1.26.49-1.83.49-1.06.77-1.63.81-1.71.33-.77.73-1.47,1.18-2.12,1.75-2.36,3.34-4.07,4.73-5.13.33-.2.65-.49.94-.77.37-.33.77-.61,1.18-.81.9-.37,1.83-.94,2.81-1.79,1.1-.94,2.32-1.55,3.63-1.83.33-.08.57-.16.69-.2.29-.12.77-.2,1.38-.29,1.38-.12,2.81.16,4.2.86.16.08.37.2.61.37.29.2.49.29.61.33.53.12,1.1.41,1.71.86,0,0,.65.49,2.04,1.63.77.61,1.34,1.26,1.71,2,.16.41.45.81.81,1.18s.69.81,1.02,1.34c.77,1.26.94,2.65.53,4.15-.2.81-.33,1.38-.33,1.67,0,.53-.24,1.22-.69,2-.08.12-.24.41-.49.81-1.51,2.16-2.2,3.18-2.12,2.97-1.38,2.08-3.42,4.36-6.11,6.76-.29.2-.61.45-.98.69-2.81,1.71-5.38,3.06-7.74,3.95-.33.12-.69.29-1.1.45-1.1.41-2.28.57-3.58.53h-2.65c-.29,0-.57.08-.86.29-.73.49-1.22,1.14-1.51,1.91-.29.73-.69,1.59-1.18,2.61-.37.73-.69,1.63-.98,2.69-.24,1.1-.45,1.87-.61,2.32-.2.73-.49,1.38-.77,2.04-.49,1.14-.98,2.53-1.47,4.11-.12.49-.29.98-.45,1.34-.12.41-.29.69-.37.86-.45.53-.65,1.22-.69,2,0,.49-.12,1.14-.2,1.96-.12.98-.33,1.83-.53,2.53-.16.53-.49,1.63-.98,3.26-.57,2-.98,3.46-1.18,4.44-.29,1.22-.45,2.08-.45,2.61s-.04.57-.16.94c-.12.49-.24.77-.29.94-.08.49-.29,1.1-.65,1.83.08-.16-.16.33-.69,1.51-.49.9-1.18,1.63-2.12,2.2-.12.08-.33.16-.69.29-.16,0-.41,0-.65-.16-.12-.08-.16-.12-.2-.16-.86-1.1-1.38-1.87-1.63-2.36-.2-.41-.2-.77,0-1.14.12-.37.24-.57.33-.65.65-.73.9-1.63.77-2.69v-.98c0-.29.08-.61.2-.94.08-.12.16-.24.29-.37.49-.77.94-1.87,1.34-3.34.2-.73.37-1.34.49-1.83.16-.94.77-3.1,1.71-6.56.77-2.57,1.51-5.25,2.2-8.11.86-3.34,1.43-5.46,1.71-6.27.12-.29.16-.53.16-.69,0-.33.16-1.02.45-2.12.77-2.77,1.22-4.4,1.38-4.81.33-.77.49-1.67.53-2.61,0-1.38.16-2.69.37-3.83,0-.2,0-.53-.04-.98,0-.12,0-.29-.04-.49-.08-.16-.12-.33-.12-.45-.08-.53-.04-1.02.04-1.47.2-.65.41-1.18.53-1.55.08-.12.29-.65.65-1.55.12.2.33.41.61.61.12.16.24.29.29.33.16.12.29.04.29-.16s-.04-.12-.16-.12-.16,0-.45-.04c-.12-.12-.33-.29-.61-.53l.16-.49h.2ZM379.48,71.33l-.12-.16-.12.16h.24ZM386.4,42.98c0-.12-.12-.24-.29-.33-.16,0-.33,0-.45.12-.2.2-.29.49-.2.77,0,.24.2.45.49.53.16.08.33,0,.37-.16,0,0,0-.16.12-.45,0-.29-.04-.45-.04-.49h0ZM390.64,27.06c0-.41,0-.9-.04-1.47h.04c-.24.53-.41,1.02-.45,1.51-.41-.12-.61-.16-.65-.2-.08,0-.12.04-.16.16-.12.16-.08.33.12.45.08,0,.29.04.65.04.2.24.33.49.37.69.2.08.37.12.45.12h.2q.12,0,.12-.12c-.08-.08-.2-.08-.37-.04-.08,0-.2.08-.45.12,0-.12.08-.24.12-.37,0-.16.04-.33.04-.37.08-.16.08-.33,0-.49h0v-.04ZM390.72,27.59h-.53v-.53h.53v.53ZM390.92,34.92l-.12.12h.16s-.04-.12-.04-.12h0ZM391.53,37.73c0,.16.12.29.33.33.29,0,.45-.12.45-.45s-.12-.49-.45-.45c-.29.08-.41.24-.33.53h0v.04ZM395.73,24.33c.2.12.33.37.33.65,0,.33,0,.65.16.94.24.45.57.61.98.53.61-.08.86-.12.69-.12.77,0,1.38-.12,1.91-.37.12-.08.33-.12.65-.2.37,0,.65-.12.94-.29.53-.33.9-.53,1.1-.61.86-.45,1.67-1.06,2.44-1.91.12-.12.41-.41.77-.77.33-.33.57-.61.77-.81,1.34-1.47,2.4-2.85,3.26-4.15.37-.57.61-1.14.77-1.71.16-.61.04-1.14-.37-1.55-.33-.29-.69-.45-1.1-.49-1.71-.16-3.3.04-4.73.69-.49.16-.9.37-1.3.61-.86.41-1.55.65-2,.77-.16,0-.41.12-.65.29-.94.49-1.67,1.1-2.2,1.79-.29.33-.49.65-.65,1.02-.33.81-.49,1.51-.53,2.04,0,.29-.12.65-.2,1.1-.12.49-.16.86-.2,1.1-.08.41-.29.9-.65,1.51h-1.02c-.12-.45-.12-.9-.04-1.38,0-.12.12-.37.33-.65.16-.2.29-.41.33-.61,0-.08,0-.12-.12-.2s-.12-.08-.2-.04c-.2,0-.37.08-.45.16-.12.12-.24.24-.45.45-.16.16-.33.33-.45.37-.24.2-.53.29-.86.2.2.08.08,0-.45-.12-.16,0-.33,0-.45.12-.2.12-.29.33-.16.61.08.2.16.33.33.29-.45.08.41-.12,2.53-.53,0,.61.04,1.1.04,1.38.33-.12.65-.12.98,0h0l-.08-.08ZM393.45,27.26l-.16-.12-.12.2c0,.08,0,.12.12.16,0,0,.12,0,.2-.04v-.2h-.04ZM394.75,26.49s-.08.04-.12.16c-.08.12-.08.29-.04.37.08.12.12.16.2.12.12-.12.16-.24.16-.37,0-.2,0-.33-.2-.29h0ZM398.05,31.7v.2s.08,0,.12-.04h.12c0-.2,0-.29-.2-.16h-.04ZM399.52,32.6l.16-.12-.16-.12v.24ZM400.49,31.13s-.08-.08-.16-.12c-.2-.08-.33,0-.33.2s.04.08.16.16c.12.12.29.08.37-.04v-.2h-.04ZM400.37,10.15v.2c.2-.12.24-.12.2-.12,0-.24-.08-.29-.2-.12h0v.04ZM401.63,33.41c-.12-.16-.24-.29-.29-.29h-.16s.49.2.49.2h-.04v.08ZM402.82,8.2c-.2-.08-.45-.04-.69.04-.24.12-.33.37-.16.65,0,.08.08.12.16.16.53.12.86,0,.94-.53,0-.16,0-.29-.2-.33h-.04ZM404.32,25.67h.2l-.12-.2-.12.2h.04ZM404.73,31.7s0,.08.04.16h.2c0-.33-.12-.33-.29-.16h.04Z"/>
        <path d="M418.03,54.54c.2.14.38.21.48.24.1,0,.14,0,.17-.07.1-.14.07-.21-.14-.27-.07,0-.24.03-.55.14,0-.24,0-.38-.07-.38.07-.31.14-.99.24-2.02,0,.17.1-.14.38-.89.07-.2.1-.48.14-.79.07-.41.14-.75.24-.99.27-.51.58-1.16.92-1.98.07-.14.17-.24.27-.31.1-.14.2-.2.31-.2.03,0,.24-.03.62-.1h0c.2-.24.31-.38.34-.44.27-.44.24-.79-.17-1.09l-.31-.17c-.48-.31-.65-.72-.51-1.23.31-1.23.65-2.53,1.02-3.89.14-.51.31-1.16.58-1.95.1-.27.24-.48.48-.61.38-.27.58-.41.65-.48.24-.2.38-.41.41-.65.65-2.53.92-3.55.85-3.11.07-.51.03-.96-.14-1.37-.14-.31-.17-.61-.07-.96.68-2.19,1.06-3.35,1.09-3.48.79-2.6,1.13-3.72,1.09-3.48.85-2.56,1.37-4.17,1.54-4.82.17-.44.38-.89.62-1.26.2-.31.48-.48.82-.55.38-.07.72,0,1.02.1.82.34,1.57.99,2.25,1.98.41.58.79,1.3,1.13,2.12.17.44.17.92,0,1.37-.2.51-.41.99-.62,1.47-.14.24-.31.61-.58,1.06-.27.44-.44.82-.58,1.09-.44.89-.75,1.57-.89,2.05-.34,1.02-.65,1.91-.89,2.66-1.3,4.48-2.19,7.45-2.67,8.92,0-.07-.24.79-.79,2.49-.58,1.67-.89,2.56-.92,2.66-.03.07-.07.2-.07.38-.03.34-.14.82-.27,1.37-.2.68-.34,1.13-.38,1.37-.07.41-.17.99-.31,1.78-.17.82-.31,1.43-.38,1.78-.1.44-.07.85.07,1.2,0,.14.1.24.27.27.14.03.27,0,.34-.07.55-.44.89-.82,1.09-1.16l2.19-3.18c.1-.2.24-.41.41-.65.41-.51.82-1.2,1.26-2.05l.27-.58c.1-.14.17-.27.24-.34.14-.17.31-.24.55-.24s.2,0,.41.07c.58.1.96-.1,1.09-.61.14-.68.44-1.43.92-2.22.1-.14.31-.41.58-.82.41-.58.65-1.2.72-1.88.07-.58.14-.89.14-.99.03-.14.07-.27.1-.41.07-.17.24-.27.41-.34.14,0,.27,0,.38.14,0,0,.07.07.14.14.07.07.1.1.14.17,0,0,.07.07.14.1.1.07.2.1.34,0,.17-.07.27-.17.31-.31s.07-.41.1-.82c0-.31.1-.58.17-.79l.38-.72c.14-.31.24-.55.31-.72.24-.48.34-.68.27-.58.41-.79.92-1.47,1.57-2.05.89-.82,1.61-1.37,2.08-1.54.17-.07.38-.27.58-.58.34-.51.55-.79.58-.82.07-.1.2-.17.34-.17-.07,0,.14,0,.58-.07.27,0,.51-.14.68-.38.07-.03.14-.14.27-.34.41-.65,1.02-1.06,1.78-1.23l-.07.1h0c.34-.38.89-.75,1.67-1.16.24-.14.48-.14.75-.07.27.1.48.17.58.17.2.03.38-.03.48-.27.1-.14.17-.24.2-.31.31-.34.75-.44,1.33-.41.1,0,.17,0,.24.07.07.1.27.34.62.79-.34.27-.55.44-.62.51-.14.24-.03.41.24.48l.38.07c0,.14.03.2.14.24v-.1s-.2-.07-.2-.07c.07-.24.1-.58.03-1.09.27.24.65.44,1.2.65.55.24.85.65.89,1.26,0,.07.03.1.14.1h.55v-.07c.07,0,.1,0,.14-.07.2-.24.38-.24.48,0,.31.75.55,1.3.75,1.64.1.14.2.38.31.72.2.65.17,1.16-.07,1.57-.07.14-.1.27-.07.38.1.58,0,1.33-.27,2.36-.34,1.23-.55,1.98-.62,2.32-.34,1.37-.92,2.63-1.74,3.79-.31-.17-.55-.27-.65-.31,0-.41-.14-.65-.48-.79l-.17-.07-.17-.07c-.27-.1-.51,0-.75.17-.2.14-.24.31-.1.51.07.1.2.17.31.17h.2c.34-.14.72-.1,1.13.1.31.14.51.24.62.31.14.48.14.89-.03,1.2-.07.17-.2.41-.34.79-.14.38-.27.65-.38.82-.14.27-.68,1.4-1.67,3.42h0s.07-.07.07-.07c0,.51-.14.99-.27,1.37-.17.48-.44,1.02-.79,1.64-.89,1.57-1.54,2.8-1.98,3.76-.34.75-.55,1.33-.62,1.67-.1.61-.41,1.43-.92,2.46-.1.21-.31.61-.62,1.16-.24.48-.44.89-.58,1.16-.44.92-.79,1.5-.92,1.78-.34.55-.62,1.23-.82,2.08-.07.24-.17.58-.31,1.06-.14.48-.24.82-.31,1.06-.41,1.54-.58,2.49-.62,2.94,0,.44-.17.99-.41,1.57-.31.72-.48,1.43-.48,2.15,0,.21.1.38.31.48.1.07.2.1.34,0,.07-.07.1-.1.14-.14,1.02-1.43,1.64-2.49,1.88-3.11h0c.1.31.14.55.07.79-.07.48-.31,1.61-.79,3.38-.2.96-.31,1.47-.38,1.54-.17.44-.58,1.61-1.26,3.42-.1.38-.2.68-.24.96,0,.07,0,.34-.1.82-.07.51-.2,1.02-.48,1.54-.24.41-.48.89-.72,1.43-.34.75-.44,1.54-.31,2.36,0,.27.1.68.24,1.16v.82c0,.27-.17.48-.41.65-.1.07-.24.14-.38.14-.24-.07-.41-.17-.51-.31-.48-.72-.99-1.57-1.47-2.63-.14-.27-.2-.61-.24-.99.03-1.78.17-2.97.38-3.62,0-.07.07-.17.07-.38.14-1.64.2-2.66.2-3.04,0,.27,0-.38.07-1.98,0-.38.14-.85.27-1.37,0-.14.14-.27.34-.48.14-.14.38-.24.72-.34l-.17.31v-.14s.07-.07.14-.14c-.03-.38-.07-.61-.03-.61,0-.1.03-.24.07-.48.07-.24.1-.41.1-.51.1-1.02,0-1.88-.38-2.56,0-.03,0-.1-.07-.17-.07-.24,0-.41.07-.58.27-.41.44-.68.48-.89,0-.07.1-.38.31-.96.31-.85.48-1.3.51-1.33.48-1.5.96-3.01,1.47-4.58.2-.51.24-1.06.14-1.61-.03-.27-.1-.51-.17-.79-.17-.65-.14-1.33.07-1.98.1-.27.17-.48.17-.58.03-.21.03-.41,0-.61l-.14-.38c-.07-.21-.1-.34-.17-.38-.07-.24-.03-.41.03-.58-.07.1.07-.21.31-.96.2-.51.24-.99.1-1.43-.14-.51-.1-1.02.07-1.57,0-.2.1-.44.17-.79.07-.38.14-.61.17-.79.07-.24.24-.96.58-2.15.38-1.2.55-1.84.58-1.95.1-.2.2-.58.27-1.06.1-.48.2-.82.31-1.06.07-.2.14-.44.17-.79.03-.41.07-.68.1-.82-.1.31.2-.58.85-2.73.07-.17,0-.38-.17-.55-.14-.17-.31-.2-.55-.17-.85.17-1.57.55-2.12,1.13-1.78,1.81-2.97,3.11-3.55,3.86-.85,1.09-1.37,1.81-1.5,2.12,0,.07-.07.1-.14.14-.14.14-.24.24-.27.27-.2.1-.41.17-.58.24-.44.1-.79.41-1.02.92-.31.65-.55,1.3-.68,1.88-.1.34-.27.65-.48.89-.27.24-.55.61-.82,1.16-.34.61-.58.99-.72,1.16-.07.24-.17.61-.38,1.09-.2.44-.34.79-.41,1.02-.1.44-.24.82-.38,1.16-.82,1.98-1.57,3.48-2.25,4.51-.75,1.16-1.43,2.46-2.02,3.96-.38.96-.85,1.98-1.4,3.11l-.41.82-.41.82c-.34.68-.48,1.2-.48,1.54-.44,1.71-.82,2.87-1.13,3.45-.51,1.02-1.13,2.22-1.85,3.59-.07.1-.14.21-.27.27-.72.38-1.33.41-1.91.07-1.02-.68-1.71-1.13-2.08-1.33-.38-.21-.72-.51-.96-.99-.07-.07-.14-.24-.24-.55-.14-.31-.27-.55-.41-.68-.17-.14-.27-.21-.31-.31-.17-.48-.44-.99-.82-1.64-.1-.14-.14-.34-.14-.58.07-.61,0-1.2-.1-1.78-.07-.24-.1-.51-.14-.82-.03-.48.07-.82.31-1.13.34-.44.55-.85.62-1.26,0-.14.1-.38.27-.79.17-.31.27-.68.31-1.13,0-.24.03-.61.1-1.13.03-.48.07-.85.1-1.13.07-.72.41-2.36.99-4.92.07-.27.2-.51.41-.72.24-.21.38-.34.41-.44.07-.17.07-.31.03-.38-.03-.07-.2-.34-.48-.89h0l.17.1ZM423.36,41.49c-.03-.14-.14-.17-.27-.17-.07,0-.14.07-.14.07-.03.14,0,.24.17.24.1,0,.17-.03.24-.17.14.1.62.27,1.43.51-.72.34-1.3.79-1.74,1.37-.2.27-.48.38-.89.31-.24-.07-.44,0-.58.07-.07.07-.1.14-.14.17,0,.07.03.14.14.17.31.2.75.48,1.37.82.2.1.38,0,.55-.17.2-.24.34-.38.38-.41.31-.58.58-.99.82-1.16.1-.1.17-.27.17-.55,0,0,0-.24-.03-.61-.44-.31-.72-.44-.79-.48-.24-.14-.44-.14-.68,0h0ZM423.36,45.8l.1.1.07-.1h-.17ZM427.7,52.22c.2.14.41.17.68.07.27-.07.44-.2.51-.41.1-.27.14-.58.14-.96-.03-.27-.17-.41-.41-.41-.34,0-.58.07-.72.24-.24.34-.38.72-.38,1.13,0,0,.1.1.2.31h0l-.03.03ZM419.97,68.45c-.07-.07-.1-.1-.14-.14l-.1.1.14.14.1-.1h0ZM431.21,51.91c.1-.2.14-.34.14-.38.07-.27-.03-.48-.34-.61-.14-.03-.27,0-.38.14-.07.14-.17.51-.31,1.13,0,.2.07.34.31.48.34.17.55.07.55-.27v-.41h0l.03-.07ZM431.93,48.97l-.1.1c.07.17.14.17.24,0l-.14-.1h0ZM433.98,48.67h-.14c-.14.07-.14.14.03.2.07.03.14,0,.17-.07l-.07-.14h0ZM440.34,36.43h-.07v.07l.07-.07h0ZM440.95,35.72c.14.03.24,0,.27-.17s0-.24-.17-.24c-.07,0-.1,0-.14.07-.1.1-.07.24.03.31h0v.03ZM443,32.4h-.14v.14h.14v-.14h0ZM441.5,36.91c0,.14.07.38.17.65,0,.14.1.24.2.31l.1-.1-.38-.17c0-.07,0-.17-.07-.34-.03-.14-.07-.24-.1-.31h.07v-.03ZM443.82,34.18c-.48-.17-.68-.27-.58-.24-.03,0-.07.07-.07.17v.17c.2.48.58.79,1.13.96.14.03.27,0,.34-.07.2-.2.17-.38-.07-.55-.17-.14-.24-.17-.14-.14l-.62-.31h0ZM442.01,39l.07-.07-.14-.07v.14h.07ZM447.34,30.97c.1-.27,0-.41-.24-.41-.14,0-.2,0-.24.17-.07.27.03.38.34.34l.14-.07h0v-.03ZM448.37,29.57c-.14-.07-.24,0-.27.14,0,.03.07.07.14.14.14.1.2.07.2-.1l-.07-.14h0v-.03ZM447.1,35.24c-.2-.03-.34.07-.38.38,0,.14.07.24.2.31.2.1.38,0,.41-.24.07-.27,0-.41-.24-.41v-.03ZM448.4,35.2v.17c.14.1.24.07.31-.07v-.17c-.1-.1-.2-.07-.27.07h-.03ZM447.24,37.9l.1-.1-.1-.1-.1.1.1.1h0ZM448.47,37.02c-.14-.1-.27-.17-.34-.24-.14,0-.24,0-.31.14-.07.14-.07.24.03.31.1.1.24.1.38,0-.07.07,0,0,.14-.14l.14-.14c.24.44.41.72.51.82,0,.07.03.1.14.07.14,0,.2-.1.14-.24-.07-.14-.17-.24-.27-.27,0-.03-.17-.14-.48-.27h0l-.07-.03ZM451.3,30.66s-.03-.07-.1-.1c-.17,0-.2.1-.14.24h.2v-.14h.03ZM452.81,29.53h-.1l.07-.1-.07.17h.14l-.03-.07ZM450.31,37.36v-.17c-.14-.1-.24-.07-.27.07-.03.07,0,.14,0,.17.1.07.17.07.24-.07h.03ZM453.08,32.98c-.07-.17-.14-.24-.27-.17-.17,0-.2.1-.14.24.1.14.2.2.34.14v-.17l.07-.03ZM454.48,30.63c.34-.07.58-.17.72-.31.1-.14.1-.24.03-.38-.03-.07-.1-.07-.17-.07s-.1-.03-.17-.03c-.27,0-.51.17-.65.38-.07.14-.1.24-.07.34,0,.1.1.14.31.1h0v-.03ZM450.86,39.2c.14.1.24.1.34,0,.1-.07.14-.14.14-.24,0-.14-.03-.2-.14-.24-.14-.03-.27,0-.38.1-.07.14-.07.24.03.31h0v.07ZM453.8,35.17c-.1-.14-.17-.27-.17-.34-.07-.14-.17-.17-.27-.14-.07.03-.07.1-.03.17,0,.03.07.07.14.14l.38.17h-.03ZM452.12,37.22c.07.07.1.1.14.14.17,0,.2-.1.14-.24,0-.03-.07-.03-.14,0,0,0-.07,0-.1.14h0l-.03-.03ZM453.12,36.5c-.17-.14-.27-.2-.27-.24h-.17c-.14.14-.1.2.07.24,0,0,.14,0,.34-.07v.07h.03ZM443.45,58.68c.07-.14.07-.27.03-.38-.1-.21-.27-.27-.51-.21-.31.1-.44.31-.38.61,0,.14.1.24.2.31.14.07.27.03.38-.07l.24-.27h.03ZM454.17,38.76c.03-.27.03-.44,0-.51l-.14.14s.1.14.17.34h-.07l.03.03ZM445.26,60.11c.17-.34.27-.65.27-.92,0-.07-.03-.17-.14-.31-.07-.14-.17-.17-.34-.14-.38.14-.68.38-.89.72-.17.27-.2.58-.07.92.1.31.31.41.62.27.24-.14.41-.34.51-.55h.03ZM446.11,56.39c0,.14,0,.24.14.38.14.21.27.21.48,0s.14-.38-.1-.51c-.14-.1-.24-.1-.38,0l-.14.14h0ZM444.54,70.4h0c0-.14.03-.27.07-.41l-.1.41h.03Z"/>
        <path d="M258.54,12.21c.49-1.75.77-2.72.8-2.9.1-.41.39-.85.8-1.26.18-.15.26-.39.18-.69-.05-.13-.1-.26-.18-.46-.26-.57-.36-1.23-.28-2,.05-.39.13-.69.28-.98.15-.23.26-.36.28-.41.26-1.03.49-1.64.69-1.88.1-.15.51-.59,1.21-1.31.15-.15.39-.26.69-.28.72-.08,1.39,0,2,.18,1.13.31,2.03.77,2.62,1.44.77.85,1.52,1.52,2.24,2,.64.46.95,1.13.93,2v.51c-.64,2.7-1.31,4.81-2,6.3-.26.57-.57.98-.85,1.21l.05.05c-.23.13-.44.13-.62,0h.05c.18,0,.18.18,0,.57h-.05c0,.46-.18,1-.51,1.59-.08.15-.62,1.16-1.59,3.03h.05c-.23,0-.54.13-.93.41l-.05-.05c.31.54.46.82.51.85.08.21.1.36.05.51-.18.8-.57,1.64-1.08,2.52-.15.31-.41.62-.8.93.1-.08-.41.33-1.54,1.26-.33.26-.44.57-.28.93.08.21.13.51.18.98.05.41.1.75.18.98h-1.03c-.1-.31-.26-.49-.41-.57-.26-.15-.49-.13-.69.05-.1.15-.18.31-.18.46.05.23.15.33.33.33.08.05.41-.03.98-.23.31-.18.62-.21.98-.05h1.49c.33.05.59.1.75.18.39.18.67.1.85-.23.1-.23.28-.36.51-.41.1-.05.28-.05.51-.05.23-.03.41-.08.51-.1.69-.15,1.13-.46,1.36-.98.05-.1.1-.26.23-.46.23-.31.51-.44.85-.41.1,0,.28,0,.51-.05.33-.08.44-.28.28-.62-.18-.33-.18-.64,0-.93.15-.23.26-.36.28-.41.33-.33.59-.69.75-1.03.26-.62.77-1.36,1.54-2.29.03-.05.33-.44.85-1.21v.05c.31-.05.46-.08.46-.1.33-.03.54-.18.57-.41.15-.69.49-1.36,1.03-2.06.26-.31.77-.87,1.49-1.72,2.54-3.01,3.88-4.57,3.93-4.68.18-.23.49-.57.85-.98.49-.54,1.29-1,2.39-1.44.15-.03.31-.05.46-.05.87-.08,1.64-.13,2.29-.13,1.05-.03,2.03.23,2.9.8.23.15,1.05.59,2.47,1.31,1.26.64,1.95,1.64,2.11,2.98.03.39-.03.72-.23.98-.15.23-.31.44-.46.62-.69.8-2.11,2.47-4.29,5.04-.54.64-1.13,1.11-1.82,1.36-.69.31-1.36.82-2,1.54-.85,1-1.29,1.52-1.31,1.54-.57.62-1.11,1.13-1.59,1.59-.54.46-1.11.85-1.72,1.13-1.82.87-2.98,1.41-3.42,1.59-.54.23-1.13.57-1.77.98-1.26.85-3.34,2.47-6.22,4.86v.05c.05-.1.05-.18,0-.23-.05-.15-.13-.26-.28-.28-.31-.03-.46.1-.46.46s.08.36.23.62h-.05s-.69.41-2.06,1.31c-.26.18-.39.49-.33.85v.28-.1c-.8.41-1.26.67-1.36.75-.31.15-.51.39-.62.69-.46,1-.67,1.44-.62,1.36-.15.23-.39.54-.69.98-.31.41-.54.72-.69.93-.08.1-.54.59-1.36,1.44l-.28.28c-.15.1-.26.18-.28.23-.26.26-.41.57-.41.93-.05.41-.05.77-.05,1.03.05.49.23.95.57,1.36.69.8,1.36,1.44,2,1.95,1.36,1,2.83,2.39,4.34,4.24.23.26,1.21,1.41,2.98,3.42.57.64.62,1.34.1,2.06-.05.08-.1.18-.23.33-.1.1-.18.21-.23.28-.08.1-.08.26,0,.46.15.31.36.41.62.33.15-.03.33-.1.51-.18.31-.15.72-.21,1.26-.18.1,0,.18,0,.23.05.26.08.41.13.46.18.54.49,1.08,1.23,1.64,2.24l.1.51.05-.05-.05.23c-.08.18-.05.33.05.41.1.1.31.1.57-.05l-.05.05c.23.23.49.57.75,1.03.31.49.54.85.75,1.08.15.18.67.85,1.54,1.95-.03-.08.05.08.28.46.08.13.05.26-.05.46-.1.23-.23.33-.33.33-.54.03-.87.03-1.03,0-.95-.23-1.75-.51-2.39-.85-2.34-1.34-4.09-2.52-5.27-3.55-.08-.03-.41-.28-1.03-.75-1.9-1.49-3.68-3.32-5.32-5.5-1.11-1.44-2.03-2.54-2.75-3.32-.08-.03-.18-.15-.33-.33-.15-.18-.26-.33-.33-.41-.77-.64-1.59-1.52-2.47-2.62-.1-.15-.41-.41-.93-.8-.49-.41-.95-.36-1.36.18-.77.87-1.29,1.85-1.54,2.9-.08.1-.13.36-.13.75s0,.36.05.51c.23.77.18,1.67-.18,2.75-.31.85-.95,2.6-1.95,5.27-.15.33-.59,1.16-1.31,2.47-.23.41-.41.8-.51,1.16-.08.39-.21,1.05-.41,2-.15.85-.28,1.52-.41,2l-.05.23c-.08.69.1,1.23.51,1.67.26.26.33.33.18.18.31.26.36.57.18.93-.05.13-.31.54-.8,1.31-.57.95-.87,1.47-.93,1.54-.69,1.29-1.21,2.62-1.54,4.01-.39,1.52-.54,2.18-.51,2-.03.15-.13.39-.28.69s-.26.54-.28.69c.03-.08,0,.33-.05,1.26-.03.33-.21.54-.51.57-.72.03-.98.03-.75,0-.39.03-.72.1-1.03.18-.8.15-1.18.64-1.13,1.49.03.15.08.36.1.64.03.31.05.51.05.64,0,.18-.03.36-.1.51-.26.39-.54.72-.8.98-.18.18-.44.26-.75.18-.46-.03-.85-.31-1.21-.8-.1-.13-.18-.26-.18-.46-.08-.62-.05-1.62.1-3.03.03-.26.18-.59.41-.98.05-.13.26-.39.64-.8.69-.77,1.08-1.67,1.21-2.75.08-.39.18-.95.28-1.72.15-.8.26-1.39.28-1.77.15-.93.36-1.9.62-2.98.26-1.11.41-1.95.46-2.52,0-.33.1-.85.28-1.49.18-.69.31-1.18.33-1.49.41-1.57.93-3.62,1.54-6.17.72-3.24,1.21-5.32,1.44-6.22.15-.57,1.29-5.09,3.37-13.54.08-.26.31-1.36.69-3.26.05-.23.13-.72.28-1.49.15-.62.26-1.11.33-1.49.05-.26.13-.51.23-.75.39-1,.69-1.95.98-2.85.13-.33.31-.62.57-.85.54-.49.85-.77.93-.85.31-.23.77-.85,1.36-1.82l.1-.51c.08-.31.28-.54.62-.69.15-.08.31-.18.46-.28.26-.18.26-.49,0-.93-.15-.31-.36-.39-.62-.23-.08,0-.15.05-.23.1-.1.08-.18.1-.23.1-.15.1-.31.1-.46-.05-.13-.1-.18-.26-.18-.46v-.23c.23-.69.57-2,.98-3.93.33-1.72.98-3.08,1.95-4.11.18-.23.28-.54.28-.93s0-.59.05-.75c.64-2.44,1.13-4.06,1.49-4.86h.1-.18l.08-.1ZM238.82,92.97c-.26-.49-.46-.85-.57-1.08-.08-.23-.03-.46.1-.69.18-.33.41-.39.64-.13.57.57.67,1.18.28,1.82l-.23.13-.23-.05h0ZM242.99,92.12c.13.18.15.33.13.46-.39,1.26-.95,2.31-1.72,3.21l.05.05c-.26-.31-.41-.49-.46-.51-.31-.33-.49-.33-.57.05l-.05.46v-.05c-.26-.08-.44-.23-.51-.46-.15-.26-.18-.49-.05-.69.08-.08.18-.18.33-.33.15-.18.26-.33.28-.41.26-.31.59-.54.98-.69.23-.13.54-.26.93-.41.18-.13.26-.33.23-.69-.03-.26-.15-.49-.33-.64v.05c.46.26.72.46.8.57h0l-.03.05ZM241.39,95.77c-.31.31-.64.31-1.03,0v.05h1.08l-.05-.05h0ZM240.8,83.48c.85.08,1.46.03,1.88-.13-.33.41-.54.75-.57.98-.03.08,0,.15.05.23.08.18.18.23.33.13.08-.03.13-.08.18-.13.03-.15.05-.36.05-.62-.03-.26-.05-.46-.05-.57-.26-.26-.46-.54-.57-.8-.03-.15-.1-.31-.18-.46-.1-.15-.26-.18-.46-.13-.1.03-.18.08-.23.13l-.41,1.44-.05-.05.03-.03ZM242.19,91.55v-.05c.08-.72.13-1.16.18-1.31-.08.62-.13,1.05-.18,1.36h0ZM243.5,87.31l-.18.41c0,.18-.08.28-.23.28-.03.03-.05,0-.05-.18s0-.13.05-.18c.03-.03.15-.13.33-.28l.05-.05h.03ZM243.32,81.38c.18-.18.31-.31.33-.33.03-.08,0-.13-.05-.18-.15-.08-.23.13-.23.57l-.05.18v-.23h0ZM243.5,87.21l-.05.05v.1l.05-.18h0v.03ZM253.16,29.64c-.08,0-.13-.03-.18-.1-.05-.18.05-.28.23-.28l.18.1c.05.18-.05.28-.23.28ZM253.04,34.11h.18l-.05-.18s-.13.18-.1.18h-.03ZM255.04,32.9h.1l-.1.05.05.05-.05-.1h0ZM255.4,24.83l-.1.23c.05.05.1.05.18.05.18-.18.18-.28-.05-.28h-.03ZM256.07,31.64c.05-.08,0-.13-.05-.18-.15-.15-.23-.1-.23.1l.1.18.18-.1h0ZM260.31,23.47c-.33-.46-.46-.93-.41-1.36,0-.03-.05-.28-.18-.75v.05c-.08-.62-.1-1.64-.05-3.14l.05.05c-.77.23-1.16.33-1.21.33-.64.23-.87.62-.69,1.21.23.72.41,1.21.51,1.44.08.23.1.64.1,1.26q-.05.05-.05,0c.23.23.36.33.41.33.05.08.1.15.18.23.15.18.13.41-.05.69-.18.23-.41.26-.69.05-.31-.18-.51-.31-.62-.33-.33-.08-.57,0-.69.23-.08.18-.08.36,0,.51.15.23.26.36.28.41.77.77,1.36,1.36,1.82,1.77.08.1.21.08.41-.1.1-.08.18-.13.18-.18.08-.26.44-.82,1.08-1.64.1-.15.1-.33,0-.51,0-.05-.15-.23-.46-.57l.05.05h0l.03-.05ZM261.11,36.32c.1-.18-.46.64-1.72,2.52-.08.1-.33.33-.8.62-.05.03-.13.1-.28.18s-.26.15-.33.23c-.33.31-.57.64-.69,1.03-.08.31,0,.54.23.69.26.18.51.23.75.1.18-.1.46-.28.85-.51s.67-.54.85-.93c.26-.57.36-.8.28-.69.1-.18.23-.31.33-.33-.05,0,.46-.31,1.54-.93l.51-.05h.05-.1c.1-.31.18-.46.23-.46.31-.8.77-1.39,1.36-1.77.26-.15.44-.31.51-.46.15-.26.39-.57.69-.93.41-.41.67-.69.75-.85.54-.72.93-1.26,1.13-1.59.05-.05.1-.21.18-.51.08-.31,0-.51-.28-.62-.1-.05-.28-.08-.51-.1-.49-.15-.85-.05-1.03.28-.31.57-.72,1-1.21,1.31-.08.05-.18.1-.28.18-.15.1-.26.21-.33.23-.23.15-.57.21-.98.18l.05-.05c-.05.26-.05.41-.05.46-.05.72-.28,1.31-.75,1.77-.08.03-.41.41-.98,1.08v-.05h0l.03-.03ZM258.48,30.79l.18.1v-.18l-.18.05v.03ZM261.11,33.31c-.26-.18-.57-.33-.85-.46-.18-.08-.39-.05-.57.05s-.31.28-.33.51c0,.33.1.64.28.93.15.26.36.36.62.28.33-.1.57-.21.69-.28.23-.1.36-.33.41-.62,0-.18-.08-.33-.23-.41h-.03ZM260.31,23.47l-.05-.05.05.05ZM261.29,51.25v.05l-.05.1.05-.18v.03ZM262.75,3.71c-.26-.23-.57-.28-.85-.18-.39.08-.46.26-.23.57.41.49.82.49,1.21,0l.05-.23c-.08-.1-.13-.18-.18-.18h0v.03ZM263.06,29.12c-.1-.1-.18-.1-.23.05,0,.26.1.46.33.62.08.05.15.05.23,0,.08-.03.1-.1.05-.23-.1-.23-.26-.39-.41-.46h0l.03.03ZM263.39,6.51l-.18.13.18.13v-.23h0v-.03ZM264.6,53.64s0-.08-.05-.1l-.18.05c-.08.1-.05.18.05.18,0,.03.08.03.23,0-.05-.03-.05-.08-.05-.1h0v-.03ZM265.27,18.89h-.05.05ZM266.14,5.81c.05-.08,0-.13-.05-.18-.15-.13-.23-.08-.23.13l.1.1s.18-.05.18-.05ZM265.96,37.01v.1-.1ZM266.58,7.97c.05.08.1.13.18.13.23-.03.31-.15.23-.33l-.23-.13c-.18.03-.26.15-.18.33ZM267.22,61.25l-.18-.05.05.18.1-.1h0l.03-.03ZM268.3,28.1c-.39.05-.69.18-.93.41-.31.39-.31.77,0,1.13.08.1.15.15.23.1.46-.1.85-.36,1.21-.75l.05-.23c.05-.46-.15-.69-.57-.69h0v.03ZM267.92,13.63c-.15.31-.33.51-.57.64h.05v-.57h-.05.62l-.05-.05h0v-.03ZM268.94,34.03c-.1.15-.31.36-.57.62-.05,0,0,0,.05,0,.26-.18.44-.39.51-.57v-.05h0ZM272.93,19.23h-.1v-.05l.1.05ZM273.96,62.69c.23.18.41.39.57.57l.05-.05-.28-.28-.28-.28-.05.05h0ZM277.63,25.06c-.08-.05-.15-.05-.23,0-.1.15-.05.23.18.23l.18-.1-.1-.1h0l-.03-.03ZM288.25,9.69c-.18.08-.26.18-.18.33.08.18.21.26.41.18.18-.08.26-.21.18-.41-.08-.15-.21-.18-.41-.1Z"/>
        <path d="M296,39.07c.25-.72.55-1.3.92-1.72.27-.32.47-.7.57-1.17.05-.07.1-.2.15-.37.05-.17.07-.3.1-.4.27-.92.72-1.77,1.4-2.57l.22-.22c.1-.12.17-.2.22-.25.22-.25.37-.47.45-.7.27-.72.77-1.75,1.5-3.07.1-.17.32-.65.7-1.47-.05.1.02-.1.22-.62.2-.45.5-.92.92-1.35.15-.15.22-.35.25-.57,0-.32.07-.62.25-.92.5-.95.97-2,1.42-3.1.17-.42.5-.67,1-.8.4-.12.75-.17,1.1-.15.27,0,.7.07,1.32.15.15,0,.25.05.3.1.17.1.4.17.7.25.37.07.6.12.7.17.27.1.52.15.8.15.5-.05.95.2,1.35.77.05.07.15.22.3.47.1.22.2.37.32.47.05.07.05.17,0,.32-.05.07-.1.15-.17.25-1.07,1.55-2.07,3.67-2.97,6.32-.07.15-.2.55-.4,1.25-.3,1.05-.57,1.82-.85,2.3-.25.5-.4,1-.45,1.52-.02.42-.17.95-.45,1.57-.17.45-.25.92-.25,1.42v.47c0,.15-.05.3-.17.47-.27.32-.42.52-.47.65-.1.3-.05.55.1.77.02.02.05.05.1.1s.07.07.1.1c.1.15.12.3.1.47-.05.25-.1.45-.15.62-.05.12-.12.32-.25.62-.1.25-.17.45-.22.57-.25.75-.4,1.4-.47,1.9-.02.2-.07.55-.15,1.05-.07.45-.12.77-.15,1.02-.02.12-.07.27-.15.47-.1.25-.25.4-.45.45-.15.05-.25.07-.3.1-.27.1-.37.27-.32.52.1.52.15.8.17.8.02-.12-.02.07-.17.62-.27.92-.45,1.9-.5,2.9,0,.1,0,.25-.02.47s-.05.37-.07.47c-.02.42.15.67.55.77.52.12,1,.27,1.4.45.27.1.5.25.65.45.17.2.45.52.8,1.02.07.07.1.17.07.3-.02.15-.07.22-.17.25,0,.02-.02.02-.07.02-.02.02-.05.02-.07.02-.4.2-.75.3-1.05.32-.27,0-.57.07-.95.25-.27.15-.45.27-.5.4-.17.3-.47.5-.92.62-.12.05-.17.12-.17.22-.02.12.02.22.15.32l.25.15c.2.12.27.3.22.55,0,.12-.05.37-.15.72-.07.3-.12.52-.15.72-.05.52-.05.92,0,1.12.07.3.02.65-.1,1.1-.07.17-.02.32.1.45.27.22.4.52.4.87-.02.22.07.4.3.5.3.17.4.47.3.87-.35,1.22-.65,2.1-.95,2.6-.25.42-.35.82-.3,1.25.02.25,0,.5-.1.8-.15.37-.27.65-.37.87-.3.67-.5,1.37-.57,2.05-.1.5-.2,1.05-.32,1.62-.05.17-.15.35-.3.55-.17.27-.45.42-.8.47-.1.02-.2,0-.3-.07-.22-.15-.4-.3-.52-.45.02.02-.27-.35-.92-1.12-.3-.37-.37-.72-.25-1.05.07-.17.1-.45.07-.8,0-.5.05-.92.17-1.27.05-.2.07-.35.07-.47.02-.37.15-.82.4-1.4.2-.47.3-.95.3-1.42-.02-.62.05-1.77.22-3.45.02-.35.1-.65.25-.92.12-.25.2-.4.22-.45.42-.75.6-1.6.57-2.52,0-.17-.05-.32-.15-.45-.1-.17-.1-.37-.02-.62.15-.55.22-.87.25-.95.02-.15.02-.3,0-.47-.05-.27-.17-.45-.4-.52-.42-.15-.82-.27-1.25-.37-.1-.02-.25-.05-.47-.07s-.37-.05-.47-.07-.62-.17-1.57-.45c-.3-.1-.45-.15-.47-.15-.3-.02-1.2-.2-2.7-.52-.07-.02-.17-.02-.32-.02-.65-.1-1.15.15-1.5.77-.05.12-.07.17-.07.15-.67,1.77-1.05,2.85-1.1,3.22s-.2.72-.45,1.05c-.5.75-.97,1.72-1.47,2.9-.1.22-.17.37-.22.45-.62,1.17-1.2,2.75-1.72,4.75-.25,1.05-.52,1.92-.85,2.62-.1.25-.27.75-.55,1.52-.42,1.27-1.15,2.37-2.22,3.32-.15.12-.27.22-.4.3-.32.12-.62.22-.92.32-.2.05-.42.02-.65-.02-.17-.07-.3-.15-.4-.22-.42-.32-1.15-.77-2.22-1.35-.15-.1-.22-.25-.22-.45s.02-.42.07-.62c.02-.1.07-.25.17-.47.15-.27.42-.85.85-1.75.32-.75.57-1.35.8-1.8-.1.2.07-.2.52-1.17.5-1.12.82-1.87,1.02-2.22.32-.7.65-1.25,1.02-1.65l.3-.4c.12-.17.2-.37.22-.62v-.65c0-.3.12-.57.37-.87.1-.12.35-.4.77-.85.32-.37.57-.85.77-1.42,0-.07,0-.17.02-.32.1-.67.37-1.27.8-1.75.42-.52.75-1.12,1.02-1.82.1-.3.15-.55.15-.8s0-.22-.02-.32c-.07-.52.07-1.1.45-1.72.17-.3.4-.52.65-.7.3-.2.52-.47.72-.87.35-.65.65-1.27.95-1.87,1.27-2.7,2.02-4.27,2.27-4.72.35-.65.7-1.45,1.1-2.35.25-.57.52-1.1.87-1.57.07-.07.22-.3.47-.65h-.02c.02-.1.22-.7.62-1.82h0l-.05.17ZM294.57,48.12s.05-.05.02-.1c-.07-.12-.12-.12-.17,0-.02,0-.02.05,0,.15h.15v-.05ZM297.97,43.47l.1-.07c-.42,1.02-.65,1.62-.72,1.8-.07.15-.12.3-.15.47-.1.55-.35,1.45-.77,2.67-.05.07-.37.87-.95,2.42-.15.37-.25.72-.3,1.1-.05.32.07.55.37.7.15.07.2.1.15.07.82.27,1.3.42,1.4.45,1.42.25,2.32.37,2.75.37s.45.02.8.1c.47.07,1,.02,1.6-.1h.15c.2-.15.32-.27.37-.37.12-.35.17-.77.15-1.32,0-.67.05-1.6.17-2.75.15-1.35.22-2.27.25-2.77,0-.1.02-.25.07-.47.17-.72.22-1.52.17-2.42-.05-.72-.02-1.32.07-1.8.12-.52.15-1.05.07-1.6-.15-1.02-.15-2.1,0-3.25.02-.22,0-.45-.02-.65-.07-.32-.27-.47-.57-.45-.27.02-.45.12-.55.32-.07.15-.17.37-.3.65-.15.32-.25.52-.32.65-.02.07-.1.15-.22.22-.02,0-.12,0-.32.02-.27.05-.47.2-.62.47-.1.17-.22.4-.4.7-.2.4-.32.62-.37.72-.52.92-.85,1.77-1,2.57-.02.1-.05.22-.07.4,0,.2,0,.32-.02.4-.02.1-.07.17-.17.25-.27.22-.5.37-.7.45h-.07v.02h0ZM304.15,28.92c-.07-.12-.22-.1-.45.07-.32.27-.55.55-.7.87-.12.3-.52,1.05-1.2,2.3-.45.77-.77,1.52-1,2.22-.12.4-.3.72-.55,1-.12.17-.57.9-1.4,2.2-.27.42-.42.92-.45,1.52,0,.07.02.17.07.3.12.25.27.27.45.1.15-.15.32-.42.55-.8.35-.65,1.1-2.05,2.22-4.17.92-1.7,1.67-3.1,2.22-4.15.1-.2.17-.4.25-.57.1-.25.12-.45.07-.65-.02-.1-.07-.17-.15-.25h.05ZM300.72,32.62s0-.02-.02-.15c-.07-.25-.2-.3-.4-.15-.37.27-.52.7-.45,1.27.02.07.07.12.17.15s.17,0,.22-.02c.3-.17.45-.4.47-.7v-.4h0ZM303.32,34.39c.12.05.25.02.37-.02.12-.07.17-.17.17-.32s0-.22-.02-.3c-.1-.32-.27-.37-.52-.17-.2.12-.3.3-.3.52-.02.15.07.25.3.32h0v-.02ZM306.22,39.54c-.1-.02-.17,0-.25.1-.1.1-.07.17.02.25.17.12.3.07.37-.1.02-.12-.02-.2-.15-.25h0Z"/>
      </g>
    </g>
  </g>
</svg>