<svg xmlns="http://www.w3.org/2000/svg" id="Layer_2" data-name="Layer 2" viewBox="0 0 1254 233.1"><defs><style>.cls-1{fill:#231f20}</style></defs><g id="Layer_1-2" data-name="Layer 1"><path d="m37 143-8 22-1 2-1 3-3 6-2 3v4l-2 6-2 3v1l1 2-1 2-3 10-1 4-2 2q-1 3-3 5l-4 4H2l-2-4v-2l1-6 10-33v-3l9-29h-1 1v-2l2-10 2-6 4-14 1-1 1-7 4-20 1-6 1-6 1-2 1-1v-2l-1-4 1-7-1-2h-2l-2 1-6 1-2-1-3-1h-1l-1-1-15-8q-3-3-1-6l1-1 5-4 16-6h4l2-1 8-1 6-1h15l2-1h25l12-3 9-1 5 1 2 2v2l-6 14-11 5-37 12-1 1q-2 0-2 3l-1 1-1 16-5 21-2 4v2l-1 1v5l-4 11-2 3-3 2v1l1 2 1 2-2 4zm-27 61zm5-28zm0 13zm4-8-1-1h-1l1 2zm10-29zl1-1zm1-119zl1 3zm-1 114zm3-29zv1zm2-8zv1h1zm3 13zm2-17 1 1v-1zm4 9-1 1 1 1v1h1l-1-1zm1-10zm8-35zm23-23zM150 120l1 1v4l-2 3h-2l-1 2-2 2-5 3-7 2h-1l-5 1h-5l-13 2-5 2v1l-1 1-1 7-3 9-3 2v5l-1 2-1 2v1l-3 9q-1 5 3 8l6 2 15 1 7-1 2-2v-2l2-3 2-2h3l3 1 5 9v3l-1 6-2 4-11 4-3 1h-3l-2 1h-5l-12-1-19-6-3-3-5-6q-4-5-3-11l10-27 1-2 19-64 6-23v-7l2-3 2-5 1-7 2-1 1-1q4-3 10-4h3l3 2 2 5 2 2h31l12 2 2 1q4 3 2 8l-1 3-1 2-2 2-6 2-7 2h-7l-3-1-1-1h-7l-3 1-9-1h-5l-2 1-1 2-15 48 1 1 1 1h1l4-1 21-5 3-2 1-3 4-3 2 1 2 3v7zh-1l-2 1v3h2l1-2v-3zm-69 39zm3 4zl1 1 1-1h-2zm26-61zm27 24zm3-71h-2v1zm-2 74zm4-11zh1zm2-51zm4-6zm0 5zm12-7-1 3h1zm14 3z" class="cls-1"/><path d="m213 143-8 22-1 2-1 3-3 6-2 3v4q1 3-2 6h1l-3 3v1l1 2-1 2-3 10-1 4-1 2-4 5-4 4h-3l-2-4v-2l2-6 9-33 1-3 8-29v-2l3-10 1-6 4-14 1-1 1-7 4-20 1-6 1-6 1-2 1-1 1-2-1-4v-7l-1-2h-1l-3 1-6 1-2-1-3-1h-1l-1-1-15-8q-2-3-1-6l1-1 5-4 16-6h4l2-1 8-1 6-1h15l3-1h24l13-3 8-1 5 1q2 0 2 2v2l-6 14-11 5-37 12-1 1q-2 0-2 3l-1 1-1 16-5 21-1 4-1 2-1 1v5l-4 11q0 2-2 3l-2 2-1 1 1 2 1 2-2 4zm-27 61zm5-28zm0 13zm4-8-1-1h-1l1 2zm10-29zv-2zm2-119-1-1v1zv3zm-1 114zm2-29-1 1h1zm2-8zv1h1zm3 13zm2-17 1 1v-1zm4 9-1 1 1 1v1h1l-1-1zm9-45zM326 120l1 1v4l-1 3h-3l-1 2-2 2-5 3-7 2h-1l-5 1h-5l-13 2-5 2v2l-2 7-3 9-2 2q-2 2-1 4v3l-2 2v1l-3 9q-2 5 4 8l5 2 15 1 7-1 2-2 1-1v-1l1-3 2-2h3l3 1 5 9 1 3-2 6-2 4-11 4-3 1h-3l-2 1h-5l-11-1-20-6-3-3-5-6q-4-5-3-11l10-27 1-2 19-64 6-23v-7l3-3 1-5 2-7 1-1 1-1q3-3 10-4h3l3 2 2 5q1 2 3 2h30l12 2 2 1q5 3 2 8l-1 3-1 2-2 2-5 2-8 2h-6l-3-1-2-1h-7l-3 1-9-1h-5l-2 1-1 2-15 48 1 1 1 1h1l4-1 21-5 3-2 1-3 4-3 2 1q2 0 2 3v7zh-1l-2 1v2l1 1h1l2-2zm-69 39zm3 4zv1l1-1zm26-61zm27 24zm3-71h-2v1zm-2 74zm4-11zm2-51zm4-6zm12-2-1 3h1zm14 3zM400 184l-1-2v-2q2 0 0 0v1l-1-1-2 2-1 1-1 2v2h-3v-4l1-2-1-2-2 1v1l2 1v5h3l2 3-1 1h1l-2 2h-2l-1-1v1-4l-1 1-1 1-3 1-1 2 1 1h2l1 1v2l-4 4-7 6-1-1v1h1l-3 1q-6 5-14 5-4 1-8-2h-1l-1-1h-4l-4-2v-1l-5-7q-2-2-1-3l2-7 1-3 3-8 2-4 13-39v-3l1-3 2-5 1-4 3-4 2-7v1h1v-1h-1l7-38 5-21 5-13 1-1 6-1 2 1h1l1 1q6 3 10 2h1l9 2 7 5 5 4 3 5v1l2 9-2 7-2 3-3 5-7 10-7 7-8 6-1 1v2l1 1 7 5 4 3 4 6 2 5q3 3 2 6v20l-1 1-1 4-6 10-1 2q-1 2-4 1l-1 1v1l-1 2-1 1h-1q0 3-2 3l-1 1zm-60 15zm8 0v2h1v-1zh1v-1l-1 1zm4-35zm3 6zh-1l-1 2v1l1 1zm1 29h-2l-1 1 2 2q2 2 2-1zm1-36zv1zm2 32zl-2 2v1l2 2 10-3 9-8 2-2v1l8-9 2-1h1v-3l3-4 3-6 1-4q1-5 5-8v-2l2-1q2 0 1-2v-2l1-1v-1l1-2-1-7-2-8q0-6-5-7l-1-1-19-6-2 3-1 3-2 11-1 6-2 6v3l-2 5v2zm3-48h-1l-2 4v1h1zm-2 64zm4-2zm7-90q0-2 0 0-3 0-2 2l1 1zm2 86h-1l-1 1h1zm1-92v-1h-2v1h2m-1-27 1 2 1-1-1-1zm0 7zm1-9zh1l-1-1zm5 14zh-1zm2-9zm3-9zm30-23-1-2h-2l-2 1-2 1-4 1-3 1-3 3-1 2-5 12-3 12 1 3 2-1 3-2 15-14 5-12 1-3zm-23 135-2-1zm5-9zq2 0 0 0zm1-5h2l-1-1h-1zm3-11zm1-69zm4 76zl-2-1zm4-10zh-1v1zm-1-80zh1v1l1-2h1v1zm2 61zh2v-1zm3 15zh-1v1l1 1zm-1-5zm7-10zl-3-2h-2l1 3h4m-2 6zh1l1-1-1-1v-1 1zm5-98zM508 120v1l1 4-2 3h-3l-1 2-1 2-6 3-7 2-5 1h-6l-13 2-4 2-1 1v1l-2 7-3 9-2 2-1 4v3l-2 2v1l-3 9q0 5 4 8l6 2 14 1 7-1 3-2v-2l1-3 3-2h2l3 1 5 9 1 3-1 6-3 4-10 4-3 1h-4l-1 1h-5l-12-1-19-6-4-3-4-6q-5-5-3-11l9-27 1-2 20-64h-1l15-47q3-3 9-4h3l4 2 2 5 2 2h30l13 2 1 1q5 3 3 8l-1 3-2 2-1 2-6 2-8 2h-6l-3-1-2-1h-7l-3 1-8-1h-6l-1 1-1 2-15 48v1l2 1h1l3-1 21-5q3 0 3-2l1-3 4-3 2 1q2 0 2 3v2l1 3-1 2v1h-1l-2 1v1l-1 1 1 1h2l1-2-1-3zm-69 39h-1zm3 4zv1l1-1zm25-61zm28 24zm2-71h-2v1zm-1 74zm3-11zm2-51zq0 1 0 0m4-6zm13-2-2 3h2zm14 3h-1z" class="cls-1"/><path d="m524 174-3 13v1l-4 14-2 5-5 10q-1 3-6 4h-2l-4 1-1 1-3-1v-9l1-3 1-3 1-4v-5l1-3 1-4v-2l1-2 3-8 1-2 2-2 3-13 3-12 2-5q0-2-2-2h-3l-2-1v-2l2-1 9-6 3-5v-1l2-5 2-7 1-3 8-25 10-33 1-3 4-16 1-2v-2l4-4 5-1h2q3 0 2 3v2l-3 13-3 13-5 17-9 46h1l16-4 2-4 2-5 2-4 3-7 1-4 1-5 11-35 9-25 3-11v-5l3-4 2-1 4-2 5-2 4-1 3-1 2 1 1 1v4l-15 34-1 3-1 3-2 8-1 4-3 8-2 6-3 8-2 2-1 1v1l1 3h-1v1l-1 2v1l-2 8-1 2-5 16-4 13-1 5v2l-1 2-2 7v15l-1 3-1 2-2 17-1 8v7l-1 5v4l-2 13q0 4-3 7l-8 5h-7l-2-2-1-2v-6l1-6 11-52 4-34q-1 0 0 0h-2l-16 8v2l-10 24-3 5zm-20 21zm2-11zv1l1-1zm0 31zm4-44-1 1zl1-1 1 2h2l1-1-1-1h-4m-1 5zm25-70zh1zm4-10zm4-11zm4-11zm3-18-1 1v1h1v-2m6-28zm6 116h-1zm17-52zm4-23zm1 18zm2-11zm5-15zM730 160l1 2v1l1 1 1 2 1 1 3 4 7 8 6 8 3 9 1 10-1 1-6 4h-1l-2-1-8-8-1-2-3-2-27-34v-6l1-1v-2l-2-1-1 2 2 2h-3l-1-1-3-3-3-3-1-1-2 1-1 2-3 9-9 41-2 10-1 3-2 2-3 1h-1l-1 1-3-2q-2-2-2-5v-4l3-9 5-22 2-10 10-38 8-26 3-8 2-8 1-3 1-1 1 25v-2l1-1v-1h1l2 1v-1h1l1-1-1-3-2 1v-3l-1-3v-2q-1-3 2-4h1l2 2 2-1 2-1 1 1v1l-2 1-1 1-2 2q0-1 0 0l1 1 2 3 1 1h2l4-3 3-2 3-3 8-4 1-1v-1l3-3 3-3 12-11 14-18 4-5 7-3 3-1h2q3 0 3 2l2 1v5l-2 5-4 4v-1 1h1l-3 3a171 171 0 0 1-30 27l-34 30-2 5v8l1 4 5 4v1l-1 1v1l3 3 1-2h1l7 10 1 2v1zm-36-30h-2l1 1v1l1-1zm4-16v2l2 1v-3zm5 24-2 2-1 2q-2 0-2 3v3l1 1 1 1v-4l1-2h1l3-2v-2zm-4-57 7-24 1-3 2-7 2-1h1v1l-1 2v1l2 3 1 3-1 3-1-2v-1l-1 1 2 2 2 2h3l2 2h3v2l-1 2-1 1h-2l-2 1v1h2l1 1v1q0 5-3 8l-1 1-1-1h-1l-2-1-1 1v1l1 1h-5v-1l3-4v-1l-3-2-1 1-1 1-1 1-2 4-3 3zm4 20zm1 12zv1h1v-1zm2-49zm8 84-1-1-2-2h1l-3 2-1 2 2 1 4 1zh4v1h1-1l-1-1zm-3-42v-2l-1-1-1 1-1 4h1l1 1 1-1zm-1-69 1-1q3-4 6-5l4-2 7-3h4l2 1v2l-1 10h-5l-2-1h-4q-2 0-3 2v1h-2v-1h-4l-1 1-2-1v-3m2 30zm0-22zv1zm1 116zm2-97zh-1l-1 1 1 1zm-2 46zv-1zm5-6-1-1h-1v2zm0-30zl-1 1zm-2-16zm1-11zv3zm1 127-1-1zm3-124h-3zm0 55zm0-59zh1v4l-1 1zm0 9zm0 1h3v2h-1zm1 98zm3-104zm0 119zm1-125zm0 57zm3 57v-1zm3-61zl1 1v-2m2 81zm0-5q-1 0 0 0-2 0 0 0m39-117zh2zm3-5h1zm1 3zM814 89l3-7 2-4 1-1v-2l5-9 1-1 1-1 1-2 6-11 3-8 3-5 1-2 1-3 5-11q1-3 4-3l4-1 8 2 3 1h3q2 0 5 3l2 3v2h-1a94 94 0 0 0-12 28l-3 8-2 6-1 6-1 5v2l-1 1-1 3v3h1v4l-2 5-2 10-1 4v2l-2 1-1 1-1 2v5l-2 12-1 2 2 3 5 1 3 2 3 3v1l-1 1v1l-4 1-3 1-2 1-4 3v2h1l1 2-1 3v12l1 3 1 2q2 2 1 3l-3 10-1 4v3l-2 3-2 8-2 8-3 1h-1l-2-2-3-4q-2-1-1-3v-3l1-5v-2l1-5 1-5 2-16 1-1q3-4 2-10v-1l-1-2 1-6-1-1-8-2-18-4q-4-1-6 2v1l-4 12q0 2-2 3l-6 13-6 17-3 9-2 6a27 27 0 0 1-10 13l-3 1-4-1-8-5-1-1 1-4 8-17 7-14 2-2v-4l2-4 2-3q3-2 3-5v-1l3-6 4-7 1-3-1-1 2-6 2-3 3-3 21-41h-1zm-5 32h-1v1zm12-16zl-2 7-1 2-3 9-4 13 1 3h1l5 1 18 2h1l1-2 1-4v-10l3-27V78l-2-2-2 1-1 3-2 2v1h-2l-2 2-1 2-2 3-4 12v1zm22-53h-1l-3 3-4 9-4 8-2 3-5 8-2 6 1 1h1q2 0 2-3zm-12 13-2-1q-2 2-1 5h1l2-2zm9 7h2v-3h-2l-1 2zm11 18-1 1v1l1-1z" class="cls-1"/><path d="m907 143-9 22-1 2-1 3-2 6-2 3-1 1v3l-1 6-3 3 1 1v4l-3 10-1 4-2 2-4 5-4 4h-3l-1-4v-2l1-6 10-33v-3l8-29v-2l3-10 1-6 5-14v-1l1-7 4-20 1-6 2-6v-2l1-1 1-2-1-4 1-7-2-2h-1l-2 1-7 1-1-1-4-1h-1l-1-1-15-8-1-6 1-1 5-4 16-6h5l2-1 7-1 6-1h15l3-1h24l13-3 8-1 5 1q3 0 2 2v2l-5 14-11 5-37 12-1 1q-2 0-3 3v1l-2 16-5 21-1 4-1 2v1l-1 5-3 11-2 3-3 2v1l1 2v2l-2 4zm-27 61zm5-28h-1v1zm-1 13zm5-8-2-1v2h1zm9-29zh1l1-1-1-1zm2-119-1-1v1zl1 3h-1zm-1 114zm0-18zm2-11zh1zm3-8-1 1-1 1h2zm5-4v1zm4 9-2 1 1 1v1h1l-1-1zm8-45q-2 0 0 0 1 0 0 0M1020 120l1 1v4l-2 3h-2l-2 2-1 2-6 3-7 2-5 1h-6l-13 2-4 2-1 1v1l-2 7-3 9-2 2-1 4v3l-1 2-1 1-3 9q0 5 4 8l6 2 14 1 7-1q2 0 3-2v-2l1-3 3-2h2l3 1 5 9 1 3-1 6-3 4-10 4-3 1h-4l-1 1h-5l-12-1-19-6-4-3-4-6q-5-5-3-11l9-27 1-2 20-64h-1l15-47q3-3 9-4h3l4 2 2 5 2 2h30l13 2 1 1q5 3 3 8l-1 3-2 2-1 2-6 2-8 2h-6l-3-1-2-1h-7l-3 1-8-1h-6l-1 1-1 2-15 48v1l2 1h1l3-1 22-5 2-2 1-3 4-3 2 1q2 0 2 3v2l1 3-1 2v1h-1l-2 1v1l-1 1 1 1h2l1-2v-3zm-69 39zm3 4zv1h1v-1zm25-61zm28 24zm3-71h-3v1zm-2 74zm3-11zm2-51zq0 1 0 0m4-6zm1 5zm12-7-2 3h2zm14 3h-1zM1063 76l2-1h1l1-1v-1l-1-1-1-1 1-5 2-4 3-5a64 64 0 0 1 17-17l7-4 9-5h2l3-1a20 20 0 0 1 13 4l4 2 10 9 2 3 2 3q3 5 2 11l-1 4-2 5-1 2-20 23-3 2-21 11-9 1h-7l-2 1q-2 2-3 5l-3 6-3 7-7 20-2 6-1 5-5 19-4 19-1 3-1 4-2 4-5 5-2 1-1-1h-1l-4-6v-3l1-1 2-7v-4l1-1 3-9 1-4 10-36 6-22 5-19V85l3-8 1 2h2-2l-1-2zm-20 115zm17-70-1-1-1 1-1 2 1 1 1-1 1-1zm10-39v-4 1l-1 3h-2v1h2l1 2h2-2v-3m0 1h-1v-1zm1 18zm1 7 1 1 1-1zm11-33v2l1 2 2 2 2-1 4-1h2l2-1 3-1 6-5 2-2 2-2 8-10 2-4-1-4-3-1q-6-1-12 1l-3 2-5 2h-1l-6 5-1 2-2 5v3l-1 3zh-3v-3l1-2 1-1-1-1q-1-1 0 0l-1 1-1 1-1 1h-5v2h1l6-1v3zm-6 8zm3-2v1zm8 12zm4 3zm2-4zm0-51q1 0 0 0 0-1 0 0m3 57zm3-62h-2v2zm4 43zm1 14zM1140 131l1 1h1v-1zl1-6 1-2v-2l1-3 4-8h2l1-1q2-2-1-3v-1q-2-1-2-3l8-21 1-2 3-9-1-4v-3l13-38 2-1h3q4 2 7 6l3 6v4l-3 7-7 17-16 56-1 5v4h2l3-3 6-9 1-2 4-6 1-2 1-1 1-1h1q3 1 4-1l4-9 2-6 3-5 1 1v1h1l1-1 1-3v-2l1-2 1-2 1-2 4-6 7-4 1-2 2-2 1-1h2l2-1 1-1q1-3 5-4v1l5-4h2l1 1 2-1v-1l4-1h1l2 2-2 2 1 1h1v1-4l3 2q3 1 3 4h3l3 4 1 3-1 4v1l-1 7-1 7q-2 6-6 11l-1-1-2-2-1-1-2 1v1l1 1h4l1 1v3l-1 3-1 2-5 10v4l-3 5-12 26-2 4-2 5-3 6-1 3-1 3-2 9-1 4-1 7 1 1h1l6-9v2l-8 27v2l-2 5-2 4-1 7 1 4v2l-1 2h-1l-2-1-4-7-1-3 2-12v-15l1-4 1-1 2-1v1-3l1-1v-2l-1-7v-2l1-3 1-3 2-4 4-20v-6l1-1v-2l-1-1v-3l1-3v-9l1-2 1-2 5-23 2-10h-1q-4 0-6 3l-16 19h-2l-3 3-2 6-1 2-3 4-2 3-1 3-1 3-1 4-7 13-6 11-4 9-1 3-2 2-1 5a61 61 0 0 1-9 21h-6l-6-4-3-3-1-1-1-2-1-1-2-5v-1l-1-6v-2l1-3 2-4v-2l1-4 1-6 4-17 1-1v-1zm16-38h-2 2l4 1-5 4-3 1-2 1v1l6 1 1-1 2-3 1-2v-2l-2-1zm12 32h2l2-1v-3l-1-1h-2l-1 4zm-22 47zm33-48v-2l-1-1h-1l-1 3 1 2zm2-9zm6-1zm20-38zm6-10zm-4 14v2h1-1zm7-8-2-1v1l3 3h1v-2h-1zm-6 14zm16-24zl-1 1zm3-4zm-4 17-1 1 1 1 1-1zm4 0zm-3 8zm3-3zl-1 1v1zl1 2h1l-1-1zm8-19zm5-3zm-8 23q0-1 0 0m9-13h-2zm4-7 2-1v-1h-1l-2 1v1zm-11 25h1v-1zm9-11-1-1-1-1v1h1zm-5 6zm3-3h-2l1 1zm-29 65zh-2l-1 2h2zm32-58v-1zm-26 63 1-3-1-1h-1l-2 2-1 2q1 2 2 1zm2-11zh1v-2zm-4 41v-2z" class="cls-1"/></g></svg>