<svg xmlns="http://www.w3.org/2000/svg" width="238" height="78" fill="none" viewBox="0 0 238 78"><path fill="#000" d="m23 26 1-2 1-1v-2l2-3 1-1v-1l2-4 2-3 1-1V7l1-1 1-5 2-1h3l1 1h2l2 1 1 1v1l-5 11-1 3v2l-1 2v3h-1v5l-1 1v4l-1 1v1h-1v3l-1 5 1 1 2 1 2 2-1 1h-2l-1 1-1 1h-1l1 1v7l1 1v1l-1 4-1 1v3l-1 3-1 2-1 1-1-1-1-1-1-2v-1l1-1v-3l1-2v-6h1l1-4h-1v-1l1-2-1-1-3-1h-3l-4-1-2 1-1 5-1 1-2 4-3 7-1 4v2l-4 5H3l-3-2v-2l3-7 3-5v-1h1v-2l1-2 1-2 1-2 2-3v-1l1-3v-1l1-1 8-15zm-2 13q0-2 0 0m5-7-4 13h2l7 1h1v-2l1-4V22h-1l-1 1v1h-1l-1 1v1l-1 1zm8-19zl-1 1-1 3-2 3v1l-2 3-1 3h1l1-1zm-5 5zl-1 2h1zm4 2zm4 7zM59 62zv-1 1-1l-1 1v1l-1 1v-3h-1v1h1v2q0-2 0 0l1 1v1h-1v-1l-1 1v-1h1l-1-1v1l-1 1h1v1l-1 2-3 2v-1 1h-1l-4 2-3-1h-2l-1-1h-1l-1-3-1-1 1-2 1-1 1-3v-1l5-13v-2l1-2v-1l1-2 1-2v1-5l1-1v-4l1-4 2-7 1-4h4l3 1h1l3 1 2 1 2 1 1 2v6l-1 1-1 2-3 3-2 2-3 3h1l2 2 1 1 2 2v2l1 2v7l-1 1-3 5h-1v1h-1v1l-1 1zm-18 5zm3-10zv1zm0 10zm0-12q0-2 0 0m1 10zl1 1 3-1 3-3 1-1v1l3-3v-1h1v-1l1-1 1-2v-1l2-3v-1l1-1v-4l-1-3-1-2h-1l-6-2-1 1v3l-1 3-1 2v4zm1-16-1 2zm-1 22zm2-1zm2-30zm1 29zm0-31zm0-10q1 0 0 0m1 5zm1-3zm1-3zm10-8zl-4 3h-1l-1 4-1 5h2l2-2 1-1 1-2 2-4zm-7 45zm1-3q0 1 0 0m1-2zm1-26q0-1 0 0m1 25zm1-30zm1 20zm1 6zm0-2zm2-3zh-2l1 1zm-1 2zM67 61zv-4l1-1v-2l1-1v-1l1-1v2-1h2v-2l1-1h-2l-1 1h-1v-2h1l-1-1 2-6 1-2 1 1-1-1v-3l2-2 1-1v-1l4-5v-1l2-2 4-2h3l3 1 1 1q2 1 2 3v3l1 2v1l-1 9-2 7-2 6-1 2v2h-1l-1 2-1 1-1 2-1 1-3 1-3 1-1 1-1-1h-3l-3-1-1-1h-1l-1-1h1l-1-1v-1zm16-3zl1-2 1-1 2-4 2-7v-1l1-3v-7l-1-3-2 2-6 8-1 2v1l-1 1-1 1v-3h-3 1v2h1l-1 1-1 1v1-1l1 1 1 1v6l-1 1v1l1 1v4h3v-1l2-2zm-7-21zv1zm1-4zm2-3zm1 3zm2 1zm4 23zl-1 1-1 1h1zm1-1v1l1 1v-2zm2-28zm0 29zm1-10zM124 49v2l-1 2v-2l-1-1h-1v1l-3 9v4l-2 6-1 2h-2l-1 1-2 1h-5l-3-1-2-3h-1v-2l-1-1-1-2v-9l1-4 1-5 1-3 1-7h1v-2l1-2 1-2 2-6 5-9h2l1 1 1 1v3l-1 1-3 4-4 13v2l-1 1-1 4-1 2v7l-1 9 1 1v2q1 2 2 1v-1l9-16 1-3 2-4v-3l1-1 1-2v-5l1-1v-5l1-4 1-3 1-2h1l2 1 1 1h1v2l-3 9v-1h-1l-1 4v2l-1 3v1l1 2v1h1v-1l1-1 1 1h-1v3h-1v2l-1 1v-2l-1 1v2zv-1zM99 63zm0 2zm0 1zm3-3zl-1-1v1h2m-1 2zm3 6zm0-30zm1 30zm18-27zl-1 1v1l1 1 1-1zm0-2zm2 2"/><path fill="#000" d="m139 47-2 6-1 1v2l-1 2-1 1v3l-1 1v2l-1 3v1l-1 1-1 2-2 1h-1v-4l1-2v-1l1-2 1-4 1-1v-2l6-23 1-7 1-2v-3h1l-1-2 1-2-1-1-1 1h-3l-1-1h-1l-4-3-1-2 2-1 6-2h1l1-1h9l1-1h8l4-1h5v2l-1 4-4 2h-1l-1 1h-2l-7 2-1 1h-1l-1 1v1l-2 12v1l-1 1v2l-1 4-1 1h-1v1h1v1l-1 1zm-9 20zm2-5zm1-3zm3-9zm1-40zm0 29q0-1 0 0 1 0 0 0m1-3zm2-2zm1 4zq1 1 0 0M204 41v3l-1 2h-1l1-1v-1l-1-2h-1v1l-1 1-3 10v4l-1 1-2 7-1 2-1 1h-2l-1 1-2 1h-6l-3-2-3-3-1-1v-1l-1-2-1-2V49l1-4 1-6 1-4 2-8 1-2 2-6 2-6 6-12h2l1 1 1 1 1 1v3l-1 1-3 6-3 9-2 4-1 5-1 1-1 5-1 2v9l-1 9 1 2v3h3l1-3 5-6 2-5 1-2 2-4 1-3 2-7v-1l1-2h1v-7l1-2v-6l1-4 1-4 2-3h1l2 1 1 1 1 1h1v2l-1 2-1 1v2l-1 9v5h-1q0 2 0 0v-9l-1-1v1l-1 4v2l-1 4v2l1 2v1h1l1-1v-2l1 1v1l-1 1v2l-1 1v2l-1 1v-3l-1 1v3zv-1zm-30 17zm0 3zm4-3zh-3v1h2zm-2 2zh1zm3 6zm1 1zm0-35zm10 24zm5-15zm3 7zm4-13q0-1 0 0l-1 1v1h1v-1zm0-3zM229 21l-2 1h-1q0 1 0 0h-1 1-1v1l-1 1h-1 1v1l-1 1-2 2-2 2v1l-1 3v2q0 3 2 3l2 3 3 4 2 5v4l-1 5v1l-1 1v1l-1 2-1 1-1 1-1 1-7 2v1h-4l-3 1-2-1h-1l-1-1h-1l-1-1-1-1v-2l-1-1 1-1v-1l3-3 6-1h3q3 0 7-2l2-1v-1l1-4-2-3v-1l-1-1h-1v-1l-3-5-1-1v-9l1-3v-1l1-2 1-2 1-1 7-5 7-4 3-1 2 1 1 1v2l-1 2-1 1h-1l-4 2v-1zm-23 45zm15-45q0 1 0 0m2-3zm1 2v1h1zm3 1"/></svg>