<svg xmlns="http://www.w3.org/2000/svg" data-name="Layer 2" viewBox="0 0 1105 285"><g data-name="Layer 2"><path d="M0 206h2q3 2 4-3v-4l1-14 1-3 1-3 1-2 1-2 3-8v6l1 1 2-1 4-1-1 1v-2l2-2 1-2v-1l1-3q2 0 2-3l-1-2-1 1-1 1h-3l-6 1-1 2h-2v-1l2-4 1-2v-5l8-22 3-9 3 2h2l-1-1-4-1q-2 0-2-3l2-9 5-7q2-4 5-6l3-2 21-35q5-5 17-7h11l12 5 7 4q6 3 7 10l1 12 1 8 1 4-2 24-3 15-6 26-8 25q0 3-3 5l-1 2v4l-2 3-1 3q-3 4-6 5l-1 1v1q1 2-2 4l-5 6-5 4-9 6-19 5h-2l-2-2-1-1h-3l-1 1h-1q-3 3-5 1l-14-6-2-1q-3 1-6-2l-1-3 1-1-1-3-2-3zm19-27h-1zm5-3zm38 17q1-4 4-6l2-3 6-9 2-7a80 80 0 0 0 9-29l1-5 1-11 1-26-3-13h-2q-1 0 0 0-5 2-8 5l-24 34-3 7-1 3-2 5-4 6-1 1-1-1-1-2h1l-1-2 1-9h-3l-3-1h-3v1l3-1 1 8v2l-1 2-6 6v1l-1 1 1-1v-1q3 1 6 5l2 2 2 4-2 9v2l-1 7-1 7 2 9q2 3 1 7l-1 4 2 4h3q4 0 6-3l3-1 9-8zq1 0 0 0m-35-22zl1 1zm8-59-1-2-1-1q-2-1-2 1v1l2 1zm3-16 1 2h1q2 0 1-1l-1-2 1-2-1 2zm8-12zv1l1 1 3-1v-1zm5 11v-1h-1zm7-4zm3 109v-2h-1l-1 1 1 1m0-102zl-1 1zm15 92-1-2h-1l-4 3v3l2 2 1-1q3-1 3-4zm5-2-1 4q0 2 2 2h2l1-5-1-3-2-1-1 1zm7-111h-1q-1 2 1 2zm1 113zv1zm0-21v-3 3m5-18v2l1-1zM229 160v6l-1 3-3 6-1 1v-1l1-6q1-4-2-6h-4l-1 2-1 4-11 34-2 6q-1 3 1 5v4l-1 2-7 22-4 8-4 2-5 1-2 2-2 1-8 4h-6l-1 1h-7l-4-1-3-1-8-5-11-10-1-1-1-1-1-3q0-3-2-4-2-2-3-5l-2-6-2-6v-4l1-6v-11l1-11 2-15 3-18 4-14 7-26 1-3 2-7 2-6 4-11 8-23 14-32q2-3 6-5l5-1 5 3 3 2 3 6q2 3 2 7l-2 3-13 22a268 268 0 0 0-18 53l-1 6-3 6-3 15q0 4-4 7l-1 1q-3 3-1 6l1 2q2 3 1 6l-1 8-1 7-1 33 1 6 2 9q3 6 7 1l1-1 27-47 4-7 6-13 4-11 2-6 3-8 1-2 2-6v-5q0-3 3-5l2-1 3-5-1-14v-4l3-6v-5l-1-10 1-7 4-14 4-14q1-5 5-8h5l6 3q4 2 4 5l2 1 1 1 1 1v6l-2 5-1 3-2 1v8l-5 28v19l-1 1-1-1-1-32-1-1-2 1-1 1-3 13v8l-1 12-1 4v2l2 8 2 2h2l2-2 2-5h1q2-1 2 1v2l-1 2-1 4-2 6-1 3q-3 1-3 4v2l-2 4 1-6-1-1-1-1-4 2v8l1 2 1 1 1-1 3-5zm-101 57-1-1h-2v1l2 1zm-1 8zm0 4zm14-14zh-4q-1 1-4-1h-2v2l2 2h3l2-1zm-6 9v2l2 1v-2l-2-2h1l1-1-1 1zm10 20zm2 4zv1zm2-120zl1 1zm2 118zm5-150zm13 155zm12-40zm19-51zm7 24zm16-46-2-1q-3 1-3 4l1 3 2 1 3-1v-2zm0-8zl-1 1 1 1h2zm8 8 1 1 1-1h-2M319 158l4 4q6 8 7 19l1 6-3-1q-1-1-2 1l-1 1-6 2h1q-2 1-2 4v1q-3 2-3 5l1 1-1 1h-1l-1-2-2-2-9-20-12-16-1 1-6 13-3 10-1 7-3 24v5l-1 7-1 7-1 3h1l-2 5v3l-1 2-2 7v3l-1 3q-1 2-3 2h-1q-2 1-1 3l3 2v1l-1 1h-4v-4l-2-2-1 1-1 2q-1 3 2 3h2l-1 5-3 8h-3v-1h-1l-2-1h-1q-2 1-3-1l-2-2q-2-3-1-6l1-11q0-2 3-2l2-1 1-3 1-2 1-2v-1l-3-3-1-1 1-2 3-4v-2l-1-6 13-61 1-7v-3l2-8 2-7 1-4v-2l-1-4v-2l-1-3-2-2 4-4q3-1 1-4l-2-2h3q3 0 5-3l4-11 5-17 5-22 16-48 1-3 7-14 6-2h3l4 2 2 2 3 4 1 5 2 1h1l23 7 8 6 4 5 6 8 3 4 4 9 3 13-1 11-1 3v4l-1 2q-1 7-8 13l-10 10-14 13-5 1h-1q-4 0-4 4l1 1v2l-2 2-8 4-2 2-2 2-6 3h-3l-2-1h-1l-5 2v5l4 6zm-69 104zm4-15zv-1zm5 7zm11-134q0 1 0 0zm61-79-9 12-7 18-15 50 2 1q1 0 0 0l18-4 3-3 2-4 6-6 14-14 14-19 3-4 4-7q2-6-1-10l-9-12-5-2-11 1q-4 2-10 3zm-12 167h-4zm-3 0zm3-18q4 2 4 6l-1 1-4-2 1-1 1-2zm5 32-2-6 1-2q2-3 5-2l3 2v1l1 5h-5l1-3-1-1h-1l-2 2zm8-13 6 2 1 2v2h-1q4 2 5 5 2 4 1 7v3q0 6 2 9v3l-4 3q-2 2-3 1-4-3-5-6l-2-4-1-2-2-3-2-1-1-2-2-6h2l1 1q2 2 5 1h3v1l1-2q2-1-1-1l-3-2 1-3 1-4zm-6-171zm3 170-1-2 1-1 3 2v2zm0-183zv1zm0 168zm3 6v1zm0 1 1 1h-1zm9-81-2 1 1 1q2 0 1-2m9-1 3-2 3-2 2-2v-2l-1-1-3 2-5 4-1 1v2zm5-32zm27 2h-2v2h-1v1l1-1zM518 260l-4 1-3-2q-2-3-3 0-2 2-3 1h-1q-4 1-12-2-5-1-11-6l-7-10q-4-7-6-14l-6-22v-11l1-6 1-8-1-4q0-6 3-11l11-26 1-2q3-1 3-4v-2l-1-3v-3a294 294 0 0 1 56-80l23-16 7-3 17-2 10 1 3 1 3 2 2 1 1 3q1 3-1 6l-4 5-10 8q-4 4-9 2l-2-1q-3-2-7 1l-18 18-10 11-10 12-4 5-8 12-17 27-5 14-1 1-2 7-1 5-1 2-4 18v27l2 5 4 5q2 3 5 3l6 1h15l3-1 8-2q3-1 4 1l2 3v1h2v-3l4-4 4-1 4-1 12-4 5-1 1 1-1 12-4 13-3 4-1 3-2 2v-2l-1 1 1 1-1 2-9 4-3 1-4 1-4 1v1h-7l-4 1-5-2h2l-2 1zm-29-126h-1l-2 5 1 1q2 0 3-2v-3zm-2 13zh1zm7 5zm7-23 1 1v-1zm2 110zm5 0zh1v-2zm3 6zm12 1zm6 9-1-1h-1zm3-14zv-1zm2 13v1l1 1 1-1zm3-18zm4-162h-1v1zm6 149-1 1 1 1zm9 21zl1 1zM643 95l4-9q3-2 3-5l1-2 1-2q1-7 6-13l1-1 1-1 3-3q1-6 7-15l4-10 5-7 1-3 1-4 7-15q2-3 5-4l5-1 12 3h3l4 1q3 0 6 4l3 4v3a127 127 0 0 0-17 37l-4 11-2 8-2 7-1 7v3l-1 2-3 3 1 4v1h1l1 2-1 3-3 6-3 15v5l-1 2-2 2-2 1-1 2 1 4-1 3-3 16v3q0 3 3 3l6 3q3 0 3 2 2 1 4 5l1 1-1 1v1h-1l-5 1-5 2-2 2-5 3v2l1 1q2 1 2 3l-1 3-1 4v13l2 4q-1 2 2 3l1 4q-2 9-5 12l-1 7-1 3-1 5q-3 4-3 10l-3 10-4 2h-2l-2-2-5-6-1-5 1-4v-6l1-2 2-7 1-7 2-21 2-2q3-6 2-12v-6l1-7-2-2-11-3-25-5q-4-1-7 4 0 1 0 0l-6 16-2 5-8 16q-5 9-8 24l-4 12-3 8a37 37 0 0 1-13 17l-4 2h-4l-1-1-11-7-1-2v-3l1-2 10-23 10-19 2-2 1-3v-3q0-2 2-5l3-4q3-2 4-7v-1l4-9q3-3 5-9l1-4v-1q-1-5 2-8l3-4 4-4 27-54zm-7 44zm17-23-3 8-1 3-9 24-1 6q-1 2 2 3l1 1 6 2 25 1h1l2-1 1-7 1-13 2-36 1-8V80q-1-2-3-2l-3 1-1 3-2 4-1 1h-2l-3 2-2 4-1 3-6 16-1 2zm30-71-3 1-3 4-6 11-5 11-2 5-7 11-2 7v1q1 3 2 1l3-4 23-46zm-17 18q0 1 0 0-1-3-2-1-3 2-2 6l1 1h1l2-4zm13 9h1l1-2v-1q0-3-2-1l-2 2zm14 25-2 1 1 1 1-1zM828 160l-1 6-1 3-2 6-2 1v-1l1-6q1-4-2-6h-4v2l-2 4-11 34-2 6 1 5v4l-1 2-7 22-4 8-4 2-5 1-2 2-2 1-8 4h-6l-1 1h-6l-4-1-3-1q-6-2-9-5l-11-10-1-1-1-1-1-3q1-3-2-4l-3-5-2-6-1-6-1-4 1-6v-11l1-11 2-15 3-18 4-14 7-26 1-3 2-7 2-6 4-11 8-23 14-32q2-3 6-5l5-1 5 3 3 2 3 6q3 3 2 7l-1 3-14 22a268 268 0 0 0-18 53l-1 6-3 6-3 15q0 4-3 7l-2 1q-3 3-1 6l1 2q2 3 1 6l-1 8-1 7-1 33 1 6 2 9q3 6 7 1l1-1 27-47 4-7 6-13 4-11 2-6 4-8v-2l2-6v-5q0-3 3-5l2-1q2-2 3-5 1-9-1-14l1-4 2-6 1-5-2-10 1-7 4-14 4-14 5-8h5l6 3q4 2 4 5l2 1 1 1 1 1v6l-1 5-2 3-2 1v8l-5 28v19l-1 1-1-1V84l-2-1-2 1-1 1-3 13v8l-1 12-1 4 1 2 1 8 2 2h2l3-2 1-5h1q2-1 2 1v4l-2 4-2 6-1 3q-3 1-3 4v2l-1 4v-7l-2-1q-3 0-3 2l-1 8 1 2 1 1 2-1 2-5zm-102 57-1-1h-1l-1 1 2 1zm-1 8zm1 4zm13-14zh-4q-1 1-4-1h-2v2l2 2h3l2-1zm-6 9v2l2 1v-2l-1-2 1-1-1 1zm10 20zm2 4zl1 1zm2-120zl1 1h1zm2 118zm5-150zm13 155zm31-91zm7 24zm16-46-2-1q-3 1-3 4l1 3 2 1 3-1 1-2zm0-8-1 1v1h2zm9 8v1zq-1 0 0 0M946 58l-8 6-2 2h-3l-1-1-3 2-4 3h-2v2l1 1v2h1l-5 6-7 7-6 9-1 3-5 11v10q3 8 7 13l12 11q6 6 11 16l7 19 1 16a44 44 0 0 1-5 19l-2 5v5l-1 3q-2 6-6 9l-3 2-4 7q-1 2-3 2l-20 8-7 1-2 1h-1l-6 1-4 1-5 1h-1q-6 3-12 1l-5-1-6-1-3-3-2-2h-2l-1 2-5-7-3-3-2-6-1-5 2-6 1-2q6-8 13-11a62 62 0 0 1 23-4h10q15 0 28-8 6-3 9-7l2-3q4-7 3-15a15 15 0 0 0-7-12l-3-4-4-6v-1q-7-6-16-20l-2-6a115 115 0 0 1-1-36q0-6 3-13l1-2 15-21a128 128 0 0 1 25-20 152 152 0 0 1 31-16q5-3 10-3l6 2q4 3 5 7l1 1v1q1 3-1 6l-2 6-1 1-2 2-5 2-17 6-2-2v-1l3 2zm-94 182q0 2 2 2l1-1-1-1zm13 14zv1l1-1zm40-168zm10-26zl-1 1 1 1 1-1zm9-11zm4 7v5h1q3-2 1-5zm4-5zl-1 1 1 1zm6 7zM1064 137l1 2v4l-2 4-3 1q-2-1-2 2l-2 3q-3 3-8 3l-9 3v1h-8l-7 1-17 2-6 3-1 2v1l-2 9-4 12-4 3-1 5 1 1-1 3-2 3v2l-4 12q-1 6 5 10l8 3 19 1 9-1q3 0 4-3v-3l2-3 3-3 3-1 4 2 7 12 1 4-2 9q0 3-3 4-6 4-14 6l-4 1-5 1h-8l-16-1-26-7-5-4-6-9q-6-6-4-15a161 161 0 0 1 13-36l1-3 26-85h1-1l8-38v-2l4-5 1-6 2-10 2-1 2-2 13-5h4l5 4 3 6 2 2h15l36 2 7 2 2 1q6 4 3 10l-1 4-2 3-2 2-8 4-10 2h-4l-5-1h-4l-2-2h-6l-3 1h-4l-12-1h-7l-3 2-1 2-17 55-2 11 2 1h1l5-1 28-6 4-3 2-4q0-3 5-4l2 1q3 1 3 3v4l1 4-1 2-1 1-1 1-2 2h-1v1l1 2h2l2-2-1-4zm-93 52zq1 0 0 0zm4 6zv2l1-1zm35-83zm36 33q1 0 0 0zm4-95h-3v1zm-2 98zm5-13zm2-69zl-1-1zm7-2q-1 0 0 0m15-9-1 4h1zm19 4z"/></g></svg>