<svg xmlns="http://www.w3.org/2000/svg" width="507" height="97" fill="none" viewBox="0 0 507 97"><path fill="#fff" d="M0 96h1zM1 96h1zM9 95l-5 1zM6 95zl2-1zM5 95zh2zM15 95h-2v-1l-3 1h5M122 81zM152 78h1zM104 83h-1zM93 84zM142 78h1zM42 91h2zM44 91h4-4M122 81q-1 0 0 0M113 82h1zM115 82zM433 83h-2zM301 77zq0 0 1-1zM301 76zM183 80zM284 76zM339 74h3zM295 76h-4 4M321 73h-65l-34 1-33 1-3 1h-2 1-8 2-3q-1 0 0 0h-8l-9 2h-2 3-7l-1 1-3-1h2-5l-5 1h-1 3c-4 0 1 0 1-1 2 1-3 1 0 1l-8 1h1-6c1 0 7 0 6-1l5-1-6 1-3 1q1-1-1-1l-5 1h5l-3 1q1 0 0 0h-1c-3 0 0-1-2-1l-3 1h-4l-2 1h-10 1l-5 1h-7 1l-3 1h-8l-1 1h-6l-9 1h1l-3 1h-6c-3 0 1 0 0 0h-1 3l-3 1v-1l-4 2q-1 0-1-1l-2 1v-1l-4 1h-3 2l-4 1q1-1-1-1l-2 1h-3 2l-3 1h1-5 3l-5 1-2-1-2 1 2-1-5 1 1-1-2 1h1l-4 1h1l-5 1 2-1-4 1 1 1 3-1h2c3 0 0-1 2-1h1l3-1h4l-5 1-2 1 4-1 3-1-1 1 3-1h6c-1-1 5-2 2-2h4l-2 1h-2l7-1h4-1 4-1 4-1l2-1h1-3 9-1l3-1h6-2l3-1c-2 1 2 0-1 1l3-1h2l-2 1h1l-7 1 4-1 18-2h7l-2-1h3q-1 0 0 0h3-1c-1 0 2 0 0 0h2v1l7-2-1 1 7-1h-2l19-1 2-1 1 1 19-2h2l10-1q-2 1 0 1l2-1-1 1 4-1 11-1c3 0 0 0 0 1h-2 3l5-1h-1 5l26-1c2 0-1 0 0 0h4-1l8-1c-1 1 2 1 0 1l3 1-1-2h2l3 1h-3s4 0 2 1q1 0 1-1h2-1 4l2-1h3l-1 1h3-1 1q1 0 0 0l6-1h-1 7l6-1q0 1 3 1h-1 7v-1h10q1 0 0 0h-3l-9 1h4l-3 1 4-1 4 1 4-1h-1 4-1l5-1h1-8 2-1l5-1 3 1h-2 5-1 5q-2 0-2-1l4 1h-4 5l-3 1h5-3 2c-4 0 0 1-2 1h3q-1-1 0-1h2c1 1-2 1-1 1h2v-1h16l-2 1 1-1h3q1 1 0 1h3l3-1 4 1c3 0-1 0 0 0h4-2 7-1 8l5 1h17l12 1h-1l8 1h13-1l8 1h5q1 0 0 0l5 1h9-3 3l-1 1h3l1-1h-1 7-2 6-2q2 1 0 1h7l9 1h-2 13l-1 1-3-1 2 1h13-1 5q-1 1-1 1h7-1l7 1h-1 5l-5-1c1 0-3 0-2-1l-15-2-9-1h-7l-6-1h1l-2-1h-11l-3-1h-6 1l-7-1-36-2h-3 5-3 1-8l-6-1h4-4q-1 0 0 0h-2l-1-1h-16l-7-1h-8l2 1h-6q-1 0 0-1h-5 1-8 1-1l-4-1zM80 85q-1 0 0 0m19-2h-2 6-1 2zm-32 5h1zm23-2h3zm144-9q-2 0-1 1l2-1zm68-2zq1-1-1-1M279 77zM303 76h-2z"/><path fill="#fff" d="M19 93zl-3 1 6-1zM20 94h2zM47 92h-3zM37 90h-1 2zM52 91h3zM50 88l-3 1zM63 89h-2zl-3 1zq3-1 1-1M54 88h-4 3-1zM70 89h-1l-4 1zM59 88zh-2zM64 87l2-1zq-3 0-1 1M67 87l3-1zM103 85c-1 0 2 0 0 0M96 83l5-1zM151 78h-2l4-1zM163 77zM244 78h1zM246 78zM254 78q1 0 0 0M253 78zM257 78h-2c-1 0 2 0 0 0zM262 78h4c4 0-1-1 4-1l-6 1zM261 77h2zM270 78h1zM275 78h-2zM281 78q2-1 0 0 2 0 0 0M296 77h-1zM296 76h-3zM299 78h-2zM302 78zh4l-1-1zl-2 1zM297 76l2 1q-1-1 1-1zM316 77h2-2M317 77zl2-1zM320 78h-2zM326 78zh-2zM345 74q-1 0 0 0zM348 74h2-5zM389 76l-2 1h7v-1h-3 1zM494 87zM15 24zh1l-1-1v-2l2-3 6-7 3-1 3-2h2l5 1 1 1 2 1 2 2v1l1 1 1 4v1l-1 2v1l-8 9-7 4-1 1h-6l-1 1-1 1-1 3-1 2-2 8-1 2-1 2-1 7-2 10-1 1-2 2H6l-2-2v-1l1-1v-4h1l1-3v-2l4-13 1-9 2-6v-7l1-1zM9 66zm5-26zh1q0 1 0 0zm4-14v-1zl1 1zm0 0zm1 10zm3-13zv1h4v-1h1l3-2v-1h1l3-4v-3l-1-1-4 1-1 1h-2l-1 1-2 1v1l-1 2v2zh1v-1h-1l-1 1h-1v1zm-1 2zm6 4zm-1-19zm2 21zm0-22zM52 43l1 1 2 4v1h-2l-1 1v2h-1v-1l-2-4-3-3-1 3-1 2v2l-1 5v5l-1 1v3l-1 1v1h-1v-1l-1 1h1v3h-2l-1-1v-4h1v-1l1-1h-1v-2l1-1-1-1 3-15v-2l1-1v-3h-1v-1h1v-2l1-1 1-2 1-3 1-4v-1l3-11 1-2 1-1h3l1 1v1l5 2 3 2 1 2h1l1 2v3h1v2h-1v2l-2 3-2 2-3 3h-1l-1 1v1l-2 1v1l-2 1h-2v1zM38 65zm16-47-2 3v1l-1 1v2l-3 10 4-1h1v-1l1-1 3-3 3-4 1-1 1-2-1-2-3-3h-2zm-2 36q0-1 0 0m0-4 1 1zm2 6zl1-1 1 1v1zm1-2h2v1l1 1v5h-1q0 2 0 0l-1-1-1-1v-1h-1v-2 1-1 1h2v-1h-1v-1zm0 0zm-1-39zm1 35zm2-15zm2-1zv-1l-1 1zm1-6zm5 0q-2 0 0 0M62 52zv-4l1-1v-2l1-1v1h1l1-1v-2h-1l-1 1h-1l1-1v-2l1-4 1-2h1q0 1 0 0h-1v-2l1-2 1-1v-1l2-2v-2h1v-1l2-2 3-2 2 1 3 1h1l2 2v4l1 1-1 8-1 6-2 5-1 1v2l-2 1v2l-1 1-1 1-2 1-3 1h-4l-3-1-2-1v-2zm13-3 1-1v-1l1-2 1-1 1-6v-1l1-3v-5l-1-3-2 1-3 6-2 2v-1 2l-1 1v1l-1 1v-3h-2 1v2l-1 2h-1 1l1 1 1 1-1 2v5l1 1-1 1 1 1h2v-1zm-8-5zm2-12zm1-3q-2 0 0 0zm1-2zm1 2zm3 21zm3-2zl-1 1h1zm1 0zm1-23zm0 19zM90 40zv-1l1-3v-1h1l1-1v-1 1h-1v-2l2-6 1-1v-3h-1l-1-1v-2l1-1 1-1 1-2 2-3h1l1-1 2 1 3-1 3 1 2 1 4 3 1 1v1l1 1v3h1v3l-1 10-3 5-1 2-1 2-1 1-1 2h-1v1h-1v2l-2 1v1-1h-1l-1 1v1l2-1-1 1v1h-1l-1-1v1l-1-1h-2v1l-2 1h-1l-1 2h2l2-2h3-1v2h-2l-1 1h-1v1l-1 1h-2v2h-3l-2-1h-1v1-1l-1-1v1l1 1v1h-1l-1-1-1-1-1-2 1-2v-2h1v-1l1-4v-1zm19-4zh-1l1-1 1-4v-4l1-2v-1l-1-4-1-1-1-1-1-1-2 1h-2l-2 1-1 1h-1l-1 1v1l-1 2-1 2-1 4v1h-1v5h-1v2l-2 6v3h-1v3l-1 2v5h1l6-3 1-1h1l1-1 2-3 1-2 2-2 2-4zM90 58q0-2 0 0m1-20zm3-8zm1-6zm3 29zm3 2zm1-1v2l-1-1zm10-27zM138 37v1l-1 1v1h-1l1-1-1-1h-1v1l-2 7v4l-2 4-1 2-1 1h-1l-2 1h-4l-2-1-2-2-1-1v-1l-1-1-1-3v-4l1-2v-7l1-3 1-2 5-17 2-3 1-1h2v1l1 1v3l-2 3-4 11-1 3v3l-1 1v17h2v-1l1-1 1-2 1-1 1-2 1-3 1-2 1-2 1-3 2-4v-2l1-1v-6l1-1-1-2v-1l1-3 1-3 1-2h1l1 1 1 1h1v3h-1v2l-1 6v4l-1-7v1l-1 2v8h1v-1l1-1v3l-1 1v2-1h-1q0-1 0 0h-1v2h1zm-21 12zm3 0h-2v-1 1q-1 0 0 0h2m-2 2zm3 4zm10-18zm5-4q0-1 0 0zh1zm0-2zM154 57h-2v-1 1h-1l-2-1-2-1-2-1-1-3-1-4v-8l2-3v-2h1v-2l5-9 1-2 1-1 7-7h2l3-1h2v1h1v3l-2 1-2 1h-2l-6 6-1 3-2 2-2 4-1 1-1 3v1l-1 1v10l1 1h1l1 1h1l2-1h3v1-1h1v-1h2l2-1h1v3l-1 2v1h-1v1-1 1l-1 1h-3v1h-3zm-6-24zv1zm1 4q0-1 0 0-2 0 0 0m3 16q-1 0 0 0m2 1zm2 2zm1-1zm4-1q0-2 0 0"/><path fill="#fff" d="m176 35-2 5v2l-1 2-1 1v3h-1v2l-1 3v1l-1 2-1 1h-1v-2h-1l1-2v-1l1-2v-1l1-3v-3l4-14 1-3v-2l1-3v-4l1-2v-5h-1v1h-4v-1l-4-2-1-2h1l1-1 4-2h4l2-1h12l3-1h4v1l-1 4-3 1-1 1h-3l-6 3h-1v1l-2 10v1l-1 1v2l-1 3v1h-1v3zm-4 10zm2-41zv1zm1 24zm2-4zm1 3zM202 15l-2 1v1h-1l-1 1h-1 1v1l-1 1-2 2-1 1v1l-1 2v2l2 3 1 1 1 1 2 3 2 4v4l-1 4v2l-2 2v1l-1 1v1l-3 1h-2l-1 1h-4l-2 1-2-1h-1l-1-1v1l-1-2h-1v-2l-1-1 1-1 2-3 5-1h2l6-1 2-2v-1l1-3-2-2v-1l-1-1-3-4-1-2-1-5v-1l1-1v-3h1v-2l1-1 1-1 5-5 7-3 2-1 1 1 1 1v3l-1 1h-1l-3 1h-1 1zm-6 1zm1-3zm1 2zM238 25zl1-2 1-1 1 1v-1h-1v-2h1-1 2-1v1h1v-1l1-1v-1l1 1v1h-1 1v6l-1 1v2l-1 2v1l-2 14v3h1l1-2v-1l1-2v-1l2-4 4-9h1l1 1v-1h1l-1 5v1l-1 2-1 3v1l-1-1h-1 1l1 1v2h1v-1l2-8 1-1-1 4-1 3-1 2v2l-1 1v2l-1 3-1 1v2h-1v1l-2 3h-2l-2-1h-1l-1-2-1-1v-7h-1v-1h1v-8l1-1v-3l-1-1 1-1v-1h-1v1l-1 1v2l-1 1-1 1v4l-2 7h-1 1l-1 2v1l-1 2-1 1h-1v-1h-2v-3l-1-6v-4l1-1 1-3v-1q1 0 0 0v-1l-1-1 1-1v-5l1-1v-8l1-1h1l2-1h2v4h-1v1l-1 5v3l-2 5v1l-1 4v3l1-1 1-1 4-8v1q-2 0 0 0v-2l1-1h1v-2l1-1zm1-1zm1-1q-2 0 0 0m1 2zm0 1q1 0 0 0m1-8zm4 25zm0-2zm3-12zv-1zm1-1v-1l1-1v-1l1-1v-1h1v-1l1-4v-1l1-1v-2l1-2 1-1v-1l1-1 1-1v3l1 1v3q-1 0 0 0v1l-2 3v1l-2 4h-1v1h-1v1l-1 2-1 1h-1zm4-5zm4-8zm0-4zM270 24zl-1 1v1l-1 2 1 1v1l-1 1v1l-4 13v3l-1 3-1 1v2l-1 2h-2l-1-1-1-1v-1l1-2v-3l2-6 1-6 1-2v-2l1-1v-4l1-2 1-1v-2l1-4 1-3v-4l1-1h2v-1h2l2 1v1l-1 2v3zl-1-1v-1q2 0 0 0v2zm-6 4zm1 6zm2-7h-1v1zm3-15"/><path fill="#fff" d="m281 32-2 5v1l-1 1-1 2v3h-1v2l-1 3v1l-1 1-1 1h-1v-1h-1l1-2v-2l1-1v-1l1-3v-2l2-5v-1l1-2v-3l1-1v-3l1-1v-2l1-5v-2l1-1V9h-1l-2 1-1-1-4-2-1-2h1l1-1 4-1 1-1h9l1-1 2 1h2l1-1h3l2-1 2 1v1l-1 3-3 2-10 4h-1l-1 9-1 1v2l-1 3v1l-1 1v2zm-7 16zm1-8zm1 1zm3-38q0 1 0 0v1zm1 22zm0-2zm2-1zm1 3zq0 1 0 0m8-18"/><path fill="#fff" d="m290 44-1 3-1 4v1l-1 2-2 1h-2v-3l1-1v-4l1-2 1-1v-3l1-3 1-1h-2v-1h1l2-2v-1l1-1v-2l1-3h1v-3l3-8v-1l1-3v-1l1-1 1-1h1v2l-1 3v1l-1 4v2l-3 10h1l3-1 1-1v-1l1-1v-1l1-1v-1l3-8 2-6V7l3-3h1l1-1 1 1v1l-1 1v1l-1 2-1 1v3h-1v3l-1 1v2l-1 1-1 2v3l-1 1v1l-1 2-1 6h-1v7h-1v8l-1 1v4l-1 1-2 2-1-1h-1v-3l1-3v-2l2-7 1-5v-3h-1l-3 2-3 6v1zm-4 2zm1-3zm5-15zm4-12zm3 21zm5-18zm0 2q1 0 0 0M362 25v2l-1 1v4l-1 3v5l-1 3v3l-1 5v1l-1 5-1 1h-2l-1-1-1-1v-2l1-1v-1l1-5 1-3 1-2 3-15 1-5v-5l-1-1-1 1-4 5-1 2-1 2v1l-2 2-1 2h-3l-3-2-2-2-1-2v-1h-1l-1 3-7 21h-1v1l-1 3-2 1h-2l-1-1 2-3h-1l2-3v-1l1-2v-2l1-3 1-1 1-1v-2l1-2v-1l1-3 1-2 1-2v-2l1-2 1-3 1-2 1-2V5h1l4-1h4v10l-1 2 1 7 10-15 6-8h2l2 1h1v3zm-7 22zm2 5zm2-12zm0-2zm0-29zm1 4zv-1 2M379 21zl-1-1h-1 1zh-1v1h-1v-1 1h1v1l-1 3v2l-1 2-8 27h-2l-1-1h-1v-2l1-2v-2l1-2 1-7 2-6v-3l3-11h1v-1l-1-1 1-1 1-4v-4l1-3V7l1-1 2-1 1-1h1l1 1 2 1v1l-2 8-2 5v-2h-1v-1h1-1v1h1v3m-7 4zm0 7zm3-8h-1v1zm3-18zM402 13l-1 1h-2v1h-2v1h1l-1 2-2 1-1 2v1l-1 2v3l1 2 3 3 2 3 2 4v4l-1 3v4l-2 2-1 2h-1l-7 3h-3l-3 1-1-1h-1l-1-1h-1l-1-1-1-1v-4l3-2 5-1h2l7-2 2-2 1-4-2-2-1-1-1-1v-1l-3-4-1-1v-8l1-3 1-2 1-2 1-1 4-4 2-1 6-3 3-1 1 1 1 1v2l-1 1v1h-1l-4 2v-1zm-20 40zm16-41v1h1zm2 1zM426 14l-1 2h-2l-1 1h-1v1h1l-1 1-2 2-1 2v1l-1 2v2l1 3 2 2h1l2 4 2 4v4l-1 3v4l-2 2-1 2h-1l-7 2-1 1h-7l-1-1h-1l-1-1-1-1v-4l3-3h2l3-1h2l7-1 2-3 1-3-2-3h-1l-1-2-3-4-1-2v-7l1-3v-1l1-1 1-2 1-1 4-4 2-1 6-3 3-1h1l1 2v3h-1v1h-1l-4 1zm-20 41zm15-42zm1 1v1h1zm3 0zM443 16v1h-1zh1v1h-1v2l-1 2 1 1v1l-1 1v1l-8 28h-2l-2-1v-2l1-2v-4l2-7 2-7v-2l1-3v-1l2-7 1-2h-1v-1l1-4 1-4 1-3V2h1l1-1h1l1-1h2l1 2h1l-3 9zv-1l-1-1 1-1h-1v1l1 1h-1v1zm-6 5zm0 7zm2-8zv-1zm1-4zm3-14zM441 52zl1-1v-6h1v-2 2h1l1-1v-1l1-1v-1h-1v1h-2q1 0 0 0v-2l2-5 1-2h1-1l-1-1 1-2 1-1 1-2 3-5v-1l2-2 4-1h2l3 1 1 1 2 2v4l1 1-1 9-2 5-1 6-1 1v1l-1 1-1 1v1l-1 1-1 1-1 1-2 1-3 2h-2v-1h-2l-3-1h-2v-2l-1-1zm4-6q1 0 0 0m10 3 1-2 1-2 1-2 2-6V25h-1l-1 1-2 2-1 2-1 1-2 2v2l-1 1v1l-1 1v-3h-2 1v3l-2 1v1-1l2 1v12h3v-1zm-6-18zv1zm1-3q-1 0 0 0zm1-3zm3 2zm1 23zm-1-22zm4 20h-1v1zm1 0zm1-25zM476 30zv-1l1-4 1-1v-4l1-1 1-1v-1l1-1h2l1-1h2l1 1h1l-1 8v2l-1 3v17l1 1v2l1 4 1 2h1l1-5v-1l1-3v-2l1-1 1-1v-2h1v-2l1-1v-1l1-4v-1l1-1v-2l1-2 1-1h-1v-1l1-1v-1l1-3 2-3v-1l2-1h1v1l-1 1v2l-1 2v2l-2 8v-3h-1l-1 2v1l-1 3v7l-1 3v8-1 5h-1v1h-2v1h1v-1h1v4l-1 2v2h-1v1l-1 1-1 1v-1h-1l-1 1h-1v-1 1h-1l-1-1v-1h-1l-1-2v1l-1-2v-1h-1v-2l-1-2-1-2v-2l1-1v-1h-1v-7h-1v-4l-1-4v-1l-1 1v1l-1 2v1l-1 2v4l-3 12v5l-2 1-2 1-1-1-1-1v-1l1-4 1-3 1-4v-1l1-3v-3l1-4h1l1-1-1-1v-5zm-2 13h1v-1h1l-1-1v-1l-1 1 1 2zm7-7v1l1 1v-2zm3 1-1 1h1zm0 3zm2 13zm1 3q1 0 0 0zm1 4zm0 2q0-1 0 0m2-5zm1 1zm-1-3zm2 1zm-1 6q-1 0 0 0m0 1zm2-7zm0 7zm1-7zm0 2zm2-21zm0 20zm2-20zv1h1zm-1 4zm5-11z"/></svg>