<svg xmlns="http://www.w3.org/2000/svg" data-name="Layer 2" viewBox="0 0 313.6 111"><g data-name="Layer 2"><path d="M18 25zl1-1-1-1v-1l1-2 1-3 1-2 9-9 4-3 5-2 1-1h2l7 2 3 1 5 5 1 2 1 2 1 5-1 3v2l-1 1-11 13-2 1-11 6-5 1h-5l-2 3-2 3-1 4-4 12-1 2-1 3-1 6-3 15-1 2-1 2-1 2-2 3H2l-2-3v-2l1-1 1-3v-3l2-5 1-2 5-20 3-12 3-10V30zl1 1h-1zM7 88zm9-38zl-1 1v1h1zm6-22v-2 1zl-1-1v1h1l1 1h1-2 1v-2m0 1h-1v-1zm1 14zm5-18zv1l1 1 1-1h4l1-1h2l3-3 1-1 1-1 4-6 1-2v-2l-2-1-6 1-2 1-3 1-3 3-1 1-1 3v1l-1 2zv-2l1-1v-1h-1l-1 1h-3v1l1 1 3-1zm-3 4zm2-1zq1 0 0 0m8 6zm0-28q0-1 0 0m1 31zm2-34zv1zm2 24zm1 8q0-1 0 0M67 70l1 1 2 7v1h-1l-1 1h-1l-1 2-1 1 1 1h-1l-1-1-3-6-4-5-2 4-1 3v2l-1 8v4l-1 2v1l-1 2v3l-1 1h1v1l-1 1h-1v2h1-2v-1h-1v1q-1 0 0 0h1v2l-1 3h-1v-1h-3v-1l-1-2 1-3 1-1v-1h1v-2l-1-1v-1l1-1v-3l5-32v-1l1-1v-2h1l1-1 2-4 1-5 1-5 1-1v-1l5-16 3-5 2-1 2 1 1 2 1 1v1h1l6 2 2 1 2 1 1 2 2 2 1 1 1 2v1l1 5v4l-1 1v1l-2 4-4 3-4 4-2 1-1 1v1l-1 1-2 1-1 1-3 1q0 1 0 0h-1l-2 1v1zM46 99zm24-67-1 2-2 2v2l-5 14-2 6h1l6-1 1-1 1-1 2-2 4-4 4-5 1-1 1-2 1-2-1-3v-2l-2-2-2-1-3 1zm-3 54h-1zm0-6 1 3-2-1h1v-2m1 11v-3l1-1 1 1v1l1 1h-2v-1q1 0 0 0h-1zm3-4h2v2l1 1 1 2v5l-1 1h-1l-2-1v-2h-1v-1l-1-1-1-2h3l1 1v-1l-1-1v-3m-1-1zm0-59zm0 54zm1 2zm3-25zm3-1zl1-1v-1q0-1 0 0h-1l-2 2zm10-9zv1zM85 85zl1-1v-6l1-1v-1l1-1v-1l1-1v2-1h2v-2h1v-2h-1v1h-3q0 2 0 0v-2q1 0 0 0v-1l3-7 1-3 1 1-1-1-1-1 1-3 1-2 2-1 1-1 6-11 6-2h3l4 2 2 1q2 0 2 3v3l1 3v1l-1 12-2 8-3 8-1 2v1l-1 1v1l-2 2-1 1-1 2-2 2-3 1-5 2h-1l-1-1h-2l-1 1-5-2-2-1v-2l-1-1zm6-9zm2 0zm11 5 2-2v-1l2-3 1-2 2-9 1-2V51l-1-4-3 2-5 7-2 3-1 2v1l-1 2-1 2h-1v-4l-1-1h-2l1 1 1-1v4l-2 2h-1v1l1-1 2 1v1l1 1-1 3v3l-1 2 1 3v3l1 1h1l2-1zq1 0 0 0m-11-7zm3-18v-1h-1zm1-5zm3-4zm4 36zm0-32q0 1 0 0m5 29zl-1 1v1h1zm1-1v1l1 1v-3zm2-34zm1 35zm0-7zm1-5zM129 69v-1l1-5 1-1 1-1h1v-1 1h-1v-4l3-8 1-2v-4l-1-1-2-1 1-3 1-2h1v-1l2-2 1-1 3-4v-1h3l2 1 4-1h1l4 1 4 1 4 4 1 1 1 1 1 2 1 3-1 1 1 1 1 1v5l-1 13v1l-6 9-6 10h-1l-1 2v2h-1l-2 2-1 1v-1l-1-1h-1l-1 2v1h1l2-1-1 2v1h-1l-2-1-1 1v-1l-2-1-1 1h-1v1l-3 1-1 1-2 2h4l2-2 1-1h3v1l-1 1v1h-3l-1 1-3 2-1 1h-3l1 1-1 1v1l-2 1-2-1-3-1h-1l-1 1v-1l-1-1v1l1 1v1l-1 1v-1l-2-1-1-1v-1l-1-2 1-3 1-3h1v-2l2-5v-2zm-8 31zm3-8zm34-28zv-1h-2l1-2 2-5v-5l1-2v-3q1 0 0 0v-1l-1-6-1-2-2-2h-5l-1 1h-1l-3 1-2 1-1 1-2 1-3 8-1 5-1 1v3l-2 5h-1v3l-2 9-1 1v3l-1 1v2l-1 3v1l-1 2v1l-1 3v1l1 1h5l4-2 2-2 1-1 2-1h1l3-5 2-3 3-3 3-6zm-29 14zm1-6zm2-5zm1-5zm2-3zm0-5q0 1 0 0zm3-9zh-1l-1 1zm2-4zm6 51zv-1zm2-1-1 2h-1v-1zm5-13zm7-11zm4-16h-1v1zM203 70v2l-1 1-1 2v-4h-1v1h-1v1l-4 11v5l-2 7-2 2-1 1h-1l-1 1h-1l-2 1h-2l-2 1-1-1h-1l-3-2-3-3h-1v-1l-1-1-1-2v-2l-1-2v-8l1-2v-4l1-4v-2l1-4 1-2 2-7v-2l2-6 3-6 6-12h1l2 1h1l1 2v3l-1 1-3 6-6 16v2l-1 2-1 5-1 2h-1v2l1 1v4l-1 2v12l1 3h2l12-21 1-3 2-5v-3l1-2h1l1-2v-7l1-2-1-3 1-2 1-4 1-5 2-2h1l2 1 1 1 1 1v4h-1v3l-2 9v6l-2-10-1 4v11h1q0 1 0 0h1l1-2 1 1-1 1v1l-1 2v1l-1 1v2-2l-1-1-1 1v3h1l1-1zm-32 18q-2 0 0 0m0 3zm4-4zh-2l1 1h1zm-1 3zm3 6zm0 1zm2 0zm5 1zm9-28zm8-6zl-1 2v1h1l1-1zm0-3zm2 3zM224 101l-1 1-1-1h-6l-3-2-2-3-2-4-2-7v-9l1-3 3-7v-1h1l1-2-1-1v-1l9-14 1-2 2-3 12-10 2-1 5-1 3 1h1l1 1h1v3l-1 1-3 3h-6l-6 7-7 8-2 3-4 6-1 2-2 4v3l-1 1v1l-1 12v3l2 1 1 1h7l3-1 1 1v1h1v-1l1-1 2-1h1l3-1h2v4l-1 4-1 1-1 1h-1 1l-1 1-2 1h-1l-1 1h-4l-1 1zm-9-38-1 2h1zm0 4zm2 2zm5 28zm5 3zm1-5zm1 4zh1zm0-5zm2-49zm2 45zm2 7q0-1 0 0zM264 66l-3 8v2l-1 1-1 3-1 1v4h-1 1l-2 2h1v2l-2 4v1l-1 1-1 2-2 2h-1l-1-2v-1l1-2 1-2v-2l1-2 1-5 1-2v-2l3-12v-1l1-4 1-2 1-2 1-5v-2l2-9 2-6v-5l-1-1h-1l-3 1-2-1h-1l-6-4v-3l2-1 7-3h2l4-1h9l2-1 4 1h3l1-1 6-1h5l1 1v1l-2 6-5 2h-1l-1 1-3 1-10 3h-1l-1 1v1l-2 14v1l-1 2v1q-1 0 0 0l-1 2-1 5-1 1-1 1v3zm-11 26zm4-10zm4-12zm1-49zm-1 39zm1-4q0 1 0 0m1-3zm2-2zm2 4zm0-5zm3-14q2 0 0 0M303 40l-3 2h-1l-1 1h-2v2l-1 2-2 2-2 3-2 4v3l3 3 3 4 3 5 2 5 1 5-1 5-1 1v3l-1 1-2 2v1l-2 2v1l-9 2v1h-5v1h-4l-1-1h-2l-1-1h-1l-2-2-1-1v-1l-1-2 1-2 4-4 7-1h3l8-2 3-2v-1q2-2 1-5l-2-3v-1l-2-2-4-6-1-2-1-11 2-4 1-3 2-2 1-2 8-6 9-5h5l1 2 1 1-1 2v1l-1 1-2 1-5 2v-1 1zm-28 54zm4 4zq-1 0 0 0zm11-50zm3-7zm3-4zm1 2v2h1zm2-1zm1 2"/></g></svg>