<svg xmlns="http://www.w3.org/2000/svg" width="180" height="71" fill="none" viewBox="0 0 180 71"><path fill="#000" d="M172 27v2h-1v1l-2 1h-2l-1 1h-5l-1 1v2l-1 2-1 1v2h-1v3q-1 1 1 2h1l4 1 2-1v-1h1v-1h2l1 2v3l-1 1-3 1h-6l-5-1v-1h-1l-1-2-1-3 2-4 1-2v-1l3-9 1-3 1-4 2-6v-2q-1 0 0 0v-1l1-1V8l1-1 2-1h1l1 1v1l1 1h11v1l1 2-1 1-2 1h-11v1l-1 2-1 2-1 2-1 4v3l1-1h1l5-1h1v-1l1-1h1v3zh1zm-17 11zm14-9zm1-19h-1v1zm1 3zq0 1 0 0m4-2zh1zM48 39q-2 0 0 0zl1-2v-3l1-3v-6h-1v-1h-1l-1-1h-1l-1 4v1l-1 1v2l-1 2-2 3v2l-1 1v1l-1 1-1 1-2 2-1 1v-4l1-1v-8l1-2v-5l1-1v-5l-1-2h-1v5h-1v3l-1 2 1-1h1v1l-1 1v4l-1 1-1 1v2l-2 3v3h-1v2h2-1l-1-1-1 3v4h1q0 1 0 0l1 1h1-1 1v1h1v-1h2l1-1v-1h1l1-1 1-1v-2h1v-1 1l1-1v-2l1-1 1-1 1-2 1-1v-1h1v3h-1v3l-1 1-1 5v1l-1 2v3l2 1q0 2 0 0h1v-1l1-4 1-2h-1v-1l1-2v-1l1-1zm-15 7zm-1 1zm0 3zm2-16zh1zm1 0zm0 13zm0-1zm1 3zm2-2zm1-2zm0 1zm4-10zm1 0zm4 3-1 1h1-1v-1q0-1 0 0zM26 5l-1-1-2-1-2-2h-3l-3-1h-4v1l-1 4-2 10v9q-1 0 0 0l-1 2v1l-1 1v2l-1 1v4l-1 2v1l-2 7v2l-1 2v1l-1 2v1l2 2 2 1h2l2 1 4-2 1-1 2-2 1-1v-1h-1v-1h2v-1 1h1v-2l-1 1v-2h-1v-1h1v2h1v-1l1-1v1h1v-1h1v-1h1v-2h1l1-1v-1l2-3v-7l-1-2-1-1v-1l-2-1-1-1-2-2h-1l1-1 2-2 1-1 1-1 1-1 1-2 1-2 1-1V9zM4 53zm21-17zh1zm-2-3zh1v1h-1zm0 5zm0-1q0-1 0 0m-1-4zm0 6zM12 17zm-3 7zm0-9zm0 1zm0 10zm-2 9zl-1 1zm-2 6zm0 3zm1 9zm6 1zm7-9zm0-4zm2 2zm-1-15v1l1 1v5l-1 1-1 3-1 1-1 2v2h-1v1l-3 3-1 1-2 2-3 1H6v-1h1l1-5v-1l1-3 1-5-1-1 1-2v-3l1-1v-5l1-1h2l4 2zm0-13zm1-8-3 6v1l-1 1-2 2h-1v-5l2-4q0 1 0 0l1-1 1-1h2V5h1v2M78 23zl1-2v-1l1-2v-3h1v-3l1-1V8l1-2V5h-1l-1 1h-1l-1 1-1 1v3l-1 2-1 4v2l-3 9v2h-1l-1 1h-3v-1l1-1v-3l1-1h-1l1-1v-2l1-1v-3l1-1v-3l1-1v-1l1-1v-1l1-2-1-1h-1l-1 1-1 1h-1v3l-1 1v2l-1 3-1 2v1l-2 9v1l-1 1-2 1h-1v-5l1-1 1-9v-1l1-3-1-1-1 1h-1v2l-1 1v4l-1 1v4l-1 1v2l-1 2v2l-1 2v1l-1 1h-1v1h1v4l-1 3v1l-1 1v4l-1 1v3h1l1-1 2-1v-2l1-1v-3l1-1 1-4v-1l1-4 1-1 3-1v9l-1 7-1 2v3h3l1-1v-2l1-2V36l1-1 4-2h1v3l-1 4v2l-1 7v5h2l1-1 1-1V40l1-1-1-2 1-1v-4l1-4v-1l1-1v-3m-9 3zm-8-3zm-7 24zm2-3zm9-6zm12-18zM156 12h-1l-3 1h-1l-1 1v2l-1 1v1l-1 3-1 4-1 2v1l-4 10v1l-1 1-1 1v1h-6l1-1v-3l1-2v-1q1 0 0 0v-1h1l1-2v-2l1-2v-1l1-2v-1l1-1v-1l1-2v-1l1-2 1-1v-3h-1l-3 1-1 1h-1v2l-1 1v2l-1 2-1 5-1 3-4 9v1l-1 2-1 1h-2l-2 1h-1v-1l1-2v-2l1-2 3-13 1-3-1-1h-2l-1 1v2l-1 2v1l-1 1v2l-1 1v2l-1 4-1 2v1l-1 3v1h-1v1l-1 2v1l1 1 8-1 1-1h1v1l4 1 1-1v-1l6-1h2l-4 16v3l-1 2v4h4l1-1 1-2v-1l1-2V54l1-1v-7h1v-2l1-3 1-2v-2l1-2v-3h1l1-2v-2l1-2v-1l1-2v-1h1v-2l1-1v-2l1-1 1-1zM98 43zv-4l1-1v-2 1l1 1v-1h1v-1l1-1h-3q0 2 0 0v-2l2-6 1 1v-1h-1v-2l1-2 1-1h1l1-2v-2l1-1 1-2 3-1h2l3 1 1 1 1 1v4l1 1-1 4v4l-1 5-2 4v2h-1v2l-1 1-1 1-1 1v1l-2 1-3 1h-1v-1h-1v1h-1l-3-1-1-1v-1l-1-1zm11-3zl1-4 2-5v-3l1-5-1-3-2 1-1 2-1 2-1 1-1 2-1 1v2l-1 1v-3h-2 1v2l-1 2h1v11h2l1-1zm-5-15zm1-4zm1-2zm2 2zm1 21zm3-2zl-1 1 1 1zm0-1v1l1 1v-2zm2-21zm0 18zm1-4q0 1 0 0"/></svg>