<svg xmlns="http://www.w3.org/2000/svg" data-name="Layer 2" viewBox="0 0 798.2 143.8"><g data-name="Layer 2"><path d="m26 87-6 16v2l-1 1-1 2-1 3-1 2-1 1v2q1 2-1 4h1l-2 2v4l-2 7-1 2-1 2-3 4-4 3-1-1-1-3v-1l1-4 7-26 6-20v-2l2-7 1-4 3-10v-1l1-5 3-14 1-4 1-5v-1l1-1v-9l-1-2h-1l-1 1h-9v-1h-1L4 18q-3-3-1-4v-1l4-3 12-4 2-1h2l5-1 5-1h30l9-2 6-1 3 1 2 1-1 1-3 11-8 3-27 9-2 2v1l-5 27-1 2-1 2v4l-3 8-1 2-2 1v3l1 2-1 2zM7 131zm4-20zm0 9zm3-6-1-1-1 1 1 1zm6-21zh2l-1-1zm2-85h-1zv3zm1 61zv1zm1-5zm4-3zm3 6-1 1v-1l1 2q0 1 0 0zm6-32zm17-17zM107 71zv2l-1 2h-2l-1 2-1 2-4 1-5 2h-4l-4 1-9 1-3 1-1 1v1l-1 5-2 6-2 2v3l-1 1-1 2v1l-2 6q-1 4 3 6l4 1 10 1 5-1 2-1v-2l1-1 2-2h1l3 1 3 6 1 2-1 5-2 2q-3 3-7 3l-3 1H71l-14-4-2-2-4-5q-2-3-2-8l7-19 1-2 14-45 10-34 7-3h2l2 2 2 4 1 1h8l24 2q3 3 2 6l-1 2-1 1-1 2-4 2-6 1-2-1h-4l-2-1h-5l-2 1-6-1h-4l-1 1-1 1-2 7-2 6-2 5-1 6-2 5v7h1l2-1 15-3 2-2 1-2 3-2 1 1 2 2v5zv1l-2 1 1 1 1 1 1-2zM58 99zm2 3zv-1zm18-44zm20 17q0-1 0 0m2-51h-2v1zm-1 53zm2-7q0-1 0 0zm2-37zm3-5zm8-1-1 2 1 1v-3m10 2z"/><path d="m152 87-6 16-1 2v1l-1 2-1 3-1 2-1 1v2l-1 4-2 2 1 1v3l-2 7-1 2-1 2-3 4-4 3-1-1-1-3v-1l1-4 7-26 6-20v-2l2-7 1-4 3-10v-1l1-5 3-14 1-4v-5l1-1 1-1v-9l-1-2h-1l-2 1h-8l-1-1-11-6-1-4 1-1q1-3 4-3l11-4 3-1h2l5-1 4-1h30l9-2 6-1 4 1q2 0 1 1v1l-4 11-8 3-27 9-1 2-1 1-4 27-1 2-1 2v1l-1 3-2 8-1 2-2 1-1 1 1 2v2l-1 2zm-19 44zm4-20h-1zm-1 9zm3-6zv2zm7-21zh1zm1-85q-2 0 0 0l1 3zm1 61zm2-5zm4-3q0-1 0 0m3 6-1 1v-1 2h1-1zm6-32zm17-17zM233 71zv2l-2 2h-1l-1 2-1 2-4 1-5 2h-4l-4 1-9 1-3 1-1 1v1l-1 5-2 6-2 2-1 3v1l-1 2v1l-2 6q-1 4 2 6l5 1 10 1 5-1 2-1v-2l1-1 2-2h1l2 1 4 6 1 2-1 5-2 2q-3 3-8 3l-2 1h-15l-14-4-2-2-4-5q-3-3-2-8l7-19 1-2 13-45h1-1l10-34 7-3h2l3 2 1 4 2 1h8l24 2q3 3 1 6v2l-1 1-1 2-5 2-5 1-2-1h-5l-1-1h-5l-2 1-6-1h-4l-1 1-1 1-2 7-2 6-2 5-2 6-1 5v7h1l2-1 15-3 2-2 1-2 3-2 1 1 2 2v5zl-1 1-1 1v1l2 1v-4zm-49 28zm2 3zm18-44zm20 17zq1-1 0 0zm2-51h-2v1zm1 46q0-1 0 0m1-37zm12-6-1 2v1l1-1zm10 2zM309 40l1-3v-3h-1l-1 1-1 1-8 13v-4h-1l-2 1-2 4-3 10v1h1l1-1 3-5h1l-1 1v1l-1 2-1 1v2l1 3h-1l-1 1v3l-2 1-2 3-2 8-1 9-2 7-1 3-1 3-1 4-3 11-3 9-2 4a12 12 0 0 1-7 7h-8l-3-3v-1l-1-3v-10l2-6v-3l1-10V86l1-4v-5l-1-3V62l1-10 1-25 1-2 2-1h1l8-3 2 1 1 3v20l-1 10-1 6-2 9v14l1 3h1l1-1 1-2 2-6 3-5 4-8 1-2 3-2h1v-3l1-2v-1l1-4 1-3 1-1 1-1 3-4 5-12 2-4 2-4 2-3 7-8 1-1 3-1h1l2 1 2 1 1-1 1 1v2l-1 2-2 3-2 5-3 4zm-49 2zm0-12zv1h2l-1-1zm5 42zm2 20zm1-48zm1 25q1 1 0 0m10 29zm9-24-1-1h-4v6l-1 6 1 2h1l3-11zm16-37zM360 71zv2l-1 2h-2l-1 2-1 2-4 1-5 2h-4l-4 1-9 1-3 1-1 1v1l-1 5-2 6-2 2v3l-1 1-1 2v1l-2 6q-1 4 3 6l4 1 10 1 5-1 2-1v-2l1-1 2-2h2l2 1 3 6 1 2-1 5-2 2q-3 3-7 3l-3 1h-15l-14-4-2-2-4-5q-2-3-2-8l7-19 1-2 14-45 10-34 7-3h2l2 2 2 4 1 1h8l24 2q3 3 2 6l-1 2-1 1-1 2-4 2-6 1-2-1h-4l-2-1h-5l-2 1-6-1h-4l-1 1-1 1-2 7-2 6-2 5-1 6-2 5v7h1l2-1 15-3 2-2 1-2 3-2 1 1 2 2v5zv1l-2 1 1 1 1 1 1-2zm-49 28zm2 3zv-1zm18-44zm20 17q0-1 0 0m2-51h-2v1zm-1 53zm2-7q0-1 0 0zm2-37zm11-6v3-3m10 2zM387 52zl-1-1v-1l5-19v-3l1-2 1-2 2-3 1-1 3-2v-1h2l1-1 3-1 5-1 3 2v1l-1 19v20l-1 16v5l1 3v2l-1 4 1 3 1 1v1l1 5 3 11 3 4h1l1-1 4-18 3-10 1-3v-2l1-1v-1h1v-2l1-1 1-4 1-1 2-3 2-18v-1l4-5v-1l1-1v-1 1l-1-1-1-2 1-2 5-11 2-7 1-2 6-3h2v2l-1 2-2 2-1 4v4l-1 3v2l-1 2-4 19-1-8v-1l-1 1-1 5-1 3-2 8-1 2v20l-1 4v23l-1 4-1 2h-1l-2-1h-1l-1 1 2 1 2-1h1v9l-1 5-2 5-1 3-1 1-3 3-1-1-1-1h-1q0 3-2 2h-3l1-2h-1l-1 1 1 1-2 1h-1l-2-2v-2h-2l-1-1-2-4v1l-2-4v-1l-1-2h-1l-1-1v-2l-1-2-2-4-1-6v-6l1-2-1-1h-1v1h-1l-1-1 1-1v-2l1-4-1-3 1-5-2-2h-1v-3l-1-7-1-8-1-3h-1l-2 2-1 4-2 10-2 11-4 35v3l-2 3-4 3-6 1h-2l-1-2v-3l5-27 2-3 1-6v-2l-1-2v-1l1-4 3-10h1l2-2-1-2v1l-1-1v-8l1-2v-2l2-5 1 1h-1zm-2 31h2v-6l-1-1-3 2 2 1 2 4h-4v-1 1zm16-16v3l1 1 1-1 1-1-1-2zm7 3v-1h-1l-1 3h2zm-1 7zm4 34zm1 7zm1-10zh1-1zm3 8zv-2l-3 1v1h2m2 9zq0 1 0 0m1 3q1 0 0 0m4-12zv2zm2 2zm0-6zm2 3 1-1zh-1v1zm-1 14zm1 3zm3-17zm1 11zm0 6zl1 1 1-1zm1-19zv-1zm2 10zm-1-5zm1 2zm3-51zv2h1zm2 48h-1zm2-50h-1l-1 2 1 2h1v-1l1-1zm-1 10zv-1q0-1 0 0zM532 136l-2 1-1-1h-2l-1 1-1-1q-3 1-7-1-2-1-5-3l-4-5q-2-4-3-8l-4-12v-5l1-4v-6l2-6 5-14 1-1 2-2v-1l-1-2v-1a157 157 0 0 1 30-43l12-8 4-2 9-1 5 1h2l1 1 2 1v5l-3 2-5 5h-6l-3 1h-1l-7 6-1 2-1 1-5 6-6 7-2 2-4 6-7 11-2 4-3 7v1l-2 4v3l-2 8-1 2v14l2 3 2 3 2 1 3 1h8l2-1 4-1h2l1 2v1h1l1-1v-1l1-2 3-1h2l6-2 2-1h1v7l-2 7-2 2v2l-1 1v-1h-1v1h1l-1 1-7 2-1 1-2 1h-4l-3 1-2-1h1-3m-15-67zl-1 3h2zm-1 7zm4 3zm3-12zm4 58zm2 3zm6 1q-1 0 0 0m3 5-1-1zm2-8zm1 7zm1-9zm2-87zm4 80zm5 11zM583 98v2l-1 5-1 1-2 6 1 4v8l1 1 2 1h9l4-2 1-1h2l4 5 1 3-1 2-5 4-1 1-6 1h-2l-6-1-3-1h-3l-2-1-2-2-4-6-1-4v-8l1-2 2-6 1-3v-3l1-1 1-5 3-11v-1l2-2h1v-1l-1 1v-4l1-4 1-3 5-21 1-1v-1l1-5 2-8 1-4 3-16v-1l1-6 2-1 2-1h2l2 1 3 2 2 2 1 3v1l-5 19-2 9-1 3-1 4v3h-2l-1 1h-2l1-2-2 1v-1 1l1 1 3 3v1h-1v1l-1 2v1l-1 6-2 6-1 4v3h-4v3l1 1-1 2v1l-1 1-1 3-2 3v1q-1-1 0 0zm-4 34zm6-45zm5-46zm1 3zm2 6h3v-1l-3-1-2 1 1 1zm1-26zm9-15zM644 48l-1 2-2-1v-1 1l2 1v1l-2 1h-1v-1 1h1v4l-2 5v5l-1 2-1 4-10 36-1 6-1 2-2 10-1 2v5l-3 4-1 1h-6l-3-2-1-2v-5l1-1v-2l1-5 1-5 10-39 1-6 1-2 2-11 2-7 1-1h1v1-1l1-3h-1v-4l3-10 2-9 1-7 1-4 2-2 4-1 2-1 2-1h4l4 3 1 2h-1v1l-9 30v1l-1-4-1-1v-1h1v-1h-1v2l1 1v2l1 2zm-17 22zm0-13 1 1h1l-1-1zm1 17h2zm6-19-2 1h-1l1 1zv-1zm-2-7zm8-5zm4-31zl1 1v-2M723 65l1 2-1 1v5l-1 1-1 5v5l-1 8-1 5-1 4-1 2-1 6-3 22-1 1-1 1h-4l-5-3-1-2v-2l1-1 2-2v-2l4-12 1-5 1-4 1-2v-3l2-7 3-12 3-17v-6l1-5v-2l-1-1h-2l-1 2-8 11-3 5-2 3-1 1-3 6-3 2-1 1-3 1h-3l-6-4-3-5-2-4-1-3v-1l-1 1h-1l-2 6-20 53-4 3h-3l-2-1v-1l2-7 3-7v-1l1-2 1-3 1-3 2-6 2-3 1-4q0 1 0 0l1-2 2-5 1-2 2-6 2-4 2-9 3-5 2-5 1-4 2-6 1-8-1-2v-4l1-1 1-1 5-1h4l6-1 2 1 1 2v3l-1 8-1 26 1 1a173 173 0 0 0 22-32l7-13 5-3h5q3-1 5 1l1 1q2 1 1 2l-1 3-14 41v1l-1 2v-1l-1-1v1l1 1zm-14 45zm3 11h1v-1zm1-4q1 0 0 0m2-25zm1 5zm1-5zl1-1h-1zm2-63zv-2 1zm1 9h-2 2v-3h-1 1zm9-9zM776 116l-1-1v-1q0-1 0 0h-1l-1 1h-1l-1 2v1h-2v-5h-1l-1 1 2 1v3h2l1 2v2-1l-1 2h-1l-1-1v-1 1-2h-1v2-1l-3 1v1l1 1h1v2l-2 3-6 4h1l-2 1q-5 4-10 4l-6-1-1-1-2-1h-1l-3-1-1-1-3-4-1-3 2-4 1-3 2-5 1-4 9-27 1-2v-3l2-3 1-3 1-3 2-5v1h1v-1h-1l1-6v-2l1-4 3-15 4-15 3-9 1-1h6l1 1q4 2 7 1h1l6 2 5 3 4 3 2 3v2l1 6-1 5-1 2-3 4h1l-6 7-5 5-6 5v1l1 1 4 3 3 3 3 4 2 3 1 5v15l-1 2-5 8-1 1-2 1-1 1-1 2h-1v1l-1 1-1 1zm-43 11zm5 0v2l1-1zm3-25zm3 4zh-1v2h1zm0 21h-2v1l1 1h2zm1-26zv1zm1 23-1 1v1l1 1 7-2 7-6 1-1 6-6h2v-3l2-2 2-5 1-3 3-6v1-1l1-1 1-1 1-1v-2l1-1v-6l-2-6q0-4-4-5l-8-4-4-1h-2l-1 2-1 3v3l-2 8-1 5-1 1v1l-1 4v-1 2zm3-34zq-2 0-2 3v1h1v-1q2-1 2-3m-2 45zm3-1zm5-64-2 2h1zm1 62zm1-66v-1h-1v1zm-1-19zl1-1-1-1zm1 5zm0-7h1zm3 10zm2-6zm2-7zm22-16-1-1-2-1-8 3-1 2-1 2-4 8-2 9v2l2-1 2-1 11-10 4-9v-3m-17 96-1-1zm3-6zm1-4zh1l-1-1zm2-8zv-1zm1-49zm3 54h-2zm3-7zv1zm-1-57v1l1-1q2 0 0 0zm1 43zh1zm3 11zh-1l1 1zm-1-4zm5-6v-1l-2-2-1 1v1zm-1 4zl-1-1zm3-70z"/></g></svg>