<?xml version="1.0" encoding="UTF-8"?>
<svg id="Layer_2" data-name="Layer 2" xmlns="http://www.w3.org/2000/svg" viewBox="0 0 272.5 326.14">
  <defs>
    <style>
      .cls-1 {
        fill: #fff;
      }
    </style>
  </defs>
  <g id="Layer_1-2" data-name="Layer 1">
    <g>
      <path class="cls-1" d="M264.21,172.62c-1.75-2.08-4.57-2.86-7.95-2.82-9.39.1-23.23,6.67-31.42,10.44-6.63,3.04-33.15,10.93-26.52,21.99,3.72,6.2,11.9.32,16.5-1.95,6.41-3.45,13.06-6.41,19.91-8.86,6.65-2.14,13.06-5.68,19.84-7.32.57-.14,1.13-.31,1.69-.49,6.4-2.07,11.65-6.61,7.95-10.98Z"/>
      <path class="cls-1" d="M259.03,267.19c-.93-.27-1.86-.57-2.78-.86-6.24-1.93-12.42-4.22-18.58-6.32-7.52-2.37-15.15-4.36-22.86-5.96-2.99-1.03-6.29-.75-9.06.78-2.99,1.82-2.6,4.13-1.54,7.37,2.1,6.38,9.05,7.05,14.46,8.39,3.23.8,5.84,2.33,9.08,3.02,4.04.85,8.05,1.9,12.06,2.85,4.08.68,8.11,1.64,12.06,2.87,1.55.61,2.95,1.48,4.38,2.31,1.28.74,2.57,1.46,4.01,1.91,7.08,2.24,10.02-1.71,11.97-7.36,1.95-5.65-7.51-7.39-13.2-9.02Z"/>
      <path class="cls-1" d="M261.53,220.66c-.74-2.19-2.86-3.1-5.28-3.53-2.41-.43-5.11-.39-7.04-.65-6.04-.82-11.62.79-17.65.51-4.9-.57-9.87-.37-14.7.61-2.6.26-4.92,1.74-6.25,3.98-1.34,2.24-1.53,4.99-.52,7.4.57,1.35,2.32,2.38,3.45,3.58.85,1.03,2.2,1.49,3.51,1.2,2.7.16,5.41.1,8.1-.2,5.57-.53,11.16-.73,16.75-.61,3.19.09,9.61-.26,14.36-2.26,4.18-1.76,7.07-4.81,5.28-10.02Z"/>
      <path class="cls-1" d="M136.66,242.11c15.69-11.88,8.33-45.46,7.19-50.66-4.66-21.25-16.28-35.22-21.58-40.86-6.22-6.62-20.24-10.74-27.78-6.67-9.09,4.91-12.72,13.18-12.72,13.18-.85,7.84,6.35,14.18,8.54,14.6,5.31,1,10.37-3.19,15.82-3.04,5.69.16,10.89,2.89,16.84,13.97,1.38,2.57,5.14,16,2.07,32.07-3.04,15.92-20.62,18.61-18.97,24.69,1.58,5.81,19.7,10.98,30.59,2.73Z"/>
      <path class="cls-1" d="M96.2,237.02c-2.5-3.17-6.43,2.41-8.77,5.09-4.02,4.58,2.27,15.61,1.69,31.59-.76,20.98-12.48,26.78-8.95,39.4,2.15,7.7,8.96,14.32,12.88,12.83,4.88-1.85,3.58-15.66,7.98-50.52.82-6.49,1.35-16.92,1.07-20.21-.41-4.81-3.17-14.74-5.89-18.18Z"/>
      <path class="cls-1" d="M140.6,289.55c-.95-15.73-14.17-27.98-16.03-29.66l-5.44-5.33c-.75-.77-8.17-8.33-10.84-5.66-2.44,2.45-.32,12.84,3.6,20.25,6.13,11.57,13.4,9.65,18.73,20.89,3.95,8.32,2.9,15.55,4.83,16.26,2.2.81,5.69-7.83,5.15-16.75Z"/>
      <path class="cls-1" d="M203.22,155.22c2.52-2.69,1.88-6.09.08-10.14-9.28-17.71-41.79,29.13-41.19,53.81.74,31,37.18,72.63-.58,96.33-10.13,6.36-41.27,28.76-11.46,20.01,8.59-3.11,11.39-4.41,16.64-7.07,6.06-3.07,14.63-9.1,19.27-17.25,13.44-25.31,1.08-55.22-5.61-74.63-10.98-31.88,8.03-49.26,22.85-61.05Z"/>
      <path class="cls-1" d="M148.85,276.25c3.49,1.71,10.03.67,12.11-1.86,1.74-2.11-.64-4.05-2.26-8.47-3.37-9.18,2.57-12.52-1.01-20.39-.96-2.1-.85-8.79-7.26-8.52-1.92.08-3.68,3.15-4.22,4.43-4.72,11.2,0,20.25-.32,26.83-.13,2.6-.35,6.35,2.97,7.98Z"/>
      <path class="cls-1" d="M155.71,184.78c5.28-1.91,6.62-8.51,4.61-12.85-1.3-2.8-4.42-5.57-8.61-5.77-3.87-.19-7.14,1.44-8.2,4.23-.31.82-.53,2.37-.7,3.22-.23,1.14-.15,2.8.22,4.37,1.05,4.48,7.23,8.76,12.67,6.79Z"/>
      <path class="cls-1" d="M102.11,228.56c15.41-5.61,21.73-28.19,12.77-41.93-6.04-9.27-28.86-3.66-35.78-9.84-5.19-4.64-2.36-17.81-8.84-26.42.35,14.32-2.63,29.53-13.21,40.24-.63.64-2.66-.05-1.83-.89,10.24-10.36,11.25-25.32,10.93-39.27-.58.06-1.1.1-1.56.12-12.47,12.24-25.92,23.68-44.7,21.59-1.26-.14-1.19-1.77.1-1.62,17.81,1.98,30.67-10.93,42.37-22.43.93-2.31,14.61-14.4,14.94-14.64-2.68-.28-5.36-.55-8.03-.91-4.9-.65-10.15-1.19-14.68-3.28-1.04-.48,1.6-1.95,2.15-1.7,5.73,2.64,12.92,2.9,19.1,3.57,1.43.15,5.33.52,7.03.6,8.15-2.76,28.82-10.73,34.84-22.1,3.34-6.31,3.52-14.08,2.73-20.68-11.96,6.05-28.4,5.02-42.27,2.29-.05,0-.07-.02-.12-.03-.37,0-.73-.11-1.01-.46-3.4-4.32-5.58-9.59-6.88-15.32-14.16,1.65-33.61,4.29-42.47,6.5-3.57.89-19.92,7.46-18.89,13.33,1.15,6.55-12.22,74.73-7.99,89.19,4.22,14.45,70.04,55.48,101.28,44.1Z"/>
      <path class="cls-1" d="M86.68,73.88c-.68-.1-6.35.41-14.04,1.28,1.4,5.57,3.28,8.68,6.36,12.59,13.57,2.65,29.22,3.13,40.76-2.59-1.07-6.54-2.56-10.25-2.56-10.25,0,0-29.74-.91-30.52-1.03Z"/>
      <path class="cls-1" d="M63.55,23.27c.63,6.32,9.71.45,16.73-1.3,4.29-1.07,9.56-2.46,14.61-2.61,13.14-.37,22.59.17,26.6.44l-.42-5.62c-.63-6.32-6.78-7.52-13.71-8.68L71.54,0c-7.17.97-9.59,9.61-8.96,15.93l.96,7.34Z"/>
      <path class="cls-1" d="M24.08,77.31s13.12-3.56,17.58-4.44c5.86-1.15,23.01-3.23,23.01-3.23.02-3.29.3-5.12.37-8.39.08-4-20.78,3.93-18.68.03,22.38-41.48,9.06-57,1.28-56.77-12.83.36-32.68,3.6-36.01,9.78-3.33,6.18,3.75,30.22,3.75,30.22,0,0,6.86,25.52,8.7,32.8Z"/>
      <path class="cls-1" d="M120.24,24.1c-1.91-.18-20.18.03-26.33.66-5.51.56-29.61,2.97-28.98,10.99.45,5.76,4.19,19.3,6.77,32.86,0,0,17.21-2.23,22.74-2.37,6.41-.17,22.92,1.08,22.92,1.08,0,0,10.36-42.48,2.89-43.21Z"/>
      <path class="cls-1" d="M135.53,121.49c3.42-29.58,5.04-30.2,5.57-30.4,5.96-2.24,15.15-3.75,21.41-.61,4.48,2.25,2.48,27.4,1.63,36.22,4.66.01,5.76-1.68,7.74-5.5,2.84-5.49,2.41-10.41,2.56-20.72.02-1.55.18-6.71.2-8.32.11-9.88,12.37,1.01,13.73-5.78.84-4.2,2.12-8.03,2.04-10.67-.05-1.83-15.55-4.48-15.62-6.28-.04-1.17-2.89-11.83,1.14-12.07,5.34-.32,16.85,4.81,16.95,3.34,1.44-21.12,6.31-22.16-3.03-29.49-11.89-9.33-38.06-32.13-57.98-16.88-3.22,2.46-6.46,52.1-5.88,99.83.04,3.4,4.29,5.7,9.52,7.34Z"/>
      <path class="cls-1" d="M161.46,92.71c-5.35-2.68-13.04-2.03-19.12.22-1.05,1.78-3.23,15.95-4.74,29.04,3.23.91,6.27,1.61,9.28,2.18,7.38,1.39,11.88,2.11,15.23,2.35,1.59-16.39,1.82-32.55-.65-33.79Z"/>
      <path class="cls-1" d="M198.52,117.29c-.67.79-2.74,4.62-4.76,9.07l-.47,1.04c-.42.93-.83,1.86-1.24,2.8,2.51,1.17,4.83,2.26,6.35,2.46,3.26.41,5.14.66,6.98.71.29-1.01.58-2.17.83-3.2l.22-.94c1.08-4.75,1.68-9.03.71-9.88-2.28-2.01-4.29-2.58-8.63-2.05Z"/>
      <path class="cls-1" d="M190.2,129.47c.47-1.07.89-2.03,1.3-2.94l.5-1.12c4.35-9.63,5.16-9.79,5.61-9.84,3.53-.45,7.59-.51,11.01,2.5,1.79,1.58,1.05,6.92.08,11.23l-.22.97c-.28,1.19-.57,2.26-.81,3.1,2.47-.22,3.73-1.21,5.22-3.48,3.69-5.35,7.25-15.49,7.98-23.12.33-3.44,6.35-1.48,6.35-1.48l1-7.04s-5.4-.72-4.91-5.91c.22-2.36.97-7.38,1.17-9.72.1-1.13,7.21,3.3,7.42,2.19,2.47-12.78,8.93-20.87,2.84-29.45-2.45-3.45-32.03-18.95-32.37-13.59-2.33,36.79-17.01,85.22-17.01,85.22,0,0,2.19,1.2,4.85,2.5Z"/>
    </g>
  </g>
</svg>