<svg xmlns="http://www.w3.org/2000/svg" width="238" height="78" viewBox="0 0 238 78" fill="none">
  <path d="M22.8952 26.4596C23.2241 25.4677 23.6332 24.6855 24.1306 24.1209C24.4916 23.6935 24.7563 23.1613 24.9248 22.5322C24.9889 22.4355 25.0531 22.2661 25.1253 22.0322C25.1895 21.7984 25.2376 21.6209 25.2777 21.4838C25.6387 20.2258 26.2644 19.0645 27.1549 18.008L27.4517 17.7096C27.5801 17.5403 27.6844 17.4274 27.7485 17.3629C28.0454 17.0322 28.2459 16.7177 28.3422 16.4193C28.7032 15.4274 29.377 14.0322 30.3718 12.2419C30.5001 12.008 30.813 11.3467 31.3104 10.25C31.2462 10.379 31.3424 10.1048 31.6072 9.4032C31.8719 8.77416 32.281 8.16126 32.8426 7.56449C33.0431 7.36287 33.1554 7.09675 33.1875 6.7661C33.1875 6.33868 33.2998 5.91933 33.5325 5.52416C34.1903 4.23384 34.8321 2.82255 35.4578 1.29836C35.6904 0.733842 36.1316 0.370939 36.7895 0.201584C37.3189 0.032229 37.8083 -0.0322871 38.2735 -2.90768e-05C38.6345 0.032229 39.2282 0.0967451 40.0545 0.201584C40.255 0.233842 40.3834 0.282229 40.4475 0.35481C40.6802 0.483842 40.993 0.60481 41.3861 0.701584C41.8835 0.798358 42.1964 0.887068 42.3247 0.951584C42.6857 1.08062 43.0467 1.1532 43.4157 1.1532C44.0735 1.08868 44.6832 1.43545 45.2448 2.19352C45.3089 2.29029 45.4453 2.50804 45.6378 2.83868C45.7662 3.13707 45.9186 3.35481 46.0871 3.48384C46.1513 3.58062 46.1513 3.73384 46.0871 3.92739C46.0229 4.02416 45.9347 4.14513 45.8384 4.27416C44.3864 6.39513 43.0547 9.2661 41.8354 12.8709C41.7391 13.0726 41.5546 13.6371 41.2899 14.5645C40.8968 15.9919 40.5117 17.0322 40.1507 17.6935C39.8218 18.3548 39.6213 19.0564 39.5571 19.7822C39.525 20.3467 39.3244 21.0564 38.9634 21.9193C38.7308 22.5161 38.6185 23.1613 38.6185 23.8548V24.5C38.6185 24.7016 38.5383 24.9113 38.3698 25.1451C38.0088 25.5726 37.7922 25.8709 37.728 26.0403C37.5997 26.4355 37.6478 26.7822 37.8724 27.0806C37.9045 27.1129 37.9527 27.1613 38.0249 27.2338C38.089 27.2984 38.1372 27.3467 38.1773 27.3871C38.3056 27.5887 38.3618 27.7984 38.3297 28.0322C38.2655 28.3629 38.2013 28.6451 38.1292 28.879C38.065 29.0484 37.9446 29.3226 37.7842 29.7258C37.6558 30.0564 37.5516 30.3225 37.4874 30.5242C37.1585 31.5484 36.9419 32.4113 36.8456 33.1129C36.8135 33.379 36.7493 33.8548 36.6451 34.5564C36.5488 35.1532 36.4766 35.6209 36.4445 35.9516C36.4124 36.1209 36.3482 36.3306 36.244 36.5967C36.1156 36.9274 35.915 37.129 35.6503 37.1935C35.4498 37.258 35.3214 37.3064 35.2572 37.3467C34.8962 37.4758 34.7438 37.7096 34.808 38.0403C34.9363 38.7661 35.0246 39.1371 35.0567 39.1371C35.0888 38.9677 35.0085 39.25 34.808 39.9838C34.447 41.2419 34.2144 42.5564 34.1181 43.9113C34.1181 44.0403 34.1021 44.258 34.07 44.5564C34.0379 44.8548 34.0058 45.0726 33.9737 45.2016C33.9416 45.7661 34.1903 46.1129 34.7117 46.2419C35.4337 46.4113 36.0675 46.6048 36.5889 46.8387C36.9499 46.9677 37.2467 47.1693 37.4794 47.4355C37.712 47.7016 38.073 48.1613 38.5704 48.8306C38.6666 48.9274 38.6987 49.0645 38.6666 49.2258C38.6345 49.4274 38.5543 49.5403 38.4179 49.5726C38.4179 49.6048 38.3859 49.6209 38.3217 49.6209C38.2896 49.6532 38.2575 49.6693 38.2254 49.6693C37.696 49.9355 37.2227 50.0806 36.7895 50.1209C36.4285 50.1209 35.9953 50.2338 35.5059 50.4677C35.1449 50.6693 34.9123 50.8467 34.816 51.0161C34.5834 51.4113 34.1742 51.6935 33.5806 51.8629C33.4121 51.9274 33.3319 52.0322 33.3319 52.1613C33.2998 52.3306 33.364 52.4758 33.5325 52.6129L33.8774 52.8145C34.1422 52.9838 34.2384 53.2258 34.1742 53.5564C34.1742 53.7258 34.1101 54.0564 33.9737 54.5484C33.8774 54.9435 33.8052 55.2742 33.7731 55.5403C33.709 56.2661 33.709 56.7822 33.7731 57.0806C33.8694 57.4758 33.8213 57.9758 33.6207 58.5726C33.5245 58.8064 33.5726 59 33.7731 59.1693C34.1341 59.4677 34.3186 59.8629 34.3186 60.3629C34.2866 60.6613 34.4149 60.8951 34.7117 61.0564C35.1048 61.2903 35.2412 61.6855 35.1048 62.25C34.6395 63.9113 34.2144 65.0806 33.8213 65.7822C33.4924 66.3467 33.356 66.9113 33.4282 67.4758C33.4603 67.8064 33.4121 68.1693 33.2758 68.5726C33.0752 69.0726 32.9148 69.4677 32.7784 69.7661C32.3853 70.6935 32.1206 71.6209 31.9842 72.5484C31.8559 73.2419 31.7034 73.9758 31.535 74.7338C31.4708 74.9677 31.3344 75.2177 31.1419 75.4758C30.9093 75.8387 30.5483 76.0564 30.0509 76.1209C29.9225 76.1532 29.7862 76.1209 29.6578 76.0242C29.361 75.8225 29.1283 75.629 28.9679 75.4274C29 75.4596 28.5909 74.9516 27.7325 73.8871C27.3394 73.3871 27.2191 72.9113 27.3875 72.4435C27.4838 72.2097 27.5159 71.8467 27.4838 71.3467C27.4838 70.6855 27.564 70.1048 27.7325 69.6048C27.7967 69.3387 27.8288 69.1209 27.8288 68.9597C27.8608 68.4597 28.0454 67.8306 28.3743 67.0726C28.639 66.4435 28.7673 65.7984 28.7673 65.1371C28.7353 64.2742 28.8315 62.7177 29.0642 60.4677C29.0963 60 29.2086 59.5887 29.4091 59.2258C29.5776 58.8951 29.6738 58.6935 29.7059 58.629C30.2675 57.6048 30.5322 56.4596 30.5001 55.2016C30.5001 54.9677 30.4359 54.7742 30.2996 54.6048C30.1712 54.3709 30.1471 54.0887 30.2514 53.758C30.452 53 30.5643 52.5645 30.5964 52.4677C30.6285 52.2661 30.6285 52.0564 30.5964 51.8226C30.5322 51.4597 30.3477 51.2258 30.0509 51.129C29.4893 50.9274 28.9278 50.7661 28.3662 50.629C28.2379 50.5967 28.0213 50.5645 27.7245 50.5322C27.4277 50.5 27.2111 50.4677 27.0827 50.4355C26.9543 50.4032 26.2404 50.2016 24.9568 49.8387C24.5638 49.7096 24.3472 49.6371 24.3151 49.6371C23.922 49.6048 22.7026 49.3709 20.657 48.9435C20.5607 48.9113 20.4083 48.8951 20.2158 48.8951C19.3253 48.7661 18.6515 49.1129 18.1862 49.9355C18.122 50.1048 18.0899 50.1693 18.0899 50.1371C17.1674 52.5564 16.67 54.0161 16.6058 54.508C16.5416 55.008 16.3411 55.4838 16.0122 55.9516C15.3544 56.9758 14.6966 58.2903 14.0307 59.879C13.9024 60.1774 13.7981 60.379 13.7339 60.4758C12.8755 62.0645 12.1054 64.2177 11.4075 66.9355C11.0786 68.3629 10.7016 69.5564 10.2684 70.5161C10.14 70.8467 9.89132 71.5403 9.53032 72.6048C8.96877 74.3306 7.96601 75.8387 6.51401 77.129C6.31346 77.2984 6.13697 77.4274 5.9685 77.5242C5.54333 77.6935 5.12618 77.8387 4.7331 77.9677C4.46837 78.0322 4.17155 78.0161 3.84264 77.9193C3.61 77.8226 3.43352 77.7177 3.29714 77.6209C2.73559 77.1935 1.73283 76.5806 0.280827 75.7822C0.0802741 75.6532 -0.0159912 75.4516 -0.0159912 75.1855C-0.0159912 74.8871 0.0160972 74.6048 0.0802741 74.3387C0.112363 74.2096 0.192584 73.9919 0.32896 73.6935C0.529512 73.3306 0.906552 72.5322 1.4681 71.3064C1.89327 70.2822 2.26229 69.4677 2.55911 68.8709C2.43075 69.1371 2.65537 68.6048 3.24901 67.2822C3.90682 65.758 4.3721 64.75 4.63683 64.25C5.06201 63.2903 5.52729 62.5403 6.02466 62.0161L6.41774 61.4677C6.58621 61.2338 6.68247 60.9516 6.71456 60.6209V59.7258C6.71456 59.3306 6.88303 58.9274 7.21193 58.5322C7.34029 58.3629 7.69326 57.9838 8.24678 57.3871C8.67196 56.8871 9.02493 56.2419 9.28164 55.4516C9.28164 55.3548 9.29768 55.2016 9.32977 55C9.45812 54.0726 9.82714 53.2742 10.4208 52.6129C10.9823 51.9193 11.4396 51.0887 11.8086 50.129C11.937 49.7338 12.0092 49.3709 12.0092 49.0322C12.0092 48.8629 11.9931 48.7177 11.961 48.5887C11.8648 47.8629 12.0573 47.0806 12.5547 46.25C12.7873 45.8548 13.0841 45.5403 13.4451 45.3064C13.8382 45.0403 14.1671 44.6451 14.4318 44.1129C14.8971 43.2177 15.3223 42.3709 15.7154 41.5806C17.4321 37.9355 18.4509 35.7984 18.7798 35.1693C19.2371 34.2742 19.7344 33.2177 20.2639 31.9838C20.5928 31.1855 20.9859 30.4758 21.4512 29.8467C21.5474 29.75 21.764 29.4516 22.0929 28.9516H22.0448C22.0769 28.8226 22.3577 27.9919 22.8871 26.4677L22.8952 26.4596ZM20.9699 38.7338C21.034 38.7016 21.0501 38.6532 21.018 38.5806C20.9217 38.4113 20.8335 38.4113 20.7693 38.5806C20.7372 38.5806 20.7372 38.6451 20.7693 38.7822L20.9699 38.7338ZM25.5665 32.4193L25.7189 32.3226C25.1574 33.7177 24.8285 34.5242 24.7322 34.758C24.636 34.9596 24.5638 35.1693 24.5317 35.4032C24.4033 36.1693 24.0503 37.379 23.4968 39.0322C23.4326 39.129 22.9994 40.2258 22.2133 42.3145C22.0127 42.8145 21.8844 43.3064 21.8202 43.8064C21.756 44.2338 21.9165 44.5484 22.3176 44.75C22.5181 44.8467 22.5823 44.879 22.5181 44.8467C23.6412 45.2096 24.2669 45.4113 24.3953 45.4435C26.3046 45.7742 27.54 45.9435 28.1015 45.9435C28.3342 45.9435 28.6951 45.9919 29.1925 46.0967C29.8182 46.1935 30.5402 46.1451 31.3665 45.9435L31.5671 45.8951C31.8318 45.7258 31.9922 45.5806 32.0644 45.4516C32.2329 44.9838 32.2971 44.3951 32.265 43.6613C32.265 42.7338 32.3452 41.4919 32.5137 39.9355C32.7142 38.1129 32.8265 36.8548 32.8586 36.1532C32.8586 36.0242 32.8907 35.8064 32.9549 35.508C33.1875 34.5161 33.2677 33.4193 33.2036 32.2258C33.1394 31.2338 33.1715 30.4193 33.2998 29.7903C33.4683 29.0967 33.5004 28.3629 33.3961 27.6048C33.1956 26.2096 33.1956 24.7419 33.3961 23.1774C33.4282 22.879 33.4121 22.5806 33.348 22.2822C33.2517 21.8548 32.987 21.6532 32.5538 21.6855C32.1928 21.7177 31.9441 21.8709 31.8157 22.129C31.7195 22.3306 31.5831 22.629 31.4227 23.0242C31.2221 23.4516 31.0777 23.75 30.9734 23.9193C30.9413 24.0161 30.8451 24.1209 30.6766 24.2177C30.6445 24.2177 30.4921 24.2338 30.2274 24.2661C29.8664 24.3306 29.5856 24.5484 29.385 24.9113C29.2567 25.1451 29.0722 25.4596 28.8395 25.8548C28.5748 26.3871 28.4144 26.7177 28.3422 26.8467C27.6523 28.1048 27.203 29.2661 27.0105 30.3306C26.9784 30.4596 26.9463 30.6451 26.9142 30.879C26.9142 31.1451 26.8982 31.3306 26.8661 31.4274C26.834 31.5564 26.7538 31.6774 26.6174 31.7742C26.2564 32.0726 25.9436 32.2742 25.6788 32.3709L25.5826 32.4193H25.5665ZM33.8774 12.6855C33.7812 12.5161 33.5806 12.5564 33.2838 12.7822C32.8586 13.1451 32.5458 13.5484 32.3452 13.9758C32.1767 14.3709 31.6393 15.4193 30.7167 17.1048C30.1231 18.1693 29.6819 19.1774 29.385 20.1371C29.2166 20.6693 28.9759 21.1129 28.647 21.4758C28.4785 21.7096 27.8528 22.7016 26.7698 24.4596C26.4088 25.0242 26.2083 25.7177 26.1762 26.5484C26.1762 26.6451 26.2083 26.7822 26.2725 26.9435C26.4409 27.2742 26.6335 27.3225 26.8661 27.0967C27.0667 26.8951 27.3153 26.5322 27.6122 26C28.0694 25.1048 29.0802 23.2177 30.6285 20.3306C31.8799 18.008 32.8827 16.1371 33.6448 14.7096C33.7731 14.4435 33.8935 14.1774 33.9897 13.9113C34.1181 13.5806 34.1582 13.2822 34.086 13.0161C34.0539 12.8871 33.9897 12.7661 33.8855 12.6693L33.8774 12.6855ZM29.2727 17.7096C29.2727 17.7096 29.2567 17.6774 29.2246 17.508C29.1283 17.1774 28.9438 17.1129 28.6791 17.3064C28.1817 17.6693 27.9892 18.25 28.0855 19.0484C28.1176 19.1451 28.1978 19.2177 28.3342 19.25C28.4625 19.2822 28.5668 19.2661 28.631 19.2016C29.0241 18.9677 29.2407 18.6532 29.2727 18.258V17.7096ZM32.7864 20.0967C32.9549 20.1613 33.1153 20.1451 33.2838 20.0484C33.4523 19.9516 33.5325 19.7984 33.5325 19.5967C33.5325 19.4355 33.5164 19.2984 33.4843 19.2016C33.356 18.7742 33.1234 18.6855 32.7944 18.9516C32.5297 19.1209 32.4014 19.3467 32.4014 19.6451C32.3693 19.8467 32.4976 19.9919 32.7944 20.0967H32.7864ZM36.6932 27.1048C36.5648 27.0726 36.4445 27.1209 36.3482 27.258C36.2199 27.3871 36.2359 27.508 36.3964 27.6048C36.629 27.7742 36.7895 27.7177 36.8937 27.4596C36.9258 27.2903 36.8617 27.1774 36.6932 27.1129V27.1048Z" fill="black"/>
  <path d="M58.6577 61.7177C58.5133 61.508 58.409 61.2903 58.3448 61.0483C58.3448 61.0161 58.3127 60.8225 58.2566 60.4677H58.393C58.4491 60.4112 58.4651 60.3628 58.4411 60.3306C58.3208 60.2741 58.2646 60.3306 58.2646 60.508L57.8635 60.4596C57.5667 60.4596 57.3581 60.5967 57.2458 60.8628L57.0693 61.2177L57.1174 61.1693C56.7965 61.379 56.612 61.6128 56.588 61.879C56.588 61.9677 56.5559 62.2015 56.4997 62.5886H55.6574C55.8018 62.1128 55.7777 61.637 55.5692 61.1693L55.8339 60.637C56.0104 60.3145 55.9221 60.1451 55.5692 60.1451C55.3044 60.1774 55.1119 60.2015 54.9916 60.2338C54.8151 60.2661 54.767 60.3709 54.8552 60.5483C54.9434 60.758 55.1921 60.9515 55.6093 61.129C55.4889 61.637 55.505 62.137 55.6574 62.6451C55.9221 62.4999 56.2029 62.4838 56.4997 62.5967C56.8527 62.7177 57.0853 63.0241 57.2057 63.5322C57.2378 63.7096 57.1896 63.887 57.0693 64.0645L57.1174 64.0161C56.973 64.2257 56.7966 64.4032 56.588 64.5483C56.4115 64.6935 56.235 64.7419 56.0585 64.6854C56.0264 64.6854 55.8499 64.6128 55.5291 64.4596L55.4809 64.508V64.0161L55.5291 64.0645C55.5852 63.8548 55.6333 63.7499 55.6654 63.7499C55.6975 63.5725 55.6333 63.4838 55.4889 63.4838C55.4007 63.4838 55.3445 63.5161 55.3125 63.5725C55.2804 63.6048 55.2082 63.7661 55.0878 64.0645V64.0161C54.767 64.0483 54.3659 64.2096 53.8925 64.508C53.684 64.629 53.6278 64.7903 53.7161 64.9999C53.7481 65.1774 53.8765 65.2822 54.1172 65.3144H54.6948H54.6466C54.791 65.6451 54.8712 65.8225 54.8712 65.8467C54.9274 65.9919 54.9274 66.1128 54.8712 66.2015C54.5423 66.8225 54.1493 67.3467 53.676 67.758C53.0583 68.2903 52.2159 68.9112 51.157 69.629C51.1249 69.4838 51.0527 69.4032 50.9324 69.4032C50.8441 69.4032 50.8281 69.4515 50.8843 69.5403C50.9404 69.629 51.0447 69.6451 51.1971 69.5886L50.4029 70.1693C49.0151 71.1209 47.4267 71.6854 45.6217 71.8628C44.7634 71.9193 43.897 71.7015 43.0146 71.1935C42.9263 71.1612 42.806 71.1048 42.6616 71.0161C42.5172 70.8951 42.4129 70.8225 42.3487 70.7903C42.1722 70.7015 41.9797 70.6451 41.7711 70.6128C41.2096 70.5564 40.9449 70.5403 40.9769 70.5644C40.0624 70.0644 39.6613 69.8548 39.7817 69.9435C39.6052 69.7983 39.5009 69.7096 39.4688 69.6774C38.819 68.9677 38.2575 68.2419 37.7841 67.4999C37.5194 67.1128 37.4151 66.6854 37.4713 66.2096C37.5916 65.4112 37.8243 64.7096 38.1772 64.1209C38.5302 63.5322 38.7067 63.129 38.7067 62.9193C39.0276 62.387 39.3083 61.5725 39.549 60.4757C39.6373 60.1773 39.8298 59.629 40.1266 58.8306C41.2176 55.8064 42.0118 53.4354 42.5172 51.7177C42.5172 51.6612 42.6616 51.2177 42.9584 50.387C43.167 49.7661 43.4317 49.3225 43.7526 49.0564C43.8729 48.9677 43.9291 48.8628 43.9291 48.7419C43.897 48.4193 43.9772 48.0886 44.1537 47.7661C44.4184 47.2338 44.5789 46.6128 44.6431 45.8951C44.6751 45.6854 44.7153 45.3628 44.7794 44.9193C44.8356 44.4435 44.9399 44.0564 45.0923 43.7661C45.3891 43.2661 45.5816 42.7177 45.6699 42.1209C45.726 41.8225 45.8785 41.4515 46.1111 41.008C46.3197 40.6532 46.5122 40.2983 46.6887 39.9435C46.809 39.7096 46.8652 39.5322 46.8652 39.4112C46.8973 39.0564 47.1299 38.2983 47.5711 37.1451C47.515 37.2661 47.523 37.379 47.6193 37.4999C47.6754 37.6451 47.7797 37.6774 47.9321 37.5886C47.9642 37.5886 48.0043 37.5564 48.0685 37.4999C48.1567 37.3548 48.1247 37.2338 47.9803 37.1451L47.6273 37.0967C48.0123 35.4354 48.2289 34.4757 48.2931 34.2096C48.3814 33.8225 48.4134 33.5564 48.3814 33.4112C48.2931 33.0241 48.3332 32.4515 48.5177 31.6774C48.6621 30.9354 48.9188 29.7177 49.2718 28.0322C49.6248 26.4354 49.9056 25.2015 50.1141 24.3386C50.9725 20.637 51.502 18.3386 51.7105 17.4435C52.0635 16.0806 52.4646 14.8225 52.9058 13.6612C52.962 13.4838 53.0823 13.258 53.2588 12.9919C53.347 12.8467 53.4513 12.758 53.5717 12.7257C54.069 12.637 54.6466 12.5483 55.2964 12.4596C55.3847 12.4274 55.521 12.4435 55.6975 12.508C55.9302 12.5644 56.1066 12.629 56.227 12.6854C56.3152 12.7177 56.4356 12.7741 56.58 12.8628C56.7564 12.9515 56.8768 13.008 56.9329 13.0403C58.2004 13.6612 59.3396 13.9274 60.3423 13.8386H60.7434C61.7783 13.8064 62.7008 14.0483 63.5271 14.5483C64.9149 15.4354 65.7573 15.9596 66.046 16.1048C66.6076 16.4032 67.1531 16.8628 67.6826 17.4838C68.1559 18.0161 68.4527 18.5241 68.565 18.9999C68.6532 19.2983 68.7094 19.4919 68.7415 19.5806C69.0624 20.2338 69.2388 21.1935 69.2709 22.4677C69.303 23.1774 69.1265 23.9354 68.7415 24.7338C68.4447 25.2983 68.212 25.6935 68.0355 25.9354C68.1799 25.7257 67.859 26.2903 67.0649 27.629L66.9766 27.5806H67.113C66.8803 27.9677 66.3188 28.7096 65.4283 29.8064C65.2839 30.0161 64.9711 30.4032 64.4978 30.9596C64.1127 31.4354 63.8079 31.8064 63.5672 32.0725C63.1821 32.5483 62.773 32.9757 62.3318 33.3628C61.1526 34.2822 60.2942 34.887 59.7647 35.1854C59.7968 35.1532 59.6284 35.2741 59.2754 35.5403C59.0668 35.7177 59.0668 35.8951 59.2754 36.0725C59.5401 36.3064 59.6845 36.4435 59.7166 36.4757C60.3664 36.9193 61.0723 37.5161 61.8425 38.258C62.4602 38.8225 62.9014 39.2096 63.1661 39.4112C63.7277 39.887 64.1849 40.4515 64.5379 41.1048C64.594 41.2257 64.7465 41.508 64.9791 41.9515C65.1877 42.3064 65.3481 42.6048 65.4685 42.8386C65.8214 43.4919 66.03 44.1693 66.0862 44.887C66.1744 45.8386 66.1904 46.758 66.1263 47.6451C66.0701 48.4193 66.0541 49.0806 66.0862 49.6451C66.1423 50.3306 66.0701 50.9757 65.8615 51.6048C65.8054 51.8386 65.7572 52.0241 65.7252 52.137C65.669 52.4919 65.5005 52.8628 65.2358 53.2499C64.9069 53.758 64.5138 54.3467 64.0405 55.0322C63.5993 55.7177 63.3346 56.2338 63.2463 56.5886C63.2142 56.6774 63.0859 56.9112 62.8452 57.2983C62.5484 57.7177 62.1553 57.879 61.6499 57.7903C61.3852 57.758 61.2649 57.879 61.297 58.1451V58.3225C61.3531 58.7419 61.1927 59.0161 60.8076 59.1693C60.7194 59.2015 60.6151 59.258 60.4947 59.3467C60.4627 59.379 60.4386 59.4354 60.4065 59.5241C60.2862 59.9435 60.0214 60.2096 59.6123 60.3225C59.4679 60.379 59.3797 60.4677 59.3476 60.5886C59.3155 60.7096 59.0829 61.0967 58.6416 61.7419H58.6898L58.6577 61.7177ZM38.7067 66.7903C38.6746 66.879 38.6586 66.9354 38.6586 66.9677L38.7067 67.0564C38.7628 66.9677 38.7548 66.879 38.6586 66.7903H38.7067ZM41.1374 66.6532C40.7844 66.8628 40.7844 67.0967 41.1374 67.3628C41.346 67.508 41.5064 67.4999 41.6267 67.3144C41.6829 67.1935 41.6829 67.0806 41.6267 66.9596L41.2738 66.5161C41.4503 66.3386 41.5545 66.2499 41.5866 66.2499C41.731 66.0725 41.707 65.9999 41.4984 66.0241C41.4663 66.0241 41.4422 66.0806 41.4101 66.2015C41.4101 66.2338 41.3781 66.3467 41.3219 66.5564L41.1454 66.6451L41.1374 66.6532ZM42.6857 55.0967V55.2338L42.8621 55.1854L42.6857 55.0967ZM43.7526 56.9193C43.7205 56.7983 43.6483 56.7257 43.528 56.6935C43.3836 56.637 43.2793 56.6612 43.2151 56.7822C43.0707 56.9919 42.9825 57.1532 42.9504 57.2741C42.9183 57.3306 42.9023 57.4515 42.9023 57.629C42.9023 57.8951 43.0386 57.9677 43.3034 57.8548C43.5681 57.7338 43.7285 57.4999 43.7927 57.1451C43.7927 57.0241 43.7767 56.9515 43.7446 56.9193H43.7526ZM44.0173 66.7903C43.8408 66.4677 43.5761 66.4032 43.2231 66.6128C43.1028 66.6693 43.0467 66.7741 43.0467 66.9273C43.0787 67.3467 43.2793 67.637 43.6644 67.8144C44.0173 68.0241 44.1938 67.9193 44.1938 67.4999C44.2259 67.2661 44.1617 67.0241 44.0173 66.7903ZM44.2821 54.6048C44.2259 54.4838 44.1216 54.4677 43.9692 54.5564C43.8489 54.6451 43.8328 54.7338 43.9211 54.8225C44.0414 54.9112 44.1457 54.8951 44.2339 54.7741C44.2901 54.7177 44.3061 54.6532 44.2821 54.5967V54.6048ZM44.8998 65.2338L44.988 65.1854C44.5147 65.5403 44.25 65.7338 44.1938 65.7661C44.1056 65.8548 44.1056 65.9757 44.1938 66.1209C44.3703 66.387 44.5789 66.5403 44.8115 66.5644C45.9346 66.5967 47.0497 66.2661 48.1728 65.5886C48.8787 65.1774 49.705 64.5403 50.6516 63.6774C50.796 63.5564 51.0206 63.3548 51.3175 63.0564C51.6143 62.8225 51.8309 62.629 51.9833 62.4757L51.9352 62.5241C52.4967 61.7499 53.3631 60.7903 54.5423 59.637C54.6627 59.5161 54.8552 59.4596 55.1199 59.4596C55.2082 59.4596 55.3285 59.4435 55.4729 59.4112C55.7376 59.3548 55.8098 59.2015 55.6975 58.9677C55.5772 58.6693 55.5932 58.4193 55.7457 58.2096C56.3634 57.379 56.6441 57.008 56.588 57.0967C57.0853 56.4435 57.4303 55.6854 57.6068 54.8306C57.6068 54.7741 57.7111 54.387 57.9196 53.6773C58.2165 52.5241 58.762 51.5886 59.5562 50.879L59.508 50.9677V50.9193C59.5401 50.7096 59.6123 50.5161 59.7326 50.3386C59.9091 50.1048 60.1177 49.9677 60.3503 49.9354C60.7033 49.9032 60.8237 49.7257 60.7033 49.4032C60.6151 49.137 60.6311 48.8225 60.7515 48.4677C60.7835 48.379 60.8237 48.2741 60.8878 48.1532L61.0242 47.887C61.1124 47.6209 61.1606 47.4435 61.1606 47.3548C61.2809 46.379 61.2649 45.5886 61.1124 44.9999C61.0563 44.7903 60.936 44.3064 60.7595 43.5322C60.6391 42.9435 60.5268 42.4677 60.4065 42.1128C60.1418 41.0725 59.5481 40.3306 58.6336 39.887C58.5775 39.8548 58.4571 39.7983 58.2806 39.7096C55.7136 38.5806 54.4621 38.0322 54.5183 38.0644C53.8685 37.7661 53.2508 37.5644 52.6571 37.4435C52.4486 37.4112 52.256 37.4757 52.0795 37.6209C51.6945 37.9435 51.4618 38.3144 51.3736 38.7338C51.2292 39.2983 51.141 39.6209 51.1089 39.7096C51.0527 40.1532 50.9324 40.7661 50.7559 41.5322C50.5473 42.4193 50.419 43.0322 50.3548 43.3548C50.1783 44.1854 50.0018 44.8225 49.8253 45.2661C49.6489 45.7419 49.4964 46.4354 49.3841 47.3548C49.352 47.4435 49.328 47.6048 49.2959 47.8467C49.2959 48.0564 49.2798 48.2177 49.2558 48.3386C49.1354 48.9919 48.9429 49.5564 48.6782 50.0322C48.622 50.0322 48.606 50.0161 48.63 49.9838L48.6782 50.5644C48.0605 53.379 47.6273 55.2338 47.3946 56.1209C46.9775 57.8144 46.5844 58.9838 46.1993 59.637C46.1111 59.8467 46.0389 60.1693 45.9747 60.6128C45.7661 62.2741 45.4292 63.7983 44.9559 65.1935L44.9078 65.2419L44.8998 65.2338ZM46.0951 49.3548C46.063 49.2661 46.0229 49.2096 45.9587 49.1774C45.8383 49.1209 45.726 49.129 45.6057 49.2257C45.341 49.4596 45.0923 49.9112 44.8516 50.5564V50.7822C44.8837 50.9274 44.9559 51.0161 45.0762 51.0483C45.1324 51.0483 45.1966 51.0322 45.2527 51.008C45.341 50.9757 45.3971 50.9515 45.4292 50.9193C45.8704 50.4757 46.1111 50.0161 46.1352 49.5403L46.087 49.3628L46.0951 49.3548ZM45.4292 70.6128C45.3971 70.8225 45.4613 70.8467 45.6057 70.7015L45.5576 70.5644L45.4212 70.6128H45.4292ZM46.6245 70.0403C46.5363 69.9193 46.448 69.9193 46.3598 70.0403C46.3277 70.0967 46.3277 70.1612 46.3598 70.2177C46.4801 70.3064 46.5844 70.2903 46.6726 70.1693L46.6245 70.0322V70.0403ZM49.0151 39.7499C49.0151 39.7499 48.9269 39.7177 48.8386 39.7499C48.4215 39.9274 48.261 40.2257 48.3493 40.637C48.4054 40.8144 48.5097 40.8628 48.6621 40.7741C48.9269 40.6532 49.1033 40.4354 49.1916 40.1048C49.2237 39.9274 49.1595 39.8064 49.0151 39.7499ZM49.6328 68.7903C49.4002 68.758 49.2638 68.7419 49.2317 68.7419C49.1755 68.7419 49.1274 68.7903 49.0953 68.879C49.0392 68.9999 49.0793 69.0886 49.2317 69.1451C49.2879 69.1451 49.352 69.129 49.4082 69.0967C49.5285 69.0403 49.5847 68.9354 49.5847 68.7822H49.6328V68.7903ZM49.8574 37.887C49.9778 37.7661 49.9938 37.6532 49.9056 37.5322C49.8173 37.4112 49.713 37.387 49.5927 37.4435C49.5365 37.4757 49.4724 37.4999 49.4162 37.5322C49.2959 37.6209 49.2798 37.7257 49.3681 37.8467C49.3681 37.879 49.4242 37.9193 49.5446 37.9838C49.6649 38.0161 49.7692 37.9838 49.8574 37.8951V37.887ZM49.3681 38.9515L49.4162 38.8628L49.328 38.8144L49.3761 38.9515H49.3681ZM49.5927 28.9919C49.5045 29.2903 49.5927 29.4354 49.8574 29.4354C50.066 29.4354 50.2104 29.3306 50.2986 29.1209C50.419 28.887 50.3307 28.7499 50.0339 28.7177C49.8253 28.7177 49.6809 28.8064 49.5927 28.9838V28.9919ZM49.7692 31.258L49.721 31.3467L49.8093 31.3951L49.7612 31.258H49.7692ZM49.9457 28.0564C49.9457 28.2015 50.0018 28.2903 50.1222 28.3225C50.2666 28.3548 50.3869 28.3064 50.4751 28.1854C50.5955 27.9193 50.4912 27.7822 50.1623 27.7822C50.0179 27.8144 49.9376 27.9032 49.9376 28.0483L49.9457 28.0564ZM51.4458 32.7257C51.502 32.7257 51.534 32.6774 51.534 32.5886C51.5661 32.4112 51.4859 32.3548 51.3094 32.4112L51.1731 32.5483C51.2051 32.6935 51.2934 32.758 51.4378 32.7257H51.4458ZM52.3764 29.8306L52.5529 29.7419L52.3764 29.6532V29.8306ZM53.3069 26.8064C53.4273 26.9274 53.4995 26.8951 53.5316 26.7177C53.5316 26.6612 53.4995 26.6128 53.4433 26.5806C53.4112 26.5806 53.3711 26.6128 53.3069 26.6693V26.8064ZM63.4389 19.2499C63.3827 18.9838 63.2142 18.7741 62.9495 18.629C62.6848 18.4515 62.4441 18.4032 62.2436 18.4919C62.0992 18.5483 61.8745 18.637 61.5777 18.758C61.313 18.9032 61.1044 19.008 60.96 19.0725C60.2541 19.3386 59.8129 19.4757 59.6364 19.4757C59.4037 19.508 59.0427 19.6532 58.5775 19.9193C58.1924 20.129 57.9116 20.3951 57.7351 20.7177C57.3822 21.4032 57.2618 21.637 57.3822 21.4274C56.588 22.7903 56.0264 24.129 55.6975 25.4274C55.4328 25.9919 55.0638 27.3225 54.5905 29.4274C54.5905 29.4838 54.5744 29.5483 54.5423 29.6048C54.5423 30.1128 54.6306 30.4032 54.8071 30.4919C54.9836 30.5806 55.2804 30.508 55.6895 30.2661C56.0104 30.0886 56.3393 29.8628 56.6602 29.5967C57.0452 29.2983 57.5025 28.9112 58.032 28.4435C58.2084 28.2661 58.5213 27.9677 58.9625 27.5564C59.3476 27.2015 59.6524 26.9193 59.8931 26.7096C60.3664 26.2983 60.8798 25.6854 61.4414 24.887C62.2355 23.758 62.8853 22.3951 63.3907 20.7983C63.3907 20.7661 63.4389 20.4596 63.5271 19.8628C63.471 19.4757 63.4389 19.2741 63.4389 19.2419V19.2499ZM54.6787 65.2338L54.6306 65.3225H54.6787V65.2338ZM55.521 64.4757C55.3766 64.3306 55.2242 64.1774 55.0798 64.0322V64.0806H55.521L55.4729 64.0322V64.5241L55.521 64.4757ZM56.6281 36.2822L56.5398 36.3306L56.6281 36.2419V36.2822ZM57.1575 61.3628L57.2939 61.4515C57.2378 61.5725 57.1736 61.5403 57.1174 61.3628C57.1495 61.3951 57.1495 61.3306 57.1174 61.1854L57.0693 61.2338C57.1255 61.2903 57.1575 61.3386 57.1575 61.3709V61.3628ZM57.5506 59.4999C57.5506 59.6451 57.6068 59.7338 57.7271 59.7661C58.0239 59.8548 58.1683 59.7822 58.1683 59.5403C58.1683 59.3951 58.0961 59.3064 57.9437 59.2741L57.7672 59.2257C57.6228 59.2822 57.5426 59.3709 57.5426 59.4919L57.5506 59.4999ZM58.5694 55.9838C58.5694 56.0725 58.6015 56.1209 58.6577 56.1209C58.8021 56.1773 58.8903 56.137 58.9224 55.9838L58.786 55.8467C58.6416 55.8144 58.5614 55.8628 58.5614 55.9838H58.5694ZM59.0588 32.8144C59.0909 32.758 59.0909 32.6935 59.0588 32.637C59.0026 32.4919 58.9144 32.4596 58.7941 32.5483C58.762 32.5806 58.7459 32.6209 58.7459 32.6854C58.7459 32.8306 58.8021 32.9112 58.9224 32.9112L59.0588 32.8225V32.8144ZM60.1658 58.1612H60.0776C59.7246 58.1048 59.5 58.0886 59.4118 58.1128L59.3636 58.0644C59.6845 58.1209 59.9412 58.1532 60.1177 58.1532H60.1658V58.1612ZM61.4494 55.008C61.4494 54.8306 61.4012 54.7096 61.313 54.6532C61.1686 54.5644 61.0643 54.5967 61.0001 54.7419C60.9681 54.8306 61.0001 54.887 61.0884 54.9193C61.1445 54.9193 61.2649 54.9354 61.4414 54.9677V55.0161L61.4494 55.008ZM61.4012 28.3225C61.3451 28.2903 61.2809 28.2741 61.2248 28.2741C61.1365 28.3064 61.0804 28.3306 61.0483 28.3628C60.96 28.508 60.9921 28.6128 61.1365 28.6774C61.1927 28.7096 61.2568 28.7257 61.313 28.7257C61.4012 28.6935 61.5456 28.5644 61.7542 28.3225C61.8986 28.3225 61.9307 28.2903 61.8425 28.2338C61.7863 28.3548 61.7703 28.3951 61.7943 28.3709C61.5617 28.3386 61.4253 28.3225 61.3932 28.3225H61.4012ZM61.8906 48.4677C61.8344 48.6128 61.8585 48.7338 61.9788 48.8225C62.1232 48.9999 62.2917 49.0322 62.4682 48.9112C62.5243 48.879 62.5564 48.8225 62.5564 48.7338C62.5564 48.4112 62.3799 48.2741 62.027 48.3306L61.8906 48.4677ZM62.8613 53.7177C62.8934 53.5967 62.8292 53.508 62.6848 53.4515C62.5965 53.4193 62.4762 53.3951 62.3318 53.3628C62.2757 53.3628 62.2275 53.3951 62.1954 53.4515C62.1072 53.5725 62.1232 53.6773 62.2436 53.7661C62.2757 53.7661 62.388 53.8144 62.5965 53.9032C62.7409 53.9354 62.8292 53.8709 62.8613 53.7257V53.7177ZM62.2436 50.6048L62.1954 50.5564L62.2436 50.508V50.5967V50.6048ZM62.5083 51.8467L62.5564 51.6693C62.4682 51.5241 62.396 51.5241 62.3318 51.6693C62.2997 51.7257 62.3158 51.7741 62.3799 51.8064L62.5163 51.8548L62.5083 51.8467ZM64.939 48.6048C65.0593 48.5483 65.0994 48.4435 65.0754 48.2903C65.0754 48.2015 65.0272 48.1532 64.939 48.1532C64.5218 48.0644 64.1448 47.8709 63.7918 47.5725C63.5833 47.4274 63.4228 47.4838 63.3025 47.7499C63.126 48.2257 63.2303 48.4919 63.6153 48.5483C63.6474 48.5483 63.9523 48.5967 64.5459 48.6854C64.7786 48.629 64.9149 48.5967 64.947 48.5967L64.939 48.6048ZM64.3213 50.6935C64.3534 50.7822 64.3694 50.8548 64.3694 50.9193C64.4256 51.0644 64.5299 51.129 64.6823 51.0967C64.8026 51.0644 64.8427 50.9596 64.8187 50.7822C64.7866 50.6048 64.6743 50.3951 64.4657 50.1612C64.4978 50.129 64.5539 50.1128 64.6422 50.1128C64.586 50.0806 64.586 50.0644 64.6422 50.0644L64.5058 50.1532C64.3614 50.3306 64.2972 50.508 64.3293 50.6854L64.3213 50.6935ZM65.7813 17.6451L65.6931 17.5967H65.7813V17.6451Z" fill="black"/>
  <path d="M67.113 60.7016C67.3456 60.7339 67.482 60.75 67.5141 60.75C68.1077 60.8387 68.4126 60.6049 68.4447 60.0403C68.4447 60.0968 68.4447 59.7016 68.4447 58.8387C68.4767 57.9758 68.4848 57.3226 68.4848 56.8791C68.4848 56.4033 68.573 55.9597 68.7495 55.5484C68.8939 55.1371 68.9821 54.8065 69.0142 54.5726C69.0463 54.3387 69.1025 54.1613 69.1907 54.0404C69.311 53.9194 69.4153 53.7178 69.5036 53.4194C69.6239 53.1533 69.7362 52.9597 69.8565 52.8387C70.0892 52.1855 70.2256 51.8145 70.2577 51.7258C70.3459 51.4597 70.4823 51.2339 70.6588 51.0565L70.6106 51.0081C70.755 51.4839 70.747 51.9113 70.5625 52.2984C70.5625 52.3549 70.5785 52.4194 70.6106 52.4758C70.6989 52.5968 70.8032 52.6371 70.9235 52.6129C71.0117 52.5807 71.1321 52.5242 71.2765 52.4355C71.5412 52.3145 71.8541 52.2742 72.207 52.2984H72.3835L72.1589 52.3468V51.9436C72.191 51.7097 72.3033 51.5565 72.5119 51.5C72.8087 51.3791 72.913 51.1855 72.8247 50.9194V50.6936C72.7926 50.3952 72.8969 50.1774 73.1376 50.0242C73.4023 49.8791 73.5467 49.6129 73.5788 49.2258C73.6109 48.992 73.5227 48.8387 73.3141 48.7823C73.1697 48.7258 73.0493 48.7339 72.9611 48.8307L72.6964 49.0968C72.5199 49.2742 72.3434 49.3307 72.1669 49.2742C71.7257 49.0968 71.2203 49.1694 70.6588 49.5C70.7149 49.4678 70.5866 49.6049 70.2577 49.9033C70.1694 50.0242 70.0491 50.0403 69.9047 49.9436C69.8485 49.8871 69.8164 49.8226 69.8164 49.7662C69.7603 49.2339 69.9368 48.8468 70.3459 48.6129L70.2978 48.6613L70.4341 48.3065C70.5224 48.1613 70.5545 48.0403 70.5224 47.9516C70.4021 47.6533 70.386 47.3307 70.4742 46.9758C70.9476 45.1936 71.5171 43.5403 72.199 41.992C72.3193 41.7581 72.3915 41.5807 72.4236 41.4597C72.4798 41.0726 72.7766 40.3468 73.3061 39.2823C73.8355 39.5484 74.1163 39.7016 74.1484 39.7258C74.357 39.8145 74.4452 39.7742 74.4131 39.5887C74.381 39.5323 74.3249 39.5 74.2366 39.5C74.1484 39.4678 73.8355 39.3952 73.3061 39.2742C72.9531 39.1533 72.7926 38.9194 72.8167 38.5645C72.8167 37.7339 73.0092 36.9597 73.3943 36.25C73.3622 36.2823 73.7312 35.6613 74.5014 34.3791C74.8543 33.7258 75.3116 33.2823 75.8731 33.0484C76.1058 32.9274 76.2983 32.7339 76.4507 32.4678C77.1567 31.1613 77.63 30.3065 77.8626 29.8871C77.9829 29.6533 78.0391 29.4597 78.0391 29.3065C78.007 29.0726 78.1434 28.5645 78.4402 27.7903C78.5285 27.5242 78.6729 27.3145 78.8814 27.1694C79.2665 26.9355 79.4831 26.7823 79.5473 26.7258C79.6114 26.6694 79.7237 26.5162 79.9002 26.2823C79.9002 26.25 79.9323 26.1936 79.9885 26.1049C80.2532 25.242 80.7987 24.4597 81.625 23.75C82.5957 22.8871 84.0316 22.25 85.9168 21.8387C87.0961 21.75 87.9945 21.7984 88.6122 21.9758C89.8477 22.3307 90.8825 22.7742 91.7088 23.3065C92.3024 23.7258 92.8559 24.0484 93.3934 24.2823C94.3079 24.7016 94.8695 25.4678 95.0781 26.5968C95.3428 28.0807 95.4792 29.1291 95.4792 29.7581C95.5113 30.4678 95.6156 31.121 95.792 31.7178C95.8803 32.0162 95.9124 32.3387 95.8803 32.6936C95.8241 34.5645 95.7599 36.0726 95.7038 37.2258C95.6717 37.7339 95.5835 38.25 95.4391 38.7823C95.2626 39.492 95.0219 40.7258 94.7331 42.4758C94.2919 45.2016 93.7705 47.3791 93.1849 49.0162C92.6795 50.3468 92.2382 51.742 91.8612 53.1936C91.8291 53.3387 91.7248 53.6533 91.5483 54.1291C91.4039 54.5162 91.3157 54.8226 91.2836 55.0645C91.1633 55.6613 90.8584 56.1452 90.353 56.5323C90.2327 56.621 90.1926 56.742 90.2167 56.8871C90.337 57.2742 90.321 57.5807 90.1685 57.8226C90.1364 57.8791 90.0081 58.1774 89.7674 58.7097L89.4145 59.4194C89.0294 60.1613 88.5481 60.5484 87.9544 60.5726C87.81 60.6049 87.7218 60.6936 87.6897 60.8387C87.6576 60.9839 87.6416 61.121 87.6416 61.242C87.6977 61.5404 87.5934 61.8468 87.3287 62.1774C87.0319 62.5323 86.5746 62.992 85.9569 63.5565C85.0424 64.4194 84.6573 64.7742 84.8098 64.621C84.16 65.242 83.3818 65.7339 82.4673 66.0887C80.9351 66.742 79.6355 67.1855 78.5766 67.4194C78.368 67.4516 78.1033 67.4758 77.7824 67.5081C77.5738 67.5081 77.3973 67.4516 77.2529 67.3307C77.1647 67.2742 77.0283 67.1694 76.8518 67.0162C76.7074 66.871 76.5711 66.7662 76.4507 66.7016C76.2422 66.5242 76.0095 66.5081 75.7448 66.6533C75.6886 66.7097 75.6004 66.7742 75.48 66.8307C75.3918 66.9194 75.3196 66.9758 75.2554 67.0081C74.7821 67.3065 74.3409 67.3387 73.9318 67.0968C73.4585 66.8307 72.6803 66.4758 71.5893 66.0323C71.469 66 71.2925 65.9274 71.0599 65.8065C70.8272 65.6855 70.6427 65.6129 70.5304 65.5807C70.2978 65.492 70.1052 65.4597 69.9528 65.492C69.4795 65.5807 69.0222 65.371 68.581 64.871C68.4045 64.6613 68.3564 64.4274 68.4447 64.1613C68.4767 64.0162 68.5008 63.8952 68.5329 63.8065C68.565 63.5404 68.5008 63.3629 68.3564 63.2742C68.0355 63.0403 67.827 62.7097 67.7387 62.2984C67.6184 61.7339 67.4018 61.1855 67.0729 60.6533L67.121 60.7016H67.113ZM71.7177 53.9436C71.6856 53.8871 71.6294 53.8871 71.5412 53.9436L71.5893 54.121C71.7658 54.1533 71.8139 54.0887 71.7257 53.9436H71.7177ZM73.0413 53.2742V53.3226L73.0895 53.371L73.0413 53.2823V53.2742ZM82.5556 57.5H82.3791C82.7 56.6694 83.0609 56.121 83.438 55.8549C83.5583 55.7662 83.7188 55.5565 83.9273 55.2339C84.7857 53.9597 85.2269 53.3065 85.251 53.2742C85.3071 53.1855 85.3553 53.0645 85.3874 52.9194C85.4435 52.3307 85.6521 51.7016 86.0051 51.0484C86.8875 49.3871 87.5373 47.4436 87.9544 45.2258C88.0427 44.9274 88.1149 44.5162 88.1791 43.9839C88.2673 43.3307 88.3234 42.9033 88.3555 42.6936C88.532 41.9194 88.6203 41 88.6203 39.9355C88.5882 38.0404 88.6684 36.1291 88.8449 34.2016C88.877 33.9033 88.877 33.6371 88.8449 33.4033C88.7566 32.6049 88.6524 31.8145 88.532 31.0484C88.4759 30.6936 88.3395 30.3952 88.1309 30.1613C88.0427 30.0726 87.9223 30.0404 87.7779 30.0726C87.6335 30.1049 87.5694 30.121 87.6015 30.121C86.8073 30.4436 86.1896 30.9194 85.7403 31.5404C85.5638 31.8065 85.1066 32.4597 84.3685 33.5C83.807 34.2742 83.3658 34.9113 83.0449 35.4113C82.8684 35.6774 82.6037 36.0645 82.2507 36.5645C81.8656 37.0726 81.6009 37.4355 81.4565 37.6774C81.4244 37.7097 80.8789 38.4597 79.82 39.9436L79.8681 39.8952C79.3066 41.0484 78.9857 41.6855 78.8975 41.8065C78.8092 41.8952 78.737 42.1291 78.6728 42.5162C78.5846 42.9033 78.4482 43.2581 78.2717 43.5807L77.3412 45.2742C77.3091 45.3307 77.2208 45.3629 77.0765 45.3629C76.9561 45.3629 76.8839 45.3145 76.8518 45.2258C76.8197 45.1936 76.7475 45.0162 76.6272 44.6936L76.7155 44.5565C76.7716 44.4355 76.7475 44.3307 76.6272 44.242C76.6834 42.5484 76.6994 41.7823 76.6753 41.9274L76.7235 41.9758C76.2823 41.9194 76.0416 41.8871 76.0175 41.8871C75.7849 41.8871 75.5442 41.8145 75.3116 41.6613C74.8944 41.6049 74.6458 41.5726 74.5575 41.5726C74.5014 41.5726 74.4693 41.6049 74.4693 41.6613C74.4372 41.7178 74.4532 41.7823 74.5174 41.8387C74.5495 41.8952 74.5896 41.9274 74.6538 41.9274C74.7741 41.9274 75.0067 41.8226 75.3597 41.6129C75.2394 42.4758 75.2875 43.1855 75.4961 43.75L75.5442 44.1049C75.5763 44.3387 75.5282 44.5242 75.4078 44.6371C74.373 45.6774 73.8756 46.1774 73.8997 46.1533L73.7232 46.4678C73.5467 46.6452 73.5146 46.75 73.635 46.7823C73.7232 46.7823 73.7794 46.6774 73.8115 46.4678L73.8596 46.1129C74.2446 46.3468 74.7581 46.7662 75.4078 47.3549C75.5843 47.5 75.7047 47.6533 75.7608 47.7984C75.817 47.8871 75.9694 48.2581 76.202 48.9113C76.0817 50.3307 75.9774 51.0887 75.8892 51.1774C75.8009 51.2662 75.7528 51.4033 75.7528 51.5807C75.7849 51.9113 75.7047 52.5565 75.5282 53.5403C75.5603 53.3065 75.472 53.8226 75.2635 55.0968C75.2314 55.3307 75.2474 55.6613 75.3116 56.0726C75.3998 56.5807 75.5603 57.0081 75.8009 57.3629C76.1539 57.871 76.2421 58.4274 76.0657 59.0565C76.0095 59.2339 75.9453 59.4839 75.8892 59.8145C75.8571 59.9033 75.841 60.0403 75.841 60.2178C75.809 60.5726 75.9293 60.8549 76.194 61.0645C76.4026 61.242 76.6673 61.2984 76.9882 61.242C77.6701 61.0645 78.1995 60.8307 78.5846 60.5323C78.6408 60.4758 78.8654 60.3226 79.2504 60.0887C80.1971 59.4355 80.9351 58.7823 81.4645 58.1291C81.6972 57.8307 82.0261 57.6291 82.4352 57.5081C82.5796 57.3629 82.6278 57.3629 82.5716 57.5081L82.5556 57.5ZM73.659 51.8952C73.6029 51.8952 73.5708 51.9274 73.5708 51.9839C73.5146 52.1291 73.5547 52.2178 73.7072 52.25C73.8516 52.2823 73.9318 52.2178 73.9318 52.0726C73.8997 51.9274 73.8115 51.8629 73.6671 51.8952H73.659ZM75.8731 37.1774L75.7368 37.1291C75.5924 36.8307 75.5041 36.6694 75.472 36.6371C75.4159 36.5484 75.3116 36.4758 75.1592 36.4113C74.8944 36.2904 74.742 36.3629 74.7179 36.6371C74.6859 36.8145 74.734 36.9355 74.8543 36.992C74.9747 37.0484 75.087 37.0968 75.2073 37.1291C75.2635 37.1291 75.456 37.1452 75.7849 37.1774H75.8731ZM76.6272 33.1774C76.5069 33.3549 76.539 33.5323 76.7155 33.7097C76.8037 33.7984 76.924 33.8307 77.0684 33.7984C77.3332 33.7097 77.4214 33.5645 77.3332 33.3549C77.3011 33.3226 77.2128 33.1452 77.0684 32.8226L77.3332 32.5565L77.1968 32.5081L77.1085 32.8629C76.9 32.9194 76.7395 33.0242 76.6192 33.1774H76.6272ZM78.5686 30.1936C78.4803 30.1936 78.376 30.25 78.2557 30.371C78.1354 30.4597 78.1113 30.5807 78.1675 30.7258C78.2878 30.871 78.376 30.9516 78.4322 30.9516C78.8172 31.0081 79.1141 30.9355 79.3146 30.7258V30.5484C79.106 30.25 78.8574 30.1371 78.5605 30.1936H78.5686ZM79.6355 32.8226L79.6756 32.6452L79.5392 32.5968C79.5392 32.5968 79.4831 32.6694 79.451 32.7339C79.5071 32.7662 79.5713 32.7904 79.6275 32.8226H79.6355ZM81.5367 32.0162H81.6731L81.5849 31.8791L81.5367 32.0162ZM82.1143 59.1452C82.2347 59.0242 82.2587 58.9113 82.2026 58.7904C82.1143 58.6452 82.01 58.6129 81.8897 58.7016C81.7453 58.7581 81.7132 58.8629 81.8015 59.0162L81.9378 59.1533H82.1143V59.1452ZM82.2026 33.7984C82.2587 33.7984 82.2908 33.7662 82.2908 33.7097C82.3229 33.5323 82.2587 33.4597 82.1143 33.4839L81.978 33.621C81.978 33.7662 82.0502 33.8307 82.2026 33.7984ZM86.0452 56.7016C86.0452 56.4678 85.9248 56.3145 85.6922 56.2581C85.604 56.2258 85.5478 56.2258 85.5157 56.2581C85.1306 56.4033 84.8098 56.6129 84.545 56.8791C84.3365 57.0565 84.2803 57.2984 84.3685 57.5887C84.4568 57.8871 84.6333 58.0484 84.898 58.0807C85.0424 58.1129 85.1788 58.0807 85.2991 57.992C85.6521 57.6936 85.9008 57.3226 86.0532 56.8791V56.7016H86.0452ZM87.2004 56.1694C87.2565 56.3791 87.2004 56.6855 87.0239 57.1049V57.2823C87.0239 57.5807 87.2004 57.742 87.5533 57.7742C87.6977 57.8065 87.802 57.7581 87.8662 57.6371C88.0427 57.3145 88.147 56.9436 88.1791 56.5242C88.2111 56.2016 88.1229 55.9033 87.9143 55.6371C87.7699 55.4033 87.6015 55.3387 87.425 55.4597C87.2806 55.5484 87.2004 55.6533 87.2004 55.7742V56.1774V56.1694ZM89.0133 28.371C88.869 28.3387 88.7486 28.4033 88.6604 28.5484C88.54 28.7823 88.6443 28.9033 88.9732 28.9033C89.1176 28.9033 89.1979 28.8307 89.1979 28.6774C89.1979 28.5242 89.1417 28.4274 89.0214 28.3629L89.0133 28.371ZM89.2299 56.742C89.262 56.5645 89.1979 56.4758 89.0535 56.4758C88.9652 56.4758 88.9171 56.5242 88.9171 56.6129C88.8609 56.7581 88.9171 56.8387 89.0936 56.8387L89.2299 56.75V56.742ZM89.2781 51.3629C89.2219 51.1533 89.1738 50.9597 89.1417 50.7823C89.1979 50.6371 89.246 50.6452 89.2781 50.8307H89.1417C89.262 50.9516 89.3021 51.1129 89.2781 51.3226V51.3629ZM90.4252 47.0484C90.3691 47.0807 90.337 47.121 90.337 47.1855C90.337 47.3307 90.4092 47.3952 90.5616 47.3629L90.698 47.2258C90.698 47.0807 90.6098 47.0162 90.4333 47.0484H90.4252Z" fill="black"/>
  <path d="M124.094 49.1854C124.094 49.8387 124.078 50.3145 124.046 50.6048C124.014 50.8145 123.942 51.0645 123.821 51.3629C123.613 51.8709 123.38 52.4032 123.115 52.9677C123.059 53.1129 122.939 53.1451 122.762 53.0564C122.706 53.0241 122.69 52.9677 122.714 52.879C122.746 52.758 122.803 52.508 122.891 52.1209C122.947 51.7983 123.011 51.5322 123.067 51.3225C123.156 50.758 122.947 50.3145 122.45 49.9919C122.393 49.9596 122.329 49.9354 122.273 49.9032C121.976 49.758 121.744 49.7983 121.567 50.0403L121.343 50.3548C121.11 50.9193 120.957 51.2903 120.901 51.4677C120.396 53.5161 119.674 55.7096 118.735 58.0483C118.414 58.7903 118.222 59.4274 118.158 59.9596C118.102 60.3145 117.965 60.8225 117.757 61.4758C117.636 61.8951 117.7 62.258 117.933 62.5887C118.11 62.8548 118.126 63.1854 117.981 63.5645C117.949 63.7096 117.861 63.9516 117.717 64.2741C117.123 65.5483 116.642 66.9838 116.257 68.5887C116.136 69.0967 116.032 69.4758 115.944 69.7419C115.735 70.4516 115.414 71.0887 114.973 71.6532C114.652 72.0403 114.307 72.2016 113.954 72.1451C113.601 72.0887 113.232 72.1935 112.847 72.4596C112.703 72.5806 112.526 72.7258 112.318 72.9032C112.021 73.1129 111.828 73.2419 111.74 73.3064C111.211 73.75 110.617 74.0322 109.967 74.1532C109.911 74.1532 109.823 74.1693 109.702 74.2016C109.558 74.2338 109.454 74.258 109.39 74.2903C109.181 74.3225 108.988 74.2741 108.812 74.1532C108.603 74.0322 108.443 74.0322 108.323 74.1532C108.202 74.2741 108.09 74.3306 107.97 74.3306C107.617 74.4193 107.103 74.4354 106.421 74.379C106.036 74.379 105.715 74.3064 105.451 74.1532C105.483 74.1854 105.226 74.0967 104.697 73.8871C103.838 73.5645 103.1 73.1612 102.483 72.6854C101.303 71.7983 100.445 70.9677 99.9155 70.1935C99.8593 70.137 99.7711 70.0483 99.6507 69.9274C99.5304 69.7822 99.4422 69.6774 99.386 69.6129C99.2095 69.379 99.1373 69.1371 99.1614 68.9032C99.2175 68.4596 99.0571 68.1209 98.672 67.879C98.2549 67.6451 97.9661 67.2258 97.7896 66.637C97.7335 66.4032 97.6131 65.9112 97.4366 65.1693C97.2922 64.5806 97.1398 64.1048 96.9954 63.75C96.9072 63.5161 96.8751 63.1854 96.9072 62.7741C96.9954 61.7096 97.0436 61.1854 97.0436 61.2177C97.0756 61.0403 97.0756 60.8064 97.0436 60.508V59.8387C97.0436 59.5403 97.0756 59.0806 97.1318 58.4596C97.1318 58.25 97.1639 57.7903 97.22 57.0806C97.2762 56.4919 97.3243 56.0161 97.3564 55.6612C97.4447 54.3306 97.6051 53.0967 97.8458 51.9677C98.0543 50.9596 98.1827 50.2338 98.2469 49.7903C98.279 49.5806 98.3512 49.2016 98.4715 48.6371C98.5918 48.1612 98.664 47.7741 98.6961 47.4838C98.8164 47.0967 98.9608 46.5241 99.1373 45.75C99.2817 44.9516 99.4181 44.3709 99.5384 44.0161C99.5946 43.75 99.731 43.2177 99.9395 42.4112C100.148 41.7258 100.309 41.1854 100.429 40.7661C100.461 40.6451 100.766 39.508 101.359 37.3387C101.448 37.0403 101.504 36.8467 101.536 36.758C101.712 36.3467 101.905 35.7822 102.114 35.0645C102.41 34.1451 102.603 33.5806 102.691 33.3709C103.221 31.8306 103.558 30.9112 103.71 30.6129C103.766 30.3145 104.079 29.3871 104.64 27.8145C105.05 26.6612 105.411 25.7258 105.699 25.0161C106.494 23 107.087 21.5322 107.472 20.6129C107.617 20.2903 108.178 19.0967 109.157 17.0564C109.454 16.4354 109.927 15.9758 110.569 15.6774C110.978 15.5 111.427 15.4516 111.892 15.5403C112.334 15.6612 112.751 15.8548 113.128 16.1209C113.393 16.2983 113.585 16.4758 113.705 16.6532C114.444 17.8387 114.748 18.3467 114.636 18.1693C114.989 18.6451 115.093 19.2822 114.949 20.0806C114.893 20.258 114.805 20.4354 114.684 20.6129C114.564 20.7903 114.347 21.1209 114.018 21.5887C113.016 23.0403 112.149 24.5967 111.411 26.258C110.729 27.7983 110.088 29.4596 109.462 31.2419C109.141 32.2177 108.812 33.0806 108.491 33.8225C107.962 35.0645 107.625 36.137 107.472 37.0241C107.472 37.1451 107.296 37.9112 106.943 39.3387C106.71 40.379 106.558 40.9516 106.502 41.0725C106.534 40.9838 106.325 41.4596 105.884 42.4919C105.651 43.0564 105.411 44.0161 105.178 45.379C105.146 45.4677 105.122 45.7338 105.09 46.1774C105.034 46.9193 104.753 47.5 104.247 47.9112L103.846 48.3145C103.405 48.758 103.333 49.25 103.622 49.7822L103.935 50.3145C104.199 50.7338 104.255 51.1612 104.111 51.6048C103.967 52.0806 103.886 52.75 103.886 53.6048C103.854 54.4032 103.782 54.9838 103.662 55.3387C103.221 58.5403 103.028 60.9112 103.084 62.4516C103.116 62.9596 103.172 63.3387 103.261 63.6048C103.437 64.1129 103.525 64.629 103.525 65.1612C103.525 65.6048 103.686 66.3145 104.015 67.2983C104.015 67.3306 104.031 67.387 104.063 67.4758C104.536 68.4274 105.106 68.5322 105.788 67.7903C105.996 67.5806 106.125 67.4354 106.189 67.3467C106.598 66.6935 107.055 65.9677 107.561 65.1693C107.914 64.6048 108.226 64.1048 108.491 63.6532C108.876 62.9435 109.245 62.4838 109.598 62.2741C110.569 61.0322 111.146 60.1532 111.323 59.6532C111.531 59.1209 112.045 57.7741 112.871 55.6048C113.168 54.9193 113.473 54.3306 113.802 53.8225C114.363 52.9919 114.837 51.9838 115.214 50.7983L116.184 48C116.481 47.1693 116.658 46.6693 116.714 46.4838C116.922 45.7096 117.227 45 117.644 44.3467C117.789 44.1129 117.853 43.9919 117.821 43.9919C118.118 43.4596 118.262 42.9516 118.262 42.4758V41.5887C118.262 41.4677 118.278 41.3629 118.31 41.2741C118.31 40.6854 118.535 40.2338 118.976 39.9435L119.465 39.629C119.874 39.3306 120.115 38.9435 120.171 38.4758C120.38 36.9919 120.348 35.8064 120.083 34.9193C119.995 34.5967 120.011 34.2661 120.131 33.9435C120.187 33.7983 120.292 33.5564 120.444 33.2338C120.588 32.9112 120.693 32.6532 120.757 32.4758C120.965 31.9758 121.006 31.5241 120.893 31.1451C120.805 30.758 120.717 29.9193 120.629 28.6129C120.596 28.0241 120.677 27.4838 120.853 27.008C121.086 26.4758 121.415 25.2741 121.824 23.4032C121.912 22.9596 122.209 21.8064 122.706 19.9354C122.915 19.1048 123.372 18.4838 124.078 18.0645C124.463 17.8548 124.832 17.8306 125.185 17.9758C125.153 17.9435 125.699 18.2016 126.822 18.7338C127.383 18.9677 127.688 19.3548 127.752 19.887C127.784 20.0967 127.913 20.2258 128.153 20.2903C128.274 20.3225 128.386 20.3629 128.506 20.4274C128.627 20.4838 128.699 20.5887 128.731 20.7419C128.787 21.2177 128.779 21.6774 128.683 22.1209C128.562 22.629 128.458 23.0725 128.37 23.4516C128.314 23.7177 128.177 23.9435 127.969 24.1209C127.937 24.1532 127.865 24.2096 127.744 24.2983C127.624 24.387 127.536 24.4435 127.479 24.4758C127.359 24.6209 127.335 24.8145 127.391 25.0564C127.391 25.0887 127.407 25.1451 127.439 25.2338C127.616 25.5887 127.648 25.9758 127.528 26.3871C127.086 28.1371 126.822 29.2177 126.733 29.637C126.613 30.0241 126.597 30.4193 126.685 30.8387C126.741 31.0161 126.741 31.2096 126.685 31.4193C126.509 32.3951 126.372 33.1129 126.284 33.5564C125.963 34.8306 125.931 36.0725 126.196 37.2903C126.284 37.5887 126.268 37.9112 126.148 38.2661C126.116 38.3548 126.092 38.4032 126.06 38.4032C125.915 38.5241 125.835 38.4758 125.835 38.2661C125.867 35.5725 125.883 33.7177 125.883 32.7096C125.883 32.2096 125.851 31.5564 125.795 30.75C125.795 30.5725 125.739 30.379 125.618 30.1693C125.53 30.0241 125.394 29.9435 125.217 29.9435C125.041 29.9112 124.888 29.9758 124.776 30.1209L124.551 30.4354C124.046 31.5887 123.781 32.6774 123.757 33.6854C123.725 34.25 123.709 34.9193 123.709 35.6854C123.677 36.9596 123.573 37.9354 123.396 38.6209C123.34 38.8548 123.308 39.1854 123.308 39.5967C123.276 39.8629 123.292 40.0564 123.356 40.1774C123.621 40.6854 123.765 41.3225 123.797 42.0887V42.3145C123.853 42.4919 123.99 42.629 124.198 42.7177C124.407 42.8064 124.6 42.8064 124.776 42.7177C125.041 42.5725 125.233 42.3951 125.354 42.1854C125.41 42.008 125.562 41.6371 125.795 41.0725C125.851 40.9274 125.939 40.8467 126.06 40.8467C126.292 40.8145 126.429 40.9354 126.461 41.2016C126.493 41.4112 126.509 41.5403 126.509 41.6048C126.477 41.8387 126.437 42.0322 126.372 42.1854C126.228 42.5725 126.092 42.879 125.971 43.1209C125.707 43.629 125.554 44.1854 125.53 44.8145C125.53 45.0806 125.41 45.3064 125.177 45.4838C124.792 45.6935 124.583 46.0161 124.559 46.4596V47.0403C124.503 47.3629 124.351 47.6612 124.118 47.9274C124.239 47.3951 124.263 46.9354 124.206 46.5483C124.206 46.5161 124.174 46.4032 124.118 46.1935C124.062 46.0483 123.958 45.9838 123.805 46.0161C123.276 46.0161 122.963 46.2096 122.875 46.5967C122.754 47.3709 122.73 48.0161 122.787 48.5564C122.787 48.7661 122.859 48.9435 123.011 49.0887C123.099 49.2096 123.204 49.2258 123.324 49.1371C123.5 49.0161 123.605 48.9435 123.637 48.9112C123.669 48.8225 123.845 48.4677 124.166 47.8467C124.134 47.9677 124.118 48.4274 124.118 49.2258L124.094 49.1854ZM98.8325 63.4193C98.8004 63.2983 98.7282 63.2096 98.6079 63.1532C98.4875 63.0645 98.3752 63.0645 98.2549 63.1532C98.1667 63.2419 98.1506 63.3629 98.2068 63.508C98.3271 63.6854 98.4875 63.7419 98.6961 63.6854C98.8726 63.629 98.9207 63.5403 98.8325 63.4193ZM98.5196 65.4193L98.4314 65.3306L98.4795 65.2822L98.5276 65.4193H98.5196ZM98.7442 66.3064C98.5678 66.3064 98.5357 66.379 98.656 66.5322C98.6881 66.5887 98.7282 66.6048 98.7924 66.5806L98.8405 66.4032L98.7523 66.3145L98.7442 66.3064ZM102.106 62.9677L102.154 62.7903H101.183C100.862 62.8467 100.517 62.7177 100.164 62.3871C100.108 62.3548 100.044 62.3306 99.9877 62.2983C99.8673 62.2661 99.7631 62.3145 99.6748 62.4354C99.5545 62.5564 99.5384 62.7338 99.6267 62.9677C99.6828 63.1774 99.8192 63.2903 100.028 63.3225C100.381 63.379 100.629 63.4112 100.782 63.4112C100.99 63.4435 101.183 63.3951 101.359 63.2741C101.183 63.3629 101.448 63.2016 102.154 62.7822L102.106 62.9596V62.9677ZM100.645 65.2822C100.645 65.3709 100.662 65.4919 100.694 65.6371C100.75 65.8145 100.854 65.8709 101.006 65.8145C101.127 65.7822 101.167 65.6774 101.143 65.5C101.111 65.3548 100.982 65.1451 100.742 64.879H100.918C101.095 64.8467 101.143 64.8064 101.055 64.7419L100.918 64.8306L100.782 64.9193C100.694 65.129 100.645 65.25 100.645 65.2741V65.2822ZM103.124 70.1774L102.988 70.3145L103.124 70.4032C103.18 70.4354 103.245 70.4193 103.301 70.3548V70.2177C103.213 70.1854 103.156 70.1693 103.124 70.1693V70.1774ZM103.614 71.0645C103.469 71.0322 103.389 71.1129 103.389 71.2903C103.389 71.379 103.421 71.4274 103.477 71.4274C103.622 71.4596 103.702 71.3951 103.702 71.25L103.614 71.0725V71.0645ZM104.055 41.2661C103.999 41.2983 103.951 41.3387 103.918 41.4032C103.886 41.5241 103.935 41.629 104.055 41.7177C104.111 41.75 104.175 41.75 104.231 41.7177C104.352 41.6612 104.376 41.5564 104.32 41.4032C104.288 41.258 104.199 41.2096 104.055 41.2661ZM104.624 70.5725C104.536 70.5403 104.488 70.5564 104.488 70.6209C104.432 70.7983 104.472 70.8709 104.624 70.8467L104.713 70.7096L104.624 70.5725ZM105.732 33.1774L105.82 33.0887L105.732 33.0483V33.1854V33.1774ZM109.093 71.8629L109.229 71.9516V71.8145L109.093 71.8629ZM112.101 61.9032L111.925 61.9919L112.061 62.0403L112.101 61.9032ZM116.658 49.1371C116.569 49.1693 116.537 49.2096 116.569 49.2741C116.601 49.4193 116.69 49.4677 116.834 49.4112C116.89 49.379 116.922 49.3387 116.922 49.2741C116.922 49.2419 116.874 49.2016 116.786 49.1371H116.65H116.658ZM118.607 55.1451L118.559 55.2822L118.695 55.2338L118.607 55.1451ZM122.586 43.7177C122.466 43.508 122.289 43.4354 122.056 43.4919C121.583 43.6371 121.318 43.9677 121.262 44.4677C121.206 44.7338 121.246 44.9758 121.399 45.1774C121.543 45.4112 121.752 45.5322 122.016 45.5322C122.313 45.5322 122.53 45.3951 122.682 45.129L122.859 44.6854C122.859 44.3306 122.77 44 122.594 43.7096L122.586 43.7177ZM122.546 41.7096C122.49 41.6532 122.426 41.6209 122.369 41.6209C122.225 41.5887 122.137 41.6693 122.105 41.8467C122.048 41.9919 122.073 42.1129 122.193 42.2016C122.225 42.258 122.265 42.2903 122.329 42.2903C122.474 42.3225 122.578 42.2419 122.642 42.0645C122.674 41.9193 122.642 41.7983 122.554 41.7096H122.546ZM124.575 43.8064C124.608 43.8951 124.632 43.9435 124.664 43.9435C124.808 44 124.896 43.9596 124.928 43.8064C124.96 43.6854 124.896 43.6129 124.752 43.5806C124.608 43.5806 124.543 43.6532 124.575 43.8064Z" fill="black"/>
  <path d="M139.216 46.9516C138.654 48.3145 138.173 49.6048 137.756 50.8226C137.459 51.6532 137.138 52.5161 136.785 53.4032C136.697 53.6129 136.577 53.879 136.432 54.2016C136.256 54.5887 136.135 54.871 136.079 55.0484C135.991 55.1935 135.887 55.4355 135.766 55.7581C135.646 56.1129 135.558 56.3629 135.502 56.5161C135.558 56.3952 135.357 56.871 134.884 57.9355C134.707 58.3548 134.483 58.6774 134.218 58.9113C134.13 59 134.082 59.121 134.082 59.2661C134.05 59.6855 134.05 60.0242 134.082 60.2903C134.138 60.9758 133.993 61.6693 133.64 62.379H133.592H133.681C133.536 62.7661 133.239 63.0726 132.798 63.3145V63.2661L132.975 63.621C133.063 63.8548 133.095 64.0484 133.063 64.2016C133.007 64.5 132.942 64.7661 132.886 65C132.445 66.3951 132.132 67.5322 131.956 68.4274C131.9 68.758 131.763 69.1129 131.555 69.4919C131.17 70.1451 130.993 70.4274 131.025 70.3387C130.728 70.9919 130.287 71.5564 129.702 72.0322C128.667 72.9193 128.225 73.3064 128.378 73.1855C128.201 73.3064 128.025 73.3951 127.848 73.4516C127.704 73.4839 127.584 73.4355 127.495 73.3145C127.319 72.9919 127.126 72.5 126.918 71.8468C126.886 71.6371 126.87 71.4435 126.87 71.2661C126.958 70.4677 127.102 69.8306 127.311 69.3548C127.455 68.9113 127.696 68.2097 128.017 67.2661C128.25 66.5806 128.402 66.0806 128.458 65.75C128.49 65.5403 128.635 65.0403 128.899 64.2339C129.397 62.6613 129.758 61.3306 129.958 60.2339C130.103 59.5484 130.327 59.0161 130.624 58.629C130.656 58.5726 130.672 58.4919 130.672 58.4032C130.672 58.371 130.656 58.3145 130.624 58.2258C130.568 57.9274 130.576 57.6048 130.672 57.25C131.258 54.9677 131.627 53.5 131.779 52.8468C131.9 52.3145 132.164 51.8871 132.573 51.5564C132.63 51.5242 132.678 51.4839 132.71 51.4193C132.742 51.2097 132.758 51.0806 132.758 51.0161C132.461 50.5403 132.421 50.0564 132.622 49.5484C132.678 48.8629 132.942 48.2016 133.416 47.5484C133.384 47.2822 133.416 47.0322 133.504 46.7903C133.801 46.1371 134.017 45.4597 134.17 44.7419C134.29 44.2419 134.346 43.8387 134.346 43.5403C134.403 42.8548 134.523 42.2177 134.699 41.629C134.82 41.2419 134.996 40.6048 135.229 39.7177C135.461 38.8871 135.654 38.25 135.806 37.8064C135.895 37.4516 136.031 37.1532 136.207 36.9193C136.328 36.7097 136.384 36.5322 136.384 36.3871C136.384 35.9113 136.504 35.129 136.737 34.0322C137.21 31.871 137.491 30.6532 137.579 30.3871C137.668 30.0645 137.86 29.0806 138.157 27.4516C138.213 27.0403 138.333 26.3871 138.51 25.4919C138.654 24.6613 138.775 24.0081 138.863 23.5322C138.863 23.4758 138.935 23.2177 139.087 22.7742C139.144 22.5968 139.264 22.4516 139.44 22.3306C139.737 22.1532 139.809 21.9274 139.665 21.6613C139.456 21.2742 139.352 20.8468 139.352 20.371C139.352 20.3145 139.408 19.7742 139.529 18.7661C139.561 18.6774 139.585 18.4113 139.617 17.9677C139.617 17.6452 139.44 17.4677 139.087 17.4355H138.686C138.39 17.4919 138.141 17.5726 137.932 17.6613C137.403 17.8387 136.697 17.9274 135.806 17.9274C135.598 17.9274 135.405 17.8952 135.229 17.8387C134.876 17.75 134.491 17.629 134.082 17.4839C134.025 17.4516 133.905 17.3952 133.729 17.3064C133.584 17.2177 133.464 17.1693 133.376 17.1693C132.517 16.9355 131.194 16.2097 129.397 14.9919C129.132 14.8145 128.835 14.5645 128.514 14.2339C128.009 13.7016 127.881 13.0968 128.113 12.4113C128.169 12.2016 128.258 12.0242 128.378 11.879C128.875 11.3145 129.453 10.8871 130.103 10.5887C131.547 9.90322 133.039 9.40322 134.571 9.08063C135.012 8.95967 135.325 8.87096 135.502 8.81451C135.798 8.7258 136.256 8.63709 136.873 8.54838C137.282 8.49193 137.539 8.42741 137.627 8.37096C138.069 8.19354 138.911 8.03225 140.146 7.87902C141.205 7.75805 141.855 7.66934 142.096 7.61289C143.363 7.31451 144.791 7.25805 146.388 7.43547C146.62 7.43547 146.885 7.46773 147.182 7.52418C147.39 7.55644 147.655 7.54031 147.976 7.4758C148.714 7.33063 149.292 7.24192 149.701 7.20967C150.703 7.0887 151.546 7.15322 152.22 7.38709C153.134 7.70967 154.105 7.70967 155.14 7.38709C155.549 7.26612 155.878 7.19354 156.11 7.16128C156.993 7.07257 158.397 6.75805 160.314 6.2258C161.261 5.99192 162.175 5.91128 163.057 5.99999C164.116 6.12096 164.71 6.19354 164.83 6.2258C165.328 6.28225 165.536 6.58063 165.448 7.11289C165.392 7.41128 165.36 7.54031 165.36 7.51612C165.031 8.75805 164.622 10.1371 164.124 11.6532C164.036 11.9758 163.844 12.2339 163.547 12.4113C162.544 13.0645 161.597 13.5403 160.715 13.8306C160.506 13.9193 160.226 14.0242 159.873 14.1452C159.488 14.2903 159.223 14.3952 159.079 14.4597C158.669 14.6048 158.413 14.6855 158.324 14.6855C157.939 14.7419 157.041 14.9839 155.629 15.3952C154.594 15.6935 152.974 16.2097 150.76 16.9516C150.439 17.0403 149.949 17.2177 149.3 17.4839C148.618 17.7177 148.12 17.9032 147.791 18.0161C147.735 18.0161 147.647 18.0484 147.527 18.1048C147.406 18.1613 147.318 18.2097 147.262 18.2419C146.821 18.3871 146.524 18.7177 146.38 19.2177C146.323 19.4839 146.291 19.6774 146.291 19.7984C146.171 20.75 145.994 22.4677 145.762 24.9597C145.553 27.2097 145.096 29.3952 144.39 31.5C144.27 31.7984 144.181 31.9758 144.125 32.0322C143.893 32.3548 143.74 32.7903 143.684 33.3226C143.652 33.621 143.548 33.9274 143.371 34.2581C143.283 34.379 143.251 34.4919 143.283 34.6129C143.315 34.9113 143.235 35.371 143.058 35.9919C142.409 38.0403 142.04 39.2984 141.951 39.7742C141.895 40.1613 141.671 40.4677 141.285 40.7097C140.636 41.129 140.315 41.3468 140.315 41.379C140.227 41.4677 140.194 41.5887 140.227 41.7339C140.259 41.879 140.387 42.1048 140.628 42.4032C140.804 42.6693 140.836 42.9839 140.716 43.3387C140.572 43.8145 140.395 44.1693 140.186 44.4032V44.3548C140.13 44.6855 139.801 45.5403 139.216 46.9355V46.9516ZM130.279 67.4516L130.191 67.5C130.047 67.3226 129.998 67.2339 130.055 67.2339C130.143 67.379 130.199 67.4677 130.231 67.5L130.279 67.4516ZM131.964 57.9758C131.843 57.8306 131.731 57.8306 131.611 57.9758C131.579 58.0322 131.579 58.0806 131.611 58.1129C131.699 58.258 131.803 58.2742 131.924 58.1613L131.972 57.9839L131.964 57.9758ZM131.827 62.4274L131.691 62.5645C131.691 62.5645 131.675 62.6532 131.643 62.7419C131.699 62.5968 131.747 62.4919 131.779 62.4274H131.827ZM133.247 59.4435C133.215 59.2661 133.071 59.1935 132.806 59.2177C132.662 59.2177 132.573 59.2742 132.541 59.3951C132.453 59.6048 132.509 59.75 132.718 59.8387H132.894C133.159 59.8064 133.279 59.6774 133.247 59.4355V59.4435ZM136.384 49.75C136.296 49.8387 136.296 49.9435 136.384 50.0645C136.44 50.1855 136.544 50.2097 136.697 50.1532C136.817 50.0968 136.889 50.0081 136.921 49.8871C136.921 49.7661 136.849 49.6613 136.697 49.5726C136.577 49.5726 136.472 49.629 136.384 49.75ZM137.01 9.90321C136.921 9.78225 136.801 9.7258 136.657 9.7258C136.536 9.75805 136.536 9.81451 136.657 9.90321C136.745 9.95967 136.865 9.9516 137.01 9.85483C137.042 10.3306 137.098 10.7016 137.186 10.9677H137.146C137.178 10.879 137.13 10.5242 137.01 9.90321ZM136.649 48.2339L136.601 48.371L136.737 48.4193C136.825 48.2742 136.793 48.2097 136.649 48.2419V48.2339ZM136.745 42.0564V42.1451L136.881 42.0968L136.745 42.0484V42.0564ZM137.451 38.5887C137.419 38.5322 137.379 38.5 137.315 38.5C137.17 38.4677 137.09 38.5322 137.09 38.6774C137.122 38.8548 137.21 38.9274 137.355 38.9032C137.499 38.8468 137.531 38.7419 137.443 38.5887H137.451ZM138.245 35.9597C138.125 35.8387 138.02 35.8548 137.932 36.0081C137.876 36.0645 137.828 36.1855 137.796 36.3629C137.796 36.4193 137.828 36.4677 137.884 36.5C138.004 36.621 138.109 36.621 138.197 36.5C138.229 36.4677 138.269 36.3387 138.333 36.0968L138.245 35.9597ZM139.039 40.1855L138.951 40.0968L139.039 40.1371V40.1855ZM139.97 34.4032C139.914 34.4355 139.882 34.4758 139.882 34.5403C139.85 34.6855 139.914 34.7742 140.058 34.8064C140.203 34.8064 140.267 34.7177 140.235 34.5403C140.203 34.3952 140.114 34.3468 139.97 34.4032ZM141.294 37.6048C141.117 37.6371 140.941 37.6613 140.764 37.6935L140.812 37.6452C140.868 37.7016 140.989 37.871 141.165 38.1371V38.5403C141.197 38.7177 141.285 38.7339 141.43 38.5887C141.486 38.5322 141.486 38.4839 141.43 38.4516C141.55 38.5726 141.462 38.4677 141.165 38.1371C141.197 38.0161 141.221 37.8226 141.253 37.5564L141.294 37.6048ZM141.39 34.0081L141.478 34.0564L141.342 34.0081H141.39ZM144.037 22.4032H143.901C143.756 22.371 143.756 22.3468 143.901 22.3145C143.901 22.3468 143.917 22.371 143.941 22.4032C144.149 22.2581 144.173 22.2581 144.029 22.4032H144.037ZM152.003 14.6129V14.7903C152.059 14.8226 152.107 14.8064 152.139 14.75V14.6129H152.003Z" fill="black"/>
  <path d="M204.067 41.2984C204.067 42.0725 204.05 42.6371 204.01 42.9919C203.978 43.2419 203.89 43.5403 203.746 43.8871C203.497 44.4838 203.216 45.1209 202.903 45.7903C202.831 45.9677 202.695 46 202.486 45.8951C202.414 45.8629 202.398 45.7903 202.43 45.6855C202.462 45.5484 202.534 45.2419 202.639 44.7903C202.711 44.4032 202.775 44.0887 202.847 43.8387C202.951 43.1693 202.703 42.6371 202.109 42.25C202.037 42.2177 201.965 42.1774 201.901 42.1451C201.548 41.9677 201.267 42.0242 201.058 42.3064L200.793 42.6774C200.513 43.3467 200.336 43.7903 200.264 44C199.67 46.4354 198.812 49.0403 197.689 51.8306C197.304 52.7096 197.071 53.4677 197.007 54.1048C196.935 54.5242 196.774 55.129 196.534 55.9032C196.389 56.3951 196.462 56.8387 196.742 57.2258C196.951 57.5403 196.967 57.9354 196.798 58.3871C196.766 58.5645 196.654 58.8467 196.486 59.2338C195.788 60.75 195.202 62.4596 194.753 64.3629C194.608 64.9596 194.488 65.4193 194.384 65.7338C194.135 66.5806 193.75 67.3387 193.229 68.008C192.844 68.4677 192.442 68.6613 192.017 68.5887C191.6 68.5161 191.159 68.6451 190.702 68.9596C190.525 69.1048 190.317 69.2742 190.068 69.4919C189.715 69.7419 189.49 69.8951 189.386 69.9677C188.752 70.5 188.054 70.8306 187.284 70.9758C187.212 70.9758 187.108 70.9919 186.971 71.0322C186.795 71.0645 186.675 71.1048 186.602 71.1371C186.354 71.1693 186.129 71.1209 185.92 70.9758C185.672 70.8387 185.479 70.8387 185.343 70.9758C185.199 71.1209 185.062 71.1854 184.926 71.1854C184.509 71.2903 183.891 71.3064 183.089 71.2419C182.631 71.2419 182.246 71.1532 181.934 70.9758C181.966 71.008 181.669 70.9032 181.043 70.6613C180.024 70.2742 179.15 69.7983 178.412 69.2338C177.008 68.1774 175.989 67.1854 175.363 66.2742C175.291 66.2016 175.187 66.0967 175.051 65.9596C174.906 65.7822 174.802 65.6613 174.738 65.5887C174.529 65.3064 174.441 65.0242 174.473 64.7419C174.545 64.2096 174.353 63.8064 173.895 63.5242C173.406 63.2419 173.053 62.75 172.844 62.0403C172.772 61.758 172.636 61.1774 172.427 60.2983C172.251 59.5967 172.074 59.0322 171.906 58.6048C171.802 58.3225 171.769 57.9355 171.802 57.4435C171.906 56.1774 171.962 55.5564 171.962 55.5887C171.994 55.379 171.994 55.0967 171.962 54.7419V53.9516C171.962 53.5967 171.994 53.0564 172.066 52.3145C172.066 52.0725 172.098 51.5242 172.171 50.6774C172.243 49.9758 172.291 49.4113 172.331 48.9838C172.435 47.3951 172.628 45.9354 172.909 44.5967C173.157 43.3951 173.31 42.5322 173.382 42.008C173.414 41.758 173.502 41.3064 173.647 40.629C173.791 40.0645 173.871 39.6048 173.911 39.258C174.048 38.7984 174.224 38.1129 174.433 37.1935C174.609 36.2419 174.77 35.5564 174.906 35.129C174.978 34.8145 175.131 34.1774 175.379 33.2258C175.628 32.4113 175.821 31.7661 175.957 31.2661C175.989 31.129 176.358 29.7661 177.064 27.1935C177.168 26.8387 177.241 26.6129 177.273 26.508C177.481 26.0161 177.714 25.3467 177.955 24.5C178.308 23.4113 178.532 22.7338 178.636 22.4919C179.27 20.6613 179.671 19.5645 179.848 19.2096C179.92 18.8548 180.289 17.75 180.955 15.879C181.444 14.508 181.869 13.3951 182.214 12.5484C183.161 10.1532 183.859 8.40319 184.316 7.31448C184.493 6.92738 185.158 5.51609 186.314 3.08061C186.667 2.33868 187.228 1.79835 187.998 1.44351C188.488 1.23384 189.017 1.17739 189.579 1.28222C190.108 1.42739 190.597 1.65319 191.055 1.96771C191.368 2.17739 191.6 2.38706 191.737 2.6048C192.611 4.01609 192.98 4.61287 192.844 4.40319C193.261 4.96771 193.389 5.72577 193.213 6.67738C193.14 6.88706 193.036 7.09674 192.9 7.31448C192.763 7.53222 192.499 7.91126 192.114 8.47577C190.918 10.2016 189.883 12.0564 189.009 14.0322C188.199 15.8629 187.429 17.8387 186.699 19.9516C186.314 21.1129 185.929 22.1371 185.543 23.0161C184.91 24.5 184.509 25.7661 184.332 26.8225C184.332 26.9677 184.124 27.879 183.698 29.5725C183.418 30.8064 183.241 31.4919 183.177 31.6371C183.209 31.5322 182.968 32.0967 182.439 33.3306C182.158 34 181.877 35.1451 181.597 36.7661C181.564 36.8709 181.524 37.1854 181.492 37.7177C181.42 38.5967 181.091 39.2903 180.49 39.7822C180.385 39.8871 180.225 40.0484 180.016 40.258C179.487 40.7903 179.399 41.3709 179.752 42L180.121 42.6371C180.433 43.129 180.506 43.6451 180.329 44.1693C180.153 44.7338 180.064 45.5242 180.064 46.5484C180.032 47.5 179.944 48.1854 179.8 48.6129C179.27 52.4193 179.046 55.2419 179.118 57.0725C179.15 57.6693 179.222 58.129 179.326 58.4435C179.535 59.0403 179.639 59.6613 179.639 60.2983C179.639 60.8306 179.832 61.6693 180.217 62.8387C180.217 62.8709 180.233 62.9435 180.273 63.0484C180.834 64.1774 181.516 64.2984 182.327 63.4193C182.575 63.1693 182.728 63 182.8 62.8871C183.289 62.1129 183.835 61.25 184.428 60.2983C184.846 59.629 185.215 59.0322 185.535 58.5C185.993 57.6532 186.426 57.1048 186.851 56.8629C188.006 55.379 188.696 54.3467 188.905 53.7419C189.153 53.1048 189.763 51.5 190.75 48.9274C191.103 48.1129 191.464 47.4113 191.857 46.8145C192.523 45.8306 193.084 44.629 193.542 43.2177L194.697 39.8871C195.05 38.9032 195.258 38.2984 195.33 38.0887C195.579 37.1693 195.94 36.3225 196.437 35.5484C196.614 35.2661 196.686 35.129 196.646 35.129C196.999 34.4919 197.167 33.8951 197.167 33.3306V32.2742C197.167 32.1371 197.184 32.008 197.224 31.9032C197.224 31.2016 197.488 30.6693 198.01 30.3145L198.587 29.9435C199.077 29.5887 199.358 29.129 199.43 28.5725C199.678 26.8064 199.638 25.4032 199.325 24.3387C199.221 23.9516 199.237 23.5645 199.382 23.1774C199.454 23 199.574 22.7177 199.751 22.3306C199.927 21.9435 200.047 21.6451 200.12 21.4354C200.368 20.8387 200.416 20.3064 200.28 19.8467C200.176 19.3871 200.072 18.3871 199.967 16.8306C199.935 16.129 200.023 15.4919 200.232 14.9274C200.513 14.2903 200.898 12.8629 201.387 10.6451C201.491 10.1129 201.844 8.7419 202.438 6.52416C202.679 5.54029 203.224 4.79835 204.067 4.30642C204.524 4.05642 204.957 4.02416 205.382 4.20158C205.35 4.16932 205.992 4.46771 207.332 5.09674C207.997 5.379 208.366 5.83868 208.439 6.46771C208.471 6.71771 208.631 6.87093 208.912 6.94351C209.048 6.97577 209.193 7.03222 209.329 7.1048C209.465 7.17739 209.554 7.29835 209.594 7.47577C209.666 8.04029 209.65 8.58868 209.538 9.11287C209.401 9.70964 209.273 10.2419 209.169 10.7016C209.096 11.0161 208.936 11.2822 208.695 11.4919C208.663 11.5242 208.575 11.5967 208.431 11.7016C208.286 11.8064 208.182 11.879 208.118 11.9113C207.973 12.0887 207.941 12.3145 208.013 12.5967C208.013 12.629 208.029 12.7016 208.07 12.8064C208.278 13.2258 208.31 13.6854 208.174 14.1774C207.652 16.258 207.332 17.5484 207.227 18.0403C207.083 18.5 207.067 18.9758 207.171 19.4677C207.243 19.6774 207.243 19.9113 207.171 20.1532C206.962 21.3145 206.802 22.1613 206.698 22.6935C206.313 24.2096 206.281 25.6935 206.593 27.1371C206.698 27.4919 206.682 27.879 206.537 28.2984C206.505 28.4032 206.465 28.4596 206.433 28.4596C206.257 28.6048 206.168 28.5484 206.168 28.2984C206.2 25.0887 206.224 22.8871 206.224 21.6854C206.224 21.0887 206.192 20.3145 206.12 19.3548C206.12 19.1451 206.048 18.9113 205.912 18.6693C205.807 18.4919 205.647 18.4032 205.438 18.4032C205.23 18.3709 205.053 18.4354 204.917 18.6129L204.652 18.9838C204.058 20.3629 203.738 21.6451 203.706 22.8467C203.673 23.5161 203.649 24.3064 203.649 25.2258C203.617 26.7419 203.489 27.9032 203.28 28.7177C203.208 29 203.176 29.3871 203.176 29.879C203.144 30.1935 203.16 30.4274 203.232 30.5645C203.545 31.1613 203.722 31.9193 203.762 32.8387V33.1048C203.834 33.3145 203.986 33.4758 204.235 33.5806C204.476 33.6854 204.708 33.6854 204.917 33.5806C205.23 33.4032 205.462 33.1935 205.599 32.9435C205.671 32.7338 205.839 32.2903 206.12 31.6209C206.192 31.4435 206.297 31.3548 206.433 31.3548C206.714 31.3225 206.874 31.4596 206.906 31.7742C206.938 32.0242 206.962 32.1774 206.962 32.25C206.93 32.5322 206.874 32.758 206.802 32.9354C206.626 33.3951 206.465 33.7661 206.329 34.0484C206.016 34.6451 205.839 35.3145 205.807 36.0564C205.807 36.3709 205.663 36.6371 205.39 36.8467C204.933 37.0967 204.684 37.4838 204.652 38.008V38.6935C204.58 39.0806 204.403 39.4354 204.123 39.75C204.259 39.1129 204.299 38.5725 204.227 38.1129C204.227 38.0806 204.195 37.9355 204.123 37.6935C204.05 37.5161 203.93 37.4435 203.754 37.4838C203.12 37.4838 202.751 37.7177 202.647 38.1693C202.502 39.0887 202.47 39.8629 202.542 40.5C202.542 40.75 202.631 40.9596 202.807 41.1371C202.911 41.2822 203.032 41.2984 203.176 41.1935C203.385 41.0564 203.505 40.9677 203.545 40.9274C203.577 40.8225 203.794 40.3951 204.179 39.6613C204.147 39.7984 204.123 40.3467 204.123 41.2984H204.067ZM174.032 58.2177C174 58.0806 173.911 57.9677 173.767 57.9032C173.631 57.7984 173.486 57.7984 173.35 57.9032C173.246 58.008 173.23 58.1532 173.294 58.3225C173.438 58.5322 173.631 58.6048 173.871 58.5322C174.08 58.4596 174.136 58.3548 174.032 58.2177ZM173.663 60.6048L173.558 60.5L173.615 60.4435L173.671 60.6048H173.663ZM173.927 61.6613C173.719 61.6613 173.679 61.75 173.823 61.9274C173.855 62 173.911 62.0161 173.984 61.9838L174.04 61.7742L173.935 61.6693L173.927 61.6613ZM177.922 57.6935L177.979 57.4838H176.823C176.438 57.5564 176.037 57.3951 175.612 57.008C175.54 56.9758 175.468 56.9354 175.404 56.9032C175.259 56.8709 175.139 56.9193 175.034 57.0645C174.89 57.2016 174.874 57.4193 174.978 57.7016C175.051 57.9516 175.203 58.0887 175.452 58.1209C175.869 58.1935 176.166 58.2258 176.342 58.2258C176.583 58.258 176.815 58.2096 177.024 58.0645C176.815 58.1693 177.128 57.9758 177.971 57.4838L177.914 57.6935H177.922ZM176.19 60.4435C176.19 60.5483 176.206 60.6935 176.246 60.8629C176.318 61.0725 176.438 61.1451 176.615 61.0725C176.751 61.0403 176.807 60.9113 176.775 60.7016C176.743 60.5242 176.583 60.2822 176.302 59.9596H176.511C176.719 59.9274 176.775 59.8709 176.671 59.7984L176.511 59.9032L176.35 60.008C176.246 60.258 176.19 60.3951 176.19 60.4274V60.4435ZM179.134 66.258L178.973 66.4193L179.134 66.5242C179.206 66.5564 179.27 66.5403 179.342 66.4677V66.3064C179.238 66.2742 179.166 66.25 179.134 66.25V66.258ZM179.711 67.3145C179.535 67.2822 179.447 67.3709 179.447 67.5806C179.447 67.6854 179.479 67.7419 179.551 67.7419C179.727 67.7742 179.816 67.7096 179.816 67.5322L179.711 67.3225V67.3145ZM180.241 31.8871C180.169 31.9193 180.121 31.9758 180.08 32.0484C180.048 32.1855 180.096 32.3145 180.241 32.4193C180.313 32.4516 180.377 32.4516 180.449 32.4193C180.586 32.3467 180.626 32.2258 180.554 32.0484C180.522 31.8709 180.409 31.8225 180.241 31.8871ZM180.923 66.7338C180.818 66.7016 180.762 66.7177 180.762 66.7903C180.69 67 180.746 67.0887 180.923 67.0564L181.027 66.8951L180.923 66.7338ZM182.238 22.258L182.343 22.1532L182.238 22.0967V22.258ZM186.233 68.2661L186.394 68.3709V68.2096L186.233 68.2661ZM189.811 56.4193L189.603 56.5242L189.763 56.5806L189.819 56.4193H189.811ZM195.226 41.25C195.122 41.2822 195.082 41.3387 195.122 41.4113C195.154 41.5887 195.258 41.6451 195.435 41.5725C195.507 41.5403 195.539 41.4838 195.539 41.4113C195.539 41.379 195.483 41.3225 195.379 41.25H195.218H195.226ZM197.545 48.3871L197.488 48.5484L197.649 48.4919L197.545 48.3871ZM202.278 34.7984C202.141 34.5484 201.925 34.4677 201.644 34.5322C201.082 34.7096 200.769 35.0967 200.697 35.6935C200.625 36.008 200.681 36.2903 200.858 36.5403C201.034 36.8225 201.275 36.9596 201.596 36.9596C201.949 36.9596 202.205 36.7984 202.382 36.4838L202.59 35.9516C202.59 35.5322 202.486 35.1371 202.278 34.7903V34.7984ZM202.229 32.4113C202.157 32.3387 202.085 32.3064 202.021 32.3064C201.844 32.2742 201.74 32.3629 201.708 32.5725C201.636 32.75 201.676 32.8871 201.812 32.9919C201.844 33.0645 201.901 33.0967 201.973 33.0967C202.149 33.129 202.27 33.0403 202.342 32.8306C202.374 32.6532 202.342 32.5161 202.237 32.4113H202.229ZM204.644 34.9032C204.676 35.008 204.716 35.0645 204.748 35.0645C204.925 35.1371 205.029 35.0806 205.061 34.9032C205.093 34.7661 205.029 34.6774 204.853 34.6371C204.676 34.6371 204.604 34.7258 204.644 34.9032Z" fill="black"/>
  <path d="M228.879 20.6694C228.406 20.9355 227.788 21.3952 227.018 22.0484C226.809 22.1936 226.593 22.3468 226.352 22.492C226.175 22.5807 225.999 22.5807 225.822 22.492C225.79 22.492 225.678 22.4194 225.469 22.2662L225.518 22.2178L225.469 22.3065C225.084 22.4839 224.836 22.6936 224.715 22.9274H224.764C224.411 23.2823 224.026 23.4758 223.616 23.5081C223.56 23.5081 223.44 23.5565 223.263 23.6452C223.207 23.7016 223.159 23.75 223.127 23.7823C223.039 23.9274 223.071 24.0323 223.215 24.0968C223.336 24.1533 223.448 24.2178 223.568 24.2742C223.777 24.4194 223.777 24.6452 223.568 24.9436L223.616 24.8952C223.231 25.492 222.862 25.9516 222.509 26.2742C222.357 26.4516 221.771 27.0726 220.736 28.1452C220.119 28.7984 219.645 29.5081 219.325 30.2823C219.116 30.7016 218.996 30.9355 218.972 30.992C218.554 31.5565 218.193 32.4597 217.865 33.7016L217.824 33.8791C217.528 34.6533 217.544 35.492 217.865 36.4113C218.274 37.6855 218.851 38.7097 219.589 39.4839C220.472 40.4033 221.081 41 221.402 41.2662C221.491 41.3549 221.827 41.6694 222.421 42.2016C223.512 43.242 224.467 44.5726 225.293 46.2016C225.502 46.621 225.871 47.3871 226.4 48.5162C226.753 49.3145 226.962 50.1452 227.018 51.0081C227.074 52.371 227.106 53.75 227.106 55.1452C227.074 56.3871 226.841 57.6049 226.4 58.7904C226.312 59.0242 226.167 59.3952 225.959 59.9033C225.782 60.3791 225.646 60.75 225.558 61.0162C225.349 61.492 225.309 61.9516 225.421 62.3952C225.51 62.6291 225.478 62.8871 225.333 63.1533C224.86 64.1049 224.298 64.8307 223.648 65.3307C223.528 65.4194 223.336 65.5807 223.071 65.8226V65.7823C222.541 66.7339 222.204 67.2903 222.052 67.4758C221.843 67.7742 221.611 67.992 221.346 68.1452C219.517 69.0081 218.57 69.4516 218.514 69.4758C217.568 69.8629 216.806 70.0565 216.212 70.0565C215.618 70.0565 215.049 70.1774 214.487 70.4113C214.399 70.4436 214.279 70.4678 214.134 70.5C213.958 70.5565 213.821 70.6049 213.733 70.6371C213.204 70.8145 212.682 70.9194 212.185 70.9516C211.976 70.9516 211.639 71.0081 211.166 71.1291C210.693 71.25 210.324 71.3065 210.059 71.3065C210.003 71.3065 209.883 71.3387 209.706 71.3952C208.824 71.75 207.861 71.7984 206.834 71.5323C206.24 71.3549 205.783 71.2662 205.462 71.2662C205.518 71.2662 205.077 71.1774 204.139 71C203.697 70.9113 203.417 70.6774 203.296 70.2904C203.24 70.1452 203.12 69.9758 202.943 69.7984C202.735 69.6533 202.558 69.6613 202.414 69.8468C202.382 69.8791 202.27 70.0242 202.061 70.2904H202.109L200.737 68.6452C200.505 68.4355 200.328 68.1533 200.208 67.7984C199.887 66.9678 199.71 66.4758 199.678 66.3307C199.558 65.9436 199.486 65.5484 199.454 65.1291C199.422 64.5645 199.526 64.0645 199.767 63.6129C199.999 63.2258 200.104 63.0484 200.08 63.0807C201.026 61.7178 202.101 60.7823 203.312 60.2823C204.05 59.9839 204.805 59.75 205.567 59.5726C206.69 59.3387 207.853 59.2178 209.064 59.2178H210.348C210.877 59.1855 211.31 59.1855 211.631 59.2178C213.99 59.2742 216.324 58.6533 218.619 57.3468C219.445 56.871 220.127 56.2662 220.656 55.5242C220.865 55.2258 221.041 54.9597 221.186 54.7258C221.835 53.5726 222.116 52.371 222.028 51.121C221.972 50.0242 221.531 49.1049 220.704 48.3629C220.648 48.3065 220.48 48.1855 220.215 48.0081C219.918 47.7742 219.71 47.5081 219.597 47.2097C219.365 46.621 219.004 46.0807 218.538 45.6049C218.506 45.5726 218.49 45.5484 218.49 45.5162C218.458 45.4839 218.434 45.4597 218.402 45.4274C217.343 44.2984 216.076 42.6291 214.6 40.4033C214.247 39.871 214.022 39.3226 213.934 38.7581C213.525 36.2662 213.356 34.2339 213.444 32.6694C213.501 31.7178 213.549 31.1291 213.581 30.8871C213.637 30.621 213.685 30.2339 213.717 29.7339C213.773 28.7258 214.086 27.7178 214.648 26.7097C214.824 26.3871 214.912 26.2097 214.912 26.1774C215.121 25.8549 215.53 25.2178 216.148 24.2662C216.645 23.4678 217.046 22.8307 217.343 22.3549C217.664 21.8549 218.033 21.3952 218.45 20.9758C220.159 19.2581 221.827 17.8629 223.448 16.7984C223.801 16.5645 224.226 16.2662 224.731 15.9113C226.119 14.9355 227.652 14.0162 229.336 13.1533C230.283 12.6774 231.294 12.2178 232.385 11.7742C233.243 11.4194 234.125 11.2258 235.04 11.1936C235.601 11.1613 236.083 11.3307 236.5 11.6855C237.086 12.1291 237.487 12.6452 237.695 13.242C237.727 13.2742 237.767 13.3629 237.832 13.5081C237.864 13.6291 237.888 13.7178 237.92 13.7742C238.096 14.3952 238.04 14.9033 237.743 15.2823C237.446 15.7016 237.254 16.1855 237.166 16.75C237.166 16.8065 237.126 16.9274 237.029 17.1049C236.853 17.371 236.66 17.5484 236.452 17.6371C235.922 17.871 235.497 18.0404 235.168 18.1291C233.901 18.4274 232.778 18.7984 231.807 19.242C231.775 19.2742 231.526 19.3629 231.053 19.5081C230.933 19.3871 230.756 19.2258 230.523 19.0162L230.572 18.9678C230.572 18.9678 230.716 19.1049 231.101 19.4597C229.745 20.2339 229.007 20.6452 228.887 20.7016L228.879 20.6694ZM205.695 66.1694C205.639 66.4355 205.727 66.5726 205.96 66.5726C206.104 66.5726 206.192 66.5 206.224 66.3468C206.281 66.1129 206.192 65.9758 205.96 65.9436C205.815 65.9436 205.727 66.0162 205.695 66.1694ZM208.928 69.6371C208.872 69.6049 208.808 69.621 208.751 69.6855C208.607 69.8307 208.631 69.9194 208.84 69.9516L208.976 69.8145L208.936 69.6371H208.928ZM218.699 27.6129V27.6613L218.739 27.7097L218.699 27.621V27.6129ZM221.138 21.1613C221.081 21.0726 221.033 21.0242 221.001 21.0242C220.857 21.0242 220.793 21.0968 220.825 21.25C220.825 21.4274 220.897 21.5 221.049 21.4758L221.138 21.3387V21.1613ZM223.44 18.4033L223.304 18.4516L223.344 18.5887L223.48 18.5404L223.44 18.4033ZM224.362 20.1371C224.395 20.5242 224.435 20.8952 224.499 21.25C224.531 21.4597 224.635 21.4839 224.812 21.3387C225.309 20.9516 225.357 20.5081 224.948 20.0081C224.892 19.9194 224.788 19.871 224.635 19.871C224.459 19.9274 224.37 20.0162 224.37 20.1371H224.362ZM225.469 18.8065C225.469 18.75 225.421 18.7016 225.333 18.6694C225.181 18.5807 225.084 18.6129 225.02 18.7581C224.964 18.8791 225.02 18.9678 225.197 19.0242C225.341 19.0565 225.429 18.9758 225.461 18.7984L225.469 18.8065ZM226.889 20.5403C226.745 20.5726 226.713 20.6613 226.801 20.8065C226.833 20.8387 226.873 20.8387 226.938 20.8065L226.986 20.6694L226.897 20.5323L226.889 20.5403Z" fill="black"/>
</svg>