<?xml version="1.0" encoding="UTF-8"?>
<svg id="Layer_2" data-name="Layer 2" xmlns="http://www.w3.org/2000/svg" viewBox="0 0 296.68 96.72">
  <g id="Layer_1-2" data-name="Layer 1">
    <g>
      <path d="M28.54,32.81c.41-1.23.92-2.2,1.54-2.9.45-.53.78-1.19.99-1.97.08-.12.16-.33.25-.62.08-.29.14-.51.19-.68.45-1.56,1.23-3,2.34-4.31l.37-.37c.16-.21.29-.35.37-.43.37-.41.62-.8.74-1.17.45-1.23,1.29-2.96,2.53-5.18.16-.29.55-1.11,1.17-2.47-.08.16.04-.18.37-1.05.33-.78.84-1.54,1.54-2.28.25-.25.39-.58.43-.99,0-.53.14-1.05.43-1.54.82-1.6,1.62-3.35,2.4-5.24.29-.7.84-1.15,1.66-1.36.66-.21,1.27-.29,1.85-.25.45.04,1.19.12,2.22.25.25.04.41.1.49.19.29.16.68.31,1.17.43.62.12,1.01.23,1.17.31.45.16.9.25,1.36.25.82-.08,1.58.35,2.28,1.29.08.12.25.39.49.8.16.37.35.64.56.8.08.12.08.31,0,.55-.08.12-.19.27-.31.43-1.81,2.63-3.47,6.19-4.99,10.66-.12.25-.35.95-.68,2.1-.49,1.77-.97,3.06-1.42,3.88-.41.82-.66,1.69-.74,2.59-.04.7-.29,1.58-.74,2.65-.29.74-.43,1.54-.43,2.4v.8c0,.25-.1.51-.31.8-.45.53-.72.9-.8,1.11-.16.49-.1.92.18,1.29.04.04.1.1.19.19.08.08.14.14.19.19.16.25.23.51.19.8-.08.41-.16.76-.25,1.05-.08.21-.23.55-.43,1.05-.16.41-.29.74-.37.99-.41,1.27-.68,2.34-.8,3.21-.04.33-.12.92-.25,1.79-.12.74-.21,1.32-.25,1.73-.04.21-.12.47-.25.8-.16.41-.41.66-.74.74-.25.08-.41.14-.49.19-.45.16-.64.45-.56.86.16.9.27,1.36.31,1.36.04-.21-.06.14-.31,1.05-.45,1.56-.74,3.19-.86,4.87,0,.16-.02.43-.06.8-.04.37-.08.64-.12.8-.04.7.27,1.13.92,1.29.9.21,1.69.45,2.34.74.45.16.82.41,1.11.74.29.33.74.9,1.36,1.73.12.12.16.29.12.49-.04.25-.14.39-.31.43,0,.04-.04.06-.12.06-.04.04-.08.06-.12.06-.66.33-1.25.51-1.79.56-.45,0-.99.14-1.6.43-.45.25-.74.47-.86.68-.29.49-.8.84-1.54,1.05-.21.08-.31.21-.31.37-.04.21.04.39.25.56l.43.25c.33.21.45.51.37.92,0,.21-.08.62-.25,1.23-.12.49-.21.9-.25,1.23-.08.9-.08,1.54,0,1.91.12.49.06,1.11-.19,1.85-.12.29-.06.53.19.74.45.37.68.86.68,1.48-.04.37.12.66.49.86.49.29.66.78.49,1.48-.58,2.06-1.11,3.51-1.6,4.38-.41.7-.58,1.4-.49,2.1.04.41-.02.86-.19,1.36-.25.62-.45,1.11-.62,1.48-.49,1.15-.82,2.3-.99,3.45-.16.86-.35,1.77-.56,2.71-.08.29-.25.6-.49.92-.29.45-.74.72-1.36.8-.16.04-.33,0-.49-.12-.37-.25-.66-.49-.86-.74.04.04-.47-.59-1.54-1.91-.49-.62-.64-1.21-.43-1.79.12-.29.16-.74.12-1.36,0-.82.1-1.54.31-2.16.08-.33.12-.6.12-.8.04-.62.27-1.4.68-2.34.33-.78.49-1.58.49-2.4-.04-1.07.08-3,.37-5.79.04-.58.18-1.09.43-1.54.21-.41.33-.66.37-.74.7-1.27,1.03-2.69.99-4.25,0-.29-.08-.53-.25-.74-.16-.29-.19-.64-.06-1.05.25-.94.39-1.48.43-1.6.04-.25.04-.51,0-.8-.08-.45-.31-.74-.68-.86-.7-.25-1.4-.45-2.1-.62-.16-.04-.43-.08-.8-.12-.37-.04-.64-.08-.8-.12-.16-.04-1.05-.29-2.65-.74-.49-.16-.76-.25-.8-.25-.49-.04-2.01-.33-4.56-.86-.12-.04-.31-.06-.55-.06-1.11-.16-1.95.27-2.53,1.29-.08.21-.12.29-.12.25-1.15,3-1.77,4.81-1.85,5.42-.08.62-.33,1.21-.74,1.79-.82,1.27-1.64,2.9-2.47,4.87-.16.37-.29.62-.37.74-1.07,1.97-2.03,4.64-2.9,8.01-.41,1.77-.88,3.25-1.42,4.44-.16.41-.47,1.27-.92,2.59-.7,2.14-1.95,4.01-3.76,5.61-.25.21-.47.37-.68.49-.53.21-1.05.39-1.54.55-.33.08-.7.06-1.11-.06-.29-.12-.51-.25-.68-.37-.7-.53-1.95-1.29-3.76-2.28-.25-.16-.37-.41-.37-.74,0-.37.04-.72.12-1.05.04-.16.14-.43.31-.8.25-.45.72-1.44,1.42-2.96.53-1.27.99-2.28,1.36-3.02-.16.33.12-.33.86-1.97.82-1.89,1.4-3.14,1.73-3.76.53-1.19,1.11-2.12,1.73-2.77l.49-.68c.21-.29.33-.64.37-1.05v-1.11c0-.49.21-.99.62-1.48.16-.21.6-.68,1.29-1.42.53-.62.97-1.42,1.29-2.4,0-.12.02-.31.06-.56.16-1.15.62-2.14,1.36-2.96.7-.86,1.27-1.89,1.73-3.08.16-.49.25-.94.25-1.36,0-.21-.02-.39-.06-.55-.12-.9.12-1.87.74-2.9.29-.49.66-.88,1.11-1.17.49-.33.9-.82,1.23-1.48.58-1.11,1.11-2.16,1.6-3.14,2.14-4.52,3.41-7.17,3.82-7.95.57-1.11,1.19-2.42,1.85-3.95.41-.99.9-1.87,1.48-2.65.12-.12.39-.49.8-1.11h-.06c.04-.16.39-1.19,1.05-3.08ZM26.14,48.03c.08-.04.1-.1.06-.19-.12-.21-.23-.21-.31,0-.04,0-.04.08,0,.25l.25-.06ZM31.87,40.2l.19-.12c-.7,1.73-1.11,2.73-1.23,3.02-.12.25-.21.51-.25.8-.16.95-.6,2.45-1.29,4.5-.08.12-.62,1.48-1.6,4.07-.25.62-.41,1.23-.49,1.85-.08.53.12.92.62,1.17.25.12.33.16.25.12,1.4.45,2.18.7,2.34.74,2.38.41,3.92.62,4.62.62.29,0,.74.06,1.36.19.78.12,1.68.06,2.71-.19l.25-.06c.33-.21.53-.39.62-.55.21-.58.29-1.31.25-2.22,0-1.15.1-2.69.31-4.62.25-2.26.39-3.82.43-4.69,0-.16.04-.43.12-.8.29-1.23.39-2.59.31-4.07-.08-1.23-.04-2.24.12-3.02.21-.86.25-1.77.12-2.71-.25-1.73-.25-3.55,0-5.49.04-.37.02-.74-.06-1.11-.12-.53-.45-.78-.99-.74-.45.04-.76.23-.92.55-.12.25-.29.62-.49,1.11-.25.53-.43.9-.56,1.11-.04.12-.16.25-.37.37-.04,0-.23.02-.56.06-.45.08-.8.35-1.05.8-.16.29-.39.68-.68,1.17-.33.66-.53,1.07-.62,1.23-.86,1.56-1.42,3-1.66,4.32-.04.16-.08.39-.12.68,0,.33-.02.56-.06.68-.04.16-.14.31-.31.43-.45.37-.84.62-1.17.74l-.12.06ZM42.23,15.73c-.12-.21-.37-.16-.74.12-.53.45-.92.95-1.17,1.48-.21.49-.88,1.79-2.03,3.88-.74,1.32-1.29,2.57-1.66,3.76-.21.66-.51,1.21-.92,1.66-.21.29-.99,1.52-2.34,3.7-.45.7-.7,1.56-.74,2.59,0,.12.04.29.12.49.21.41.45.47.74.19.25-.25.56-.7.93-1.36.57-1.11,1.83-3.45,3.76-7.03,1.56-2.88,2.81-5.2,3.76-6.97.16-.33.31-.66.43-.99.16-.41.21-.78.12-1.11-.04-.16-.12-.31-.25-.43ZM36.49,21.96s-.02-.04-.06-.25c-.12-.41-.35-.49-.68-.25-.62.45-.86,1.17-.74,2.16.04.12.14.21.31.25.16.04.29.02.37-.06.49-.29.76-.68.8-1.17v-.68ZM40.87,24.92c.21.08.41.06.62-.06.21-.12.31-.31.31-.56,0-.2-.02-.37-.06-.49-.16-.53-.45-.64-.86-.31-.33.21-.49.49-.49.86-.04.25.12.43.49.56ZM45.74,33.61c-.16-.04-.31.02-.43.19-.16.16-.14.31.06.43.29.21.49.14.62-.18.04-.21-.04-.35-.25-.43Z"/>
      <path d="M73.12,76.53c-.18-.26-.31-.53-.39-.83,0-.04-.04-.28-.11-.72h.17c.07-.07.09-.13.06-.17-.15-.07-.22,0-.22.22l-.5-.06c-.37,0-.63.17-.77.5l-.22.44.06-.06c-.4.26-.63.55-.66.88,0,.11-.04.4-.11.88h-1.05c.18-.59.15-1.18-.11-1.76l.33-.66c.22-.4.11-.61-.33-.61-.33.04-.57.07-.72.11-.22.04-.28.17-.17.39.11.26.42.5.94.72-.15.63-.13,1.25.06,1.88.33-.18.68-.2,1.05-.06.44.15.73.53.88,1.16.04.22-.02.44-.17.66l.06-.06c-.18.26-.4.48-.66.66-.22.18-.44.24-.66.17-.04,0-.26-.09-.66-.28l-.06.06v-.61l.06.06c.07-.26.13-.39.17-.39.04-.22-.04-.33-.22-.33-.11,0-.18.04-.22.11-.04.04-.13.24-.28.61v-.06c-.4.04-.9.24-1.49.61-.26.15-.33.35-.22.61.04.22.2.35.5.39h.72-.06c.18.41.28.63.28.66.07.18.07.33,0,.44-.41.77-.9,1.42-1.49,1.93-.77.66-1.82,1.43-3.14,2.32-.04-.18-.13-.28-.28-.28-.11,0-.13.06-.06.17.07.11.2.13.39.06l-.99.72c-1.73,1.18-3.71,1.88-5.96,2.1-1.07.07-2.15-.2-3.25-.83-.11-.04-.26-.11-.44-.22-.18-.15-.31-.24-.39-.28-.22-.11-.46-.18-.72-.22-.7-.07-1.03-.09-.99-.06-1.14-.62-1.64-.88-1.49-.77-.22-.18-.35-.29-.39-.33-.81-.88-1.51-1.78-2.1-2.7-.33-.48-.46-1.01-.39-1.6.15-.99.44-1.86.88-2.59.44-.73.66-1.23.66-1.49.4-.66.75-1.67,1.05-3.03.11-.37.35-1.05.72-2.04,1.36-3.75,2.35-6.69,2.98-8.82,0-.07.18-.62.55-1.65.26-.77.59-1.32.99-1.65.15-.11.22-.24.22-.39-.04-.4.06-.81.28-1.21.33-.66.53-1.43.61-2.32.04-.26.09-.66.17-1.21.07-.59.2-1.07.39-1.43.37-.62.61-1.3.72-2.04.07-.37.26-.83.55-1.38.26-.44.5-.88.72-1.32.15-.29.22-.51.22-.66.04-.44.33-1.38.88-2.81-.07.15-.06.29.06.44.07.18.2.22.39.11.04,0,.09-.04.17-.11.11-.18.07-.33-.11-.44l-.44-.06c.48-2.06.75-3.25.83-3.58.11-.48.15-.81.11-.99-.11-.48-.06-1.19.17-2.15.18-.92.5-2.43.94-4.52.44-1.98.79-3.51,1.05-4.58,1.07-4.59,1.73-7.44,1.99-8.55.44-1.69.94-3.25,1.49-4.69.07-.22.22-.5.44-.83.11-.18.24-.29.39-.33.62-.11,1.34-.22,2.15-.33.11-.04.28-.02.5.06.29.07.51.15.66.22.11.04.26.11.44.22.22.11.37.18.44.22,1.58.77,3,1.1,4.25.99h.5c1.29-.04,2.44.26,3.47.88,1.73,1.1,2.78,1.75,3.14,1.93.7.37,1.38.94,2.04,1.71.59.66.96,1.29,1.1,1.88.11.37.18.61.22.72.4.81.62,2,.66,3.58.04.88-.18,1.82-.66,2.81-.37.7-.66,1.19-.88,1.49.18-.26-.22.44-1.21,2.1l-.11-.06h.17c-.29.48-.99,1.4-2.1,2.76-.18.26-.57.74-1.16,1.43-.48.59-.86,1.05-1.16,1.38-.48.59-.99,1.12-1.54,1.6-1.47,1.14-2.54,1.89-3.2,2.26.04-.04-.17.11-.61.44-.26.22-.26.44,0,.66.33.29.51.46.55.5.81.55,1.69,1.29,2.65,2.21.77.7,1.32,1.18,1.65,1.43.7.59,1.27,1.29,1.71,2.1.07.15.26.5.55,1.05.26.44.46.81.61,1.1.44.81.7,1.65.77,2.54.11,1.18.13,2.32.05,3.42-.07.96-.09,1.78-.05,2.48.07.85-.02,1.65-.28,2.43-.07.29-.13.52-.17.66-.07.44-.28.9-.61,1.38-.41.63-.9,1.36-1.49,2.21-.55.85-.88,1.49-.99,1.93-.04.11-.2.4-.5.88-.37.52-.86.72-1.49.61-.33-.04-.48.11-.44.44v.22c.07.52-.13.86-.61,1.05-.11.04-.24.11-.39.22-.04.04-.07.11-.11.22-.15.52-.48.85-.99.99-.18.07-.29.18-.33.33-.04.15-.33.63-.88,1.43h.06ZM48.25,82.82c-.04.11-.06.18-.06.22l.06.11c.07-.11.06-.22-.06-.33h.06ZM51.28,82.65c-.44.26-.44.55,0,.88.26.18.46.17.61-.06.07-.15.07-.29,0-.44l-.44-.55c.22-.22.35-.33.39-.33.18-.22.15-.31-.11-.28-.04,0-.07.07-.11.22,0,.04-.04.18-.11.44l-.22.11ZM53.21,68.32v.17l.22-.06-.22-.11ZM54.54,70.58c-.04-.15-.13-.24-.28-.28-.18-.07-.31-.04-.39.11-.18.26-.29.46-.33.61-.04.07-.06.22-.06.44,0,.33.17.42.5.28.33-.15.53-.44.61-.88,0-.15-.02-.24-.06-.28ZM54.87,82.82c-.22-.4-.55-.48-.99-.22-.15.07-.22.2-.22.39.04.52.29.88.77,1.1.44.26.66.13.66-.39.04-.29-.04-.59-.22-.88ZM55.2,67.71c-.07-.15-.2-.17-.39-.06-.15.11-.17.22-.06.33.15.11.28.09.39-.06.07-.07.09-.15.06-.22ZM55.97,80.89l.11-.06c-.59.44-.92.68-.99.72-.11.11-.11.26,0,.44.22.33.48.52.77.55,1.4.04,2.79-.37,4.19-1.21.88-.51,1.91-1.3,3.09-2.37.18-.15.46-.4.83-.77.37-.29.64-.53.83-.72l-.06.06c.7-.96,1.78-2.15,3.25-3.58.15-.15.39-.22.72-.22.11,0,.26-.02.44-.06.33-.07.42-.26.28-.55-.15-.37-.13-.68.06-.94.77-1.03,1.12-1.49,1.05-1.38.62-.81,1.05-1.75,1.27-2.81,0-.07.13-.55.39-1.43.37-1.43,1.05-2.59,2.04-3.47l-.06.11v-.06c.04-.26.13-.5.28-.72.22-.29.48-.46.77-.5.44-.04.59-.26.44-.66-.11-.33-.09-.72.06-1.16.04-.11.09-.24.17-.39l.17-.33c.11-.33.17-.55.17-.66.15-1.21.13-2.19-.06-2.92-.07-.26-.22-.86-.44-1.82-.15-.73-.29-1.32-.44-1.76-.33-1.29-1.07-2.21-2.21-2.76-.07-.04-.22-.11-.44-.22-3.2-1.4-4.76-2.08-4.69-2.04-.81-.37-1.58-.62-2.32-.77-.26-.04-.5.04-.72.22-.48.4-.77.86-.88,1.38-.18.7-.29,1.1-.33,1.21-.07.55-.22,1.31-.44,2.26-.26,1.1-.42,1.86-.5,2.26-.22,1.03-.44,1.82-.66,2.37-.22.59-.41,1.45-.55,2.59-.04.11-.07.31-.11.61,0,.26-.02.46-.05.61-.15.81-.39,1.51-.72,2.1-.07,0-.09-.02-.06-.06l.06.72c-.77,3.49-1.31,5.79-1.6,6.89-.52,2.1-1.01,3.55-1.49,4.36-.11.26-.2.66-.28,1.21-.26,2.06-.68,3.95-1.27,5.68l-.06.06ZM57.46,61.2c-.04-.11-.09-.18-.17-.22-.15-.07-.29-.06-.44.06-.33.29-.64.85-.94,1.65v.28c.04.18.13.29.28.33.07,0,.15-.02.22-.05.11-.04.18-.07.22-.11.55-.55.85-1.12.88-1.71l-.06-.22ZM56.63,87.56c-.04.26.04.29.22.11l-.06-.17-.17.06ZM58.12,86.85c-.11-.15-.22-.15-.33,0-.04.07-.04.15,0,.22.15.11.28.09.39-.06l-.06-.17ZM61.1,49.29s-.11-.04-.22,0c-.52.22-.72.59-.61,1.1.07.22.2.28.39.17.33-.15.55-.42.66-.83.04-.22-.04-.37-.22-.44ZM61.87,85.3c-.29-.04-.46-.06-.5-.06-.07,0-.13.06-.17.17-.07.15-.02.26.17.33.07,0,.15-.02.22-.06.15-.07.22-.2.22-.39h.06ZM62.15,46.98c.15-.15.17-.29.06-.44-.11-.15-.24-.18-.39-.11-.07.04-.15.07-.22.11-.15.11-.17.24-.06.39,0,.04.07.09.22.17.15.04.28,0,.39-.11ZM61.54,48.3l.06-.11-.11-.06.06.17ZM61.82,35.95c-.11.37,0,.55.33.55.26,0,.44-.13.55-.39.15-.29.04-.46-.33-.5-.26,0-.44.11-.55.33ZM62.04,38.76l-.06.11.11.06-.06-.17ZM62.26,34.79c0,.18.07.29.22.33.18.04.33-.02.44-.17.15-.33.02-.5-.39-.5-.18.04-.28.15-.28.33ZM64.13,40.58c.07,0,.11-.06.11-.17.04-.22-.06-.29-.28-.22l-.17.17c.04.18.15.26.33.22ZM64.57,34.68h.06-.06ZM65.29,36.99l.22-.11-.22-.11v.22ZM66.45,33.24c.15.15.24.11.28-.11,0-.07-.04-.13-.11-.17-.04,0-.09.04-.17.11v.17ZM79.08,23.87c-.07-.33-.28-.59-.61-.77-.33-.22-.63-.28-.88-.17-.18.07-.46.18-.83.33-.33.18-.59.31-.77.39-.88.33-1.43.5-1.65.5-.29.04-.74.22-1.32.55-.48.26-.83.59-1.05.99-.44.85-.59,1.14-.44.88-.99,1.69-1.69,3.35-2.1,4.96-.33.7-.79,2.35-1.38,4.96,0,.07-.02.15-.06.22,0,.63.11.99.33,1.1.22.11.59.02,1.1-.28.4-.22.81-.5,1.21-.83.48-.37,1.05-.85,1.71-1.43.22-.22.61-.59,1.16-1.1.48-.44.86-.79,1.16-1.05.59-.51,1.23-1.27,1.93-2.26.99-1.4,1.8-3.09,2.43-5.07,0-.04.06-.42.17-1.16-.07-.48-.11-.73-.11-.77ZM68.16,80.89l-.06.11h.06v-.11ZM69.21,79.95c-.18-.18-.37-.37-.55-.55v.06h.55l-.06-.06v.61l.06-.06ZM70.59,44.99l-.11.06.11-.11v.05ZM71.25,76.09l.17.11c-.07.15-.15.11-.22-.11.04.04.04-.04,0-.22l-.06.06c.07.07.11.13.11.17ZM71.74,73.78c0,.18.07.29.22.33.37.11.55.02.55-.28,0-.18-.09-.29-.28-.33l-.22-.06c-.18.07-.28.18-.28.33ZM73.01,69.42c0,.11.04.17.11.17.18.07.29.02.33-.17l-.17-.17c-.18-.04-.28.02-.28.17ZM73.62,40.69c.04-.07.04-.15,0-.22-.07-.18-.18-.22-.33-.11-.04.04-.06.09-.06.17,0,.18.07.28.22.28l.17-.11ZM75,72.12h-.11c-.44-.07-.72-.09-.83-.06l-.06-.06c.4.07.72.11.94.11h.06ZM76.6,68.21c0-.22-.06-.37-.17-.44-.18-.11-.31-.07-.39.11-.04.11,0,.18.11.22.07,0,.22.02.44.06v.06ZM76.54,35.12c-.07-.04-.15-.06-.22-.06-.11.04-.18.07-.22.11-.11.18-.07.31.11.39.07.04.15.06.22.06.11-.04.29-.2.55-.5.18,0,.22-.04.11-.11-.07.15-.09.2-.06.17-.29-.04-.46-.06-.5-.06ZM77.15,60.1c-.07.18-.04.33.11.44.18.22.39.26.61.11.07-.04.11-.11.11-.22,0-.4-.22-.57-.66-.5l-.17.17ZM78.36,66.61c.04-.15-.04-.26-.22-.33-.11-.04-.26-.07-.44-.11-.07,0-.13.04-.17.11-.11.15-.09.28.06.39.04,0,.18.06.44.17.18.04.29-.04.33-.22ZM77.59,62.75l-.06-.06.06-.06v.11ZM77.92,64.29l.06-.22c-.11-.18-.2-.18-.28,0-.04.07-.02.13.06.17l.17.06ZM80.95,60.27c.15-.07.2-.2.17-.39,0-.11-.06-.17-.17-.17-.52-.11-.99-.35-1.43-.72-.26-.18-.46-.11-.61.22-.22.59-.09.92.39.99.04,0,.42.06,1.16.17.29-.07.46-.11.5-.11ZM80.18,62.86c.04.11.06.2.06.28.07.18.2.26.39.22.15-.04.2-.17.17-.39-.04-.22-.18-.48-.44-.77.04-.04.11-.06.22-.06-.07-.04-.07-.06,0-.06l-.17.11c-.18.22-.26.44-.22.66ZM82,21.88l-.11-.06h.11v.06Z"/>
      <path d="M83.66,75.27c.29.04.46.06.5.06.74.11,1.12-.18,1.16-.88,0,.07,0-.42,0-1.49.04-1.07.05-1.88.05-2.43,0-.59.11-1.14.33-1.65.18-.51.29-.92.33-1.21.04-.29.11-.51.22-.66.15-.15.28-.4.39-.77.15-.33.29-.57.44-.72.29-.81.46-1.27.5-1.38.11-.33.28-.61.5-.83l-.06-.06c.18.59.17,1.12-.06,1.6,0,.07.02.15.06.22.11.15.24.2.39.17.11-.04.26-.11.44-.22.33-.15.72-.2,1.16-.17h.22l-.28.06v-.5c.04-.29.18-.48.44-.55.37-.15.5-.39.39-.72v-.28c-.04-.37.09-.64.39-.83.33-.18.51-.51.55-.99.04-.29-.07-.48-.33-.55-.18-.07-.33-.06-.44.06l-.33.33c-.22.22-.44.29-.66.22-.55-.22-1.18-.13-1.88.28.07-.04-.09.13-.5.5-.11.15-.26.17-.44.05-.07-.07-.11-.15-.11-.22-.07-.66.15-1.14.66-1.43l-.06.06.17-.44c.11-.18.15-.33.11-.44-.15-.37-.17-.77-.06-1.21.59-2.21,1.3-4.26,2.15-6.18.15-.29.24-.51.28-.66.07-.48.44-1.38,1.1-2.7.66.33,1.01.52,1.05.55.26.11.37.06.33-.17-.04-.07-.11-.11-.22-.11-.11-.04-.5-.13-1.16-.28-.44-.15-.64-.44-.61-.88,0-1.03.24-1.99.72-2.87-.04.04.42-.73,1.38-2.32.44-.81,1.01-1.36,1.71-1.65.29-.15.53-.39.72-.72.88-1.62,1.47-2.68,1.76-3.2.15-.29.22-.53.22-.72-.04-.29.13-.92.5-1.88.11-.33.29-.59.55-.77.48-.29.75-.48.83-.55s.22-.26.44-.55c0-.04.04-.11.11-.22.33-1.07,1.01-2.04,2.04-2.92,1.21-1.07,3-1.86,5.35-2.37,1.47-.11,2.59-.05,3.36.17,1.54.44,2.83.99,3.86,1.65.74.52,1.43.92,2.1,1.21,1.14.52,1.84,1.47,2.1,2.87.33,1.84.5,3.14.5,3.92.04.88.17,1.69.39,2.43.11.37.15.77.11,1.21-.07,2.32-.15,4.19-.22,5.62-.04.63-.15,1.27-.33,1.93-.22.88-.52,2.41-.88,4.58-.55,3.38-1.2,6.08-1.93,8.11-.63,1.65-1.18,3.38-1.65,5.18-.04.18-.17.57-.39,1.16-.18.48-.29.86-.33,1.16-.15.74-.53,1.34-1.16,1.82-.15.11-.2.26-.17.44.15.48.13.86-.06,1.16-.04.07-.2.44-.5,1.1l-.44.88c-.48.92-1.08,1.4-1.82,1.43-.18.04-.29.15-.33.33-.04.18-.06.35-.06.5.07.37-.06.75-.39,1.16-.37.44-.94,1.01-1.71,1.71-1.14,1.07-1.62,1.51-1.43,1.32-.81.77-1.78,1.38-2.92,1.82-1.91.81-3.53,1.36-4.85,1.65-.26.04-.59.07-.99.11-.26,0-.48-.07-.66-.22-.11-.07-.28-.2-.5-.39-.18-.18-.35-.31-.5-.39-.26-.22-.55-.24-.88-.06-.07.07-.18.15-.33.22-.11.11-.2.18-.28.22-.59.37-1.14.41-1.65.11-.59-.33-1.56-.77-2.92-1.32-.15-.04-.37-.13-.66-.28-.29-.15-.52-.24-.66-.28-.29-.11-.53-.15-.72-.11-.59.11-1.16-.15-1.71-.77-.22-.26-.28-.55-.17-.88.04-.18.07-.33.11-.44.04-.33-.04-.55-.22-.66-.4-.29-.66-.7-.77-1.21-.15-.7-.42-1.38-.83-2.04l.06.06ZM89.4,66.89c-.04-.07-.11-.07-.22,0l.06.22c.22.04.28-.04.17-.22ZM91.05,66.06v.06l.06.06-.06-.11ZM102.91,71.3h-.22c.4-1.03.85-1.71,1.32-2.04.15-.11.35-.37.61-.77,1.07-1.58,1.62-2.39,1.65-2.43.07-.11.13-.26.17-.44.07-.73.33-1.51.77-2.32,1.1-2.06,1.91-4.47,2.43-7.22.11-.37.2-.88.28-1.54.11-.81.18-1.34.22-1.6.22-.96.33-2.1.33-3.42-.04-2.35.06-4.72.28-7.11.04-.37.04-.7,0-.99-.11-.99-.24-1.97-.39-2.92-.07-.44-.24-.81-.5-1.1-.11-.11-.26-.15-.44-.11-.18.04-.26.06-.22.06-.99.4-1.76.99-2.32,1.76-.22.33-.79,1.14-1.71,2.43-.7.96-1.25,1.75-1.65,2.37-.22.33-.55.81-.99,1.43-.48.63-.81,1.08-.99,1.38-.04.04-.72.97-2.04,2.81l.06-.06c-.7,1.43-1.1,2.22-1.21,2.37-.11.11-.2.4-.28.88-.11.48-.28.92-.5,1.32l-1.16,2.1c-.04.07-.15.11-.33.11-.15,0-.24-.06-.28-.17-.04-.04-.13-.26-.28-.66l.11-.17c.07-.15.04-.28-.11-.39.07-2.1.09-3.05.06-2.87l.06.06c-.55-.07-.85-.11-.88-.11-.29,0-.59-.09-.88-.28-.52-.07-.83-.11-.94-.11-.07,0-.11.04-.11.11-.04.07-.02.15.06.22.04.07.09.11.17.11.15,0,.44-.13.88-.39-.15,1.07-.09,1.95.17,2.65l.06.44c.04.29-.02.52-.17.66-1.29,1.29-1.91,1.91-1.88,1.88l-.22.39c-.22.22-.26.35-.11.39.11,0,.18-.13.22-.39l.06-.44c.48.29,1.12.81,1.93,1.54.22.18.37.37.44.55.07.11.26.57.55,1.38-.15,1.76-.28,2.7-.39,2.81s-.17.28-.17.5c.04.41-.06,1.21-.28,2.43.04-.29-.07.35-.33,1.93-.04.29-.02.7.06,1.21.11.63.31,1.16.61,1.6.44.63.55,1.32.33,2.1-.07.22-.15.53-.22.94-.04.11-.06.28-.06.5-.04.44.11.79.44,1.05.26.22.59.29.99.22.85-.22,1.51-.51,1.99-.88.07-.07.35-.26.83-.55,1.18-.81,2.1-1.62,2.76-2.43.29-.37.7-.62,1.21-.77.18-.18.24-.18.17,0ZM91.82,64.35c-.07,0-.11.04-.11.11-.07.18-.02.29.17.33.18.04.28-.04.28-.22-.04-.18-.15-.26-.33-.22ZM94.58,46.1l-.17-.06c-.18-.37-.29-.57-.33-.61-.07-.11-.2-.2-.39-.28-.33-.15-.52-.06-.55.28-.04.22.02.37.17.44.15.07.29.13.44.17.07,0,.31.02.72.06h.11ZM95.52,41.14c-.15.22-.11.44.11.66.11.11.26.15.44.11.33-.11.44-.29.33-.55-.04-.04-.15-.26-.33-.66l.33-.33-.17-.06-.11.44c-.26.07-.46.2-.61.39ZM97.94,37.44c-.11,0-.24.07-.39.22-.15.11-.18.26-.11.44.15.18.26.28.33.28.48.07.85-.02,1.1-.28v-.22c-.26-.37-.57-.51-.94-.44ZM99.27,40.7l.05-.22-.17-.06s-.07.09-.11.17c.07.04.15.07.22.11ZM101.64,39.7h.17l-.11-.17-.06.17ZM102.36,73.34c.15-.15.18-.29.11-.44-.11-.18-.24-.22-.39-.11-.18.07-.22.2-.11.39l.17.17h.22ZM102.47,41.91c.07,0,.11-.04.11-.11.04-.22-.04-.31-.22-.28l-.17.17c0,.18.09.26.28.22ZM107.26,70.31c0-.29-.15-.48-.44-.55-.11-.04-.18-.04-.22,0-.48.18-.88.44-1.21.77-.26.22-.33.52-.22.88.11.37.33.57.66.61.18.04.35,0,.5-.11.44-.37.75-.83.94-1.38v-.22ZM108.7,69.65c.07.26,0,.64-.22,1.16v.22c0,.37.22.57.66.61.18.04.31-.02.39-.17.22-.4.35-.86.39-1.38.04-.4-.07-.77-.33-1.1-.18-.29-.39-.37-.61-.22-.18.11-.28.24-.28.39v.5ZM110.96,35.18c-.18-.04-.33.04-.44.22-.15.29-.02.44.39.44.18,0,.28-.09.28-.28s-.07-.31-.22-.39ZM111.23,70.36c.04-.22-.04-.33-.22-.33-.11,0-.17.06-.17.17-.07.18,0,.28.22.28l.17-.11ZM111.29,63.69c-.07-.26-.13-.5-.17-.72.07-.18.13-.17.17.06h-.17c.15.15.2.35.17.61v.05ZM112.72,58.34c-.07.04-.11.09-.11.17,0,.18.09.26.28.22l.17-.17c0-.18-.11-.26-.33-.22Z"/>
      <path d="M154.69,60.99c0,.81-.02,1.4-.06,1.76-.04.26-.13.57-.28.94-.26.63-.55,1.29-.88,1.99-.07.18-.22.22-.44.11-.07-.04-.09-.11-.06-.22.04-.15.11-.46.22-.94.07-.4.15-.73.22-.99.11-.7-.15-1.25-.77-1.65-.07-.04-.15-.07-.22-.11-.37-.18-.66-.13-.88.17l-.28.39c-.29.7-.48,1.16-.55,1.38-.63,2.54-1.53,5.26-2.7,8.16-.4.92-.64,1.71-.72,2.37-.07.44-.24,1.07-.5,1.88-.15.52-.07.97.22,1.38.22.33.24.74.06,1.21-.04.18-.15.48-.33.88-.74,1.58-1.34,3.36-1.82,5.35-.15.63-.28,1.1-.39,1.43-.26.88-.66,1.67-1.21,2.37-.4.48-.83.68-1.27.61-.44-.07-.9.06-1.38.39-.18.15-.4.33-.66.55-.37.26-.61.42-.72.5-.66.55-1.4.9-2.21,1.05-.07,0-.18.02-.33.06-.18.04-.31.07-.39.11-.26.04-.5-.02-.72-.17-.26-.15-.46-.15-.61,0s-.29.22-.44.22c-.44.11-1.08.13-1.93.06-.48,0-.88-.09-1.21-.28.04.04-.28-.07-.94-.33-1.07-.4-1.99-.9-2.76-1.49-1.47-1.1-2.54-2.13-3.2-3.09-.07-.07-.18-.18-.33-.33-.15-.18-.26-.31-.33-.39-.22-.29-.31-.59-.28-.88.07-.55-.13-.97-.61-1.27-.52-.29-.88-.81-1.1-1.54-.07-.29-.22-.9-.44-1.82-.18-.73-.37-1.32-.55-1.76-.11-.29-.15-.7-.11-1.21.11-1.32.17-1.97.17-1.93.04-.22.04-.51,0-.88v-.83c0-.37.04-.94.11-1.71,0-.26.04-.83.11-1.71.07-.73.13-1.32.17-1.76.11-1.65.31-3.18.61-4.58.26-1.25.42-2.15.5-2.7.04-.26.13-.73.28-1.43.15-.59.24-1.07.28-1.43.15-.48.33-1.19.55-2.15.18-.99.35-1.71.5-2.15.07-.33.24-.99.5-1.99.26-.85.46-1.52.61-2.04.04-.15.42-1.56,1.16-4.25.11-.37.18-.61.22-.72.22-.51.46-1.21.72-2.1.37-1.14.61-1.84.72-2.1.66-1.91,1.08-3.05,1.27-3.42.07-.37.46-1.52,1.16-3.47.51-1.43.96-2.59,1.32-3.47.99-2.5,1.73-4.32,2.21-5.46.18-.4.88-1.88,2.1-4.41.37-.77.96-1.34,1.76-1.71.51-.22,1.07-.28,1.65-.17.55.15,1.07.39,1.54.72.33.22.57.44.72.66.92,1.47,1.3,2.1,1.16,1.88.44.59.57,1.38.39,2.37-.07.22-.18.44-.33.66-.15.22-.42.63-.83,1.21-1.25,1.8-2.33,3.73-3.25,5.79-.85,1.91-1.65,3.97-2.43,6.18-.4,1.21-.81,2.28-1.21,3.2-.66,1.54-1.08,2.87-1.27,3.97,0,.15-.22,1.1-.66,2.87-.29,1.29-.48,2-.55,2.15.04-.11-.22.48-.77,1.76-.29.7-.59,1.89-.88,3.58-.04.11-.07.44-.11.99-.07.92-.42,1.64-1.05,2.15l-.5.5c-.55.55-.64,1.16-.28,1.82l.39.66c.33.52.4,1.05.22,1.6-.18.59-.28,1.42-.28,2.48-.04.99-.13,1.71-.28,2.15-.55,3.97-.79,6.91-.72,8.82.04.63.11,1.1.22,1.43.22.63.33,1.27.33,1.93,0,.55.2,1.43.61,2.65,0,.04.02.11.06.22.59,1.18,1.3,1.31,2.15.39.26-.26.42-.44.5-.55.51-.81,1.08-1.71,1.71-2.7.44-.7.83-1.32,1.16-1.88.48-.88.94-1.45,1.38-1.71,1.21-1.54,1.93-2.63,2.15-3.25.26-.66.9-2.33,1.93-5.02.37-.85.75-1.58,1.16-2.21.7-1.03,1.29-2.28,1.76-3.75l1.21-3.47c.37-1.03.59-1.65.66-1.88.26-.96.64-1.84,1.16-2.65.18-.29.26-.44.22-.44.37-.66.55-1.29.55-1.88v-1.1c0-.15.02-.28.06-.39,0-.73.28-1.29.83-1.65l.61-.39c.51-.37.81-.85.88-1.43.26-1.84.22-3.31-.11-4.41-.11-.4-.09-.81.06-1.21.07-.18.2-.48.39-.88.18-.4.31-.72.39-.94.26-.62.31-1.18.17-1.65-.11-.48-.22-1.52-.33-3.14-.04-.73.06-1.4.28-1.99.29-.66.7-2.15,1.21-4.47.11-.55.48-1.98,1.1-4.3.26-1.03.83-1.8,1.71-2.32.48-.26.94-.29,1.38-.11-.04-.04.64.28,2.04.94.7.29,1.08.77,1.16,1.43.04.26.2.42.5.5.15.04.29.09.44.17.15.07.24.2.28.39.07.59.06,1.16-.06,1.71-.15.63-.28,1.18-.39,1.65-.07.33-.24.61-.5.83-.04.04-.13.11-.28.22-.15.11-.26.18-.33.22-.15.18-.18.42-.11.72,0,.04.02.11.06.22.22.44.26.92.11,1.43-.55,2.17-.88,3.51-.99,4.03-.15.48-.17.97-.06,1.49.07.22.07.46,0,.72-.22,1.21-.39,2.1-.5,2.65-.4,1.58-.44,3.12-.11,4.63.11.37.09.77-.06,1.21-.04.11-.07.17-.11.17-.18.15-.28.09-.28-.17.04-3.34.06-5.64.06-6.89,0-.62-.04-1.43-.11-2.43,0-.22-.07-.46-.22-.72-.11-.18-.28-.28-.5-.28-.22-.04-.41.04-.55.22l-.28.39c-.63,1.43-.96,2.78-.99,4.03-.04.7-.06,1.53-.06,2.48-.04,1.58-.17,2.79-.39,3.64-.07.29-.11.7-.11,1.21-.04.33-.02.57.06.72.33.63.51,1.42.55,2.37v.28c.07.22.24.39.5.5.26.11.5.11.72,0,.33-.18.57-.4.72-.66.07-.22.26-.68.55-1.38.07-.18.18-.28.33-.28.29-.04.46.11.5.44.04.26.06.42.06.5-.04.29-.09.53-.17.72-.18.48-.35.86-.5,1.16-.33.63-.52,1.32-.55,2.1,0,.33-.15.61-.44.83-.48.26-.74.66-.77,1.21v.72c-.07.4-.26.77-.55,1.1.15-.66.18-1.23.11-1.71,0-.04-.04-.18-.11-.44-.07-.18-.2-.26-.39-.22-.66,0-1.05.24-1.16.72-.15.96-.18,1.76-.11,2.43,0,.26.09.48.28.66.11.15.24.17.39.06.22-.15.35-.24.39-.28.04-.11.26-.55.66-1.32-.04.15-.06.72-.06,1.71ZM123.2,78.64c-.04-.15-.13-.26-.28-.33-.15-.11-.29-.11-.44,0-.11.11-.13.26-.06.44.15.22.35.29.61.22.22-.07.28-.18.17-.33ZM122.81,81.12l-.11-.11.06-.06.06.17ZM123.09,82.22c-.22,0-.26.09-.11.28.04.07.09.09.17.06l.06-.22-.11-.11ZM127.28,78.08l.06-.22h-1.21c-.4.07-.83-.09-1.27-.5-.07-.04-.15-.07-.22-.11-.15-.04-.28.02-.39.17-.15.15-.17.37-.06.66.07.26.24.4.5.44.44.07.75.11.94.11.26.04.5-.02.72-.17-.22.11.11-.09.99-.61l-.06.22ZM125.46,80.95c0,.11.02.26.06.44.07.22.2.29.39.22.15-.04.2-.17.17-.39-.04-.18-.2-.44-.5-.77h.22c.22-.04.28-.09.17-.17l-.17.11-.17.11c-.11.26-.17.41-.17.44ZM128.55,87.02l-.17.17.17.11c.07.04.15.02.22-.06v-.17c-.11-.04-.18-.06-.22-.06ZM129.16,88.12c-.18-.04-.28.06-.28.28,0,.11.04.17.11.17.18.04.28-.04.28-.22l-.11-.22ZM129.71,51.17c-.07.04-.13.09-.17.17-.04.15.02.28.17.39.07.04.15.04.22,0,.15-.07.18-.2.11-.39-.04-.18-.15-.24-.33-.17ZM130.42,87.51c-.11-.04-.17-.02-.17.06-.07.22-.02.31.17.28l.11-.17-.11-.17ZM131.8,41.14l.11-.11-.11-.05v.17ZM135.99,89.11l.17.11v-.17l-.17.06ZM139.74,76.76l-.22.11.17.06.05-.17ZM145.42,60.93c-.11.04-.15.09-.11.17.04.18.15.24.33.17.07-.04.11-.09.11-.17,0-.04-.06-.09-.17-.17h-.17ZM147.85,68.38l-.06.17.17-.06-.11-.11ZM152.81,54.21c-.15-.26-.37-.35-.66-.28-.59.18-.92.59-.99,1.21-.07.33-.02.63.17.88.18.29.44.44.77.44.37,0,.64-.17.83-.5l.22-.55c0-.44-.11-.85-.33-1.21ZM152.76,51.72c-.07-.07-.15-.11-.22-.11-.18-.04-.29.06-.33.28-.07.18-.04.33.11.44.04.07.09.11.17.11.18.04.31-.06.39-.28.04-.18,0-.33-.11-.44ZM155.29,54.32c.04.11.07.17.11.17.18.07.29.02.33-.17.04-.15-.04-.24-.22-.28-.18,0-.26.09-.22.28Z"/>
      <path d="M173.54,58.22c-.7,1.69-1.3,3.29-1.82,4.8-.37,1.03-.77,2.1-1.21,3.2-.11.26-.26.59-.44.99-.22.48-.37.83-.44,1.05-.11.18-.24.48-.39.88-.15.44-.26.75-.33.94.07-.15-.18.44-.77,1.76-.22.52-.5.92-.83,1.21-.11.11-.17.26-.17.44-.04.52-.04.94,0,1.27.07.85-.11,1.71-.55,2.59h-.06.11c-.18.48-.55.86-1.1,1.16v-.06l.22.44c.11.29.15.53.11.72-.07.37-.15.7-.22.99-.55,1.73-.94,3.14-1.16,4.25-.07.41-.24.85-.5,1.32-.48.81-.7,1.16-.66,1.05-.37.81-.92,1.51-1.65,2.1-1.29,1.1-1.84,1.58-1.65,1.43-.22.15-.44.26-.66.33-.18.04-.33-.02-.44-.17-.22-.4-.46-1.01-.72-1.82-.04-.26-.06-.5-.06-.72.11-.99.29-1.78.55-2.37.18-.55.48-1.42.88-2.59.29-.85.48-1.47.55-1.88.04-.26.22-.88.55-1.88.62-1.95,1.07-3.6,1.32-4.96.18-.85.46-1.51.83-1.99.04-.07.06-.17.06-.28,0-.04-.02-.11-.06-.22-.07-.37-.06-.77.06-1.21.73-2.83,1.19-4.65,1.38-5.46.15-.66.48-1.19.99-1.6.07-.04.13-.09.17-.17.04-.26.06-.42.06-.5-.37-.59-.42-1.19-.17-1.82.07-.85.4-1.67.99-2.48l-.11.11.11-.11c-.04-.33,0-.64.11-.94.37-.81.64-1.65.83-2.54.15-.62.22-1.12.22-1.49.07-.85.22-1.64.44-2.37.15-.48.37-1.27.66-2.37.29-1.03.53-1.82.72-2.37.11-.44.28-.81.5-1.1.15-.26.22-.48.22-.66,0-.59.15-1.56.44-2.92.59-2.68.94-4.19,1.05-4.52.11-.4.35-1.62.72-3.64.07-.51.22-1.32.44-2.43.18-1.03.33-1.84.44-2.43,0-.07.09-.39.28-.94.07-.22.22-.4.44-.55.37-.22.46-.5.28-.83-.26-.48-.39-1.01-.39-1.6,0-.07.07-.74.22-1.99.04-.11.07-.44.11-.99,0-.4-.22-.62-.66-.66h-.5c-.37.07-.68.17-.94.28-.66.22-1.54.33-2.65.33-.26,0-.5-.04-.72-.11-.44-.11-.92-.26-1.43-.44-.07-.04-.22-.11-.44-.22-.18-.11-.33-.17-.44-.17-1.07-.29-2.72-1.19-4.96-2.7-.33-.22-.7-.53-1.1-.94-.63-.66-.79-1.41-.5-2.26.07-.26.18-.48.33-.66.62-.7,1.34-1.23,2.15-1.6,1.8-.85,3.66-1.47,5.57-1.87.55-.15.94-.26,1.16-.33.37-.11.94-.22,1.71-.33.51-.07.83-.15.94-.22.55-.22,1.6-.42,3.14-.61,1.32-.15,2.13-.26,2.43-.33,1.58-.37,3.36-.44,5.35-.22.29,0,.62.04.99.11.26.04.59.02.99-.06.92-.18,1.64-.29,2.15-.33,1.25-.15,2.3-.07,3.14.22,1.14.4,2.35.4,3.64,0,.51-.15.92-.24,1.21-.28,1.1-.11,2.85-.5,5.24-1.16,1.18-.29,2.32-.39,3.42-.28,1.32.15,2.06.24,2.21.28.62.07.88.44.77,1.1-.07.37-.11.53-.11.5-.41,1.54-.92,3.25-1.54,5.13-.11.4-.35.72-.72.94-1.25.81-2.43,1.4-3.53,1.76-.26.11-.61.24-1.05.39-.48.18-.81.31-.99.39-.51.18-.83.28-.94.28-.48.07-1.6.37-3.36.88-1.29.37-3.31,1.01-6.07,1.93-.4.11-1.01.33-1.82.66-.85.29-1.47.52-1.88.66-.07,0-.18.04-.33.11-.15.07-.26.13-.33.17-.55.18-.92.59-1.1,1.21-.07.33-.11.57-.11.72-.15,1.18-.37,3.31-.66,6.4-.26,2.79-.83,5.5-1.71,8.11-.15.37-.26.59-.33.66-.29.4-.48.94-.55,1.6-.04.37-.17.75-.39,1.16-.11.15-.15.29-.11.44.04.37-.06.94-.28,1.71-.81,2.54-1.27,4.1-1.38,4.69-.07.48-.35.86-.83,1.16-.81.52-1.21.79-1.21.83-.11.11-.15.26-.11.44.04.18.2.46.5.83.22.33.26.72.11,1.16-.18.59-.4,1.03-.66,1.32v-.06c-.07.41-.48,1.47-1.21,3.2ZM162.4,83.64l-.11.06c-.18-.22-.24-.33-.17-.33.11.18.18.29.22.33l.06-.06ZM164.5,71.89c-.15-.18-.29-.18-.44,0-.04.07-.04.13,0,.17.11.18.24.2.39.06l.06-.22ZM164.33,77.41l-.17.17s-.02.11-.06.22c.07-.18.13-.31.17-.39h.06ZM166.1,73.71c-.04-.22-.22-.31-.55-.28-.18,0-.29.07-.33.22-.11.26-.04.44.22.55h.22c.33-.04.48-.2.44-.5ZM170.01,61.69c-.11.11-.11.24,0,.39.07.15.2.18.39.11.15-.07.24-.18.28-.33,0-.15-.09-.28-.28-.39-.15,0-.28.07-.39.22ZM170.79,12.28c-.11-.15-.26-.22-.44-.22-.15.04-.15.11,0,.22.11.07.26.06.44-.06.04.59.11,1.05.22,1.38h-.05c.04-.11-.02-.55-.17-1.32ZM170.34,59.81l-.06.17.17.06c.11-.18.07-.26-.11-.22ZM170.46,52.15v.11l.17-.06-.17-.06ZM171.34,47.85c-.04-.07-.09-.11-.17-.11-.18-.04-.28.04-.28.22.04.22.15.31.33.28.18-.07.22-.2.11-.39ZM172.33,44.59c-.15-.15-.28-.13-.39.06-.07.07-.13.22-.17.44,0,.07.04.13.11.17.15.15.28.15.39,0,.04-.04.09-.2.17-.5l-.11-.17ZM173.32,49.83l-.11-.11.11.05v.06ZM174.48,42.66c-.07.04-.11.09-.11.17-.04.18.04.29.22.33.18,0,.26-.11.22-.33-.04-.18-.15-.24-.33-.17ZM176.13,46.63c-.22.04-.44.07-.66.11l.06-.06c.07.07.22.28.44.61v.5c.04.22.15.24.33.06.07-.07.07-.13,0-.17.15.15.04.02-.33-.39.04-.15.07-.39.11-.72l.05.06ZM176.25,42.17l.11.06-.17-.06h.06ZM179.55,27.78h-.17c-.18-.04-.18-.07,0-.11,0,.04.02.07.05.11.26-.18.29-.18.11,0ZM189.48,18.12v.22c.07.04.13.02.17-.05v-.17h-.17Z"/>
      <path d="M254.38,51.21c0,.96-.02,1.66-.07,2.1-.04.31-.15.68-.33,1.11-.31.74-.66,1.53-1.05,2.36-.09.22-.26.26-.52.13-.09-.04-.11-.13-.07-.26.04-.17.13-.55.26-1.11.09-.48.17-.87.26-1.18.13-.83-.18-1.49-.92-1.97-.09-.04-.18-.09-.26-.13-.44-.22-.79-.15-1.05.2l-.33.46c-.35.83-.57,1.38-.66,1.64-.74,3.02-1.81,6.25-3.21,9.71-.48,1.09-.77,2.03-.85,2.82-.09.52-.29,1.27-.59,2.23-.18.61-.09,1.16.26,1.64.26.39.28.88.07,1.44-.04.22-.18.57-.39,1.05-.87,1.88-1.6,4-2.16,6.36-.18.74-.33,1.31-.46,1.7-.31,1.05-.79,1.99-1.44,2.82-.48.57-.98.81-1.51.72-.52-.09-1.07.07-1.64.46-.22.18-.48.39-.79.66-.44.31-.72.5-.85.59-.79.66-1.66,1.07-2.62,1.25-.09,0-.22.02-.39.07-.22.04-.37.09-.46.13-.31.04-.59-.02-.85-.2-.31-.17-.55-.17-.72,0-.18.18-.35.26-.52.26-.52.13-1.29.15-2.29.07-.57,0-1.05-.11-1.44-.33.04.04-.33-.09-1.11-.39-1.27-.48-2.36-1.07-3.28-1.77-1.75-1.31-3.02-2.54-3.8-3.67-.09-.09-.22-.22-.39-.39-.18-.22-.31-.37-.39-.46-.26-.35-.37-.7-.33-1.05.09-.66-.15-1.16-.72-1.51-.61-.35-1.05-.96-1.31-1.84-.09-.35-.26-1.07-.52-2.16-.22-.87-.44-1.57-.65-2.1-.13-.35-.17-.83-.13-1.44.13-1.57.2-2.34.2-2.3.04-.26.04-.61,0-1.05v-.98c0-.44.04-1.11.13-2.03,0-.3.04-.98.13-2.03.09-.87.15-1.57.2-2.1.13-1.97.37-3.78.72-5.44.31-1.49.5-2.56.59-3.21.04-.31.15-.87.33-1.71.18-.7.28-1.27.33-1.7.17-.57.39-1.42.65-2.56.22-1.18.42-2.03.59-2.56.09-.39.28-1.18.59-2.36.31-1.01.55-1.81.72-2.43.04-.17.5-1.86,1.38-5.05.13-.44.22-.72.26-.85.26-.61.55-1.44.85-2.49.44-1.35.72-2.19.85-2.49.79-2.27,1.29-3.63,1.51-4.07.09-.44.55-1.81,1.38-4.13.61-1.7,1.14-3.08,1.57-4.13,1.18-2.97,2.05-5.14,2.62-6.49.22-.48,1.05-2.23,2.49-5.25.44-.92,1.14-1.59,2.1-2.03.61-.26,1.27-.33,1.97-.2.66.18,1.27.46,1.84.85.39.26.68.52.85.79,1.09,1.75,1.55,2.49,1.38,2.23.52.7.68,1.64.46,2.82-.09.26-.22.52-.39.79s-.5.74-.98,1.44c-1.49,2.14-2.78,4.44-3.87,6.89-1.01,2.27-1.97,4.72-2.88,7.34-.48,1.44-.96,2.71-1.44,3.8-.79,1.84-1.29,3.41-1.51,4.72,0,.18-.26,1.31-.79,3.41-.35,1.53-.57,2.38-.65,2.56.04-.13-.26.57-.92,2.1-.35.83-.7,2.25-1.05,4.26-.04.13-.09.52-.13,1.18-.09,1.09-.5,1.95-1.25,2.56-.13.13-.33.33-.59.59-.66.66-.77,1.38-.33,2.16l.46.79c.39.61.48,1.25.26,1.9-.22.7-.33,1.68-.33,2.95-.04,1.18-.15,2.03-.33,2.56-.66,4.72-.94,8.22-.85,10.49.04.74.13,1.31.26,1.7.26.74.39,1.51.39,2.3,0,.66.24,1.7.72,3.15,0,.04.02.13.07.26.7,1.4,1.55,1.55,2.56.46.31-.31.5-.52.59-.66.61-.96,1.29-2.03,2.03-3.21.52-.83.98-1.57,1.38-2.23.57-1.05,1.11-1.73,1.64-2.03,1.44-1.84,2.3-3.12,2.56-3.87.31-.79,1.07-2.78,2.3-5.97.44-1.01.89-1.88,1.38-2.62.83-1.22,1.53-2.71,2.1-4.46l1.44-4.13c.44-1.22.7-1.97.79-2.23.31-1.14.76-2.19,1.38-3.15.22-.35.31-.52.26-.52.44-.79.65-1.53.65-2.23v-1.31c0-.17.02-.33.07-.46,0-.87.33-1.53.98-1.97l.72-.46c.61-.44.96-1.01,1.05-1.7.31-2.19.26-3.93-.13-5.25-.13-.48-.11-.96.07-1.44.09-.22.24-.57.46-1.05.22-.48.37-.85.46-1.11.31-.74.37-1.4.2-1.97-.13-.57-.26-1.81-.39-3.74-.04-.87.07-1.66.33-2.36.35-.79.83-2.56,1.44-5.31.13-.66.57-2.36,1.31-5.11.3-1.22.98-2.14,2.03-2.75.57-.31,1.11-.35,1.64-.13-.04-.04.76.33,2.43,1.11.83.35,1.29.92,1.38,1.7.04.31.24.5.59.59.17.04.35.11.52.2.17.09.28.24.33.46.09.7.07,1.38-.07,2.03-.17.74-.33,1.4-.46,1.97-.09.39-.29.72-.59.98-.04.04-.15.13-.33.26s-.31.22-.39.26c-.18.22-.22.5-.13.85,0,.04.02.13.07.26.26.52.3,1.09.13,1.7-.65,2.58-1.05,4.18-1.18,4.79-.18.57-.2,1.16-.07,1.77.09.26.09.55,0,.85-.26,1.44-.46,2.49-.59,3.15-.48,1.88-.52,3.72-.13,5.51.13.44.11.92-.07,1.44-.04.13-.09.2-.13.2-.22.18-.33.11-.33-.2.04-3.98.07-6.71.07-8.2,0-.74-.04-1.7-.13-2.89,0-.26-.09-.55-.26-.85-.13-.22-.33-.33-.59-.33-.26-.04-.48.04-.65.26l-.33.46c-.74,1.71-1.14,3.3-1.18,4.79-.04.83-.07,1.81-.07,2.95-.04,1.88-.2,3.32-.46,4.33-.09.35-.13.83-.13,1.44-.04.39-.02.68.07.85.39.74.61,1.68.66,2.82v.33c.09.26.28.46.59.59.3.13.59.13.85,0,.39-.22.68-.48.85-.79.09-.26.3-.81.65-1.64.09-.22.22-.33.39-.33.35-.04.55.13.59.52.04.31.07.5.07.59-.04.35-.11.63-.2.85-.22.57-.42,1.03-.59,1.38-.39.74-.61,1.57-.65,2.49,0,.39-.18.72-.52.98-.57.31-.88.79-.92,1.44v.85c-.09.48-.31.92-.66,1.31.17-.79.22-1.46.13-2.03,0-.04-.04-.22-.13-.52-.09-.22-.24-.31-.46-.26-.79,0-1.25.29-1.38.85-.18,1.14-.22,2.1-.13,2.89,0,.31.11.57.33.79.13.18.28.2.46.07.26-.17.41-.28.46-.33.04-.13.31-.66.79-1.57-.04.17-.07.85-.07,2.03ZM216.94,72.19c-.04-.17-.15-.31-.33-.39-.17-.13-.35-.13-.52,0-.13.13-.15.31-.07.52.18.26.42.35.72.26.26-.09.33-.22.2-.39ZM216.48,75.15l-.13-.13.07-.07.07.2ZM216.81,76.46c-.26,0-.31.11-.13.33.04.09.11.11.2.07l.07-.26-.13-.13ZM221.79,71.54l.07-.26h-1.44c-.48.09-.98-.11-1.51-.59-.09-.04-.18-.09-.26-.13-.18-.04-.33.02-.46.2-.18.17-.2.44-.07.79.09.31.28.48.59.52.52.09.89.13,1.11.13.3.04.59-.02.85-.2-.26.13.13-.11,1.18-.72l-.07.26ZM219.63,74.95c0,.13.02.31.07.52.09.26.24.35.46.26.17-.04.24-.2.2-.46-.04-.22-.24-.52-.59-.92h.26c.26-.04.33-.11.2-.2l-.2.13-.2.13c-.13.31-.2.48-.2.52ZM223.3,82.16l-.2.2.2.13c.09.04.17.02.26-.07v-.2c-.13-.04-.22-.07-.26-.07ZM224.02,83.47c-.22-.04-.33.07-.33.33,0,.13.04.2.13.2.22.04.33-.04.33-.26l-.13-.26ZM224.68,39.54c-.09.04-.15.11-.2.2-.04.17.02.33.2.46.09.04.17.04.26,0,.17-.09.22-.24.13-.46-.04-.22-.18-.28-.39-.2ZM225.53,82.75c-.13-.04-.2-.02-.2.07-.09.26-.02.37.2.33l.13-.2-.13-.2ZM227.17,27.6l.13-.13-.13-.07v.2ZM232.15,84.65l.2.13v-.2l-.2.07ZM236.61,69.96l-.26.13.2.07.07-.2ZM243.36,51.15c-.13.04-.18.11-.13.2.04.22.17.29.39.2.09-.04.13-.11.13-.2,0-.04-.07-.11-.2-.2h-.2ZM246.25,60l-.07.2.2-.07-.13-.13ZM252.15,43.15c-.17-.31-.44-.41-.79-.33-.7.22-1.09.7-1.18,1.44-.09.39-.02.74.2,1.05.22.35.52.52.92.52.44,0,.76-.2.98-.59l.26-.66c0-.52-.13-1.01-.39-1.44ZM252.09,40.19c-.09-.09-.18-.13-.26-.13-.22-.04-.35.07-.39.33-.09.22-.04.39.13.52.04.09.11.13.2.13.22.04.37-.07.46-.33.04-.22,0-.39-.13-.52ZM255.1,43.28c.04.13.09.2.13.2.22.09.35.02.39-.2.04-.17-.04-.28-.26-.33-.22,0-.31.11-.26.33Z"/>
      <path d="M285.31,25.63c-.59.33-1.36.9-2.32,1.71-.26.18-.53.37-.83.55-.22.11-.44.11-.66,0-.04,0-.18-.09-.44-.28l.06-.06-.06.11c-.48.22-.79.48-.94.77h.06c-.44.44-.92.68-1.43.72-.07,0-.22.06-.44.17-.07.07-.13.13-.17.17-.11.18-.07.31.11.39.15.07.29.15.44.22.26.18.26.46,0,.83l.06-.06c-.48.74-.94,1.31-1.38,1.71-.19.22-.92.99-2.21,2.32-.77.81-1.36,1.69-1.76,2.65-.26.52-.41.81-.44.88-.52.7-.97,1.82-1.38,3.36l-.05.22c-.37.96-.35,2,.05,3.14.51,1.58,1.23,2.85,2.15,3.81,1.1,1.14,1.86,1.88,2.26,2.21.11.11.53.5,1.27,1.16,1.36,1.29,2.55,2.94,3.58,4.96.26.52.72,1.47,1.38,2.87.44.99.7,2.02.77,3.09.07,1.69.11,3.4.11,5.13-.04,1.54-.33,3.05-.88,4.52-.11.29-.29.75-.55,1.38-.22.59-.39,1.05-.5,1.38-.26.59-.31,1.16-.17,1.71.11.29.07.61-.11.94-.59,1.18-1.29,2.08-2.1,2.7-.15.11-.39.31-.72.61v-.05c-.66,1.18-1.08,1.87-1.27,2.1-.26.37-.55.64-.88.83-2.28,1.07-3.46,1.62-3.53,1.65-1.18.48-2.13.72-2.87.72s-1.45.15-2.15.44c-.11.04-.26.07-.44.11-.22.07-.39.13-.5.17-.66.22-1.31.35-1.93.39-.26,0-.68.07-1.27.22-.59.15-1.05.22-1.38.22-.07,0-.22.04-.44.11-1.1.44-2.3.5-3.58.17-.74-.22-1.31-.33-1.71-.33.07,0-.48-.11-1.65-.33-.55-.11-.9-.4-1.05-.88-.07-.18-.22-.39-.44-.61-.26-.18-.48-.17-.66.06-.04.04-.18.22-.44.55h.06l-1.71-2.04c-.29-.26-.51-.61-.66-1.05-.4-1.03-.62-1.64-.66-1.82-.15-.48-.24-.97-.28-1.49-.04-.7.09-1.32.39-1.88.29-.48.42-.7.39-.66,1.18-1.69,2.52-2.85,4.03-3.47.92-.37,1.86-.66,2.81-.88,1.4-.29,2.85-.44,4.36-.44h1.6c.66-.04,1.2-.04,1.6,0,2.94.07,5.85-.7,8.71-2.32,1.03-.59,1.88-1.34,2.54-2.26.26-.37.48-.7.66-.99.81-1.43,1.16-2.92,1.05-4.47-.07-1.36-.62-2.5-1.65-3.42-.07-.07-.28-.22-.61-.44-.37-.29-.63-.62-.77-.99-.29-.73-.74-1.4-1.32-1.99-.04-.04-.06-.07-.06-.11-.04-.04-.07-.07-.11-.11-1.32-1.4-2.9-3.47-4.74-6.23-.44-.66-.72-1.34-.83-2.04-.51-3.09-.72-5.61-.61-7.55.07-1.18.13-1.91.17-2.21.07-.33.13-.81.17-1.43.07-1.25.46-2.5,1.16-3.75.22-.4.33-.62.33-.66.26-.4.77-1.19,1.54-2.37.62-.99,1.12-1.78,1.49-2.37.4-.62.86-1.19,1.38-1.71,2.13-2.13,4.21-3.86,6.23-5.18.44-.29.97-.66,1.6-1.1,1.73-1.21,3.64-2.35,5.74-3.42,1.18-.59,2.44-1.16,3.8-1.71,1.07-.44,2.17-.68,3.31-.72.7-.04,1.3.17,1.82.61.73.55,1.23,1.19,1.49,1.93.04.04.09.15.17.33.04.15.07.26.11.33.22.77.15,1.4-.22,1.87-.37.52-.61,1.12-.72,1.82,0,.07-.05.22-.17.44-.22.33-.46.55-.72.66-.66.29-1.19.5-1.6.61-1.58.37-2.98.83-4.19,1.38-.04.04-.35.15-.94.33-.15-.15-.37-.35-.66-.61l.06-.06s.18.17.66.61c-1.69.96-2.61,1.47-2.76,1.54ZM256.41,82.05c-.07.33.04.5.33.5.18,0,.29-.09.33-.28.07-.29-.04-.46-.33-.5-.18,0-.29.09-.33.28ZM260.44,86.35c-.07-.04-.15-.02-.22.06-.18.18-.15.29.11.33l.17-.17-.05-.22ZM272.62,34.24v.06l.05.06-.05-.11ZM275.66,26.24c-.07-.11-.13-.17-.17-.17-.18,0-.26.09-.22.28,0,.22.09.31.28.28l.11-.17v-.22ZM278.53,22.82l-.17.06.05.17.17-.06-.05-.17ZM279.68,24.97c.04.48.09.94.17,1.38.04.26.17.29.39.11.62-.48.68-1.03.17-1.65-.07-.11-.2-.17-.39-.17-.22.07-.33.18-.33.33ZM280.18,28.45h-.06.06ZM281.06,23.32c0-.07-.06-.13-.17-.17-.19-.11-.31-.07-.39.11-.07.15,0,.26.22.33.18.04.29-.06.33-.28ZM282.55,23.59l.05-.06-.05.06ZM282.83,25.47c-.18.04-.22.15-.11.33.04.04.09.04.17,0l.06-.17-.11-.17Z"/>
    </g>
  </g>
</svg>