<?xml version="1.0" encoding="UTF-8"?>
<svg id="Layer_2" data-name="Layer 2" xmlns="http://www.w3.org/2000/svg" viewBox="0 0 313.61 110.97">
  <g id="Layer_2-2" data-name="Layer 2">
    <g>
      <path d="M17.92,25.17c.15-.29.39-.49.73-.58.24-.1.56-.17.95-.22.24-.05.41-.15.51-.29.05-.24-.03-.44-.22-.58-.49-.39-.73-.61-.73-.66-.15-.15-.22-.34-.22-.58.1-.87.32-1.7.66-2.48.68-1.41,1.04-2.19,1.09-2.33.44-1.02.97-1.97,1.6-2.84,2.38-3.21,4.49-5.51,6.34-6.92.44-.29.85-.63,1.24-1.02.49-.44,1.02-.8,1.6-1.09,1.21-.49,2.48-1.29,3.79-2.4,1.5-1.26,3.13-2.09,4.88-2.48.44-.1.75-.19.95-.29.39-.15,1.02-.27,1.89-.36,1.89-.15,3.79.24,5.68,1.17.24.1.51.27.8.51.39.24.66.39.8.44.73.15,1.5.54,2.33,1.17-.05-.05.87.68,2.77,2.19,1.02.83,1.8,1.72,2.33,2.7.24.54.61,1.07,1.09,1.6.49.49.95,1.09,1.38,1.82,1.02,1.7,1.26,3.57.73,5.61-.29,1.12-.44,1.87-.44,2.26,0,.73-.32,1.63-.95,2.7-.1.19-.32.56-.66,1.09-2.04,2.91-2.99,4.25-2.84,4.01-1.89,2.82-4.64,5.85-8.23,9.11-.39.29-.83.61-1.31.95-3.79,2.33-7.26,4.11-10.42,5.32-.44.19-.92.39-1.46.58-1.46.53-3.06.78-4.81.73h-3.57c-.39,0-.78.12-1.17.36-.97.68-1.65,1.53-2.04,2.55-.39.97-.92,2.14-1.6,3.5-.49.97-.92,2.19-1.31,3.64-.34,1.46-.61,2.5-.8,3.13-.29.97-.63,1.89-1.02,2.77-.68,1.55-1.34,3.4-1.97,5.54-.19.68-.39,1.29-.58,1.82-.19.54-.36.92-.51,1.17-.58.73-.9,1.63-.95,2.7-.05.68-.15,1.56-.29,2.62-.19,1.31-.44,2.45-.73,3.42-.24.73-.68,2.19-1.31,4.37-.78,2.67-1.31,4.66-1.6,5.97-.39,1.65-.58,2.82-.58,3.5,0,.34-.07.75-.22,1.24-.19.63-.32,1.05-.36,1.24-.1.68-.39,1.51-.87,2.48.1-.24-.22.44-.95,2.04-.63,1.21-1.58,2.21-2.84,2.99-.15.1-.46.22-.95.36-.24.05-.53-.02-.87-.22-.15-.1-.24-.17-.29-.22-1.17-1.46-1.89-2.53-2.19-3.21-.29-.53-.29-1.04,0-1.53.19-.49.34-.78.44-.87.87-.97,1.21-2.19,1.02-3.64v-1.31c0-.39.1-.8.29-1.24.1-.15.22-.32.36-.51.63-1.02,1.24-2.53,1.82-4.52.29-.97.51-1.8.66-2.48.24-1.26,1.02-4.2,2.33-8.82,1.02-3.45,2.02-7.09,2.99-10.93,1.17-4.52,1.94-7.33,2.33-8.45.15-.39.22-.7.22-.95.05-.44.24-1.38.58-2.84,1.02-3.74,1.65-5.9,1.89-6.48.44-1.07.68-2.23.73-3.5.05-1.89.22-3.62.51-5.17.05-.29.02-.73-.07-1.31,0-.15-.03-.36-.07-.66-.1-.24-.15-.44-.15-.58-.1-.73-.07-1.38.07-1.97.29-.87.53-1.58.73-2.11.1-.19.39-.9.87-2.11.19.29.46.56.8.8.19.24.32.39.36.44.24.15.36.07.36-.22,0-.1-.07-.15-.22-.15-.05,0-.24-.02-.58-.07-.19-.15-.46-.39-.8-.73l.22-.66ZM6.56,88.11l-.15-.22-.15.22h.29ZM15.88,49.94c-.05-.19-.17-.34-.36-.44-.24-.05-.44,0-.58.15-.29.29-.39.63-.29,1.02.05.34.27.58.66.73.24.1.41.02.51-.22,0-.05.05-.24.15-.58-.05-.39-.07-.61-.07-.66ZM21.64,28.44c0-.53-.02-1.19-.07-1.97l.07.07c-.34.63-.53,1.29-.58,1.97-.54-.15-.83-.24-.87-.29-.1,0-.17.07-.22.22-.15.24-.1.44.15.58.1.05.39.07.87.07.29.34.46.66.51.95.29.1.48.15.58.15.15.05.24.05.29,0,.15,0,.19-.05.15-.15-.1-.1-.27-.12-.51-.07-.1.05-.29.1-.58.15.05-.15.1-.32.15-.51.05-.24.07-.41.07-.51.1-.24.1-.46,0-.66ZM21.71,29.17h-.73v-.73h.73v.73ZM22,39.08l-.15.15.22.07-.07-.22ZM22.8,42.87c.05.24.19.39.44.44.39,0,.58-.19.58-.58,0-.44-.19-.63-.58-.58-.39.1-.54.34-.44.73ZM28.49,24.8c.29.19.44.49.44.87-.05.44.02.85.22,1.24.34.58.78.83,1.31.73.83-.1,1.14-.15.95-.15,1.02,0,1.87-.17,2.55-.51.15-.1.44-.19.87-.29.49-.05.9-.17,1.24-.36.73-.44,1.21-.7,1.46-.8,1.17-.58,2.26-1.43,3.28-2.55l1.02-1.02c.44-.44.78-.8,1.02-1.09,1.8-1.99,3.25-3.86,4.37-5.61.49-.78.83-1.55,1.02-2.33.24-.83.07-1.53-.51-2.11-.44-.39-.92-.61-1.46-.66-2.33-.24-4.44.07-6.34.95-.63.24-1.21.51-1.75.8-1.17.54-2.07.87-2.7,1.02-.24.05-.54.17-.87.36-1.26.68-2.26,1.48-2.99,2.4-.39.44-.68.9-.87,1.38-.44,1.12-.68,2.04-.73,2.77-.05.39-.15.87-.29,1.46-.15.68-.24,1.17-.29,1.46-.1.54-.39,1.21-.87,2.04h-1.38c-.15-.58-.17-1.21-.07-1.89.05-.19.19-.49.44-.87.24-.29.39-.56.44-.8,0-.1-.05-.19-.15-.29-.1-.1-.19-.12-.29-.07-.29.05-.49.12-.58.22-.15.15-.34.34-.58.58-.24.24-.44.41-.58.51-.34.29-.73.39-1.17.29.29.1.1.05-.58-.15-.24-.05-.44,0-.58.15-.29.19-.36.46-.22.8.1.29.24.41.44.36-.58.1.56-.15,3.42-.73.05.83.07,1.46.07,1.89.44-.19.87-.19,1.31,0ZM25.43,28.73l-.22-.15-.15.29c0,.1.05.17.15.22.05,0,.15-.02.29-.07l-.07-.29ZM27.18,27.71s-.1.07-.15.22c-.1.19-.12.36-.07.51.1.19.19.24.29.15.15-.15.22-.32.22-.51.05-.29-.05-.41-.29-.36ZM31.62,34.71v.29s.1-.02.15-.07h.15c.05-.29-.05-.36-.29-.22ZM33.59,35.95l.22-.15-.22-.15v.29ZM34.9,33.98s-.12-.1-.22-.15c-.29-.1-.44,0-.44.29,0,.05.07.12.22.22.19.15.36.12.51-.07l-.07-.29ZM34.75,5.71l.07.29c.19-.15.27-.19.22-.15,0-.34-.1-.39-.29-.15ZM36.43,37.04c-.19-.24-.32-.36-.36-.36l-.22.07.66.22-.07.07ZM38.03,3.09c-.29-.1-.61-.07-.95.07-.34.19-.41.49-.22.87.05.1.12.17.22.22.73.19,1.14-.05,1.24-.73.05-.24-.05-.39-.29-.44ZM40.07,26.62h.29l-.15-.29-.15.29ZM40.58,34.71s-.02.12.07.22l.29-.07c-.05-.34-.17-.39-.36-.15Z"/>
      <path d="M66.78,70.04c.38.31.76.73,1.14,1.26,1.26,1.79,2.04,3.91,2.35,6.35,0,.04.06.63.17,1.77v-.06l-.92-.34c-.27-.08-.46.04-.57.34-.11.31-.29.48-.52.52-.57.08-1.14.25-1.72.52h.11c-.46.34-.65.8-.57,1.37v.23-.06c-.73.38-.99.9-.8,1.55l.11.46c0,.08-.04.15-.11.23-.15.15-.31.15-.46,0l-.23-.4c-.08-.04-.29-.31-.63-.8h.06c-1.07-1.79-1.91-3.45-2.52-4.98-.23-.53-.44-.99-.63-1.37-.69-1.22-1.58-2.77-2.69-4.64-.19-.34-.44-.55-.74-.63-.19-.08-.34-.06-.46.06-.23.19-.34.32-.34.4-.57,1.18-.99,2.1-1.26,2.75-.27.61-.42,1.11-.46,1.49-.08.69-.38,1.74-.92,3.15-.27.73-.4,1.47-.4,2.23-.08,2.21-.4,4.75-.97,7.61-.15.65-.17,1.24-.06,1.77.11.76.06,1.51-.17,2.23-.08.27-.17,1.03-.29,2.29,0,.04-.11.36-.34.97l.06-.06c-.04.69-.23,1.22-.57,1.6-.08.11-.1.29-.06.52v.46c-.04.23-.1.4-.17.52-.04.11-.13.38-.29.8-.11.34-.25.61-.4.8-.15.15-.17.38-.06.69.11.27.19.42.23.46.04.23.04.38,0,.46-.08.15-.25.53-.52,1.14-.15.34-.42.53-.8.57-.15.04-.31.08-.46.11-.46.15-.57.42-.34.8.23.42.53.67.92.74.11.04.17.09.17.17,0,.23-.11.32-.34.29-.38-.08-.88-.04-1.49.11.11-.46.17-.71.17-.74,0-.19-.04-.42-.11-.69-.08-.23-.23-.36-.46-.4-.23-.04-.42.02-.57.17s-.25.38-.29.69c-.11.61.17.93.86.97l.46-.06c-.11,1.11-.17,1.7-.17,1.77,0,.61-.31,1.39-.92,2.35-.34.53-.71.55-1.09.06-.04-.04-.08-.11-.11-.23-.08-.08-.13-.13-.17-.17-.15-.27-.36-.36-.63-.29.11-.04.04,0-.23.11-.53.15-.9.06-1.09-.29l-.57-.86c-.42-.46-.59-1.09-.52-1.89.11-1.03.27-2.14.46-3.32.08-.46.36-.72.86-.8.11,0,.19-.02.23-.06.19-.15.32-.27.4-.34.15-.27.25-.5.29-.69.04-.19.15-.42.34-.69.19-.27.32-.48.4-.63.04-.15,0-.31-.11-.46l-.92-.8c-.15-.15-.19-.32-.11-.52.11-.38.19-.61.23-.69.19-.34.48-.76.86-1.26.15-.23.19-.46.11-.69-.34-.72-.42-1.3-.23-1.72.76-4.96,1.22-7.9,1.37-8.81,0-.19.06-.48.17-.86.11-.42.17-.71.17-.86.11-.57.34-1.53.69-2.86.31-1.22.52-2.18.63-2.86.11-.3.27-.97.46-2,.08-.46.23-.93.46-1.43.27-.65.4-1.39.4-2.23,0-.34.06-.67.17-.97.11-.46.32-1.3.63-2.52.23-1.03.46-1.83.69-2.4-.11.23-.02-.19.29-1.26.08-.27.06-.52-.06-.74-.38-1.11-.53-1.51-.46-1.2-.08-.23-.1-.48-.06-.74.04-.31-.08-.61-.34-.92-.04-.04-.23-.21-.57-.52l-.06.06c.57-.65,1.05-1.07,1.43-1.26.61-.34.71-.84.29-1.49l-.46-.57-.06-.06.74.06c.76-.08,1.3-.44,1.6-1.09.42-.84.84-1.97,1.26-3.38.61-2.17,1.07-3.62,1.37-4.35.08-.23.15-.57.23-1.03.34-1.83.78-3.55,1.32-5.15.08-.23.17-.55.29-.97.11-.5.19-.84.23-1.03.5-1.75.97-3.38,1.43-4.87.19-.61.29-1.11.29-1.49.04-.57.19-1.14.46-1.72.76-1.41,1.34-2.82,1.72-4.24.11-.5.32-1.14.63-1.95.27-.65.5-1.11.69-1.37l-.06.06.17-.74c-.08.23.31-.82,1.14-3.15.11-.34.27-.63.46-.86.31-.34.57-.55.8-.63.46-.15,1.11-.32,1.95-.52.27-.08.53-.08.8,0,.5.15.95.34,1.37.57.19.08.38.23.57.46.42.5.72,1.01.92,1.55.27.76.46,1.24.57,1.43.04.11.15.23.34.34.15.08.31.11.46.11.61.04,1.95.32,4.01.86.5.11.82.21.97.29.23.15.61.32,1.14.52.53.23.92.4,1.14.52.46.27.82.5,1.09.69.76.57,1.3.99,1.6,1.26.53.42.99.94,1.37,1.55.42.69.78,1.26,1.09,1.72.27.38.48.63.63.74.46.34.82.8,1.09,1.37.08.15.32.61.74,1.37.23.42.44.97.63,1.66.57,2.4.82,3.47.74,3.21.08.23.11.57.11,1.03.04.88.06,1.64.06,2.29-.04.27-.11.59-.23.97-.19.53-.29.94-.29,1.2,0,.42-.1.84-.29,1.26-.11.23-.19.46-.23.69-.19,1.41-1.01,2.79-2.46,4.12-1.3,1.26-2.37,2.35-3.21,3.26-1.07,1.26-2.61,2.58-4.64,3.95-.5.31-.97.42-1.43.34-.11,0-.29.02-.52.06-.73.08-1.09.48-1.09,1.2,0,.11.02.29.06.52v.52c0,.42-.15.69-.46.8l-2.63,1.09c-.34.11-.55.34-.63.69-.08.31-.27.57-.57.8-.65.46-1.34.8-2.06,1.03-.23.08-.48.04-.74-.11-.08-.04-.17-.1-.29-.17-.15-.11-.27-.19-.34-.23-.11-.08-.27-.1-.46-.06-.61.04-1.13.31-1.55.8-.46.5-.52,1.05-.17,1.66.04.11.5.73,1.37,1.83.19.23.34.53.46.92v.06-.11ZM44.29,103.69v.17-.17ZM45.84,98.65s.06.02.17-.06l-.06-.17c-.23,0-.27.08-.11.23ZM47.38,101.06l-.17.06.17.06v-.11ZM50.87,57.9c0,.19.04.19.11,0,0-.04.02-.04.06,0h-.17ZM70.39,32.38c-1.11,1.14-1.7,1.76-1.77,1.83-.53.61-.92,1.28-1.14,2-.11.38-.31.97-.57,1.77-.27.8-.48,1.41-.63,1.83-.31,1.03-.57,1.83-.8,2.4-1.98,5.34-2.98,8.05-2.98,8.13-.15.5-.38,1.05-.69,1.66-.5,1.07-.94,2.52-1.32,4.35-.08.34-.15.76-.23,1.26-.04.15.04.34.23.57.19.19.38.29.57.29s.27,0,.23,0c1.83-.27,2.84-.44,3.03-.52,1.22-.31,2.1-.59,2.63-.86.46-.23.74-.53.86-.92.19-.38.44-.72.74-1.03.92-.84,1.58-1.49,2-1.95,1.83-1.95,3.07-3.22,3.72-3.83.15-.11.38-.36.69-.74,1.75-1.95,2.96-3.47,3.61-4.58.19-.31.52-.8.97-1.49.42-.61.74-1.11.97-1.49.53-.99.9-1.75,1.09-2.29.34-1.11.3-2.1-.11-2.98-.34-.65-.63-1.18-.86-1.6-.53-.92-1.2-1.68-2-2.29-.5-.38-1.03-.61-1.6-.69-1.34-.15-2.5-.02-3.49.4-.95.38-2.02.65-3.21.8l.06-.06ZM66.55,86.23c.11.08.1.08-.06,0-.34-.27-.67-.25-.97.06h-.06c.46-.04.82-.06,1.09-.06ZM65.52,86.29h-.06.06ZM66.73,80.4c.72.5,1.09,1.2,1.09,2.12.04.08.02.13-.06.17-.08.04-.15.06-.23.06-.23-.08-.65-.34-1.26-.8v.06l.4-.23c.23-.19.32-.42.29-.69,0-.04-.04-.27-.11-.69h-.11ZM66.5,86.23h.06-.06ZM68.33,90.64c-.34-.61-.55-1.22-.63-1.83,0-.31.08-.53.23-.69.38-.5.88-.74,1.49-.74s.95.29,1.03.86v.29c-.08.42.06.97.4,1.66l.06-.06c-.53.08-1.07.08-1.6,0,.11-.53.17-.84.17-.92.04-.19-.04-.32-.23-.4-.15-.04-.31,0-.46.11-.15.11-.29.31-.4.57-.08.23-.1.63-.06,1.2v-.06ZM70.9,86.64c.31,0,.9.21,1.77.63.08.04.17.17.29.4.08.23.08.53,0,.92h-.06c.65.23,1.13.69,1.43,1.37.38.8.53,1.62.46,2.46-.04.57-.06.9-.06.97-.11,1.14.09,2.12.63,2.92.19.31.17.55-.06.74-.34.23-.76.63-1.26,1.2-.23.31-.53.34-.92.11-.92-.57-1.47-1.18-1.66-1.83-.11-.34-.36-.78-.74-1.32-.15-.19-.25-.42-.29-.69-.08-.42-.32-.74-.74-.97-.04-.04-.17-.15-.4-.34-.23-.15-.36-.34-.4-.57,0-.04-.19-.71-.57-2v.06s.11-.06.23-.06h.29c.23.15.36.25.4.29.42.42.92.59,1.49.52.08-.04.48-.02,1.2.06v.06l.23-.4c.19-.27.11-.42-.23-.46-.46-.08-.8-.27-1.03-.57l-.06.06c.23-.57.36-.9.4-.97.19-.53.21-1.01.06-1.43-.04-.08-.15-.48-.34-1.2l-.06.06ZM69.36,90.07c-.23.27-.42.48-.57.63.15-.15.34-.36.57-.63ZM68.9,31.4l.06-.11v-.06l-.06.17ZM69.99,86.35c-.34-.15-.53-.42-.57-.8,0-.23.09-.34.29-.34.46.08.78.31.97.69,0,.04.08.29.23.74l.06-.06c-.61-.15-.94-.23-.97-.23ZM69.76,27.46c-.08-.04-.13-.04-.17,0-.15.15-.13.25.06.29l.17-.11-.06-.17ZM69.93,81.43l.11-.06.06.06h-.17ZM70.05,81.37l.11.17-.06-.11-.06-.06ZM70.45,79.37v.06-.06ZM70.73,83.2c.04.19.06.34.06.46l.06-.06c-.04-.11-.08-.25-.11-.4ZM70.79,83.66c.23.04.32.15.29.34-.04.11-.1.13-.17.06-.11-.11-.13-.27-.06-.46l-.06.06ZM73.77,57.73c-.04-.08-.1-.13-.17-.17-.31-.11-.48-.02-.52.29-.04.15.04.27.23.34.46.04.61-.11.46-.46ZM76.74,57.39c.23-.15.52-.38.86-.69.38-.34.69-.57.92-.69.11-.11.29-.29.52-.52.11-.11.21-.25.29-.4.08-.19.06-.34-.06-.46-.15-.15-.31-.19-.46-.11-.42.11-.73.23-.92.34-.73.34-1.28.82-1.66,1.43-.08.08-.15.23-.23.46-.04.15,0,.31.11.46.11.15.25.23.4.23l.23-.06ZM78.35,47.09c-.04-.23-.15-.29-.34-.17-.11.04-.17.1-.17.17.04.19.15.25.34.17l.17-.17ZM86.76,47.77c.11-.23.04-.32-.23-.29-.08,0-.13.04-.17.11l-.06.74c-.15-.08-.29-.06-.4.06-.11.11-.1.17.06.17s.25-.09.29-.29c.31-.31.48-.48.52-.52Z"/>
      <path d="M85.3,84.68c.29.04.46.06.49.06.73.11,1.12-.18,1.15-.88,0,.07,0-.42,0-1.48.04-1.06.06-1.87.06-2.42,0-.59.11-1.13.33-1.65.18-.51.29-.91.33-1.21.04-.29.11-.51.22-.66.15-.15.27-.4.38-.77.15-.33.29-.57.44-.71.29-.8.46-1.26.49-1.37.11-.33.27-.6.49-.82l-.06-.05c.18.59.17,1.12-.05,1.59,0,.07.02.15.05.22.11.15.24.2.38.17.11-.04.26-.11.44-.22.33-.15.71-.2,1.15-.17h.22l-.27.06v-.49c.04-.29.18-.48.44-.55.37-.15.49-.38.38-.71v-.27c-.04-.37.09-.64.38-.82.33-.18.51-.51.55-.99.04-.29-.07-.48-.33-.55-.18-.07-.33-.06-.44.05l-.33.33c-.22.22-.44.29-.66.22-.55-.22-1.17-.13-1.87.27.07-.04-.09.13-.49.49-.11.15-.26.17-.44.06-.07-.07-.11-.15-.11-.22-.07-.66.15-1.13.66-1.43l-.05.05.16-.44c.11-.18.15-.33.11-.44-.15-.37-.16-.77-.05-1.21.59-2.2,1.3-4.25,2.14-6.15.15-.29.24-.51.27-.66.07-.48.44-1.37,1.1-2.69.66.33,1.01.51,1.04.55.26.11.37.06.33-.16-.04-.07-.11-.11-.22-.11-.11-.04-.49-.13-1.15-.27-.44-.15-.64-.44-.6-.88,0-1.02.24-1.98.71-2.86-.04.04.42-.73,1.37-2.31.44-.8,1.01-1.35,1.7-1.65.29-.15.53-.38.71-.71.88-1.61,1.46-2.67,1.76-3.19.15-.29.22-.53.22-.71-.04-.29.13-.92.49-1.87.11-.33.29-.59.55-.77.48-.29.75-.48.82-.55s.22-.26.44-.55c0-.04.04-.11.11-.22.33-1.06,1.01-2.03,2.03-2.91,1.21-1.06,2.98-1.85,5.33-2.36,1.46-.11,2.58-.06,3.35.16,1.54.44,2.82.99,3.84,1.65.73.51,1.43.92,2.09,1.21,1.13.51,1.83,1.46,2.09,2.86.33,1.83.49,3.13.49,3.9.04.88.16,1.68.38,2.42.11.37.15.77.11,1.21-.07,2.31-.15,4.17-.22,5.6-.04.62-.15,1.26-.33,1.92-.22.88-.51,2.4-.88,4.56-.55,3.37-1.19,6.06-1.92,8.07-.62,1.65-1.17,3.37-1.65,5.16-.04.18-.16.57-.38,1.15-.18.48-.29.86-.33,1.15-.15.73-.53,1.34-1.15,1.81-.15.11-.2.26-.16.44.15.48.13.86-.06,1.15-.04.07-.2.44-.49,1.1l-.44.88c-.48.92-1.08,1.39-1.81,1.43-.18.04-.29.15-.33.33-.04.18-.05.35-.05.49.07.37-.06.75-.38,1.15-.37.44-.93,1.01-1.7,1.7-1.14,1.06-1.61,1.5-1.43,1.32-.81.77-1.78,1.37-2.91,1.81-1.9.81-3.52,1.36-4.83,1.65-.26.04-.59.07-.99.11-.26,0-.48-.07-.66-.22-.11-.07-.27-.2-.49-.38-.18-.18-.35-.31-.49-.38-.26-.22-.55-.24-.88-.06-.07.07-.18.15-.33.22-.11.11-.2.18-.27.22-.59.37-1.14.4-1.65.11-.59-.33-1.56-.77-2.91-1.32-.15-.04-.37-.13-.66-.27-.29-.15-.51-.24-.66-.27-.29-.11-.53-.15-.71-.11-.59.11-1.15-.15-1.7-.77-.22-.26-.27-.55-.17-.88.04-.18.07-.33.11-.44.04-.33-.04-.55-.22-.66-.4-.29-.66-.69-.77-1.21-.15-.7-.42-1.37-.82-2.03l.06.05ZM91.01,76.33c-.04-.07-.11-.07-.22,0l.05.22c.22.04.27-.04.17-.22ZM92.66,75.5v.05l.05.06-.05-.11ZM104.47,80.72h-.22c.4-1.02.84-1.7,1.32-2.03.15-.11.35-.37.6-.77,1.06-1.57,1.61-2.38,1.65-2.42.07-.11.13-.26.16-.44.07-.73.33-1.5.77-2.31,1.1-2.05,1.9-4.45,2.42-7.19.11-.37.2-.88.27-1.54.11-.81.18-1.34.22-1.59.22-.95.33-2.09.33-3.41-.04-2.34.05-4.7.27-7.08.04-.37.04-.7,0-.99-.11-.99-.24-1.96-.38-2.91-.07-.44-.24-.81-.49-1.1-.11-.11-.26-.15-.44-.11-.18.04-.26.06-.22.06-.99.4-1.76.99-2.31,1.76-.22.33-.79,1.14-1.7,2.42-.7.95-1.25,1.74-1.65,2.36-.22.33-.55.81-.99,1.43-.48.62-.81,1.08-.99,1.37-.04.04-.71.97-2.03,2.8l.05-.05c-.7,1.43-1.1,2.22-1.21,2.36-.11.11-.2.4-.27.88-.11.48-.27.92-.49,1.32l-1.15,2.09c-.04.07-.15.11-.33.11-.15,0-.24-.05-.27-.16-.04-.04-.13-.26-.27-.66l.11-.16c.07-.15.04-.27-.11-.38.07-2.09.09-3.04.06-2.86l.05.06c-.55-.07-.84-.11-.88-.11-.29,0-.59-.09-.88-.27-.51-.07-.82-.11-.93-.11-.07,0-.11.04-.11.11-.04.07-.02.15.05.22.04.07.09.11.16.11.15,0,.44-.13.88-.38-.15,1.06-.09,1.94.16,2.64l.06.44c.04.29-.02.51-.17.66-1.28,1.28-1.9,1.9-1.87,1.87l-.22.38c-.22.22-.26.35-.11.38.11,0,.18-.13.22-.38l.05-.44c.48.29,1.12.81,1.92,1.54.22.18.37.37.44.55.07.11.26.57.55,1.37-.15,1.76-.27,2.69-.38,2.8s-.16.27-.16.49c.04.4-.05,1.21-.27,2.42.04-.29-.07.35-.33,1.92-.04.29-.02.7.05,1.21.11.62.31,1.15.6,1.59.44.62.55,1.32.33,2.09-.07.22-.15.53-.22.93-.04.11-.05.27-.05.49-.04.44.11.79.44,1.04.26.22.59.29.99.22.84-.22,1.5-.51,1.98-.88.07-.07.35-.26.82-.55,1.17-.81,2.09-1.61,2.75-2.42.29-.37.69-.62,1.21-.77.18-.18.24-.18.16,0ZM93.43,73.8c-.07,0-.11.04-.11.11-.07.18-.02.29.17.33.18.04.27-.04.27-.22-.04-.18-.15-.26-.33-.22ZM96.18,55.62l-.16-.06c-.18-.37-.29-.57-.33-.6-.07-.11-.2-.2-.38-.27-.33-.15-.51-.06-.55.27-.04.22.02.37.17.44.15.07.29.13.44.16.07,0,.31.02.71.06h.11ZM97.11,50.68c-.15.22-.11.44.11.66.11.11.26.15.44.11.33-.11.44-.29.33-.55-.04-.04-.15-.26-.33-.66l.33-.33-.17-.05-.11.44c-.26.07-.46.2-.6.38ZM99.53,47c-.11,0-.24.07-.38.22-.15.11-.18.26-.11.44.15.18.26.27.33.27.48.07.84-.02,1.1-.27v-.22c-.26-.37-.57-.51-.93-.44ZM100.84,50.24l.05-.22-.16-.05s-.07.09-.11.16c.07.04.15.07.22.11ZM103.21,49.25h.16l-.11-.17-.05.17ZM103.92,82.75c.15-.15.18-.29.11-.44-.11-.18-.24-.22-.38-.11-.18.07-.22.2-.11.38l.16.17h.22ZM104.03,51.45c.07,0,.11-.04.11-.11.04-.22-.04-.31-.22-.27l-.17.17c0,.18.09.26.27.22ZM108.81,79.73c0-.29-.15-.48-.44-.55-.11-.04-.18-.04-.22,0-.48.18-.88.44-1.21.77-.26.22-.33.51-.22.88.11.37.33.57.66.6.18.04.35,0,.49-.11.44-.37.75-.82.93-1.37v-.22ZM110.24,79.07c.07.26,0,.64-.22,1.15v.22c0,.37.22.57.66.6.18.04.31-.02.38-.17.22-.4.35-.86.38-1.37.04-.4-.07-.77-.33-1.1-.18-.29-.38-.37-.6-.22-.18.11-.27.24-.27.38v.49ZM112.49,44.75c-.18-.04-.33.04-.44.22-.15.29-.02.44.38.44.18,0,.27-.09.27-.27s-.07-.31-.22-.38ZM112.76,79.79c.04-.22-.04-.33-.22-.33-.11,0-.17.06-.17.16-.07.18,0,.27.22.27l.17-.11ZM112.82,73.14c-.07-.26-.13-.49-.16-.71.07-.18.13-.17.16.05h-.16c.15.15.2.35.16.6v.06ZM114.25,67.82c-.07.04-.11.09-.11.16,0,.18.09.26.27.22l.17-.16c0-.18-.11-.26-.33-.22Z"/>
      <path d="M129.3,69.24c-.18-.37-.26-.51-.22-.44-.22-.37-.26-.75-.11-1.15.07-.15.31-.9.71-2.25.11-.44.35-1.21.71-2.31.04-.11.15-.33.33-.66.22-.48.55-.79.99-.93l.27-.05c.37-.04.62-.31.77-.82.37-.51.53-.75.49-.71.04-.07.02-.15-.05-.22-.04-.04-.09-.05-.17-.05-.11.04-.16.09-.16.16-.04.07-.07.38-.11.93-.44-.15-.68-.22-.71-.22-.29-.07-.38-.24-.27-.49.11-.4.17-.64.17-.71-.11-.51-.04-1.15.22-1.92.91-2.93,1.76-5.4,2.53-7.41.18-.55.35-.91.49-1.1.04-.07.07-.15.11-.22.15-.33.29-.84.44-1.54.15-.7.29-1.19.44-1.48.11-.91.16-1.41.16-1.48.04-.51-.16-.93-.6-1.26s-.79-.53-1.04-.6c-.55-.15-1.04-.42-1.48-.82h-.06v-.6h.06c.55-1.5.84-2.32.88-2.47.22-.77.6-1.45,1.15-2.03l-.06.05c.44-.29.75-.59.93-.88l-.05.05c.22-.4.35-.62.38-.66.26-.7.73-1.34,1.43-1.92.33-.26.69-.59,1.1-.99,1.17-1.1,2.01-2.29,2.53-3.57.15-.33.24-.55.27-.66.15-.22.35-.37.6-.44.95-.26,1.41-.38,1.37-.38.48-.15.86-.09,1.15.17.73.59,1.57.73,2.53.44.44-.11,1.01-.22,1.7-.33.88-.11,1.45-.2,1.7-.27.11-.04.26-.05.44-.05h.49c.77-.15,2.14.05,4.12.6,1.39.37,2.64.95,3.74,1.76.29.22,1.72,1.3,4.28,3.24.48.37.88.88,1.21,1.54.37.66.6,1.08.71,1.26.26.33.55.92.88,1.76l.88,2.53c.11.29.04.59-.22.88-.15.18-.13.33.06.44.55.33.86.77.93,1.32.04.18.09.42.17.71.07.33.13.57.16.71.11.81.15,1.37.11,1.7-.15,1.21-.15,2.11,0,2.69-.04,2.27-.05,3.66-.05,4.17,0,.33-.04.57-.11.71-.15.51-.22,1.48-.22,2.91-.04,2.01-.22,3.62-.55,4.83-.33,1.32-.44,1.87-.33,1.65-.18.4-.51,1.06-.99,1.98-.4.84-.73,1.5-.99,1.98-.59,1.14-1.19,2-1.81,2.58-.55.51-.99,1.19-1.32,2.03-.29.66-.62,1.41-.99,2.25-.59,1.36-1.25,2.38-1.98,3.08-.51.51-.93,1.19-1.26,2.03-.37.95-.77,1.76-1.21,2.42-.18.33-.46.44-.82.33-.44-.11-.59-.15-.44-.11-.44-.07-.79.07-1.04.44-.33.44-.51.9-.55,1.37l-.05.99c-.04.26-.2.53-.49.82-.18.18-.38.31-.6.38-.73.37-1.39.97-1.98,1.81-.22.29-.42.55-.6.77l-.55.44c.07-.92.11-1.39.11-1.43,0-.51-.29-.75-.88-.71-.33,0-.6.13-.82.38-.48.51-.88,1.12-1.21,1.81.07-.15.06-.05-.05.27-.04.11,0,.26.11.44.11.15.24.22.38.22.26,0,.42-.02.49-.06.18-.07.82-.4,1.92-.99-.51,1.1-.77,1.68-.77,1.76l-.38.88c-.15.33-.44.6-.88.82l.06.06c-.62-.7-.99-1.1-1.1-1.21-.07-.07-.2-.11-.38-.11-.26,0-.48.09-.66.27,0,.04-.13.22-.38.55h.05s-.35-.37-.93-1.1c-.4-.55-.9-.68-1.48-.38-.44.22-.79.42-1.04.6-.15.11-.35.26-.6.44-.26.22-.46.37-.6.44-1.03.7-1.89,1.12-2.58,1.26-.37.07-.9.31-1.59.71-.73.4-1.17,1.03-1.32,1.87-.07.33.04.53.33.6.37.11.77.13,1.21.06.81-.18,1.48-.46,2.03-.82.84-.48,1.32-.77,1.43-.88.29-.18.66-.46,1.1-.82.55-.4.9-.68,1.04-.82.4-.29.77-.33,1.1-.11.33.18.73.22,1.21.11.04-.04.27-.09.71-.16l-.05-.06c-.15.55-.31.92-.49,1.1-.4.37-.68.86-.82,1.48-.04.22-.15.31-.33.27-.77,0-1.54.24-2.31.71-.37.18-.82.46-1.37.82-.7.44-1.14.71-1.32.82-.59.37-1.03.84-1.32,1.43-.18.33-.51.55-.99.66-.77.15-1.34.18-1.7.11-.07-.04-.55-.05-1.43-.05l-.16-.06h.22c.11.59.16.9.16.93.04.37,0,.7-.11.99-.26.62-.42.99-.49,1.1-.44.73-1.06.99-1.87.77-.73-.22-1.54-.57-2.42-1.04-1.25-.66-2.05-1.06-2.42-1.21-.22-.11-.44-.07-.66.11-.26.18-.44.35-.55.49-.04.04-.27.37-.71.99v-.99c-.04-.66-.35-1.19-.93-1.59-.18-.11-.35-.13-.49-.06-.26.15-.38.33-.38.55.04.48.07.81.11.99.22.59.64.92,1.26.99l.49.05c0,.22-.06.6-.17,1.15-.07.55-.35.71-.82.49.04.04-.24-.11-.82-.44-.59-.33-1.08-.73-1.48-1.21-.04-.04-.38-.35-1.04-.93l-.05.06c.07-.15.13-.22.16-.22.15-.29.13-.51-.05-.66-.4-.29-.68-1.12-.82-2.47.26-1.61.46-2.73.6-3.35.26-.91.64-1.7,1.15-2.36l-.06.11.06-.11c0-.26.24-.38.71-.38.18-.04.26-.16.22-.38,0-.18-.04-.33-.11-.44-.22-.4-.27-.79-.16-1.15.4-1.13,1.01-2.84,1.81-5.11.26-.73.48-1.43.66-2.09.07-.29.51-1.68,1.32-4.17.84-2.75,1.35-4.37,1.54-4.89.22-.7.55-1.13.99-1.32.07-.04.13-.11.17-.22.04-.07.04-.15,0-.22-.18-.55.02-1.3.6-2.25.04-.04.24-.18.6-.44l-.05.11v-.05ZM119.9,101.21l.06.11.05-.06-.11-.05ZM121.17,100.49l.11.05s.05-.09.05-.16c-.15-.11-.2-.07-.16.11ZM123.53,91.87c-.07.07-.09.13-.06.16.15.18.24.17.27-.05l-.06-.17-.16.06ZM158.3,63.75c.22.11.44.04.66-.22.11-.15.13-.29.06-.44-.11-.18-.24-.26-.38-.22-.15,0-.71.07-1.7.22.48-.99.8-1.81.99-2.47.59-1.79,1.02-3.02,1.32-3.68.18-.44.33-.92.44-1.43.29-1.46.42-2.18.38-2.14.07-.26.15-.62.22-1.1.07-.51.13-.86.17-1.04.18-.77.29-1.5.33-2.2.04-.95.24-1.81.6-2.58.11-.22.09-.46-.06-.71-.11-.29-.18-.6-.22-.93.04.15-.09-1.24-.38-4.17-.04-.44-.18-.99-.44-1.65-.26-.69-.64-1.41-1.15-2.14-.51-.73-1.19-1.3-2.03-1.7-.26-.15-.49-.22-.71-.22-1.03-.15-2.23-.13-3.62.05-.15.04-.38.11-.71.22-.26.11-.64.27-1.15.49-.48.18-.84.33-1.1.44-.99.37-1.79.53-2.42.49-.18-.04-.31.02-.38.16-.37.48-.88.88-1.54,1.21-.4.18-.9.46-1.48.82-.62.37-1.14.88-1.54,1.54-.15.26-.35.62-.6,1.1-.81,1.76-1.17,2.58-1.1,2.47-.04.07-.11.29-.22.66-.73,2.2-1.14,3.35-1.21,3.46-.18.51-.53,1.68-1.04,3.51-.11.55-.27,1.1-.49,1.65-.26.59-.51,1.01-.77,1.26-.22.18-.29.38-.22.6.15.77.07,1.57-.22,2.42-.33,1.06-.7,2.31-1.1,3.74-.04.11-.07.18-.11.22-.15.26-.33.42-.55.49-.04.04-.11.05-.22.05-.11.04-.18.06-.22.06-.55.18-.68.51-.38.99.04.07.07.13.11.17.4.44.49.99.27,1.65-.37,1.21-.7,2.29-.99,3.24-.33.92-.62,1.59-.88,2.03-.22.29-.35.68-.38,1.15-.04.18-.2.46-.49.82-.15.15-.13.37.06.66.15.22.2.44.16.66,0,.04-.02.11-.06.22v.27c-.11.44-.37.71-.77.82-.33.07-.4.27-.22.6.37.62.38,1.32.06,2.09-.07.18-.18.49-.33.93-.07.22-.27.46-.6.71-.26.15-.31.35-.17.6.26.4.31.81.17,1.21-.44,1.39-.77,2.31-.99,2.75-.26.59-.37,1.21-.33,1.87.04.62-.07,1.26-.33,1.92,0,.07-.02.2-.06.38-.07.15-.11.26-.11.33-.22.59-.48,1.7-.77,3.35v.71c0,.59.29.93.88,1.04.33.07.57.11.71.11.95-.11,2.18-.26,3.68-.44.11,0,.35-.06.71-.17,1.39-.37,2.62-.95,3.68-1.76,1.06-.8,1.76-1.39,2.09-1.76,0,.04.42-.35,1.26-1.15.48-.44.93-.77,1.37-.99.29-.18.57-.35.82-.49,1.43-.91,2.51-2.12,3.24-3.62.07-.07.15-.22.22-.44.07-.18.15-.33.22-.44.66-1.32,1.35-2.42,2.09-3.3,1.28-1.57,2.01-2.45,2.2-2.64.77-.88,1.46-1.89,2.09-3.02.55-1.1.95-1.98,1.21-2.64.55-1.43,1.63-3.9,3.24-7.41.77.4,1.19.62,1.26.66ZM128.91,95.72c-.07.04-.11.09-.11.17.04.18.15.26.33.22,0-.04.02-.11.06-.22-.04-.18-.13-.24-.27-.17ZM129.24,77.7c.04-.18.06-.31.06-.38h-.11c.04.18.05.29.05.33v.05ZM129.51,72.48l.17.11v-.16l-.17.05ZM132.1,66.94c.18-.07.22-.2.11-.38-.04-.07-.09-.11-.16-.11-.18-.04-.27.06-.27.27.04.22.15.29.33.22ZM132.54,62.21l-.16-.05v.11l.16-.06ZM133.2,41.45v-.6h-.06v.6h.06ZM134.51,58.81c-.07-.04-.11,0-.11.11,0,.18.09.29.27.33l.16-.16c-.04-.18-.15-.27-.33-.27ZM135.23,40.02h-.22l-.11.11c.11.04.2-.02.27-.17l.06.06ZM135.45,54.03c-.07-.04-.15-.04-.22,0-.07.07-.11.15-.11.22.04.22.15.27.33.16l.11-.22-.11-.17ZM137.7,45.41c.22-.07.44-.15.66-.22.26-.11.35-.31.27-.6l-.05-.22c-.18-.33-.38-.57-.6-.71-.15-.11-.29-.11-.44,0-.29.22-.48.64-.55,1.26-.04.51.2.68.71.49ZM139.51,41.4h-.11l.05-.05.06.05ZM141.98,88.52c-.07,0-.15.02-.22.05-.15.15-.13.26.05.33.18.11.31.07.38-.11.07-.15,0-.24-.22-.27ZM146.43,91.87h-.55c-.22-.04-.38-.06-.49-.06l.05.06v-.99h-.05c.51.4.84.75.99,1.04l.05-.05ZM145.66,86.82l.22.06.05-.17c-.18-.15-.27-.11-.27.11ZM147.86,91.32c-.11.73-.37,1.3-.77,1.7-.15.15-.29.18-.44.11-.18-.04-.27-.15-.27-.33,0,.07.02-.09.05-.49v-.44l-.05.05c.69-.29,1.21-.48,1.54-.55l-.06-.06ZM153.41,77.54c.07.04.13.04.17,0,.18-.07.18-.17,0-.27l-.17.06v.22ZM157.14,77.7c-.18-.07-.31-.02-.38.17-.07.18-.02.31.16.38.15.07.27.02.38-.17.04-.18-.02-.31-.16-.38ZM157.09,75.01c-.04-.11-.07-.18-.11-.22l-.16.05v.11s.06.07.06.11c.07-.04.15-.06.22-.06ZM159.56,67.05l-.11-.16-.05.16h.16ZM163.57,51.17c-.33-.04-.57-.02-.71.06-.07.04-.09.11-.05.22,0,.07.04.13.11.17.26.11.46-.06.6-.49l.05.05ZM164.89,52.22l.22.05-.05-.16-.17.11ZM165.38,60.02l.06.05-.11-.05h.05Z"/>
      <path d="M202.67,70.45c0,.81-.02,1.39-.06,1.76-.04.26-.13.57-.27.93-.26.62-.55,1.28-.88,1.98-.07.18-.22.22-.44.11-.07-.04-.09-.11-.06-.22.04-.15.11-.46.22-.93.07-.4.15-.73.22-.99.11-.69-.15-1.24-.77-1.65-.07-.04-.15-.07-.22-.11-.37-.18-.66-.13-.88.17l-.27.38c-.29.7-.48,1.15-.55,1.37-.62,2.53-1.52,5.24-2.69,8.13-.4.92-.64,1.7-.71,2.36-.07.44-.24,1.06-.49,1.87-.15.51-.07.97.22,1.37.22.33.24.73.06,1.21-.04.18-.15.48-.33.88-.73,1.57-1.34,3.35-1.81,5.33-.15.62-.27,1.1-.38,1.43-.26.88-.66,1.67-1.21,2.36-.4.48-.82.68-1.26.6-.44-.07-.9.06-1.37.38-.18.15-.4.33-.66.55-.37.26-.6.42-.71.49-.66.55-1.39.9-2.2,1.04-.07,0-.18.02-.33.06-.18.04-.31.07-.38.11-.26.04-.49-.02-.71-.17-.26-.15-.46-.15-.6,0s-.29.22-.44.22c-.44.11-1.08.13-1.92.06-.48,0-.88-.09-1.21-.27.04.04-.27-.07-.93-.33-1.06-.4-1.98-.9-2.75-1.48-1.46-1.1-2.53-2.12-3.19-3.08-.07-.07-.18-.18-.33-.33-.15-.18-.26-.31-.33-.38-.22-.29-.31-.59-.27-.88.07-.55-.13-.97-.6-1.26-.51-.29-.88-.81-1.1-1.54-.07-.29-.22-.9-.44-1.81-.18-.73-.37-1.32-.55-1.76-.11-.29-.15-.7-.11-1.21.11-1.32.16-1.96.16-1.92.04-.22.04-.51,0-.88v-.82c0-.37.04-.93.11-1.7,0-.26.04-.82.11-1.7.07-.73.13-1.32.16-1.76.11-1.65.31-3.17.6-4.56.26-1.24.42-2.14.49-2.69.04-.26.13-.73.27-1.43.15-.59.24-1.06.27-1.43.15-.48.33-1.19.55-2.14.18-.99.35-1.7.49-2.14.07-.33.24-.99.49-1.98.26-.84.46-1.52.6-2.03.04-.15.42-1.56,1.15-4.23.11-.37.18-.6.22-.71.22-.51.46-1.21.71-2.09.37-1.13.6-1.83.71-2.09.66-1.9,1.08-3.04,1.26-3.41.07-.37.46-1.52,1.15-3.46.51-1.43.95-2.58,1.32-3.46.99-2.49,1.72-4.3,2.2-5.44.18-.4.88-1.87,2.09-4.39.37-.77.95-1.34,1.76-1.7.51-.22,1.06-.27,1.65-.16.55.15,1.06.38,1.54.71.33.22.57.44.71.66.91,1.46,1.3,2.09,1.15,1.87.44.59.57,1.37.38,2.36-.07.22-.18.44-.33.66-.15.22-.42.62-.82,1.21-1.25,1.79-2.33,3.72-3.24,5.77-.84,1.9-1.65,3.95-2.42,6.15-.4,1.21-.81,2.27-1.21,3.19-.66,1.54-1.08,2.86-1.26,3.95,0,.15-.22,1.1-.66,2.86-.29,1.28-.48,2-.55,2.14.04-.11-.22.48-.77,1.76-.29.7-.59,1.89-.88,3.57-.04.11-.07.44-.11.99-.07.92-.42,1.63-1.04,2.14-.11.11-.27.27-.49.49-.55.55-.64,1.15-.27,1.81l.38.66c.33.51.4,1.04.22,1.59-.18.59-.27,1.41-.27,2.47-.04.99-.13,1.7-.27,2.14-.55,3.95-.79,6.88-.71,8.79.04.62.11,1.1.22,1.43.22.62.33,1.26.33,1.92,0,.55.2,1.43.6,2.64,0,.04.02.11.05.22.59,1.17,1.3,1.3,2.14.38.26-.26.42-.44.49-.55.51-.8,1.08-1.7,1.7-2.69.44-.7.82-1.32,1.15-1.87.48-.88.93-1.45,1.37-1.7,1.21-1.54,1.92-2.62,2.14-3.24.26-.66.9-2.32,1.92-5,.37-.84.75-1.57,1.15-2.2.7-1.02,1.28-2.27,1.76-3.73l1.21-3.46c.37-1.02.59-1.65.66-1.87.26-.95.64-1.83,1.15-2.64.18-.29.26-.44.22-.44.37-.66.55-1.28.55-1.87v-1.1c0-.15.02-.27.06-.38,0-.73.27-1.28.82-1.65l.6-.38c.51-.37.8-.84.88-1.43.26-1.83.22-3.3-.11-4.39-.11-.4-.09-.8.06-1.21.07-.18.2-.48.38-.88.18-.4.31-.71.38-.93.26-.62.31-1.17.17-1.65-.11-.48-.22-1.52-.33-3.13-.04-.73.05-1.39.27-1.98.29-.66.7-2.14,1.21-4.45.11-.55.48-1.98,1.1-4.28.26-1.02.82-1.79,1.7-2.31.48-.26.93-.29,1.37-.11-.04-.04.64.27,2.03.93.69.29,1.08.77,1.15,1.43.04.26.2.42.49.49.15.04.29.09.44.17.15.07.24.2.27.38.07.59.05,1.15-.06,1.7-.15.62-.27,1.17-.38,1.65-.07.33-.24.6-.49.82-.04.04-.13.11-.27.22-.15.11-.26.18-.33.22-.15.18-.18.42-.11.71,0,.04.02.11.05.22.22.44.26.92.11,1.43-.55,2.16-.88,3.5-.99,4.01-.15.48-.16.97-.06,1.48.07.22.07.46,0,.71-.22,1.21-.38,2.09-.49,2.64-.4,1.57-.44,3.11-.11,4.61.11.37.09.77-.05,1.21-.04.11-.07.16-.11.16-.18.15-.27.09-.27-.16.04-3.33.05-5.62.05-6.87,0-.62-.04-1.43-.11-2.42,0-.22-.07-.46-.22-.71-.11-.18-.27-.27-.49-.27-.22-.04-.4.04-.55.22l-.27.38c-.62,1.43-.95,2.77-.99,4.01-.04.7-.06,1.52-.06,2.47-.04,1.57-.16,2.78-.38,3.63-.07.29-.11.7-.11,1.21-.04.33-.02.57.06.71.33.62.51,1.41.55,2.36v.27c.07.22.24.38.49.49.26.11.49.11.71,0,.33-.18.57-.4.71-.66.07-.22.26-.68.55-1.37.07-.18.18-.27.33-.27.29-.04.46.11.49.44.04.26.06.42.06.49-.04.29-.09.53-.17.71-.18.48-.35.86-.49,1.15-.33.62-.51,1.32-.55,2.09,0,.33-.15.6-.44.82-.48.26-.73.66-.77,1.21v.71c-.07.4-.26.77-.55,1.1.15-.66.18-1.23.11-1.7,0-.04-.04-.18-.11-.44-.07-.18-.2-.26-.38-.22-.66,0-1.04.24-1.15.71-.15.95-.18,1.76-.11,2.42,0,.26.09.48.27.66.11.15.24.16.38.05.22-.15.35-.24.38-.27.04-.11.26-.55.66-1.32-.04.15-.05.71-.05,1.7ZM171.31,88.03c-.04-.15-.13-.26-.27-.33-.15-.11-.29-.11-.44,0-.11.11-.13.26-.06.44.15.22.35.29.6.22.22-.07.27-.18.17-.33ZM170.93,90.5l-.11-.11.06-.05.05.16ZM171.2,91.6c-.22,0-.26.09-.11.27.04.07.09.09.16.05l.06-.22-.11-.11ZM175.38,87.48l.05-.22h-1.21c-.4.07-.82-.09-1.26-.49-.07-.04-.15-.07-.22-.11-.15-.04-.27.02-.38.16-.15.15-.16.37-.05.66.07.26.24.4.49.44.44.07.75.11.93.11.26.04.49-.02.71-.16-.22.11.11-.09.99-.6l-.05.22ZM173.56,90.33c0,.11.02.26.05.44.07.22.2.29.38.22.15-.04.2-.16.17-.38-.04-.18-.2-.44-.49-.77h.22c.22-.04.27-.09.17-.17l-.17.11-.16.11c-.11.26-.16.4-.16.44ZM176.64,96.38l-.17.16.17.11c.07.04.15.02.22-.05v-.17c-.11-.04-.18-.05-.22-.05ZM177.24,97.47c-.18-.04-.27.06-.27.27,0,.11.04.16.11.16.18.04.27-.04.27-.22l-.11-.22ZM177.79,60.67c-.07.04-.13.09-.16.17-.04.15.02.27.16.38.07.04.15.04.22,0,.15-.07.18-.2.11-.38-.04-.18-.15-.24-.33-.17ZM178.51,96.87c-.11-.04-.16-.02-.16.06-.07.22-.02.31.16.27l.11-.16-.11-.17ZM179.88,50.68l.11-.11-.11-.05v.16ZM184.05,98.46l.17.11v-.17l-.17.06ZM187.79,86.16l-.22.11.16.05.06-.16ZM193.45,70.4c-.11.04-.15.09-.11.17.04.18.15.24.33.16.07-.04.11-.09.11-.16,0-.04-.05-.09-.16-.17h-.16ZM195.86,77.81l-.05.17.16-.06-.11-.11ZM200.81,63.7c-.15-.26-.37-.35-.66-.27-.59.18-.92.59-.99,1.21-.07.33-.02.62.16.88.18.29.44.44.77.44.37,0,.64-.16.82-.49l.22-.55c0-.44-.11-.84-.33-1.21ZM200.75,61.22c-.07-.07-.15-.11-.22-.11-.18-.04-.29.06-.33.27-.07.18-.04.33.11.44.04.07.09.11.16.11.18.04.31-.05.38-.27.04-.18,0-.33-.11-.44ZM203.28,63.81c.04.11.07.16.11.16.18.07.29.02.33-.16.04-.15-.04-.24-.22-.27-.18,0-.26.09-.22.27Z"/>
      <path d="M223.77,101.33c-.29.21-.68.3-1.18.27-.36-.04-.61-.2-.75-.48-.04-.07-.07-.14-.11-.21-.36-.43-.68-.39-.96.11-.21.32-.46.46-.75.43l-.48-.05c-.79.11-2.02-.14-3.69-.75-1.07-.36-2.09-.96-3.05-1.82-.89-.75-1.62-1.68-2.2-2.78-.79-1.5-1.39-2.96-1.82-4.39-.64-2-1.04-3.19-1.18-3.59-.14-.32-.32-1.02-.54-2.09-.07-.25-.11-.57-.11-.96,0-1.64-.04-2.75-.11-3.32-.04-.71.05-1.34.27-1.87.29-.64.39-1.43.32-2.36-.04-.61-.05-1-.05-1.18-.03-1.18.21-2.23.75-3.16.82-1.39,1.68-3.36,2.57-5.89.11-.25.23-.59.37-1.02.14-.46.25-.8.32-1.02.07-.29.21-.46.43-.54.43-.18.75-.61.96-1.29.11-.25.11-.48,0-.7-.07-.18-.21-.46-.43-.86-.14-.18-.16-.39-.05-.64,0-.11.02-.18.05-.21,1.75-3.53,3.19-6.19,4.34-7.98.89-1.43,1.43-2.32,1.61-2.68.46-1.04,1.21-2.16,2.25-3.37.57-.68,1.18-1.39,1.82-2.14.86-.96,1.55-1.84,2.09-2.62.82-1.18,2.25-2.77,4.28-4.77.11-.11.3-.25.59-.43.68-.5,1.93-1.48,3.75-2.95,1.18-.93,2.18-1.59,3-1.98.82-.46,1.55-.73,2.2-.8l4.98-.75c.64-.04,1.2-.02,1.66.05.57.07,1.04.18,1.39.32.11.07.39.21.86.43.36.14.64.27.86.37s.46.3.75.59c.21.21.34.5.38.86.11.64-.02,1.25-.38,1.82-.43.61-.84,1.09-1.23,1.45-1.14,1-2.12,1.82-2.95,2.46-.82.64-1.71.77-2.68.37-.32-.14-.54-.23-.64-.27-.75-.21-1.45-.11-2.09.32l-.16.11c-2.75,2.5-4.05,3.68-3.91,3.53-.39.43-.66.82-.8,1.18-.07.18-.25.43-.54.75-.57.64-1,1.11-1.28,1.39-.43.43-.98,1.02-1.66,1.77-.82.89-1.36,1.46-1.61,1.71-.64.68-1.2,1.36-1.66,2.03-.21.36-.54.82-.96,1.39-.5.64-.84,1.09-1.02,1.34-.64.89-1.12,1.61-1.45,2.14-.93,1.43-1.82,2.75-2.68,3.96-.64.86-1.09,1.61-1.34,2.25-.32.75-.7,1.45-1.12,2.09-.71,1.18-1.21,2.43-1.5,3.75-.04.07-.07.18-.11.32-.07.14-.11.27-.11.38-.04.25-.29,1-.75,2.25-.25.75-.37,1.2-.37,1.34,0,.11-.05.34-.16.7-.04.18-.39,1.64-1.07,4.39-.07.29-.13.61-.16.96-.14,1.82-.27,3.32-.38,4.5-.11,1.18-.02,2.12.27,2.84.04.07.09.37.16.91.07.5.29,1.02.64,1.55.39.57.77,1.07,1.12,1.5.39.54.86.82,1.39.86.86.11,1.48.2,1.87.27.75.14,1.46.16,2.14.05.89-.18,1.68-.23,2.36-.16.32,0,.64-.07.96-.21.18-.07,1.02-.3,2.52-.7.39-.11.75-.04,1.07.21.36.25.54.61.54,1.07,0,.11.02.18.05.21.03.07.09.13.16.16.18.07.3.02.38-.16.03-.11.07-.27.11-.48.07-.21.11-.36.11-.43.14-.43.46-.78.96-1.07.43-.21.87-.36,1.34-.43.96-.11,1.36-.14,1.18-.11,1.57-.29,2.77-.71,3.59-1.29.07-.04.41-.21,1.02-.54.14-.07.3-.05.48.05.14.07.23.2.27.37.11.82.11,1.84,0,3.05,0,.14-.04.37-.11.7-.36,1.43-.8,2.71-1.34,3.86-.25.54-.52.93-.8,1.18-.14.14-.29.41-.43.8-.11.29-.29.55-.54.8v-.48c0-.07-.04-.12-.11-.16-.18-.11-.27-.05-.27.16-.04.11-.02.18.05.21,0,.04.12.11.37.21-.32.29-.48.45-.48.48-.21.14-.75.48-1.61,1.02-.25.14-.54.23-.86.27-.71.07-1.11.13-1.18.16-.14.07-.46.18-.96.32-.43.14-.77.29-1.02.43-.04,0-.11.04-.21.11-.07.04-.14.07-.21.11-.43.29-.95.3-1.55.05-.18-.11-.32-.11-.43,0-.21.25-.64.34-1.28.27-.57-.04-1.02-.18-1.34-.43h.27l.11-.16c-.11-.03-.21.04-.32.21-.46-.14-.82-.09-1.07.16ZM215.09,63.36c-.21-.04-.36,0-.43.11-.32.46-.46.96-.43,1.5,0,.18.11.27.32.27.39,0,.62-.18.7-.54,0-.04.05-.39.16-1.07-.07-.14-.18-.23-.32-.27ZM214.61,67.43l-.21.05c.07.11.11.18.11.21l.16-.05-.05-.21ZM216.59,68.88c-.04-.07-.09-.09-.16-.05-.18.11-.16.2.05.27l.16-.05-.05-.16ZM218.79,61.97c0,.21.07.25.21.11.04-.04.04-.09,0-.16l-.11-.11c-.11.11-.14.16-.11.16ZM219.22,95.01l-.16-.05v-.05l.05.05.11.05ZM220.66,94.85c-.07.18-.05.32.05.43.14.07.29.04.43-.11.11-.14.11-.27,0-.37l-.16-.11c-.14-.04-.25.02-.32.16ZM221.79,96.67l-.21-.11c-.21.04-.25.14-.11.32l.21-.05.11-.16ZM225.32,96.99c-.21-.04-.3.04-.27.21,0,.11.04.16.11.16.18.04.27-.04.27-.21l-.11-.16ZM227.25,99.77c-.36-.21-.54-.34-.54-.37-.25-.07-.34-.02-.27.16,0,.04.07.05.21.05.14.04.36.07.64.11l-.05.05ZM228.05,95.49c-.11.04-.16.09-.16.16.07.21.2.27.37.16l.11-.16c-.07-.18-.18-.23-.32-.16ZM228.59,99.45c-.14.11-.18.25-.11.43.07.14.2.23.38.27.18.04.3-.04.37-.21,0-.04-.02-.11-.05-.21-.07-.14-.18-.23-.32-.27h-.27ZM229.39,94.2l.11.16.11-.11-.11-.16-.11.11ZM230.62,45.37c-.18-.07-.29-.04-.32.11-.04.07,0,.13.11.16.14.07.25.04.32-.11l-.11-.16ZM232.66,90.24c-.18.18-.29.29-.32.32l.05.21c.07-.04.14-.23.21-.59l.05.05ZM235.33,96.51c-.18-.11-.29-.07-.32.11-.04.07,0,.14.11.21.14.07.27.02.38-.16-.07-.11-.13-.16-.16-.16Z"/>
      <path d="M264.44,66.43c-.7,1.68-1.3,3.28-1.81,4.78-.37,1.03-.77,2.09-1.21,3.19-.11.26-.26.59-.44.99-.22.48-.37.82-.44,1.04-.11.18-.24.48-.38.88-.15.44-.26.75-.33.93.07-.15-.18.44-.77,1.76-.22.51-.5.92-.82,1.21-.11.11-.17.26-.17.44-.04.51-.04.93,0,1.26.07.84-.11,1.7-.55,2.58h-.05.11c-.18.48-.55.86-1.1,1.15v-.05l.22.44c.11.29.15.53.11.71-.07.37-.15.7-.22.99-.55,1.72-.93,3.13-1.15,4.23-.07.4-.24.84-.49,1.32-.48.81-.7,1.15-.66,1.04-.37.81-.92,1.5-1.65,2.09-1.28,1.1-1.83,1.57-1.65,1.43-.22.15-.44.26-.66.33-.18.04-.33-.02-.44-.16-.22-.4-.46-1.01-.71-1.81-.04-.26-.05-.49-.05-.71.11-.99.29-1.78.55-2.36.18-.55.48-1.41.88-2.58.29-.84.48-1.46.55-1.87.04-.26.22-.88.55-1.87.62-1.94,1.06-3.59,1.32-4.94.18-.84.46-1.5.82-1.98.04-.07.05-.16.05-.27,0-.04-.02-.11-.05-.22-.07-.37-.05-.77.05-1.21.73-2.82,1.19-4.63,1.37-5.44.15-.66.48-1.19.99-1.59.07-.04.13-.09.17-.17.04-.26.05-.42.05-.49-.37-.59-.42-1.19-.16-1.81.07-.84.4-1.67.99-2.47l-.11.11.11-.11c-.04-.33,0-.64.11-.93.37-.8.64-1.65.82-2.53.15-.62.22-1.12.22-1.48.07-.84.22-1.63.44-2.36.15-.48.36-1.26.66-2.36.29-1.02.53-1.81.71-2.36.11-.44.28-.8.49-1.1.15-.26.22-.48.22-.66,0-.59.15-1.56.44-2.91.59-2.67.93-4.17,1.04-4.5.11-.4.35-1.61.71-3.63.07-.51.22-1.32.44-2.42.18-1.02.33-1.83.44-2.42,0-.07.09-.38.28-.93.07-.22.22-.4.44-.55.37-.22.46-.49.28-.82-.26-.48-.38-1.01-.38-1.59,0-.07.07-.73.22-1.98.04-.11.07-.44.11-.99,0-.4-.22-.62-.66-.66h-.5c-.37.07-.68.16-.93.27-.66.22-1.54.33-2.64.33-.26,0-.49-.04-.71-.11-.44-.11-.92-.26-1.43-.44-.07-.04-.22-.11-.44-.22-.18-.11-.33-.16-.44-.16-1.06-.29-2.71-1.19-4.94-2.69-.33-.22-.7-.53-1.1-.93-.62-.66-.79-1.41-.49-2.25.07-.26.18-.48.33-.66.62-.7,1.34-1.23,2.14-1.59,1.79-.84,3.64-1.46,5.55-1.87.55-.15.93-.26,1.15-.33.37-.11.93-.22,1.7-.33.51-.07.82-.15.93-.22.55-.22,1.59-.42,3.13-.6,1.32-.15,2.12-.26,2.42-.33,1.57-.37,3.35-.44,5.33-.22.29,0,.62.04.99.11.26.04.59.02.99-.05.91-.18,1.63-.29,2.14-.33,1.24-.15,2.29-.07,3.13.22,1.14.4,2.34.4,3.63,0,.51-.15.91-.24,1.21-.27,1.1-.11,2.84-.49,5.22-1.15,1.17-.29,2.31-.38,3.4-.27,1.32.15,2.05.24,2.2.27.62.07.88.44.77,1.1-.07.37-.11.53-.11.49-.4,1.54-.92,3.24-1.54,5.11-.11.4-.35.71-.71.93-1.25.81-2.42,1.39-3.52,1.76-.26.11-.6.24-1.04.38-.48.18-.81.31-.99.38-.51.18-.82.27-.93.27-.48.07-1.59.37-3.35.88-1.28.37-3.3,1.01-6.04,1.92-.4.11-1.01.33-1.81.66-.84.29-1.46.51-1.87.66-.07,0-.18.04-.33.11-.15.07-.26.13-.33.16-.55.18-.92.59-1.1,1.21-.07.33-.11.57-.11.71-.15,1.17-.37,3.3-.66,6.37-.26,2.78-.82,5.47-1.7,8.07-.15.37-.26.59-.33.66-.29.4-.48.93-.55,1.59-.04.37-.17.75-.38,1.15-.11.15-.15.29-.11.44.04.37-.06.93-.28,1.7-.81,2.53-1.26,4.08-1.37,4.67-.07.48-.35.86-.82,1.15-.81.51-1.21.79-1.21.82-.11.11-.15.26-.11.44.04.18.2.46.49.82.22.33.26.71.11,1.15-.18.59-.4,1.03-.66,1.32v-.06c-.07.4-.48,1.47-1.21,3.19ZM253.35,91.75l-.11.06c-.18-.22-.24-.33-.17-.33.11.18.18.29.22.33l.05-.06ZM255.44,80.05c-.15-.18-.29-.18-.44,0-.04.07-.04.13,0,.17.11.18.24.2.38.05l.05-.22ZM255.27,85.54l-.17.16s-.02.11-.05.22c.07-.18.13-.31.16-.38h.06ZM257.03,81.86c-.04-.22-.22-.31-.55-.27-.18,0-.29.07-.33.22-.11.26-.04.44.22.55h.22c.33-.04.48-.2.44-.49ZM260.93,69.89c-.11.11-.11.24,0,.38.07.15.2.18.38.11.15-.07.24-.18.27-.33,0-.15-.09-.27-.27-.38-.15,0-.27.07-.38.22ZM261.7,20.68c-.11-.15-.26-.22-.44-.22-.15.04-.15.11,0,.22.11.07.26.05.44-.06.04.59.11,1.04.22,1.37h-.06c.04-.11-.02-.55-.16-1.32ZM261.26,68.02l-.05.16.16.06c.11-.18.07-.26-.11-.22ZM261.37,60.39v.11l.17-.05-.17-.06ZM262.25,56.1c-.04-.07-.09-.11-.17-.11-.18-.04-.27.04-.27.22.04.22.15.31.33.27.18-.07.22-.2.11-.38ZM263.23,52.86c-.15-.15-.27-.13-.38.05-.07.07-.13.22-.17.44,0,.07.04.13.11.16.15.15.27.15.38,0,.04-.04.09-.2.17-.49l-.11-.16ZM264.22,58.08l-.11-.11.11.05v.06ZM265.38,50.94c-.07.04-.11.09-.11.16-.04.18.04.29.22.33.18,0,.26-.11.22-.33-.04-.18-.15-.24-.33-.16ZM267.02,54.89c-.22.04-.44.07-.66.11l.06-.06c.07.07.22.27.44.6v.49c.04.22.15.24.33.05.07-.07.07-.13,0-.16.15.15.04.02-.33-.38.04-.15.07-.38.11-.71l.05.06ZM267.14,50.45l.11.06-.17-.06h.06ZM270.43,36.11h-.17c-.18-.04-.18-.07,0-.11,0,.04.02.07.05.11.26-.18.29-.18.11,0ZM280.32,26.5v.22c.07.04.13.02.17-.06v-.16h-.17Z"/>
      <path d="M302.67,40.06c-.57.32-1.31.87-2.23,1.64-.25.18-.51.35-.8.53-.21.11-.42.11-.64,0-.04,0-.18-.09-.42-.27l.05-.05-.05.11c-.46.21-.76.46-.9.74h.05c-.42.42-.88.65-1.38.69-.07,0-.21.05-.42.16-.07.07-.12.12-.16.16-.11.18-.07.3.11.37.14.07.28.14.42.21.25.18.25.44,0,.8l.05-.05c-.46.71-.9,1.26-1.33,1.64-.18.21-.88.96-2.12,2.23-.74.78-1.31,1.63-1.7,2.55-.25.5-.39.78-.42.85-.5.67-.94,1.75-1.33,3.24l-.05.21c-.35.92-.34,1.93.05,3.02.5,1.52,1.18,2.74,2.07,3.66,1.06,1.1,1.79,1.8,2.18,2.12.11.11.51.48,1.22,1.11,1.31,1.24,2.46,2.83,3.45,4.78.25.5.69,1.42,1.33,2.76.42.96.67,1.95.74,2.97.07,1.63.11,3.27.11,4.94-.04,1.49-.32,2.94-.85,4.35-.11.28-.28.73-.53,1.33-.21.57-.37,1.01-.48,1.33-.25.57-.3,1.11-.16,1.64.11.28.07.58-.11.9-.57,1.13-1.24,2-2.02,2.6-.14.11-.37.3-.69.58v-.05c-.64,1.13-1.04,1.8-1.22,2.02-.25.35-.53.62-.85.8-2.19,1.03-3.33,1.56-3.4,1.59-1.13.46-2.05.69-2.76.69s-1.4.14-2.07.42c-.11.04-.25.07-.42.11-.21.07-.37.12-.48.16-.64.21-1.26.34-1.86.37-.25,0-.65.07-1.22.21-.57.14-1.01.21-1.33.21-.07,0-.21.04-.42.11-1.06.42-2.21.48-3.45.16-.71-.21-1.26-.32-1.64-.32.07,0-.46-.11-1.59-.32-.53-.11-.87-.39-1.01-.85-.07-.18-.21-.37-.42-.58-.25-.18-.46-.16-.64.05-.03.04-.18.21-.42.53h.05l-1.64-1.96c-.28-.25-.5-.58-.64-1.01-.39-.99-.6-1.57-.64-1.75-.14-.46-.23-.94-.27-1.43-.04-.67.09-1.27.37-1.8.28-.46.41-.67.37-.64,1.13-1.63,2.42-2.74,3.87-3.34.88-.35,1.79-.64,2.71-.85,1.34-.28,2.74-.42,4.19-.42h1.54c.64-.03,1.15-.03,1.54,0,2.83.07,5.63-.67,8.38-2.23.99-.57,1.8-1.29,2.44-2.18.25-.35.46-.67.64-.96.78-1.38,1.11-2.81,1.01-4.3-.07-1.31-.6-2.41-1.59-3.29-.07-.07-.27-.21-.58-.42-.35-.28-.6-.6-.74-.96-.28-.71-.71-1.34-1.27-1.91-.04-.03-.05-.07-.05-.11-.04-.03-.07-.07-.11-.11-1.27-1.34-2.8-3.34-4.56-6-.42-.64-.69-1.29-.8-1.96-.5-2.97-.69-5.39-.58-7.27.07-1.13.12-1.84.16-2.12.07-.32.12-.78.16-1.38.07-1.2.44-2.41,1.11-3.61.21-.39.32-.6.32-.64.25-.39.74-1.15,1.49-2.28.6-.96,1.08-1.72,1.43-2.28.39-.6.83-1.15,1.33-1.64,2.05-2.05,4.05-3.71,6-4.99.42-.28.94-.64,1.54-1.06,1.66-1.17,3.5-2.26,5.52-3.29,1.13-.57,2.35-1.11,3.66-1.64,1.03-.42,2.09-.65,3.18-.69.67-.03,1.26.16,1.75.58.71.53,1.18,1.15,1.43,1.86.03.04.09.14.16.32.03.14.07.25.11.32.21.74.14,1.34-.21,1.8-.35.5-.58,1.08-.69,1.75,0,.07-.05.21-.16.42-.21.32-.44.53-.69.64-.64.28-1.15.48-1.54.58-1.52.35-2.87.8-4.03,1.33-.04.04-.34.14-.9.32-.14-.14-.35-.34-.64-.58l.05-.05s.18.16.64.58c-1.63.92-2.51,1.42-2.65,1.49ZM274.86,94.35c-.07.32.04.48.32.48.18,0,.28-.09.32-.27.07-.28-.04-.44-.32-.48-.18,0-.28.09-.32.27ZM278.74,98.49c-.07-.03-.14-.02-.21.05-.18.18-.14.28.11.32l.16-.16-.05-.21ZM290.46,48.34v.05l.05.05-.05-.11ZM293.38,40.65c-.07-.11-.12-.16-.16-.16-.18,0-.25.09-.21.27,0,.21.09.3.27.27l.11-.16v-.21ZM296.14,37.36l-.16.05.05.16.16-.05-.05-.16ZM297.26,39.43c.04.46.09.9.16,1.33.03.25.16.28.37.11.6-.46.65-.99.16-1.59-.07-.11-.19-.16-.37-.16-.21.07-.32.18-.32.32ZM297.73,42.77h-.05.05ZM298.58,37.83c0-.07-.05-.12-.16-.16-.18-.11-.3-.07-.37.11-.07.14,0,.25.21.32.18.04.28-.05.32-.27ZM300.02,38.1l.05-.05-.05.05ZM300.28,39.9c-.18.04-.21.14-.11.32.03.04.09.04.16,0l.05-.16-.11-.16Z"/>
    </g>
  </g>
</svg>