<svg width="216" height="73" viewBox="0 0 216 73" fill="none" xmlns="http://www.w3.org/2000/svg">
<g clip-path="url(#clip0_590_399)">
<path d="M7.38406 66.8526C6.74543 67.0256 6.37291 67.1453 6.27977 67.1985C6.13342 67.3183 6.09351 67.4381 6.14673 67.5445C6.14673 67.5977 6.18664 67.7175 6.27977 67.8905C6.42612 68.1566 6.3596 68.3163 6.0536 68.3695C5.7875 68.4627 5.61454 68.5292 5.52141 68.5957C5.46819 68.649 5.42828 68.7421 5.42828 68.8619C5.42828 69.0082 5.45489 69.1014 5.52141 69.128C5.90725 69.3941 6.26647 69.5006 6.62569 69.4341C7.18449 69.3409 7.37075 69.301 7.19779 69.301C7.49049 69.301 7.71667 69.4207 7.86302 69.647C7.95615 69.8199 8.03598 69.9929 8.12911 70.1792C8.24885 70.472 8.18233 70.7248 7.95615 70.9244C7.86302 71.0175 7.76989 71.0841 7.65015 71.1506C7.45058 71.2437 7.33084 71.3768 7.30423 71.5498C7.18449 72.0821 6.97161 72.4946 6.639 72.7873L6.67891 72.7474C6.47934 72.5744 6.25316 72.4546 6.01368 72.4014C5.74759 72.3083 5.54802 72.4147 5.40167 72.7075C5.34845 72.8538 5.26863 72.9603 5.17549 73.0135H5.00253C4.82957 72.9869 4.74975 72.8938 4.77636 72.7474C4.80296 72.2817 5.06906 71.8425 5.56133 71.43C5.80081 71.2304 5.74759 71.0042 5.42828 70.7647C5.22871 70.6183 5.04245 70.6316 4.8961 70.8046C4.21756 71.4167 3.92486 71.6829 4.01799 71.5897C3.87164 71.7627 3.69868 71.8292 3.48581 71.7627C2.55449 71.5897 2.10213 71.5099 2.16866 71.5365C1.87596 71.4167 1.49012 71.3369 1.02446 71.2704C0.784979 71.2437 0.731761 71.1107 0.851502 70.8712C1.05107 70.432 1.02446 70.0994 0.75837 69.8599C0.465669 69.6203 0.226186 69.4074 0.0532268 69.1945C-0.0931237 68.9949 -0.0665145 68.8086 0.146359 68.6623C0.43906 68.4627 0.598715 68.3429 0.625324 68.3163C1.35708 67.9304 1.95578 67.7042 2.42144 67.611C2.56779 67.611 2.82058 67.5445 3.1665 67.3848C3.48581 67.2385 3.69868 66.9989 3.77851 66.6796C3.89825 66.1207 3.95147 65.8546 3.95147 65.8945C4.12443 65.4288 4.39052 65.1759 4.73644 65.1493C4.6167 65.1493 5.08236 64.9231 6.14673 64.484H6.10681C6.30638 64.8699 6.27977 65.2026 6.01368 65.4953C5.98707 65.5485 5.96046 65.6151 5.92055 65.6683C5.80081 65.9078 5.88064 66.0409 6.14673 66.0675C6.70552 66.0941 7.09135 66.3602 7.29092 66.8526L7.33084 66.8126L7.38406 66.8526ZM1.88926 69.2744L1.7163 69.3143L1.84935 69.2211L2.32831 69.1812C2.38153 69.3808 2.42144 69.5006 2.42144 69.5272C2.51458 69.647 2.60771 69.647 2.72745 69.5272C2.78067 69.5006 2.82058 69.4607 2.82058 69.3941C2.84719 69.2478 2.79397 69.1679 2.64762 69.1679C2.62101 69.1679 2.50127 69.1812 2.3017 69.2078C2.18196 69.0615 2.04891 68.9151 1.90256 68.7687L1.94248 68.7288C1.91587 68.8752 1.90256 69.0482 1.90256 69.2611L1.88926 69.2744ZM4.6167 68.2498L4.52357 68.2098L4.65661 68.1699V68.13L4.6167 68.2631V68.2498ZM30.7868 58.363C30.7868 58.363 30.7735 58.5226 30.7469 58.9351C30.7203 59.2545 30.5606 59.5206 30.2679 59.7202C30.095 59.8666 29.8688 60.013 29.6027 60.1594C29.4031 60.2791 29.1504 60.4654 28.8577 60.7315C28.5117 61.0509 28.1525 61.0775 27.8066 60.8247C27.5405 60.5852 27.2478 60.5319 26.9285 60.6517C26.7821 60.7049 26.5294 60.7049 26.1834 60.6517C25.8641 60.5985 25.5714 60.6783 25.3053 60.9178C25.1324 61.0908 25.0658 61.2638 25.1324 61.4501C25.159 61.5432 25.1723 61.5965 25.1723 61.6231C25.4916 62.182 25.5049 62.7941 25.2122 63.4727H25.2521C24.986 63.9783 24.68 64.311 24.3341 64.484C24.2809 64.484 23.935 64.6836 23.323 65.0961C21.8328 66.0009 19.7307 67.1719 17.0299 68.609C16.9101 68.6623 16.7771 68.7022 16.6307 68.7022C16.3913 68.7554 16.205 68.7421 16.0586 68.6623C15.9655 68.5691 15.8325 68.476 15.6595 68.3562C15.4865 68.2098 15.3535 68.1034 15.2604 68.0502C14.9943 67.8772 14.7681 67.9304 14.5552 68.2232C14.4355 68.4227 14.369 68.609 14.329 68.7554C14.3024 68.8086 14.2758 69.0082 14.2359 69.3276C14.2359 69.6736 14.0097 69.9663 13.5707 70.2058C13.3046 70.3256 13.1316 70.2857 13.0385 70.0728C12.8655 69.6336 12.7591 69.3941 12.7325 69.3675C12.6128 68.955 12.493 68.5159 12.3866 68.0502C12.3334 67.8772 12.3999 67.7042 12.6128 67.5179C12.666 67.4647 12.7857 67.3582 12.9587 67.2118C13.1316 67.0921 13.2647 66.9856 13.3578 66.9058C13.4509 66.826 13.4909 66.7062 13.4909 66.5598C13.4643 66.4135 13.3844 66.1606 13.2647 65.8147C13.1449 65.4687 12.9454 65.3356 12.6527 65.4155C12.4132 65.5086 11.9209 65.6017 11.1626 65.7215C10.7235 65.7481 10.5505 65.9876 10.6304 66.4268C10.7235 66.8393 10.7501 67.1586 10.7235 67.3981H10.7634C10.5905 67.7175 10.6171 67.9437 10.8566 68.0635C10.9098 68.0901 10.9763 68.1034 11.0295 68.1034C11.3754 68.2231 11.5883 68.4494 11.6415 68.8086C11.6415 68.955 11.6681 69.1812 11.7347 69.474C11.7879 69.7933 11.8278 70.0195 11.8278 70.1393V70.5385C11.8278 70.8579 11.6548 71.0441 11.2956 71.0708C10.9098 71.0708 10.6171 71.1506 10.4175 71.297C10.0317 71.5631 9.75227 71.4833 9.57931 71.0708C9.5527 70.9776 9.48618 70.8046 9.40635 70.5385C9.31322 70.299 9.2467 70.1127 9.18017 69.9663C9.08704 69.7933 9.07374 69.5937 9.14026 69.3941C9.37974 68.7155 9.49948 68.2897 9.5394 68.1167C9.5394 67.9437 9.51279 67.8106 9.44627 67.7175C9.39305 67.5977 9.29992 67.5312 9.18017 67.4913C9.20678 67.4913 8.88747 67.5046 8.20894 67.5312C7.94285 67.5312 7.75658 67.4913 7.63684 67.3981C7.5171 67.2784 7.43727 67.1054 7.37075 66.8659L7.33084 66.9058C7.53041 66.613 7.63684 66.4534 7.63684 66.4268C7.95615 66.0409 8.35529 66.0009 8.82095 66.2937C8.84756 66.3203 8.87417 66.3469 8.91408 66.3868L8.954 66.4268C9.10035 66.5199 9.22009 66.5199 9.29992 66.4268C9.39305 66.307 9.39305 66.1872 9.29992 66.0808C9.20678 65.961 9.03382 65.6151 8.76773 65.0296C8.6746 64.83 8.51495 64.7634 8.28877 64.8566C8.0892 64.9098 7.95615 64.9497 7.88963 64.9497C7.57032 65.1493 7.21109 65.136 6.83857 64.9098C6.81196 64.8832 6.57247 64.7634 6.13342 64.5638H6.17334L6.70552 64.3909C7.21109 64.2977 7.58362 64.2046 7.84972 64.0848C8.52825 63.8453 8.88747 63.7122 8.954 63.6856C9.44627 63.3396 10.3377 62.9138 11.5883 62.4082C11.8278 62.315 11.9874 62.3815 12.0673 62.5812C12.0673 62.5545 12.1737 62.8074 12.3733 63.3263C12.4265 63.2997 12.4265 63.2864 12.3733 63.2864L12.7192 63.1933C13.0651 63.0735 13.3179 62.8872 13.4643 62.6211C13.6106 62.4215 13.7037 62.2352 13.7303 62.0888C13.8501 61.7961 14.0763 61.5565 14.4355 61.3836C14.5552 61.3569 14.9011 61.2106 15.4865 60.9444C15.6329 60.8513 16.0054 60.6916 16.5908 60.4654C16.7372 60.4122 16.8436 60.5186 16.8968 60.8114C16.9234 61.1307 17.0831 61.2638 17.3758 61.2106C18.1342 61.011 18.6264 60.5985 18.826 59.9731C18.9457 59.6271 19.1586 59.4009 19.4912 59.3077C19.7839 59.2146 20.1298 58.9618 20.5423 58.5226C20.6354 58.4029 20.7419 58.3763 20.8882 58.4295C21.9393 58.8952 22.3517 59.0948 22.1255 59.0017C22.3916 59.1214 22.6577 59.1347 22.9238 59.0416C23.0968 58.9884 23.2032 58.9085 23.2298 58.8154C23.6157 58.2831 23.7221 57.8041 23.5757 57.365C23.5225 57.2186 23.456 56.9658 23.4028 56.6198C23.3496 56.3803 23.4161 56.2073 23.629 56.0875L23.8019 55.9944C24.6268 55.675 25.5581 55.0895 26.6225 54.2379C26.7422 54.1448 27.0083 53.9585 27.4075 53.6657C27.7002 53.3996 27.9529 53.2 28.1525 53.0536C28.3255 52.9073 28.5517 52.7609 28.8177 52.6145C30.1349 51.8826 31.7048 50.8447 33.5276 49.4875C34.4988 48.7822 35.4301 47.9572 36.3348 47.0257C36.9468 46.387 37.4125 45.6019 37.7451 44.6971C38.0644 43.8455 38.1709 42.9539 38.0511 42.0092C38.0245 41.8096 37.958 41.61 37.8782 41.437C37.5855 40.7982 37.2129 40.266 36.7739 39.8535C36.0155 39.095 35.2306 38.5095 34.4456 38.097C33.6872 37.7111 33.022 37.4317 32.4632 37.2587C30.9332 36.7264 29.8289 36.3672 29.1237 36.1542C28.5916 35.9813 27.7667 35.7151 26.6225 35.3559C25.5049 35.0099 24.6534 34.7437 24.068 34.5708C22.8307 34.2248 21.8994 33.5595 21.2607 32.5881C21.1676 32.4417 21.008 32.1889 20.7818 31.8429C20.5822 31.5502 20.3959 31.3106 20.2496 31.1377C20.1565 30.9913 20.0633 30.7518 19.9436 30.4324C19.8238 29.9933 19.6243 29.6739 19.3316 29.461H19.3715C19.5711 29.1683 19.6775 29.0086 19.6775 28.982C19.8238 28.7425 19.9037 28.503 19.9037 28.2368C19.8771 27.9707 19.8505 27.7179 19.8105 27.4917C19.7839 27.1723 19.7839 26.9062 19.8105 26.7066C19.9037 26.0678 20.1298 25.0698 20.5157 23.7126C20.662 23.1271 20.8882 22.6614 21.1809 22.3021C21.3539 22.1291 21.4736 21.9827 21.5268 21.863C21.9925 20.9581 22.7642 20 23.8152 19.002C23.7886 19.1218 23.8152 19.2283 23.9084 19.3081C23.9616 19.3347 24.0281 19.3347 24.0813 19.3081C24.2011 19.2149 24.1079 19.1351 23.8152 19.042C24.8663 18.1637 25.3586 17.7512 25.2654 17.8044L25.8375 17.2323C26.4229 16.6468 26.9817 16.2343 27.5139 15.9948C27.4208 16.0214 27.9263 15.7286 29.004 15.1165C30.0019 14.5576 30.5074 14.2782 30.5473 14.2782C30.8666 14.0786 31.6649 13.6395 32.9156 12.9608L33.6207 12.7346H33.5808L34.0198 12.3887C35.1906 11.6568 36.3082 11.1245 37.3593 10.8052C39.8206 10.0733 40.9515 9.74065 40.7387 9.79388C40.885 9.76726 41.0181 9.75396 41.1378 9.75396C42.4017 9.70073 43.3064 9.74065 43.8652 9.88702C44.3575 10.0334 44.8764 10.1132 45.4086 10.1132C45.9674 10.1398 46.6459 10.3661 47.4309 10.7786C47.7236 10.9515 47.963 11.1911 48.136 11.4838C48.309 11.8032 48.2557 12.0427 47.963 12.1891C47.6437 12.3354 47.4708 12.4286 47.4309 12.4552C46.4862 12.7746 45.7412 12.9875 45.1824 13.0673C43.6923 13.36 42.3352 13.8524 41.1378 14.5576C40.8451 14.704 40.446 14.9302 39.9537 15.223C39.3949 15.5423 38.9958 15.7685 38.7696 15.8883C38.3039 16.181 37.7185 16.6069 37.0134 17.1657C36.6674 17.4585 36.3215 17.6714 36.0022 17.7778C35.6829 17.871 35.2971 18.0839 34.858 18.4432C34.419 18.7625 34.0464 19.042 33.7537 19.2815C33.022 19.8936 32.0508 20.6787 30.8533 21.6101C29.3233 22.7545 28.3521 23.4997 27.913 23.859C27.5671 24.1251 27.2877 24.4045 27.0748 24.6973C27.1281 24.6041 26.7023 25.1098 25.7976 26.1876C25.3586 26.7199 25.159 27.3852 25.1856 28.2102C25.2388 28.8223 25.5315 29.3147 26.0637 29.6606C26.3032 29.8336 26.5161 29.98 26.7289 30.0997C27.7534 30.6054 28.6315 31.0179 29.3632 31.3772C29.483 31.4038 29.789 31.5102 30.2812 31.6832C32.0641 32.3219 33.9533 33.0272 35.949 33.799C36.7074 34.0917 37.4125 34.4377 38.0644 34.8502C39.3816 35.7284 40.4193 36.9659 41.191 38.5494C41.2841 38.7224 41.3374 38.8954 41.364 39.0817C41.6301 40.2261 41.7498 41.0777 41.7099 41.6366C41.7099 42.1688 41.803 42.6612 41.976 43.1269C42.1223 43.4729 42.1489 43.8721 42.0691 44.3112C41.8962 45.3092 41.7498 46.0677 41.6301 46.5999C41.4571 47.2386 41.2176 47.8641 40.9249 48.4495C40.3927 49.5407 40.0335 50.2992 39.8206 50.7383C39.6477 51.1508 39.4082 51.5234 39.1155 51.8826C39.0224 51.9758 38.8893 52.1222 38.7164 52.3218C38.5434 52.4948 38.4104 52.6411 38.3172 52.7609C38.2241 52.8806 38.1177 53.0403 37.9713 53.2399C37.825 53.4794 37.7052 53.6391 37.6254 53.719C37.4258 53.9851 37.2529 54.1714 37.1464 54.2911C35.0044 56.1408 34.0731 56.9658 34.3258 56.7529C34.1529 56.8992 33.9134 56.9924 33.6207 57.019V57.0589C33.5941 56.673 33.3945 56.4867 33.0486 56.4867H32.5164C32.1971 56.4601 31.9709 56.6065 31.8512 56.9258C31.319 56.6863 30.9731 56.54 30.8001 56.4867C30.7469 56.4601 30.6937 56.4867 30.6671 56.5799C30.6671 56.6331 30.6937 56.6863 30.7602 56.7129C30.88 56.8061 31.0529 56.846 31.2924 56.846C31.5851 56.846 31.7714 56.8726 31.8645 56.9392C32.104 57.0323 32.2769 57.2053 32.3967 57.4714C32.4898 57.7375 32.3834 57.9505 32.0907 58.1367C31.9177 58.2299 31.7448 58.2299 31.5585 58.1367L31.2525 57.8706L31.2924 57.9105C30.9997 57.9638 30.8267 58.1367 30.7602 58.3896L30.7868 58.363ZM10.4707 69.9264C10.3244 69.8332 10.2179 69.8732 10.1647 70.0195C10.0716 70.1925 10.1115 70.3123 10.2578 70.3655C10.4042 70.4187 10.5239 70.3788 10.6038 70.2324C10.6304 70.0861 10.5905 69.9796 10.4707 69.9264ZM16.4445 65.003C16.3513 64.9763 16.2981 64.9497 16.2715 64.9098C15.7659 64.8832 15.3003 65.0695 14.8612 65.482C14.8346 65.5086 14.8213 65.5751 14.8213 65.655C14.7681 65.8546 14.808 66.0409 14.9544 66.1872C15.0741 66.2804 15.1938 66.307 15.3003 66.2804C16.0054 66.0409 16.3647 65.9344 16.4046 65.9344C16.6041 65.788 16.7106 65.6151 16.7106 65.4022C16.7106 65.1892 16.6174 65.0695 16.4445 65.003ZM18.7329 63.3796C18.6397 63.18 18.5865 63.0735 18.5599 63.0735C18.4402 62.9005 18.3736 62.9005 18.3337 63.0735C18.3071 63.1001 18.3337 63.1533 18.4269 63.2066C18.4535 63.2332 18.5599 63.2864 18.7329 63.3396V63.3796ZM19.9702 61.0908C19.9702 61.0908 19.8771 61.1041 19.7972 61.1307C19.6775 61.1573 19.5711 61.2239 19.4912 61.3037C19.1985 61.6497 19.2118 61.9424 19.5311 62.182C19.8505 62.4215 20.05 62.7408 20.1032 63.1533L20.1964 63.3263C20.2895 63.5259 20.4625 63.5658 20.7286 63.4195C20.7818 63.3929 20.9281 63.2864 21.1676 63.1134C21.3672 62.967 21.5534 62.8739 21.6998 62.8473C21.8461 62.7941 21.9659 62.8207 22.0457 62.9404C22.1388 63.0336 22.1521 63.14 22.0856 63.2864C22.059 63.3396 22.0324 63.4062 21.9925 63.4594C21.9659 63.486 21.9127 63.5392 21.8594 63.5925C21.8328 63.6457 21.8062 63.7122 21.7663 63.7654C21.6732 63.8852 21.6599 64.005 21.7264 64.1114C21.8461 64.3509 22.0191 64.4042 22.2586 64.2844C22.5247 64.138 22.6843 64.0316 22.7375 63.9783C23.0835 63.5925 23.456 63.1533 23.8418 62.661C23.9882 62.5146 24.0015 62.3416 23.8817 62.1287C23.8285 62.0356 23.7886 61.9824 23.7886 61.9557C23.6157 61.6896 23.6023 61.4368 23.7487 61.2106C23.7753 61.184 23.8019 61.1174 23.8418 61.0376C23.9616 60.6251 23.8285 60.3989 23.4427 60.3323C22.8307 60.2126 22.3251 60.3057 21.9526 60.5985C21.8062 60.7182 21.6466 60.8247 21.4736 60.9045C21.1277 61.144 20.7552 61.2106 20.3693 61.1307C20.1299 61.1041 19.9968 61.0908 19.9702 61.0908ZM23.3096 32.109C23.0702 32.1357 22.9637 32.2554 22.9637 32.455C22.9903 32.6546 23.1234 32.7611 23.3629 32.7611C23.629 32.7345 23.7487 32.6147 23.7088 32.4151C23.6822 32.1756 23.5491 32.0824 23.3096 32.109ZM23.4826 30.7518C23.3096 30.7518 23.283 30.8316 23.3895 30.978C23.4161 31.0312 23.456 31.0578 23.5225 31.0179L23.6157 30.8848C23.5624 30.7917 23.5092 30.7518 23.4826 30.7518ZM23.9616 24.8037L24.0015 24.8969L24.0946 24.8037H23.9616ZM24.7998 21.1577C24.68 21.1577 24.6135 21.2375 24.5736 21.3839C24.547 21.7033 24.6401 21.8097 24.8796 21.69C24.9993 21.6367 25.0525 21.5303 25.0525 21.3839C24.9993 21.2375 24.9062 21.1577 24.7865 21.1577H24.7998ZM28.5383 57.8839C28.7778 57.325 28.9109 57.0323 28.9375 57.0057C28.9641 56.8593 29.0705 56.6996 29.2435 56.5266C29.3898 56.327 29.4963 56.1541 29.5495 56.0476C29.5761 55.9012 29.5229 55.7815 29.3765 55.7016C29.2036 55.5819 29.0306 55.5819 28.8444 55.7016C29.0173 55.5819 28.8044 55.7149 28.1791 56.1008C28.0594 56.194 27.9396 56.1807 27.8332 56.0609C27.5139 55.7416 27.2877 55.502 27.168 55.3557L26.9418 54.8234L26.9817 54.8633C26.5959 55.1827 26.2234 55.4222 25.8375 55.5686C25.6379 55.6617 25.4517 55.8347 25.3053 56.1008C25.0126 56.6597 24.8929 57.2186 24.9594 57.7775C24.9594 57.9505 25.0259 58.0436 25.1856 58.0436C25.2388 58.0702 25.292 58.0569 25.3186 58.0037C25.5581 57.5912 25.6912 57.3783 25.7178 57.3384C25.9173 57.1654 26.1568 57.1388 26.4229 57.2452C26.6225 57.2984 26.7555 57.4315 26.8221 57.6444C26.9152 58.0569 26.862 58.5493 26.689 59.1347C26.3431 59.1081 26.1036 59.1081 25.9839 59.1347C25.9307 59.1614 25.8907 59.2146 25.8907 59.2678C25.9173 59.361 25.9573 59.4009 26.0238 59.4009C25.9972 59.4009 26.21 59.3077 26.689 59.1347C27.1547 58.9884 27.474 58.8021 27.6602 58.5626C27.8066 58.363 28.1126 58.1234 28.5783 57.8573L28.5383 57.8972V57.8839ZM25.1989 63.4594C25.5448 63.486 25.8109 63.4993 25.9972 63.4993C25.8774 63.4062 25.7577 63.3796 25.6513 63.4062C25.4783 63.4328 25.3452 63.4461 25.2521 63.4461H25.2122L25.1989 63.4594ZM25.7311 18.7359C25.5581 18.8291 25.4783 18.9754 25.5049 19.175C25.5049 19.3214 25.5714 19.4012 25.7311 19.4012C25.7843 19.4012 25.8375 19.3746 25.8641 19.3081C26.0105 19.1617 26.0637 19.002 26.0371 18.8291C25.944 18.7093 25.8508 18.6827 25.7311 18.7359ZM26.077 63.3796C25.9306 63.3529 25.904 63.3929 25.9839 63.5126C26.0105 63.4594 26.0371 63.4062 26.077 63.3796ZM26.25 22.8743L26.1568 22.7811L26.1169 22.8743H26.25ZM27.9263 17.5117C27.9263 17.5117 27.8199 17.4319 27.7933 17.4718C27.6203 17.5915 27.6203 17.6714 27.7933 17.7379L27.9663 17.698C27.9663 17.5782 27.9529 17.525 27.9263 17.525V17.5117ZM28.9774 20.6254C28.5916 20.6254 28.2989 20.6388 28.0993 20.6654V20.6254C28.4452 20.7984 28.7246 20.9315 28.9375 21.0246L28.7645 21.3307C28.7113 21.4238 28.6714 21.4771 28.6714 21.5037C28.6448 21.5968 28.6448 21.6501 28.6714 21.6767C28.698 21.7299 28.7379 21.7698 28.8044 21.7698C28.9508 21.7964 29.0439 21.7299 29.0705 21.5436C29.0705 21.4238 29.0173 21.2642 28.8976 21.0646C28.8976 20.865 28.9109 20.692 28.9375 20.5855L28.9774 20.6254ZM30.1216 54.3577C30.095 54.2645 30.0418 54.1581 29.9886 54.0117C29.9619 53.8387 29.9353 53.719 29.8954 53.6657L29.8555 53.4927C29.8555 53.4927 29.7757 53.3863 29.7225 53.3597C29.5761 53.3597 29.483 53.4395 29.4564 53.5859C29.31 54.025 29.4697 54.2911 29.9353 54.3843C29.9619 54.3843 30.0285 54.371 30.1083 54.3444V54.3843L30.1216 54.3577Z" fill="black"/>
<path d="M66.9354 33.2131C67.0684 33.3196 67.1616 33.4659 67.2148 33.6522C67.3212 34.0248 67.3478 34.3708 67.2946 34.6901C67.2414 35.0361 67.0551 35.3289 66.7358 35.5684C66.6294 35.6216 66.3899 35.6482 66.0174 35.6482C65.7247 35.6482 65.5916 35.7946 65.6182 36.0873C65.6715 36.4333 65.5118 36.7261 65.1393 36.9656C64.7401 37.2051 64.1946 37.4313 63.5028 37.6442C63.3964 37.6974 62.7178 37.897 61.4672 38.243L61.3076 38.3228C61.0149 38.3228 60.4827 38.3894 59.711 38.5224C59.0458 38.6289 58.5136 38.6954 58.1144 38.722C57.8484 38.722 56.5578 38.8418 54.2428 39.0813C53.7638 39.1345 53.3115 39.4007 52.8857 39.8797C52.8325 39.9596 52.7793 40.066 52.7261 40.1991C52.6729 40.3321 52.6463 40.4519 52.6463 40.5584C52.6197 41.0374 52.46 41.6628 52.1673 42.4346C51.7948 43.3927 51.5819 43.9515 51.5287 44.1112C51.4755 44.3773 51.369 44.71 51.2094 45.1092C51.236 45.0294 50.9965 45.2955 50.4909 45.9076C50.1982 46.2802 50.1317 46.6661 50.2913 47.0653L50.3313 47.225C50.4377 47.4645 50.3978 47.6774 50.2115 47.8637C49.9454 48.1564 49.7991 48.4092 49.7725 48.6222C49.7459 48.8084 49.7193 48.9149 49.6926 48.9415C49.4798 49.2609 49.1871 50.1657 48.8145 51.6561C48.6017 52.5875 48.9609 53.3327 49.8922 53.8916C50.3978 54.2109 50.9965 54.4238 51.6883 54.5303C52.2205 54.6367 52.939 54.7299 53.8437 54.8097C54.5355 54.8629 55.2407 54.8629 55.9591 54.8097C56.305 54.7831 57.0102 54.7033 58.0745 54.5702C58.5003 54.517 58.7531 54.2908 58.8329 53.8916C58.8595 53.8117 58.8861 53.692 58.9127 53.5323C58.8861 53.6121 58.8994 53.5057 58.9526 53.2129C58.9792 52.9468 59.0857 52.7339 59.2719 52.5742C59.4582 52.4411 59.7376 52.2282 60.1101 51.9355C60.2964 51.8024 60.5226 51.7359 60.7887 51.7359C61.2144 51.7093 61.5204 51.8424 61.7067 52.1351C61.9462 52.4811 62.199 52.8803 62.465 53.3327C62.7045 53.7319 62.9573 54.1976 63.2234 54.7299C63.3831 55.0226 63.4496 55.3686 63.423 55.7678C63.3964 56.3001 63.2766 56.9388 63.0638 57.6839C62.9307 58.1098 62.6912 58.4424 62.3453 58.6819C61.4938 59.3207 60.4161 59.7864 59.1123 60.0791C58.7664 60.159 58.4737 60.1856 58.2342 60.159C57.8617 60.1324 57.529 60.2122 57.2363 60.3985C57.1033 60.4517 56.9303 60.465 56.7175 60.4384C56.5312 60.4384 56.0522 60.4517 55.2806 60.4783C53.7372 60.5049 52.5531 60.4118 51.7282 60.1989C50.7703 60.0924 49.5064 59.813 47.9364 59.3606C47.1648 59.1211 46.4995 58.8682 45.9407 58.6021C45.5948 58.4158 45.3154 58.1896 45.1026 57.9235C44.9961 57.7638 44.9296 57.6706 44.903 57.644C44.6635 57.2182 44.1978 56.6061 43.506 55.8077C42.6013 54.7964 42.3086 53.6387 42.6279 52.3347C43.1867 50.1258 43.7987 48.2629 44.4639 46.7459C44.6502 46.3201 44.9961 45.5084 45.5017 44.3108C45.6081 44.0447 45.688 43.8185 45.7412 43.6322C46.0073 42.4878 47.1249 38.8684 49.0939 32.7607C49.2536 32.2018 49.533 31.3236 49.9321 30.126C50.3313 29.0082 50.624 28.13 50.8102 27.4913C50.8368 27.4647 51.1029 26.4933 51.6085 24.5771H51.6484L51.5686 24.617C52.899 19.6138 53.5244 17.2585 53.4445 17.5512C53.4445 17.5246 53.4445 17.4714 53.4845 17.3916C53.5909 16.8859 53.5377 16.4202 53.3248 15.9944C53.2184 15.8347 53.2317 15.675 53.3647 15.5153C53.8969 14.8234 54.1497 14.4907 54.1231 14.5173C54.0965 14.5706 54.2295 14.0649 54.5222 13.0004C54.5222 12.9738 54.5754 12.6145 54.6819 11.9226C54.7351 11.6032 54.8415 11.2705 55.0012 10.9246C55.081 10.7915 55.2007 10.6584 55.3604 10.5254C55.5201 10.3923 55.6664 10.2858 55.7994 10.206C56.4913 9.86003 57.4758 9.47414 58.7531 9.04833C59.0458 8.96849 59.3385 8.9951 59.6312 9.12817C60.0569 9.31446 60.3895 9.56728 60.629 9.88664C61.0015 10.3923 61.2277 10.858 61.3076 11.2838C61.3342 11.6032 61.547 11.7762 61.9462 11.8028C62.3187 11.8294 62.5582 11.8427 62.6646 11.8427H65.1393C69.1306 11.8693 71.0864 11.8826 71.0066 11.8826C71.4856 11.8826 72.2572 11.9758 73.3216 12.1621C73.6675 12.2153 74.1731 12.3617 74.8383 12.6012C74.9714 12.6544 75.131 12.7476 75.3173 12.8806C76.1422 13.4395 76.3816 14.2113 76.0357 15.196C75.9825 15.3823 75.8628 15.6218 75.6765 15.9145C75.4902 16.2339 75.3705 16.4734 75.3173 16.6331C75.2641 16.7928 75.0911 16.9658 74.7984 17.152C74.2662 17.498 73.6808 17.7775 73.0422 17.9904C72.1907 18.3097 71.4456 18.4561 70.807 18.4295C70.5675 18.4029 70.2349 18.3896 69.8092 18.3896C69.3036 18.3896 68.9843 18.3896 68.8512 18.3496C68.3723 18.3496 68.0796 18.3097 67.9731 18.2299C68.0264 18.2831 67.8534 18.1367 67.4543 17.7908C67.2414 17.5779 67.0285 17.5646 66.8156 17.7508C66.5496 17.9637 66.2835 18.0037 66.0174 17.8706C65.8311 17.7375 65.6049 17.7508 65.3388 17.9105C65.0461 18.0702 64.7667 18.1367 64.5006 18.1101C63.1968 18.0569 62.3187 17.9637 61.8663 17.8307C61.3342 17.7242 60.802 17.6976 60.2698 17.7508C60.0303 17.7775 59.844 17.9105 59.711 18.15C59.6046 18.3363 59.5247 18.496 59.4715 18.6291C58.9393 20.1993 58.5934 21.2106 58.4338 21.663C58.1677 22.5944 57.8883 23.3662 57.5956 23.9783C57.2497 24.7767 56.9836 25.5618 56.7973 26.3336C56.4514 27.8239 56.2518 28.6889 56.1986 28.9284C56.0922 29.5671 55.9059 30.259 55.6398 31.0042C55.56 31.297 55.3471 32.0288 55.0012 33.1998C54.948 33.3329 54.9879 33.4659 55.1209 33.599C55.254 33.7321 55.387 33.7853 55.5201 33.7587C55.7861 33.7055 55.9059 33.6921 55.8793 33.7188C56.2784 33.6123 56.611 33.5192 56.8771 33.4393C58.2874 33.0401 59.7908 32.7075 61.3874 32.4413C61.9196 32.3615 62.5582 32.2417 63.3032 32.0821C63.6758 31.9756 63.9552 31.7494 64.1414 31.4034C64.2479 31.2171 64.3543 30.951 64.4607 30.605C64.647 30.126 65.0594 29.8332 65.6981 29.7268C65.8577 29.7002 66.0307 29.7401 66.2169 29.8465C66.5363 30.0062 66.7358 30.2857 66.8156 30.6849C66.8423 30.7381 66.8689 30.9776 66.8955 31.4034C66.9221 31.7494 66.9487 32.0421 66.9753 32.2816C66.9753 32.4413 66.9354 32.601 66.8556 32.7607C66.9088 32.6808 66.8423 32.7873 66.656 33.08C66.4963 33.1333 66.3899 33.1732 66.3367 33.1998C66.0972 33.253 65.9242 33.3994 65.8178 33.6389L65.7779 33.7188C65.7779 33.7188 65.7646 33.772 65.738 33.7986L65.6981 33.9583C65.6182 34.118 65.6715 34.2643 65.8577 34.3974C66.044 34.5039 66.2169 34.5172 66.3766 34.4373C66.5895 34.3309 66.7092 34.1446 66.7358 33.8784C66.7358 33.9051 66.6959 33.6256 66.6161 33.0401C66.8023 33.1466 66.9088 33.1998 66.9354 33.1998V33.2131ZM46.1669 45.0427V45.0028C46.0871 45.0294 46.0339 45.0427 46.0073 45.0427L46.0472 45.1624C46.2068 45.1358 46.2468 45.1225 46.1669 45.1225V45.0427ZM47.0849 46.2802L47.2047 46.3201C47.2313 46.533 47.2446 46.6528 47.2446 46.6794C47.2712 46.7326 47.3111 46.7592 47.3643 46.7592C47.524 46.7858 47.5905 46.7193 47.5639 46.5596C47.5639 46.4798 47.5373 46.4399 47.4841 46.4399C47.4575 46.4133 47.351 46.3733 47.1648 46.3201L47.0849 46.2802ZM54.7883 27.6643L54.908 27.6243L54.7883 27.5445V27.6643ZM63.0638 34.9829C63.0638 34.9829 63.0371 35.0494 62.9041 35.0228V34.8631C62.9839 34.8099 62.9972 34.8631 62.944 35.0228L63.0638 34.9829ZM63.9019 13.6391C63.6625 13.4794 63.4496 13.4794 63.2633 13.6391C63.1303 13.7189 63.1303 13.8121 63.2633 13.9185C63.423 14.0516 63.6358 14.0117 63.9019 13.7988V13.6391ZM63.3432 35.8212L63.2633 35.7414V35.8611L63.3432 35.8212ZM64.5006 32.7341C64.341 32.7075 64.2878 32.7607 64.341 32.8938C64.3676 32.947 64.4208 32.9736 64.5006 32.9736L64.5805 32.8538L64.5006 32.7341ZM65.0594 17.3916C65.0594 17.3916 65.1526 17.3117 65.1792 17.2319C65.1792 17.0988 65.0994 17.0456 64.9397 17.0722L64.8599 17.192C64.8599 17.3516 64.9264 17.4182 65.0594 17.3916ZM66.2968 15.3557L66.2569 15.2359L66.3367 15.3157L66.2968 15.3557ZM66.4564 16.8726C66.4564 16.8726 66.4298 16.9125 66.4564 16.9924C66.5363 16.9658 66.5895 16.9524 66.6161 16.9524L66.5762 16.8327L66.4564 16.8726ZM69.9688 14.9165C69.7826 15.2625 69.6761 15.4754 69.6495 15.5553C69.6229 15.5819 69.6096 15.6351 69.6096 15.7149C69.6362 15.7948 69.6628 15.848 69.6894 15.8746C69.8225 15.9278 69.9289 15.8879 70.0087 15.7549C70.1418 15.4887 70.1152 15.2226 69.9289 14.9565L69.9688 14.9165ZM74.2529 15.7948C74.1465 15.7149 74.0533 15.7149 73.9735 15.7948C73.9469 15.848 73.9602 15.9012 74.0134 15.9545C74.0933 16.0077 74.1864 15.9944 74.2928 15.9145L74.2529 15.7948Z" fill="black"/>
<path d="M94.8484 32.4148C94.9815 32.5213 95.0613 32.6544 95.1145 32.8406C95.2209 33.1999 95.2476 33.5326 95.1943 33.8386C95.1411 34.1713 94.9682 34.4507 94.6488 34.6903C94.5424 34.7435 94.3162 34.7701 93.957 34.7701C93.6776 34.7701 93.5446 34.9165 93.5712 35.1959C93.6244 35.5286 93.4647 35.808 93.1055 36.0475C92.7197 36.2738 92.1875 36.5 91.5223 36.6996C91.4158 36.7528 90.7639 36.9391 89.5532 37.2851L89.3935 37.3649C89.1141 37.3649 88.5953 37.4314 87.8502 37.5645C87.2116 37.6709 86.6927 37.7375 86.3069 37.7508C86.0541 37.7508 84.8035 37.8705 82.555 38.0968C82.0893 38.15 81.6503 38.4028 81.2378 38.8685C81.1846 38.9484 81.1314 39.0548 81.0782 39.1746C81.0249 39.3077 80.9983 39.4141 80.9983 39.5206C80.9717 39.9863 80.8121 40.5851 80.5327 41.3303C80.1735 42.2617 79.9606 42.794 79.9207 42.9537C79.8675 43.2065 79.761 43.5392 79.6147 43.925C79.6413 43.8452 79.4018 44.1113 78.9228 44.6968C78.6434 45.0561 78.5769 45.4287 78.7233 45.8146L78.7632 45.9743C78.8696 46.2005 78.8297 46.4134 78.6434 46.5864C78.3906 46.8658 78.2443 47.1186 78.2177 47.3182C78.1911 47.5045 78.1645 47.5977 78.1379 47.6243C77.925 47.9303 77.6456 48.8086 77.2864 50.2457C77.0735 51.1505 77.4327 51.8691 78.3241 52.4147C78.8164 52.7207 79.3885 52.9336 80.067 53.0268C80.5859 53.1332 81.2777 53.2131 82.1558 53.2929C82.8211 53.3461 83.5129 53.3461 84.2047 53.2929C84.5374 53.2663 85.2159 53.1864 86.2537 53.0667C86.6661 53.0135 86.9056 52.8005 86.9854 52.4147C87.012 52.3348 87.0386 52.2284 87.0652 52.0687C87.0386 52.1485 87.0652 52.0421 87.1051 51.7626C87.1318 51.5098 87.2382 51.2969 87.4111 51.1505C87.5974 51.0175 87.8635 50.8179 88.2227 50.5384C88.409 50.4054 88.6219 50.3388 88.8747 50.3388C89.2871 50.3122 89.5798 50.4453 89.7661 50.7247C89.9922 51.0574 90.245 51.4433 90.4978 51.8824C90.724 52.2683 90.9768 52.7207 91.2296 53.2397C91.3892 53.5191 91.4424 53.8518 91.4158 54.2377C91.3892 54.7566 91.2695 55.3687 91.0699 56.0873C90.9369 56.4998 90.7107 56.8191 90.3781 57.0587C89.5532 57.6708 88.5154 58.1232 87.2515 58.4159C86.9189 58.4958 86.6395 58.5224 86.4 58.4958C86.0408 58.4692 85.7215 58.549 85.4288 58.722C85.2957 58.7752 85.1361 58.7885 84.9232 58.7619C84.7369 58.7619 84.2846 58.7619 83.5262 58.8018C82.0361 58.8284 80.8919 58.7353 80.0936 58.5357C79.1623 58.4292 77.9383 58.1631 76.4216 57.724C75.6765 57.4978 75.0379 57.245 74.4924 56.9921C74.1598 56.8058 73.8804 56.5929 73.6808 56.3401C73.5744 56.1804 73.5079 56.1006 73.4812 56.074C73.2551 55.6615 72.8027 55.076 72.1242 54.2909C71.2461 53.3062 70.9667 52.1884 71.2727 50.9243C71.8182 48.782 72.4036 46.9856 73.0555 45.5218C73.2418 45.1093 73.5744 44.3242 74.0533 43.1666C74.1598 42.9137 74.2396 42.6875 74.2795 42.5145C74.5323 41.4101 75.6233 37.9105 77.5258 32.0023C77.6855 31.4568 77.9516 30.6051 78.3374 29.4475C78.7233 28.3696 79.0027 27.518 79.1889 26.8926C79.2155 26.866 79.4683 25.9212 79.9606 24.0716H80.0005L79.9207 24.1115C81.2112 19.2679 81.8099 16.9925 81.7301 17.2719C81.7301 17.2453 81.7301 17.1921 81.77 17.1122C81.8764 16.6199 81.8232 16.1675 81.6104 15.755C81.5039 15.5953 81.5172 15.4489 81.6503 15.2892C82.1691 14.6239 82.4086 14.3046 82.382 14.3179C82.3554 14.3711 82.4885 13.8787 82.7678 12.8541C82.7678 12.8275 82.8211 12.4816 82.9275 11.8162C82.9807 11.5102 83.0872 11.1908 83.2335 10.8448C83.3133 10.7118 83.4198 10.592 83.5794 10.459C83.7391 10.3259 83.8721 10.2327 84.0052 10.1529C84.6704 9.82023 85.6283 9.44765 86.8657 9.03514C87.1451 8.9553 87.4378 8.98192 87.7172 9.11498C88.1296 9.30128 88.4489 9.5408 88.6884 9.84685C89.0476 10.3392 89.2738 10.7916 89.3403 11.2041C89.3669 11.5102 89.5665 11.6832 89.9523 11.7098C90.3116 11.7364 90.551 11.7497 90.6442 11.7497H93.039C96.8973 11.7763 98.7999 11.7896 98.72 11.7896C99.1857 11.7896 99.9308 11.8828 100.955 12.0557C101.288 12.109 101.78 12.242 102.419 12.4816C102.552 12.5348 102.698 12.6279 102.884 12.7477C103.683 13.2933 103.909 14.0384 103.576 14.9832C103.523 15.1695 103.403 15.3957 103.23 15.6751C103.044 15.9812 102.938 16.2207 102.884 16.3671C102.831 16.5268 102.672 16.6864 102.379 16.8727C101.86 17.2054 101.301 17.4848 100.676 17.6844C99.8509 17.9905 99.1325 18.1369 98.5072 18.1102C98.281 18.0836 97.9484 18.0703 97.5359 18.0703C97.0437 18.0703 96.7377 18.0703 96.6046 18.0304C96.139 18.0304 95.8596 17.9905 95.7531 17.9106C95.8063 17.9639 95.6334 17.8175 95.2475 17.4848C95.048 17.2852 94.8351 17.2719 94.6355 17.4449C94.3828 17.6578 94.1167 17.6844 93.8639 17.5647C93.6776 17.4316 93.4647 17.4449 93.212 17.6046C92.9326 17.7643 92.6532 17.8175 92.4004 17.7909C91.1364 17.7377 90.2849 17.6445 89.8459 17.5248C89.327 17.4183 88.8214 17.3917 88.3026 17.4449C88.0764 17.4715 87.8901 17.6046 87.7571 17.8308C87.6506 18.0171 87.5708 18.1635 87.5309 18.2965C87.012 19.8135 86.6794 20.7982 86.5331 21.2373C86.2803 22.1421 86.0009 22.8873 85.7215 23.4728C85.3889 24.2446 85.1228 25.0031 84.9498 25.7482C84.6172 27.1853 84.4176 28.0237 84.3644 28.2632C84.258 28.8753 84.085 29.5539 83.8189 30.2725C83.7391 30.5519 83.5395 31.2705 83.2069 32.4015C83.1537 32.5346 83.1936 32.6544 83.3266 32.7874C83.4597 32.9205 83.5794 32.9737 83.7125 32.9471C83.9653 32.8939 84.085 32.8806 84.0584 32.9072C84.4442 32.8007 84.7635 32.7076 85.0296 32.6411C86.4 32.2552 87.8502 31.9358 89.3935 31.6697C89.9124 31.5898 90.5244 31.4834 91.2429 31.3237C91.6021 31.2172 91.8682 31.0043 92.0545 30.6717C92.1609 30.4854 92.254 30.2326 92.3605 29.8999C92.5467 29.4342 92.9459 29.1547 93.5579 29.0483C93.7175 29.0217 93.8772 29.0483 94.0634 29.168C94.3694 29.3277 94.569 29.5938 94.6488 29.9797C94.6755 30.033 94.7021 30.2592 94.7287 30.6717C94.7553 31.0043 94.7819 31.2838 94.8085 31.5233C94.8085 31.683 94.7686 31.8293 94.6888 31.989C94.742 31.9092 94.6888 32.0156 94.5025 32.2951C94.3428 32.3483 94.2497 32.3882 94.1965 32.4148C93.9703 32.4681 93.7974 32.6011 93.6909 32.8406L93.651 32.9205C93.651 32.9205 93.6377 32.9737 93.6111 33.0003L93.5712 33.16C93.4914 33.3197 93.5446 33.4528 93.7308 33.5858C93.9171 33.6923 94.0768 33.7056 94.2364 33.6257C94.436 33.5193 94.5557 33.3463 94.5823 33.0802C94.5823 33.1068 94.5424 32.8406 94.4626 32.2685C94.6488 32.3749 94.742 32.4281 94.7686 32.4281L94.8484 32.4148ZM74.7585 43.8452V43.8053C74.6787 43.8319 74.6254 43.8452 74.5988 43.8452L74.6387 43.965C74.7984 43.9384 74.825 43.925 74.7585 43.925V43.8452ZM75.6499 45.0428L75.7696 45.0827C75.7962 45.2823 75.8096 45.4021 75.8096 45.4287C75.8362 45.4819 75.8761 45.5085 75.9293 45.5085C76.0889 45.5351 76.1422 45.4686 76.1156 45.3222C76.1156 45.2424 76.0889 45.2025 76.0357 45.2025C76.0091 45.1759 75.9027 45.1359 75.7297 45.0827L75.6499 45.0428ZM83.1005 27.0523L83.2202 27.0124L83.1005 26.9325V27.0523ZM91.0965 34.1181C91.0965 34.1181 91.0699 34.1846 90.9369 34.158V33.9983C91.0167 33.9451 91.03 33.9983 90.9768 34.158L91.0965 34.1181ZM91.9081 13.4929C91.6819 13.3332 91.4691 13.3332 91.2961 13.4929C91.163 13.5727 91.163 13.6658 91.2961 13.759C91.4558 13.8921 91.6553 13.8521 91.9081 13.6392V13.4795V13.4929ZM91.3759 34.9298L91.2961 34.8499V34.9697L91.3759 34.9298ZM92.4935 31.9491C92.3338 31.9225 92.2806 31.9757 92.3339 32.1088C92.3605 32.162 92.4137 32.1886 92.4935 32.1886L92.5733 32.0689L92.4935 31.9491ZM93.0257 17.1122C93.0257 17.1122 93.1188 17.0324 93.1454 16.9526C93.1454 16.8195 93.0656 16.7663 92.9192 16.7929L92.8394 16.9127C92.8394 17.0723 92.9059 17.1256 93.0257 17.0989V17.1122ZM94.2231 15.1429L94.1832 15.0231L94.263 15.103L94.2231 15.1429ZM94.3828 16.6199C94.3828 16.6199 94.3562 16.6598 94.3828 16.7397C94.4626 16.7131 94.5158 16.6997 94.5424 16.6997L94.5025 16.58L94.3828 16.6199ZM97.7754 14.7171C97.5892 15.0497 97.496 15.2626 97.4694 15.3292C97.4428 15.3558 97.4295 15.409 97.4295 15.4888C97.4561 15.5687 97.4827 15.6219 97.5093 15.6485C97.6424 15.7018 97.7355 15.6618 97.8153 15.5288C97.9484 15.2759 97.9218 15.0098 97.7355 14.757L97.7754 14.7171ZM101.913 15.5687C101.807 15.4888 101.727 15.4888 101.647 15.5687C101.62 15.6219 101.647 15.6751 101.687 15.7284C101.767 15.7816 101.86 15.7683 101.953 15.6884L101.913 15.5687Z" fill="black"/>
<path d="M126.088 23.4994C126.367 22.6744 126.713 22.0224 127.125 21.5566C127.431 21.1974 127.644 20.7582 127.791 20.2393C127.844 20.1595 127.897 20.0264 127.95 19.8268C128.003 19.6405 128.043 19.4808 128.07 19.3744C128.376 18.3231 128.895 17.3651 129.64 16.4868L129.893 16.234C129.999 16.1009 130.079 15.9945 130.145 15.9413C130.398 15.6618 130.558 15.409 130.638 15.1562C130.944 14.3312 131.503 13.1735 132.327 11.6831C132.434 11.4969 132.7 10.938 133.112 10.0331C133.059 10.1396 133.139 9.91337 133.365 9.32788C133.591 8.80892 133.924 8.28997 134.403 7.79762C134.563 7.63794 134.669 7.41173 134.696 7.13229C134.696 6.77301 134.789 6.42704 134.988 6.09438C135.534 5.01654 136.079 3.85887 136.598 2.58144C136.784 2.1157 137.157 1.80965 137.716 1.67659C138.155 1.54352 138.567 1.49029 138.953 1.51691C139.259 1.54352 139.751 1.59675 140.443 1.67659C140.603 1.7032 140.723 1.74312 140.776 1.79635C140.962 1.9028 141.228 2.00925 141.561 2.08909C141.973 2.16893 142.239 2.23546 142.346 2.302C142.652 2.40845 142.944 2.46168 143.25 2.46168C143.796 2.40845 144.315 2.70119 144.781 3.3266C144.834 3.40644 144.94 3.59274 145.113 3.85887C145.22 4.11169 145.353 4.28468 145.486 4.39113C145.539 4.47097 145.539 4.60404 145.486 4.76372C145.432 4.84356 145.366 4.9367 145.273 5.05646C144.062 6.81293 142.944 9.19481 141.933 12.1888C141.854 12.3485 141.694 12.8275 141.481 13.586C141.148 14.7703 140.829 15.6352 140.536 16.1808C140.257 16.7263 140.097 17.3118 140.044 17.9106C140.017 18.3764 139.858 18.9752 139.552 19.6804C139.352 20.1728 139.259 20.7183 139.259 21.2905V21.8228C139.259 21.9825 139.193 22.1687 139.046 22.355C138.74 22.7143 138.567 22.9538 138.514 23.1002C138.408 23.4329 138.448 23.7256 138.634 23.9651C138.66 23.9918 138.7 24.0317 138.754 24.0849C138.807 24.1381 138.847 24.178 138.873 24.2047C138.98 24.3643 139.02 24.5506 138.993 24.7369C138.94 25.0164 138.887 25.2426 138.833 25.4422C138.78 25.5752 138.687 25.8148 138.541 26.1474C138.434 26.4269 138.354 26.6398 138.288 26.8127C138.008 27.6644 137.836 28.3829 137.756 28.9551C137.729 29.1813 137.676 29.5805 137.596 30.1527C137.516 30.6451 137.463 31.0309 137.436 31.3104C137.41 31.4434 137.357 31.6297 137.277 31.8426C137.17 32.1221 136.997 32.2818 136.784 32.335C136.625 32.3882 136.505 32.4281 136.452 32.4547C136.146 32.5612 136.026 32.7608 136.079 33.0269C136.186 33.6257 136.252 33.9318 136.292 33.9318C136.319 33.7987 136.252 34.0249 136.079 34.637C135.773 35.6883 135.587 36.7661 135.507 37.8971C135.507 38.0036 135.494 38.1899 135.467 38.4294C135.441 38.6689 135.414 38.8552 135.387 38.9617C135.361 39.4274 135.56 39.7202 136.013 39.8266C136.612 39.9597 137.144 40.1327 137.583 40.3189C137.889 40.4254 138.128 40.5984 138.328 40.8113C138.514 41.0375 138.82 41.4101 139.233 41.969C139.312 42.0488 139.339 42.1553 139.312 42.3016C139.286 42.4613 139.219 42.5678 139.113 42.5944C139.113 42.621 139.086 42.6343 139.033 42.6343C139.006 42.6609 138.98 42.6742 138.953 42.6742C138.514 42.9004 138.115 43.0202 137.756 43.0468C137.45 43.0468 137.09 43.1399 136.678 43.3395C136.372 43.4992 136.186 43.6589 136.106 43.792C135.92 44.1246 135.574 44.3508 135.068 44.4972C134.935 44.5504 134.869 44.6303 134.869 44.75C134.842 44.8831 134.895 45.0162 135.028 45.1226L135.321 45.2823C135.547 45.4154 135.627 45.6283 135.574 45.9077C135.574 46.0408 135.521 46.3202 135.414 46.7327C135.334 47.0654 135.281 47.3315 135.254 47.5577C135.201 48.1565 135.201 48.5957 135.254 48.8352C135.334 49.1678 135.294 49.5803 135.135 50.0727C135.055 50.2723 135.095 50.432 135.254 50.565C135.56 50.8179 135.707 51.1372 135.707 51.5497C135.68 51.8025 135.787 51.9888 136.039 52.1219C136.372 52.3215 136.478 52.6409 136.372 53.1066C135.986 54.4772 135.627 55.4619 135.294 56.034C135.015 56.4998 134.909 56.9655 134.962 57.4312C134.988 57.7107 134.948 58.0034 134.842 58.3361C134.682 58.7486 134.536 59.0813 134.43 59.3208C134.097 60.0926 133.884 60.8643 133.764 61.6361C133.658 62.2083 133.525 62.8204 133.392 63.4458C133.339 63.6321 133.232 63.845 133.059 64.0712C132.873 64.3773 132.567 64.5503 132.154 64.6035C132.048 64.6301 131.928 64.6035 131.822 64.5237C131.569 64.364 131.383 64.191 131.25 64.0313C131.276 64.0579 130.93 63.6321 130.212 62.7539C129.879 62.3414 129.786 61.9422 129.919 61.5563C129.999 61.37 130.026 61.0639 129.999 60.6514C129.999 60.1059 130.066 59.6135 130.212 59.201C130.265 58.9748 130.292 58.8018 130.292 58.6688C130.318 58.2562 130.465 57.7373 130.744 57.0986C130.957 56.5796 131.077 56.034 131.077 55.4885C131.05 54.7699 131.13 53.4792 131.33 51.6163C131.356 51.2304 131.449 50.8844 131.622 50.5783C131.755 50.2989 131.848 50.1392 131.875 50.086C132.341 49.2344 132.567 48.2896 132.54 47.2384C132.54 47.0521 132.487 46.8791 132.381 46.746C132.274 46.5597 132.261 46.3202 132.341 46.0408C132.5 45.4021 132.607 45.0561 132.633 44.963C132.66 44.8033 132.66 44.617 132.633 44.4307C132.58 44.1246 132.434 43.9383 132.181 43.8585C131.715 43.6988 131.25 43.5525 130.784 43.446C130.678 43.4194 130.491 43.3928 130.252 43.3662C129.999 43.3395 129.826 43.3129 129.72 43.2863C129.613 43.2597 129.015 43.1 127.95 42.794C127.618 42.6875 127.445 42.6343 127.418 42.6343C127.085 42.6077 126.074 42.4081 124.358 42.0621C124.278 42.0355 124.158 42.0222 123.985 42.0222C123.24 41.9157 122.682 42.1952 122.296 42.8871C122.243 43.0202 122.216 43.0734 122.216 43.0468C121.444 45.0561 121.032 46.267 120.979 46.6795C120.925 47.092 120.752 47.4912 120.486 47.8771C119.941 48.7287 119.382 49.8199 118.837 51.1372C118.73 51.39 118.65 51.5497 118.584 51.6296C117.865 52.9469 117.227 54.7433 116.641 56.9921C116.362 58.1764 116.056 59.1611 115.697 59.9595C115.59 60.2389 115.377 60.8111 115.071 61.6894C114.606 63.1132 113.768 64.3773 112.557 65.4418C112.397 65.5749 112.238 65.6946 112.104 65.7745C111.745 65.9075 111.399 66.0406 111.067 66.1471C110.841 66.2003 110.601 66.187 110.322 66.1071C110.135 66.0273 109.976 65.9475 109.869 65.8543C109.404 65.495 108.565 64.9894 107.355 64.3241C107.195 64.2176 107.102 64.0446 107.102 63.8317C107.102 63.5789 107.129 63.3527 107.182 63.1265C107.208 63.02 107.275 62.8337 107.381 62.5942C107.541 62.2881 107.86 61.6361 108.326 60.6115C108.685 59.7599 108.991 59.0813 109.231 58.5889C109.124 58.8151 109.31 58.376 109.803 57.2716C110.348 56.0074 110.734 55.1691 110.96 54.7566C111.319 53.9582 111.705 53.3461 112.118 52.8937L112.45 52.4413C112.583 52.255 112.677 52.0155 112.703 51.736V50.9908C112.703 50.6582 112.836 50.3255 113.116 50.0062C113.222 49.8731 113.515 49.5537 113.98 49.0614C114.34 48.6489 114.632 48.1166 114.845 47.4513C114.845 47.3714 114.859 47.2517 114.885 47.0787C114.992 46.3069 115.298 45.6549 115.79 45.096C116.255 44.5238 116.641 43.8319 116.947 43.0335C117.054 42.7008 117.107 42.3948 117.107 42.1286C117.107 41.9956 117.094 41.8625 117.067 41.7561C116.987 41.1573 117.147 40.5052 117.559 39.8133C117.746 39.4806 117.998 39.2278 118.304 39.0282C118.637 38.8153 118.903 38.4826 119.129 38.0435C119.515 37.2984 119.874 36.5931 120.207 35.9411C121.631 32.9205 122.495 31.1374 122.761 30.6184C123.147 29.8733 123.56 28.995 123.999 27.9837C124.278 27.3184 124.597 26.7329 124.983 26.214C125.063 26.1341 125.249 25.8813 125.515 25.4688H125.476C125.502 25.3623 125.742 24.6704 126.181 23.4063L126.088 23.4994ZM124.478 33.6923C124.478 33.6923 124.544 33.6257 124.518 33.5725C124.438 33.4394 124.371 33.4394 124.318 33.5725C124.291 33.5725 124.291 33.6257 124.318 33.7322L124.478 33.6923ZM128.323 28.4495L128.442 28.3696C127.977 29.5273 127.697 30.2059 127.618 30.3922C127.538 30.5519 127.485 30.7382 127.458 30.9245C127.352 31.5632 127.059 32.5612 126.593 33.9318C126.54 34.0116 126.181 34.9165 125.515 36.6596C125.356 37.0721 125.236 37.4846 125.183 37.8971C125.13 38.2564 125.263 38.5226 125.595 38.6822C125.755 38.7621 125.821 38.7887 125.755 38.7621C126.686 39.0681 127.218 39.2278 127.325 39.2544C128.921 39.5339 129.946 39.6669 130.425 39.6669C130.611 39.6669 130.917 39.7068 131.33 39.7867C131.848 39.8665 132.46 39.8266 133.139 39.6669L133.299 39.627C133.525 39.4939 133.658 39.3609 133.711 39.2544C133.844 38.8685 133.897 38.3762 133.871 37.7641C133.871 36.9923 133.937 35.9677 134.07 34.6636C134.23 33.1467 134.336 32.1088 134.363 31.5233C134.363 31.4168 134.39 31.2305 134.443 30.991C134.629 30.166 134.709 29.2612 134.656 28.2632C134.603 27.4382 134.629 26.7595 134.736 26.2406C134.869 25.6684 134.895 25.0563 134.815 24.4309C134.656 23.2732 134.656 22.049 134.815 20.7582C134.842 20.5054 134.829 20.2659 134.775 20.0131C134.696 19.6538 134.469 19.4941 134.11 19.5207C133.804 19.5473 133.605 19.6671 133.485 19.8933C133.405 20.053 133.299 20.3058 133.152 20.6385C132.993 20.9978 132.86 21.2373 132.78 21.3837C132.753 21.4635 132.673 21.5433 132.527 21.6365C132.5 21.6365 132.381 21.6498 132.154 21.6764C131.848 21.7296 131.622 21.9159 131.449 22.2087C131.343 22.395 131.183 22.6611 130.997 22.9938C130.771 23.4329 130.638 23.7123 130.585 23.8188C130.012 24.87 129.64 25.8281 129.467 26.7063C129.44 26.8127 129.414 26.9724 129.387 27.1587C129.387 27.3849 129.374 27.5313 129.347 27.6111C129.321 27.7176 129.254 27.8241 129.134 27.9039C128.828 28.1567 128.576 28.3164 128.349 28.3962L128.27 28.4362L128.323 28.4495ZM135.254 12.069C135.175 11.936 135.002 11.9626 134.762 12.1489C134.403 12.4549 134.137 12.7876 133.977 13.1336C133.844 13.4662 133.392 14.3312 132.62 15.7284C132.128 16.6066 131.755 17.4449 131.503 18.2433C131.369 18.6824 131.157 19.055 130.877 19.3611C130.744 19.5473 130.212 20.3857 129.307 21.8361C129.001 22.3018 128.842 22.8873 128.815 23.5659C128.815 23.6458 128.842 23.7522 128.895 23.8986C129.028 24.178 129.201 24.218 129.387 24.0184C129.547 23.8587 129.76 23.5526 130.012 23.1135C130.398 22.3683 131.236 20.7982 132.527 18.403C133.578 16.4735 134.416 14.93 135.042 13.7457C135.148 13.5328 135.241 13.3066 135.334 13.0803C135.441 12.8009 135.467 12.5614 135.414 12.3352C135.387 12.2287 135.334 12.1356 135.254 12.0424V12.069ZM131.409 16.234C131.409 16.234 131.396 16.2074 131.369 16.0743C131.29 15.7949 131.13 15.7417 130.917 15.9146C130.505 16.2207 130.345 16.6997 130.425 17.3651C130.451 17.4449 130.518 17.4981 130.624 17.5247C130.731 17.5514 130.811 17.5381 130.877 17.4848C131.21 17.2985 131.383 17.0324 131.409 16.6997V16.2473V16.234ZM134.336 18.2167C134.469 18.2699 134.616 18.2566 134.749 18.1768C134.882 18.0969 134.962 17.9772 134.962 17.8042C134.962 17.6711 134.948 17.5514 134.922 17.4715C134.815 17.1122 134.616 17.0457 134.35 17.2586C134.124 17.3917 134.017 17.5913 134.017 17.8308C133.991 17.9905 134.097 18.1235 134.35 18.2034L134.336 18.2167ZM137.596 24.0317C137.49 24.0051 137.396 24.045 137.303 24.1514C137.197 24.2579 137.21 24.351 137.343 24.4442C137.53 24.5772 137.676 24.5373 137.756 24.3244C137.782 24.1914 137.729 24.0849 137.596 24.0317Z" fill="black"/>
<path d="M148.466 52.1752C148.346 52.4679 148.32 52.7873 148.373 53.1465C148.466 53.7853 148.333 54.4772 147.974 55.2091C147.827 55.5284 147.708 55.7679 147.628 55.9143C147.308 56.4998 147.002 57.3514 146.71 58.4692C146.51 59.201 146.537 59.8531 146.803 60.3986C146.949 60.6914 147.029 61.0773 147.029 61.543C146.976 63.0067 146.976 63.9116 147.029 64.2709C147.029 64.4705 147.122 64.6434 147.295 64.7499C147.561 64.8963 147.814 65.0027 148.04 65.0559C148.24 65.1092 148.439 65.1491 148.612 65.1491C150.023 65.1491 151.06 65.1358 151.739 65.1092C151.938 65.1092 152.271 65.0693 152.71 64.9761C153.415 64.8031 154.001 64.537 154.466 64.191C154.639 64.0713 154.865 63.9249 155.132 63.7519C155.304 63.6321 155.477 63.6321 155.664 63.7519C156.489 64.2842 157.127 65.0826 157.593 66.1737C157.713 66.4664 157.846 66.9056 157.992 67.4911C158.085 67.837 158.005 68.1564 157.766 68.4092C157.18 68.9947 156.435 69.6201 155.517 70.2988C155.398 70.352 155.225 70.4318 154.985 70.525C153.748 70.9907 152.737 71.2435 151.952 71.2701H151.167C150.023 71.2435 149.051 70.9641 148.266 70.4318C147.881 70.1923 147.441 70.0858 146.949 70.0858C146.603 70.0592 146.217 70.0459 145.805 70.0459C145.486 70.0459 145.18 69.9528 144.887 69.7798C144.501 69.5403 144.155 69.2475 143.836 68.9016C143.49 68.489 143.078 67.9036 142.599 67.1451C142.306 66.706 142.12 66.2935 142.026 65.9076C141.88 65.1757 141.72 64.5503 141.548 64.018C141.135 62.7805 141.148 61.5031 141.587 60.1458C141.734 59.7067 141.814 59.4672 141.814 59.4406C142.133 58.7353 142.452 57.7373 142.785 56.4466C142.811 56.2071 142.931 55.7679 143.131 55.1292C143.277 54.5704 143.384 54.1312 143.437 53.8119C143.463 53.8119 143.557 53.6389 143.703 53.2796H143.663C143.716 52.4014 143.863 51.6562 144.102 51.0308C144.075 51.084 144.594 49.4473 145.685 46.1074C145.712 46.0541 145.738 45.961 145.778 45.8412C145.805 45.7215 145.832 45.615 145.872 45.5352C146.044 45.1227 146.271 44.8166 146.537 44.617C146.59 44.5904 146.696 44.5106 146.843 44.3908V44.2977L146.803 44.4307C146.51 43.9384 146.457 43.3662 146.63 42.7142C146.723 42.3682 146.816 41.8226 146.936 41.0908C147.056 40.3855 147.175 39.8399 147.282 39.4674C147.774 37.6444 148.053 36.6331 148.12 36.4335C148.24 35.9677 148.493 35.1028 148.865 33.8387C149.184 32.7209 149.45 31.8427 149.65 31.204C149.943 30.0862 150.076 29.6471 150.049 29.8866C150.076 29.7402 150.116 29.5539 150.182 29.3144C150.275 29.0483 150.329 28.862 150.355 28.7422C150.528 27.7176 150.648 26.9459 150.701 26.4136C150.794 25.562 150.954 24.6704 151.18 23.7257C151.273 23.4329 151.366 23.1269 151.486 22.8075C151.752 21.9825 151.899 21.3571 151.925 20.918C151.925 20.9446 152.085 20.1728 152.404 18.5893C152.697 17.1522 152.843 16.5268 152.843 16.6998C152.963 16.4336 153.069 15.8615 153.149 14.9832C153.176 14.8368 153.269 14.584 153.415 14.2381C153.468 14.0651 153.522 13.8655 153.548 13.6659V13.0937C153.548 12.455 153.748 11.5501 154.16 10.4058C154.253 10.1662 154.426 9.99325 154.692 9.87349C155.105 9.67389 155.517 9.47429 155.93 9.3013C156.196 9.20816 156.462 9.20816 156.728 9.3013C157.167 9.42106 157.473 9.54082 157.646 9.64728C158.671 10.286 159.229 10.632 159.322 10.6586C159.642 10.805 159.948 11.1243 160.24 11.63C160.44 12.0159 160.586 12.455 160.68 12.9473C160.706 13.1203 160.706 13.3199 160.68 13.5195C160.48 14.6639 160.347 15.3691 160.28 15.6352C159.934 16.926 159.575 18.1103 159.229 19.2014C158.963 19.9067 158.644 20.9047 158.258 22.1954C157.846 23.6059 157.54 24.6039 157.34 25.1894C157.22 25.5753 157.18 25.9612 157.207 26.3737C157.234 26.7596 157.114 27.1987 156.861 27.691C156.808 27.7842 156.768 27.8374 156.768 27.864C156.356 28.4495 156.196 29.1281 156.289 29.8866C156.316 30.1794 156.262 30.5652 156.116 31.031C156.089 31.1241 156.036 31.1774 155.983 31.204C155.89 31.2306 155.81 31.1774 155.717 31.031C155.597 30.7648 155.464 30.7382 155.318 30.9378C155.145 31.1108 155.025 31.2572 154.972 31.3769C154.852 31.5499 154.692 31.6697 154.493 31.7229C154.52 31.6963 154.386 31.7229 154.094 31.8161L154.227 31.6431C154.466 31.2971 154.493 30.9245 154.32 30.5386H154.28H154.373C154.2 30.7116 153.907 30.8447 153.495 30.9378V30.8979C153.468 31.0177 153.442 31.1374 153.402 31.2439C153.429 31.2173 153.415 31.204 153.362 31.204C153.535 31.3237 153.801 31.51 154.147 31.7761C154.267 31.9757 154.639 32.335 155.291 32.8274C155.531 33.0004 155.557 33.1733 155.384 33.3596C155.331 33.4129 155.238 33.506 155.118 33.6258C154.919 33.8254 154.812 33.9185 154.812 33.8919C154.573 34.1846 154.52 34.4774 154.639 34.7701C154.759 35.0895 154.772 35.3423 154.679 35.5153C154.36 36.2206 154.08 37.0855 153.841 38.1101C153.575 39.1613 153.282 40.1593 152.963 41.1041C152.723 41.7428 152.683 42.2484 152.83 42.5944C152.803 43.273 152.79 43.6456 152.79 43.7388C152.79 43.9783 152.683 44.138 152.484 44.2178C152.218 44.3376 151.978 44.3509 151.779 44.2577L151.38 44.0848C151.207 44.0581 151.034 44.1114 150.847 44.2577C150.608 44.4573 150.555 44.6969 150.674 44.963C150.674 44.9364 150.781 45.0961 150.98 45.442C151.1 45.6815 151.127 45.9211 151.074 46.1872C150.98 46.5065 150.941 46.7062 150.941 46.7594C150.887 46.8791 150.781 47.0787 150.635 47.3715C150.515 47.6376 150.435 47.8372 150.368 47.9836C150.169 48.4892 149.929 48.8618 149.663 49.1279C149.317 49.4739 149.091 49.953 148.998 50.5384L148.825 50.8844C148.652 50.7647 148.626 50.7647 148.732 50.8844L148.865 50.8445C148.626 51.6695 148.519 52.1086 148.519 52.1619L148.466 52.1752ZM146.311 67.9169L146.178 68.01L146.311 68.0499V67.9169ZM149.477 46.8126L149.61 46.8525C149.49 46.8525 149.437 46.8658 149.437 46.8924V46.9324L149.477 46.7993V46.8126ZM151.805 25.389C151.779 25.216 151.699 25.1894 151.579 25.2958C151.526 25.3491 151.526 25.4156 151.579 25.4688L151.712 25.562L151.805 25.389ZM151.938 27.1455C151.938 27.1455 151.952 27.039 151.898 27.0124C151.752 26.9192 151.672 26.9592 151.672 27.1055L151.805 27.1987L151.938 27.1588V27.1455ZM151.765 34.4907L151.672 34.5306V34.4375L151.712 34.5306L151.752 34.4907H151.765ZM152.91 29.8334C153.202 29.6338 153.575 29.5273 154.014 29.5273H154.413C154.559 29.5007 154.613 29.4076 154.586 29.2612C154.586 29.1681 154.559 29.1148 154.493 29.0882C154.293 28.9418 153.868 28.7955 153.216 28.6491C153.162 28.6225 153.043 28.6225 152.87 28.6491C152.431 28.7023 152.178 28.9019 152.125 29.2213C152.098 29.4608 152.178 29.687 152.391 29.9265L152.564 29.9665L152.91 29.8334ZM153.522 17.8708C153.429 17.751 153.349 17.751 153.256 17.8708C153.229 17.924 153.229 17.9905 153.256 18.0437C153.349 18.1369 153.442 18.1236 153.562 18.0038L153.522 17.8708ZM157.792 10.6586L157.753 10.7916L157.925 10.7517L157.792 10.6586Z" fill="black"/>
<path d="M185.067 9.40781C184.601 9.67394 183.976 10.1264 183.217 10.7651C183.018 10.9115 182.792 11.0578 182.552 11.2042C182.379 11.2973 182.206 11.2973 182.02 11.2042C181.993 11.2042 181.874 11.1377 181.674 10.978L181.714 10.9381L181.674 11.0312C181.288 11.2042 181.049 11.4171 180.929 11.6433H180.969C180.623 11.9893 180.237 12.1889 179.825 12.2155C179.772 12.2155 179.652 12.2554 179.479 12.3486C179.426 12.4018 179.372 12.455 179.346 12.4816C179.253 12.628 179.293 12.7345 179.439 12.7877C179.559 12.8409 179.678 12.9074 179.785 12.9607C179.984 13.107 179.984 13.3333 179.785 13.626L179.825 13.5861C179.439 14.1716 179.08 14.624 178.721 14.9434C178.574 15.1163 177.989 15.7284 176.964 16.793C176.352 17.4317 175.873 18.1369 175.554 18.9087C175.354 19.3212 175.235 19.5474 175.208 19.614C174.796 20.1728 174.436 21.0644 174.104 22.3019L174.064 22.4749C173.771 23.2334 173.785 24.0717 174.104 24.9765C174.516 26.2407 175.088 27.252 175.82 28.0104C176.698 28.9153 177.297 29.5008 177.616 29.7669C177.709 29.8601 178.042 30.1661 178.627 30.6851C179.705 31.7097 180.663 33.027 181.488 34.6371C181.687 35.0496 182.06 35.8081 182.592 36.9259C182.938 37.7109 183.151 38.536 183.204 39.3876C183.257 40.7315 183.297 42.1021 183.297 43.4727C183.271 44.7102 183.031 45.9078 182.592 47.0788C182.499 47.3183 182.353 47.6776 182.153 48.1832C181.98 48.649 181.847 49.0216 181.754 49.2877C181.554 49.7534 181.501 50.2058 181.621 50.645C181.714 50.8845 181.674 51.124 181.528 51.3901C181.062 52.3349 180.503 53.0535 179.851 53.5458C179.732 53.6389 179.545 53.7986 179.279 54.0248V53.9849C178.747 54.9297 178.415 55.4753 178.268 55.6615C178.069 55.9543 177.829 56.1805 177.563 56.3269C175.74 57.1785 174.809 57.6176 174.742 57.6442C173.798 58.0301 173.039 58.2164 172.454 58.2164C171.869 58.2164 171.297 58.3362 170.738 58.5624C170.645 58.589 170.538 58.6156 170.392 58.6555C170.219 58.7088 170.086 58.762 169.993 58.7886C169.461 58.9616 168.955 59.068 168.449 59.0946C168.25 59.0946 167.904 59.1479 167.438 59.2676C166.973 59.3874 166.6 59.4406 166.334 59.4406C166.281 59.4406 166.161 59.4672 165.988 59.5338C165.11 59.8797 164.152 59.933 163.128 59.6668C162.542 59.4938 162.09 59.4007 161.77 59.4007C161.824 59.4007 161.385 59.3076 160.453 59.1346C160.014 59.0414 159.735 58.8152 159.615 58.4293C159.562 58.2829 159.442 58.1233 159.269 57.9503C159.07 57.8039 158.883 57.8172 158.737 57.9902C158.71 58.0168 158.591 58.1632 158.391 58.4293H158.431L157.074 56.8059C156.834 56.6063 156.662 56.3269 156.542 55.9676C156.222 55.1426 156.05 54.6636 156.01 54.5172C155.89 54.1313 155.823 53.7454 155.783 53.3329C155.757 52.774 155.863 52.2817 156.089 51.8426C156.329 51.4567 156.422 51.2837 156.395 51.3103C157.34 49.9663 158.404 49.0349 159.602 48.5425C160.334 48.2498 161.079 48.0103 161.85 47.8373C162.968 47.5977 164.125 47.4913 165.323 47.4913H166.6C167.132 47.4647 167.558 47.4647 167.877 47.4913C170.219 47.5445 172.534 46.9324 174.822 45.6417C175.647 45.1759 176.312 44.5772 176.845 43.8453C177.044 43.5525 177.23 43.2864 177.377 43.0469C178.015 41.9025 178.295 40.7182 178.215 39.4807C178.162 38.4029 177.709 37.4847 176.898 36.7529C176.845 36.6996 176.672 36.5799 176.419 36.4069C176.126 36.1674 175.913 35.9146 175.807 35.6085C175.567 35.023 175.221 34.4907 174.756 34.025C174.729 33.9984 174.716 33.9718 174.716 33.9319C174.689 33.9053 174.663 33.8786 174.623 33.8387C173.572 32.721 172.308 31.071 170.844 28.8754C170.498 28.3431 170.272 27.8108 170.179 27.252C169.767 24.7902 169.607 22.7809 169.7 21.2241C169.753 20.2926 169.806 19.6938 169.833 19.4676C169.886 19.2015 169.94 18.8289 169.966 18.3232C170.019 17.3252 170.339 16.3272 170.884 15.3292C171.057 15.0099 171.15 14.8369 171.15 14.797C171.35 14.4776 171.762 13.8389 172.388 12.9074C172.88 12.109 173.279 11.4836 173.572 11.0179C173.891 10.5256 174.263 10.0598 174.676 9.66063C176.379 7.95739 178.029 6.58681 179.639 5.52228C179.984 5.28276 180.41 4.99002 180.916 4.64405C182.299 3.67267 183.816 2.76782 185.493 1.9162C186.437 1.45046 187.448 0.99804 188.526 0.558922C189.378 0.21295 190.256 0.0133513 191.16 -0.0132619C191.719 -0.0398751 192.198 0.119804 192.611 0.465776C193.196 0.904893 193.595 1.42385 193.795 2.00934C193.821 2.03595 193.861 2.1291 193.928 2.27547C193.954 2.39523 193.981 2.47507 194.021 2.5416C194.194 3.15371 194.141 3.65936 193.848 4.03194C193.555 4.44445 193.369 4.92349 193.276 5.48236C193.276 5.53559 193.236 5.65535 193.143 5.82833C192.97 6.09447 192.77 6.26745 192.571 6.3606C192.038 6.60012 191.613 6.7598 191.293 6.83964C190.029 7.13238 188.925 7.50497 187.954 7.94408C187.927 7.9707 187.675 8.06384 187.209 8.21022C187.089 8.09046 186.916 7.93078 186.677 7.73118L186.717 7.69126C186.717 7.69126 186.863 7.82432 187.249 8.1703C185.905 8.92877 185.173 9.34128 185.054 9.40781H185.067ZM162.023 54.3974C161.97 54.6636 162.05 54.7966 162.289 54.7966C162.436 54.7966 162.529 54.7301 162.555 54.5704C162.609 54.3309 162.529 54.1978 162.289 54.1712C162.143 54.1712 162.05 54.251 162.023 54.3974ZM165.23 57.8305C165.23 57.8305 165.11 57.8172 165.057 57.8704C164.91 58.0168 164.937 58.11 165.15 58.1366L165.283 58.0035L165.243 57.8305H165.23ZM174.955 16.274V16.3139L174.995 16.3539L174.955 16.2607V16.274ZM177.377 9.90015C177.324 9.80701 177.27 9.76709 177.244 9.76709C177.097 9.76709 177.044 9.84693 177.071 9.9933C177.071 10.1663 177.137 10.2461 177.297 10.2195L177.39 10.0864V9.91346L177.377 9.90015ZM179.652 7.1723L179.519 7.21222L179.559 7.34529L179.692 7.30537L179.652 7.1723ZM180.583 8.88885C180.61 9.27474 180.65 9.63402 180.716 9.9933C180.743 10.1929 180.849 10.2328 181.022 10.0864C181.514 9.70055 181.568 9.26144 181.155 8.76909C181.102 8.67595 180.996 8.63603 180.849 8.63603C180.676 8.68925 180.583 8.7824 180.583 8.90216V8.88885ZM181.674 7.5715C181.674 7.5715 181.634 7.46505 181.541 7.43843C181.395 7.34529 181.288 7.38521 181.235 7.53158C181.182 7.65134 181.235 7.73118 181.408 7.79771C181.554 7.82432 181.648 7.75779 181.674 7.5715ZM183.084 9.28805C182.938 9.31466 182.911 9.40781 182.991 9.55418C183.018 9.5808 183.058 9.5808 183.124 9.55418L183.164 9.42112L183.071 9.28805H183.084Z" fill="black"/>
<path d="M187.408 51.6694C187.648 51.696 187.781 51.7093 187.808 51.7093C188.393 51.8025 188.699 51.5629 188.726 51.0041C188.726 51.0573 188.726 50.6714 188.726 49.8198C188.752 48.9682 188.766 48.3294 188.766 47.8903C188.766 47.4246 188.859 46.9855 189.032 46.573C189.178 46.1605 189.271 45.8411 189.298 45.6016C189.324 45.3621 189.391 45.1891 189.471 45.0693C189.59 44.9496 189.697 44.75 189.777 44.4572C189.896 44.1911 190.016 44.0048 190.123 43.885C190.362 43.2463 190.482 42.8737 190.522 42.7806C190.615 42.5145 190.748 42.3015 190.921 42.1153L190.881 42.0753C191.027 42.5411 191.014 42.9669 190.841 43.3528C190.841 43.406 190.854 43.4725 190.881 43.5258C190.974 43.6455 191.067 43.6854 191.187 43.6588C191.28 43.6322 191.387 43.5657 191.533 43.4858C191.799 43.3661 192.105 43.3262 192.451 43.3528H192.624L192.398 43.3927V42.9935C192.424 42.754 192.544 42.6076 192.744 42.5544C193.036 42.4346 193.143 42.2483 193.05 41.9822V41.756C193.023 41.4632 193.116 41.2503 193.356 41.0906C193.622 40.9443 193.768 40.6781 193.795 40.3056C193.821 40.066 193.741 39.9197 193.529 39.8664C193.382 39.8132 193.262 39.8265 193.183 39.9064L192.917 40.1725C192.744 40.3455 192.571 40.412 192.384 40.3455C191.945 40.1725 191.44 40.239 190.894 40.5717C190.947 40.5451 190.814 40.6781 190.495 40.9709C190.402 41.0906 190.296 41.104 190.149 41.0108C190.096 40.9576 190.056 40.891 190.056 40.8378C190.003 40.3056 190.176 39.933 190.588 39.6935L190.548 39.7334L190.681 39.3874C190.775 39.241 190.801 39.1213 190.775 39.0414C190.655 38.7487 190.641 38.4293 190.735 38.07C191.2 36.3136 191.772 34.6636 192.451 33.1466C192.571 32.9071 192.637 32.7341 192.677 32.6143C192.73 32.2285 193.023 31.5099 193.555 30.4587C194.087 30.7248 194.367 30.8712 194.393 30.8978C194.593 30.9909 194.686 30.9377 194.659 30.7647C194.633 30.7115 194.566 30.6716 194.486 30.6716C194.393 30.645 194.087 30.5651 193.568 30.4454C193.223 30.3256 193.05 30.0994 193.09 29.7401C193.09 28.9151 193.276 28.1566 193.662 27.4514C193.635 27.478 193.994 26.8659 194.766 25.6018C195.112 24.963 195.577 24.5239 196.123 24.2844C196.362 24.1647 196.549 23.9784 196.695 23.7122C197.4 22.4215 197.866 21.5699 198.105 21.1574C198.225 20.9178 198.278 20.7316 198.278 20.5852C198.252 20.3457 198.385 19.8533 198.677 19.0948C198.771 18.8287 198.917 18.6291 199.116 18.4827C199.502 18.2432 199.715 18.0968 199.782 18.0436C199.848 17.9904 199.955 17.844 200.128 17.6045C200.128 17.5779 200.154 17.5114 200.221 17.4315C200.487 16.5799 201.032 15.8081 201.844 15.1029C202.815 14.2512 204.239 13.6258 206.115 13.2133C207.285 13.1202 208.177 13.1734 208.802 13.3464C210.04 13.6924 211.064 14.1315 211.876 14.6637C212.461 15.0762 213.02 15.3956 213.552 15.6351C214.457 16.0476 215.015 16.8061 215.228 17.9239C215.494 19.3876 215.627 20.4255 215.627 21.0509C215.654 21.7562 215.761 22.3949 215.933 22.9804C216.027 23.2731 216.053 23.5925 216.027 23.9517C215.973 25.8014 215.907 27.2917 215.854 28.4361C215.827 28.9417 215.734 29.4474 215.588 29.9796C215.415 30.6849 215.175 31.8958 214.882 33.6256C214.443 36.3269 213.924 38.4825 213.339 40.0926C212.834 41.41 212.394 42.7939 212.022 44.231C211.995 44.3774 211.889 44.6834 211.716 45.1492C211.57 45.535 211.476 45.8411 211.45 46.0673C211.33 46.6528 211.024 47.1318 210.532 47.5177C210.412 47.6109 210.372 47.7173 210.399 47.8637C210.519 48.2496 210.505 48.5556 210.359 48.7819C210.332 48.8351 210.199 49.1278 209.96 49.6601L209.614 50.3653C209.228 51.0972 208.749 51.4831 208.164 51.5097C208.017 51.5363 207.924 51.6295 207.898 51.7758C207.871 51.9222 207.858 52.0553 207.858 52.175C207.911 52.4678 207.818 52.7738 207.552 53.0932C207.259 53.4392 206.807 53.9049 206.195 54.4505C205.29 55.3021 204.904 55.6481 205.05 55.5017C204.412 56.1138 203.627 56.6061 202.722 56.9521C201.192 57.5908 199.901 58.0433 198.85 58.2695C198.651 58.2961 198.385 58.3227 198.065 58.3626C197.866 58.3626 197.68 58.3094 197.533 58.1896C197.44 58.1364 197.307 58.0299 197.134 57.8836C196.988 57.7372 196.855 57.6307 196.735 57.5775C196.535 57.4045 196.296 57.3912 196.03 57.5376C195.977 57.5908 195.883 57.6574 195.764 57.7106C195.671 57.8037 195.604 57.857 195.538 57.8836C195.072 58.1763 194.633 58.2029 194.22 57.9767C193.755 57.7106 192.97 57.3646 191.892 56.9255C191.772 56.8989 191.599 56.819 191.36 56.6993C191.12 56.5795 190.947 56.513 190.828 56.4731C190.588 56.3799 190.402 56.3533 190.256 56.3799C189.79 56.4731 189.338 56.2602 188.899 55.7678C188.726 55.5682 188.672 55.3287 188.766 55.0626C188.792 54.9162 188.819 54.7964 188.859 54.7166C188.885 54.4505 188.832 54.2775 188.686 54.1843C188.366 53.9448 188.154 53.6255 188.074 53.213C187.954 52.6541 187.741 52.1085 187.408 51.5896L187.448 51.6295L187.408 51.6694ZM191.985 44.9895C191.985 44.9895 191.892 44.9363 191.812 44.9895L191.852 45.1625C192.025 45.1891 192.078 45.1359 191.985 44.9895ZM193.302 44.3242V44.3641L193.342 44.404L193.302 44.3108V44.3242ZM202.762 48.5024H202.589C202.908 47.6774 203.268 47.1451 203.64 46.879C203.76 46.7859 203.919 46.5863 204.119 46.2669C204.971 45.0028 205.41 44.3641 205.436 44.3375C205.489 44.2443 205.543 44.1379 205.569 43.9915C205.622 43.406 205.835 42.7939 206.181 42.1419C207.059 40.5052 207.711 38.5757 208.11 36.3801C208.204 36.0874 208.27 35.6749 208.337 35.1426C208.43 34.5039 208.483 34.0781 208.51 33.8652C208.682 33.1067 208.776 32.1885 208.776 31.1373C208.749 29.2611 208.816 27.3715 209.002 25.4687C209.028 25.176 209.028 24.9098 209.002 24.6703C208.909 23.8852 208.816 23.1001 208.696 22.3417C208.643 21.9957 208.51 21.7029 208.297 21.4634C208.204 21.3703 208.097 21.3437 207.951 21.3703C207.804 21.3969 207.751 21.4102 207.778 21.4102C206.993 21.7295 206.367 22.1953 205.928 22.8207C205.755 23.0868 205.303 23.7255 204.571 24.7501C204.013 25.5086 203.574 26.1473 203.254 26.6397C203.081 26.9058 202.815 27.2784 202.456 27.784C202.07 28.2764 201.817 28.649 201.671 28.8885C201.644 28.9151 201.099 29.6603 200.048 31.1373L200.088 31.0974C199.529 32.2418 199.21 32.8672 199.116 32.9869C199.023 33.0801 198.957 33.3063 198.89 33.6922C198.797 34.0781 198.664 34.424 198.491 34.7434L197.573 36.42C197.573 36.42 197.453 36.5132 197.307 36.5132C197.187 36.5132 197.121 36.4733 197.081 36.3801C197.054 36.3535 196.974 36.1805 196.855 35.8478L196.948 35.7148C197.001 35.595 196.974 35.4886 196.855 35.4087C196.908 33.7321 196.921 32.9736 196.895 33.12L196.935 33.1599C196.495 33.1067 196.256 33.0668 196.229 33.0668C195.99 33.0668 195.764 32.9869 195.524 32.8406C195.112 32.7873 194.859 32.7474 194.779 32.7474C194.726 32.7474 194.686 32.774 194.686 32.8406C194.659 32.8938 194.673 32.9603 194.726 33.0135C194.753 33.0668 194.793 33.1067 194.859 33.1067C194.979 33.1067 195.205 33.0002 195.564 32.8006C195.444 33.6523 195.484 34.3575 195.697 34.9164L195.737 35.2624C195.764 35.5019 195.724 35.6749 195.604 35.7946C194.58 36.8192 194.074 37.3249 194.114 37.285L193.941 37.591C193.768 37.764 193.741 37.8704 193.848 37.8971C193.941 37.8971 193.994 37.7906 194.021 37.591L194.061 37.245C194.447 37.4846 194.952 37.8838 195.604 38.4826C195.777 38.6289 195.897 38.7753 195.95 38.9217C196.003 39.0148 196.15 39.3741 196.389 40.0261C196.269 41.4366 196.163 42.1818 196.083 42.2749C195.99 42.3681 195.95 42.5011 195.95 42.6741C195.977 42.9935 195.91 43.6455 195.724 44.6036C195.75 44.3641 195.671 44.883 195.458 46.1472C195.431 46.3867 195.444 46.706 195.498 47.1185C195.591 47.6242 195.75 48.0367 195.977 48.396C196.323 48.8883 196.416 49.4472 196.243 50.0726C196.189 50.2456 196.123 50.4984 196.07 50.8178C196.043 50.9109 196.03 51.044 196.03 51.217C196.003 51.5629 196.123 51.8424 196.376 52.0553C196.575 52.2283 196.841 52.2948 197.161 52.2283C197.839 52.0553 198.358 51.8158 198.744 51.523C198.797 51.4698 199.023 51.3234 199.409 51.0839C200.354 50.4452 201.086 49.7932 201.604 49.1544C201.844 48.8617 202.163 48.6621 202.576 48.5423C202.722 48.396 202.762 48.396 202.709 48.5423L202.762 48.5024ZM193.914 42.9669C193.914 42.9669 193.821 42.9935 193.821 43.06C193.768 43.2064 193.808 43.2995 193.954 43.3262C194.101 43.3528 194.18 43.2995 194.18 43.1532C194.154 43.0068 194.061 42.9536 193.914 42.9802V42.9669ZM196.123 28.4095L195.99 28.3695C195.844 28.0768 195.75 27.9171 195.724 27.8905C195.671 27.7974 195.564 27.7308 195.418 27.6643C195.152 27.5445 195.005 27.6244 194.979 27.8905C194.952 28.0635 194.992 28.1832 195.112 28.2365C195.232 28.2897 195.351 28.3429 195.458 28.3695C195.511 28.3695 195.711 28.3828 196.03 28.4095H196.123ZM196.868 24.4441C196.748 24.6171 196.775 24.7901 196.961 24.9764C197.054 25.0695 197.161 25.0961 197.307 25.0695C197.573 24.9764 197.653 24.83 197.573 24.6304C197.547 24.6038 197.453 24.4308 197.307 24.0981L197.573 23.832L197.44 23.7921L197.347 24.138C197.147 24.1913 196.974 24.2977 196.868 24.4441ZM198.797 21.5033C198.704 21.5033 198.611 21.5566 198.491 21.6763C198.371 21.7695 198.345 21.8759 198.398 22.0223C198.518 22.1687 198.598 22.2485 198.664 22.2485C199.05 22.3017 199.343 22.2352 199.542 22.0223V21.8493C199.343 21.5566 199.09 21.4368 198.797 21.5033ZM199.862 24.0981L199.901 23.9251L199.768 23.8852C199.768 23.8852 199.715 23.9651 199.675 24.0183C199.728 24.0449 199.795 24.0715 199.848 24.1114L199.862 24.0981ZM201.751 23.2997H201.884L201.791 23.1667L201.751 23.2997ZM202.323 50.1258C202.443 50.0061 202.469 49.8863 202.416 49.7799C202.323 49.6335 202.23 49.6069 202.11 49.6867C201.964 49.7399 201.937 49.8464 202.017 49.9928L202.15 50.1258H202.323ZM202.403 25.0562C202.403 25.0562 202.496 25.0296 202.496 24.963C202.522 24.7901 202.469 24.7102 202.323 24.7368L202.19 24.8699C202.19 25.0163 202.256 25.0695 202.416 25.0429L202.403 25.0562ZM206.234 47.704C206.234 47.4645 206.115 47.3181 205.889 47.2649C205.795 47.2383 205.742 47.2383 205.716 47.2649C205.33 47.4113 205.01 47.6109 204.744 47.877C204.545 48.05 204.478 48.2895 204.571 48.5823C204.664 48.875 204.837 49.0347 205.104 49.0613C205.25 49.0879 205.383 49.0613 205.503 48.9682C205.849 48.6754 206.101 48.3028 206.248 47.8637V47.6907L206.234 47.704ZM207.379 47.1851C207.432 47.3847 207.379 47.704 207.206 48.1032V48.2762C207.206 48.569 207.379 48.7286 207.738 48.7552C207.884 48.7819 207.991 48.7419 208.044 48.6222C208.217 48.3028 208.323 47.9302 208.35 47.5177C208.376 47.1984 208.297 46.9056 208.084 46.6395C207.937 46.4 207.778 46.3467 207.605 46.4665C207.458 46.5597 207.379 46.6528 207.379 46.7726V47.1718V47.1851ZM209.175 19.6936C209.028 19.667 208.909 19.7202 208.829 19.8666C208.709 20.1061 208.816 20.2126 209.135 20.2126C209.281 20.2126 209.361 20.1328 209.361 19.9864C209.361 19.84 209.308 19.7336 209.188 19.6803L209.175 19.6936ZM209.401 47.7572C209.428 47.5843 209.374 47.4911 209.228 47.4911C209.135 47.4911 209.095 47.531 209.095 47.6242C209.042 47.7706 209.095 47.8504 209.268 47.8504L209.401 47.7572ZM209.441 42.4346C209.388 42.235 209.334 42.0354 209.308 41.8624C209.361 41.7161 209.414 41.7294 209.441 41.9023H209.308C209.428 42.0221 209.467 42.1818 209.441 42.3814V42.4213V42.4346ZM210.585 38.1632C210.585 38.1632 210.492 38.243 210.492 38.2963C210.492 38.4426 210.558 38.4959 210.718 38.4692L210.851 38.3362C210.851 38.1898 210.758 38.1366 210.585 38.1632Z" fill="black"/>
</g>
<defs>
<clipPath id="clip0_590_399">
<rect width="216" height="73" fill="white"/>
</clipPath>
</defs>
</svg>
