<?xml version="1.0" encoding="UTF-8"?>
<svg id="Layer_2" data-name="Layer 2" xmlns="http://www.w3.org/2000/svg" viewBox="0 0 798.21 143.78">
  <g id="Layer_2-2" data-name="Layer 2">
    <g>
      <path d="M26.44,87.27c-1.2,2.91-2.24,5.66-3.13,8.25-.63,1.77-1.33,3.6-2.08,5.5-.19.44-.44,1.01-.76,1.71-.38.82-.63,1.42-.76,1.8-.19.32-.41.82-.66,1.52-.25.76-.44,1.3-.57,1.61.13-.25-.32.76-1.33,3.03-.38.89-.85,1.58-1.42,2.08-.19.19-.28.44-.28.76-.06.89-.06,1.61,0,2.18.13,1.45-.19,2.94-.95,4.45h-.09.19c-.32.82-.95,1.49-1.9,1.99v-.09l.38.76c.19.51.25.92.19,1.23-.13.63-.25,1.2-.38,1.71-.95,2.97-1.61,5.4-1.99,7.3-.13.7-.41,1.45-.85,2.27-.82,1.39-1.2,1.99-1.14,1.8-.63,1.39-1.58,2.59-2.84,3.6-2.21,1.9-3.16,2.72-2.84,2.46-.38.25-.76.44-1.14.57-.32.06-.57-.03-.76-.28-.38-.7-.79-1.74-1.23-3.13-.06-.44-.09-.85-.09-1.23.19-1.71.5-3.06.95-4.08.32-.95.82-2.43,1.52-4.45.5-1.45.82-2.53.95-3.22.06-.44.38-1.52.95-3.22,1.07-3.35,1.83-6.19,2.27-8.53.32-1.45.79-2.59,1.42-3.41.06-.13.09-.28.09-.47,0-.06-.03-.19-.09-.38-.13-.63-.09-1.33.09-2.08,1.26-4.86,2.05-7.99,2.37-9.38.25-1.14.82-2.05,1.71-2.75.13-.06.22-.16.28-.28.06-.44.09-.73.09-.85-.63-1.01-.73-2.05-.28-3.13.13-1.45.69-2.87,1.71-4.26l-.19.19.19-.19c-.06-.57,0-1.1.19-1.61.63-1.39,1.1-2.84,1.42-4.36.25-1.07.38-1.93.38-2.56.13-1.45.38-2.81.76-4.08.25-.82.63-2.18,1.14-4.08.51-1.77.92-3.13,1.23-4.08.19-.76.47-1.39.85-1.9.25-.44.38-.82.38-1.14,0-1.01.25-2.68.76-5.02,1.01-4.61,1.61-7.2,1.8-7.77.19-.69.6-2.78,1.23-6.26.13-.88.38-2.27.76-4.17.32-1.77.57-3.16.76-4.17,0-.13.16-.66.47-1.61.13-.38.38-.69.76-.95.63-.38.79-.85.47-1.42-.44-.82-.66-1.74-.66-2.75,0-.13.13-1.26.38-3.41.06-.19.13-.76.19-1.71,0-.69-.38-1.07-1.14-1.14h-.85c-.63.13-1.17.28-1.61.47-1.14.38-2.65.57-4.55.57-.44,0-.85-.06-1.23-.19-.76-.19-1.58-.44-2.46-.76-.13-.06-.38-.19-.76-.38-.32-.19-.57-.28-.76-.28-1.83-.5-4.68-2.05-8.53-4.64-.57-.38-1.2-.92-1.9-1.61-1.08-1.14-1.36-2.43-.85-3.89.13-.44.32-.82.57-1.14,1.07-1.2,2.31-2.12,3.7-2.75,3.09-1.45,6.29-2.53,9.57-3.22.95-.25,1.61-.44,1.99-.57.63-.19,1.61-.38,2.94-.57.88-.13,1.42-.25,1.61-.38.95-.38,2.75-.73,5.4-1.04,2.27-.25,3.66-.44,4.17-.57,2.72-.63,5.78-.76,9.19-.38.5,0,1.07.06,1.71.19.44.06,1.01.03,1.71-.09,1.58-.32,2.81-.5,3.7-.57,2.15-.25,3.95-.13,5.4.38,1.96.7,4.04.7,6.26,0,.88-.25,1.58-.41,2.08-.47,1.9-.19,4.9-.85,9-1.99,2.02-.5,3.98-.66,5.88-.47,2.27.25,3.54.41,3.79.47,1.07.13,1.52.76,1.33,1.9-.13.63-.19.92-.19.85-.7,2.65-1.58,5.59-2.65,8.81-.19.7-.6,1.23-1.23,1.61-2.15,1.39-4.17,2.4-6.07,3.03-.44.19-1.04.41-1.8.66-.82.32-1.39.54-1.71.66-.89.32-1.42.47-1.61.47-.82.13-2.75.63-5.78,1.52-2.21.63-5.69,1.74-10.43,3.32-.7.19-1.74.57-3.13,1.14-1.45.51-2.53.89-3.22,1.14-.13,0-.32.06-.57.19-.25.13-.44.22-.57.28-.95.32-1.58,1.01-1.9,2.08-.13.57-.19.98-.19,1.23-.25,2.02-.63,5.69-1.14,10.99-.44,4.8-1.42,9.45-2.94,13.93-.25.63-.44,1.01-.57,1.14-.51.7-.82,1.61-.95,2.75-.06.63-.28,1.3-.66,1.99-.19.25-.25.51-.19.76.06.63-.09,1.61-.47,2.94-1.39,4.36-2.18,7.05-2.37,8.06-.13.82-.6,1.49-1.42,1.99-1.39.89-2.08,1.36-2.08,1.42-.19.19-.25.44-.19.76.06.32.35.79.85,1.42.38.57.44,1.23.19,1.99-.32,1.01-.7,1.77-1.14,2.27v-.09c-.13.7-.82,2.53-2.08,5.5ZM7.3,130.96l-.19.09c-.32-.38-.41-.57-.28-.57.19.32.31.51.38.57l.09-.09ZM10.9,110.78c-.25-.32-.51-.32-.76,0-.06.13-.06.22,0,.28.19.32.41.35.66.09l.09-.38ZM10.62,120.25l-.28.28c0,.06-.03.19-.09.38.13-.32.22-.54.28-.66h.1ZM13.65,113.9c-.06-.38-.38-.54-.95-.47-.32,0-.51.13-.57.38-.19.44-.06.76.38.95h.38c.57-.06.82-.35.76-.85ZM20.38,93.24c-.19.19-.19.41,0,.66.13.25.35.32.66.19.25-.13.41-.32.47-.57,0-.25-.16-.47-.47-.66-.25,0-.47.13-.66.38ZM21.7,8.32c-.19-.25-.44-.38-.76-.38-.25.06-.25.19,0,.38.19.13.44.09.76-.09.06,1.01.19,1.8.38,2.37h-.09c.06-.19-.03-.95-.28-2.27ZM20.95,90.02l-.09.28.28.09c.19-.32.13-.44-.19-.38ZM21.14,76.85v.19l.28-.09-.28-.09ZM22.65,69.45c-.06-.13-.16-.19-.28-.19-.32-.06-.47.06-.47.38.06.38.25.54.57.47.32-.13.38-.35.19-.66ZM24.36,63.86c-.25-.25-.47-.22-.66.09-.13.13-.22.38-.28.76,0,.13.06.22.19.28.25.25.47.25.66,0,.06-.06.16-.35.28-.85l-.19-.28ZM26.06,72.87l-.19-.19.19.09v.09ZM28.05,60.54c-.13.06-.19.16-.19.28-.06.32.06.51.38.57.32,0,.44-.19.38-.57-.06-.32-.25-.41-.57-.28ZM30.9,67.37c-.38.06-.76.13-1.14.19l.09-.09c.13.13.38.47.76,1.04v.85c.06.38.25.41.57.09.13-.13.13-.22,0-.28.25.25.06.03-.57-.66.06-.25.13-.66.19-1.23l.09.09ZM31.09,59.69l.19.09-.28-.09h.1ZM36.77,34.95h-.28c-.32-.06-.32-.13,0-.19,0,.06.03.13.09.19.44-.32.51-.32.19,0ZM53.83,18.37v.38c.13.06.22.03.28-.09v-.28h-.28Z"/>
      <path d="M107.1,70.69c.32.25.54.6.66,1.04.25.89.32,1.71.19,2.46-.13.82-.57,1.52-1.33,2.09-.25.13-.82.19-1.71.19-.7,0-1.01.35-.95,1.04.13.82-.25,1.52-1.14,2.08-.95.57-2.24,1.11-3.89,1.61-.25.13-1.86.6-4.83,1.42l-.38.19c-.7,0-1.96.16-3.79.47-1.58.25-2.84.41-3.79.47-.63,0-3.7.28-9.19.85-1.14.13-2.21.76-3.22,1.9-.13.19-.25.44-.38.76-.13.32-.19.6-.19.85-.06,1.14-.44,2.62-1.14,4.45-.89,2.27-1.39,3.6-1.52,3.98-.13.63-.38,1.42-.76,2.37.06-.19-.51.44-1.71,1.9-.7.89-.85,1.8-.47,2.75l.09.38c.25.57.16,1.08-.28,1.52-.63.7-.98,1.3-1.04,1.8-.06.44-.13.7-.19.76-.51.76-1.2,2.91-2.08,6.44-.51,2.21.35,3.98,2.56,5.31,1.2.76,2.62,1.26,4.27,1.52,1.26.25,2.97.47,5.12.66,1.64.13,3.32.13,5.02,0,.82-.06,2.5-.25,5.02-.57,1.01-.13,1.61-.66,1.8-1.61.06-.19.13-.47.19-.85-.06.19-.03-.06.09-.76.06-.63.32-1.14.76-1.52.44-.32,1.1-.82,1.99-1.52.44-.32.98-.47,1.61-.47,1.01-.06,1.74.25,2.18.95.57.82,1.17,1.77,1.8,2.84.57.95,1.17,2.05,1.8,3.32.38.7.54,1.52.47,2.46-.06,1.26-.35,2.78-.85,4.55-.32,1.01-.89,1.8-1.71,2.37-2.02,1.52-4.58,2.62-7.68,3.32-.82.19-1.52.25-2.08.19-.89-.06-1.68.13-2.37.57-.32.13-.73.16-1.23.09-.44,0-1.58.03-3.41.09-3.67.06-6.48-.16-8.44-.66-2.27-.25-5.28-.92-9-1.99-1.83-.57-3.41-1.17-4.74-1.8-.82-.44-1.49-.98-1.99-1.61-.25-.38-.41-.6-.47-.66-.57-1.01-1.67-2.46-3.32-4.36-2.15-2.4-2.84-5.15-2.08-8.25,1.33-5.24,2.78-9.67,4.36-13.27.44-1.01,1.27-2.94,2.46-5.78.25-.63.44-1.17.57-1.61.63-2.72,3.28-11.31,7.96-25.78.38-1.33,1.04-3.41,1.99-6.26.95-2.65,1.64-4.74,2.09-6.26.06-.06.69-2.37,1.9-6.92h.09l-.19.09c3.16-11.88,4.64-17.47,4.45-16.78,0-.06.03-.19.09-.38.25-1.2.13-2.31-.38-3.32-.25-.38-.22-.76.09-1.14,1.26-1.64,1.86-2.43,1.8-2.37-.06.13.25-1.07.95-3.6,0-.06.13-.92.38-2.56.13-.76.38-1.55.76-2.37.19-.32.47-.63.85-.95.38-.32.73-.57,1.04-.76,1.64-.82,3.98-1.74,7.01-2.75.69-.19,1.39-.13,2.08.19,1.01.44,1.8,1.04,2.37,1.8.88,1.2,1.42,2.31,1.61,3.32.06.76.57,1.17,1.52,1.23.88.06,1.45.09,1.71.09h5.88c9.48.06,14.12.09,13.93.09,1.14,0,2.97.22,5.5.66.82.13,2.02.47,3.6,1.04.32.13.69.35,1.14.66,1.96,1.33,2.53,3.16,1.71,5.5-.13.44-.41,1.01-.85,1.71-.44.76-.73,1.33-.85,1.71-.13.38-.54.79-1.23,1.23-1.26.82-2.65,1.49-4.17,1.99-2.02.76-3.79,1.11-5.31,1.04-.57-.06-1.36-.09-2.37-.09-1.2,0-1.96-.03-2.27-.09-1.14,0-1.83-.09-2.09-.28.13.13-.28-.22-1.23-1.04-.51-.5-1.01-.54-1.52-.09-.63.51-1.26.6-1.9.28-.44-.32-.98-.28-1.61.09-.7.38-1.36.54-1.99.47-3.1-.13-5.18-.35-6.26-.66-1.26-.25-2.53-.32-3.79-.19-.57.06-1.01.38-1.33.95-.25.44-.44.82-.57,1.14-1.26,3.73-2.09,6.13-2.46,7.2-.63,2.21-1.3,4.04-1.99,5.5-.82,1.9-1.45,3.76-1.9,5.59-.82,3.54-1.3,5.59-1.42,6.16-.25,1.52-.7,3.16-1.33,4.93-.19.7-.7,2.43-1.52,5.21-.13.32-.03.63.28.95.32.32.63.44.95.38.63-.13.92-.16.85-.09.95-.25,1.74-.47,2.37-.66,3.35-.95,6.92-1.74,10.71-2.37,1.26-.19,2.78-.47,4.55-.85.88-.25,1.55-.79,1.99-1.61.25-.44.5-1.07.76-1.9.44-1.14,1.42-1.83,2.94-2.08.38-.06.79.03,1.23.28.76.38,1.23,1.04,1.42,1.99.06.13.13.7.19,1.71.06.82.13,1.52.19,2.08,0,.38-.09.76-.28,1.14.13-.19-.03.06-.47.76-.38.13-.63.22-.76.28-.57.13-.98.47-1.23,1.04l-.09.19c0,.06-.03.13-.09.19l-.09.38c-.19.38-.06.73.38,1.04.44.25.85.28,1.23.09.5-.25.79-.69.85-1.33,0,.06-.09-.6-.28-1.99.44.25.69.38.76.38ZM57.81,98.74v-.09c-.19.06-.32.09-.38.09l.1.28c.38-.06.47-.09.28-.09v-.19ZM59.99,101.68l.28.09c.06.51.1.79.1.85.06.13.16.19.28.19.38.06.54-.09.47-.47,0-.19-.06-.28-.19-.28-.06-.06-.32-.16-.76-.28l-.19-.09ZM78.29,57.51l.28-.1-.28-.19v.28ZM97.9,74.86c.06.13-.06.16-.38.09v-.38c.19-.13.22,0,.1.38l.28-.09ZM99.89,24.25c-.57-.38-1.08-.38-1.52,0-.32.19-.32.41,0,.66.38.32.88.22,1.52-.28v-.38ZM98.57,76.85l-.19-.19v.28l.19-.09ZM101.32,69.55c-.38-.06-.51.06-.38.38.06.13.19.19.38.19l.19-.28-.19-.28ZM102.64,33.15c.13-.06.22-.19.28-.38,0-.32-.19-.44-.57-.38l-.19.28c0,.38.16.54.47.47ZM105.58,28.32l-.09-.28.19.19-.09.09ZM105.96,31.92c-.06,0-.06.09,0,.28.19-.06.32-.09.38-.09l-.09-.28-.28.09ZM111.46,32.49h.09-.09ZM114.3,27.28c-.44.82-.7,1.33-.76,1.52-.06.06-.09.19-.09.38.06.19.13.32.19.38.32.13.57.03.76-.28.32-.63.25-1.26-.19-1.9l.09-.09ZM124.44,29.36c-.25-.19-.47-.19-.66,0-.06.13-.03.25.09.38.19.13.41.09.66-.09l-.09-.28Z"/>
      <path d="M152.21,87.27c-1.2,2.91-2.24,5.66-3.13,8.25-.63,1.77-1.33,3.6-2.08,5.5-.19.44-.44,1.01-.76,1.71-.38.82-.63,1.42-.76,1.8-.19.32-.41.82-.66,1.52-.25.76-.44,1.3-.57,1.61.13-.25-.32.76-1.33,3.03-.38.89-.85,1.58-1.42,2.08-.19.19-.28.44-.28.76-.06.89-.06,1.61,0,2.18.13,1.45-.19,2.94-.95,4.45h-.09.19c-.32.82-.95,1.49-1.9,1.99v-.09l.38.76c.19.51.25.92.19,1.23-.13.63-.25,1.2-.38,1.71-.95,2.97-1.61,5.4-1.99,7.3-.13.7-.41,1.45-.85,2.27-.82,1.39-1.2,1.99-1.14,1.8-.63,1.39-1.58,2.59-2.84,3.6-2.21,1.9-3.16,2.72-2.84,2.46-.38.25-.76.44-1.14.57-.32.06-.57-.03-.76-.28-.38-.7-.79-1.74-1.23-3.13-.06-.44-.09-.85-.09-1.23.19-1.71.5-3.06.95-4.08.32-.95.82-2.43,1.52-4.45.5-1.45.82-2.53.95-3.22.06-.44.38-1.52.95-3.22,1.07-3.35,1.83-6.19,2.27-8.53.32-1.45.79-2.59,1.42-3.41.06-.13.09-.28.09-.47,0-.06-.03-.19-.09-.38-.13-.63-.09-1.33.09-2.08,1.26-4.86,2.05-7.99,2.37-9.38.25-1.14.82-2.05,1.71-2.75.13-.06.22-.16.28-.28.06-.44.09-.73.09-.85-.63-1.01-.73-2.05-.28-3.13.13-1.45.69-2.87,1.71-4.26l-.19.19.19-.19c-.06-.57,0-1.1.19-1.61.63-1.39,1.1-2.84,1.42-4.36.25-1.07.38-1.93.38-2.56.13-1.45.38-2.81.76-4.08.25-.82.63-2.18,1.14-4.08.51-1.77.92-3.13,1.23-4.08.19-.76.47-1.39.85-1.9.25-.44.38-.82.38-1.14,0-1.01.25-2.68.76-5.02,1.01-4.61,1.61-7.2,1.8-7.77.19-.69.6-2.78,1.23-6.26.13-.88.38-2.27.76-4.17.32-1.77.57-3.16.76-4.17,0-.13.16-.66.47-1.61.13-.38.38-.69.76-.95.63-.38.79-.85.47-1.42-.44-.82-.66-1.74-.66-2.75,0-.13.13-1.26.38-3.41.06-.19.13-.76.19-1.71,0-.69-.38-1.07-1.14-1.14h-.85c-.63.13-1.17.28-1.61.47-1.14.38-2.65.57-4.55.57-.44,0-.85-.06-1.23-.19-.76-.19-1.58-.44-2.46-.76-.13-.06-.38-.19-.76-.38-.32-.19-.57-.28-.76-.28-1.83-.5-4.68-2.05-8.53-4.64-.57-.38-1.2-.92-1.9-1.61-1.08-1.14-1.36-2.43-.85-3.89.13-.44.32-.82.57-1.14,1.07-1.2,2.31-2.12,3.7-2.75,3.09-1.45,6.29-2.53,9.57-3.22.95-.25,1.61-.44,1.99-.57.63-.19,1.61-.38,2.94-.57.88-.13,1.42-.25,1.61-.38.95-.38,2.75-.73,5.4-1.04,2.27-.25,3.66-.44,4.17-.57,2.72-.63,5.78-.76,9.19-.38.5,0,1.07.06,1.71.19.44.06,1.01.03,1.71-.09,1.58-.32,2.81-.5,3.7-.57,2.15-.25,3.95-.13,5.4.38,1.96.7,4.04.7,6.26,0,.88-.25,1.58-.41,2.08-.47,1.9-.19,4.9-.85,9-1.99,2.02-.5,3.98-.66,5.88-.47,2.27.25,3.54.41,3.79.47,1.07.13,1.52.76,1.33,1.9-.13.63-.19.92-.19.85-.7,2.65-1.58,5.59-2.65,8.81-.19.7-.6,1.23-1.23,1.61-2.15,1.39-4.17,2.4-6.07,3.03-.44.19-1.04.41-1.8.66-.82.32-1.39.54-1.71.66-.89.32-1.42.47-1.61.47-.82.13-2.75.63-5.78,1.52-2.21.63-5.69,1.74-10.43,3.32-.7.19-1.74.57-3.13,1.14-1.45.51-2.53.89-3.22,1.14-.13,0-.32.06-.57.19-.25.13-.44.22-.57.28-.95.32-1.58,1.01-1.9,2.08-.13.57-.19.98-.19,1.23-.25,2.02-.63,5.69-1.14,10.99-.44,4.8-1.42,9.45-2.94,13.93-.25.63-.44,1.01-.57,1.14-.51.7-.82,1.61-.95,2.75-.06.63-.28,1.3-.66,1.99-.19.25-.25.51-.19.76.06.63-.09,1.61-.47,2.94-1.39,4.36-2.18,7.05-2.37,8.06-.13.82-.6,1.49-1.42,1.99-1.39.89-2.08,1.36-2.08,1.42-.19.19-.25.44-.19.76.06.32.35.79.85,1.42.38.57.44,1.23.19,1.99-.32,1.01-.7,1.77-1.14,2.27v-.09c-.13.7-.82,2.53-2.08,5.5ZM133.07,130.96l-.19.09c-.32-.38-.41-.57-.28-.57.19.32.31.51.38.57l.09-.09ZM136.67,110.78c-.25-.32-.51-.32-.76,0-.06.13-.06.22,0,.28.19.32.41.35.66.09l.09-.38ZM136.38,120.25l-.28.28c0,.06-.03.19-.09.38.13-.32.22-.54.28-.66h.1ZM139.42,113.9c-.06-.38-.38-.54-.95-.47-.32,0-.51.13-.57.38-.19.44-.06.76.38.95h.38c.57-.06.82-.35.76-.85ZM146.15,93.24c-.19.19-.19.41,0,.66.13.25.35.32.66.19.25-.13.41-.32.47-.57,0-.25-.16-.47-.47-.66-.25,0-.47.13-.66.38ZM147.47,8.32c-.19-.25-.44-.38-.76-.38-.25.06-.25.19,0,.38.19.13.44.09.76-.09.06,1.01.19,1.8.38,2.37h-.09c.06-.19-.03-.95-.28-2.27ZM146.71,90.02l-.09.28.28.09c.19-.32.13-.44-.19-.38ZM146.9,76.85v.19l.28-.09-.28-.09ZM148.42,69.45c-.06-.13-.16-.19-.28-.19-.32-.06-.47.06-.47.38.06.38.25.54.57.47.32-.13.38-.35.19-.66ZM150.13,63.86c-.25-.25-.47-.22-.66.09-.13.13-.22.38-.28.76,0,.13.06.22.19.28.25.25.47.25.66,0,.06-.06.16-.35.28-.85l-.19-.28ZM151.83,72.87l-.19-.19.19.09v.09ZM153.82,60.54c-.13.06-.19.16-.19.28-.06.32.06.51.38.57.32,0,.44-.19.38-.57-.06-.32-.25-.41-.57-.28ZM156.67,67.37c-.38.06-.76.13-1.14.19l.09-.09c.13.13.38.47.76,1.04v.85c.06.38.25.41.57.09.13-.13.13-.22,0-.28.25.25.06.03-.57-.66.06-.25.13-.66.19-1.23l.09.09ZM156.85,59.69l.19.09-.28-.09h.1ZM162.54,34.95h-.28c-.32-.06-.32-.13,0-.19,0,.06.03.13.09.19.44-.32.51-.32.19,0ZM179.6,18.37v.38c.13.06.22.03.28-.09v-.28h-.28Z"/>
      <path d="M232.87,70.69c.32.25.54.6.66,1.04.25.89.32,1.71.19,2.46-.13.82-.57,1.52-1.33,2.09-.25.13-.82.19-1.71.19-.7,0-1.01.35-.95,1.04.13.82-.25,1.52-1.14,2.08-.95.57-2.24,1.11-3.89,1.61-.25.13-1.86.6-4.83,1.42l-.38.19c-.7,0-1.96.16-3.79.47-1.58.25-2.84.41-3.79.47-.63,0-3.7.28-9.19.85-1.14.13-2.21.76-3.22,1.9-.13.19-.25.44-.38.76-.13.32-.19.6-.19.85-.06,1.14-.44,2.62-1.14,4.45-.89,2.27-1.39,3.6-1.52,3.98-.13.63-.38,1.42-.76,2.37.06-.19-.51.44-1.71,1.9-.7.89-.85,1.8-.47,2.75l.09.38c.25.57.16,1.08-.28,1.52-.63.7-.98,1.3-1.04,1.8-.06.44-.13.7-.19.76-.51.76-1.2,2.91-2.08,6.44-.51,2.21.35,3.98,2.56,5.31,1.2.76,2.62,1.26,4.27,1.52,1.26.25,2.97.47,5.12.66,1.64.13,3.32.13,5.02,0,.82-.06,2.5-.25,5.02-.57,1.01-.13,1.61-.66,1.8-1.61.06-.19.13-.47.19-.85-.06.19-.03-.06.09-.76.06-.63.32-1.14.76-1.52.44-.32,1.1-.82,1.99-1.52.44-.32.98-.47,1.61-.47,1.01-.06,1.74.25,2.18.95.57.82,1.17,1.77,1.8,2.84.57.95,1.17,2.05,1.8,3.32.38.7.54,1.52.47,2.46-.06,1.26-.35,2.78-.85,4.55-.32,1.01-.89,1.8-1.71,2.37-2.02,1.52-4.58,2.62-7.68,3.32-.82.19-1.52.25-2.08.19-.89-.06-1.68.13-2.37.57-.32.13-.73.16-1.23.09-.44,0-1.58.03-3.41.09-3.67.06-6.48-.16-8.44-.66-2.27-.25-5.28-.92-9-1.99-1.83-.57-3.41-1.17-4.74-1.8-.82-.44-1.49-.98-1.99-1.61-.25-.38-.41-.6-.47-.66-.57-1.01-1.67-2.46-3.32-4.36-2.15-2.4-2.84-5.15-2.08-8.25,1.33-5.24,2.78-9.67,4.36-13.27.44-1.01,1.27-2.94,2.46-5.78.25-.63.44-1.17.57-1.61.63-2.72,3.28-11.31,7.96-25.78.38-1.33,1.04-3.41,1.99-6.26.95-2.65,1.64-4.74,2.09-6.26.06-.06.69-2.37,1.9-6.92h.09l-.19.09c3.16-11.88,4.64-17.47,4.45-16.78,0-.06.03-.19.09-.38.25-1.2.13-2.31-.38-3.32-.25-.38-.22-.76.09-1.14,1.26-1.64,1.86-2.43,1.8-2.37-.06.13.25-1.07.95-3.6,0-.06.13-.92.38-2.56.13-.76.38-1.55.76-2.37.19-.32.47-.63.85-.95.38-.32.73-.57,1.04-.76,1.64-.82,3.98-1.74,7.01-2.75.69-.19,1.39-.13,2.08.19,1.01.44,1.8,1.04,2.37,1.8.88,1.2,1.42,2.31,1.61,3.32.06.76.57,1.17,1.52,1.23.88.06,1.45.09,1.71.09h5.88c9.48.06,14.12.09,13.93.09,1.14,0,2.97.22,5.5.66.82.13,2.02.47,3.6,1.04.32.13.69.35,1.14.66,1.96,1.33,2.53,3.16,1.71,5.5-.13.44-.41,1.01-.85,1.71-.44.76-.73,1.33-.85,1.71-.13.38-.54.79-1.23,1.23-1.26.82-2.65,1.49-4.17,1.99-2.02.76-3.79,1.11-5.31,1.04-.57-.06-1.36-.09-2.37-.09-1.2,0-1.96-.03-2.27-.09-1.14,0-1.83-.09-2.09-.28.13.13-.28-.22-1.23-1.04-.51-.5-1.01-.54-1.52-.09-.63.51-1.26.6-1.9.28-.44-.32-.98-.28-1.61.09-.7.38-1.36.54-1.99.47-3.1-.13-5.18-.35-6.26-.66-1.26-.25-2.53-.32-3.79-.19-.57.06-1.01.38-1.33.95-.25.44-.44.82-.57,1.14-1.26,3.73-2.09,6.13-2.46,7.2-.63,2.21-1.3,4.04-1.99,5.5-.82,1.9-1.45,3.76-1.9,5.59-.82,3.54-1.3,5.59-1.42,6.16-.25,1.52-.7,3.16-1.33,4.93-.19.7-.7,2.43-1.52,5.21-.13.32-.03.63.28.95.32.32.63.44.95.38.63-.13.92-.16.85-.09.95-.25,1.74-.47,2.37-.66,3.35-.95,6.92-1.74,10.71-2.37,1.26-.19,2.78-.47,4.55-.85.88-.25,1.55-.79,1.99-1.61.25-.44.5-1.07.76-1.9.44-1.14,1.42-1.83,2.94-2.08.38-.06.79.03,1.23.28.76.38,1.23,1.04,1.42,1.99.06.13.13.7.19,1.71.06.82.13,1.52.19,2.08,0,.38-.09.76-.28,1.14.13-.19-.03.06-.47.76-.38.13-.63.22-.76.28-.57.13-.98.47-1.23,1.04l-.09.19c0,.06-.03.13-.09.19l-.09.38c-.19.38-.06.73.38,1.04.44.25.85.28,1.23.09.5-.25.79-.69.85-1.33,0,.06-.09-.6-.28-1.99.44.25.69.38.76.38ZM183.58,98.74v-.09c-.19.06-.32.09-.38.09l.1.28c.38-.06.47-.09.28-.09v-.19ZM185.76,101.68l.28.09c.06.51.1.79.1.85.06.13.16.19.28.19.38.06.54-.09.47-.47,0-.19-.06-.28-.19-.28-.06-.06-.32-.16-.76-.28l-.19-.09ZM204.05,57.51l.28-.1-.28-.19v.28ZM223.67,74.86c.06.13-.06.16-.38.09v-.38c.19-.13.22,0,.1.38l.28-.09ZM225.66,24.25c-.57-.38-1.08-.38-1.52,0-.32.19-.32.41,0,.66.38.32.88.22,1.52-.28v-.38ZM224.34,76.85l-.19-.19v.28l.19-.09ZM227.08,69.55c-.38-.06-.51.06-.38.38.06.13.19.19.38.19l.19-.28-.19-.28ZM228.41,33.15c.13-.06.22-.19.28-.38,0-.32-.19-.44-.57-.38l-.19.28c0,.38.16.54.47.47ZM231.35,28.32l-.09-.28.19.19-.09.09ZM231.73,31.92c-.06,0-.06.09,0,.28.19-.06.32-.09.38-.09l-.09-.28-.28.09ZM237.22,32.49h.09-.09ZM240.07,27.28c-.44.82-.7,1.33-.76,1.52-.06.06-.09.19-.09.38.06.19.13.32.19.38.32.13.57.03.76-.28.32-.63.25-1.26-.19-1.9l.09-.09ZM250.21,29.36c-.25-.19-.47-.19-.66,0-.06.13-.03.25.09.38.19.13.41.09.66-.09l-.09-.28Z"/>
      <path d="M309.44,39.79c0-.63.22-1.58.66-2.84.32-.82.44-1.64.38-2.46-.06-.82-.44-1.1-1.14-.85-.38.13-.63.25-.76.38-.19.13-.38.32-.57.57-.63.82-1.04,1.42-1.23,1.8-3.73,6.19-5.78,9.7-6.16,10.52-1.58,3.1-2.27,4.49-2.08,4.17-.06.13-.19.16-.38.09-.13-.06-.19-.19-.19-.38,0-.25.06-.57.19-.95.25-.5.38-.85.38-1.04.06-.19.13-.54.19-1.04.13-.44.19-.79.19-1.04,0,.13,0-.13,0-.76.06-.25-.06-.47-.38-.66-.25-.25-.51-.32-.76-.19-.51.19-.95.51-1.33.95-.7.89-1.42,2.12-2.18,3.7-.38.82-1.45,3.41-3.22,7.77-.19.32-.32.7-.38,1.14-.13.57-.16,1.14-.09,1.71.06.32.28.57.66.76.38.25.73.28,1.04.09.44-.38.73-.66.85-.85l2.75-5.21c.19-.38.38-.44.57-.19.13.06.16.19.09.38-.06.32-.13.57-.19.76-.13.25-.35.7-.66,1.33-.32.57-.54,1.01-.66,1.33.13-.19-.06.35-.57,1.61-.19.38-.22.79-.09,1.23.25,1.01.38,2.12.38,3.32,0,.25-.28.41-.85.47-.32,0-.51.16-.57.47,0,.25-.03.66-.09,1.23-.06.57-.09.98-.09,1.23-.06.38-.25.54-.57.47-.76-.06-1.45.35-2.08,1.23-.51.63-.95,1.52-1.33,2.65-1.01,2.91-1.64,5.78-1.9,8.62-.13.63-.32,2.02-.57,4.17-.25,1.71-.41,3.1-.47,4.17-.25,2.78-.92,5.34-1.99,7.68l-1.14,2.37c-.7,2.21-1.04,3.41-1.04,3.6,0,.95-.35,2.31-1.04,4.08-1.14,2.91-2.24,6.38-3.32,10.43-.44,1.9-1.11,4.04-1.99,6.44-.32.76-.7,1.74-1.14,2.94-.57,1.64-.95,2.65-1.14,3.03.06-.19-.1.19-.47,1.14-1.01,2.46-2.75,4.39-5.21,5.78-.57.32-1.11.54-1.61.66-2.08.38-4.74.38-7.96,0-1.45-.13-2.59-1.07-3.41-2.84-.13-.32-.19-.73-.19-1.23.06-1.14-.06-2.12-.38-2.94-.44-.82-.63-1.9-.57-3.22.13-2.65.25-4.77.38-6.35.19-2.65.76-4.83,1.71-6.54.38-.57.57-1.36.57-2.37.06-2.97.22-5.37.47-7.2.13-.82.19-1.8.19-2.94.32-8.02.44-12.95.38-14.78v-1.23c.19-1.07.28-2.62.28-4.64,0-2.15.06-3.7.19-4.64.13-1.14,0-2.24-.38-3.32-.44-1.45-.6-3.25-.47-5.4.13-1.39.19-3.51.19-6.35,0-4.23.16-7.49.47-9.76.06-.69.19-3.06.38-7.11.06-1.39-.06-2.65-.38-3.79-.25-.95-.38-2.05-.38-3.32,0-3.16.22-5.53.66-7.11.06-.25.13-.6.19-1.04,0-.51.03-.85.09-1.04.06-.51.22-.92.47-1.23.44-.63,1.01-1.39,1.71-2.27.38-.5.85-.85,1.42-1.04.88-.32,1.39-.51,1.52-.57,1.01-.19,3.28-.92,6.82-2.18.38-.13.66-.22.85-.28,1.2-.38,2.02,0,2.46,1.14.44,1.33.69,2.12.76,2.37.95,5.06,1.29,9.13,1.04,12.23-.06.89-.13,1.42-.19,1.61-.25,1.33-.44,2.88-.57,4.64-.06.57-.28,1.23-.66,1.99l.09-.09c-.25,4.36-.54,7.3-.85,8.81-.13.51-.19,1.08-.19,1.71-.13,1.58-.35,3.13-.66,4.64-.06.32-.09.6-.09.85-.06,2.08-.54,4.83-1.42,8.25-.13.57-.19.98-.19,1.23-.51,6-.54,10.52-.09,13.55.19,1.14.51,2.05.95,2.75.25.25.51.28.76.09.38-.19.6-.35.66-.47.38-.63.69-1.26.95-1.9.32-.69.76-1.74,1.33-3.13.57-1.39.98-2.43,1.23-3.13,1.01-2.46,1.71-3.98,2.08-4.55.19-.19.32-.44.38-.76.19-.88,1.2-3.22,3.03-7.01.13-.25.38-.57.76-.95,1.33-1.52,1.9-2.15,1.71-1.9.69-.88,1.61-1.48,2.75-1.8.32-.06.5-.25.57-.57.44-1.2.73-2.12.85-2.75.19-.95.44-1.61.76-1.99.13-.19.22-.44.28-.76.19-1.45.5-2.81.95-4.08.32-.82.57-1.77.76-2.84.06-.51.28-1.01.66-1.52.44-.5.85-.92,1.23-1.23,1.07-.88,2.08-2.21,3.03-3.98,1.33-2.53,2.46-5.08,3.41-7.68.13-.38.35-.98.66-1.8.25-.76.44-1.36.57-1.8.57-1.52,1.23-2.78,1.99-3.79.82-1.07,1.61-2.53,2.37-4.36.44-.95.82-1.74,1.14-2.37.19-.38.41-.73.66-1.04,5.5-5.75,7.93-8.31,7.3-7.68l1.14-1.14c.76-.76,1.67-1.1,2.75-1.04h1.23c.76.06,1.33.38,1.71.95.38.51.88.76,1.52.76.82-.13,1.36-.19,1.61-.19.44,0,.73.28.85.85.19.76.16,1.42-.09,1.99-.32.63-.6,1.14-.85,1.52-.7.95-1.3,2.05-1.8,3.32-.57,1.58-1.39,3.19-2.46,4.83-1.39,2.21-2.18,3.54-2.37,3.98-.82,1.33-2.02,3.32-3.6,5.97-1.64,2.65-2.84,4.64-3.6,5.97-.32.51-.6.82-.85.95l.09.1ZM259.69,41.68l.19.28.19-.28-.19-.28-.19.28ZM260.45,29.55l.28-.1c.32.44.47.7.47.76.38.38.76.41,1.14.09.19-.19.28-.44.28-.76,0-.63-.28-.82-.85-.57-.13.06-.51.22-1.14.47-.44.32-.51.35-.19.1ZM265.37,40.07c-.06-.13-.16-.16-.28-.09-.32.06-.35.22-.09.47h.28l.09-.38ZM265.28,72.49l.19.09h-.19v.19-.28ZM266.89,91.92c-.13-.32-.32-.35-.57-.09-.13.13-.13.25,0,.38.13.25.32.28.57.09v-.38ZM268.22,44.34c-.13,0-.22.06-.28.19-.06.32.06.51.38.57l.28-.19c.13-.38,0-.57-.38-.57ZM268.79,69.26c0,.13.09.19.28.19.32.06.44-.09.38-.47l-.28-.19c-.32.06-.44.22-.38.47ZM279.31,97.7c-.06.06-.13.09-.19.09l.28.28.28-.28c-.13-.13-.22-.19-.28-.19l-.09.09ZM287.55,73.53c-.06-.5-.32-.79-.76-.85.19.06-.63-.19-2.46-.76-.63-.25-1.08-.03-1.33.66,0,.13-.03.28-.09.47-.06.19-.13.32-.19.38-.44,1.45-.47,2.69-.1,3.7.25.57.28,1.26.1,2.08-.25.82-.6,2.91-1.04,6.26-.13.7.16,1.3.85,1.8.19.13.44.16.76.1.38-.06.6-.22.66-.47.63-2.08,1.55-4.9,2.75-8.44.25-.76.44-1.42.57-1.99,0-.06.1-.69.28-1.9v-1.04ZM289.83,65.76l.19-.09-.19-.09v.19ZM303.57,36.76h.09l-.19-.19.09.19Z"/>
      <path d="M360.15,70.69c.32.25.54.6.66,1.04.25.89.32,1.71.19,2.46-.13.82-.57,1.52-1.33,2.09-.25.13-.82.19-1.71.19-.7,0-1.01.35-.95,1.04.13.82-.25,1.52-1.14,2.08-.95.57-2.24,1.11-3.89,1.61-.25.13-1.86.6-4.83,1.42l-.38.19c-.7,0-1.96.16-3.79.47-1.58.25-2.84.41-3.79.47-.63,0-3.7.28-9.19.85-1.14.13-2.21.76-3.22,1.9-.13.19-.25.44-.38.76-.13.32-.19.6-.19.85-.06,1.14-.44,2.62-1.14,4.45-.89,2.27-1.39,3.6-1.52,3.98-.13.63-.38,1.42-.76,2.37.06-.19-.51.44-1.71,1.9-.7.89-.85,1.8-.47,2.75l.09.38c.25.57.16,1.08-.28,1.52-.63.7-.98,1.3-1.04,1.8-.06.44-.13.7-.19.76-.51.76-1.2,2.91-2.08,6.44-.51,2.21.35,3.98,2.56,5.31,1.2.76,2.62,1.26,4.27,1.52,1.26.25,2.97.47,5.12.66,1.64.13,3.32.13,5.02,0,.82-.06,2.5-.25,5.02-.57,1.01-.13,1.61-.66,1.8-1.61.06-.19.13-.47.19-.85-.06.19-.03-.06.09-.76.06-.63.32-1.14.76-1.52.44-.32,1.1-.82,1.99-1.52.44-.32.98-.47,1.61-.47,1.01-.06,1.74.25,2.18.95.57.82,1.17,1.77,1.8,2.84.57.95,1.17,2.05,1.8,3.32.38.7.54,1.52.47,2.46-.06,1.26-.35,2.78-.85,4.55-.32,1.01-.89,1.8-1.71,2.37-2.02,1.52-4.58,2.62-7.68,3.32-.82.19-1.52.25-2.08.19-.89-.06-1.68.13-2.37.57-.32.13-.73.16-1.23.09-.44,0-1.58.03-3.41.09-3.67.06-6.48-.16-8.44-.66-2.27-.25-5.28-.92-9-1.99-1.83-.57-3.41-1.17-4.74-1.8-.82-.44-1.49-.98-1.99-1.61-.25-.38-.41-.6-.47-.66-.57-1.01-1.67-2.46-3.32-4.36-2.15-2.4-2.84-5.15-2.08-8.25,1.33-5.24,2.78-9.67,4.36-13.27.44-1.01,1.27-2.94,2.46-5.78.25-.63.44-1.17.57-1.61.63-2.72,3.28-11.31,7.96-25.78.38-1.33,1.04-3.41,1.99-6.26.95-2.65,1.64-4.74,2.09-6.26.06-.06.69-2.37,1.9-6.92h.09l-.19.09c3.16-11.88,4.64-17.47,4.45-16.78,0-.06.03-.19.09-.38.25-1.2.13-2.31-.38-3.32-.25-.38-.22-.76.09-1.14,1.26-1.64,1.86-2.43,1.8-2.37-.06.13.25-1.07.95-3.6,0-.06.13-.92.38-2.56.13-.76.38-1.55.76-2.37.19-.32.47-.63.85-.95.38-.32.73-.57,1.04-.76,1.64-.82,3.98-1.74,7.01-2.75.69-.19,1.39-.13,2.08.19,1.01.44,1.8,1.04,2.37,1.8.88,1.2,1.42,2.31,1.61,3.32.06.76.57,1.17,1.52,1.23.88.06,1.45.09,1.71.09h5.88c9.48.06,14.12.09,13.93.09,1.14,0,2.97.22,5.5.66.82.13,2.02.47,3.6,1.04.32.13.69.35,1.14.66,1.96,1.33,2.53,3.16,1.71,5.5-.13.44-.41,1.01-.85,1.71-.44.76-.73,1.33-.85,1.71-.13.38-.54.79-1.23,1.23-1.26.82-2.65,1.49-4.17,1.99-2.02.76-3.79,1.11-5.31,1.04-.57-.06-1.36-.09-2.37-.09-1.2,0-1.96-.03-2.27-.09-1.14,0-1.83-.09-2.09-.28.13.13-.28-.22-1.23-1.04-.51-.5-1.01-.54-1.52-.09-.63.51-1.26.6-1.9.28-.44-.32-.98-.28-1.61.09-.7.38-1.36.54-1.99.47-3.1-.13-5.18-.35-6.26-.66-1.26-.25-2.53-.32-3.79-.19-.57.06-1.01.38-1.33.95-.25.44-.44.82-.57,1.14-1.26,3.73-2.09,6.13-2.46,7.2-.63,2.21-1.3,4.04-1.99,5.5-.82,1.9-1.45,3.76-1.9,5.59-.82,3.54-1.3,5.59-1.42,6.16-.25,1.52-.7,3.16-1.33,4.93-.19.7-.7,2.43-1.52,5.21-.13.32-.03.63.28.95.32.32.63.44.95.38.63-.13.92-.16.85-.09.95-.25,1.74-.47,2.37-.66,3.35-.95,6.92-1.74,10.71-2.37,1.26-.19,2.78-.47,4.55-.85.88-.25,1.55-.79,1.99-1.61.25-.44.5-1.07.76-1.9.44-1.14,1.42-1.83,2.94-2.08.38-.06.79.03,1.23.28.76.38,1.23,1.04,1.42,1.99.06.13.13.7.19,1.71.06.82.13,1.52.19,2.08,0,.38-.09.76-.28,1.14.13-.19-.03.06-.47.76-.38.13-.63.22-.76.28-.57.13-.98.47-1.23,1.04l-.09.19c0,.06-.03.13-.09.19l-.09.38c-.19.38-.06.73.38,1.04.44.25.85.28,1.23.09.5-.25.79-.69.85-1.33,0,.06-.09-.6-.28-1.99.44.25.69.38.76.38ZM310.87,98.74v-.09c-.19.06-.32.09-.38.09l.1.28c.38-.06.47-.09.28-.09v-.19ZM313.05,101.68l.28.09c.06.51.1.79.1.85.06.13.16.19.28.19.38.06.54-.09.47-.47,0-.19-.06-.28-.19-.28-.06-.06-.32-.16-.76-.28l-.19-.09ZM331.34,57.51l.28-.1-.28-.19v.28ZM350.96,74.86c.06.13-.06.16-.38.09v-.38c.19-.13.22,0,.1.38l.28-.09ZM352.95,24.25c-.57-.38-1.08-.38-1.52,0-.32.19-.32.41,0,.66.38.32.88.22,1.52-.28v-.38ZM351.62,76.85l-.19-.19v.28l.19-.09ZM354.37,69.55c-.38-.06-.51.06-.38.38.06.13.19.19.38.19l.19-.28-.19-.28ZM355.7,33.15c.13-.06.22-.19.28-.38,0-.32-.19-.44-.57-.38l-.19.28c0,.38.16.54.47.47ZM358.63,28.32l-.09-.28.19.19-.09.09ZM359.01,31.92c-.06,0-.06.09,0,.28.19-.06.32-.09.38-.09l-.09-.28-.28.09ZM364.51,32.49h.09-.09ZM367.35,27.28c-.44.82-.7,1.33-.76,1.52-.06.06-.09.19-.09.38.06.19.13.32.19.38.32.13.57.03.76-.28.32-.63.25-1.26-.19-1.9l.09-.09ZM377.49,29.36c-.25-.19-.47-.19-.66,0-.06.13-.03.25.09.38.19.13.41.09.66-.09l-.09-.28Z"/>
      <path d="M387.44,52.2c.13-.13.22-.38.28-.76,0-.25-.13-.66-.38-1.23-.19-.57-.22-1.14-.09-1.71,1.33-5.37,2.24-8.75,2.75-10.14.19-.5.47-1.23.85-2.18.38-1.01.66-1.74.85-2.18.32-.82.47-1.61.47-2.37.06-.88.13-1.45.19-1.71.25-.82.25-1.8,0-2.94-.19-.76-.03-1.55.47-2.37.38-.57.73-1.04,1.04-1.42.82-.95,1.45-2.02,1.9-3.22.19-.44.44-.76.76-.95,1.26-.82,2.27-1.58,3.03-2.27.13-.13.41-.22.85-.28.38-.13.85-.41,1.42-.85.44-.44.76-.69.95-.76.95-.63,1.86-.95,2.75-.95.88-.06,2.59-.25,5.12-.57,1.39-.13,2.56.51,3.51,1.9.19.25.28.51.28.76.06,3.22.09,6.03.09,8.44,0,1.39-.38,3.89-1.14,7.49-.38.63-.57,1.74-.57,3.32v3.79c0,2.59-.1,4.96-.28,7.11-.25,3.35-.22,6.44.09,9.29.32,2.53.32,6.03,0,10.52-.06.76-.19,1.61-.38,2.56-.13.51-.19,1.26-.19,2.27-.06,1.08-.16,1.86-.28,2.37.13.44.22,1.39.28,2.84.06,1.26.22,2.24.47,2.94.19.63.22,1.33.09,2.08-.25,1.26-.41,2.65-.47,4.17-.06,1.14.28,2.02,1.04,2.65.25.25.54.57.85.95.06.13.16.38.28.76.06.13.09.25.09.38,0,.76.28,2.56.85,5.4.38,1.96,1.39,5.47,3.03,10.52.51,1.58,1.48,2.94,2.94,4.08.38.32.76.38,1.14.19.5-.19.79-.47.85-.85.76-4.61,1.07-6.57.95-5.88.06-.25.25-.79.57-1.61.19-.63.32-1.17.38-1.61,0-.5.13-1.26.38-2.27.32-1.01.47-1.77.47-2.27.06-.19.32-1.58.76-4.17.5-2.53.82-4.04.95-4.55.06-.32.19-.85.38-1.61.13-.69.25-1.23.38-1.61.19-1.2.63-2.21,1.33-3.03.63-.69,1.01-1.61,1.14-2.75.19-1.64.28-2.34.28-2.08,0-.38.16-.76.47-1.14.13-.06.35-.25.66-.57l.57-.57c.25-.32.44-.69.57-1.14.06-.19.13-.6.19-1.23.19-1.45.76-2.72,1.71-3.79.38-.44.73-.88,1.04-1.33.69-.95,1.1-1.99,1.23-3.13.5-3.41,1.01-6.73,1.52-9.95,0-.06.09-1.04.28-2.94.13-1.26.22-1.96.28-2.08.06-.38.03-1.07-.09-2.08-.06-.38.06-.76.38-1.14.13-.13.22-.22.28-.28,1.33-.95,2.37-2.43,3.13-4.45.06-.19.16-.54.28-1.04.13-.44.22-.76.28-.95,0-.06.22-.44.66-1.14-.06-.19-.09-.32-.09-.38l.09-.28v.76c-.57-.5-.92-.95-1.04-1.33-.19-.57-.25-.98-.19-1.23.19-1.14.44-2.09.76-2.84,1.39-3.03,1.96-4.3,1.71-3.79.38-.69,1.2-2.65,2.46-5.88.13-.38.19-.63.19-.76.19-1.39,1.07-3.76,2.65-7.11.38-.69.82-1.23,1.33-1.61,1.9-1.45,3.63-2.62,5.21-3.51.32-.19.73-.22,1.23-.09.25.13.44.32.57.57.32.57.38,1.11.19,1.61-.32.76-.57,1.26-.76,1.52-.7.82-1.2,1.49-1.52,1.99-1.01,1.45-1.55,3.03-1.61,4.74-.06,1.2-.06,2.31,0,3.32,0,1.2-.19,2.31-.57,3.32-.32.95-.51,1.48-.57,1.61-.19.51-.35,1.17-.47,1.99-.44,4.04-.73,6.57-.85,7.58,0,.19-.25,1.26-.76,3.22-.82,3.73-1.39,6.07-1.71,7.01-.13.51-.41.95-.85,1.33v.09c.19-1.39,0-3.92-.57-7.58,0-.06-.03-.19-.09-.38-.19-.25-.41-.35-.66-.28-.51,0-.85.19-1.04.57-.7,1.33-1.08,2.81-1.14,4.45-.06,1.33-.28,2.43-.66,3.32-.38.82-.92,2.84-1.61,6.07-.06.51-.19,1.26-.38,2.27-.13,1.01-.25,1.77-.38,2.27-.38,1.77-.51,3.32-.38,4.64.06.63.09,2.02.09,4.17v2.75c.06,1.33.09,2.24.09,2.75,0,2.4-.19,4.23-.57,5.5-.19.7-.32,1.93-.38,3.7-.06,2.21,0,5.18.19,8.91.06,1.45.03,2.72-.1,3.79-.06.89-.32,1.83-.76,2.84v-.28.09c-.06,4.68-.1,7.33-.1,7.96,0,.44-.03,1.08-.09,1.9-.06.82-.09,1.42-.09,1.8,0,.76-.35,1.52-1.04,2.27h-1.42c-.95,0-1.67-.28-2.18-.85-.06-.06-.19-.13-.38-.19-.25-.13-.51-.13-.76,0-.44.25-.54.6-.28,1.04.25.63.66.98,1.23,1.04h.76c.76.06,1.29-.28,1.61-1.04h1.52c.44,2.97.35,5.88-.28,8.72-.19.7-.54,2.34-1.04,4.93-.38,2.15-.95,3.7-1.71,4.64-.13.19-.19.44-.19.76.06,1.01-.38,2.02-1.33,3.03-.51.51-.92.85-1.23,1.04-.7.44-1.67,1.23-2.94,2.37-.38.32-.66.16-.85-.47,0-.06-.03-.13-.09-.19v-.19c-.63-.32-.98-.47-1.04-.47-.19-.06-.32-.03-.38.09-.63,1.08-1.58,1.58-2.84,1.52-1.2-.13-2.15-.09-2.84.09.57-.88.88-1.58.95-2.08h.38l.19-.19c-.19-.06-.35.03-.47.28l-.76-.19c-.57-.13-.85.09-.85.66.06.19.28.7.66,1.52-1.07.44-1.71.73-1.9.85-.13,0-.28-.03-.47-.09-1.14-.44-1.83-1.1-2.08-1.99,0-.13-.03-.38-.1-.76,0-.5-.22-.82-.66-.95-.19-.06-.6-.13-1.23-.19-.57-.13-1.01-.41-1.33-.85-1.08-1.52-1.77-2.75-2.08-3.7v-.09.28c-1.26-1.07-1.99-2.4-2.18-3.98-.06-.44-.13-.73-.19-.85-.13-.57-.44-1.01-.95-1.33-.82-.5-1.17-.73-1.04-.66-.25-.19-.41-.41-.47-.66,0-.13-.09-.82-.28-2.08-.13-.76-.32-1.29-.57-1.61-.76-.82-1.58-2.43-2.46-4.83-.7-1.71-1.04-3.47-1.04-5.31,0,.25,0-.19,0-1.33.06-.38.09-.92.09-1.61v-1.71c0-.44.13-.98.38-1.61.32-.76.51-1.29.57-1.61.06-.25-.03-.54-.28-.85-.19-.25-.41-.35-.66-.28-.19.06-.32.09-.38.09-.06.06-.19.13-.38.19-.19.06-.32.09-.38.09-.32.13-.6.09-.85-.09-.32-.32-.47-.66-.47-1.04.06-.25.13-.54.19-.85.06-.19.28-.85.66-1.99.51-1.33.63-2.72.38-4.17-.13-1.01-.22-1.71-.28-2.08-.13-1.96,0-3.63.38-5.02.25-1.07-.22-1.8-1.42-2.18-.44-.13-.73-.22-.85-.28-.38-.19-.63-.5-.76-.95,0-.19-.03-.47-.1-.85v-1.33c-.06-2.02-.22-3.7-.47-5.02-.13-.63-.19-1.17-.19-1.61l-1.14-7.96c-.06-.82-.38-1.9-.95-3.22-.06-.25-.25-.41-.57-.47-.32-.06-.57.03-.76.28-.57.51-.98,1.23-1.23,2.18-.19.76-.51,1.99-.95,3.7-.44,1.58-.79,2.78-1.04,3.6-.13.51-.32,1.49-.57,2.94-.25,1.2-.51,2.15-.76,2.84-.13.32-.19.57-.19.76,0,.25-.25,2.21-.76,5.88-.57,3.73-.85,5.53-.85,5.4-.44,3.22-1.55,9.6-3.32,19.15-.25,1.58-.54,3.51-.85,5.78-.19,1.01-.28,2.56-.28,4.64,0,.63.03,1.49.09,2.56.06,1.14.09,1.99.09,2.56,0,1.07-.06,2.18-.19,3.32-.13,1.01-.57,1.86-1.33,2.56-1.39,1.26-2.75,2.24-4.08,2.94-2.21,1.2-4.23,1.74-6.07,1.61-.69-.06-1.36-.32-1.99-.76-.57-.44-.92-1.04-1.04-1.8-.13-.95-.13-1.93,0-2.94.25-1.39.79-4.86,1.61-10.43-.13.57.28-1.93,1.23-7.49.06-.25.47-2.75,1.23-7.49.13-.69.47-1.26,1.04-1.71.69-.63,1.2-1.45,1.52-2.46-.25.89.19-1.33,1.33-6.63.13-.5.06-1.04-.19-1.61-.06-.19-.32-.69-.76-1.52-.25-.51-.35-1.04-.28-1.61.25-1.71.5-3.1.76-4.17.57-2.91,1.14-5.65,1.71-8.25.19-1.07.88-1.67,2.08-1.8h.76c1.01-.19,1.45-.82,1.33-1.9,0-.13-.06-.54-.19-1.23v.09c-.63-.44-.98-.69-1.04-.76-.19-.13-.32-.35-.38-.66-.13-.25-.19-.54-.19-.85.06-1.83.09-3.35.09-4.55.06-.57.22-1.26.47-2.08.25-.63.41-1.17.47-1.61.19-1.64.22-2.31.1-1.99.76-2.02,1.23-3.35,1.42-3.98.06,0,.22-.22.47-.66.44.44.73.7.85.76.38.06.54-.06.47-.38,0-.13-.09-.22-.28-.28-.25-.06-.63-.06-1.14,0,1.01-.76,1.58-1.17,1.71-1.23ZM384.7,83.48c.13,0,.76-.06,1.9-.19.44-.69.66-1.07.66-1.14.25-.44.32-.82.19-1.14-.32-.57-.47-1.55-.47-2.94,0-.13-.09-.51-.28-1.14-.13-.57-.41-.85-.85-.85-1.45.13-2.56.22-3.32.28-.19,0-.32.06-.38.19,0,.13.03.28.09.47.19.32.54.54,1.04.66.76.25,1.2.73,1.33,1.42.32,1.45.98,2.84,1.99,4.17-1.71-.32-2.75-.44-3.13-.38,0-.32-.09-.5-.28-.57-.32-.13-.51-.03-.57.28,0,.06.06.16.19.28.25.13.47.09.66-.09.25.51.66.73,1.23.66ZM387.82,74.95v-.28l-.28.09.28.19ZM401,67.18c-.38.76-.51,1.58-.38,2.46.13.44.51.82,1.14,1.14.44.19.82.06,1.14-.38.38-.69.6-1.33.66-1.9.06-.44-.13-.85-.57-1.23-.38-.38-.82-.54-1.33-.47-.38.25-.6.38-.66.38ZM402.32,28.98l-.38.09.09.28c.06,0,.19-.03.38-.09l-.09-.28ZM408.3,69.93c.32-.69.06-1.04-.76-1.04-.57,0-.92.19-1.04.57-.32,1.26-.47,2.05-.47,2.37.06.32.25.51.57.57.69,0,1.1-.28,1.23-.85.06-.06.09-.35.09-.85.25-.44.38-.69.38-.76ZM406.87,76.75c-.06-.38-.22-.44-.47-.19l.09.28.38-.09ZM410.38,79.12c0-.19-.09-.28-.28-.28-.38-.06-.47.06-.28.38l.28.09.28-.19ZM410.38,107.93v.09l.09.09-.09-.19ZM410.57,110.59c0,.13.06.22.19.28.32.13.51.03.57-.28.06-.32-.06-.5-.38-.57-.32.06-.44.25-.38.57ZM411.8,117.88l-.28-.09-.09.28h.09c.06.06.13.1.19.1,0-.13.03-.22.09-.28ZM413.03,108.22c.13-.13.28-.28.47-.47.25-.25.41-.44.47-.57h.85l-.09-.28c-.25,0-.47.13-.66.38-.44.44-.76.79-.95,1.04l-.09-.09ZM416.35,115.61c-.19,0-.06-.03.38-.09.63-.06.85-.38.66-.95-.06-.25-.25-.41-.57-.47-1.2-.19-2.21.06-3.03.76-.13.06-.19.16-.19.28-.06.19-.06.32,0,.38-.19-.06.25-.03,1.33.09h1.42ZM415.88,105.09h.28l-.09-.19-.19.19ZM418.25,124.61c-.51-.38-.82-.28-.95.28-.06.32.03.51.28.57.5.19.79,0,.85-.57l-.19-.28ZM419.38,128.31c.13-.32.03-.44-.28-.38-.19,0-.32.03-.38.09-.06.32.06.47.38.47l.28-.19ZM422.89,116.08c.13-.57-.06-.85-.57-.85-.32,0-.54.13-.66.38-.19.57-.06.92.38,1.04.44.19.73,0,.85-.57ZM424.88,118.36c.13-.06.19-.16.19-.28,0-.31-.16-.44-.47-.38l-.19.28c0,.32.16.44.47.38ZM424.5,111.91l.09.28.28-.09-.09-.28-.28.09ZM427.35,114.57c.25,0,.5-.09.76-.28.25-.19.25-.38,0-.57-.13-.13-.22-.13-.28,0-.25.06-.82.41-1.71,1.04l-.09-.38c-.13-.44-.16-.57-.09-.38-.13-.32-.35-.44-.66-.38-.25.06-.38.25-.38.57.06.32.22.51.47.57.19,0,.47-.03.85-.09.69,0,1.07-.03,1.14-.09ZM425.73,128.88l-.38-.19c-.32.19-.32.38,0,.57.13,0,.22-.03.28-.09l.09-.28ZM427.16,132.48v.38-.28l.19.09-.19-.19ZM429.62,115.33c-.13,0-.19.09-.19.28-.06.32.06.44.38.38l.19-.28c0-.32-.13-.44-.38-.38ZM431.14,126.13c-.19-.25-.44-.28-.76-.09-.32.19-.32.38,0,.57.19.19.41.16.66-.09l.09-.38ZM430.85,132.1c-.13.13-.19.35-.19.66.06.57.35,1.01.85,1.33.13.06.25.09.38.09.13.06.25.06.38,0,.25-.19.35-.44.28-.76-.13-.38-.47-.79-1.04-1.23-.32-.25-.54-.28-.66-.09ZM432.37,113.33c.06.32.25.51.57.57.19.06.35-.03.47-.28.13-.19.13-.38,0-.57-.13-.25-.35-.35-.66-.28-.25.06-.38.25-.38.57ZM433.6,123.1c-.19,0-.32.03-.38.09-.13.13-.16.25-.09.38.19.19.41.19.66,0,.13-.13.35-.28.66-.47h-.85ZM433.32,118.07c.13.13.22.16.28.1.32-.19.32-.38,0-.57-.06,0-.19.03-.38.09,0,.25.03.38.1.38ZM434.36,120.06c-.32-.32-.51-.47-.57-.47-.38-.13-.51,0-.38.38.06.13.16.19.28.19.06-.06.32-.13.76-.19l-.09.09ZM436.92,68.7c-.13-.32-.35-.47-.66-.47-.25,0-.47.13-.66.38-.44.51-.41,1.01.09,1.52.38.38.76.41,1.14.09.19-.19.28-.44.28-.76l-.19-.76ZM438.62,116.84c-.38.32-.6.47-.66.47l.09.38c.13-.06.28-.38.47-.95l.09.09ZM441.37,66.99c-.44-.57-.92-.6-1.42-.09-.57.51-.82,1.11-.76,1.8.06.82.38,1.55.95,2.18.25.25.5.28.76.09.32-.19.5-.35.57-.47.25-.5.38-1.17.38-1.99,0-.5-.16-1.01-.47-1.52ZM440.05,76.66c.13.32.35.44.66.38.57,0,.79-.28.66-.85-.13-.57-.41-.73-.85-.47-.32.13-.51.32-.57.57l.09.38ZM449.9,49.46c.06-.32.13-.57.19-.76v-.09l-.19.85Z"/>
      <path d="M532.26,136.37c-.51.38-1.2.54-2.08.47-.63-.06-1.08-.35-1.33-.85-.06-.13-.13-.25-.19-.38-.63-.76-1.2-.69-1.71.19-.38.57-.82.82-1.33.76l-.85-.09c-1.39.19-3.57-.25-6.54-1.33-1.9-.63-3.7-1.71-5.4-3.22-1.58-1.33-2.88-2.97-3.89-4.93-1.39-2.65-2.46-5.24-3.22-7.77-1.14-3.54-1.83-5.65-2.09-6.35-.25-.57-.57-1.8-.95-3.7-.13-.44-.19-1.01-.19-1.71,0-2.91-.06-4.86-.19-5.88-.06-1.26.09-2.37.47-3.32.51-1.14.7-2.53.57-4.17-.06-1.07-.09-1.77-.09-2.08-.06-2.09.38-3.95,1.33-5.59,1.45-2.46,2.97-5.94,4.55-10.43.19-.44.41-1.04.66-1.8.25-.82.44-1.42.57-1.8.13-.5.38-.82.76-.95.76-.32,1.33-1.07,1.71-2.27.19-.44.19-.85,0-1.23-.13-.32-.38-.82-.76-1.52-.25-.32-.28-.69-.09-1.14,0-.19.03-.32.09-.38,3.1-6.25,5.65-10.96,7.68-14.12,1.58-2.53,2.53-4.11,2.84-4.74.82-1.83,2.15-3.82,3.98-5.97,1.01-1.2,2.08-2.46,3.22-3.79,1.52-1.71,2.75-3.25,3.7-4.64,1.45-2.08,3.98-4.9,7.58-8.44.19-.19.54-.44,1.04-.76,1.2-.88,3.41-2.62,6.63-5.21,2.08-1.64,3.85-2.81,5.31-3.51,1.45-.82,2.75-1.29,3.89-1.42l8.81-1.33c1.14-.06,2.12-.03,2.94.09,1.01.13,1.83.32,2.46.57.19.13.69.38,1.52.76.63.25,1.14.47,1.52.66.38.19.82.54,1.33,1.04.38.38.6.89.66,1.52.19,1.14-.03,2.21-.66,3.22-.76,1.08-1.49,1.93-2.18,2.56-2.02,1.77-3.76,3.22-5.21,4.36-1.45,1.14-3.03,1.36-4.74.66-.57-.25-.95-.41-1.14-.47-1.33-.38-2.56-.19-3.7.57l-.28.19c-4.87,4.42-7.17,6.51-6.92,6.26-.7.76-1.17,1.45-1.42,2.08-.13.32-.44.76-.95,1.33-1.01,1.14-1.77,1.96-2.27,2.46-.76.76-1.74,1.8-2.94,3.13-1.45,1.58-2.4,2.59-2.84,3.03-1.14,1.2-2.12,2.4-2.94,3.6-.38.63-.95,1.45-1.71,2.46-.89,1.14-1.49,1.93-1.8,2.37-1.14,1.58-1.99,2.84-2.56,3.79-1.64,2.53-3.22,4.87-4.74,7.01-1.14,1.52-1.93,2.84-2.37,3.98-.57,1.33-1.23,2.56-1.99,3.7-1.26,2.08-2.15,4.3-2.65,6.63-.06.13-.13.32-.19.57-.13.25-.19.47-.19.66-.06.44-.51,1.77-1.33,3.98-.44,1.33-.66,2.12-.66,2.37,0,.19-.09.6-.28,1.23-.06.32-.7,2.91-1.9,7.77-.13.51-.22,1.08-.28,1.71-.25,3.22-.47,5.88-.66,7.96s-.03,3.76.47,5.02c.06.13.16.66.28,1.61.13.89.5,1.8,1.14,2.75.69,1.01,1.36,1.9,1.99,2.65.69.95,1.52,1.45,2.46,1.52,1.52.19,2.62.35,3.32.47,1.33.25,2.59.28,3.79.09,1.58-.32,2.97-.41,4.17-.28.57,0,1.14-.13,1.71-.38.32-.13,1.8-.54,4.45-1.23.69-.19,1.33-.06,1.9.38.63.44.95,1.08.95,1.9,0,.19.03.32.09.38.06.13.16.22.28.28.32.13.54.03.66-.28.06-.19.13-.47.19-.85.13-.38.19-.63.19-.76.25-.76.82-1.39,1.71-1.9.76-.38,1.55-.63,2.37-.76,1.71-.19,2.4-.25,2.08-.19,2.78-.5,4.9-1.26,6.35-2.27.13-.06.73-.38,1.8-.95.25-.13.54-.09.85.09.25.13.41.35.47.66.19,1.45.19,3.25,0,5.4,0,.25-.06.66-.19,1.23-.63,2.53-1.42,4.8-2.37,6.82-.44.95-.92,1.64-1.42,2.08-.25.25-.51.73-.76,1.42-.19.51-.51.98-.95,1.42v-.85c0-.13-.06-.22-.19-.28-.32-.19-.47-.09-.47.28-.06.19-.03.32.09.38,0,.06.22.19.66.38-.57.51-.85.79-.85.85-.38.25-1.33.85-2.84,1.8-.44.25-.95.41-1.52.47-1.27.13-1.96.22-2.09.28-.25.13-.82.32-1.71.57-.76.25-1.36.51-1.8.76-.06,0-.19.06-.38.19-.13.06-.25.13-.38.19-.76.51-1.67.54-2.75.09-.32-.19-.57-.19-.76,0-.38.44-1.14.6-2.27.47-1.01-.06-1.8-.32-2.37-.76h.47l.19-.28c-.19-.06-.38.06-.57.38-.82-.25-1.45-.16-1.9.28ZM516.91,69.17c-.38-.06-.63,0-.76.19-.57.82-.82,1.71-.76,2.65,0,.32.19.47.57.47.69,0,1.1-.32,1.23-.95,0-.06.09-.69.28-1.9-.13-.25-.32-.41-.57-.47ZM516.06,76.37l-.38.09c.13.19.19.32.19.38l.28-.09-.09-.38ZM519.56,78.93c-.06-.13-.16-.16-.28-.1-.32.19-.28.35.09.47l.28-.09-.1-.28ZM523.45,66.7c0,.38.13.44.38.19.06-.06.06-.16,0-.28l-.19-.19c-.19.19-.25.28-.19.28ZM524.21,125.18l-.28-.09v-.09l.09.09.19.09ZM526.77,124.9c-.13.32-.09.57.09.76.25.13.5.06.76-.19.19-.25.19-.47,0-.66l-.28-.19c-.25-.06-.44.03-.57.28ZM528.76,128.12l-.38-.19c-.38.06-.44.25-.19.57l.38-.09.19-.28ZM535.01,128.69c-.38-.06-.54.06-.47.38,0,.19.06.28.19.28.32.06.47-.06.47-.38l-.19-.28ZM538.42,133.62c-.63-.38-.95-.6-.95-.66-.44-.13-.6-.03-.47.28,0,.06.13.09.38.09.25.06.63.13,1.14.19l-.09.09ZM539.85,126.03c-.19.06-.28.16-.28.28.13.38.35.47.66.28l.19-.28c-.13-.32-.32-.41-.57-.28ZM540.79,133.05c-.25.19-.32.44-.19.76.13.25.35.41.66.47.32.06.54-.06.66-.38,0-.06-.03-.19-.09-.38-.13-.25-.32-.41-.57-.47h-.47ZM542.21,123.76l.19.28.19-.19-.19-.28-.19.19ZM544.39,37.32c-.32-.13-.51-.06-.57.19-.06.13,0,.22.19.28.25.13.44.06.57-.19l-.19-.28ZM548,116.75l-.57.57.09.38c.13-.06.25-.41.38-1.04l.09.09ZM552.73,127.84c-.32-.19-.51-.13-.57.19-.06.13,0,.25.19.38.25.13.47.03.66-.28-.13-.19-.22-.28-.28-.28Z"/>
      <path d="M583.16,98.36c-.25.63-.32,1.33-.19,2.09.19,1.39-.1,2.88-.85,4.45-.32.7-.57,1.2-.76,1.52-.7,1.26-1.36,3.1-1.99,5.5-.44,1.58-.38,2.97.19,4.17.32.63.47,1.45.47,2.46-.13,3.16-.13,5.12,0,5.88,0,.44.19.79.57,1.04.57.32,1.1.54,1.61.66.44.13.85.19,1.23.19,3.03,0,5.27-.03,6.73-.09.44,0,1.14-.09,2.08-.28,1.52-.38,2.78-.95,3.79-1.71.38-.25.85-.57,1.42-.95.38-.25.76-.25,1.14,0,1.77,1.14,3.16,2.88,4.17,5.21.25.63.54,1.58.85,2.84.19.76.03,1.42-.47,1.99-1.26,1.26-2.88,2.62-4.83,4.08-.25.13-.63.28-1.14.47-2.65,1.01-4.83,1.55-6.54,1.61h-1.71c-2.46-.06-4.55-.66-6.26-1.8-.82-.51-1.77-.76-2.84-.76-.76-.06-1.58-.09-2.46-.09-.7,0-1.36-.19-1.99-.57-.82-.5-1.58-1.14-2.27-1.9-.76-.88-1.64-2.15-2.65-3.79-.63-.95-1.04-1.83-1.23-2.65-.32-1.58-.66-2.94-1.04-4.08-.88-2.65-.85-5.43.09-8.34.32-.95.47-1.45.47-1.52.7-1.52,1.39-3.66,2.08-6.44.06-.5.32-1.45.76-2.84.32-1.2.54-2.15.66-2.84.06,0,.25-.38.57-1.14h-.09c.13-1.9.44-3.51.95-4.83-.06.13,1.07-3.41,3.41-10.62.06-.13.13-.32.19-.57.06-.25.13-.47.19-.66.38-.88.85-1.55,1.42-1.99.13-.06.35-.22.66-.47v-.19l-.09.28c-.63-1.07-.76-2.31-.38-3.7.19-.76.41-1.93.66-3.51.25-1.52.5-2.69.76-3.51,1.07-3.92,1.67-6.1,1.8-6.54.25-1.01.79-2.87,1.61-5.59.69-2.4,1.26-4.3,1.71-5.69.63-2.4.92-3.35.85-2.84.06-.32.16-.73.28-1.23.19-.57.32-.98.38-1.23.38-2.21.63-3.89.76-5.02.19-1.83.54-3.76,1.04-5.78.19-.63.41-1.29.66-1.99.57-1.77.88-3.13.95-4.08,0,.06.35-1.61,1.04-5.02.63-3.1.95-4.45.95-4.08.25-.57.47-1.8.66-3.7.06-.32.25-.85.57-1.61.13-.38.22-.79.28-1.23v-1.23c0-1.39.44-3.32,1.33-5.78.19-.5.57-.88,1.14-1.14.88-.44,1.77-.85,2.65-1.23.57-.19,1.14-.19,1.71,0,.95.25,1.61.51,1.99.76,2.21,1.39,3.41,2.12,3.6,2.18.69.32,1.36,1.01,1.99,2.09.44.82.76,1.77.95,2.84.06.38.06.79,0,1.23-.44,2.46-.73,3.98-.85,4.55-.76,2.78-1.52,5.34-2.27,7.68-.57,1.52-1.26,3.67-2.08,6.44-.89,3.03-1.55,5.18-1.99,6.44-.25.82-.35,1.67-.29,2.56.06.82-.19,1.77-.76,2.84-.13.19-.19.32-.19.38-.89,1.26-1.23,2.72-1.04,4.36.06.63-.06,1.45-.38,2.46-.06.19-.16.32-.28.38-.19.06-.38-.06-.57-.38-.25-.57-.54-.63-.85-.19-.38.38-.63.7-.76.95-.25.38-.6.63-1.04.76.06-.06-.22,0-.85.19l.28-.38c.5-.76.57-1.55.19-2.37h-.09.19c-.38.38-1.01.66-1.9.85v-.09c-.06.25-.13.51-.19.76.06-.06.03-.09-.09-.09.38.25.95.66,1.71,1.23.25.44,1.07,1.2,2.46,2.27.5.38.57.76.19,1.14-.13.13-.32.32-.57.57-.44.44-.66.63-.66.57-.51.63-.63,1.26-.38,1.9.25.7.29,1.23.09,1.61-.7,1.52-1.29,3.38-1.8,5.59-.57,2.27-1.2,4.42-1.9,6.44-.51,1.39-.6,2.46-.28,3.22-.06,1.45-.09,2.27-.09,2.46,0,.51-.22.85-.66,1.04-.57.25-1.08.28-1.52.09l-.85-.38c-.38-.06-.76.06-1.14.38-.51.44-.63.95-.38,1.52,0-.06.22.28.66,1.04.25.51.32,1.04.19,1.61-.19.7-.28,1.11-.28,1.23-.13.25-.35.7-.66,1.33-.25.57-.44,1.01-.57,1.33-.44,1.08-.95,1.9-1.52,2.46-.76.76-1.23,1.77-1.42,3.03l-.38.76c-.38-.25-.44-.25-.19,0l.28-.09c-.51,1.77-.76,2.72-.76,2.84ZM578.51,132.29l-.28.19.28.09v-.28ZM585.34,86.8l.28.09c-.25,0-.38.03-.38.09v.09l.09-.28ZM590.36,40.64c-.06-.38-.22-.44-.47-.19-.13.13-.13.25,0,.38l.28.19.19-.38ZM590.65,44.43c.06-.13.03-.22-.09-.28-.32-.19-.47-.13-.47.19l.28.19.28-.1ZM590.27,60.26l-.19.1v-.19l.09.19.09-.1ZM592.73,50.21c.63-.44,1.42-.66,2.37-.66h.85c.32-.06.44-.25.38-.57,0-.19-.06-.32-.19-.38-.44-.32-1.36-.63-2.75-.95-.13-.06-.38-.06-.76,0-.95.13-1.48.54-1.61,1.23-.06.51.13,1.01.57,1.52l.38.09.76-.28ZM594.06,24.43c-.19-.25-.38-.25-.57,0-.06.13-.06.25,0,.38.19.19.41.16.66-.09l-.09-.28ZM595.48,14.58l.09-.09-.09.09ZM603.25,8.89l-.09.28.38-.09-.28-.19Z"/>
      <path d="M643.91,47.66c-.06.25-.25.89-.57,1.9-.51-.19-1.3-.35-2.37-.47.32-.44.44-.82.38-1.14,0-.19-.06-.32-.19-.38-.32-.06-.51.09-.57.47-.06.32.13.63.57.95.44.13,1.2.32,2.27.57-.38.7-.57,1.08-.57,1.14-.32.63-.82,1.08-1.52,1.33l-.76.28c-.13-.44-.19-.69-.19-.76-.06-.13-.16-.19-.28-.19-.32-.06-.44.06-.38.38,0,.19.06.28.19.28.06.06.32.13.76.19.25,1.01.38,1.55.38,1.61.06.95,0,1.64-.19,2.08-.51,1.01-1.17,2.88-1.99,5.59-.32,1.08-.22,2.02.28,2.84,0,.06.03.19.09.38.19.57.16,1.11-.09,1.61-.32.82-.54,1.36-.66,1.61-.57,1.01-1.04,2.31-1.42,3.89-1.45,5.94-2.27,9.35-2.46,10.24-.25,1.14-.63,2.65-1.14,4.55-.57,2.15-.95,3.63-1.14,4.45-.82,3.67-1.26,5.72-1.33,6.16-.06.7-.38,1.77-.95,3.22-.7,1.83-1.3,3.29-1.8,4.36-.51,1.08-.92,2.24-1.23,3.51-.32,1.39-.79,3.44-1.42,6.16-.19.89-.28,1.45-.28,1.71-.25,2.34-.98,5.47-2.18,9.38-.38,1.14-.6,2.08-.66,2.84,0,1.07-.25,2.46-.76,4.17-.51,1.96-1.3,3.6-2.37,4.93-.44.44-.92.7-1.42.76h-4.26c-.44,0-.85-.09-1.23-.28-1.26-.69-2.46-1.39-3.6-2.08-.63-.44-.95-1.04-.95-1.8.06-1.14.13-2.12.19-2.94.06-.38.16-.95.28-1.71.13-.76.22-1.29.28-1.61.06-.76.25-1.42.57-1.99.57-1.14.95-2.62,1.14-4.45.13-.95.47-2.62,1.04-5.02,1.26-5.43,2.59-11.18,3.98-17.25.95-4.04,1.64-6.76,2.08-8.15,1.07-3.41,1.55-5.02,1.42-4.83.32-1.52.47-2.34.47-2.46.19-1.83.6-4.04,1.23-6.63.95-3.85,1.45-5.88,1.52-6.07.25-.63.44-1.45.57-2.46-.06.51.66-2.5,2.18-9,.06-.32.22-.85.47-1.61,1.01-2.53,1.64-4.68,1.9-6.44.06-.63.44-1.01,1.14-1.14h.38v.19-.09c.69-.82.98-1.9.85-3.22l.19.1c-.44-.32-.66-.51-.66-.57-.38-.32-.54-.66-.47-1.04.19-1.2.35-2.05.47-2.56.44-1.2,1.26-4.45,2.46-9.76,1.2-5.12,1.96-8.12,2.28-9,.82-2.78,1.17-5.12,1.04-7.01-.06-1.14.35-2.62,1.23-4.45.25-.51.76-1.01,1.52-1.52,1.14-.69,2.43-1.2,3.89-1.52.13-.06.38-.06.76,0,.57.13,1.01-.13,1.33-.76.32-.82.95-1.26,1.9-1.33.88-.06,1.9-.06,3.03,0,.38,0,.76.13,1.14.38,1.9,1.07,3.35,2.18,4.36,3.32.44.38.6.89.47,1.52,0,.06-.03.19-.09.38,0,.13-.03.25-.09.38-1.14,3.48-1.74,5.34-1.8,5.59-.19.63-.41,1.55-.66,2.75-.19,1.2-.38,2.09-.57,2.65.13-.32-.09.51-.66,2.46-1.46,5.18-2.15,7.61-2.09,7.3-.7,2.72-1.74,5.75-3.13,9.1,0,.06-.19.44-.57,1.14-.32-1.52-.57-2.62-.76-3.32-.44-.44-.82-.82-1.14-1.14v-.57c-.06-.25-.09-.44-.09-.57l1.14-.19c.82-.19.95-.6.38-1.23-.38-.44-.73-.44-1.04,0-.19.25-.35.76-.47,1.52.19.32.25.66.19,1.04.25.25.6.63,1.04,1.14v.76c-.06.13-.09.32-.09.57-.06.25-.09.44-.09.57-.13.63.22,1.08,1.04,1.33-.38.76-.73,1.77-1.04,3.03ZM626.94,69.74l.38-.19-.38-.19v.38ZM627.13,57.23h.28c.13.51.38.79.76.85.32.06.5-.03.57-.28.13-.32.03-.54-.28-.66-.19-.06-.6,0-1.23.19l-.09-.09ZM628.37,74.48c.25.19.5.19.76,0,.32-.13.44-.35.38-.66,0-.25-.19-.41-.57-.47-.51-.13-.82.03-.95.47,0,.32.13.54.38.66ZM634.05,55.14c-1.33.38-2.12.57-2.37.57-.38.06-.47.28-.28.66.13.32.35.44.66.38.95-.06,1.55-.5,1.8-1.33.12-.32.19-.44.19-.38v-1.42,1.52ZM631.87,70.21l-.29-.09.09.28.19-.19ZM631.87,47.84l.38.09.28-.19c-.19-.13-.38-.06-.57.19l-.09-.09ZM634.34,46.04l.09-.19h-.28l.19.19ZM639.65,43.3l-.19-.09c-.06.06-.13.16-.19.28.25.19.38.13.38-.19ZM643.53,12.49c-.13-.06-.25-.03-.38.09-.19.19-.22.44-.09.76.06.38.22.54.47.47.25-.06.38-.32.38-.76,0-.32-.13-.5-.38-.57Z"/>
      <path d="M723.43,64.9c-.13.76-.09,1.39.09,1.9.06.38-.03.79-.28,1.23-.51.95-.73,2.02-.66,3.22.06.57.09,1.11.09,1.61-.06.57-.16.98-.28,1.23-.44,1.01-.79,2.5-1.04,4.45-.19,2.21-.44,3.85-.76,4.93-.06.13-.09.41-.09.85-.06,2.91-.32,5.4-.76,7.49,0,.19-.32,1.8-.95,4.83l-.76,4.55c-.19.89-.54,1.64-1.04,2.27v-.09c0,.57-.22,2.37-.66,5.4-.06.57-.63,3.92-1.71,10.05-.19,1.01-.29,1.55-.29,1.61,0,1.01-.6,4.61-1.8,10.8l-.19.47c-.19.57-.57.92-1.14,1.04-1.01.25-2.15.28-3.41.09-.32-.06-.57-.16-.76-.28-1.77-.82-3.03-1.45-3.79-1.9-.25-.13-.7-.47-1.33-1.04-.44-.38-.66-.85-.66-1.42-.06-.76-.03-1.33.09-1.71.19-.51.47-1.14.85-1.9-.13.25.44-.16,1.71-1.23.38-.32.5-.69.38-1.14,0-.06-.03-.19-.09-.38-.19-.51-.22-.92-.09-1.23.19-.57.88-2.4,2.08-5.5-.06.25.38-1.67,1.33-5.78.44-2.21,1.01-4.11,1.71-5.69.5-1.07.88-2.4,1.14-3.98.13-.5.28-1.2.47-2.08.25-.88.41-1.58.47-2.09.32-1.9.98-4.45,1.99-7.68.19-.57.57-2.08,1.14-4.55.13-.57.19-.98.19-1.23,0-.88.38-2.81,1.14-5.78.38-1.64.85-4.14,1.42-7.49.57-3.1,1.04-5.43,1.42-7.01,0,.13.16-.69.47-2.46.19-.76.19-1.45,0-2.08-.44-1.33-.38-2.72.19-4.17.25-.82.5-2.34.76-4.55.13-.63.06-1.45-.19-2.46-.06-.5-.38-.85-.95-1.04-.51-.13-.98-.06-1.42.19-.57.44-1.08.95-1.52,1.52-1.52,1.96-2.69,3.54-3.51,4.74-2.72,3.67-4.26,5.81-4.64,6.44-1.39,2.08-2.37,3.67-2.94,4.74-.95,1.71-1.71,2.88-2.27,3.51-.25.25-.47.6-.66,1.04-.51,1.2-1.49,3.07-2.94,5.59-.63,1.14-1.49,2.02-2.56,2.65-.63.38-.98.63-1.04.76-.63.7-1.67,1.01-3.13.95-.63,0-1.33-.06-2.09-.19-.51-.06-.92-.16-1.23-.28-1.96-1.07-3.92-2.43-5.88-4.08-1.45-1.14-2.53-2.59-3.22-4.36-.76-1.9-1.23-3.35-1.42-4.36-.25-1.26-.63-2.34-1.14-3.22-.13-.32-.35-.41-.66-.28-.38.06-.63.16-.76.28-.19.19-.35.44-.47.76-.51,1.64-1.27,3.6-2.28,5.88-.13.32-.79,2.02-1.99,5.12-.76,1.96-1.39,3.35-1.9,4.17-.82,1.45-1.49,3.16-1.99,5.12-.57,2.34-1.52,4.99-2.84,7.96-.63,1.52-1.17,3.1-1.61,4.74-.44,1.71-1.01,3.29-1.71,4.74-.82,1.58-1.42,3.32-1.8,5.21-.25,1.39-.92,3.67-1.99,6.82-.13.44-.41.95-.85,1.52-.38.51-.57,1.01-.57,1.52-.06.38-.13.63-.19.76-.7,2.02-1.61,3.76-2.75,5.21-.95,1.39-2.37,2.18-4.26,2.37-.44.06-1.42.06-2.94,0-.44,0-.95-.25-1.52-.76-.32-.38-.44-.79-.38-1.23.57-2.97,1.33-5.05,2.27-6.26l-.09.1c.25-2.4,1.2-4.77,2.84-7.11-.06-.38.03-.85.28-1.42.25-.63.41-1.1.47-1.42,0-.32.38-1.48,1.14-3.51.51-.57.98-1.58,1.42-3.03.13-.63.88-2.75,2.27-6.35.19-.63.76-1.61,1.71-2.94.69-1.01,1.07-2.05,1.14-3.13-.06.38-.06.09,0-.85.06-.69.25-1.36.57-1.99,1.45-2.91,2.21-4.42,2.27-4.55.44-.69.73-1.33.85-1.9.5-1.9,1.29-4.01,2.37-6.35.57-1.2,1.01-2.37,1.33-3.51.25-1.01.73-2.56,1.42-4.64.69-2.02,1.17-3.57,1.42-4.64.5-1.64,1.2-3.19,2.08-4.64,1.01-1.58,1.8-3.35,2.37-5.31.13-.69.6-2.18,1.42-4.45.13-.25.7-2.12,1.71-5.59.76-2.46.98-5.27.66-8.44-.06-.38-.16-.92-.28-1.61-.13-.82-.22-1.39-.29-1.71-.06-.76-.09-1.45-.09-2.08.06-.63.35-1.1.85-1.42.5-.32.88-.5,1.14-.57,2.65-.76,4.42-1.17,5.31-1.23.44-.06,1.55-.22,3.32-.47,1.52-.25,3.63-.44,6.35-.57.82-.06,1.58.22,2.28.85.57.57.82,1.2.76,1.9,0,.38-.13,1.64-.38,3.79-.32,2.53-.47,4.9-.47,7.11-.06,1.14-.16,2.69-.29,4.64-.06,1.2-.16,2.05-.28,2.56-.25,1.07-.44,2.88-.57,5.4,0-.06-.19,2.46-.57,7.58-.19,2.59-.22,4.42-.09,5.5,0,.44.16.82.47,1.14.38.51.76.54,1.14.09,3.09-3.66,5.78-7.08,8.06-10.24,1.52-2.21,2.5-3.57,2.94-4.08.7-.88,3.44-4.99,8.25-12.32.69-1.39,1.67-3.16,2.94-5.31,1.58-2.65,2.62-4.42,3.13-5.31.44-.82,1.07-2.09,1.9-3.79.5-1.01,1.17-2.09,1.99-3.22,1.07-1.39,2.53-2.5,4.36-3.32.57-.25,1.1-.38,1.61-.38,2.4,0,3.54,0,3.41,0,1.96-.13,3.79.38,5.5,1.52,1.01.7,1.39.95,1.14.76.95.7,1.23,1.58.85,2.65-.44,1.14-.76,1.9-.95,2.27-.7,1.45-2.34,5.18-4.93,11.18-1.14,2.65-1.93,4.93-2.37,6.82-.44,1.96-1.04,3.54-1.8,4.74-1.08,1.83-2.05,4.45-2.94,7.87-.63,2.34-1.01,4.11-1.14,5.31-.06.57-.19,1.42-.38,2.56-.25,1.08-.41,1.9-.47,2.46,0,.32-.13.73-.38,1.23-.06.06-.44.79-1.14,2.18.19-.63.19-1.14,0-1.52-.06-.06-.16-.09-.28-.09-.19,0-.28.06-.28.19s.22.57.66,1.33c0,.25-.09.89-.28,1.9ZM709.49,109.73l.19.19.09-.19h-.28ZM712.34,121.11c.44.19.79.06,1.04-.38.13-.19.13-.41,0-.66-.13-.32-.35-.44-.66-.38-.44.06-.7.32-.76.76,0,.32.13.54.38.66ZM712.91,116.84c-.19.32-.13.51.19.57.06.06.16.03.28-.09.13-.25.06-.44-.19-.57l-.28.09ZM714.42,103.76l-.28.09.28.19v-.28ZM714.52,91.92l-.29.1.29.19v-.28ZM716.32,96.56c-.06-.13-.16-.22-.28-.28-.32-.06-.47.09-.47.47,0,.32.16.47.47.47.32-.13.41-.35.28-.66ZM717.46,92.2c.06.13.16.19.28.19.88-.06,1.14-.5.76-1.33l-.38-.19c-.76.06-.98.51-.66,1.33ZM718.69,29.17h-.28c-.19-.5-.35-.88-.47-1.14-.06-.25-.16-.57-.28-.95h.28l-.19.09c0,.25.06.51.19.76.25.57.47.98.66,1.23h.09ZM719.92,38.08c-.7-.19-1.08-.28-1.14-.28-.38-.06-.47.06-.28.38.06.13.19.16.38.09.32-.06.66-.16,1.04-.28v-2.65c-.32-.06-.57-.13-.76-.19v.28c.32-.06.57-.09.76-.09-.13,1.01-.13,1.93,0,2.75ZM729.49,28.51l.09-.09-.29-.19-.19.28c.06.06.16.13.28.19.06-.06.1-.13.1-.19Z"/>
      <path d="M775.55,116.46c-.32-.44-.54-.92-.66-1.42,0-.06-.06-.47-.19-1.23h.29c.12-.13.16-.22.09-.28-.25-.13-.38,0-.38.38l-.85-.09c-.63,0-1.08.28-1.33.85l-.38.76.09-.09c-.7.44-1.08.95-1.14,1.52,0,.19-.06.7-.19,1.52h-1.8c.32-1.01.25-2.02-.19-3.03l.57-1.14c.38-.69.19-1.04-.57-1.04-.57.06-.98.13-1.23.19-.38.06-.47.28-.29.66.19.44.73.85,1.61,1.23-.25,1.08-.22,2.15.09,3.22.57-.32,1.17-.35,1.8-.09.76.25,1.26.92,1.52,1.99.06.38-.03.76-.28,1.14l.09-.09c-.32.44-.7.82-1.14,1.14-.38.32-.76.41-1.14.28-.06,0-.44-.16-1.14-.47l-.09.09v-1.04l.09.09c.13-.44.22-.66.28-.66.06-.38-.06-.57-.38-.57-.19,0-.32.06-.38.19-.06.06-.22.41-.47,1.04v-.09c-.7.06-1.55.41-2.56,1.04-.44.25-.57.6-.38,1.04.06.38.35.6.85.66h1.23-.09c.32.7.47,1.08.47,1.14.13.32.13.57,0,.76-.7,1.33-1.55,2.43-2.56,3.32-1.33,1.14-3.13,2.46-5.4,3.98-.06-.32-.22-.47-.47-.47-.19,0-.22.09-.09.28.13.19.35.22.66.09l-1.71,1.23c-2.97,2.02-6.38,3.22-10.24,3.6-1.83.13-3.7-.35-5.59-1.42-.19-.06-.44-.19-.76-.38-.32-.25-.54-.41-.66-.47-.38-.19-.79-.32-1.23-.38-1.2-.13-1.77-.16-1.71-.09-1.96-1.07-2.81-1.52-2.56-1.33-.38-.32-.6-.51-.66-.57-1.39-1.52-2.59-3.06-3.6-4.64-.57-.82-.79-1.74-.66-2.75.25-1.71.76-3.19,1.52-4.45.76-1.26,1.14-2.12,1.14-2.56.7-1.14,1.3-2.87,1.8-5.21.19-.63.6-1.8,1.23-3.51,2.34-6.44,4.04-11.5,5.12-15.16,0-.13.32-1.07.95-2.84.44-1.33,1.01-2.27,1.71-2.84.25-.19.38-.41.38-.66-.06-.69.09-1.39.47-2.08.57-1.14.92-2.46,1.04-3.98.06-.44.16-1.14.28-2.09.13-1.01.35-1.83.66-2.46.63-1.07,1.04-2.24,1.23-3.51.13-.63.44-1.42.95-2.37.44-.76.85-1.52,1.23-2.27.25-.5.38-.88.38-1.14.06-.76.57-2.37,1.52-4.83-.13.25-.09.51.09.76.13.32.35.38.66.19.06,0,.16-.06.29-.19.19-.32.13-.57-.19-.76l-.76-.1c.82-3.54,1.29-5.59,1.42-6.16.19-.82.25-1.39.19-1.71-.19-.82-.09-2.05.28-3.7.32-1.58.85-4.17,1.61-7.77.76-3.41,1.36-6.03,1.8-7.87,1.83-7.9,2.97-12.79,3.41-14.69.76-2.91,1.61-5.59,2.56-8.06.13-.38.38-.85.76-1.42.19-.32.41-.5.66-.57,1.07-.19,2.31-.38,3.7-.57.19-.06.47-.03.85.09.5.13.88.25,1.14.38.19.06.44.19.76.38.38.19.63.32.76.38,2.72,1.33,5.15,1.9,7.3,1.71h.85c2.21-.06,4.2.44,5.97,1.52,2.97,1.9,4.77,3,5.4,3.32,1.2.63,2.37,1.61,3.51,2.94,1.01,1.14,1.64,2.21,1.9,3.22.19.63.32,1.04.38,1.23.7,1.39,1.07,3.44,1.14,6.16.06,1.52-.32,3.13-1.14,4.83-.63,1.2-1.14,2.05-1.52,2.56.32-.44-.38.76-2.09,3.6l-.19-.09h.29c-.51.82-1.71,2.4-3.6,4.74-.32.44-.98,1.26-1.99,2.46-.82,1.01-1.49,1.8-1.99,2.37-.82,1.01-1.71,1.93-2.65,2.75-2.53,1.96-4.36,3.25-5.5,3.89.06-.06-.28.19-1.04.76-.44.38-.44.76,0,1.14.57.51.88.79.95.85,1.39.95,2.91,2.21,4.55,3.79,1.33,1.2,2.28,2.02,2.84,2.46,1.2,1.01,2.18,2.21,2.94,3.6.12.25.44.85.95,1.8.44.76.79,1.39,1.04,1.9.76,1.39,1.2,2.84,1.33,4.36.19,2.02.22,3.98.09,5.88-.13,1.64-.16,3.07-.09,4.26.13,1.45-.03,2.84-.47,4.17-.13.51-.22.89-.28,1.14-.13.76-.47,1.55-1.04,2.37-.7,1.08-1.55,2.34-2.56,3.79-.95,1.45-1.52,2.56-1.71,3.32-.06.19-.35.7-.85,1.52-.63.89-1.49,1.23-2.56,1.04-.57-.06-.82.19-.76.76v.38c.13.89-.22,1.49-1.04,1.8-.19.06-.41.19-.66.38-.06.06-.13.19-.19.38-.25.89-.82,1.45-1.71,1.71-.32.13-.51.32-.57.57-.06.25-.57,1.08-1.52,2.46h.09ZM732.81,127.27c-.06.19-.09.32-.09.38l.09.19c.13-.19.09-.38-.09-.57h.09ZM738.02,126.98c-.76.44-.76.95,0,1.52.44.32.79.28,1.04-.09.13-.25.13-.51,0-.76l-.76-.95c.38-.38.6-.57.66-.57.32-.38.25-.54-.19-.47-.06,0-.13.13-.19.38,0,.06-.06.32-.19.76l-.38.19ZM741.34,102.34v.28l.38-.09-.38-.19ZM743.61,106.23c-.06-.25-.22-.41-.47-.47-.32-.13-.54-.06-.66.19-.32.44-.51.79-.57,1.04-.06.13-.09.38-.09.76,0,.57.28.73.85.47.57-.25.92-.76,1.04-1.52,0-.25-.03-.41-.09-.47ZM744.18,127.27c-.38-.69-.95-.82-1.71-.38-.25.13-.38.35-.38.66.06.89.5,1.52,1.33,1.9.76.44,1.14.22,1.14-.66.06-.5-.06-1.01-.38-1.52ZM744.75,101.3c-.13-.25-.35-.28-.66-.09-.25.19-.28.38-.09.57.25.19.47.16.66-.09.13-.13.16-.25.09-.38ZM746.08,123.95l.19-.09c-1.01.76-1.58,1.17-1.71,1.23-.19.19-.19.44,0,.76.38.57.82.89,1.33.95,2.4.06,4.8-.63,7.2-2.08,1.52-.88,3.28-2.24,5.31-4.08.32-.25.79-.69,1.42-1.33.63-.5,1.11-.92,1.42-1.23l-.09.1c1.2-1.64,3.06-3.7,5.59-6.16.25-.25.66-.38,1.23-.38.19,0,.44-.03.76-.1.57-.13.73-.44.47-.95-.25-.63-.22-1.17.09-1.61,1.33-1.77,1.93-2.56,1.8-2.37,1.07-1.39,1.8-3,2.18-4.83,0-.13.22-.95.66-2.46.63-2.46,1.8-4.45,3.51-5.97l-.09.19v-.09c.06-.44.22-.85.47-1.23.38-.5.82-.79,1.33-.85.76-.06,1.01-.44.76-1.14-.19-.57-.16-1.23.09-1.99.06-.19.16-.41.28-.66.13-.25.22-.44.29-.57.19-.57.28-.95.28-1.14.25-2.08.22-3.76-.09-5.02-.13-.44-.38-1.48-.76-3.13-.25-1.26-.51-2.27-.76-3.03-.57-2.21-1.83-3.79-3.79-4.74-.13-.06-.38-.19-.76-.38-5.5-2.4-8.18-3.57-8.06-3.51-1.39-.63-2.72-1.07-3.98-1.33-.44-.06-.85.06-1.23.38-.82.7-1.33,1.49-1.52,2.37-.32,1.2-.51,1.9-.57,2.08-.13.95-.38,2.24-.76,3.89-.44,1.9-.73,3.19-.85,3.89-.38,1.77-.76,3.13-1.14,4.08-.38,1.01-.7,2.5-.95,4.45-.06.19-.13.54-.19,1.04,0,.44-.03.79-.09,1.04-.25,1.39-.66,2.59-1.23,3.6-.13,0-.16-.03-.09-.09l.09,1.23c-1.33,6-2.24,9.95-2.75,11.85-.89,3.6-1.74,6.1-2.56,7.49-.19.44-.35,1.14-.47,2.08-.44,3.54-1.17,6.79-2.18,9.76l-.09.09ZM748.64,90.12c-.06-.19-.16-.32-.28-.38-.25-.13-.51-.09-.76.09-.57.51-1.11,1.45-1.61,2.84v.47c.06.32.22.51.47.57.13,0,.25-.03.38-.09.19-.06.32-.13.38-.19.95-.95,1.45-1.93,1.52-2.94l-.09-.38ZM747.22,135.42c-.06.44.06.51.38.19l-.09-.28-.28.09ZM749.77,134.19c-.19-.25-.38-.25-.57,0-.06.13-.06.25,0,.38.25.19.47.16.66-.09l-.09-.28ZM754.89,69.64c-.06-.06-.19-.06-.38,0-.89.38-1.23,1.01-1.04,1.9.13.38.35.47.66.28.57-.25.95-.73,1.14-1.42.06-.38-.06-.63-.38-.76ZM756.22,131.53c-.51-.06-.79-.09-.85-.09-.13,0-.22.09-.28.28-.13.25-.03.44.28.57.13,0,.25-.03.38-.09.25-.13.38-.35.38-.66h.09ZM756.69,65.66c.25-.25.28-.5.09-.76-.19-.25-.41-.32-.66-.19-.13.06-.25.13-.38.19-.25.19-.28.41-.09.66,0,.06.13.16.38.28.25.06.47,0,.66-.19ZM755.65,67.94l.09-.19-.19-.1.09.28ZM756.12,46.71c-.19.63,0,.95.57.95.44,0,.76-.22.95-.66.25-.5.06-.79-.57-.85-.44,0-.76.19-.95.57ZM756.5,51.54l-.09.19.19.09-.09-.28ZM756.88,44.72c0,.32.13.51.38.57.32.06.57-.03.76-.28.25-.57.03-.85-.66-.85-.32.06-.47.25-.47.57ZM760.11,54.67c.12,0,.19-.09.19-.28.06-.38-.09-.5-.47-.38l-.28.28c.06.32.25.44.57.38ZM760.86,44.53h.09-.09ZM762.1,48.51l.38-.19-.38-.19v.38ZM764.09,42.06c.25.25.41.19.47-.19,0-.13-.06-.22-.19-.28-.06,0-.16.06-.28.19v.28ZM785.79,25.95c-.13-.57-.47-1.01-1.04-1.33-.57-.38-1.08-.47-1.52-.28-.32.13-.79.32-1.42.57-.57.32-1.01.54-1.33.66-1.52.57-2.46.85-2.84.85-.51.06-1.26.38-2.27.95-.82.44-1.42,1.01-1.8,1.71-.76,1.45-1.01,1.96-.76,1.52-1.71,2.91-2.91,5.75-3.6,8.53-.57,1.2-1.36,4.04-2.37,8.53,0,.13-.03.25-.09.38,0,1.08.19,1.71.57,1.9s1.01.03,1.9-.47c.7-.38,1.39-.85,2.09-1.42.82-.63,1.8-1.45,2.94-2.46.38-.38,1.04-1.01,1.99-1.9.82-.76,1.48-1.36,1.99-1.8,1.01-.88,2.12-2.18,3.32-3.89,1.71-2.4,3.09-5.31,4.17-8.72,0-.06.09-.73.28-1.99-.13-.82-.19-1.26-.19-1.33ZM767.02,123.95l-.09.19h.09v-.19ZM768.82,122.34c-.32-.32-.63-.63-.95-.95v.09h.95l-.09-.09v1.04l.09-.09ZM771.19,62.25l-.19.09.19-.19v.09ZM772.33,115.7l.28.19c-.13.25-.25.19-.38-.19.06.06.06-.06,0-.38l-.09.09c.13.13.19.22.19.28ZM773.19,111.72c0,.32.12.51.38.57.63.19.95.03.95-.47,0-.32-.16-.5-.47-.57l-.38-.09c-.32.13-.47.32-.47.57ZM775.36,104.24c0,.19.06.28.19.28.32.13.5.03.57-.28l-.28-.28c-.32-.06-.47.03-.47.28ZM776.41,54.86c.06-.13.06-.25,0-.38-.13-.32-.32-.38-.57-.19-.06.06-.09.16-.09.28,0,.32.13.47.38.47l.28-.19ZM778.78,108.88h-.19c-.76-.13-1.23-.16-1.42-.09l-.09-.1c.69.13,1.23.19,1.61.19h.09ZM781.52,102.15c0-.38-.09-.63-.28-.76-.32-.19-.54-.13-.66.19-.06.19,0,.32.19.38.13,0,.38.03.76.09v.09ZM781.43,45.29c-.13-.06-.25-.09-.38-.09-.19.06-.32.13-.38.19-.19.32-.13.54.19.66.13.06.25.09.38.09.19-.06.5-.35.95-.85.32,0,.38-.06.19-.19-.13.25-.16.35-.1.28-.51-.06-.79-.1-.85-.1ZM782.47,88.22c-.13.32-.06.57.19.76.32.38.66.44,1.04.19.13-.06.19-.19.19-.38,0-.69-.38-.98-1.14-.85l-.28.28ZM784.56,99.4c.06-.25-.06-.44-.38-.57-.19-.06-.44-.13-.76-.19-.13,0-.22.06-.28.19-.19.25-.16.47.09.66.06,0,.32.09.76.28.32.06.5-.06.57-.38ZM783.23,92.77l-.09-.09.09-.09v.19ZM783.8,95.42l.09-.38c-.19-.32-.35-.32-.47,0-.06.13-.03.22.09.28l.28.09ZM789.01,88.5c.25-.13.35-.35.28-.66,0-.19-.09-.28-.28-.28-.89-.19-1.71-.6-2.46-1.23-.44-.32-.79-.19-1.04.38-.38,1.01-.16,1.58.66,1.71.06,0,.73.09,1.99.28.5-.13.79-.19.85-.19ZM787.69,92.96c.06.19.09.35.09.47.13.32.35.44.66.38.25-.06.35-.28.28-.66-.06-.38-.32-.82-.76-1.33.06-.06.19-.09.38-.09-.13-.06-.13-.09,0-.09l-.28.19c-.32.38-.44.76-.38,1.14ZM790.81,22.54l-.19-.09h.19v.09Z"/>
    </g>
  </g>
</svg>